<?xml version="1.0" encoding="UTF-8"?>
<svg viewBox="0 0 145 49" version="1.1" xmlns="http://www.w3.org/2000/svg" xmlns:xlink="http://www.w3.org/1999/xlink">
    <!-- Generator: Sketch 54.1 (76490) - https://sketchapp.com -->
    <title>Group</title>
    <desc>Created with Sketch.</desc>
    <defs>
        <linearGradient x1="49.9494453%" y1="-291.34956%" x2="49.9494453%" y2="176.174186%" id="linearGradient-1">
            <stop stop-color="#3CECEC" offset="60.98%"></stop>
            <stop stop-color="#38E7E7" offset="66.77%"></stop>
            <stop stop-color="#31DEDE" offset="71.21%"></stop>
            <stop stop-color="#24B6B6" offset="86.23%"></stop>
        </linearGradient>
        <linearGradient x1="74.2522223%" y1="12.7165104%" x2="21.1985603%" y2="89.6202138%" id="linearGradient-2">
            <stop stop-color="#684574" offset="0%"></stop>
            <stop stop-color="#9F41C0" offset="52.73%"></stop>
            <stop stop-color="#684574" offset="100%"></stop>
        </linearGradient>
        <linearGradient x1="50.6936628%" y1="69.8651014%" x2="49.6110985%" y2="31.0734886%" id="linearGradient-3">
            <stop stop-color="#3CECEC" offset="60.98%"></stop>
            <stop stop-color="#38E7E7" offset="66.77%"></stop>
            <stop stop-color="#31DEDE" offset="71.21%"></stop>
            <stop stop-color="#24B6B6" offset="86.23%"></stop>
        </linearGradient>
    </defs>
    <g id="Detail-Service-iOS-Page" stroke="none" stroke-width="1" fill="none" fill-rule="evenodd">
        <g id="Artboard" transform="translate(-59.000000, -22.000000)">
            <g id="Group" transform="translate(59.000000, 22.000000)">
                <path d="M8.18033655,1.26052021 C7.30776731,0.420173405 6.14434167,1.59872116e-13 4.72641667,1.59872116e-13 C3.30849167,1.59872116e-13 2.18142308,0.420173405 1.30885385,1.26052021 C0.436284616,2.10086702 7.44293516e-13,3.18631499 7.44293516e-13,4.55187855 L7.44293516e-13,43.3829041 C7.44293516e-13,44.7484676 0.436284616,45.8339156 1.30885385,46.6742624 C2.18142308,47.5146092 3.30849167,47.9347826 4.72641667,47.9347826 C6.14434167,47.9347826 7.27141026,47.5146092 8.18033655,46.6742624 C9.05290578,45.8339156 9.52554745,44.7484676 9.52554745,43.3829041 L9.52554745,4.55187855 C9.52554745,3.22132944 9.08926283,2.10086702 8.18033655,1.26052021 Z" id="Shape" fill="#3CECEC" fill-rule="nonzero"></path>
                <path d="M143.915714,43.7076248 C143.708657,41.7066731 142.362787,41.1301276 142.362787,41.1301276 C141.914164,40.8248977 140.637312,40.4179245 138.911838,40.4857533 C137.220873,40.5535822 135.598926,40.8248977 135.598926,40.8248977 L131.319749,41.3675287 L126.729987,41.8084164 L120.863373,41.8762452 C120.621807,41.8762452 120.41475,41.8762452 120.207693,41.8762452 C118.965351,41.9440741 117.412424,41.7405875 115.928516,40.7231544 C115.479892,41.6727586 114.92774,42.6223629 114.306569,43.5041382 C114.617155,44.419828 115.100288,44.962459 115.341854,45.3016033 C117.757519,48.6591326 122.381791,48.5573893 123.10649,48.6591326 C124.314322,48.8287047 129.870351,48.9982769 130.871126,48.9982769 C136.185588,49.0321914 140.050651,48.5573893 140.913388,48.2860738 C143.432581,47.5060417 144.088262,45.5729188 143.915714,43.7076248 Z" id="Shape" fill="url(#linearGradient-1)" fill-rule="nonzero"></path>
                <path d="M143.88362,12.7053206 C143.954394,12.1839167 143.989781,11.5234719 143.812846,10.8282667 C143.565137,9.8549795 142.892786,8.84693204 141.371147,8.18648715 C140.769569,7.94316534 140.061831,7.7346038 139.283318,7.59556277 C139.070996,7.56080251 138.575579,7.491282 138.363258,7.45652174 C138.327871,7.45652174 124.314644,24.5933286 117.591127,31.8234622 C117.591127,31.8582225 117.591127,31.8929827 117.591127,31.8929827 C117.591127,34.5695225 117.449579,37.2113021 116.423358,39.4359586 C119.006604,40.6873278 121.235981,40.4787663 121.412916,40.444006 L132.91367,26.5399031 C132.91367,26.5399031 143.706685,13.4005258 143.742072,13.3310052 C143.706685,13.435286 143.812846,13.1919642 143.88362,12.7053206 Z" id="Shape" fill="url(#linearGradient-2)" fill-rule="nonzero"></path>
                <path d="M118.363434,8.53971848 C119.70359,8.64588063 120.937945,8.43355632 120.937945,8.43355632 C120.937945,8.43355632 125.41689,7.97352033 126.228037,7.90274556 C128.908351,7.65503387 134.445314,7.44270957 136.208678,7.54887172 C137.125627,7.61964649 138.25418,7.72580864 139.312198,7.93813295 C141.3577,8.32739417 142.133581,8.89359232 142.697857,9.38901569 C143.332668,9.91982645 143.650074,10.5567994 143.791143,11.2291597 C143.967479,11.9369073 143.967479,12.644655 143.861677,13.1400784 C143.791143,13.4585649 143.755876,13.7062766 143.720608,13.8478261 C145.131299,11.6184209 145.76611,6.34570066 143.544272,3.90397116 C141.392968,1.49762904 139.065327,1.03759305 138.359982,0.860656131 C137.654636,0.648331827 132.329277,0.223683218 132.329277,0.223683218 C132.329277,0.223683218 126.086968,-0.0594158547 123.688793,0.0113589134 C119.879927,0.15290845 118.292899,0.400620138 117.481752,0.612944443 C117.658088,1.00220567 117.76389,1.35607951 117.834425,1.67456596 C118.433968,4.18707023 118.363434,5.77950252 118.363434,8.53971848 Z" id="Shape" fill="url(#linearGradient-3)" fill-rule="nonzero"></path>
                <path d="M96.1589817,48.9288308 C86.174305,48.9288308 78.0464279,41.1002179 78.0464279,31.4567901 L78.0464279,4.1989833 C78.0464279,1.88598402 79.9032274,0 82.1804344,0 C84.4576413,0 86.3144409,1.88598402 86.3144409,4.1989833 L86.3144409,31.4567901 C86.3144409,36.4742193 90.7287189,40.5308642 96.1940156,40.5308642 C101.624278,40.5308642 106.038556,36.4386347 106.038556,31.4567901 L106.038556,4.1989833 C106.038556,1.88598402 107.895356,0 110.172563,0 C112.44977,0 114.306569,1.88598402 114.306569,4.1989833 L114.306569,31.4567901 C114.306569,41.1002179 106.178692,48.9288308 96.1589817,48.9288308 Z M72.1957578,49 C62.2110812,49 53.9781022,41.1358025 53.9781022,31.4567901 L53.9781022,4.1989833 C53.9781022,1.88598402 55.8349017,0 58.1121086,0 C60.3893156,0 62.2461151,1.88598402 62.2461151,4.1989833 L62.2461151,9.3231663 L64.7685597,9.3231663 C67.2910043,9.3231663 69.3580076,11.422658 69.3580076,13.9847495 C69.3580076,16.546841 67.2910043,18.6463326 64.7685597,18.6463326 L62.2461151,18.6463326 L62.2461151,31.4567901 C62.2461151,36.4030501 66.8705969,40.6020334 72.2307917,40.6020334 C73.6321499,40.6020334 74.9634401,40.3173566 76.1896284,39.8547567 C77.3457489,42.4524328 79.0273786,44.8010167 81.1294158,46.7581699 C78.4668354,48.1815541 75.4188815,49 72.1957578,49 Z" id="Shape" fill="#3CECEC"></path>
                <path d="M49.7445255,17.4974545 L49.7445255,44.7949091 C49.7445255,47.1112727 47.9000127,49 45.6378743,49 C43.3757359,49 41.5312231,47.1112727 41.5312231,44.7949091 L41.5312231,17.4974545 C41.5312231,12.4727273 37.1461548,8.41018182 31.7518248,8.41018182 C26.3574948,8.41018182 21.9724265,12.5083636 21.9724265,17.4974545 L21.9724265,44.7949091 C21.9724265,47.1112727 20.1279137,49 17.8657753,49 C15.6036369,49 13.7591241,47.1112727 13.7591241,44.7949091 L13.7591241,17.4974545 C13.7591241,7.84 21.833218,0 31.7518248,0 C41.6704316,0 49.7445255,7.87563636 49.7445255,17.4974545 Z" id="Shape" fill="#3CECEC"></path>
            </g>
        </g>
    </g>
</svg>