<?xml version="1.0" encoding="UTF-8"?>
<svg width="682px" height="465px" viewBox="0 0 682 465" version="1.1" xmlns="http://www.w3.org/2000/svg" xmlns:xlink="http://www.w3.org/1999/xlink">
    <!-- Generator: Sketch 61 (89581) - https://sketch.com -->
    <title>Group</title>
    <desc>Created with Sketch.</desc>
    <g id="404" stroke="none" stroke-width="1" fill="none" fill-rule="evenodd">
        <g id="Artboard" transform="translate(-79.000000, -87.000000)">
            <g id="Group" transform="translate(79.000000, 87.000000)">
                <path d="M463.6495,232.723 C440.1875,232.723 425.2305,215.241 402.9135,206.329 C388.8285,200.917 373.8975,198.325 358.9415,198.325 C339.3655,198.325 319.7465,202.768 301.9415,211.142 C281.8945,220.152 253.6205,228.342 227.2665,228.342 C195.5605,228.342 166.6355,216.481 158.1955,179.923 C152.4185,155.079 160.9135,137.672 183.7275,128.397 C192.4605,124.995 201.5025,119.868 206.4355,111.118 C213.2425,99.434 205.1825,81.757 203.6655,69.242 C199.5455,33.496 219.5345,24.046 246.8985,24.046 C262.2485,24.046 279.9205,27.021 296.9565,29.995 C313.9935,32.969 330.3925,35.944 343.2035,35.943 C348.5135,35.943 353.2085,35.432 357.0745,34.198 L355.0155,34.34 C364.4805,31.588 369.3675,22.139 378.0545,18.039 C383.1005,15.865 387.7935,14.922 392.2165,14.922 C418.3305,14.922 435.0065,47.809 459.0225,54.558 C471.6475,57.9 483.2155,55.706 495.9785,61.141 C511.5765,67.785 519.6375,85.461 519.4195,103.002 C518.4235,119.197 505.4805,129.672 498.1265,143.496 C489.4005,157.415 492.5595,163.508 496.9585,177.928 C504.7025,201.236 500.7005,226.274 474.1805,231.596 C470.4675,232.372 466.9745,232.723 463.6495,232.723" id="Fill-4" fill="#E1E1E1"></path>
                <path d="M175.8205,224.125 C179.3665,224.125 179.3665,229.625 175.8205,229.625 C172.2735,229.625 172.2735,224.125 175.8205,224.125 Z M159.3205,211.75 C166.4145,211.75 166.4145,222.75 159.3205,222.75 C152.2265,222.75 152.2265,211.75 159.3205,211.75 Z M516.8205,206.938 C523.9135,206.938 523.9135,217.938 516.8205,217.938 C509.7265,217.938 509.7265,206.938 516.8205,206.938 Z M517.5075,190.438 C521.0545,190.438 521.0545,195.938 517.5075,195.938 C513.9605,195.938 513.9605,190.438 517.5075,190.438 Z M510.6325,145.612 C517.7265,145.612 517.7265,156.612 510.6325,156.612 C503.5385,156.612 503.5385,145.612 510.6325,145.612 Z M527.5455,143.824 C532.8655,143.824 532.8655,152.074 527.5455,152.074 C522.2255,152.074 522.2255,143.824 527.5455,143.824 Z M521.6325,124.85 C530.8545,124.85 530.8545,139.15 521.6325,139.15 C512.4105,139.15 512.4105,124.85 521.6325,124.85 Z M161.3835,116.6 C170.6045,116.6 170.6045,130.9 161.3835,130.9 C152.1615,130.9 152.1615,116.6 161.3835,116.6 Z M179.9455,101.75 C187.0385,101.75 187.0385,112.75 179.9455,112.75 C172.8515,112.75 172.8515,101.75 179.9455,101.75 Z M159.4575,99.687 C164.7785,99.687 164.7785,107.937 159.4575,107.937 C154.1375,107.937 154.1375,99.687 159.4575,99.687 Z M483.8205,44.687 C489.1405,44.687 489.1405,52.937 483.8205,52.937 C478.4995,52.937 478.4995,44.687 483.8205,44.687 Z M466.6325,30.662 C475.8545,30.662 475.8545,44.962 466.6325,44.962 C457.4105,44.962 457.4105,30.662 466.6325,30.662 Z M482.4455,32.312 C485.9915,32.312 485.9915,37.812 482.4455,37.812 C478.8985,37.812 478.8985,32.312 482.4455,32.312 Z M203.8705,17.324 C210.9645,17.324 210.9645,28.324 203.8705,28.324 C196.7775,28.324 196.7775,17.324 203.8705,17.324 Z M342.8825,22.687 C346.4295,22.687 346.4295,28.187 342.8825,28.187 C339.3355,28.187 339.3355,22.687 342.8825,22.687 Z M324.3205,14.437 C331.4135,14.437 331.4135,25.437 324.3205,25.437 C317.2265,25.437 317.2265,14.437 324.3205,14.437 Z M220.3705,14.574 C223.9175,14.574 223.9175,20.074 220.3705,20.074 C216.8235,20.074 216.8235,14.574 220.3705,14.574 Z M340.1325,0 C350.7735,0 350.7735,16.5 340.1325,16.5 C329.4925,16.5 329.4925,0 340.1325,0 Z" id="Combined-Shape" fill="#E1E1E1"></path>
                <path d="M442.7105,207.028 C442.7105,209.913 421.1065,210.751 418.7715,210.751 L257.0945,210.751 C254.7625,210.751 233.1555,209.913 233.1555,207.028 L252.8695,177.476 C252.8695,174.59 254.7625,172.251 257.0945,172.251 L418.7715,172.251 C421.1065,172.251 422.9965,174.59 422.9965,177.476 L442.7105,207.028" id="Fill-33" fill="#A4A6A3"></path>
                <polyline id="Fill-34" fill="#2F3230" points="304.6845 200.445 263.1325 200.445 270.4035 182.845 307.9855 182.845 304.6845 200.445"></polyline>
                <polyline id="Fill-35" fill="#2F3230" points="371.1815 200.445 412.7335 200.445 405.4605 182.845 367.8805 182.845 371.1815 200.445"></polyline>
                <polyline id="Fill-36" fill="#2F3230" points="417.3515 200.445 431.9835 200.445 420.0105 182.845 408.9725 182.845 417.3515 200.445"></polyline>
                <polyline id="Fill-37" fill="#2F3230" points="258.5165 200.445 243.8835 200.445 255.8575 182.845 266.8935 182.845 258.5165 200.445"></polyline>
                <polyline id="Fill-38" fill="#2F3230" points="367.5265 200.445 308.3385 200.445 311.6385 182.845 364.2265 182.845 367.5265 200.445"></polyline>
                <polygon id="Fill-39" fill="#A4A6A3" points="247.4945 188.751 428.3725 188.751 428.3725 186.057 247.4945 186.057"></polygon>
                <polygon id="Fill-40" fill="#A4A6A3" points="245.5335 195.351 430.3335 195.351 430.3335 192.656 245.5335 192.656"></polygon>
                <path d="M443.8175,213.872 C443.8175,216.205 443.3335,218.096 441.0025,218.096 L234.8645,218.096 C232.5295,218.096 232.0485,216.205 232.0485,213.872 L232.0485,210.25 C232.0485,207.917 232.5295,206.027 234.8645,206.027 L441.0025,206.027 C443.3335,206.027 443.8175,207.917 443.8175,210.25 L443.8175,213.872" id="Fill-41" fill="#2F3230"></path>
                <path d="M376.5705,212.162 C376.5705,213.377 375.5855,214.363 374.3705,214.363 L301.4955,214.363 C300.2805,214.363 299.2955,213.377 299.2955,212.162 C299.2955,210.947 300.2805,209.962 301.4955,209.962 L374.3705,209.962 C375.5855,209.962 376.5705,210.947 376.5705,212.162" id="Fill-42" fill="#5E6360"></path>
                <path d="M425.1085,173.487 C425.1085,175.82 423.2175,177.712 420.8825,177.712 L254.9835,177.712 C252.6495,177.712 250.7575,175.82 250.7575,173.487 L250.7575,65.254 C250.7575,62.921 252.6495,61.028 254.9835,61.028 L420.8825,61.028 C423.2175,61.028 425.1085,62.921 425.1085,65.254 L425.1085,173.487" id="Fill-43" fill="#2F3230"></path>
                <path d="M337.9335,66.906 C340.2035,66.906 340.2035,63.385 337.9335,63.385 C335.6625,63.385 335.6625,66.906 337.9335,66.906" id="Fill-44" fill="#FFFFFE"></path>
                <path d="M412.9045,166.683 C412.9045,168.69 411.2775,170.317 409.2725,170.317 L266.5955,170.317 C264.5895,170.317 262.9605,168.69 262.9605,166.683 L262.9605,73.606 C262.9605,71.599 264.5895,69.972 266.5955,69.972 L409.2725,69.972 C411.2775,69.972 412.9045,71.599 412.9045,73.606 L412.9045,166.683" id="Fill-45" fill="#FFFFFE"></path>
                <path d="M314.9395,106.532 L302.4935,118.976 C301.8485,119.621 301.8485,120.666 302.4935,121.31 C303.1375,121.954 304.1825,121.954 304.8265,121.31 L317.2725,108.866 C317.9175,108.221 317.9175,107.177 317.2735,106.532 C316.6285,105.888 315.5835,105.888 314.9395,106.532" id="Fill-46" fill="#325265"></path>
                <path d="M317.2725,118.979 L304.8275,106.533 C304.1835,105.889 303.1385,105.889 302.4945,106.533 C301.8495,107.178 301.8495,108.222 302.4945,108.867 L314.9395,121.312 C315.5835,121.956 316.6285,121.956 317.2725,121.312 C317.9175,120.668 317.9175,119.623 317.2725,118.979" id="Fill-47" fill="#325265"></path>
                <path d="M371.0395,106.532 L358.5925,118.976 C357.9485,119.621 357.9485,120.666 358.5925,121.31 C359.2375,121.954 360.2815,121.954 360.9265,121.31 L373.3725,108.866 C374.0165,108.221 374.0165,107.177 373.3725,106.532 C372.7285,105.888 371.6835,105.888 371.0395,106.532" id="Fill-48" fill="#325265"></path>
                <path d="M373.3725,118.979 L360.9285,106.533 C360.2835,105.889 359.2395,105.889 358.5945,106.533 C357.9505,107.178 357.9505,108.222 358.5945,108.867 L371.0395,121.312 C371.6835,121.956 372.7285,121.956 373.3725,121.312 C374.0165,120.668 374.0165,119.623 373.3725,118.979" id="Fill-49" fill="#325265"></path>
                <path d="M366.6195,135.162 L366.6195,147.445 C366.6195,149.876 364.6495,151.845 362.2195,151.845 L359.8465,151.845 C357.4165,151.845 355.4465,149.876 355.4465,147.445 L355.4465,135.162" id="Fill-50" fill="#EA8FA2"></path>
                <polyline id="Fill-51" fill="#E67A94" points="362.9625 135.803 361.0325 150.103 359.1035 135.803 362.9625 135.803"></polyline>
                <path d="M300.6395,136.523 L375.2265,136.523 C375.9855,136.523 376.6015,135.908 376.6015,135.148 C376.6015,134.389 375.9855,133.773 375.2265,133.773 L300.6395,133.773 C299.8805,133.773 299.2645,134.389 299.2645,135.148 C299.2645,135.908 299.8805,136.523 300.6395,136.523" id="Fill-52" fill="#325265"></path>
                <path d="M288.4335,133.329 C295.5275,133.329 295.5275,122.329 288.4335,122.329 C281.3395,122.329 281.3395,133.329 288.4335,133.329" id="Fill-53" fill="#F0B6BF"></path>
                <path d="M387.4335,133.329 C394.5275,133.329 394.5275,122.329 387.4335,122.329 C380.3395,122.329 380.3395,133.329 387.4335,133.329" id="Fill-54" fill="#F0B6BF"></path>
                <path d="M399.5325,88.687 C404.8535,88.687 404.8535,96.937 399.5325,96.937 C394.2125,96.937 394.2125,88.687 399.5325,88.687 Z M396.7825,46.612 C396.7825,43.065 402.2825,43.065 402.2825,46.612 L402.2825,46.612 L402.2825,82.912 C402.2825,86.459 396.7825,86.459 396.7825,82.912 L396.7825,82.912 Z" id="Combined-Shape" fill="#3CECEC"></path>
                <path d="M83.8659194,421.762355 C95.8599983,421.762355 106.97216,419.910328 117.202403,416.206274 C127.432647,412.50222 136.295919,407.078427 143.792218,399.934895 C151.288517,392.791363 157.153269,383.883995 161.386473,373.212793 C165.619678,362.54159 167.73628,350.327032 167.73628,336.569118 C167.73628,322.811204 165.575582,310.640742 161.254186,300.057731 C156.93279,289.47472 150.979846,280.611449 143.395355,273.467917 C135.810864,266.324384 126.947592,260.900591 116.80554,257.196538 C106.663488,253.492484 95.6836148,251.640457 83.8659194,251.640457 C72.0482241,251.640457 61.0683504,253.492484 50.9262984,257.196538 C40.7842465,260.900591 31.9650708,266.324384 24.4687715,273.467917 C16.9724722,280.611449 11.0636246,289.47472 6.74222851,300.057731 C2.42083245,310.640742 0.260134415,322.811204 0.260134415,336.569118 C0.260134415,350.150649 2.37673657,362.232919 6.60994087,372.81593 C10.8431452,383.398941 16.6638011,392.306308 24.0719086,399.538032 C31.4800162,406.769756 40.2991918,412.281741 50.5294355,416.073987 C60.7596793,419.866232 71.8718406,421.762355 83.8659194,421.762355 Z M83.8659194,384.457242 C72.9301416,384.457242 64.1991578,380.488613 57.6729678,372.551355 C51.1467778,364.614097 47.8836828,352.620018 47.8836828,336.569118 C47.8836828,320.518219 51.1908737,308.568236 57.8052554,300.719169 C64.4196371,292.870103 73.1947169,288.94557 84.1304947,288.94557 C95.242656,288.94557 104.017736,292.914199 110.455734,300.851457 C116.893732,308.788715 120.112731,320.694602 120.112731,336.569118 C120.112731,352.620018 116.849636,364.614097 110.323446,372.551355 C103.797256,380.488613 94.9780807,384.457242 83.8659194,384.457242 Z M254.516968,421.233204 C264.923595,421.233204 274.360113,419.733944 282.826522,416.735425 C291.29293,413.736905 298.56875,409.327317 304.653981,403.506661 C310.739213,397.686005 315.457472,390.498377 318.808758,381.943777 C322.160045,373.389176 323.835688,363.643987 323.835688,352.70821 C323.835688,342.477966 322.160045,333.12964 318.808758,324.663231 C315.457472,316.196823 310.739213,309.009194 304.653981,303.100347 C298.56875,297.191499 291.29293,292.605528 282.826522,289.342433 C274.360113,286.079338 264.923595,284.44779 254.516968,284.44779 C244.110341,284.44779 234.673823,286.035242 226.207414,289.210145 C217.741006,292.385048 210.465186,296.926924 204.379954,302.835771 C198.294723,308.744619 193.576464,315.932247 190.225178,324.398656 C186.873891,332.865064 185.198247,342.301582 185.198247,352.70821 C185.198247,363.29122 186.873891,372.81593 190.225178,381.282339 C193.576464,389.748747 198.294723,396.936375 204.379954,402.845223 C210.465186,408.754071 217.741006,413.295946 226.207414,416.470849 C234.673823,419.645753 244.110341,421.233204 254.516968,421.233204 Z M254.781543,386.044694 C247.373436,386.044694 241.596876,383.178461 237.451863,377.445997 C233.306851,371.713533 231.234344,363.467604 231.234344,352.70821 C231.234344,342.125199 233.262755,333.967461 237.319575,328.234997 C241.376396,322.502533 247.10886,319.636301 254.516968,319.636301 C261.925075,319.636301 267.65754,322.502533 271.71436,328.234997 C275.771181,333.967461 277.799592,342.125199 277.799592,352.70821 C277.799592,363.29122 275.815277,371.493054 271.846648,377.31371 C267.878019,383.134366 262.189651,386.044694 254.781543,386.044694 Z M370.400936,464.094398 C374.457757,464.094398 378.426386,463.785727 382.306823,463.168384 C386.18726,462.551042 389.009396,461.977796 390.773231,461.448645 L390.773231,461.448645 L390.773231,417.529151 C397.299421,419.822136 404.354762,420.968629 411.939253,420.968629 C421.993113,420.968629 431.12096,419.557561 439.322793,416.735425 C447.524627,413.913289 454.535871,409.635988 460.356527,403.903524 C466.177183,398.17106 470.674963,391.071624 473.849866,382.605215 C477.024769,374.138806 478.612221,364.26133 478.612221,352.972785 C478.612221,341.15509 476.760194,330.968942 473.05614,322.414341 C469.352086,313.859741 464.236964,306.760305 457.710775,301.116032 C451.184585,295.47176 443.379614,291.282651 434.295863,288.548707 C425.212112,285.814762 415.378731,284.44779 404.795721,284.44779 C394.74186,284.44779 385.65811,285.506091 377.544468,287.622693 C369.430826,289.739296 362.640061,292.561432 357.172172,296.089102 C353.644502,298.558471 350.866462,301.292416 348.838051,304.290935 C346.809641,307.289455 345.795436,311.169892 345.795436,315.932247 L345.795436,315.932247 L345.795436,442.928376 C345.795436,447.337964 346.324586,450.90973 347.382887,453.643675 C348.441188,456.377619 350.02864,458.538317 352.145242,460.125769 C354.261844,461.71322 356.863501,462.771522 359.950213,463.300672 C363.036924,463.829823 366.520498,464.094398 370.400936,464.094398 Z M405.324871,385.515543 C402.502735,385.515543 399.856982,385.162776 397.387613,384.457242 C394.918244,383.751708 392.625258,382.86979 390.508656,381.811489 L390.508656,381.811489 L390.508656,323.60493 C392.448875,322.546629 394.74186,321.620616 397.387613,320.82689 C400.033366,320.033164 403.031886,319.636301 406.383172,319.636301 C414.849581,319.636301 421.331675,322.370245 425.829455,327.838134 C430.327234,333.306023 432.576124,341.68424 432.576124,352.972785 C432.576124,374.667957 423.492373,385.515543 405.324871,385.515543 Z M549.518393,421.49778 C569.096963,421.49778 583.913178,417.705534 593.967038,410.121043 C604.020898,402.536552 609.047828,392.041733 609.047828,378.636586 C609.047828,367.877192 605.476062,359.102112 598.33253,352.311347 C591.188998,345.520581 579.150823,340.18498 562.218006,336.304543 L562.218006,336.304543 L554.016172,334.452516 C549.077434,333.394215 545.726147,332.247722 543.962312,331.013038 C542.198477,329.778353 541.31656,328.190901 541.31656,326.250683 C541.31656,323.428547 542.904011,321.35604 546.078914,320.033164 C549.253818,318.710288 553.751597,318.048849 559.572253,318.048849 C562.394389,318.048849 565.525197,318.313425 568.964675,318.842575 C572.404154,319.371726 575.799536,320.033164 579.150823,320.82689 C582.50211,321.620616 585.588821,322.502533 588.410957,323.472642 C591.233094,324.442752 593.349696,325.368765 594.760764,326.250683 C597.05375,324.310464 598.949872,321.885191 600.449132,318.974863 C601.948392,316.064535 602.698022,312.580961 602.698022,308.52414 C602.698022,304.290935 601.463337,300.630978 598.993968,297.544266 C596.524599,294.457555 593.173312,291.94409 588.940108,290.003871 C584.706904,288.063652 579.724069,286.608488 573.991605,285.638379 C568.259141,284.66827 562.129814,284.183215 555.603624,284.183215 C546.960832,284.183215 539.06767,285.153324 531.924137,287.093543 C524.780605,289.033762 518.651278,291.767706 513.536156,295.295376 C508.421034,298.823047 504.452405,303.232634 501.630269,308.52414 C498.808133,313.815645 497.397065,319.724493 497.397065,326.250683 C497.397065,338.244762 501.145215,347.4608 508.641514,353.898798 C516.137813,360.336797 527.558646,365.055056 542.904011,368.053575 L542.904011,368.053575 L550.841269,369.641027 C555.780008,370.522944 559.307678,371.669437 561.42428,373.080505 C563.540882,374.491573 564.599183,376.431792 564.599183,378.901161 C564.599183,381.546914 563.144019,383.663516 560.233691,385.250968 C557.323363,386.838419 553.134255,387.632145 547.666366,387.632145 C539.023574,387.632145 531.394987,386.529748 524.780605,384.324954 C518.166223,382.12016 512.301472,379.606695 507.18635,376.784559 C504.716981,378.724778 502.600378,381.150051 500.836543,384.060379 C499.072708,386.970707 498.190791,390.542473 498.190791,394.775677 C498.190791,399.361649 499.469571,403.330278 502.027132,406.681565 C504.584693,410.032851 508.112363,412.810892 512.610143,415.015685 C517.107922,417.220479 522.531715,418.852027 528.881522,419.910328 C535.231328,420.968629 542.110285,421.49778 549.518393,421.49778 Z M656.406802,359.851742 C657.641486,359.851742 659.052554,359.76355 660.640006,359.587167 C662.227457,359.410783 663.814909,359.146208 665.402361,358.793441 C666.989812,358.440674 668.489072,357.999715 669.90014,357.470564 C671.311208,356.941414 672.369509,356.412263 673.075043,355.883113 C674.309728,349.356923 675.368029,341.640144 676.249947,332.732777 C677.131864,323.825409 677.837398,314.918042 678.366549,306.010675 C678.895699,297.103307 679.248466,288.813282 679.42485,281.140599 C679.601233,273.467917 679.689425,267.603165 679.689425,263.546344 C679.689425,256.667387 677.705111,251.552265 673.736482,248.200978 C669.767853,244.849692 664.167676,243.174048 656.935952,243.174048 C652.526364,243.174048 648.072681,243.747295 643.574901,244.893788 C639.077121,246.04028 635.064397,247.583636 631.536726,249.523855 C631.536726,256.226428 631.669014,264.34007 631.933589,273.864779 C632.198164,283.389489 632.595027,293.002391 633.124178,302.703484 C633.653328,312.404577 634.226575,321.400136 634.843917,329.690161 C635.461259,337.980186 636.210889,344.153609 637.092807,348.21043 C637.974724,352.796401 640.135422,355.883113 643.574901,357.470564 C647.014379,359.058016 651.29168,359.851742 656.406802,359.851742 Z M656.406802,421.762355 C664.34406,421.762355 670.561578,419.425273 675.059358,414.75111 C679.557138,410.076947 681.806027,404.124004 681.806027,396.89228 C681.806027,389.660556 679.557138,383.707612 675.059358,379.033449 C670.561578,374.359286 664.34406,372.022204 656.406802,372.022204 C648.469543,372.022204 642.252025,374.359286 637.754245,379.033449 C633.256465,383.707612 631.007576,389.660556 631.007576,396.89228 C631.007576,404.124004 633.256465,410.076947 637.754245,414.75111 C642.252025,419.425273 648.469543,421.762355 656.406802,421.762355 Z" id="Oops!" fill="#3CECEC" fill-rule="nonzero"></path>
            </g>
        </g>
    </g>
</svg>