<svg xmlns="http://www.w3.org/2000/svg" viewBox="0 0 30 31" width="30" height="31">
	<style>
		tspan { white-space:pre }
		.shp0 { fill: #afafaf } 
	</style>
	<path id="amazon - FontAwesome" fill-rule="evenodd" class="shp0" d="M26.32 25.51C26.84 25.25 27.23 25.65 26.7 26.34C26.16 27.03 21.86 30.98 14.63 30.98C7.41 30.98 1.88 26.03 0.18 23.99C-0.28 23.46 0.25 23.21 0.56 23.42C5.63 26.5 13.54 31.56 26.32 25.51ZM29.9 23.53C30.16 23.87 29.9 25.39 29.45 26.5C29 27.59 28.34 28.35 27.98 28.64C27.6 28.95 27.32 28.83 27.53 28.38C27.74 27.93 28.86 25.17 28.41 24.58C27.96 24.01 25.85 24.29 25.09 24.36C24.35 24.42 24.19 24.49 24.12 24.34C23.97 23.94 25.63 23.27 26.72 23.13C27.81 23.01 29.55 23.08 29.9 23.53ZM23.09 15.87C23.09 17.77 25.32 19.52 25.32 19.52L21.39 23.39C19.85 21.94 18.7 20.73 18.7 20.73C18.52 20.55 18.38 20.35 18.26 20.15C15.14 25.05 5.58 24.74 5.58 17.16C5.58 10.11 13.93 9.16 17.3 9.04L17.3 6.85C17.3 6.38 17.47 4.25 14.84 4.25C14.84 4.25 12.21 4.25 11.09 7.67L6.01 7.21C6.01 3.8 9.24 0 15.33 0C21.39 0 23.09 3.94 23.09 5.69L23.09 15.87ZM11.47 16.23C11.47 19.74 17.3 20.57 17.3 15.04L17.3 12.24C14.96 12.31 11.47 12.96 11.47 16.23Z" />
</svg>