<svg xmlns="http://www.w3.org/2000/svg" viewBox="0 0 26 27" width="26" height="27">
	<style>
		tspan { white-space:pre }
		.shp0 { fill: #3a3a3a } 
	</style>
	<path id="amazon - FontAwesome" fill-rule="evenodd" class="shp0" d="M22.53 22.11C22.97 21.89 23.3 22.22 22.85 22.81C22.4 23.39 18.77 26.71 12.69 26.71C6.61 26.71 1.95 22.54 0.53 20.83C0.13 20.38 0.58 20.17 0.85 20.35C5.11 22.94 11.77 27.2 22.53 22.11ZM25.54 20.43C25.76 20.73 25.54 22.01 25.16 22.94C24.79 23.85 24.23 24.5 23.93 24.74C23.61 25 23.37 24.9 23.55 24.52C23.72 24.15 24.67 21.82 24.29 21.32C23.91 20.84 22.14 21.08 21.5 21.13C20.87 21.19 20.74 21.25 20.68 21.12C20.55 20.78 21.95 20.22 22.86 20.1C23.78 20 25.25 20.06 25.54 20.43ZM19.81 13.99C19.81 15.59 21.69 17.06 21.69 17.06L18.38 20.32C17.09 19.1 16.11 18.08 16.11 18.08C15.97 17.93 15.85 17.76 15.75 17.6C13.11 21.72 5.07 21.45 5.07 15.08C5.07 9.14 12.1 8.34 14.93 8.24L14.93 6.39C14.93 6 15.08 4.21 12.87 4.21C12.87 4.21 10.65 4.21 9.71 7.09L5.43 6.7C5.43 3.83 8.15 0.63 13.27 0.63C18.38 0.63 19.81 3.95 19.81 5.42L19.81 13.99ZM10.03 14.29C10.03 17.25 14.93 17.95 14.93 13.29L14.93 10.93C12.97 10.99 10.03 11.54 10.03 14.29Z" />
</svg>