<?xml version="1.0" encoding="UTF-8"?>
<svg  viewBox="0 0 7 13" version="1.1" xmlns="http://www.w3.org/2000/svg" xmlns:xlink="http://www.w3.org/1999/xlink">
	<!-- Generator: Sketch 48.2 (47327) - http://www.bohemiancoding.com/sketch -->
	<title>angle-right - FontAwesome</title>
	<desc>Created with Sketch.</desc>
	<defs></defs>
	<g id="Page-1" stroke="none" stroke-width="1" fill="none" fill-rule="evenodd">
		<path d="M7,6.41527702 C7,6.51812715 6.95189003,6.63383355 6.87972509,6.71097115 L1.27491409,12.7019914 C1.20274914,12.779129 1.09450172,12.830554 0.998281787,12.830554 C0.902061856,12.830554 0.793814433,12.779129 0.721649485,12.7019914 L0.120274914,12.059178 C0.0481099656,11.9820404 0,11.8791903 0,11.7634839 C0,11.6606338 0.0481099656,11.5449274 0.120274914,11.4677898 L4.84707904,6.41527702 L0.120274914,1.36276426 C0.0481099656,1.28562666 0,1.16992026 0,1.06707013 C0,0.964219993 0.0481099656,0.848513594 0.120274914,0.771375994 L0.721649485,0.128562666 C0.793814433,0.0514250663 0.902061856,0 0.998281787,0 C1.09450172,0 1.20274914,0.0514250663 1.27491409,0.128562666 L6.87972509,6.11958289 C6.95189003,6.19672049 7,6.31242689 7,6.41527702 Z" id="angle-right---FontAwesome" fill="#D8D8D8"></path>
	</g>
</svg>