<svg viewBox="0 0 84 84" version="1.1" xmlns="http://www.w3.org/2000/svg" xmlns:xlink="http://www.w3.org/1999/xlink" id="el_D3qvKx1hx"><style>@-webkit-keyframes kf_el_QB1Q6tOnjM_an_7a4b9ABLK{0%{-webkit-transform: translate(36px, 36px) rotate(0deg) translate(-36px, -36px);transform: translate(36px, 36px) rotate(0deg) translate(-36px, -36px);}100%{-webkit-transform: translate(36px, 36px) rotate(180deg) translate(-36px, -36px);transform: translate(36px, 36px) rotate(180deg) translate(-36px, -36px);}}@keyframes kf_el_QB1Q6tOnjM_an_7a4b9ABLK{0%{-webkit-transform: translate(36px, 36px) rotate(0deg) translate(-36px, -36px);transform: translate(36px, 36px) rotate(0deg) translate(-36px, -36px);}100%{-webkit-transform: translate(36px, 36px) rotate(180deg) translate(-36px, -36px);transform: translate(36px, 36px) rotate(180deg) translate(-36px, -36px);}}#el_D3qvKx1hx *{-webkit-animation-duration: 5s;animation-duration: 5s;-webkit-animation-iteration-count: infinite;animation-iteration-count: infinite;-webkit-animation-timing-function: cubic-bezier(0, 0, 1, 1);animation-timing-function: cubic-bezier(0, 0, 1, 1);}#el_hpwqQf0rSD{stroke: none;stroke-width: 1;fill: none;}#el_JPLw_RA4fv{-webkit-transform: translate(6px, 6px);transform: translate(6px, 6px);fill: #4CECEC;}#el_eF22Z3LhBn{-webkit-transform: translate(32px, 43px) scale(1, -1);transform: translate(32px, 43px) scale(1, -1);}#el_QB1Q6tOnjM_an_7a4b9ABLK{-webkit-animation-fill-mode: backwards;animation-fill-mode: backwards;-webkit-transform: translate(36px, 36px) rotate(0deg) translate(-36px, -36px);transform: translate(36px, 36px) rotate(0deg) translate(-36px, -36px);-webkit-animation-name: kf_el_QB1Q6tOnjM_an_7a4b9ABLK;animation-name: kf_el_QB1Q6tOnjM_an_7a4b9ABLK;-webkit-animation-timing-function: cubic-bezier(0, 0, 1, 1);animation-timing-function: cubic-bezier(0, 0, 1, 1);}</style>
    <!-- Generator: Sketch 55.2 (78181) - https://sketchapp.com -->
    <title>gear_play</title>
    <desc>Created with Sketch.</desc>
    <g id="el_hpwqQf0rSD" fill-rule="evenodd">
        <g id="el_JPLw_RA4fv" fill-rule="nonzero">
            <g id="el_QB1Q6tOnjM_an_7a4b9ABLK" data-animator-group="true" data-animator-type="1"><g id="el_QB1Q6tOnjM">
                <path d="M72,42.6888653 L72,29.4613623 L63.9,28.1085407 C63.3000857,25.853838 62.4000857,23.749363 61.3499143,21.9456008 L66.15,15.3319781 L56.8499143,5.86222693 L50.0999143,10.5218599 C48.15,9.4697512 46.0499143,8.56787013 43.9500857,7.9664443 L42.6000857,0 L29.3999143,0 L28.0499143,8.1169296 C25.7999143,8.71809775 23.85,9.61997881 21.9000857,10.6720875 L15.3,6.01245455 L5.85,15.3319781 L10.6500857,21.9456008 C9.60017143,23.8998483 8.70017143,26.0040656 8.1,28.2587683 L0,29.4613623 L0,42.6888653 L8.1,44.0416869 C8.69991429,46.2963896 9.59991429,48.250637 10.6500857,50.2046268 L5.85,56.9687348 L15.1500857,66.2882584 L21.9000857,61.4781401 C23.85,62.5302488 25.9500857,63.4321299 28.2000857,64.0335557 L29.5500857,72 L42.75,72 L44.1,63.8830704 C46.2000857,63.2819023 48.2999143,62.3800212 50.2500857,61.3279125 L57.0000857,66.1377731 L66.2999143,56.8185072 L61.5000857,50.0543992 C62.55,48.1001517 63.45,46.146162 64.0499143,43.8914593 L72,42.6888653 Z M36,49.9039139 C28.35,49.9039139 22.1999143,43.7412317 22.1999143,36.0752426 C22.1999143,28.4092536 28.4999143,22.2463137 36,22.2463137 C43.5000857,22.2463137 49.8000857,28.4092536 49.8000857,36.0752426 C49.8000857,43.7412317 43.65,49.9039139 36,49.9039139 Z" id="el_Cqvmy0OX8j"/>
            </g></g>
            <g id="el_eF22Z3LhBn">
                <path d="M0.359277203,0.097134711 C0.470130315,0.0324282806 0.594193515,0 0.718442772,0 C0.842357126,0 0.966383115,0.0324282806 1.07771998,0.097134711 L9.64068559,6.37260754 C9.86257787,6.5019078 10,6.74129157 10,7.00011729 C10,7.25890548 9.86294998,7.49825171 9.64068559,7.62740184 L1.07771998,13.9031374 C0.855492792,14.0322875 0.581541599,14.0322875 0.359463261,13.9031374 C0.137198866,13.7735369 0,13.534078 0,13.27544 L0,0.724569396 C0,0.465893805 0.136975597,0.226547572 0.359277203,0.097134711 Z" id="el_fSaSOqD1or"/>
            </g>
        </g>
    </g>
</svg>