<?xml version="1.0" encoding="UTF-8"?>
<svg width="30px" height="30px" viewBox="0 0 30 30" version="1.1" xmlns="http://www.w3.org/2000/svg" xmlns:xlink="http://www.w3.org/1999/xlink">
    <!-- Generator: Sketch 63.1 (92452) - https://sketch.com -->
    <title>ls-web copy</title>
    <desc>Created with Sketch.</desc>
    <g id="Page-1" stroke="none" stroke-width="1" fill="none" fill-rule="evenodd">
        <g id="case_study_speckpumps" transform="translate(-864.000000, -629.000000)" fill="#AFAFAF">
            <g id="ls-web1" transform="translate(863.000000, 628.000000)">
                <g id="geo-ui-earth-east" transform="translate(1.000000, 1.000000)">
                    <g id="Icon" fill-rule="nonzero">
                        <path d="M15,0.7824 C22.8426,0.7824 29.2002,7.14 29.2002,14.9826 C29.2002,22.8252 22.8426,29.1828 15,29.1828 C7.1574,29.1828 0.7998,22.8252 0.7998,14.9826 C0.7998,7.14 7.1574,0.7824 15,0.7824 Z M21.1692,3.5439 C21.3309932,4.46191357 21.5806409,5.36225265 21.9147,6.2325 C21.2661375,6.09553125 20.7560027,5.48078906 20.7212189,4.82259045 L20.7207,4.6905 L20.292,4.6713 C20.4276,4.767 20.3562,4.9896 20.2299,5.0973 C20.1036,5.205 19.9338,5.2686 19.8477,5.4105 C19.6968,5.6595 19.8849,5.9655 20.0205,6.2232 C20.4667714,7.07089286 20.3395638,8.08517143 20.1519374,9.03448601 L20.1078,9.2523 L19.881,9.3057 C19.8444,9.0636 19.7739,8.8113 19.5936,8.646 C19.4133,8.4807 19.0947,8.4477 18.9375,8.6352 C18.6699,8.9544 19.083,9.375 19.311,9.7236 C19.7547,10.4022 19.3179,11.4669 18.5256,11.6385 C18.3063,11.6859 18.0729,11.6754 17.8653,11.7606 C17.6577,11.8461 17.4825,12.0837 17.5743,12.2886 C17.9307,12.1953 18.2829,12.6024 18.2052,12.9624 C18.1275,13.3224 17.73,13.5522 17.3628,13.524 C16.9953,13.4955 16.6704,13.2597 16.4433,12.9696 C16.623,13.377 16.7757,13.7106 17.0442,14.0463 C17.0895,14.103 17.646,14.9412 17.562,14.9445 C16.7799,14.9751 16.7067,14.2845 16.4703,13.7637 C16.1718,13.1058 15.5697,12.4509 15.1281,11.8812 C14.6076,11.2101 14.2158,11.6295 13.8708,12.2886 C13.6938,12.6264 13.4211,13.6305 13.0125,13.6863 C12.8274,13.7115 12.6462,13.5936 12.5415,13.4388 C12.3966,13.224 12.3681,12.9504 12.2544,12.7185 C11.9406,12.0783 11.7516,11.2953 11.1198,10.926 C10.8909,10.7922 9.0327,10.2228 9.0105,10.1187 C9.1401,10.7226 10.2702,10.7496 10.2558,11.367 C10.2507,11.5902 10.0764,11.7702 9.903,11.9109 C9.301728,12.3975965 8.58007602,12.7127103 7.8144,12.8229 C7.7607954,11.9511964 7.57268141,11.0937962 7.25738992,10.2809478 L7.1145,9.9354 L7.3269,12.2982 C7.3473,12.5256 7.3728,12.7668 7.5117,12.9483 C7.8216,13.3533 8.4522,13.2225 8.9331,13.0524 C7.73069841,14.8962307 7.09136207,17.0503553 7.0932,19.2516 C7.0944,19.7418 7.125,20.2497 6.9387,20.703 C6.7524,21.1563 6.2667,21.5334 5.793,21.4086 C5.5017,21.3318 5.2857,21.0903 5.109,20.8464 C4.3401,19.785725 3.98184375,18.4961583 3.67144132,17.2180194 L3.5877,16.8699 L2.7858,13.5162 C2.5257,13.5234 2.2881,13.3704 2.1303,13.1592 C2.0463,13.7556 1.9998,14.3637 1.9998,14.9826 C1.9998,20.6889 5.697,25.5447 10.8207,27.2895 C10.8675,26.9043 11.0355,26.5206 11.2938,26.2332 C11.9154,25.5411 12.9099,25.3509 13.7901,25.2477 C14.8563,25.1226 15.9366,25.0029 17.0025,25.1994 C17.4873,25.2888 17.9904,25.3857 18.3897,25.6749 C18.789,25.9641 19.0521,26.5053 18.8649,26.9616 C18.5211578,27.2594844 18.0657351,27.3948213 17.6151,27.333 C17.6403,27.431775 17.6376563,27.5319 17.6145094,27.6285656 L17.5848,27.7224 L17.8852769,27.6592975 C23.5699825,26.3660346 27.8504309,21.3372197 27.9957828,15.3023395 L27.9996,14.9838 C27.9996,10.047 25.233,5.7444 21.1692,3.5439 Z M25.3227,22.1583 C25.023,23.1705 24.0714,23.9556 23.0205,24.0579 L23.0205,24.0579 Z M21.8707128,22.060632 L21.9219,22.0659 C22.005,22.0788 22.0926,22.104 22.1715,22.0737 C22.0780423,22.2864039 21.9568943,22.4858291 21.8112,22.6668 C21.77064,22.7172 21.711264,22.770096 21.652272,22.7703456 L21.6084,22.7598 L21.6543,22.2591 C21.6585,22.2132 21.6636,22.1649 21.6903,22.1274 C21.71964,22.08618 21.76734,22.067532 21.8186904,22.06206 L21.8707128,22.060632 Z M23.2476,16.7726948 C23.0665943,17.4192646 23.1882694,18.1130221 23.5785,18.6594 C23.7405,18.8829 23.9523,19.0917 23.994,19.3644 C24.0414,19.6746 23.8539,19.9668 23.6751,20.2248 C23.4279,20.5815 23.2455,20.8452 23.1387,21.2646 C23.0008488,21.498788 22.7673229,21.6608308 22.4997,21.708 C22.2313878,21.7511922 21.9576221,21.674665 21.7506,21.4986 C21.2922,21.1029 21.2481,20.0466 20.499,20.1576 C19.9362,20.241 19.1499,21.1578 18.5916,20.7702 C18.2964,20.5653 18.4689,20.2968 18.5172,19.9734 C18.6141,19.3254 18.6753,18.561 19.2933,18.1755 C19.8183,17.8479 20.3799,17.568 20.9199,17.2662 C21.2706,17.07 21.7776,16.9017 22.0173,17.2245 C22.1724,17.4333 22.1604,17.8014 22.4133,17.8623 C22.6614,17.922 22.8159,17.6013 22.8546,17.3493 C22.893,17.097 22.9926,16.7712 23.2476,16.7726948 Z M8.8977,17.1276 C9.0702,17.8098 9.0546,18.5385 8.8527,19.2126 C8.7981,19.395 8.6856,19.6062 8.4954,19.6038203 C8.337,19.602 8.2266,19.4481 8.1606,19.3044 C7.99067589,18.9318718 7.93242361,18.5180618 7.9929,18.1131 C8.38197692,18.0369462 8.66982781,17.6312964 8.63418011,17.2406497 L8.6184,17.1435 L8.8977,17.1276 Z M21.8298,15.2493 C21.8898,15.3393 21.9486,15.4512 22.0554,15.4677 C22.1838,15.4875 22.281,15.357 22.4016,15.3087 C22.53685,15.2547 22.6835583,15.30945 22.8158569,15.3807625 L22.8933,15.4248 L23.9997,16.0797 C23.9230437,16.150677 23.88981,16.2570018 23.9124,16.359 C24.0366,16.4016 24.1674,16.4487 24.2511,16.5498 C24.3348,16.6509 24.3462,16.8243 24.2391,16.9005 C24.1053,16.9959 23.9235,16.8756 23.8218,16.7469 C23.7198,16.6179 23.6085,16.458 23.4444,16.4607 C23.2959,16.4631 23.1813,16.6044 23.0337,16.6233 C22.8708,16.6443 22.7277,16.5102 22.6476,16.3671 C22.5672,16.224 22.5204,16.0596 22.4109,15.9372 C22.272,15.7821 22.0587,15.7227 21.8751,15.624 C21.6915,15.5256 21.5163,15.3378 21.5622,15.1347 C21.6522,15.075 21.7698,15.1593 21.8298,15.2493 Z M15.7587,14.0688 C16.0323,14.1084 16.272,14.2767 16.464,14.4756 C16.6563,14.6745 16.8108,14.9061 16.9899,15.1164 C17.435027,15.6368619 18.0214997,16.0171104 18.6783,16.2111 C19.4058,16.4244 20.178,16.3977 20.9349,16.4373 C20.6397,16.647 20.2638,16.7184 19.902,16.7049 C19.5402,16.6914 19.1862,16.5996 18.8358,16.5084 C18.3279,16.3761 17.8131,16.2408 17.3592,15.9774 C17.1025016,15.8286219 16.8708589,15.640311 16.6728,15.4194 C16.4994,15.225 16.3548,15.0069 16.224,14.7816 C16.1145,14.59285 16.0027083,14.3874333 15.8295972,14.2634403 L15.7179,14.1996 L15.7587,14.0688 Z M19.6791,13.899 C19.7592,13.9893 19.7613,14.1276 19.7217,14.2416 C19.6821,14.3556 19.608,14.4537 19.5453,14.5569 C19.4147858,14.7721034 19.3328751,15.0132279 19.3053,15.2634 C19.2885,15.4149 19.2744,15.5982 19.1388,15.6681 C19.0818,15.6975 19.0146,15.6984 18.9504,15.6945 C18.7602,15.6828 18.5688,15.6303 18.4155,15.5178 C18.2619,15.405 18.1506,15.2271 18.1449,15.0369 C18.1383,14.8182 18.2673,14.6157 18.4275,14.4669 C18.5877,14.3178 18.7803,14.2086 18.9525,14.0739 C19.0614,13.9887 19.1652,13.8912 19.2939,13.8399 C19.4226,13.7883 19.5873,13.7952 19.6791,13.899 Z M20.9322,6.5079 C21.0795,6.7662 21.2019,7.0647 21.4605,7.2117 C21.5232,7.2474 21.6015,7.2855 21.6075,7.3575 C21.6108,7.3992 21.5871,7.4373 21.5727,7.4766 C21.5028,7.6668 21.6489,7.8597 21.7263,8.0472 C21.8454,8.3355 21.7986,8.6763 21.642,8.9463 C21.4854,9.2163 21.2301,9.4194 20.9496,9.5556 C20.8749,9.5919 20.7918,9.6243 20.7108,9.6066 C20.5869,9.5796 20.5146,9.4365 20.5308,9.3108 C20.547,9.1851 20.631,9.078 20.7258,8.994 C20.8206,8.91 20.9292,8.8416 21.0195,8.7528 C21.3201,8.457 21.3669,7.9749 21.2454,7.5711 C21.14415,7.23485 20.9454,6.93985 20.7333514,6.65728056 L20.6052,6.489 L20.2458,6.021 C20.5416,5.9889 20.7849,6.2496 20.9322,6.5079 Z M5.43697031,6.32617148 L5.3106,6.3273 C5.06218874,6.60431728 4.82567491,6.89177718 4.6017,7.1889 C4.9122,7.2459 5.1918,7.4406 5.2545,7.7448 C5.3082,8.0064 5.1975,8.2746 5.2116,8.5413 C5.2257,8.808 5.4906,9.102 5.7234,8.9715 C6.0513,9.3021 6.5781,9.4176 7.0143,9.2544 C7.41084545,9.10576364 7.71268017,8.73448264 7.78682141,8.31906942 L7.8021,8.1933 L7.1307,8.1501 L7.05,7.7802 L6.3555,7.8504 C6.5331,7.4826 6.4746,7.0134 6.2121,6.7008 C6.048975,6.5064 5.8126125,6.38068125 5.56275,6.33959062 L5.43697031,6.32617148 Z M15,1.9824 C11.8497,1.9824 8.958,3.1092 6.7059,4.9809 C7.2201,4.9002 7.746,4.8498 8.1645,4.5534 C7.9443,4.7781 8.22,5.1894 8.5344,5.2029 C8.8095,5.2147125 9.05014688,5.04645 9.26377676,4.86452109 L9.3537,4.7862 L10.5192,3.7533 L8.3175,4.7055 C8.3262,4.2984 8.6139,3.9387 8.9643,3.7311 C9.3147,3.5238 9.723,3.441 10.1223,3.3615 C10.4676,3.2928 10.8315,3.225 11.166,3.3354 C11.5005,3.4458 11.7813,3.8025 11.679,4.1394 C11.4906,3.9795 11.1426,4.14 11.1417,4.3869 C11.8017,4.5768 12.5463,4.4451 13.1007,4.0398 C13.1427,4.2156 13.3248,4.3464 13.5048,4.3299 C13.6590857,4.31601429 13.7955184,4.19545102 13.8373959,4.04755714 L13.8501,3.9717 L15.5877,3.849 C16.6968,3.7707 17.8302,3.6867 18.8514,3.2469 C19.1271,3.1281 19.4067,2.9829 19.689,2.8608 C18.2334,2.2956 16.653,1.9824 15,1.9824 Z" id="Combined-Shape"></path>
                    </g>
                </g>
            </g>
        </g>
    </g>
</svg>
