<?xml version="1.0" encoding="UTF-8"?>
<svg width="30px" height="30px" viewBox="0 0 30 30" version="1.1" xmlns="http://www.w3.org/2000/svg" xmlns:xlink="http://www.w3.org/1999/xlink">
    <!-- Generator: Sketch 55.2 (78181) - https://sketchapp.com -->
    <title>ic_ai</title>
    <desc>Created with Sketch.</desc>
    <g id="ic_ai" stroke="none" stroke-width="1" fill="none" fill-rule="evenodd">
        <path d="M10.3333333,16.6666667 C9.59695367,16.6666667 9,16.069713 9,15.3333333 C9,14.5969537 9.59695367,14 10.3333333,14 C11.069713,14 11.6666667,14.5969537 11.6666667,15.3333333 C11.6666667,16.069713 11.069713,16.6666667 10.3333333,16.6666667 Z M14.6666667,16.6666667 C13.930287,16.6666667 13.3333333,16.069713 13.3333333,15.3333333 C13.3333333,14.5969537 13.930287,14 14.6666667,14 C15.4030463,14 16,14.5969537 16,15.3333333 C16,16.069713 15.4030463,16.6666667 14.6666667,16.6666667 Z M19.6666667,16.6666667 C18.930287,16.6666667 18.3333333,16.069713 18.3333333,15.3333333 C18.3333333,14.5969537 18.930287,14 19.6666667,14 C20.4030463,14 21,14.5969537 21,15.3333333 C21,16.069713 20.4030463,16.6666667 19.6666667,16.6666667 Z M24.8535534,8.14644661 C24.9440356,8.23692881 25,8.36192881 25,8.5 L25,21.5 C25,21.7761424 24.7761424,22 24.5,22 C24.2238576,22 24,21.7761424 24,21.5 L24,9 L12.5,9 C12.2238576,9 12,8.77614237 12,8.5 C12,8.22385763 12.2238576,8 12.5,8 L24.5,8 C24.6380712,8 24.7630712,8.05596441 24.8535534,8.14644661 Z M5.14644661,22.8535534 C5.05596441,22.7630712 5,22.6380712 5,22.5 L5,9.5 C5,9.22385763 5.22385763,9 5.5,9 C5.77614237,9 6,9.22385763 6,9.5 L6,22 L17.5,22 C17.7761424,22 18,22.2238576 18,22.5 C18,22.7761424 17.7761424,23 17.5,23 L5.5,23 C5.36192881,23 5.23692881,22.9440356 5.14644661,22.8535534 Z" id="Combined-Shape" stroke="#FFFFFF" stroke-width="0.555555556" fill="#FFFFFF"></path>
    </g>
</svg>