<svg viewBox="0 0 70 70" version="1.1" xmlns="http://www.w3.org/2000/svg" xmlns:xlink="http://www.w3.org/1999/xlink" id="el_rFBxJq9yF"><style>@-webkit-keyframes kf_el_bvmTd9bMeG_an_s4eNwtdB_{0%{-webkit-transform: translate(28.669724464416504px, 26.928571701049805px) rotate(0deg) translate(-28.669724464416504px, -26.928571701049805px);transform: translate(28.669724464416504px, 26.928571701049805px) rotate(0deg) translate(-28.669724464416504px, -26.928571701049805px);}100%{-webkit-transform: translate(28.669724464416504px, 26.928571701049805px) rotate(180deg) translate(-28.669724464416504px, -26.928571701049805px);transform: translate(28.669724464416504px, 26.928571701049805px) rotate(180deg) translate(-28.669724464416504px, -26.928571701049805px);}}@keyframes kf_el_bvmTd9bMeG_an_s4eNwtdB_{0%{-webkit-transform: translate(28.669724464416504px, 26.928571701049805px) rotate(0deg) translate(-28.669724464416504px, -26.928571701049805px);transform: translate(28.669724464416504px, 26.928571701049805px) rotate(0deg) translate(-28.669724464416504px, -26.928571701049805px);}100%{-webkit-transform: translate(28.669724464416504px, 26.928571701049805px) rotate(180deg) translate(-28.669724464416504px, -26.928571701049805px);transform: translate(28.669724464416504px, 26.928571701049805px) rotate(180deg) translate(-28.669724464416504px, -26.928571701049805px);}}#el_rFBxJq9yF *{-webkit-animation-duration: 5s;animation-duration: 5s;-webkit-animation-iteration-count: infinite;animation-iteration-count: infinite;-webkit-animation-timing-function: cubic-bezier(0, 0, 1, 1);animation-timing-function: cubic-bezier(0, 0, 1, 1);}#el_Azs-UC4ECY{stroke: none;stroke-width: 1;fill: none;}#el_8BNVa63rBi{-webkit-transform: translate(9px, 2px);transform: translate(9px, 2px);}#el_MaBH1MI4pF{fill: #734384;}#el_bvmTd9bMeG{fill: #FFFFFF;}#el_bvmTd9bMeG_an_s4eNwtdB_{-webkit-animation-fill-mode: backwards;animation-fill-mode: backwards;-webkit-transform: translate(28.669724464416504px, 26.928571701049805px) rotate(0deg) translate(-28.669724464416504px, -26.928571701049805px);transform: translate(28.669724464416504px, 26.928571701049805px) rotate(0deg) translate(-28.669724464416504px, -26.928571701049805px);-webkit-animation-name: kf_el_bvmTd9bMeG_an_s4eNwtdB_;animation-name: kf_el_bvmTd9bMeG_an_s4eNwtdB_;-webkit-animation-timing-function: cubic-bezier(0, 0, 1, 1);animation-timing-function: cubic-bezier(0, 0, 1, 1);}</style>
    <!-- Generator: Sketch 59.1 (86144) - https://sketch.com -->
    <title>ic_intelligence</title>
    <desc>Created with Sketch.</desc>
    <g id="el_Azs-UC4ECY" fill-rule="evenodd">
        <g id="el_8BNVa63rBi">
            <g id="el_24-7JW7uad">
                <path d="M47.1920364,9.93402267 C44.2492522,6.24422641 36.6029051,0 26.6179607,0 C19.942096,0 13.5887701,2.79620513 7.73587609,8.31127803 C1.99992148,14.2228006 2.74569685,19.6559419 3.69019279,26.5389673 C3.74828034,26.9620256 3.80694113,27.3912097 3.86541083,27.8270938 C4.0217122,28.9967257 3.0005942,30.801328 2.01176829,32.5463958 C0.526523101,35.1684005 -1.00878438,37.8801854 0.867023155,39.1602719 C4.07234773,41.3490724 4.62972072,45.6575676 5.16913242,49.8259366 C5.29696325,50.816008 5.42937994,51.8388138 5.59485303,52.8344367 C5.880896,54.5515559 7.32639707,55.385804 10.0158125,55.385804 C11.210811,55.385804 12.4881639,55.2382121 13.7238619,55.0952146 C14.7830043,54.9717428 15.7823395,54.8565024 16.5835273,54.8565024 C17.0306486,54.8565024 17.3810847,54.8921083 17.6520325,54.9654256 C20.8833437,55.8427453 23.7051757,62.3871325 24.7253384,66.3062609 C24.8084571,66.6242246 25.0528451,66.8748054 25.3686962,66.9640113 C25.4521971,66.9885143 25.5372265,67 25.6214917,67 C25.856517,67 26.0869564,66.9109855 26.261028,66.7432936 L42.8201838,50.9115312 C43.0756544,50.6659276 43.1702377,50.2960866 43.0626611,49.9582142 C41.5999631,45.3748268 44.6380949,40.9026597 47.3202493,36.9538599 C48.4896435,35.2311892 49.5946445,33.6049989 50.3511202,32.0025457 C53.8371376,24.609936 51.3250421,15.1150518 47.1920364,9.93402267 Z" id="el_MaBH1MI4pF"/>
                <g id="el_bvmTd9bMeG_an_s4eNwtdB_" data-animator-group="true" data-animator-type="1"><path d="M29.4259817,12.0928571 C30.0622137,12.0928571 30.5779817,12.6086251 30.5779817,13.2448571 L30.578,14.6320608 C32.5868567,14.9432341 34.4365837,15.7379414 36.0053132,16.8939297 L36.9962306,15.9033829 C37.4461145,15.4534989 38.1755206,15.4534989 38.6254046,15.9033829 L39.6949133,16.9728916 C40.1447973,17.4227756 40.1447973,18.1521817 39.6949133,18.6020656 L38.695351,19.6007533 C39.8366066,21.1693679 40.6209174,23.0159552 40.928434,25.0202871 L42.3534391,25.0203145 C42.9896711,25.0203145 43.5054391,25.5360825 43.5054391,26.1723145 L43.5054391,27.6848283 C43.5054391,28.3210603 42.9896711,28.8368283 42.3534391,28.8368283 L40.9284841,28.8365292 C40.6209837,30.84111 39.8365723,32.6879163 38.695141,34.2566782 L39.6949133,35.2550772 C40.1447973,35.7049612 40.1447973,36.4343673 39.6949133,36.8842512 L38.6254046,37.95376 C38.1755206,38.403644 37.4461145,38.403644 36.9962306,37.95376 L36.0053132,36.9632131 C34.4365837,38.1192015 32.5868567,38.9139088 30.578,39.2250821 L30.5779817,40.6122857 C30.5779817,41.2485177 30.0622137,41.7642857 29.4259817,41.7642857 L27.9134679,41.7642857 C27.2772359,41.7642857 26.7614679,41.2485177 26.7614679,40.6122857 L26.7614495,39.2250821 C24.7525928,38.9139088 22.9028658,38.1192015 21.3341364,36.9632131 L20.343219,37.95376 C19.893335,38.403644 19.1639289,38.403644 18.714045,37.95376 L17.6445362,36.8842512 C17.1946522,36.4343673 17.1946522,35.7049612 17.6445362,35.2550772 L18.6435845,34.2556831 C17.5025455,32.6871353 16.7184008,30.8406862 16.4109655,28.8365292 L14.9860105,28.8368283 C14.3497785,28.8368283 13.8340105,28.3210603 13.8340105,27.6848283 L13.8340105,26.1723145 C13.8340105,25.5360825 14.3497785,25.0203145 14.9860105,25.0203145 L16.4110155,25.0202871 C16.7184669,23.0163809 17.5025099,21.1701523 18.6433714,19.6017527 L17.6445362,18.6020656 C17.1946522,18.1521817 17.1946522,17.4227756 17.6445362,16.9728916 L18.714045,15.9033829 C19.1639289,15.4534989 19.893335,15.4534989 20.343219,15.9033829 L21.3341364,16.8939297 C22.9028658,15.7379414 24.7525928,14.9432341 26.7614495,14.6320608 L26.7614679,13.2448571 C26.7614679,12.6086251 27.2772359,12.0928571 27.9134679,12.0928571 L29.4259817,12.0928571 Z M28.4311927,21.1857143 C25.1377515,21.1857143 22.4678899,23.8640109 22.4678899,27.1678571 C22.4678899,30.4717034 25.1377515,33.15 28.4311927,33.15 C31.7246338,33.15 34.3944954,30.4717034 34.3944954,27.1678571 C34.3944954,23.8640109 31.7246338,21.1857143 28.4311927,21.1857143 Z" id="el_bvmTd9bMeG"/></g>
            </g>
        </g>
    </g>
</svg>