<svg viewBox="0 0 81 91" version="1.1" xmlns="http://www.w3.org/2000/svg" xmlns:xlink="http://www.w3.org/1999/xlink" id="el_aN3LqRdtC"><style>@-webkit-keyframes kf_el_ZdNz0diSwJ_an_TVRci7ynl{0%{opacity: 0;}50%{opacity: 1;}100%{opacity: 0;}}@keyframes kf_el_ZdNz0diSwJ_an_TVRci7ynl{0%{opacity: 0;}50%{opacity: 1;}100%{opacity: 0;}}@-webkit-keyframes kf_el_ZdNz0diSwJ_an_RaNZSGc_q{0%{-webkit-transform: translate(18px, 17px) scale(0, 0) translate(-18px, -17px);transform: translate(18px, 17px) scale(0, 0) translate(-18px, -17px);}100%{-webkit-transform: translate(18px, 17px) scale(1, 1) translate(-18px, -17px);transform: translate(18px, 17px) scale(1, 1) translate(-18px, -17px);}}@keyframes kf_el_ZdNz0diSwJ_an_RaNZSGc_q{0%{-webkit-transform: translate(18px, 17px) scale(0, 0) translate(-18px, -17px);transform: translate(18px, 17px) scale(0, 0) translate(-18px, -17px);}100%{-webkit-transform: translate(18px, 17px) scale(1, 1) translate(-18px, -17px);transform: translate(18px, 17px) scale(1, 1) translate(-18px, -17px);}}#el_aN3LqRdtC *{-webkit-animation-duration: 5s;animation-duration: 5s;-webkit-animation-iteration-count: infinite;animation-iteration-count: infinite;-webkit-animation-timing-function: cubic-bezier(0, 0, 1, 1);animation-timing-function: cubic-bezier(0, 0, 1, 1);}#el_TiDKqANbPl{stroke: none;stroke-width: 1;fill: none;}#el_JjjApdKFtT{-webkit-transform: translate(16px, 8px);transform: translate(16px, 8px);}#el_ZdNz0diSwJ{stroke-opacity: 0.3;stroke: #CCCCCC;stroke-width: 4;fill-opacity: 0;fill: #000000;-webkit-transform: translate(36px, 34px) scale(-1, -1);transform: translate(36px, 34px) scale(-1, -1);-webkit-animation-fill-mode: backwards;animation-fill-mode: backwards;opacity: 0;-webkit-animation-name: kf_el_ZdNz0diSwJ_an_TVRci7ynl;animation-name: kf_el_ZdNz0diSwJ_an_TVRci7ynl;-webkit-animation-timing-function: cubic-bezier(0, 0, 1, 1);animation-timing-function: cubic-bezier(0, 0, 1, 1);}#el_BX4oX3Woe1{fill: #734384;}#el_ZdNz0diSwJ_an_RaNZSGc_q{-webkit-animation-fill-mode: backwards;animation-fill-mode: backwards;-webkit-transform: translate(18px, 17px) scale(0, 0) translate(-18px, -17px);transform: translate(18px, 17px) scale(0, 0) translate(-18px, -17px);-webkit-animation-name: kf_el_ZdNz0diSwJ_an_RaNZSGc_q;animation-name: kf_el_ZdNz0diSwJ_an_RaNZSGc_q;-webkit-animation-timing-function: cubic-bezier(0, 0, 1, 1);animation-timing-function: cubic-bezier(0, 0, 1, 1);}</style>
    <!-- Generator: Sketch 55.2 (78181) - https://sketchapp.com -->
    <title>ic_interaction</title>
    <desc>Created with Sketch.</desc>
    <g id="el_TiDKqANbPl" fill-rule="evenodd">
        <g fill-rule="nonzero" id="el_JjjApdKFtT">
            <g id="el_ZdNz0diSwJ_an_RaNZSGc_q" data-animator-group="true" data-animator-type="2"><circle id="el_ZdNz0diSwJ" cx="18" cy="17" r="17"/></g>
            <path d="M22.2272148,39.1840721 L22.2272148,17.0839161 C22.2272148,14.8284315 20.397422,13 18.1402582,13 C15.8830945,13 14.0533017,14.8284315 14.0533017,17.0839161 L14.0533017,41.5874126 L14.0436234,41.5874126 C13.913192,43.3007297 12.4806484,44.6503497 10.7326495,44.6503497 C10.5010751,44.6503497 10.2750372,44.6266626 10.0568299,44.581581 L7.3077039,41.0654778 C5.9180551,39.2881317 3.3496258,38.9730029 1.5709565,40.3616179 C-0.2077128,41.7502328 -0.5230762,44.3167514 0.8665725,46.0940974 L15.0202318,64.1964781 C15.3623322,64.634021 15.7758708,64.9829485 16.2314784,65.2396572 C19.3667605,69.1800159 24.2055504,71.7062937 29.6348234,71.7062937 C39.0866967,71.7062937 46.7489539,64.0497368 46.7489539,54.6048951 C46.7489539,54.317173 46.7418432,54.0311105 46.7277877,53.7468735 C46.7417838,53.6093753 46.7489539,53.46986 46.7489539,53.3286713 L46.7489539,39.0349029 C46.7489539,36.7794184 44.9191611,34.9509868 42.6619974,34.9509868 C40.4048336,34.9509868 38.5750408,36.7794184 38.5750408,39.0349029 L38.5750408,40.0195503 L38.5750408,35.4615385 C38.5750408,33.2060539 36.7452481,31.3776224 34.4880843,31.3776224 C32.2309206,31.3776224 30.4011278,33.2060539 30.4011278,35.4615385 L30.4011278,37.5203336 L30.4011278,31.8881119 C30.4011278,29.6326273 28.571335,27.8041958 26.3141713,27.8041958 C24.0570075,27.8041958 22.2272148,29.6326273 22.2272148,31.8881119 L22.2272148,39.1840721 L22.2272148,39.1840721 Z" id="el_BX4oX3Woe1"/>
        </g>
    </g>
</svg>