<?xml version="1.0" encoding="UTF-8"?>
<svg width="24px" height="22px" viewBox="0 0 24 22" version="1.1" xmlns="http://www.w3.org/2000/svg" xmlns:xlink="http://www.w3.org/1999/xlink">
    <!-- Generator: Sketch 55.2 (78181) - https://sketchapp.com -->
    <title>Combined Shape</title>
    <desc>Created with Sketch.</desc>
    <g id="Symbols" stroke="none" stroke-width="1" fill="none" fill-rule="evenodd">
        <g id="ic_more" transform="translate(-3.000000, -4.000000)" fill="#FFFFFF" fill-rule="nonzero">
            <path d="M4,6 C3.44771525,6 3,5.55228475 3,5 C3,4.44771525 3.44771525,4 4,4 L26,4 C26.5522847,4 27,4.44771525 27,5 C27,5.55228475 26.5522847,6 26,6 L4,6 Z M4,16 C3.44771525,16 3,15.5522847 3,15 C3,14.4477153 3.44771525,14 4,14 L21,14 C21.5522847,14 22,14.4477153 22,15 C22,15.5522847 21.5522847,16 21,16 L4,16 Z M4,26 C3.44771525,26 3,25.5522847 3,25 C3,24.4477153 3.44771525,24 4,24 L26,24 C26.5522847,24 27,24.4477153 27,25 C27,25.5522847 26.5522847,26 26,26 L4,26 Z" id="Combined-Shape"></path>
        </g>
    </g>
</svg>