<svg viewBox="0 0 70 70" version="1.1" xmlns="http://www.w3.org/2000/svg" xmlns:xlink="http://www.w3.org/1999/xlink" id="el_2P9-BYcXg"><style>@-webkit-keyframes kf_el_Hr9cZeamDa_an_p2VX5P4H_{0%{-webkit-transform: translate(50.430137634277344px, 52.20136260986328px) rotate(0deg) translate(-50.430137634277344px, -52.20136260986328px);transform: translate(50.430137634277344px, 52.20136260986328px) rotate(0deg) translate(-50.430137634277344px, -52.20136260986328px);}100%{-webkit-transform: translate(50.430137634277344px, 52.20136260986328px) rotate(180deg) translate(-50.430137634277344px, -52.20136260986328px);transform: translate(50.430137634277344px, 52.20136260986328px) rotate(180deg) translate(-50.430137634277344px, -52.20136260986328px);}}@keyframes kf_el_Hr9cZeamDa_an_p2VX5P4H_{0%{-webkit-transform: translate(50.430137634277344px, 52.20136260986328px) rotate(0deg) translate(-50.430137634277344px, -52.20136260986328px);transform: translate(50.430137634277344px, 52.20136260986328px) rotate(0deg) translate(-50.430137634277344px, -52.20136260986328px);}100%{-webkit-transform: translate(50.430137634277344px, 52.20136260986328px) rotate(180deg) translate(-50.430137634277344px, -52.20136260986328px);transform: translate(50.430137634277344px, 52.20136260986328px) rotate(180deg) translate(-50.430137634277344px, -52.20136260986328px);}}#el_2P9-BYcXg *{-webkit-animation-duration: 5s;animation-duration: 5s;-webkit-animation-iteration-count: infinite;animation-iteration-count: infinite;-webkit-animation-timing-function: cubic-bezier(0, 0, 1, 1);animation-timing-function: cubic-bezier(0, 0, 1, 1);}#el_FVP0hJUxOZ{stroke: none;stroke-width: 1;fill: none;}#el_V7T5WM4s3e{-webkit-transform: translate(4px, 2px);transform: translate(4px, 2px);}#el_XNCBrU4nRZ{fill: #3CECEC;}#el_GIvqX7KcRZ{stroke: #FFFFFF;stroke-width: 1.21;fill: #FFFFFF;}#el_oEay0oGsBK{stroke: #FFFFFF;stroke-width: 1.21;fill: #FFFFFF;}#el_Hr9cZeamDa_an_p2VX5P4H_{-webkit-animation-fill-mode: backwards;animation-fill-mode: backwards;-webkit-transform: translate(50.430137634277344px, 52.20136260986328px) rotate(0deg) translate(-50.430137634277344px, -52.20136260986328px);transform: translate(50.430137634277344px, 52.20136260986328px) rotate(0deg) translate(-50.430137634277344px, -52.20136260986328px);-webkit-animation-name: kf_el_Hr9cZeamDa_an_p2VX5P4H_;animation-name: kf_el_Hr9cZeamDa_an_p2VX5P4H_;-webkit-animation-timing-function: cubic-bezier(0, 0, 1, 1);animation-timing-function: cubic-bezier(0, 0, 1, 1);}</style>
    <!-- Generator: Sketch 59.1 (86144) - https://sketch.com -->
    <title>ic_personalization</title>
    <desc>Created with Sketch.</desc>
    
    <g id="el_FVP0hJUxOZ" fill-rule="evenodd">
        <g id="el_V7T5WM4s3e" fill-rule="nonzero">
            <path d="M38.6739059,31.4411202 C38.8751473,31.2873544 39.1462014,31.264532 39.3700542,31.3819246 L39.3700542,31.3819246 L46.9024361,35.3386244 C39.1395534,37.1734028 33.3584906,44.2078288 33.3584906,52.6056481 C33.3584906,54.4191627 33.6280886,56.169096 34.1290234,57.8168137 L3.27181123,57.8165199 C2.16060253,57.8165199 1.13574108,57.2553746 0.530179683,56.3150924 C-0.0756643602,55.3746676 -0.168088434,54.2015971 0.282867559,53.1763016 L0.282867559,53.1763016 L6.82377862,38.3042385 C7.12323827,37.6234183 7.64824658,37.0592776 8.30270512,36.7155154 L8.30270512,36.7155154 L18.4531013,31.3819246 C18.6769541,31.264532 18.9480082,31.2873544 19.1498149,31.4411202 C22.0208967,33.6329247 25.3963539,34.7914459 28.9120017,34.7914459 C32.4270842,34.7914459 35.8028241,33.6329247 38.6739059,31.4411202 Z M28.9120017,7.30607044e-06 C36.0721823,7.30607044e-06 41.8768098,3.58597418 41.8768098,15.316251 C41.8768098,23.7752245 36.0718997,30.6326373 28.9120017,30.6326373 C21.7516798,30.6326373 15.9471935,23.7752245 15.9471935,15.316251 C15.9471935,3.58597418 21.7515384,7.30607044e-06 28.9120017,7.30607044e-06 Z" id="el_XNCBrU4nRZ"/>
            <g id="el_Hr9cZeamDa_an_p2VX5P4H_" data-animator-group="true" data-animator-type="1"><g id="el_Hr9cZeamDa">
            <path d="M43.1112755,44.0166514 C47.0988699,40.3936372 53.066473,40.3382395 57.1092208,43.6454863 L53.9048055,43.7673614 C53.4911546,43.7839807 53.1712646,44.1274469 53.1878106,44.5429302 C53.2043567,44.9473339 53.5352773,45.2631012 53.9323822,45.2631012 C53.9434129,45.2631012 53.9489282,45.2631012 53.9599589,45.2631012 L58.8796465,45.0802885 C59.2822667,45.0636692 59.5966414,44.7368224 59.5966414,44.3324186 L59.5966414,44.2770209 C59.5966414,44.2659413 59.5966414,44.2604015 59.5966414,44.249322 L59.5966414,44.2437822 L59.5966414,44.2437822 L59.414635,39.357699 C59.398089,38.9422157 59.0506222,38.6209086 58.6424867,38.637528 C58.2288359,38.6541473 57.9089458,38.9976135 57.9254919,39.4130967 L58.0413141,42.4765934 C56.0392439,40.8312796 53.5738848,39.878438 50.9375499,39.7454833 C47.6724657,39.57929 44.5342345,40.7038648 42.1129981,42.908696 C38.7817298,45.9389539 37.3698015,50.5480483 38.4287477,54.9355517 C38.5114779,55.2790178 38.8148218,55.5061487 39.1512579,55.5061487 C39.2119267,55.5061487 39.2670801,55.5006089 39.3277489,55.4839896 C39.7248537,55.3842736 39.9730443,54.9798699 39.873768,54.5810059 C38.9471901,50.7253212 40.1826274,46.6757443 43.1112755,44.0166514 Z" id="el_GIvqX7KcRZ"/>
            <path d="M62.4315287,49.4677918 C62.3322525,49.0689279 61.9296323,48.8196379 61.5325274,48.9193539 C61.1354226,49.0190699 60.8872321,49.4234736 60.9865083,49.8223376 C61.9186016,53.6780223 60.677649,57.7275992 57.7490008,60.3866921 C55.6917772,62.253597 53.1105958,63.1731999 50.5404451,63.1731999 C48.0861166,63.1731999 45.6373035,62.3366936 43.66281,60.6858401 L46.9058328,60.3922319 C47.3139683,60.3534535 47.6173123,59.993368 47.5787049,59.5778847 C47.5400974,59.1624014 47.1816,58.8632535 46.7679492,58.9020319 L41.8648076,59.3452141 C41.456672,59.3839925 41.1533281,59.744078 41.1919355,60.1595613 L41.6331631,65.084423 C41.6662551,65.4722074 41.9916605,65.7658155 42.3722193,65.7658155 C42.3942807,65.7658155 42.416342,65.7658155 42.4384034,65.7602758 C42.8465389,65.7214973 43.1498829,65.3614118 43.1112755,64.9459285 L42.8465389,61.9489092 C44.8486091,63.5776036 47.3029376,64.5249055 49.9227264,64.6578601 C50.1323095,64.6689397 50.3418927,64.6744795 50.5459604,64.6744795 C53.5849155,64.6744795 56.4749562,63.5554445 58.7472783,61.4946475 C62.0785466,58.4643896 63.4904749,53.8608349 62.4315287,49.4677918 Z" id="el_oEay0oGsBK"/>
            </g></g>
        </g>
    </g>
</svg>