<?xml version="1.0" encoding="UTF-8"?>
<svg width="30px" height="30px" viewBox="0 0 30 30" version="1.1" xmlns="http://www.w3.org/2000/svg" xmlns:xlink="http://www.w3.org/1999/xlink">
    <!-- Generator: Sketch 55.2 (78181) - https://sketchapp.com -->
    <title>ic_web</title>
    <desc>Created with Sketch.</desc>
    <g id="ic_web" stroke="none" stroke-width="1" fill="none" fill-rule="evenodd">
        <path d="M26.2387073,15.3803847 L21.4899919,15.3803847 C21.4571604,17.3775325 21.164431,19.2516099 20.6709097,20.8845262 C21.7684878,21.1500516 22.8428178,21.4890155 23.8841759,21.8989893 C25.2931767,20.0864361 26.1579447,17.8304493 26.2387073,15.3803847 Z M26.2387083,14.6261176 C26.1579031,12.1741498 25.2921329,9.9127054 23.8816102,8.09817186 C22.8395747,8.50863695 21.7673031,8.85071621 20.6672333,9.11466818 C21.1613311,10.7500141 21.4568266,12.6276017 21.4899612,14.6261174 L26.2387083,14.6261176 Z M20.7478025,15.3803847 L9.25870408,15.3803847 C9.29188664,17.3219078 9.5802681,19.140015 10.0612516,20.7143267 C10.1505425,20.6957926 10.2399724,20.6777673 10.3295362,20.6602547 C11.8397071,20.3611487 13.4019528,20.2115958 14.990236,20.2115958 C16.5785191,20.2115958 18.1407648,20.367651 19.6509357,20.6602547 C19.7483431,20.6795508 19.8455947,20.6994172 19.9426841,20.7198523 C20.42521,19.1436432 20.7145606,17.3250516 20.7477988,15.380385 Z M20.7477993,14.6261173 C20.7145142,12.6782447 20.4243522,10.8545964 19.9405324,9.27673719 C19.8463649,9.29614987 19.752002,9.31498712 19.6574451,9.33324302 C18.1472742,9.63234896 16.5850285,9.78190192 14.9967453,9.78190192 C13.4084622,9.78190192 11.8462164,9.62584665 10.3360456,9.33324302 C10.2459649,9.31562932 10.1560197,9.297497 10.0662152,9.27885005 C9.58225489,10.8568584 9.29200363,12.6782421 9.25871052,14.6261173 L20.747803,14.6261176 Z M8.50363493,15.3803847 L3.75475936,15.3803847 C3.83534022,17.8340529 4.6994417,20.0860585 6.10752434,21.8971218 C7.14946167,21.4860522 8.22512762,21.1443434 9.32449817,20.8795056 C8.83199363,19.2473013 8.53726523,17.3740982 8.50363822,15.3803849 Z M8.50342304,14.6261176 C8.5360149,12.6261502 8.83142465,10.7493449 9.32575203,9.11272546 C8.22851393,8.84813859 7.15490773,8.50698022 6.11490127,8.09671812 C4.70599476,9.91033056 3.83585754,12.1690432 3.75478923,14.6261176 L8.50341764,14.6261176 Z M26.9932843,14.9321642 C26.9976924,14.9551899 27,14.9789545 27,15.0032512 C27,15.0275478 26.9976924,15.0513124 26.9932843,15.0743381 C26.9768498,17.9052688 25.9793553,20.5045297 24.3198354,22.5493464 C24.3068616,22.5726546 24.290733,22.5928115 24.2725793,22.6109455 C23.4949879,23.5547856 22.5761035,24.3794409 21.5486364,25.0500584 C19.6647312,26.2825392 17.4157472,27 14.9967453,27 C11.6834825,27 8.68266884,25.6540233 6.51505289,23.4822541 C6.38770515,23.3550444 6.26321607,23.2250014 6.14168768,23.0922284 C5.99038209,22.9273035 5.84354846,22.7581407 5.70138324,22.5849363 C5.69628761,22.5785737 5.69143131,22.5721015 5.68681279,22.5655302 C4.00549871,20.501173 3,17.8692306 3,15.0032512 C3,12.1428811 4.00156652,9.51563295 5.67694826,7.45310005 C5.6861025,7.43777815 5.69641579,7.42289183 5.7078926,7.40856137 C6.82750203,6.03657545 8.2465419,4.91817936 9.86737185,4.15090761 C11.4231082,3.40964508 13.1676159,3 15.0032547,3 C16.8323841,3.0065023 18.5768918,3.41614739 20.1326282,4.15740992 C21.7404394,4.91817936 23.1529699,6.03007315 24.2725793,7.38905446 C24.2988018,7.41524851 24.3207989,7.4456634 24.3385705,7.48029913 C25.9868601,9.52156822 26.9769117,12.1119028 26.9932843,14.9321642 Z M17.7137224,4.08389085 C18.4476261,4.70060625 19.1052974,5.56083451 19.6574451,6.60877811 C19.9463276,7.1577235 20.2072622,7.75996623 20.4357127,8.40687537 C21.442363,8.1678977 22.4250436,7.86448582 23.3807974,7.49959361 C22.836385,6.89534648 22.2297304,6.34744523 21.5693395,5.86969707 C20.4260012,5.04620953 19.1221037,4.43252155 17.7137224,4.08389085 Z M12.273414,4.0882695 C11.5467627,4.26937425 10.8484272,4.52067528 10.1863303,4.83364942 C8.82587469,5.4773774 7.61513426,6.38769981 6.62571196,7.49959361 C7.57253515,7.86297881 8.55369317,8.16539045 9.55750369,8.40391112 C9.78601958,7.75641751 10.0470474,7.15309998 10.3360456,6.60227581 C10.8865992,5.56041287 11.5420681,4.70374735 12.273414,4.0882695 C13.1470231,3.87053815 14.0615592,3.75426714 15.0032547,3.75426714 L12.273414,4.0882695 Z M9.55750369,8.40391112 L10.3030299,8.56845484 C10.0532638,8.51751042 9.80469691,8.46264799 9.55750369,8.40391112 Z M19.7043868,8.56826166 L20.4357127,8.40687537 C20.1933135,8.46442067 19.9495244,8.51822985 19.7043868,8.56826166 Z M17.7158155,25.9143495 C19.3524849,25.5076543 20.847995,24.7427972 22.1143238,23.7100811 C22.5653878,23.3403742 22.9868094,22.9358475 23.374288,22.5004064 C22.4261029,22.1364985 21.4434841,21.8337397 20.4381645,21.59506 C20.2094976,22.2410044 19.9478557,22.8425263 19.6574451,23.3912219 C19.1058224,24.4381692 18.4488765,25.2977578 17.7158155,25.9143495 Z M15.2309637,26.2433366 C16.6846616,26.129569 18.0099665,24.9318059 19,23.0465998 C19.2600311,22.5521373 19.4963137,22.0121119 19.7052192,21.4332292 C19.6416361,21.4202369 19.5779751,21.4074986 19.5142392,21.3950149 C18.0496338,21.1089136 16.539463,20.9593606 14.9967453,20.9593606 C13.4475183,20.9593606 11.9373474,21.1089136 10.4792514,21.3950149 C10.4192194,21.4067158 10.3592795,21.4186404 10.2994325,21.4307881 C10.5087945,22.0112899 10.7457071,22.5522404 11.0065094,23.0465998 C11.997824,24.9280565 13.3311756,26.1320715 14.7820424,26.2437297 C14.8534498,26.2450632 14.9250194,26.2457329 14.9967453,26.2457329 C15.0750068,26.2457329 15.1530822,26.2449315 15.2309637,26.2433366 Z M12.2797683,25.9161092 C11.5458646,25.2993937 10.8881932,24.4391655 10.3360456,23.3912219 C10.0472618,22.8424643 9.78640695,22.2404458 9.5580124,21.5937885 C8.54965848,21.8326641 7.56907226,22.135852 6.6192026,22.5004064 C7.61513426,23.6057979 8.81936534,24.5226226 10.179821,25.1663506 C10.2671588,25.2080248 10.3551271,25.2485791 10.4437078,25.2879983 C11.0310639,25.5478701 11.644797,25.7589284 12.2797683,25.9161092 Z" id="Combined-Shape" stroke="#FFFFFF" stroke-width="0.545454545" fill="#FFFFFF" fill-rule="nonzero"></path>
    </g>
</svg>