<?xml version="1.0" encoding="UTF-8"?>
<svg  viewBox="0 0 20 20" version="1.1" xmlns="http://www.w3.org/2000/svg" xmlns:xlink="http://www.w3.org/1999/xlink">
    <!-- Generator: Sketch 49 (51002) - http://www.bohemiancoding.com/sketch -->
    <title>Group 12</title>
    <desc>Created with Sketch.</desc>
    <defs></defs>
    <g id="Page-1" stroke="none" stroke-width="1" fill="none" fill-rule="evenodd">
        <g id="Intuz-packages-v1-as-per-changes-Copy" transform="translate(-338.000000, -765.000000)" fill="#A5A5A5">
            <g id="Group-12" transform="translate(338.000000, 765.000000)">
                <path d="M0,10 C0,15.525 4.475,20 10,20 C15.525,20 20,15.525 20,10 C20,4.475 15.525,0 10,0 C4.475,0 0,4.475 0,10 L0,10 Z M1.2125,10 C1.2125,5.4 5.4,1.2125 10,1.2125 C14.6,1.2125 18.75,5.4 18.75,10 C18.75,14.6 14.1875,18.75 9.5875,18.75 C4.975,18.75 1.2125,14.6 1.2125,10 L1.2125,10 Z" id="Shape"></path>
                <path d="M8.75,10 L8.75,13.75 L7.5,13.75 L7.5,15 L8.75,15 L11.25,15 L12.5,15 L12.5,13.75 L11.25,13.75 L11.25,10 L11.25,8.75 L8.75,8.75 L7.5,8.75 L7.5,10 L8.75,10 L8.75,10 Z M8.75,5 L8.75,7.5 L11.25,7.5 L11.25,5 L8.75,5 L8.75,5 Z" id="Shape"></path>
            </g>
        </g>
    </g>
</svg>