<svg xmlns="http://www.w3.org/2000/svg" viewBox="0 0 26 30" width="26" height="30">
	<style>
		tspan { white-space:pre }
		.shp0 { fill: #3a3a3a } 
	</style>
	<path id="" fill-rule="evenodd" class="shp0" d="M25.63 21.95C25.18 23.38 24.45 24.89 23.4 26.46C21.84 28.81 20.28 29.99 18.74 29.99C18.12 29.99 17.29 29.79 16.2 29.41C15.13 29.01 14.21 28.83 13.46 28.83C12.74 28.83 11.87 29.03 10.89 29.43C9.89 29.84 9.09 30.04 8.49 30.04C6.63 30.04 4.83 28.47 3.04 25.37C1.28 22.28 0.37 19.27 0.37 16.32C0.37 13.56 1.06 11.33 2.42 9.58C3.78 7.85 5.48 6.99 7.57 6.99C8.46 6.99 9.51 7.17 10.78 7.53C12.03 7.89 12.86 8.07 13.28 8.07C13.81 8.07 14.68 7.87 15.87 7.46C17.07 7.06 18.12 6.84 19.01 6.84C20.46 6.84 21.75 7.24 22.87 8.01C23.51 8.45 24.14 9.06 24.76 9.82C23.82 10.61 23.13 11.31 22.69 11.94C21.91 13.06 21.51 14.3 21.51 15.67C21.51 17.14 21.93 18.5 22.76 19.68C23.6 20.87 24.56 21.63 25.63 21.95ZM18.93 0.89C18.93 1.62 18.74 2.44 18.39 3.31C18.02 4.21 17.45 5.03 16.67 5.77C16 6.41 15.33 6.84 14.67 7.06C14.24 7.18 13.61 7.29 12.74 7.36C12.78 5.6 13.26 4.06 14.19 2.78C15.11 1.5 16.67 0.62 18.82 0.14C18.85 0.3 18.89 0.43 18.91 0.53C18.91 0.66 18.93 0.77 18.93 0.89Z" />
</svg>