<svg width="0" height="0" class="hidden">
  <symbol viewBox="0 0 40 40" xmlns="http://www.w3.org/2000/svg" id="menu_process">
    <title>menu_process</title>
    <path d="M31.758 27.335l-6.229.002a.583.583 0 0 0-.178 1.14l.089.02.089.006h5.462l-1.978 1.75a13.623 13.623 0 0 1-9.025 3.417c-.507 0-1.014-.03-1.514-.093a.584.584 0 0 0-.14 1.16c.548.067 1.1.1 1.653.1a14.775 14.775 0 0 0 9.017-3.077l.319-.253.303-.255 1.653-1.425v4.426a.583.583 0 0 0 1.141.178l.02-.089.006-.089.007-6.217-.015-.093-.047-.185-.026-.072-.034-.063-.04-.056-.05-.052-.07-.06-.062-.032-.057-.024-.055-.019-.093-.02-.095-.014-.051-.011zM6.19 17.919a.583.583 0 0 0-.937.431c-.067.548-.1 1.1-.1 1.653a14.776 14.776 0 0 0 3.077 9.016l.254.32.254.303 1.425 1.653H5.737a.583.583 0 0 0-.178 1.141l.09.02.088.006h6.32a.553.553 0 0 0 .333-.116l.064-.06.075-.087.036-.067.023-.055.036-.121.026-.165.004.014v-6.26a.586.586 0 0 0-.337-.532l-.087-.03-.07-.015-.09-.007a.586.586 0 0 0-.557.406l-.02.089-.006.089v5.462l-1.749-1.978a13.621 13.621 0 0 1-3.417-9.024c-.001-.51.03-1.015.092-1.538a.583.583 0 0 0-.223-.548zM34.237 7.545l-6.263-.002-.23.056-.07.025-.086.049-.058.047-.088.094-.047.093-.03.086-.022.106-.02.12-.003-.018v6.26c0 .235.14.443.338.532l.087.03.07.016.089.006a.586.586 0 0 0 .558-.405l.02-.09.005-.089V8.997l1.75 1.98a13.627 13.627 0 0 1 3.417 9.026c0 .506-.03 1.011-.091 1.513a.584.584 0 0 0 .504.65l.075.004a.583.583 0 0 0 .578-.515c.067-.548.101-1.1.1-1.651a14.775 14.775 0 0 0-3.076-9.017l-.253-.32-.255-.303-1.425-1.653h4.426a.583.583 0 0 0 .179-1.14l-.09-.02-.089-.006zM19.99 5.169l-.393.006a14.777 14.777 0 0 0-8.3 2.827l-.325.244-.319.254-.303.254-1.653 1.425V5.753a.583.583 0 0 0-1.142-.178l-.019.09-.006.088-.006 6.228.005.044.044.178c.006.03.014.06.023.084l.011.03.025.05.064.086.037.039.072.064.08.044.098.036.062.018.104.006.046.009h6.252c.235 0 .442-.14.531-.336l.03-.088.016-.07.006-.088a.586.586 0 0 0-.405-.559l-.09-.019-.088-.006H8.982l1.978-1.749a13.624 13.624 0 0 1 9.025-3.417c.507-.002 1.014.029 1.516.09a.584.584 0 0 0 .14-1.16 13.638 13.638 0 0 0-.823-.074l-.41-.018-.419-.006z"
      ></path>
  </symbol>
  <symbol viewBox="0 0 40 40" xmlns="http://www.w3.org/2000/svg" id="menu_about">
    <title>menu_about</title>
    <path d="M31.083 4.917H8.917a.833.833 0 0 0-.827.728l-.007.105v27.667H5.75a.833.833 0 0 0-.105 1.66l.105.006h28.5a.833.833 0 0 0 .105-1.66l-.105-.006h-2.333V5.75a.833.833 0 0 0-.73-.827l-.104-.006zm-8.75 20.666v7.834h-4.666v-7.834h4.666zm7.917-19v26.834H24V24.75a.833.833 0 0 0-.729-.827l-.104-.006h-6.334a.833.833 0 0 0-.827.728L16 24.75v8.667H9.75V6.583h20.5zm-5.5 11h-1.583a.833.833 0 0 0-.105 1.66l.105.007h1.583a.833.833 0 0 0 .105-1.66l-.105-.007zm-7.917 0H15.25a.833.833 0 0 0-.105 1.66l.105.007h1.583a.833.833 0 0 0 .105-1.66l-.105-.007zm7.917-6.333h-1.583a.833.833 0 0 0-.105 1.66l.105.007h1.583a.833.833 0 0 0 .105-1.66l-.105-.007zm-7.917 0H15.25a.833.833 0 0 0-.105 1.66l.105.007h1.583a.833.833 0 0 0 .105-1.66l-.105-.007z"
      ></path>
  </symbol>
  <symbol viewBox="0 0 40 40" xmlns="http://www.w3.org/2000/svg" id="menu_marketing">
    <title>menu_marketing</title>
    <path d="M22.476 6.38c2.81-1.135 6.768 2.693 9.065 8.379 2.297 5.686 2.109 11.189-.7 12.324a2.784 2.784 0 0 1-.448.137.543.543 0 0 1-.384.227l-4.028.443c-2.007.216-3.93.414-5.743.593v2.133l-.058.116c-.995 1.972-2.746 2.972-5.164 2.972-2.328 0-4.038-.927-5.05-2.757l-.113-.215-.059-.116v-1.201c-2.369.18-4.064.273-4.881.273-2.836 0-4.941-4.523-2.219-7.133l.368-.343C5.26 20.2 11.32 15.243 21.273 7.315a2.862 2.862 0 0 1 1.203-.935zM10.89 29.33v1.02l.045.083c.779 1.396 2.034 2.112 3.833 2.172l.25.004c1.933 0 3.268-.717 4.082-2.176l.044-.084V28.59a480.64 480.64 0 0 1-8.254.739zm9.493-19.9l-4.308 3.445c-6.987 5.613-11.2 9.109-12.622 10.471-1.981 1.9-.424 5.247 1.46 5.247l.332-.004c2.691-.06 11.446-.78 22.387-1.98-2.138-1.26-4.352-4.184-5.855-7.905-1.406-3.48-1.881-6.89-1.394-9.274zm10.143 5.74c-2.095-5.188-5.615-8.591-7.638-7.774-.25.1-.47.263-.662.48a.519.519 0 0 1-.158.206l-.01.008c-1.19 1.704-1.025 5.85.734 10.204 2.096 5.187 5.616 8.59 7.64 7.773 2.022-.817 2.19-5.71.094-10.898zm4.117 2.74l4.136 2.482-.712 1.188-4.137-2.482.713-1.188zm1.802-6.438l.515 1.286-4.235 1.694-.514-1.286 4.234-1.694zM30.902 5.01l1.314.438-1.617 4.852-1.314-.438 1.617-4.852z"
      ></path>
  </symbol>
  <symbol viewBox="0 0 40 40" xmlns="http://www.w3.org/2000/svg" id="menu_blockchain">
    <title>menu_blockchain</title>
    <path d="M16.942 4c1.848 0 3.346 1.48 3.346 3.306 0 1.34-.806 2.493-1.966 3.012l1.467 5.393a3.356 3.356 0 0 1 2.624.941l6.244-6.168a.589.589 0 0 1 .191-.127 3.265 3.265 0 0 1-.997-2.351c0-1.826 1.498-3.306 3.346-3.306 1.849 0 3.347 1.48 3.347 3.306s-1.498 3.306-3.347 3.306a3.365 3.365 0 0 1-1.535-.368.567.567 0 0 1-.102.283l-.068.081-6.249 6.173a.59.59 0 0 1-.155.11 3.28 3.28 0 0 1-.793 3.877l8.24 8.353a.58.58 0 0 1 .134.214 3.34 3.34 0 0 1 1.985-.647c1.848 0 3.346 1.48 3.346 3.306S34.502 36 32.654 36s-3.346-1.48-3.346-3.306c0-.713.228-1.374.617-1.914a.524.524 0 0 1-.155-.076l-.081-.068-8.428-8.543a3.374 3.374 0 0 1-1.673.185l-4.04 7.982-.018.033c.388.54.616 1.2.616 1.912 0 1.826-1.498 3.306-3.346 3.306s-3.346-1.48-3.346-3.306c0-1.825 1.498-3.305 3.346-3.305.68 0 1.313.2 1.841.545l3.815-7.54a3.316 3.316 0 0 1-1.66-2.186h-5.168a3.337 3.337 0 0 1-3.282 2.657C6.498 22.376 5 20.896 5 19.07s1.498-3.306 3.346-3.306c1.669 0 3.052 1.207 3.305 2.785l5.098-.001a3.314 3.314 0 0 1 1.898-2.538l-1.47-5.406a3.436 3.436 0 0 1-.235.008c-1.848 0-3.346-1.48-3.346-3.306S15.094 4 16.942 4zm15.712 26.555c-1.196 0-2.165.958-2.165 2.14 0 1.18.97 2.138 2.165 2.138 1.196 0 2.165-.957 2.165-2.139 0-1.181-.97-2.139-2.165-2.139zM12.8 30.066c-1.196 0-2.165.958-2.165 2.14 0 1.18.969 2.138 2.165 2.138 1.195 0 2.165-.957 2.165-2.139 0-1.181-.97-2.139-2.165-2.139zM8.346 16.931c-1.196 0-2.165.958-2.165 2.14 0 1.18.97 2.138 2.165 2.138 1.196 0 2.165-.957 2.165-2.139 0-1.181-.97-2.139-2.165-2.139zm11.718-.064c-1.196 0-2.166.957-2.166 2.139 0 1.181.97 2.139 2.166 2.139.346 0 .673-.08.963-.223l-.055.042a.59.59 0 0 1 .211-.13 2.124 2.124 0 0 0 1.046-1.828c0-1.182-.97-2.14-2.165-2.14zm11.133-11c-1.195 0-2.165.957-2.165 2.139 0 1.181.97 2.139 2.165 2.139 1.196 0 2.166-.958 2.166-2.14 0-1.18-.97-2.138-2.166-2.138zm-14.255-.7c-1.196 0-2.165.957-2.165 2.139 0 1.181.97 2.139 2.165 2.139 1.196 0 2.165-.958 2.165-2.14 0-1.18-.97-2.138-2.165-2.138z"
      ></path>
  </symbol>
  <symbol viewBox="0 0 40 40" xmlns="http://www.w3.org/2000/svg" id="menu_android">
    <title>menu_android</title>
    <path d="M13.552 2c-.349 0-.563.214-.563.558 0 .056.022.125.085.214l.054.07L14.52 4.83l-.696.412a9.167 9.167 0 0 0-2.735 2.464 7.652 7.652 0 0 0-1.318 2.951l-.054.309-.098.636-.12-.001v.195l-.888-.166a1.596 1.596 0 0 0-.3-.028c-.64 0-1.224.233-1.648.654a2.277 2.277 0 0 0-.655 1.454L6 13.9v9.638c0 .64.233 1.217.658 1.64a2.316 2.316 0 0 0 1.652.661l.15-.007.154-.021.885-.161v4.733c0 .738.57 1.352 1.294 1.422l.138.006h2.058v3.142c0 .64.233 1.217.658 1.639a2.316 2.316 0 0 0 1.652.662c.64 0 1.224-.233 1.647-.654.384-.383.613-.892.656-1.454l.007-.19V31.82h4.116v3.133c0 .64.233 1.217.658 1.639a2.316 2.316 0 0 0 1.652.662c.645 0 1.22-.233 1.648-.666a2.28 2.28 0 0 0 .655-1.454l.007-.19v-3.137h2.058c.743 0 1.356-.568 1.426-1.29l.006-.138v-4.652l.889.166c.1.019.195.028.3.028.64 0 1.224-.233 1.648-.653.383-.384.613-.893.655-1.455l.007-.189v-9.635c-.003-.64-.236-1.218-.658-1.643a2.31 2.31 0 0 0-1.652-.662l-.15.007-.154.022-.885.16v-.19h-.025l-.11-.617c-.205-1.137-.695-2.26-1.431-3.276a9.34 9.34 0 0 0-2.375-2.263l-.314-.2-.681-.417 1.355-1.934.061-.286a.598.598 0 0 0 .022-.127c0-.344-.217-.559-.563-.559-.116 0-.252.07-.375.214l-.071.096-1.52 2.185-.53-.174a11.79 11.79 0 0 0-3.615-.578c-1.07 0-2.176.158-3.225.46l-.39.119-.531.173L14 2.307C13.859 2.1 13.69 2 13.552 2zm.57 29.811h2.37l-.004 3.295c-.067.624-.555 1.027-1.177 1.027-.648 0-1.126-.43-1.183-1.057l-.006-.128v-3.137zm8.728 0h2.37l-.004 3.295c-.067.625-.552 1.027-1.177 1.027-.648 0-1.126-.43-1.183-1.057l-.006-.128v-3.137zm5.869-19.006v17.89H10.624v-17.89h18.095zM8.314 12.8c.648 0 1.126.43 1.183 1.057l.006.127v9.643c0 .695-.497 1.185-1.19 1.185-.648 0-1.125-.431-1.182-1.057l-.006-.128v-9.643c0-.694.497-1.184 1.189-1.184zm22.71 0c.649 0 1.126.43 1.183 1.057l.006.127v9.643c0 .695-.497 1.185-1.189 1.185-.648 0-1.126-.431-1.183-1.057l-.006-.128v-9.643c0-.694.497-1.184 1.19-1.184zM19.667 4.868c2.192 0 4.309.667 5.98 1.888 1.37 1.003 2.335 2.292 2.775 3.721l.08.288.24.935h-18.15l.238-.935c.393-1.542 1.396-2.942 2.857-4.018 1.67-1.216 3.786-1.879 5.979-1.879zM17.05 8.612c-.348 0-.562.213-.562.558 0 .343.216.559.562.559.349 0 .563-.214.563-.563.002-.338-.215-.554-.563-.554zm5.242 0c-.348 0-.563.213-.563.558 0 .343.217.559.563.559.35 0 .567-.216.567-.559-.002-.35-.212-.558-.567-.558z"
      ></path>
  </symbol>
  <symbol viewBox="0 0 40 40" xmlns="http://www.w3.org/2000/svg" id="menu_web">
    <title>menu_web</title>
    <path d="M37.643 4.967a1.6 1.6 0 0 1 1.6 1.442l.007.144v5.344a.688.688 0 0 1-.038.225.78.78 0 0 1 .032.142l.006.1v19.864c0 .904-.642 1.656-1.468 1.733l-.14.006H2.358c-.845 0-1.531-.704-1.601-1.59l-.006-.15V12.365c0-.085.013-.166.038-.243a.627.627 0 0 1-.032-.13l-.006-.094V6.553c0-.827.644-1.506 1.461-1.58l.146-.006h35.286zm.202 7.625H2.154v19.636c0 .117.067.21.151.238l.052.008h35.286c.088 0 .17-.073.195-.18l.007-.066V12.592zm-15.866 12.86c.526 0 .985.278.985.695 0 .345-.316.597-.736.673l-.117.016-.132.006H8.973c-.526 0-.985-.278-.985-.695 0-.345.316-.597.737-.673l.117-.016.131-.006H21.98zm9.048-7.125c.526 0 .985.278.985.695 0 .345-.316.597-.737.673l-.117.016-.131.006H8.973c-.526 0-.985-.278-.985-.695 0-.345.316-.597.737-.673l.117-.016.131-.006h22.054zm6.534-12.36H2.939l-.093.006a.674.674 0 0 0-.588.551l-.008.098v4.845h36V6.622l-.006-.09a.679.679 0 0 0-.683-.565zM4.619 7.89c.5 0 .905.399.905.89a.897.897 0 0 1-.905.891.898.898 0 0 1-.905-.89c0-.492.405-.89.905-.89zm3.62 0c.499 0 .904.399.904.89a.897.897 0 0 1-.905.891.898.898 0 0 1-.905-.89c0-.492.405-.89.905-.89zm3.618 0c.5 0 .905.399.905.89a.897.897 0 0 1-.905.891.898.898 0 0 1-.905-.89c0-.492.405-.89.905-.89z"
      ></path>
  </symbol>
  <symbol viewBox="0 0 40 40" xmlns="http://www.w3.org/2000/svg" id="menu_partner">
    <title>menu_partner</title>
    <g >
      <path d="M32.875 6.118c.871 0 1.727.36 2.574 1.112l.196.181 2.186 2.055c2.883 2.904 1.21 8.47-2.454 11.31a3.125 3.125 0 0 1-.302 3.203l-.122.153-.064.077a3.065 3.065 0 0 1-2.77 1.068l-.078-.013v.03a3.113 3.113 0 0 1-.599 1.639l-.124.157-.065.078a3.076 3.076 0 0 1-3.243.962l-.084-.028-.039.192a3.105 3.105 0 0 1-.514 1.109l-.128.163-.064.077a3.068 3.068 0 0 1-3.213.977l-.126-.042-.011.056c-.097.39-.27.76-.511 1.087l-.19.237a3.075 3.075 0 0 1-4.362.352l-.409-.363-.065.069a2.437 2.437 0 0 1-3.318.06 2.481 2.481 0 0 1-.313-3.348l.111-.135 1.986-2.25a2.439 2.439 0 0 1 1.83-.826c.6 0 1.179.222 1.624.624.966.865 1.09 2.33.314 3.347l-.112.136-1.294 1.465.401.355a1.918 1.918 0 0 0 2.61-.098l.116-.126.065-.078c.296-.35.458-.792.46-1.247l-.007-.17-.105-1.266 1.02.757a1.92 1.92 0 0 0 2.502-.184l.117-.127.063-.076c.331-.394.493-.9.455-1.407l-.02-.17-.234-1.445 1.155.9a1.924 1.924 0 0 0 2.537-.152l.117-.126.063-.076a1.967 1.967 0 0 0 .435-1.587l-.036-.169-.32-1.242 1.14.589c.273.14.572.212.88.212.509 0 .994-.197 1.356-.558l.117-.127.063-.076a1.977 1.977 0 0 0-.11-2.658l-.124-.116-8.743-7.787-.043-.027-1.444.662c-4.079 1.847-6.499 2.752-7.433 2.752l-.4-.006c-1.122-.04-1.58-.284-2.116-1.21-.735-1.27.076-2.659 1.566-3.752l.05-.044a31.22 31.22 0 0 1 2.177-1.684c.476-.335.946-.643 1.409-.92a7.676 7.676 0 0 0-.878-.288 6.866 6.866 0 0 0-1.727-.24c-.657 0-1.157.101-1.865.346l-.843.304-.105.036c-.541.181-.988.272-1.477.272-.33 0-.664-.043-1.016-.134-.259-.068-.518-.19-.831-.379l-.804-.515-.194-.122c-.697-.428-1.196-.618-1.729-.618-.57 0-1.158.245-1.805.82l-.178.164-2.157 2.028c-2.268 2.284-1.436 5.404 1.254 7.887l1.356 1.201 1.984-1.238a2.42 2.42 0 0 1 3.346.795c.285.462.398.984.357 1.488l.016-.012a2.436 2.436 0 0 1 3.405.64 2.48 2.48 0 0 1-.496 3.325l-.14.105-3.412 2.358a2.436 2.436 0 0 1-3.405-.64 2.48 2.48 0 0 1-.283-2.232l-.183.007c-.845 0-1.63-.44-2.07-1.162a2.467 2.467 0 0 1 .04-2.643l-1.085-.959C.732 16.367-.417 12.546 2.281 9.633l.17-.178L4.617 7.42c.915-.883 1.836-1.3 2.775-1.3.793 0 1.461.253 2.326.784l1.103.701c.242.148.272.147.418.185.257.066.495.097.727.097.348 0 .679-.067 1.112-.212l.64-.231c.979-.36 1.638-.514 2.538-.514.624 0 1.286.088 2.013.276a9.453 9.453 0 0 1 1.56.564l.304.141.23-.11a9.604 9.604 0 0 1 1.634-.598 8.51 8.51 0 0 1 1.57-.261l.046-.01c.136-.001.268-.005.398-.005.802 0 1.412.122 2.225.401l.867.313.095.033c.43.144.758.21 1.103.21.173 0 .352-.018.538-.054l.282-.067c.157-.043.246-.103 1.19-.71.985-.632 1.7-.934 2.564-.934zm-14.286 20.33a1.511 1.511 0 0 0-1.018.398l-.112.115-1.986 2.25a1.554 1.554 0 0 0 .125 2.175 1.5 1.5 0 0 0 2.03-.02l.104-.108 1.985-2.25a1.551 1.551 0 0 0-.124-2.174 1.5 1.5 0 0 0-1.004-.385zM12.947 20.9c-.253 0-.5.065-.721.187l-.13.08-3.411 2.358a1.55 1.55 0 0 0-.395 2.14c.283.417.75.666 1.25.666.253 0 .5-.065.721-.187l.13-.08 3.41-2.359a1.55 1.55 0 0 0 .395-2.14 1.509 1.509 0 0 0-1.249-.665zm-3.824-2.206c-.221 0-.438.05-.636.145l-.144.079-2.078 1.299a1.532 1.532 0 0 0-.488 2.097 1.481 1.481 0 0 0 1.927.563l.13-.072 2.075-1.296a1.532 1.532 0 0 0 .488-2.097 1.481 1.481 0 0 0-1.274-.718zM32.875 7.267c-.532 0-1.03.19-1.727.617l-.955.61-.044.027c-.314.188-.574.31-.834.377a4.05 4.05 0 0 1-1.014.134c-.486 0-.93-.09-1.467-.27l-.679-.244c-.862-.316-1.403-.443-2.144-.443-.088 0-.177.002-.268.006l-.272.062c-2.677.613-4.11 1.271-6.993 3.648a7.605 7.605 0 0 0-.58.396l-.102.089-.593.528c-.57.606-.796 1.2-.55 1.626l.114.188c.273.418.478.454 1.408.454.706 0 3.089-.899 6.979-2.658l.838-.385.034-.033a1.365 1.365 0 0 1 1.604-.184l.116.075.11.087 8.738 7.781.103.094c3.098-2.42 4.554-7.062 2.47-9.413l-.137-.147-2.177-2.045c-.713-.685-1.356-.977-1.978-.977z"></path>
      <path d="M16.088 23.302c.389 0 .755.152 1.032.431.575.578.575 1.52 0 2.1l-3.65 3.676a1.448 1.448 0 0 1-2.063 0 1.495 1.495 0 0 1 0-2.1l3.647-3.679a1.46 1.46 0 0 1 1.034-.428m0-.932c-.612 0-1.224.236-1.693.705l-3.647 3.678a2.425 2.425 0 0 0 0 3.412 2.389 2.389 0 0 0 3.386 0l3.648-3.679a2.425 2.425 0 0 0 0-3.411 2.389 2.389 0 0 0-1.694-.705z"></path>
    </g>
  </symbol>
  <symbol viewBox="0 0 40 40" xmlns="http://www.w3.org/2000/svg" id="menu_apple">
    <title>menu_apple</title>
    <path d="M28.178 11.37a5.873 5.873 0 0 0-.914.003c-.845.065-1.722.277-2.817.649l-.55.193c-.35.127-1.038.38-1.34.487l-.085.03c-.521.178-.894.277-1.217.298l-.255.005c-.428 0-.555-.025-1.975-.528l-.867-.308a19.945 19.945 0 0 0-1.498-.482c-.651-.176-1.207-.267-1.673-.267-4.74.074-8.513 3.9-8.513 9.961 0 2.024.37 4.12 1.114 6.282 1.615 4.63 5.193 9.65 7.894 9.568.508-.012 1-.121 1.649-.347l.634-.233.24-.09c1.438-.542 2.35-.768 3.59-.768 1.096 0 1.883.182 3.131.647l.704.268c.983.373 1.583.522 2.298.522 2.538-.036 5.523-3.898 7.134-7.947l.11-.283.09-.243-.06-.032c-1.168-.644-2.11-1.436-2.844-2.347l-.214-.277-.185-.26a8.515 8.515 0 0 1-1.31-3.068 7.715 7.715 0 0 1-.177-1.53l.002-.236c-.016-2.786 1.083-5.015 3.288-6.72l.259-.195.135-.097-.048-.058c-1.226-1.396-2.898-2.237-5.036-2.524l-.36-.043-.334-.03zm-.336 1.425l.224.01c.957.076 1.792.256 2.523.548l.27.115.914.415-.658.759c-1.516 1.75-2.284 3.878-2.28 6.382-.013.65.049 1.325.205 2.073a9.95 9.95 0 0 0 1.526 3.584 10.23 10.23 0 0 0 1.888 2.075l.32.258.481.373-.265.547a21.541 21.541 0 0 1-1.815 3.09c-.659.916-1.33 1.648-1.969 2.137-.538.41-1.028.639-1.502.655-.452-.005-.868-.1-1.564-.356l-1.036-.393a12.39 12.39 0 0 0-1.233-.396 8.953 8.953 0 0 0-2.276-.296c-.794 0-1.555.096-2.332.289-.408.102-.773.214-1.236.377l-1.369.509c-.518.18-.874.26-1.236.266-.084 0-.152-.008-.213-.02a1.486 1.486 0 0 1-.321-.098 3.782 3.782 0 0 1-.875-.529c-.668-.52-1.38-1.308-2.103-2.317-1.181-1.658-2.363-3.93-2.956-5.633-.69-2.009-1.036-3.949-1.036-5.812 0-2.72.797-4.924 2.312-6.463a6.93 6.93 0 0 1 4.78-2.054c.283.005.635.059 1.035.156l.246.064c.234.063.48.138.782.238l1.768.628c.108.038.208.072.303.103l.142.046c.794.253 1.306.354 1.833.354.53 0 1-.101 1.825-.385l1.613-.585c1.194-.424 2.06-.643 2.82-.699l.236-.013.229-.002zm-.152-9.954l-.238.055c-1.447.362-2.984 1.28-3.944 2.396-1.073 1.215-1.713 2.583-1.86 4.042l-.022.293-.007.205c1.356-.098 2.665-.794 3.862-2.031l.223-.239.197-.224c1.238-1.47 1.716-2.797 1.782-4.19l.007-.246V2.84z"
      ></path>
  </symbol>
  <symbol viewBox="0 0 40 40" xmlns="http://www.w3.org/2000/svg" id="menu_caseStudies">
    <title>menu_caseStudies</title>
    <path d="M30.531 4.25H10.594c-.413 0-.756.092-1.037.273-.283.183-.48.401-.594.657a2.077 2.077 0 0 0-.174.694l-.008.189v4.218H7.437a.661.661 0 0 0-.506.22.767.767 0 0 0-.117.898c.06.111.144.195.257.255a.79.79 0 0 0 .273.09l.093.006h1.344v4.531h-1.25a.767.767 0 0 0-.366.096.604.604 0 0 0-.257.256.767.767 0 0 0-.096.367c0 .205.068.37.209.51.112.113.24.179.392.2l.118.009h1.25v4.562H7.5a.609.609 0 0 0-.256.056.99.99 0 0 0-.25.162.597.597 0 0 0-.154.222.72.72 0 0 0 .165.805.71.71 0 0 0 .388.215l.107.009h1.281v4.5H7.5a.777.777 0 0 0-.36.092.712.712 0 0 0-.359.627c0 .204.072.375.224.526a.71.71 0 0 0 .388.215l.107.009h1.281V34c0 .654.182 1.093.535 1.343.33.233.681.366 1.057.399l.19.008H30.53a2.64 2.64 0 0 0 1.948-.802 2.624 2.624 0 0 0 .796-1.742L33.28 33V7a2.64 2.64 0 0 0-.802-1.948 2.624 2.624 0 0 0-1.742-.795l-.206-.007zm-3.75 1.5v28.5h-16.5v-4.531h1.281a.712.712 0 0 0 .527-.224.712.712 0 0 0 .165-.805.597.597 0 0 0-.154-.222.99.99 0 0 0-.25-.162.62.62 0 0 0-.181-.05l-.106-.006H10.28v-4.5h1.282c.14 0 .26-.034.364-.1a.933.933 0 0 0 .285-.285.655.655 0 0 0 .1-.365.661.661 0 0 0-.218-.506.736.736 0 0 0-.411-.204l-.12-.009H10.28V17.72h1.313a.743.743 0 0 0 .376-.092.658.658 0 0 0 .25-.251.741.741 0 0 0 .092-.376.93.93 0 0 0-.05-.296.46.46 0 0 0-.131-.205.99.99 0 0 0-.25-.162.62.62 0 0 0-.181-.05l-.106-.006H10.28V11.75h1.22c.205 0 .37-.068.51-.208a.686.686 0 0 0 .209-.51c0-.207-.07-.38-.213-.532a.658.658 0 0 0-.39-.21l-.116-.009h-1.219V5.75h16.5zm3.75 0c.338 0 .636.126.88.37.21.21.332.458.363.738L31.78 7v26c0 .338-.125.636-.37.88-.21.21-.458.332-.737.362l-.143.008h-2.25V5.75h2.25z"></path>
  </symbol>
  <symbol viewBox="0 0 40 40" xmlns="http://www.w3.org/2000/svg" id="menu_testimonials">
    <title>menu_testimonials</title>
    <path d="M30.963 5.35H9.037c-2.587.007-4.68 2.123-4.687 4.732v14.001l.005.217c.119 2.51 2.167 4.51 4.682 4.517l2.236-.001V34l.007.095a.65.65 0 0 0 1.062.402l6.738-5.681h11.882c2.588-.007 4.68-2.122 4.688-4.73V10.082c-.007-2.61-2.1-4.726-4.687-4.733zM9.04 6.65h21.922c1.866.005 3.383 1.539 3.388 3.435v13.998c-.005 1.895-1.522 3.428-3.39 3.434H19.052l-.144.008a1.224 1.224 0 0 0-.646.28l-5.689 4.797v-4.435a.65.65 0 0 0-.65-.65H9.038c-1.866-.006-3.383-1.539-3.388-3.435V10.083C5.655 8.19 7.172 6.655 9.04 6.65z"
      ></path>
  </symbol>
  <symbol viewBox="0 0 40 40" xmlns="http://www.w3.org/2000/svg" id="menu_reactjs">
    <title>menu_reactjs</title>
    <path d="M22.241 8.134c2.96-2.5 5.768-3.437 7.429-2.474 1.793 1.036 2.383 4.287 1.521 8.48-.053.26-.111.517-.174.774l-.054.22.218.064.57.173.565.186c3.827 1.32 6.165 3.344 6.166 5.327 0 2.073-2.516 4.21-6.57 5.556-.213.07-.431.138-.654.204l-.218.065.131.538c.05.211.094.419.135.624.798 4.038.164 7.253-1.61 8.282-1.707.991-4.579.026-7.582-2.564a22.334 22.334 0 0 1-.954-.87l-.165-.16-.41.395c-.162.153-.325.3-.487.443-3.095 2.71-6.188 3.764-7.963 2.739-1.71-.988-2.308-3.961-1.572-7.866.08-.425.173-.844.277-1.26l.056-.222-.221-.063-.478-.143-.475-.155c-3.887-1.331-6.344-3.491-6.344-5.546 0-1.978 2.271-3.986 6.01-5.293.43-.15.864-.287 1.303-.41l.22-.064-.055-.222-.137-.584-.123-.586c-.778-3.98-.2-7.023 1.51-8.015 1.79-1.04 4.895.071 8.089 2.914.2.176.396.356.586.539l.165.159.164-.16.434-.409.443-.398zm7.786 18.843l-.226.05-.677.147a35.18 35.18 0 0 1-4.109.594l-.176.102-.391.563a35.676 35.676 0 0 1-2.57 3.207l-.155.172.551.519c.183.168.353.32.52.463 2.574 2.22 5.1 3.192 6.378 2.45.61-.353 1.06-1.194 1.279-2.374.244-1.32.186-2.985-.173-4.794a19.098 19.098 0 0 0-.195-.874l-.056-.225zm-18.12.066l-.15.623c-.061.267-.117.533-.168.8-.634 3.344-.212 6.022 1.067 6.761.612.354 1.563.324 2.693-.076 1.264-.448 2.673-1.33 4.06-2.544.24-.21.468-.422.687-.638l.164-.161-.156-.169-.54-.598a36.911 36.911 0 0 1-2.494-3.158l-.176-.1-.685-.059a35.403 35.403 0 0 1-4.077-.632l-.226-.049zm11.655.83l-.494.022-.704.027a52.96 52.96 0 0 1-3.507-.019l-.5-.02.302.4.425.55c.57.725 1.149 1.406 1.73 2.035l.177.191.174-.193.442-.501a32.8 32.8 0 0 0 1.663-2.093l.292-.399zm-2.63-12.94c-1.09 0-2.181.041-3.258.123l-.178.103-.454.68a43.193 43.193 0 0 0-2.803 4.977v.205l.357.727a43.335 43.335 0 0 0 2.916 4.941l.18.103.794.045c.798.038 1.612.058 2.443.058 1.094 0 2.192-.04 3.278-.116l.181-.105.445-.683c.439-.686.862-1.383 1.268-2.09A46.743 46.743 0 0 0 27.638 21v-.21l-.37-.729a51.553 51.553 0 0 0-1.171-2.144 46.414 46.414 0 0 0-1.723-2.757l-.179-.104-.808-.054a43.237 43.237 0 0 0-2.456-.07zm-7.308 7.217l-.197.467-.265.647a33.537 33.537 0 0 0-.896 2.523l-.077.248.254.054.656.134a32.5 32.5 0 0 0 2.647.398l.494.054-.27-.418-.38-.601a44.525 44.525 0 0 1-1.734-3.056l-.232-.45zm14.635-.045l-.227.44-.333.632a52.46 52.46 0 0 1-1.782 3.054l-.265.42.493-.057.674-.087a32.437 32.437 0 0 0 2.67-.485l.254-.057-.08-.247-.215-.642a32.88 32.88 0 0 0-.989-2.517l-.2-.454zm-17.064-5.978l-.637.185c-.276.084-.55.174-.823.269-3.207 1.118-5.312 2.821-5.312 4.3 0 .708.502 1.521 1.41 2.3 1.02.875 2.488 1.66 4.228 2.254.293.1.59.193.89.279l.223.063.068-.22.25-.772a36.833 36.833 0 0 1 1.495-3.764v-.2l-.328-.729a36.343 36.343 0 0 1-1.395-3.744l-.069-.22zm19.488.018l-.07.222-.245.753a35.452 35.452 0 0 1-1.475 3.669l.001.203.293.626a35.581 35.581 0 0 1 1.497 3.861l.071.221.637-.194.487-.163c3.336-1.166 5.556-2.94 5.556-4.462 0-1.473-2.181-3.201-5.46-4.332a22.42 22.42 0 0 0-1.07-.339l-.222-.065zm-10.916 1.953a3.187 3.187 0 1 1 1.207 6.133 3.18 3.18 0 0 1-3.176-3.187c0-1.29.777-2.453 1.97-2.946zm5.883-2.905l.273.426.368.587c.242.392.478.788.707 1.187.354.608.693 1.223 1.02 1.845l.231.44.197-.457.254-.608c.33-.815.629-1.643.893-2.482l.077-.245-.25-.057-.627-.137c-.845-.174-1.73-.32-2.64-.436l-.503-.063zm-9.436-.004l-.502.063-.676.09a33.85 33.85 0 0 0-2.573.468l-.25.056.076.246.197.616c.274.824.588 1.657.941 2.491l.229-.089.198.104.325-.616.334-.61.342-.607c.348-.604.71-1.2 1.086-1.786l.273-.426zm12.936-8.62c-1.277-.738-3.858.292-6.475 2.575-.28.243-.555.496-.827.76l-.166.161.613.679a35.434 35.434 0 0 1 2.53 3.228l.173.1.794.081a35.92 35.92 0 0 1 3.932.668l.228.052.14-.585.077-.36c.744-3.619.334-6.577-1.02-7.36zm-9.645 2.835c-2.759-2.452-5.521-3.575-6.873-2.79-1.275.74-1.673 3.495-1.005 6.908.074.373.156.743.247 1.11l.056.225.226-.05.78-.165a36.757 36.757 0 0 1 3.938-.572l.173-.1.467-.65a36.182 36.182 0 0 1 2.542-3.084l.157-.17-.167-.161-.27-.254zm1.442 1.41l-.175.189-.43.475a34.422 34.422 0 0 0-1.697 2.076l-.305.404.506-.024.837-.032a43.955 43.955 0 0 1 3.346.032l.501.024-.3-.403-.4-.527a32.83 32.83 0 0 0-1.709-2.024l-.174-.19z"
      ></path>
  </symbol>
  <symbol viewBox="0 0 40 40" xmlns="http://www.w3.org/2000/svg" id="menu_mobile">
    <title>menu_mobile</title>
    <path d="M26.5 3.85c.91 0 1.65.74 1.65 1.65v5a.65.65 0 1 1-1.3 0v-5a.35.35 0 0 0-.35-.35h-21a.35.35 0 0 0-.35.35v29c0 .193.157.35.35.35h14a.65.65 0 1 1 0 1.3h-14c-.91 0-1.65-.74-1.65-1.65v-29c0-.91.74-1.65 1.65-1.65zm8 9c.862 0 1.572.664 1.644 1.508l.006.142v20c0 .862-.664 1.572-1.508 1.644l-.142.006h-11a1.652 1.652 0 0 1-1.644-1.508l-.006-.142v-20c0-.862.664-1.572 1.508-1.644l.142-.006h11zm0 1h-11l-.096.007a.65.65 0 0 0-.545.537l-.009.106v20l.007.096c.041.279.26.5.537.545l.106.009h11l.096-.007a.65.65 0 0 0 .545-.537l.009-.106v-20l-.007-.096a.65.65 0 0 0-.643-.554zM16 31a1 1 0 1 1 0 2 1 1 0 0 1 0-2zm13 0a1 1 0 1 1 0 2 1 1 0 0 1 0-2z"
      ></path>
  </symbol>
  <symbol viewBox="0 0 40 40" xmlns="http://www.w3.org/2000/svg" id="menu_fullstack">
    <title>menu_fullstack</title>
    <g >
      <path d="M20.499 6.194l15.486 7.743-15.486 7.742-15.486-7.743 15.486-7.742zm.001 1.228L7.465 13.937 20.5 20.452l13.034-6.515L20.5 7.422z"></path>
      <path d="M6.571 19.787h-.134l-1.426.712 15.42 7.71h.135l15.42-7.71-1.424-.712h-.134L20.499 26.75z"></path>
      <path d="M6.571 25.787h-.134l-1.426.712 15.42 7.71h.135l15.42-7.71-1.424-.712h-.134L20.499 32.75z"></path>
    </g>
  </symbol>
  <symbol viewBox="0 0 40 40" xmlns="http://www.w3.org/2000/svg" id="menu_nodejs">
    <title>menu_nodejs</title>
    <path d="M21.26 2.832c-.611-.342-1.444-.371-2.088-.089l-.17.085-13.324 7.714a2.265 2.265 0 0 0-1.119 1.774l-.007.186v15.393c0 .745.367 1.442.969 1.86l.155.098 3.475 1.987c1.14.559 1.734.738 2.39.772l.344.007h.095c2.112 0 3.305-1.19 3.385-3.384l.004-.238V13.954h-1.402v15.043c0 1.717-1.675 2.766-3.647 1.987l-.192-.081-.193-.093-3.61-2.088a.943.943 0 0 1-.498-.732l-.008-.129V12.468c0-.3.135-.608.37-.78l.106-.065 13.293-7.661c.242-.162.56-.182.857-.074l.125.055 13.295 7.664a.91.91 0 0 1 .497.725l.008.136v15.393c0 .323-.134.613-.369.781l-.107.064-13.293 7.695c-.242.162-.56.182-.862.07l-.128-.055-3.32-1.988-.101.058a8.02 8.02 0 0 1-1.04.519l-.215.08 4.052 2.408c.248.134.499.223.754.268l.192.025.195.009c.335 0 .682-.062.965-.162l.16-.065 13.325-7.714a2.265 2.265 0 0 0 1.119-1.774l.007-.185V12.502a2.27 2.27 0 0 0-.971-1.862l-.156-.099-13.316-7.709zm2.474 10.655c-3.538 0-5.525 1.407-5.525 3.756 0 2.19 1.384 3.077 5.09 3.49l.974.104c3.539.402 4.554.998 4.554 2.417 0 1.898-1.485 2.688-4.559 2.688-3.2 0-4.535-.69-5.011-2.6l-.043-.189-.037-.183h-1.435l.002.043c.08 2.491 1.725 4.038 5.83 4.185l.33.009.331.002c3.966 0 6.097-1.472 6.126-4.056 0-2.229-1.194-3.026-5.237-3.583l-.966-.128c-3.677-.501-4.415-.884-4.415-2.266 0-1.534 1.15-2.421 3.991-2.421 2.875 0 4.162.695 4.666 2.671l.015.066h1.397l-.006-.066c-.3-2.565-1.959-3.796-5.43-3.927l-.32-.009-.322-.003z"
      ></path>
  </symbol>
  <symbol viewBox="0 0 40 40" xmlns="http://www.w3.org/2000/svg" id="menu_cloud">
    <title>menu_cloud</title>
    <path d="M19.553 6c6.958 0 11.682 4.942 12.238 11.496l.007.104.011.002c3.587.412 6.927 4.035 7.176 8.197l.011.25.004.247c0 4.117-3.896 8.543-8.05 8.7l-.227.004H9.277C4.86 35 1 30.934 1 26.296c0-3.377 2.356-7.084 5.756-8.273l.082-.027.008-.14c.416-6.605 5.489-11.555 12.097-11.843l.307-.01.303-.003zm0 1.36c-6.23 0-10.67 4.42-11.297 10.047l-.027.264.26-.034c.18-.02.355-.034.528-.04l.26-.006h1.34a.68.68 0 0 1 .093 1.354l-.093.006h-1.34c-3.946 0-6.914 3.87-6.914 7.345 0 3.834 3.113 7.21 6.698 7.34l.216.004h21.446c3.51 0 6.914-3.827 6.914-7.344 0-3.664-2.742-6.747-5.656-7.297l-.13-.021v1.076a.68.68 0 0 1-.589.674l-.092.006a.681.681 0 0 1-.675-.588l-.006-.092v-1.337c0-6.369-4.157-11.357-10.936-11.357z"
      ></path>
  </symbol>
  <symbol viewBox="0 0 40 40" xmlns="http://www.w3.org/2000/svg" id="menu_reactnative">
    <title>menu_reactnative</title>
    <path d="M22.391 4c1.1 0 2.005.857 2.082 1.938l.005.149V6.5h-1.392l.001-.413a.696.696 0 0 0-.601-.69l-.095-.006H7.087a.696.696 0 0 0-.69.602l-.006.094v27.826c0 .352.262.643.602.69l.094.006h15.304a.696.696 0 0 0 .69-.602l.006-.094-.001-1.413h1.392v1.413a2.09 2.09 0 0 1-1.938 2.082l-.149.005H7.087a2.09 2.09 0 0 1-2.082-1.938L5 33.913V6.087c0-1.1.857-2.005 1.938-2.082L7.087 4h15.304zM14.74 29.043a1.391 1.391 0 1 1 0 2.783 1.391 1.391 0 0 1 0-2.783zm10.784-17.428c1.777-1.55 3.539-2.198 4.613-1.576 1.122.648 1.45 2.618.948 5.063-.031.152-.065.303-.102.454.223.064.444.134.664.21 2.227.768 3.666 1.972 3.667 3.218 0 1.297-1.54 2.566-3.902 3.351a13.19 13.19 0 0 1-.384.12c.046.188.088.372.124.553.467 2.363.107 4.305-1 4.947-1.07.621-2.801.01-4.554-1.501a13.084 13.084 0 0 1-.559-.51c-.143.14-.286.272-.43.398-1.81 1.585-3.668 2.243-4.775 1.603-1.072-.62-1.407-2.428-.978-4.705.047-.248.101-.494.162-.738a12.021 12.021 0 0 1-.558-.175c-2.274-.779-3.772-2.063-3.772-3.345 0-1.24 1.395-2.436 3.576-3.198.252-.088.507-.168.764-.24a14.458 14.458 0 0 1-.153-.685c-.452-2.318-.133-4.17.941-4.793 1.121-.65 2.988.048 4.85 1.706.118.103.233.208.344.316.168-.162.34-.32.514-.473zm4.65 11.065c-.92.208-1.853.352-2.793.432a20.82 20.82 0 0 1-1.728 2.2c.175.166.347.325.518.472 1.5 1.293 2.89 1.784 3.54 1.406.305-.177.552-.62.675-1.283.136-.738.107-1.683-.1-2.727-.032-.163-.07-.33-.112-.5zm-10.302.037c-.057.23-.107.459-.15.688-.37 1.947-.099 3.399.552 3.775.305.177.81.17 1.446-.055.707-.25 1.509-.747 2.309-1.449.134-.117.265-.238.393-.364a21.536 21.536 0 0 1-1.77-2.191 20.662 20.662 0 0 1-2.78-.404zm6.375.469a30.84 30.84 0 0 1-2.453.004c.407.537.824 1.037 1.241 1.489.43-.477.834-.975 1.212-1.493zm-1.245-7.515c-.635 0-1.264.025-1.878.071a24.908 24.908 0 0 0-1.877 3.262 24.985 24.985 0 0 0 1.887 3.268c.6.039 1.222.059 1.867.059s1.278-.024 1.89-.067c.347-.522.676-1.056.989-1.6.315-.547.61-1.105.887-1.673a29.823 29.823 0 0 0-.89-1.659 26.77 26.77 0 0 0-.993-1.59 24.81 24.81 0 0 0-1.882-.07zm-4.224 4.371a19.825 19.825 0 0 0-.668 1.825c.628.135 1.262.237 1.9.306a25.23 25.23 0 0 1-1.232-2.131zm8.463-.032a30.549 30.549 0 0 1-1.232 2.147 18.669 18.669 0 0 0 1.924-.328c-.2-.618-.43-1.225-.692-1.819zm-9.975-3.615c-.238.068-.475.142-.71.224-1.867.651-2.987 1.611-2.987 2.363 0 .354.259.791.77 1.23.57.488 1.4.936 2.406 1.28.167.057.337.11.509.16a21.59 21.59 0 0 1 1.018-2.646 21.207 21.207 0 0 1-1.006-2.61zm11.48.011a20.69 20.69 0 0 1-1.003 2.581c.407.848.756 1.723 1.044 2.619.118-.036.234-.072.346-.11 2.042-.677 3.3-1.714 3.3-2.514 0-.749-1.165-1.723-3.073-2.381a12.88 12.88 0 0 0-.614-.195zm-6.445.867a1.848 1.848 0 1 1 1.412 3.415 1.848 1.848 0 0 1-1.412-3.415zm3.71-1.415a28.781 28.781 0 0 1 1.22 2.108c.25-.582.471-1.175.662-1.779a19.405 19.405 0 0 0-1.881-.33zm-6.018-.003c-.654.082-1.281.19-1.87.322.18.579.398 1.179.655 1.788v-.001l.285-.536.298-.532c.202-.352.413-.699.632-1.04zm7.705-5.051c-.649-.375-2.072.15-3.594 1.477-.163.142-.32.287-.475.437a20.68 20.68 0 0 1 1.743 2.18c.928.084 1.85.23 2.758.437.033-.137.064-.274.093-.411.434-2.111.165-3.721-.525-4.12zm-5.614 1.627c-1.608-1.43-3.134-2.002-3.824-1.601-.648.376-.906 1.873-.517 3.86.042.214.09.426.142.637a21.447 21.447 0 0 1 2.753-.43 21.114 21.114 0 0 1 1.755-2.179c-.103-.1-.206-.195-.309-.287zm.927.918c-.413.446-.823.938-1.224 1.468a25.632 25.632 0 0 1 2.438 0c-.38-.51-.785-1-1.214-1.468z"
      ></path>
  </symbol>
  <symbol viewBox="0 0 40 40" xmlns="http://www.w3.org/2000/svg" id="menu_team">
    <title>menu_team</title>
    <path d="M20.042 23.75a6.583 6.583 0 0 1 6.579 6.352l.004.231v2.917a.75.75 0 0 1-1.493.102l-.007-.102v-2.917a5.083 5.083 0 0 0-4.868-5.079l-.215-.004H9.833a5.083 5.083 0 0 0-5.079 4.868l-.004.215v2.917a.75.75 0 0 1-1.493.102l-.007-.102v-2.917a6.583 6.583 0 0 1 6.352-6.579l.231-.004h10.209zm16.572-8.53a.75.75 0 0 1 .072.976l-.072.084-5.834 5.834a.75.75 0 0 1-.976.072l-.084-.072-2.917-2.917a.75.75 0 0 1 .977-1.133l.084.072 2.386 2.387 5.303-5.303a.75.75 0 0 1 1.06 0zM14.938 6.25a6.583 6.583 0 1 1 0 13.167 6.583 6.583 0 0 1 0-13.167zm0 1.5a5.083 5.083 0 1 0 0 10.167 5.083 5.083 0 0 0 0-10.167z"
       stroke-linecap="round" stroke-linejoin="round"></path>
  </symbol>
</svg>
