<?xml version="1.0" encoding="UTF-8"?>
<svg width="27px" height="29px" viewBox="0 0 27 29" version="1.1" xmlns="http://www.w3.org/2000/svg" xmlns:xlink="http://www.w3.org/1999/xlink">
    <!-- Generator: Sketch 59.1 (86144) - https://sketch.com -->
    <title>Opera-black</title>
    <desc>Created with Sketch.</desc>
    <g id="Page-1" stroke="none" stroke-width="1" fill="none" fill-rule="evenodd">
        <g id="Opera-black" transform="translate(1.000000, 1.000000)" fill="#AFAFAF" stroke="#AFAFAF">
            <path d="M12.56,0.26 C15.83,0.26 18.66,1.5 21.05,3.98 C23.45,6.47 24.64,9.56 24.64,13.27 C24.64,17.09 23.44,20.27 21.03,22.79 C18.61,25.31 15.69,26.58 12.27,26.58 C8.8,26.58 5.89,25.34 3.54,22.88 C1.18,20.42 0,17.24 0,13.33 C0,9.33 1.36,6.07 4.08,3.55 C6.45,1.36 9.27,0.26 12.56,0.26 Z M12.21,1.62 C9.96,1.62 8.15,2.45 6.79,4.12 C5.1,6.2 4.25,9.25 4.25,13.25 C4.25,17.36 5.13,20.52 6.89,22.73 C8.23,24.42 10.02,25.26 12.23,25.26 C14.59,25.26 16.54,24.34 18.08,22.49 C19.62,20.65 20.39,17.74 20.39,13.77 C20.39,9.47 19.55,6.26 17.85,4.14 C16.49,2.46 14.61,1.62 12.21,1.62 Z" id="O"></path>
        </g>
    </g>
</svg>