<svg xmlns="http://www.w3.org/2000/svg" viewBox="0 0 27 29" width="27" height="29">
	<style>
		tspan { white-space:pre }
		.shp0 { fill: #3a3a3a;stroke: #3a3a3a } 
	</style>
	<path id="O" fill-rule="evenodd" class="shp0" d="M13.56 1.26C16.83 1.26 19.66 2.5 22.05 4.98C24.45 7.47 25.64 10.56 25.64 14.27C25.64 18.09 24.44 21.27 22.03 23.79C19.61 26.31 16.69 27.58 13.27 27.58C9.8 27.58 6.89 26.34 4.54 23.88C2.18 21.42 1 18.24 1 14.33C1 10.33 2.36 7.07 5.08 4.55C7.45 2.36 10.27 1.26 13.56 1.26ZM13.21 2.62C10.96 2.62 9.15 3.45 7.79 5.12C6.1 7.2 5.25 10.25 5.25 14.25C5.25 18.36 6.13 21.52 7.89 23.73C9.23 25.42 11.02 26.26 13.23 26.26C15.59 26.26 17.54 25.34 19.08 23.49C20.62 21.65 21.39 18.74 21.39 14.77C21.39 10.47 20.55 7.26 18.85 5.14C17.49 3.46 15.61 2.62 13.21 2.62Z" />
</svg>