<?xml version="1.0" encoding="UTF-8"?>
<svg  viewBox="0 0 27 27" version="1.1" xmlns="http://www.w3.org/2000/svg" xmlns:xlink="http://www.w3.org/1999/xlink">
    <!-- Generator: Sketch 49 (51002) - http://www.bohemiancoding.com/sketch -->
    <title>Group 10 Copy 6</title>
    <desc>Created with Sketch.</desc>
    <defs></defs>
    <g id="Page-1" stroke="none" stroke-width="1" fill="none" fill-rule="evenodd">
        <g id="Intuz-packages-v1-as-per-changes-Copy" transform="translate(-762.000000, -1125.000000)">
            <g id="Group-10-Copy-6" transform="translate(762.000000, 1125.000000)">
                <circle id="Oval-18" fill="#D6D6D6" cx="13.5" cy="13.5" r="13.5"></circle>
                <path d="M15.6350561,13.5002611 L18.6839613,9.84090478 C19.1053462,9.41951486 19.1053462,8.73704073 18.6839613,8.31565081 C18.2630986,7.89478306 17.5801104,7.89478306 17.1592476,8.31565081 L13.4999347,11.3651144 L9.84114401,8.31617298 C9.41975909,7.89478306 8.7367709,7.89478306 8.31590815,8.31617298 C8.10547677,8.52660685 8,8.80231178 8,9.07853888 C8,9.35424381 8.10547677,9.6304709 8.31590815,9.84090478 L11.3648134,13.4997389 L8.31590815,17.1590952 C8.10547677,17.3695291 8,17.6457562 8,17.9214611 C8,18.1976882 8.10547677,18.4733931 8.31590815,18.6843492 C8.7367709,19.1052169 9.41975909,19.1052169 9.84062185,18.6843492 L13.4999347,15.6348856 L17.1592476,18.683827 C17.5801104,19.1052169 18.2630986,19.1052169 18.6839613,18.6843492 C19.1053462,18.2629593 19.1053462,17.5804851 18.6839613,17.1590952 L15.6350561,13.5002611 Z" id="Fill-86-Copy-5" fill="#FFFFFF"></path>
            </g>
        </g>
    </g>
</svg>