<svg width="0" height="0" class="hidden">
  <symbol viewBox="0 0 110 110" xmlns="http://www.w3.org/2000/svg" id="consulting_icon">
    <title>consulting_icon</title>
    <g fill="none">
      <path d="M44 54.17a6.165 6.165 0 1 1 0 12.33c-3.4 0-6.17-2.76-6.17-6.17 0-3.4 2.77-6.16 6.17-6.16zM35 79v-3.5c0-2.76 2.24-5 5-5h8.75c2.76 0 5 2.24 5 5V79" ></path>
      <path fill="#7E8890" d="M60.25 62H73v.92H60.25zm0 10H73v.92H60.25zm0-5H73v.92H60.25z"></path>
      <path d="M24 79.25V43.37c0-1.1.9-2.37 2-2.37l25.92-.001v5.751c0 1.1.39 2.31 1.5 2.31h5.352c1.189 0 1.477 7 2.866 7 1.157 0 3.617-7 5.381-7H87.12v30.19m-67.04.65h69.75c1.11 0 2 .83 2 1.93v3.84c0 1.1-10.89.41-12 .41H30.08c-1.1 0-12 .69-12-.41v-3.84c0-1.1.9-1.93 2-1.93z"
        ></path>
      <g >
        <path d="M53.42 23.92h37c1.1 0 1.56 1.64 1.56 2.75v20.08c0 1.1-.46 2.31-1.56 2.31h-23.4c-1.765 0-4.225 7-5.382 7-1.389 0-1.677-7-2.866-7H53.42c-1.11 0-1.5-1.21-1.5-2.31V26.67c0-1.11.39-2.75 1.5-2.75z"></path>
        <path d="M62 34.5c1.01 0 1.83.82 1.83 1.83 0 1.02-.82 1.84-1.83 1.84-1.01 0-1.83-.82-1.83-1.84 0-1.01.82-1.83 1.83-1.83zm10 0c1.01 0 1.83.82 1.83 1.83 0 1.02-.82 1.84-1.83 1.84-1.01 0-1.83-.82-1.83-1.84 0-1.01.82-1.83 1.83-1.83zm10 0c1.01 0 1.83.82 1.83 1.83 0 1.02-.82 1.84-1.83 1.84-1.01 0-1.83-.82-1.83-1.84 0-1.01.82-1.83 1.83-1.83z"></path>
      </g>
    </g>
  </symbol>
  <symbol viewBox="0 0 110 110" xmlns="http://www.w3.org/2000/svg" id="diverse_ideas_icon">
    <title>diverse_ideas_icon</title>
    <g fill="none">
      <path d="M55.799 25.26c0 .61-.503 1.112-1.112 1.112-.608 0-1.1-.503-1.1-1.111v-4.283c0-.609.492-1.1 1.1-1.1.609 0 1.112.491 1.112 1.1v4.283zm12.44 3.92a1.096 1.096 0 0 1-1.499.41 1.096 1.096 0 0 1-.41-1.497l2.142-3.71a1.106 1.106 0 0 1 1.498-.41c.527.305.714.983.41 1.51l-2.142 3.698zm-25.195-1.087a1.092 1.092 0 0 1-.398 1.497 1.11 1.11 0 0 1-1.51-.41l-2.13-3.697a1.09 1.09 0 0 1 .398-1.498 1.106 1.106 0 0 1 1.51.398l2.13 3.71zm-9.62 8.811c.527.305.703.983.398 1.51a1.09 1.09 0 0 1-1.498.398l-3.697-2.142a1.093 1.093 0 0 1-.41-1.498 1.09 1.09 0 0 1 1.498-.398l3.71 2.13zm43.626 1.908a1.092 1.092 0 0 1-1.498-.398 1.11 1.11 0 0 1 .41-1.51l3.698-2.141a1.12 1.12 0 0 1 1.51.41c.292.526.116 1.205-.41 1.497l-3.71 2.142z"
        fill="#898989"></path>
      <path d="M53.646 70.922c0 .609-.492 1.1-1.1 1.1a1.096 1.096 0 0 1-1.089-1.1c-.011-4.657-.14-8.133-.784-11.35-.632-3.172-1.778-6.12-3.791-9.76a1.107 1.107 0 0 1 .421-1.498 1.098 1.098 0 0 1 1.498.433c2.142 3.862 3.359 6.998 4.037 10.403.667 3.347.808 6.951.808 11.772zm4.283 0c0 .609-.492 1.1-1.1 1.1-.609 0-1.1-.491-1.1-1.1.011-4.82.152-8.413.819-11.772.679-3.405 1.884-6.541 4.025-10.403a1.097 1.097 0 1 1 1.92 1.065c-2.013 3.64-3.148 6.588-3.78 9.76-.644 3.217-.784 6.693-.784 11.35zM47.514 50.327a1.102 1.102 0 0 1-.714-1.393c.176-.573.796-.89 1.38-.702.773.246 1.429.573 2.049.89l.058.023c.96.491 1.756.866 2.352.386l1.358-1.112a1.097 1.097 0 0 1 1.544.164c.387.468.316 1.17-.152 1.545l-1.357 1.111c-1.697 1.37-3.078.702-4.751-.128l-.047-.024c-.538-.269-1.123-.561-1.72-.76zm13.691-2.095a1.098 1.098 0 0 1 1.381.702 1.102 1.102 0 0 1-.714 1.393c-.608.199-1.182.491-1.732.76l-.046.024c-1.662.83-3.055 1.51-4.74.128l-1.357-1.111a1.108 1.108 0 0 1-.164-1.545 1.122 1.122 0 0 1 1.556-.164l1.358 1.112c.585.48 1.38.105 2.34-.375l.07-.035c.609-.316 1.276-.643 2.048-.89z"
         stroke-width=".585" fill="#898989"></path>
      <path d="M68.59 37.045c3.545 3.557 5.757 8.472 5.757 13.902a19.91 19.91 0 0 1-.971 6.097 19.634 19.634 0 0 1-2.809 5.488c-2.036 2.773-3.674 4.587-4.95 6.003-2.305 2.54-3.312 3.663-3.312 7.372 0 .62-.491 1.112-1.1 1.112H48.274a1.111 1.111 0 0 1-1.111-1.112c0-3.674-1.018-4.797-3.312-7.302-1.287-1.416-2.949-3.23-5.032-6.073a19.543 19.543 0 0 1-2.808-5.5 19.433 19.433 0 0 1-.972-6.085c0-2.657.539-5.196 1.498-7.513l.024-.047a19.584 19.584 0 0 1 4.236-6.342 19.787 19.787 0 0 1 6.39-4.26 19.603 19.603 0 0 1 7.512-1.498c2.645 0 5.184.539 7.501 1.498a19.662 19.662 0 0 1 6.39 4.26z"
         stroke-width="1.17"></path>
      <path d="M48.274 81.805a1.109 1.109 0 0 1-1.111-1.1 1.11 1.11 0 0 1 1.111-1.111h12.838c.608 0 1.1.503 1.1 1.111 0 .609-.492 1.1-1.1 1.1H48.274zm1.428 4.389a1.119 1.119 0 0 1-1.112-1.112c0-.609.504-1.1 1.112-1.1h9.982c.609 0 1.1.491 1.1 1.1 0 .608-.491 1.112-1.1 1.112h-9.982zm1.428 4.376c-.62 0-1.112-.491-1.112-1.1 0-.608.492-1.111 1.112-1.111h7.126c.609 0 1.1.503 1.1 1.111 0 .609-.491 1.1-1.1 1.1H51.13z"
         stroke-width="1.17"></path>
    </g>
  </symbol>
  <symbol viewBox="0 0 110 110" xmlns="http://www.w3.org/2000/svg" id="experience_icon">
    <title>experience_icon</title>
    <g  stroke-width="1.067" fill="none">
      <path d="M45.933 29H63v6.4H45.933z"></path>
      <path d="M52.813 67.205h4.491v-8.64h37.28v25.558H15.32V58.565h37.493v8.64zm4.491-16.938h-4.49l-.001 8.22-.528.005-4.274.047-32.691-.152V34.859h79.264v23.53H61.907l-4.603.05v-8.172z"></path>
    </g>
  </symbol>
  <symbol viewBox="0 0 110 110" xmlns="http://www.w3.org/2000/svg" id="fastgrowth_icon">
    <title>fastgrowth_icon</title>
    <g fill="#898989">
      <path d="M77.04 39.41c-3.92 0-7.11 3.18-7.11 7.1 0 3.92 3.19 7.11 7.11 7.11 3.92 0 7.11-3.19 7.11-7.11 0-3.92-3.19-7.1-7.11-7.1zm0 13.11c-3.31 0-6.01-2.69-6.01-6.01 0-3.31 2.7-6 6.01-6a6.005 6.005 0 0 1 0 12.01zm-7.77 5.59c-3.07 0-5.57 2.5-5.57 5.57 0 3.08 2.5 5.58 5.57 5.58 3.08 0 5.58-2.5 5.58-5.58 0-3.07-2.5-5.57-5.58-5.57zm0 10.04c-2.46 0-4.47-2-4.47-4.47 0-2.46 2.01-4.47 4.47-4.47 2.47 0 4.47 2.01 4.47 4.47 0 2.47-2 4.47-4.47 4.47zm-15.15 5.93c-2.44 0-4.43 1.98-4.43 4.43a4.43 4.43 0 0 0 4.43 4.42c2.44 0 4.42-1.98 4.42-4.42 0-2.45-1.98-4.43-4.42-4.43zm0 7.75a3.325 3.325 0 0 1 0-6.65 3.325 3.325 0 1 1 0 6.65z"
         stroke-width=".5"></path>
      <path d="M78.1 33.41c0 1.71-.09 3.4-.25 5.07.37.04.73.11 1.09.2.17-1.74.26-3.49.26-5.27V31.3h4.96l-5.51-9.52-5.51 9.52h4.96v2.11zm.55-9.43l3.6 6.22h-7.2l3.6-6.22zm-3.64 30.34c-.36-.09-.71-.2-1.05-.34a54.69 54.69 0 0 1-1.62 3.47c.33.16.65.35.95.56.61-1.21 1.19-2.43 1.72-3.69zm-9.56 15.17c-.31-.21-.6-.44-.87-.69a52.005 52.005 0 0 1-5.8 5.6c.25.28.47.58.66.9a55.9 55.9 0 0 0 6.01-5.81zM34.31 86.92c5.19-.92 10.13-2.58 14.71-4.86-.21-.3-.39-.62-.55-.96a52.828 52.828 0 0 1-23.6 5.54c-.71 0-1.42-.01-2.12-.04l-.01.32h-.01v.23l-.02.55h.02v.32h64.6v-1.1H34.31z"></path>
    </g>
  </symbol>
  <symbol viewBox="0 0 110 110" xmlns="http://www.w3.org/2000/svg" id="motivation_icon">
    <title>motivation_icon</title>
    <path d="M21.524 82.454l19.373-54.878L59.85 65.315c.401.442.916.72 1.564.772.69.062 1.266-.113 1.71-.525l9.12-13.938 17.345 30.48-68.837.35h.773z"  stroke-width="1.029" fill="none"></path>
  </symbol>
  <symbol viewBox="0 0 110 110" xmlns="http://www.w3.org/2000/svg" id="protection_icon">
    <title>protection_icon</title>
    <g fill="none">
      <path d="M63.324 76.42a27.159 27.159 0 0 1-11.668 5.165c3.375-1.986 6.239-6.017 8.165-11.258a8.641 8.641 0 0 1-.23-1.935v-.256c-.051.18-.102.358-.162.529-3.716-1.645-7.832-2.531-12.12-2.6v-10.78h12.282v-.947H47.31v-10.79c4.287-.06 8.403-.954 12.128-2.59.758 2.386 1.32 5.002 1.67 7.78.315-.008.63-.016.946-.033-.358-2.907-.963-5.642-1.773-8.131a28.545 28.545 0 0 0 6.46-4.279 27.112 27.112 0 0 1 5.532 8.89c.272-.188.537-.375.8-.571-4.099-10.5-14.309-17.958-26.24-17.958-15.52 0-28.151 12.63-28.151 28.15 0 15.53 12.63 28.16 28.15 28.16a27.988 27.988 0 0 0 17.148-5.847c-.23-.23-.443-.46-.656-.699zm2.812-40.772c-1.85 1.628-3.92 3-6.145 4.082-1.926-5.463-4.866-9.648-8.335-11.693a27.243 27.243 0 0 1 14.48 7.61zM47.31 27.619c4.96.299 9.315 5.208 11.838 12.495-3.622 1.61-7.645 2.488-11.838 2.548V27.619zm-5.293.418c-3.477 2.037-6.409 6.23-8.344 11.693a27.482 27.482 0 0 1-6.136-4.082 27.181 27.181 0 0 1 14.48-7.611zm-15.094 8.25a27.856 27.856 0 0 0 6.469 4.278c-1.321 4.057-2.097 8.753-2.148 13.773H19.636c.12-6.963 2.864-13.295 7.287-18.051zm0 37.04c-4.423-4.756-7.167-11.088-7.287-18.043h11.608c.051 5.011.827 9.707 2.148 13.764a28.13 28.13 0 0 0-6.469 4.279zm.614.639a27.448 27.448 0 0 1 6.136-4.074c1.935 5.463 4.867 9.648 8.344 11.693a27.193 27.193 0 0 1-14.48-7.62zm18.827 8.028c-4.97-.29-9.316-5.199-11.847-12.485 3.63-1.611 7.653-2.49 11.847-2.557v15.042zm0-15.929c-4.296.069-8.412.955-12.128 2.6-1.262-3.938-1.995-8.506-2.046-13.38h14.174v10.78zm0-11.727H32.19c.051-4.883.784-9.452 2.046-13.38 3.716 1.636 7.832 2.53 12.128 2.59v10.79zm0-11.676c-4.194-.06-8.216-.938-11.847-2.548 2.531-7.287 6.878-12.196 11.847-12.495v15.043zm.946 24.29c4.193.068 8.207.946 11.838 2.557-2.532 7.286-6.878 12.196-11.838 12.485V66.952z"
        fill="#898989"></path>
      <path d="M92.114 50.375c-.205.017-.41.026-.623.026-5.497 0-10.542-2.549-13.84-6.99l-.358-.476-.35.477c-3.298 4.44-8.344 6.989-13.84 6.989-.214 0-.418-.009-.623-.026l-.767-.043v17.31c0 8.557 14.77 15.264 15.4 15.546l.18.085.187-.085c.622-.282 15.4-6.99 15.4-15.546v-17.31l-.766.043zm-.12 17.267c0 7.5-12.997 13.858-14.701 14.66-1.696-.802-14.694-7.16-14.694-14.66V51.27c.162.008.333.017.503.017 5.583 0 10.722-2.497 14.19-6.886 3.47 4.389 8.609 6.886 14.2 6.886.17 0 .34-.009.502-.017v16.372zm-16.33.418l-4.533-4.543-.631.63 5.165 5.165 9.767-9.767-.622-.63-9.145 9.145z"
         stroke-width=".682"></path>
    </g>
  </symbol>
  <symbol viewBox="0 0 110 110" xmlns="http://www.w3.org/2000/svg" id="provenit_icon">
    <title>provenit_icon</title>
    <g fill="none">
      <path d="M54.85 78.63l-6.93-6.71-9.56 1.35-1.66-9.5-8.53-4.52 4.24-8.67-4.24-8.67 8.53-4.52 1.66-9.51 9.56 1.36 6.93-6.71 6.94 6.71 9.55-1.36 1.67 9.51 8.52 4.52-4.24 8.67 4.24 8.67-8.52 4.52-1.67 9.5-9.55-1.35-6.94 6.71zm-6.56-7.86l6.56 6.34 6.56-6.34 9.04 1.27 1.57-8.99 8.07-4.27-4.01-8.2 4.01-8.2-8.07-4.28-1.57-8.99-9.04 1.28-6.56-6.34-6.56 6.34-9.03-1.28-1.58 8.99-8.06 4.28 4.01 8.2-4.01 8.2 8.06 4.27 1.58 8.99 9.03-1.27zm-.92.68l-9.22 14.72-1.76-6.92-7 1.44 8.46-13.51-.28-1.61-10.46 16.71 8.48-1.75 2.13 8.39 10.77-17.21-.38-.37-.74.11zm24.87-6.44l-.29 1.61 8.81 14.07-7-1.44L72 86.17l-9.17-14.65-1.23-.18-.1.1 10.93 17.48 2.13-8.39 8.48 1.75-10.8-17.27z"
        fill="#898989"></path>
      <path d="M49.74 48.56c0-.51-.42-.94-.94-.94h-4.23c-.52 0-.94.43-.94.94v9.41c0 .52.42.94.94.94h4.23c.52 0 .94-.42.94-.94v-9.41zm17.41 0c0-1.53-1.29-2.82-2.82-2.82h-4.07c.11-.47.26-.62.42-.94.4-.77.82-1.62.82-2.82 0-1.14 0-3.77-3.29-3.77-.25 0-.48.1-.66.28-.63.62-.81 1.53-.97 2.4-.18.85-.34 1.73-.91 2.31-.46.45-.96 1.08-1.49 1.76-.64.85-2.06 2.6-2.6 2.65-.49.04-.9.45-.9.94v9.42c0 .52.44.93.94.94.52.02 1.4.33 2.33.65 1.59.55 3.57 1.24 5.67 1.24h1.9c1.29-.02 2.26-.4 2.9-1.15.56-.66.81-1.56.72-2.66.36-.35.64-.84.79-1.38.16-.59.16-1.18 0-1.72.44-.59.66-1.28.63-2.02 0-.2-.06-.65-.22-1.12.5-.57.81-1.41.81-2.19z"
        ></path>
    </g>
  </symbol>
  <symbol viewBox="0 0 110 110" xmlns="http://www.w3.org/2000/svg" id="success_icon">
    <title>success_icon</title>
    <g fill="none">
      <g fill="#898989">
        <path d="M31.92 43.53v10.45h-1.06V43.53zm41.86-5.79l4.57 10.38-1.07.63-4.57-10.5z"></path>
        <path  stroke-width=".5" d="M68.1 68.79l7.92-10.18 1.13.81-8.05 10.3z"></path>
        <path d="M35.45 63.14l16.47 8.6v1.06l-16.47-8.6zm30.5 4.88l1.04-29.04 1.05.02-1.17 29.03z"></path>
        <path  stroke-width=".5" d="M39.25 41.43l17.31 26.79-1.27.62-17.31-26.78z"></path>
        <path d="M43.25 31.94h19.87V33H43.25z"></path>
      </g>
      <path d="M30 54.5c3.18 0 5.75 2.57 5.75 5.75S33.18 66 30 66s-5.75-2.57-5.75-5.75S26.82 54.5 30 54.5zm32 12.75c5.523 0 10 4.477 10 10s-4.477 10-10 10-10-4.477-10-10 4.477-10 10-10zM81 48.5c3.18 0 5.75 2.57 5.75 5.75S84.18 60 81 60s-5.75-2.57-5.75-5.75S77.82 48.5 81 48.5zm-11-22c3.18 0 5.75 2.57 5.75 5.75S73.18 38 70 38s-5.75-2.57-5.75-5.75S66.82 26.5 70 26.5zm-37-2.75c5.25 0 9.5 4.25 9.5 9.5s-4.25 9.5-9.5 9.5-9.5-4.25-9.5-9.5 4.25-9.5 9.5-9.5z"
        ></path>
    </g>
  </symbol>
  <symbol viewBox="0 0 110 110" xmlns="http://www.w3.org/2000/svg" id="usability_iocn">
    <title>usability_iocn</title>
    <g fill="none">
      <path d="M47.96 89.28s1.5-8.23-4.11-11.96c0 0-9.57 1.42-12.14-2.13 0 0-.99-3.17 1.18-3.36 0 0 1.19-2.57-2.37-3.56 0 0-1.78-3.36 1.19-3.95 0 0-2.77-.99-1.78-3.36 0 0 2.76-3.95 1.18-4.15 0 0-6.52-.59-3.75-3.75 0 0 3.16-7.11 5.53-8.3 0 0-.2-3.35-.79-5.53 0 0-1.18-14.61 16.4-19.55 0 0 23.51-6.13 33 11.65 0 0 5.53 8.5.98 23.31 0 0-3.36 10.67-10.27 14.22 0 0-2.17 7.91 1.19 16l.98 3.36s-18.32 6.59-26.42 1.06z"
        ></path>
      <path d="M49.67 30.69v2.1l.65.17c.73.18 1.42.48 2.07.87l.57.35.48-.48 1.03-1.02 1.82 1.82-1.06 1.06-.46.47.33.57c.36.63.63 1.32.8 2.04l.16.66h2.22v2.58h-2.27l-.17.63a7.6 7.6 0 0 1-.84 1.94l-.35.58.48.48 1.16 1.16-1.82 1.83-1.2-1.2-.47-.46-.57.32c-.59.34-1.24.6-1.91.78l-.65.16v2.39h-2.58V48.1l-.65-.16c-.67-.18-1.32-.44-1.91-.78l-.57-.32-.47.46-1.2 1.2-1.82-1.83 1.16-1.16.48-.48-.35-.58a7.6 7.6 0 0 1-.84-1.94l-.17-.63h-2.27V39.3h2.22l.16-.66c.17-.72.44-1.41.8-2.04l.33-.57-.46-.47-1.06-1.06 1.82-1.82 1.03 1.02.47.48.58-.35c.65-.39 1.34-.69 2.07-.87l.65-.17v-2.1h2.58m-1.29 13.77c2.14 0 3.87-1.73 3.87-3.87s-1.73-3.87-3.87-3.87-3.87 1.73-3.87 3.87 1.73 3.87 3.87 3.87m2.15-14.63h-4.3v2.29c-.82.21-1.6.54-2.3.97l-1.64-1.63-3.04 3.04 1.67 1.67c-.4.7-.71 1.46-.9 2.27h-2.4v4.3h2.47c.21.77.53 1.49.93 2.16l-1.77 1.77 3.04 3.05 1.81-1.81c.66.38 1.37.67 2.13.86v2.58h4.3v-2.58a8.42 8.42 0 0 0 2.13-.86l1.81 1.81 3.04-3.05-1.78-1.77c.41-.67.73-1.39.94-2.16h2.47v-4.3h-2.4c-.19-.81-.5-1.57-.9-2.27l1.67-1.67-3.04-3.04-1.64 1.63c-.7-.43-1.48-.76-2.3-.97v-2.29zM48.38 43.6c-1.66 0-3.01-1.35-3.01-3.01 0-1.66 1.35-3.01 3.01-3.01 1.66 0 3.01 1.35 3.01 3.01 0 1.66-1.35 3.01-3.01 3.01zm22.5.81v1.83l.56.14c.63.17 1.24.42 1.8.76l.5.31.42-.42.89-.89 1.58 1.59-.92.92-.4.4.28.5c.32.55.56 1.15.71 1.77l.13.58h1.93v2.24h-1.97l-.15.55c-.17.59-.41 1.16-.73 1.69l-.31.5.42.41 1.01 1.02-1.58 1.58L74 58.85l-.4-.4-.5.28c-.51.3-1.07.52-1.66.68l-.56.14v2.07h-2.25v-2.07l-.56-.14c-.59-.16-1.15-.38-1.66-.68l-.5-.28-.4.4-1.05 1.04-1.58-1.58 1.01-1.02.42-.41-.31-.5c-.32-.53-.56-1.1-.73-1.69l-.15-.55h-1.97V51.9h1.93l.13-.58c.15-.62.39-1.22.71-1.77l.28-.5-.4-.4-.92-.92 1.58-1.59.89.89.42.42.5-.31c.56-.34 1.17-.59 1.8-.76l.56-.14v-1.83h2.25m-1.12 11.98a3.37 3.37 0 1 0 0-6.74c-1.86 0-3.37 1.51-3.37 3.37 0 1.85 1.51 3.37 3.37 3.37m1.87-12.72h-3.75v1.99c-.71.18-1.38.47-2 .84l-1.42-1.42-2.64 2.65 1.45 1.45c-.35.6-.61 1.27-.78 1.97H60.4v3.74h2.15c.19.67.46 1.3.81 1.88l-1.54 1.54 2.64 2.64 1.58-1.57c.57.33 1.19.58 1.84.75v2.24h3.75v-2.24c.65-.17 1.27-.42 1.84-.75l1.58 1.57 2.64-2.64-1.54-1.54c.35-.58.62-1.21.81-1.88h2.15v-3.74h-2.09c-.17-.7-.43-1.37-.78-1.97l1.45-1.45-2.64-2.65-1.42 1.42c-.62-.37-1.29-.66-2-.84v-1.99zm-1.87 11.97c-1.45 0-2.62-1.18-2.62-2.62a2.616 2.616 0 1 1 5.23 0 2.62 2.62 0 0 1-2.61 2.62z"
        fill="#898989"></path>
    </g>
  </symbol>
  <symbol viewBox="0 0 110 110" xmlns="http://www.w3.org/2000/svg" id="weget_it_icon">
    <title>weget_it_icon</title>
    <g fill="none">
      <path d="M18.88 62.96h19.18c.55 0 1 .45 1 1v22.15c0 .55-.45 1-1 1H18.88c-.55 0-1-.45-1-1V63.96c0-.55.45-1 1-1z" ></path>
      <path d="M44.88 46.98h19.24c.55 0 1 .45 1 1v38.04c0 .56-.45 1-1 1H44.88c-.55 0-1-.44-1-1V47.98c0-.55.45-1 1-1zm27.08 9.1h19.1c.55 0 1 .45 1 1v28.97c0 .56-.45 1-1 1h-19.1c-.55 0-1-.44-1-1V57.08c0-.55.45-1 1-1z" ></path>
      <path d="M32.92 68.33h1v14.42h-1zm25 7.79h1v6.13h-1zm0-18.09h1v14.65h-1zm27 8.87h1v14.35h-1z" fill="#898989"></path>
      <path d="M36 45.807c0 .135-.086.288-.258.457l-3.48 3.335.827 4.724v.203a.515.515 0 0 1-.103.322.36.36 0 0 1-.284.144.716.716 0 0 1-.388-.11l-4.323-2.235-4.305 2.234a.798.798 0 0 1-.396.119.333.333 0 0 1-.293-.152.564.564 0 0 1-.104-.322c0-.045.006-.113.018-.203l.826-4.724-3.496-3.335c-.16-.17-.241-.322-.241-.457 0-.237.178-.384.534-.44l4.822-.677 2.17-4.3c.127-.26.282-.39.465-.39.184 0 .345.13.483.39l2.152 4.3 4.823.677c.367.056.551.203.551.44zm27-14c0 .135-.086.288-.258.457l-3.48 3.335.827 4.724v.203a.515.515 0 0 1-.103.322.36.36 0 0 1-.284.144.716.716 0 0 1-.388-.11l-4.323-2.235-4.305 2.234a.798.798 0 0 1-.396.119.333.333 0 0 1-.293-.152.564.564 0 0 1-.104-.322c0-.045.006-.113.018-.203l.826-4.724-3.496-3.335c-.16-.17-.241-.322-.241-.457 0-.237.178-.384.534-.44l4.822-.677 2.17-4.3c.127-.26.282-.39.465-.39.184 0 .345.13.483.39l2.152 4.3 4.823.677c.367.056.551.203.551.44zm27 10c0 .135-.086.288-.258.457l-3.48 3.335.827 4.724v.203a.515.515 0 0 1-.103.322.36.36 0 0 1-.284.144.716.716 0 0 1-.388-.11l-4.323-2.235-4.305 2.234a.798.798 0 0 1-.396.119.333.333 0 0 1-.293-.152.564.564 0 0 1-.104-.322c0-.045.006-.113.018-.203l.826-4.724-3.496-3.335c-.16-.17-.241-.322-.241-.457 0-.237.178-.384.534-.44l4.822-.677 2.17-4.3c.127-.26.282-.39.465-.39.184 0 .345.13.483.39l2.152 4.3 4.823.677c.367.056.551.203.551.44z"
        ></path>
    </g>
  </symbol>
</svg>