<svg width="0" height="0" class="hidden">
  <symbol viewBox="0 0 90 186" xmlns="http://www.w3.org/2000/svg" id="blogger">
    <title>blogger</title>
    <g fill="none">
      <circle fill="#F58220" cx="45" cy="45" r="45"></circle>
      <circle fill="#696969" cx="45" cy="141" r="45"></circle>
      <path d="M53.269 152.203H35.721c-1.647 0-3.109-1.28-3.109-2.927 0-1.64 1.462-2.92 3.109-2.92h17.548c1.647 0 2.928 1.28 2.928 2.92a2.89 2.89 0 0 1-2.928 2.927zM35.721 128.62h8.591a2.888 2.888 0 0 1 2.924 2.92c0 1.647-1.28 2.928-2.924 2.928h-8.595c-1.646 0-3.108-1.28-3.108-2.927.003-1.64 1.465-2.921 3.112-2.921zm33.095 7.68l-.366-.916-.734-.55c-.916-.55-5.483.184-6.764-.916-.728-.915-.916-2.377-1.281-4.205-.359-3.836-.728-4.024-1.274-5.302-2.197-4.574-8.045-8.041-12.07-8.41H35.54C26.945 116 20 122.945 20 131.359v18.101c0 8.595 6.948 15.54 15.54 15.54h17.732c8.595 0 15.547-6.945 15.547-15.54L69 139.22v-2.197l-.184-.724zM53.269 56.203H35.721c-1.647 0-3.109-1.28-3.109-2.927 0-1.64 1.462-2.92 3.109-2.92h17.548c1.647 0 2.928 1.28 2.928 2.92a2.89 2.89 0 0 1-2.928 2.927zM35.721 32.616h8.595c1.64 0 2.92 1.28 2.92 2.92 0 1.647-1.28 2.928-2.92 2.928H35.72c-1.647 0-3.109-1.281-3.109-2.928 0-1.64 1.462-2.92 3.109-2.92zm33.095 7.682l-.366-.915-.734-.55c-.916-.55-5.483.184-6.764-.916-.728-.915-.916-2.377-1.281-4.205-.359-3.836-.728-4.024-1.274-5.302-2.197-4.574-8.045-8.041-12.07-8.41H35.54C26.945 20 20 26.945 20 35.359V53.46C20 62.055 26.945 69 35.54 69h17.732c8.595 0 15.547-6.945 15.547-15.54L69 43.22v-2.197l-.184-.724z"
        fill="#FEFEFE"></path>
    </g>
  </symbol>
  <symbol viewBox="0 0 90 186" xmlns="http://www.w3.org/2000/svg" id="facebook">
    <title>facebook</title>
    <g fill="none">
      <circle fill="#3B5998" cx="44.5" cy="44.5" r="44.5"></circle>
      <path d="M57.687 47.242h-7.935v29.093H37.716V47.242h-5.72V37.021h5.72v-6.617c0-4.73 2.246-12.138 12.139-12.138l8.913.038v9.923h-6.47c-1.06 0-2.553.53-2.553 2.787v6.014h8.992l-1.05 10.214z" fill="#FFF"></path>
      <g transform="translate(0 96)">
        <ellipse fill="#696969" cx="45" cy="44.85" rx="45" ry="44.778"></ellipse>
        <path d="M56.312 46.603h-8.024v29.271h-12.17v-29.27h-5.785V36.317h5.785v-6.661c0-4.757 2.27-12.21 12.274-12.21l9.014.037v9.979h-6.542c-1.073 0-2.582.533-2.582 2.803v6.056h9.093l-1.063 10.281z" fill="#FFF"></path>
      </g>
    </g>
  </symbol>
  <symbol viewBox="0 0 90 186" xmlns="http://www.w3.org/2000/svg" id="google+">
    <title>google+</title>
    <g fill="none">
      <path d="M0 45C0 20.147 20.071 0 44.83 0c24.759 0 44.83 20.147 44.83 45S69.589 90 44.83 90C20.071 90 0 69.853 0 45z" fill="#DC4E41"></path>
      <path d="M31.865 44.011v6.527h10.13c-.408 2.802-3.062 8.214-10.13 8.214-6.098 0-11.074-5.385-11.074-12.021 0-6.636 4.976-12.022 11.074-12.022 3.47 0 5.792 1.578 7.12 2.938l4.847-4.977c-3.113-3.101-7.144-4.978-11.967-4.978-9.875 0-17.862 8.513-17.862 19.039 0 10.525 7.987 19.038 17.862 19.038 10.309 0 17.147-7.724 17.147-18.603 0-1.251-.127-2.203-.28-3.155H31.865zm45.155-.165h-5.836v-5.77H65.35v5.77h-5.835v5.77h5.835v5.769h5.834v-5.77h5.835"
        fill="#FFF"></path>
      <path d="M0 141c0-24.853 20.071-45 44.83-45 24.759 0 44.83 20.147 44.83 45s-20.071 45-44.83 45C20.071 186 0 165.853 0 141z" fill="#696969"></path>
      <path d="M31.865 146.538h10.13c-.408 2.802-3.062 8.214-10.13 8.214-6.098 0-11.074-5.385-11.074-12.021 0-6.636 4.976-12.022 11.074-12.022 3.47 0 5.792 1.578 7.12 2.938l4.847-4.977c-3.113-3.101-7.144-4.978-11.967-4.978-9.875 0-17.862 8.513-17.862 19.039 0 10.525 7.987 19.038 17.862 19.038 10.309 0 17.147-7.724 17.147-18.603 0-1.251-.127-2.203-.28-3.155H31.865v6.527zm45.155-6.692h-5.836v-5.77H65.35v5.77h-5.835v5.77h5.835v5.769h5.834v-5.77h5.835"
        fill="#FFF"></path>
    </g>
  </symbol>
  <symbol viewBox="0 0 90 186" xmlns="http://www.w3.org/2000/svg" id="linkedin">
    <title>linkedin</title>
    <g fill="none">
      <ellipse fill="#007AB9" cx="45.16" cy="45" rx="44.778" ry="45"></ellipse>
      <path d="M71.917 48.62v18.555H61.21V49.86c0-4.344-1.546-7.31-5.418-7.31-2.952 0-4.712 1.997-5.49 3.932-.283.692-.352 1.654-.352 2.62v18.066H39.246s.145-29.313 0-32.345h10.705v4.583c-.024.038-.055.073-.072.107h.072v-.107c1.423-2.198 3.955-5.341 9.645-5.341 7.04-.003 12.32 4.621 12.32 14.556zM28.048 19.23c-3.658 0-6.059 2.416-6.059 5.587 0 3.108 2.325 5.59 5.918 5.59h.072c3.73 0 6.06-2.482 6.06-5.59-.08-3.174-2.333-5.587-5.99-5.587zm-5.425 47.946h10.702V34.823H22.623v32.352z"
        fill="#F1F2F2"></path>
      <g transform="translate(0 96)">
        <circle fill="#696969" cx="45.16" cy="44.85" r="44.778"></circle>
        <path d="M71.917 48.453v18.459H61.21v-17.23c0-4.322-1.546-7.27-5.418-7.27-2.952 0-4.712 1.983-5.49 3.909-.283.692-.352 1.65-.352 2.614v17.98H39.246s.145-29.17 0-32.188h10.705v4.557c-.024.038-.055.072-.072.107h.072v-.107c1.423-2.187 3.955-5.315 9.645-5.315 7.04 0 12.32 4.602 12.32 14.484zM28.048 19.206c-3.658 0-6.059 2.404-6.059 5.56 0 3.09 2.325 5.562 5.918 5.562h.072c3.73 0 6.06-2.473 6.06-5.562-.08-3.156-2.333-5.56-5.99-5.56zm-5.425 47.716h10.702V34.727H22.623v32.195z"
          fill="#F1F2F2"></path>
      </g>
    </g>
  </symbol>
  <symbol viewBox="0 0 90 186" xmlns="http://www.w3.org/2000/svg" id="linker">
    <title>linker</title>
    <g fill="none">
      <g transform="translate(1 96)">
        <circle fill="#696969" cx="45" cy="45" r="45"></circle>
        <path d="M45.92 17.308c-15.773 0-28.612 12.818-28.612 28.571 0 15.764 12.839 28.579 28.613 28.579 15.788 0 28.62-12.815 28.62-28.579-.004-15.757-12.843-28.571-28.62-28.571zM64.749 30.79a24.015 24.015 0 0 1 5.341 14.722c-1.087-.221-5.687-1.08-11.18-1.08-1.773 0-3.639.083-5.511.319-.163-.384-.319-.765-.481-1.156a82.964 82.964 0 0 0-1.555-3.39c8.464-3.482 12.541-8.314 13.386-9.415zm-18.827-9.013c6.106 0 11.669 2.263 15.937 5.995-.675.92-4.334 5.486-12.486 8.574-3.78-6.902-7.91-12.62-8.89-13.946a23.788 23.788 0 0 1 5.439-.623zm-10.385 2.34c.838 1.149 4.981 6.923 8.851 13.773-10.391 2.735-19.62 2.911-21.849 2.911h-.228c1.588-7.376 6.566-13.507 13.226-16.684zM21.742 45.924c0-.2.007-.398.014-.599h.637c2.994 0 13.413-.242 24.144-3.427a72.714 72.714 0 0 1 1.845 3.86 17.43 17.43 0 0 0-.796.242c-12.081 3.902-18.72 14.23-19.741 15.923-3.798-4.275-6.103-9.875-6.103-15.999zM45.92 70.058a24.087 24.087 0 0 1-14.746-5.026c.688-1.354 5.704-10.378 18.952-14.982.006-.007.013-.007.027-.013 3.32 8.64 4.725 15.902 5.113 18.145a24.015 24.015 0 0 1-9.346 1.876zm13.69-4.254c-.318-1.856-1.623-8.654-4.631-16.948a31.625 31.625 0 0 1 4.867-.363c5.05 0 9.006 1.104 9.924 1.388-1.094 6.58-4.867 12.278-10.16 15.923z"
          fill="#F1F2F2"></path>
      </g>
      <ellipse cx="44.846" cy="45" rx="44.778" ry="45" fill="#C32361" transform="translate(1)"></ellipse>
      <path d="M45.694 17.308c-15.696 0-28.472 12.818-28.472 28.571 0 15.764 12.776 28.579 28.472 28.579 15.71 0 28.479-12.815 28.479-28.579-.004-15.757-12.78-28.571-28.479-28.571zM64.428 30.79a24.088 24.088 0 0 1 5.315 14.722c-1.081-.221-5.66-1.08-11.125-1.08-1.764 0-3.62.083-5.484.319-.162-.384-.317-.765-.479-1.156a83.161 83.161 0 0 0-1.546-3.39c8.421-3.482 12.479-8.314 13.32-9.415zm-18.734-9.013c6.076 0 11.611 2.263 15.858 5.995-.671.92-4.312 5.486-12.424 8.574-3.761-6.902-7.87-12.62-8.845-13.946a23.559 23.559 0 0 1 5.411-.623zm-10.333 2.34c.833 1.149 4.956 6.923 8.807 13.773-10.34 2.735-19.523 2.911-21.741 2.911h-.228c1.581-7.376 6.535-13.507 13.162-16.684zM21.635 45.924c0-.2.006-.398.013-.599h.634c2.98 0 13.347-.242 24.025-3.427a72.874 72.874 0 0 1 1.836 3.86c-.262.073-.53.156-.792.242-12.021 3.902-18.628 14.23-19.644 15.923-3.778-4.275-6.072-9.875-6.072-15.999zm24.059 24.134c-5.518 0-10.602-1.876-14.673-5.026.685-1.354 5.676-10.378 18.858-14.982.007-.007.014-.007.028-.013 3.303 8.64 4.701 15.902 5.087 18.145a23.795 23.795 0 0 1-9.3 1.876zm13.623-4.254C59 63.948 57.7 57.15 54.708 48.856a31.324 31.324 0 0 1 4.843-.363c5.025 0 8.962 1.104 9.875 1.388-1.088 6.58-4.843 12.278-10.11 15.923z"
        fill="#F1F2F2"></path>
    </g>
  </symbol>
  <symbol viewBox="0 0 90 186" xmlns="http://www.w3.org/2000/svg" id="medium">
    <title>medium</title>
    <g fill="none">
      <ellipse fill="#00E56B" cx="44.846" cy="45" rx="44.778" ry="45"></ellipse>
      <path d="M35.756 66.323c0 .945-.455 1.831-1.492 1.831-.361 0-.696-.086-1.006-.242l-14.136-7.12c-.85-.426-1.519-1.527-1.519-2.44v-34.83c0-.766.366-1.469 1.189-1.469.485 0 .913.246 1.336.457l15.535 7.823c.03.032.09.122.09.153l.003 35.837zm18.18-6.293l-16.238-8.128V33.573L53.935 60.03zm1.122-1.859l-11.852-19.37 9.844-16.1c.338-.55.944-.855 1.581-.855.276 0 .548.062.789.183l16.444 8.25a.204.204 0 0 1 .124.183c.007.117-15.714 25.75-16.93 27.71zm17.026 8.152c0 1.007-.578 1.71-1.58 1.71a2.85 2.85 0 0 1-1.43-.395l-13.406-6.722 16.416-26.792v32.2z"
        fill="#FFF"></path>
      <g transform="translate(0 96)">
        <circle fill="#696969" cx="44.846" cy="44.85" r="44.778"></circle>
        <path d="M35.756 66.075c0 .937-.455 1.818-1.492 1.818a2.22 2.22 0 0 1-1.006-.237l-14.136-7.089c-.85-.424-1.519-1.515-1.519-2.428V23.48c0-.761.366-1.46 1.189-1.46.485 0 .913.237 1.336.45l15.535 7.788c.03.031.09.118.09.152l.003 35.664zm18.18-6.273l-16.238-8.087V33.48l16.237 26.322zm1.122-1.846L43.206 38.678 53.05 22.66c.338-.548.944-.85 1.581-.85.276 0 .548.065.789.185l16.444 8.208a.192.192 0 0 1 .124.183c.007.11-15.714 25.623-16.93 27.57zm17.026 8.119c0 1.002-.578 1.701-1.58 1.701a2.864 2.864 0 0 1-1.43-.396l-13.406-6.685 16.416-26.657v32.037z"
          fill="#FFF"></path>
      </g>
    </g>
  </symbol>
  <symbol viewBox="0 0 90 186" xmlns="http://www.w3.org/2000/svg" id="twitter">
    <title>twitter</title>
    <g fill="none">
      <circle fill="#55ACEE" cx="44.904" cy="44.819" r="44.778"></circle>
      <path d="M72.332 32.22a21.367 21.367 0 0 1-6.148 1.684 10.726 10.726 0 0 0 4.705-5.921 21.582 21.582 0 0 1-6.8 2.597 10.688 10.688 0 0 0-7.815-3.38c-5.91 0-10.702 4.795-10.702 10.703 0 .84.093 1.653.276 2.438-8.894-.444-16.781-4.705-22.055-11.184a10.61 10.61 0 0 0-1.453 5.384c0 3.713 1.894 6.989 4.763 8.91a10.634 10.634 0 0 1-4.846-1.343v.138c0 5.184 3.689 9.51 8.587 10.495a10.76 10.76 0 0 1-4.833.18c1.36 4.25 5.312 7.346 9.996 7.433a21.456 21.456 0 0 1-13.292 4.58c-.861 0-1.715-.051-2.552-.147a30.29 30.29 0 0 0 16.409 4.808c19.688 0 30.456-16.31 30.456-30.456 0-.465-.01-.93-.031-1.384a21.633 21.633 0 0 0 5.335-5.536z"
        fill="#F1F2F2"></path>
      <g transform="translate(0 96)">
        <circle fill="#696969" cx="44.904" cy="44.891" r="44.778"></circle>
        <path d="M72.332 32.295a21.253 21.253 0 0 1-6.148 1.681 10.715 10.715 0 0 0 4.705-5.921 21.5 21.5 0 0 1-6.8 2.597 10.685 10.685 0 0 0-7.815-3.375c-5.91 0-10.702 4.798-10.702 10.701 0 .84.093 1.65.276 2.436-8.894-.445-16.781-4.702-22.055-11.181a10.597 10.597 0 0 0-1.453 5.38c0 3.713 1.894 6.989 4.763 8.914a10.637 10.637 0 0 1-4.846-1.346v.137c0 5.184 3.689 9.51 8.587 10.496a10.76 10.76 0 0 1-2.821.372c-.689 0-1.364-.07-2.012-.197 1.36 4.25 5.312 7.347 9.996 7.433a21.456 21.456 0 0 1-13.292 4.582c-.861 0-1.715-.056-2.552-.149a30.29 30.29 0 0 0 16.409 4.809c19.688 0 30.456-16.31 30.456-30.456 0-.468-.01-.933-.031-1.385a21.55 21.55 0 0 0 5.335-5.528z"
          fill="#F1F2F2"></path>
      </g>
    </g>
  </symbol>
</svg>