<?xml version="1.0" encoding="UTF-8"?>
<svg width="270px" height="32px" viewBox="0 0 270 32" version="1.1" xmlns="http://www.w3.org/2000/svg" xmlns:xlink="http://www.w3.org/1999/xlink">
    <!-- Generator: Sketch 50.2 (55047) - http://www.bohemiancoding.com/sketch -->
    <title>Group 5</title>
    <desc>Created with Sketch.</desc>
    <defs></defs>
    <g id="Page-1" stroke="none" stroke-width="1" fill="none" fill-rule="evenodd">
        <g id="r3app" transform="translate(-867.000000, -4811.000000)" fill="#FFFFFF">
            <g id="2" transform="translate(5.000000, 4295.000000)">
                <g id="Group-5" transform="translate(862.000000, 516.000000)">
                    <g id="Group-4">
                        <path d="M25.6285714,21.9531155 C25.1752846,23.3758108 24.4500256,24.8885501 23.3984002,26.4553157 C21.8390934,28.8144686 20.2797867,29.9850407 18.7386114,29.9850407 C18.1221413,29.9850407 17.2880935,29.7869438 16.2002051,29.408759 C15.1304482,29.0125654 14.205743,28.8324774 13.4623526,28.8324774 C12.7370936,28.8324774 11.8667829,29.0305742 10.8876833,29.4267678 C9.89045226,29.8409702 9.09266742,30.0390671 8.49432879,30.0390671 C6.626787,30.0390671 4.8317711,28.4723014 3.0367552,25.3747877 C1.27800226,22.277274 0.371428571,19.2698042 0.371428571,16.3163609 C0.371428571,13.5610144 1.06042457,11.3279231 2.4202851,9.58106948 C3.78014563,7.85222462 5.48450415,6.98780218 7.56962363,6.98780218 C8.45806584,6.98780218 9.50969131,7.16789019 10.7788945,7.5280662 C12.0299662,7.88824222 12.8640139,8.06833022 13.2810378,8.06833022 C13.8068506,8.06833022 14.6771613,7.87023342 15.8738386,7.456031 C17.0705158,7.05983739 18.1221413,6.84373178 19.0105835,6.84373178 C20.4611014,6.84373178 21.7484361,7.23992539 22.8725874,8.01430382 C23.507189,8.44651504 24.1417906,9.05881426 24.7582607,9.81518389 C23.8154241,10.6075711 23.1264281,11.3099143 22.6912727,11.9402224 C21.9116193,13.056768 21.5127269,14.2993753 21.5127269,15.6680441 C21.5127269,17.1447658 21.9297508,18.4954258 22.7637986,19.6840067 C23.5978464,20.8725875 24.5588145,21.6289571 25.6285714,21.9531155 Z M18.9276968,0.891216931 C18.9276968,1.62175863 18.7425045,2.44139078 18.3906391,3.3144772 C18.0202545,4.20538171 17.4461584,5.02501386 16.6683508,5.77337365 C16.0016585,6.41482489 15.3349662,6.84245906 14.6682739,7.05627614 C14.2423317,7.18100277 13.6126779,7.28791131 12.7422741,7.35918367 C12.7793125,5.59519274 13.2608125,4.06283699 14.186774,2.77993449 C15.1127355,1.497032 16.6683508,0.623945578 18.8165814,0.142857143 C18.8536199,0.303219955 18.8906583,0.427946586 18.9091776,0.534855127 C18.9091776,0.659581759 18.9276968,0.7664903 18.9276968,0.891216931 Z" id=""></path>
                    </g>
                    <g id="Group-3" transform="translate(81.333333, 0.000000)">
                        <path d="M9.21501623,6.49929789 C9.60965909,6.49929789 9.91461039,6.17640828 9.91461039,5.79970373 C9.91461039,5.42299919 9.60965909,5.10010958 9.21501623,5.10010958 C8.83831169,5.10010958 8.53336039,5.42299919 8.53336039,5.79970373 C8.53336039,6.17640828 8.83831169,6.49929789 9.21501623,6.49929789 Z M16.7849838,6.49929789 C17.1616883,6.49929789 17.4666396,6.17640828 17.4666396,5.79970373 C17.4666396,5.42299919 17.1616883,5.10010958 16.7849838,5.10010958 C16.3903409,5.10010958 16.0853896,5.42299919 16.0853896,5.79970373 C16.0853896,6.17640828 16.3903409,6.49929789 16.7849838,6.49929789 Z M2.21907468,9.79994724 C3.22362013,9.79994724 4.04878247,10.6251096 4.04878247,11.629655 L4.04878247,19.3431291 C4.04878247,20.3656128 3.24155844,21.1907752 2.21907468,21.1907752 C1.19659091,21.1907752 0.371428571,20.3656128 0.371428571,19.3431291 L0.371428571,11.629655 C0.371428571,10.6251096 1.19659091,9.79994724 2.21907468,9.79994724 Z M21.2336851,10.1407752 L21.2336851,22.0876907 C21.2336851,23.1819278 20.3547078,24.060905 19.2784091,24.060905 L17.9330357,24.060905 L17.9330357,28.1329018 C17.9330357,29.1553856 17.1078734,29.9805479 16.0853896,29.9805479 C15.0629058,29.9805479 14.2377435,29.1553856 14.2377435,28.1329018 L14.2377435,24.060905 L11.7622565,24.060905 L11.7622565,28.1329018 C11.7622565,29.1553856 10.9370942,29.9805479 9.91461039,29.9805479 C8.91006494,29.9805479 8.0849026,29.1553856 8.0849026,28.1329018 L8.06696429,24.060905 L6.73952922,24.060905 C5.64529221,24.060905 4.76631494,23.1819278 4.76631494,22.0876907 L4.76631494,10.1407752 L21.2336851,10.1407752 Z M17.0719968,2.87575893 C19.5833604,4.16731737 21.2875,6.64280438 21.2875,9.49499594 L4.69456169,9.49499594 C4.69456169,6.64280438 6.3987013,4.16731737 8.92800325,2.87575893 L7.65438312,0.525840097 C7.58262987,0.400271916 7.61850649,0.23882711 7.74407468,0.167073864 C7.86964286,0.113258929 8.03108766,0.149135552 8.10284091,0.274703734 L9.39439935,2.64256088 C10.4886364,2.15822646 11.7084416,1.88915179 13,1.88915179 C14.2915584,1.88915179 15.5113636,2.15822646 16.6056006,2.64256088 L17.8971591,0.274703734 C17.9689123,0.149135552 18.1303571,0.113258929 18.2559253,0.167073864 C18.3814935,0.23882711 18.4173701,0.400271916 18.3456169,0.525840097 L17.0719968,2.87575893 Z M25.6285714,11.629655 L25.6285714,19.3431291 C25.6285714,20.3656128 24.8034091,21.1907752 23.7809253,21.1907752 C22.7763799,21.1907752 21.9512175,20.3656128 21.9512175,19.3431291 L21.9512175,11.629655 C21.9512175,10.6071713 22.7763799,9.79994724 23.7809253,9.79994724 C24.8034091,9.79994724 25.6285714,10.6071713 25.6285714,11.629655 Z" id="android---FontAwesome"></path>
                    </g>
                    <g id="Group-2" transform="translate(162.666667, 4.000000)" stroke="#FFFFFF">
                        <path d="M12.8974609,0.264648438 C16.1631023,0.264648438 18.9926638,1.50470765 21.3862305,3.98486328 C23.7797971,6.46501891 24.9765625,9.56052832 24.9765625,13.2714844 C24.9765625,17.0937691 23.7705199,20.2665889 21.3583984,22.7900391 C18.946277,25.3134892 16.0270354,26.5751953 12.6005859,26.5751953 C9.13702695,26.5751953 6.22706256,25.3444133 3.87060547,22.8828125 C1.51414837,20.4212117 0.3359375,17.2360221 0.3359375,13.3271484 C0.3359375,9.33168575 1.69660098,6.07227824 4.41796875,3.54882812 C6.78061077,1.35936405 9.6070799,0.264648438 12.8974609,0.264648438 Z M12.5449219,1.61914062 C10.2936085,1.61914062 8.48763701,2.45409321 7.12695312,4.12402344 C5.43228319,6.20215883 4.58496094,9.24509715 4.58496094,13.2529297 C4.58496094,17.3597211 5.46320736,20.5201712 7.21972656,22.734375 C8.5680406,24.4166751 10.3492728,25.2578125 12.5634766,25.2578125 C14.9261186,25.2578125 16.8774337,24.3362722 18.4174805,22.4931641 C19.9575272,20.6500559 20.7275391,17.7431839 20.7275391,13.7724609 C20.7275391,9.46775191 19.8802168,6.25782308 18.1855469,4.14257812 C16.824863,2.46027805 14.9446735,1.61914062 12.5449219,1.61914062 Z" id="O"></path>
                    </g>
                    <g id="Group-2-Copy" transform="translate(244.000000, 4.000000)">
                        <path d="M22.5293649,22.1083924 C22.9659466,21.8901016 23.3006593,22.2248142 22.8495248,22.8069232 C22.3983904,23.3890322 18.774762,26.7070533 12.6917233,26.7070533 C6.60868455,26.7070533 1.95181279,22.5449742 0.525645813,20.8277527 C0.132722258,20.3766183 0.58385671,20.1728801 0.845805747,20.3475128 C5.10975396,22.9378977 11.7749017,27.2018459 22.5293649,22.1083924 Z M25.5417788,20.4348291 C25.7600697,20.7258836 25.5417788,22.0065234 25.163408,22.9378977 C24.7850372,23.8547193 24.2320336,24.4950392 23.9264264,24.7424355 C23.6062665,25.0043846 23.3734229,24.9025155 23.5480556,24.5241447 C23.7226883,24.1457738 24.6686154,21.817338 24.2902445,21.3225453 C23.9118737,20.8423054 22.1364413,21.075149 21.4961215,21.1333599 C20.8703543,21.1915708 20.7393798,21.2497817 20.6811689,21.1188072 C20.5501944,20.7840945 21.9472559,20.2165383 22.8640776,20.1001165 C23.7808992,19.9982474 25.2507243,20.0564583 25.5417788,20.4348291 Z M19.8080055,13.9879723 C19.8080055,15.588772 21.6853069,17.0585971 21.6853069,17.0585971 L18.3818385,20.3184074 C17.086646,19.0959785 16.1116135,18.0772878 16.1116135,18.0772878 C15.9660863,17.9317606 15.8496645,17.7571279 15.7477954,17.5970479 C13.1137523,21.7154689 5.06609578,21.4535198 5.06609578,15.0794266 C5.06609578,9.14191512 12.0950616,8.34151529 14.9328428,8.23964622 L14.9328428,6.39145024 C14.9328428,5.99852668 15.0783701,4.2085416 12.866356,4.2085416 C12.866356,4.2085416 10.6543419,4.2085416 9.70841482,7.089981 L5.42991389,6.69705745 C5.42991389,3.83017077 8.15127333,0.628571429 13.2738323,0.628571429 C18.3818385,0.628571429 19.8080055,3.94659256 19.8080055,5.41641771 L19.8080055,13.9879723 Z M10.0285748,14.2935795 C10.0285748,17.2477825 14.9328428,17.9463133 14.9328428,13.2894415 L14.9328428,10.9319002 C12.9682251,10.9901111 10.0285748,11.5431146 10.0285748,14.2935795 Z" id="amazon---FontAwesome"></path>
                    </g>
                </g>
            </g>
        </g>
    </g>
</svg>