<?xml version="1.0" encoding="utf-8"?>
<!-- Generator: Adobe Illustrator 15.1.0, SVG Export Plug-In . SVG Version: 6.00 Build 0)  -->
<!DOCTYPE svg PUBLIC "-//W3C//DTD SVG 1.1//EN" "http://www.w3.org/Graphics/SVG/1.1/DTD/svg11.dtd">
<svg version="1.1" id="Layer_1" xmlns="http://www.w3.org/2000/svg" xmlns:xlink="http://www.w3.org/1999/xlink" x="0px" y="0px"
	 width="32px" height="32px" viewBox="9 9 32 32" enable-background="new 9 9 32 32" xml:space="preserve">
<g>
	<g>
		<path fill="#FFFFFF" d="M35.939,19.534c-1.008,0-1.822,0.821-1.822,1.824v7.293c0,1.004,0.82,1.819,1.822,1.819
			c1.004,0,1.82-0.817,1.82-1.819v-7.293C37.768,20.354,36.943,19.534,35.939,19.534z M14.062,19.534
			c-1.006,0-1.822,0.821-1.822,1.824v7.293c0,1.004,0.817,1.819,1.822,1.819c1.002,0,1.82-0.817,1.82-1.819v-7.293
			C15.883,20.354,15.064,19.534,14.062,19.534z M16.795,31.386c0,1.511,1.223,2.735,2.734,2.735h0.913v3.648
			c0,1,0.817,1.815,1.819,1.815s1.823-0.815,1.823-1.815v-3.648h1.825v3.648c0,1,0.82,1.815,1.822,1.815s1.818-0.815,1.818-1.815
			v-3.648h0.91c1.514,0,2.734-1.227,2.734-2.735V21.357h-16.4V31.386z M28.377,12.966l1.156-2.217
			c0.059-0.112,0.012-0.251-0.102-0.307c-0.107-0.059-0.25-0.016-0.309,0.097l-1.172,2.249c-0.918-0.354-1.912-0.547-2.955-0.547
			c-1.041,0-2.039,0.192-2.957,0.547l-1.172-2.251c-0.06-0.111-0.196-0.154-0.308-0.097c-0.109,0.058-0.154,0.196-0.099,0.307
			l1.153,2.216c-2.582,1.172-4.45,3.639-4.774,6.57h16.312C32.828,16.603,30.963,14.135,28.377,12.966z M21.353,18.12
			c-0.729,0-1.32-0.592-1.32-1.322c0-0.731,0.592-1.323,1.32-1.323c0.729,0,1.321,0.592,1.321,1.323S22.083,18.12,21.353,18.12z
			 M28.646,18.12c-0.73,0-1.322-0.592-1.322-1.322c0-0.731,0.594-1.323,1.322-1.323c0.727,0,1.32,0.592,1.32,1.323
			S29.375,18.12,28.646,18.12z"/>
	</g>
</g>
</svg>
