<?xml version="1.0" encoding="utf-8"?>
<!-- Generator: Adobe Illustrator 15.1.0, SVG Export Plug-In . SVG Version: 6.00 Build 0)  -->
<!DOCTYPE svg PUBLIC "-//W3C//DTD SVG 1.1//EN" "http://www.w3.org/Graphics/SVG/1.1/DTD/svg11.dtd">
<svg version="1.1" id="Layer_1" xmlns="http://www.w3.org/2000/svg" xmlns:xlink="http://www.w3.org/1999/xlink" x="0px" y="0px"
	 width="32px" height="32px" viewBox="9 14 32 32" enable-background="new 9 14 32 32" xml:space="preserve">
<g>
	<g id="XMLID_228_">
		<path id="XMLID_229_" fill="#FFFFFF" d="M14.29,26.13c-2.471,4.288-0.9,10.797,1.831,14.739c1.364,1.976,2.746,3.745,4.637,3.745
			c0.036,0,0.071,0,0.109,0c0.887-0.035,1.53-0.309,2.15-0.576c0.696-0.299,1.419-0.604,2.552-0.604c1.07,0,1.761,0.297,2.424,0.584
			c0.656,0.279,1.329,0.572,2.324,0.558c2.133-0.041,3.438-1.952,4.594-3.638c1.205-1.758,1.809-3.469,2.012-4.121l0.008-0.025
			c0.039-0.117-0.018-0.245-0.127-0.295c-0.005-0.001-0.015-0.006-0.018-0.01c-0.375-0.151-3.667-1.612-3.703-5.59
			c-0.029-3.234,2.471-4.947,2.973-5.257l0.023-0.015c0.054-0.035,0.091-0.091,0.104-0.154c0.019-0.063,0-0.128-0.033-0.183
			c-1.729-2.527-4.371-2.907-5.438-2.954c-0.153-0.014-0.313-0.023-0.474-0.023c-1.25,0-2.449,0.474-3.412,0.854
			c-0.665,0.261-1.239,0.488-1.635,0.488c-0.445,0-1.022-0.229-1.691-0.495c-0.894-0.355-1.909-0.757-2.979-0.757
			c-0.026,0-0.053,0-0.076,0.001C17.944,22.442,15.589,23.87,14.29,26.13z"/>
		<path id="XMLID_230_" fill="#FFFFFF" d="M30.711,15.386c-1.51,0.062-3.321,0.991-4.405,2.261
			c-0.919,1.066-1.818,2.844-1.582,4.636c0.016,0.112,0.105,0.198,0.22,0.208c0.102,0.007,0.207,0.011,0.31,0.011
			c1.479,0,3.069-0.815,4.159-2.131c1.145-1.39,1.727-3.173,1.551-4.771C30.942,15.476,30.833,15.381,30.711,15.386z"/>
	</g>
</g>
</svg>
