<?xml version="1.0" encoding="utf-8"?>
<!-- Generator: Adobe Illustrator 15.1.0, SVG Export Plug-In . SVG Version: 6.00 Build 0)  -->
<!DOCTYPE svg PUBLIC "-//W3C//DTD SVG 1.1//EN" "http://www.w3.org/Graphics/SVG/1.1/DTD/svg11.dtd">
<svg version="1.1" id="Layer_1" xmlns="http://www.w3.org/2000/svg" xmlns:xlink="http://www.w3.org/1999/xlink" x="0px" y="0px"
	 width="32px" height="32px" viewBox="0 0 32 32" enable-background="new 0 0 32 32" xml:space="preserve">
<g>
	<g id="XMLID_228_">
		<path id="XMLID_229_" fill="#AFAFAF" d="M5.29,12.13c-2.471,4.288-0.9,10.797,1.831,14.739c1.364,1.976,2.746,3.745,4.637,3.745
			c0.036,0,0.071,0,0.109,0c0.887-0.035,1.529-0.31,2.148-0.576c0.696-0.299,1.419-0.604,2.554-0.604
			c1.068,0,1.761,0.297,2.424,0.584c0.656,0.279,1.329,0.572,2.324,0.56c2.133-0.041,3.438-1.952,4.594-3.64
			c1.205-1.758,1.809-3.469,2.012-4.121l0.008-0.023c0.039-0.117-0.018-0.245-0.127-0.295c-0.005-0.001-0.015-0.006-0.018-0.012
			c-0.375-0.149-3.667-1.61-3.703-5.59c-0.029-3.232,2.471-4.945,2.973-5.255l0.023-0.016c0.054-0.035,0.091-0.091,0.104-0.154
			c0.021-0.062,0-0.128-0.031-0.183c-1.729-2.527-4.371-2.907-5.438-2.954c-0.153-0.014-0.312-0.023-0.474-0.023
			c-1.25,0-2.449,0.475-3.412,0.854c-0.665,0.261-1.239,0.487-1.635,0.487c-0.445,0-1.022-0.229-1.691-0.494
			C13.606,8.803,12.591,8.4,11.521,8.4c-0.026,0-0.055,0-0.076,0.002C8.944,8.441,6.589,9.87,5.29,12.13z"/>
		<path id="XMLID_230_" fill="#AFAFAF" d="M21.711,1.386c-1.51,0.062-3.321,0.991-4.405,2.261c-0.919,1.066-1.816,2.845-1.582,4.637
			c0.018,0.111,0.105,0.197,0.222,0.208c0.102,0.007,0.207,0.011,0.31,0.011c1.479,0,3.069-0.814,4.159-2.131
			c1.144-1.392,1.726-3.174,1.55-4.772C21.942,1.476,21.833,1.381,21.711,1.386z"/>
	</g>
</g>
</svg>
