<?xml version="1.0" encoding="UTF-8"?>
<svg width="20px" height="20px" viewBox="0 0 20 20" version="1.1" xmlns="http://www.w3.org/2000/svg" xmlns:xlink="http://www.w3.org/1999/xlink">
    <g id="Page-1" stroke="none" stroke-width="1" fill="none" fill-rule="evenodd">
        <g id="Intuz_Homepage" transform="translate(-817.000000, -5605.000000)" fill="#686868" fill-rule="nonzero">
            <g id="el-blogger" transform="translate(817.000000, 5605.000000)">
                <g id="Icon">
                    <path d="M11.0349256,0.573355372 C13.8902066,0.80207438 15.5499752,2.63041322 15.747281,4.96808264 C15.9006529,6.17105785 15.8587521,7.0641157 15.6837355,7.72101653 C17.312438,7.7743719 19.216,8.49801653 19.3373636,11.125843 L19.3373636,13.7117438 C19.1684711,15.970719 18.3575785,18.7618595 14.1982645,19.3537769 L7.23766942,19.3791901 C3.019,19.4558017 0.69531405,17.6153388 0.673644628,13.6786942 L0.728140496,4.95310744 C0.909727273,2.41500826 2.96626446,0.927107438 5.36581818,0.59668595 L11.0349504,0.573082645 L11.0349256,0.573355372 L11.0349256,0.573355372 Z M6.29356198,4.10353719 C3.8631157,4.49807438 3.74296694,7.25031405 6.29356198,7.59008264 L10.9076612,7.59008264 C13.3381074,7.19554545 13.4582562,4.44328099 10.9076612,4.10353719 L6.29356198,4.10353719 L6.29356198,4.10353719 Z M5.24760331,11.7160248 C2.74547934,12.1011405 2.70655372,15.2262231 5.33477686,15.5494298 L13.8096529,15.5784876 C16.2905041,15.1966446 16.2834628,12.0756777 13.7206694,11.7450826 L5.24770248,11.7160248 L5.24760331,11.7160248 L5.24760331,11.7160248 Z" id="Icon-Shape"></path>
                </g>
            </g>
        </g>
    </g>
</svg>