<?xml version="1.0" encoding="UTF-8"?>
<svg width="10px" height="19px" viewBox="0 0 10 19" version="1.1" xmlns="http://www.w3.org/2000/svg" xmlns:xlink="http://www.w3.org/1999/xlink">
    <g id="Page-1" stroke="none" stroke-width="1" fill="none" fill-rule="evenodd">
        <g id="Intuz_Homepage" transform="translate(-761.000000, -5605.000000)" fill="#686868" fill-rule="nonzero">
            <path d="M770.7,5605.14 L770.7,5608.08 L768.96,5608.08 C768.319997,5608.08 767.886668,5608.21333 767.66,5608.48 C767.433332,5608.74667 767.32,5609.14666 767.32,5609.68 L767.32,5611.8 L770.6,5611.8 L770.16,5615.1 L767.32,5615.1 L767.32,5623.58 L763.9,5623.58 L763.9,5615.1 L761.06,5615.1 L761.06,5611.8 L763.9,5611.8 L763.9,5609.36 C763.9,5607.97333 764.286663,5606.9 765.06,5606.14 C765.833337,5605.38 766.86666,5605 768.16,5605 C769.253339,5605 770.099997,5605.04667 770.7,5605.14 Z" id=""></path>
        </g>
    </g>
</svg>