<?xml version="1.0" encoding="UTF-8"?>
<svg viewBox="0 0 20 20" version="1.1" xmlns="http://www.w3.org/2000/svg" xmlns:xlink="http://www.w3.org/1999/xlink">
    <g id="Page-1" stroke="none" stroke-width="1" fill="none" fill-rule="evenodd">
        <g id="Intuz_Homepage" transform="translate(-983.000000, -5605.000000)" fill="#686868">
            <g id="foundation-social-github" transform="translate(983.000000, 5605.000000)">
                <g id="Icon">
                    <path d="M9.99949091,0.317854545 C4.51734545,0.317854545 0.0727272727,4.76272727 0.0727272727,10.2456364 C0.0727272727,14.6317091 2.91650909,18.3526545 6.86170909,19.6645818 C7.35858182,19.7564727 7.53930909,19.4507636 7.53930909,19.1868 C7.53930909,18.9516 7.53065455,18.3277091 7.52632727,17.4984 C4.76476364,18.0988727 4.18210909,16.1673818 4.18210909,16.1673818 C3.73054545,15.0206545 3.07967273,14.7157091 3.07967273,14.7157091 C2.17832727,14.1002182 3.14814545,14.1121818 3.14814545,14.1121818 C4.14443636,14.1826909 4.6688,15.1349455 4.6688,15.1349455 C5.55410909,16.6520364 6.99254545,16.2129455 7.55789091,15.9604364 C7.64774545,15.3177091 7.90483636,14.8811636 8.18814545,14.6324727 C5.98403636,14.382 3.66665455,13.5302909 3.66665455,9.72636364 C3.66665455,8.64225455 4.05330909,7.75592727 4.68814545,7.06178182 C4.58658182,6.81181818 4.24523636,5.80254545 4.78563636,4.43512727 C4.78563636,4.43512727 5.61901818,4.16836364 7.51589091,5.45356364 C8.30727273,5.23236364 9.15669091,5.12189091 10.0010182,5.11858182 C10.8440727,5.12214545 11.6937455,5.23236364 12.4861455,5.45356364 C14.3817455,4.16836364 15.2138545,4.43512727 15.2138545,4.43512727 C15.7555273,5.80254545 15.4144364,6.81181818 15.3126182,7.06178182 C15.9489818,7.75592727 16.3328364,8.64225455 16.3328364,9.72636364 C16.3328364,13.5392 14.0121455,14.3792 11.8006545,14.6240727 C12.1565091,14.9308 12.4741818,15.5378909 12.4741818,16.4641818 C12.4741818,17.7906182 12.4622182,18.8609818 12.4622182,19.1865455 C12.4622182,19.4525455 12.6406545,19.7618182 13.1446545,19.6633091 C17.0855273,18.3485818 19.9272727,14.6304364 19.9272727,10.2456364 C19.9272727,4.76272727 15.4826545,0.317854545 9.99949091,0.317854545 Z" id="Icon-Path"></path>
                </g>
            </g>
        </g>
    </g>
</svg>