<?xml version="1.0" encoding="UTF-8"?>
<svg viewBox="0 0 18 17" version="1.1" xmlns="http://www.w3.org/2000/svg" xmlns:xlink="http://www.w3.org/1999/xlink">
    <g id="Page-1" stroke="none" stroke-width="1" fill="none" fill-rule="evenodd">
        <g id="Intuz_Homepage" transform="translate(-877.000000, -5606.000000)" fill="#686868" fill-rule="nonzero">
            <path d="M880.9,5611.32 L880.9,5622.38 L877.22,5622.38 L877.22,5611.32 L880.9,5611.32 Z M881.14,5607.9 C881.14,5608.44667 880.946669,5608.9 880.56,5609.26 C880.173331,5609.62 879.673336,5609.8 879.06,5609.8 L879.04,5609.8 C878.426664,5609.8 877.933335,5609.62 877.56,5609.26 C877.186665,5608.9 877,5608.44667 877,5607.9 C877,5607.35333 877.193331,5606.9 877.58,5606.54 C877.966669,5606.18 878.466664,5606 879.08,5606 C879.693336,5606 880.186665,5606.18 880.56,5606.54 C880.933335,5606.9 881.126667,5607.35333 881.14,5607.9 Z M886.6,5612.88755 C886.740592,5612.66132 886.887257,5612.46547 887.04,5612.3 C887.200001,5612.12667 887.406665,5611.93333 887.66,5611.72 C887.913335,5611.50667 888.239998,5611.34667 888.64,5611.24 C889.040002,5611.13333 889.466664,5611.07333 889.92,5611.06 C891.186673,5611.06 892.206663,5611.48 892.98,5612.32 C893.753337,5613.16 894.14,5614.39999 894.14,5616.04 L894.14,5622.38 L890.48,5622.38 L890.48,5616.46 C890.48,5615.67333 890.326668,5615.06 890.02,5614.62 C889.713332,5614.18 889.240003,5613.96 888.6,5613.96 C888.133331,5613.96 887.746668,5614.08667 887.44,5614.34 C887.133332,5614.59333 886.893334,5614.91333 886.72,5615.3 C886.64,5615.52667 886.6,5615.82666 886.6,5616.2 L886.6,5622.38 L882.92,5622.38 C882.933333,5619.40665 882.94,5617.00001 882.94,5615.16 L882.94,5611.86 L882.92,5611.32 L886.6,5611.32 L886.6,5612.88755 L886.6,5612.88755 Z" id=""></path>
        </g>
    </g>
</svg>