<?xml version="1.0" encoding="UTF-8"?>
<svg viewBox="0 0 20 17" version="1.1" xmlns="http://www.w3.org/2000/svg" xmlns:xlink="http://www.w3.org/1999/xlink">
    <g id="Page-1" stroke="none" stroke-width="1" fill="none" fill-rule="evenodd">
        <g id="Intuz_Homepage" transform="translate(-937.000000, -5606.000000)" fill="#686868" fill-rule="nonzero">
            <path d="M943.66,5609.16 L943.66,5622.26 C943.66,5622.44667 943.613334,5622.6 943.52,5622.72 C943.426666,5622.84 943.293334,5622.90667 943.12,5622.92 C942.986666,5622.92 942.860001,5622.89333 942.74,5622.84 L937.56,5620.22 C937.399999,5620.15333 937.266667,5620.03333 937.16,5619.86 C937.053333,5619.68667 937,5619.51333 937,5619.34 L937,5606.62 C937,5606.46 937.04,5606.33333 937.12,5606.24 C937.2,5606.14667 937.306666,5606.09333 937.44,5606.08 C937.546667,5606.08 937.706666,5606.13333 937.92,5606.24 L943.64,5609.1 C943.653333,5609.12667 943.66,5609.14667 943.66,5609.16 Z M944.38,5610.28 L950.34,5619.96 L944.38,5616.98 L944.38,5610.28 Z M957,5610.48 L957,5622.26 C957,5622.44667 956.946667,5622.59333 956.84,5622.7 C956.733333,5622.80667 956.593334,5622.86667 956.42,5622.88 C956.246666,5622.89333 956.073334,5622.84667 955.9,5622.74 L950.98,5620.28 L957,5610.48 Z M956.96,5609.14 C956.96,5609.16667 956.006676,5610.72665 954.1,5613.82 C952.193324,5616.91335 951.080002,5618.72666 950.76,5619.26 L946.4,5612.2 L950.02,5606.32 C950.140001,5606.10667 950.333332,5606 950.6,5606 C950.706667,5606 950.8,5606.02 950.88,5606.06 L956.92,5609.08 C956.946667,5609.09333 956.96,5609.11333 956.96,5609.14 Z" id=""></path>
        </g>
    </g>
</svg>