<?xml version="1.0" encoding="UTF-8"?>
<svg viewBox="0 0 18 15" version="1.1" xmlns="http://www.w3.org/2000/svg" xmlns:xlink="http://www.w3.org/1999/xlink">
    <g id="Page-1" stroke="none" stroke-width="1" fill="none" fill-rule="evenodd">
        <g id="Intuz_Homepage" transform="translate(-699.000000, -5607.000000)" fill="#686868" fill-rule="nonzero">
            <path d="M716.58,5608.7 C716.086664,5609.42 715.48667,5610.04 714.78,5610.56 L714.78,5611.02 C714.78,5611.99334 714.640001,5612.96 714.36,5613.92 C714.079999,5614.88 713.653336,5615.80666 713.08,5616.7 C712.506664,5617.59334 711.820004,5618.37333 711.02,5619.04 C710.219996,5619.70667 709.260006,5620.25333 708.14,5620.68 C707.019994,5621.10667 705.81334,5621.30667 704.52,5621.28 C702.506657,5621.28 700.666675,5620.74001 699,5619.66 C699.253335,5619.68667 699.539998,5619.7 699.86,5619.7 C701.540008,5619.7 703.033327,5619.18667 704.34,5618.16 C703.553329,5618.14667 702.853336,5617.90667 702.24,5617.44 C701.626664,5616.97333 701.200001,5616.38 700.96,5615.66 C701.213335,5615.7 701.439999,5615.72 701.64,5615.72 C701.960002,5615.72 702.279998,5615.68 702.6,5615.6 C701.759996,5615.42667 701.066669,5615.01334 700.52,5614.36 C699.973331,5613.70666 699.7,5612.94 699.7,5612.06 L699.7,5612.02 C700.206669,5612.3 700.75333,5612.45333 701.34,5612.48 C700.846664,5612.14667 700.453335,5611.72 700.16,5611.2 C699.866665,5610.68 699.72,5610.1 699.72,5609.46 C699.72,5608.82 699.886665,5608.22 700.22,5607.66 C701.126671,5608.76667 702.219994,5609.65333 703.5,5610.32 C704.780006,5610.98667 706.166659,5611.35333 707.66,5611.42 C707.593333,5611.14 707.56,5610.86667 707.56,5610.6 C707.56,5609.6 707.91333,5608.75334 708.62,5608.06 C709.32667,5607.36666 710.173328,5607.01333 711.16,5607 C712.213339,5607 713.09333,5607.38 713.8,5608.14 C714.613337,5607.98 715.379996,5607.68667 716.1,5607.26 C715.819999,5608.11334 715.286671,5608.78 714.5,5609.26 C715.193337,5609.18 715.886663,5608.99333 716.58,5608.7 Z" id=""></path>
        </g>
    </g>
</svg>