<?xml version="1.0" encoding="UTF-8"?>
<svg width="40px" height="40px" viewBox="0 0 40 40" version="1.1" xmlns="http://www.w3.org/2000/svg" xmlns:xlink="http://www.w3.org/1999/xlink">
    <!-- Generator: Sketch 60 (88103) - https://sketch.com -->
    <title>menu_about</title>
    <desc>Created with Sketch.</desc>
    <g id="menu_about" stroke="none" stroke-width="1" fill-rule="evenodd">
        <g id="uil-building" transform="translate(4.000000, 4.000000)" fill-rule="nonzero">
            <g id="Icon">
                <path d="M27.0833333,0.916666667 L4.91666667,0.916666667 C4.49183224,0.916666667 4.14124835,1.23457099 4.08982618,1.64546844 L4.08333333,1.75 L4.08333333,29.4166667 L1.75,29.4166667 C1.28976271,29.4166667 0.916666667,29.7897627 0.916666667,30.25 C0.916666667,30.6748344 1.23457099,31.0254183 1.64546844,31.0768405 L1.75,31.0833333 L30.25,31.0833333 C30.7102373,31.0833333 31.0833333,30.7102373 31.0833333,30.25 C31.0833333,29.8251656 30.765429,29.4745817 30.3545316,29.4231595 L30.25,29.4166667 L27.9166667,29.4166667 L27.9166667,1.75 C27.9166667,1.32516558 27.5987623,0.974581686 27.1878649,0.923159516 L27.0833333,0.916666667 Z M18.3333333,21.5833333 L18.3333333,29.4166667 L13.6666667,29.4166667 L13.6666667,21.5833333 L18.3333333,21.5833333 Z M26.25,2.58333333 L26.25,29.4166667 L20,29.4166667 L20,20.75 C20,20.3251656 19.6820957,19.9745817 19.2711982,19.9231595 L19.1666667,19.9166667 L12.8333333,19.9166667 C12.4084989,19.9166667 12.057915,20.234571 12.0064928,20.6454684 L12,20.75 L12,29.4166667 L5.75,29.4166667 L5.75,2.58333333 L26.25,2.58333333 Z M20.75,13.5833333 L19.1666667,13.5833333 C18.7064294,13.5833333 18.3333333,13.9564294 18.3333333,14.4166667 C18.3333333,14.8415011 18.6512377,15.192085 19.0621351,15.2435072 L19.1666667,15.25 L20.75,15.25 C21.2102373,15.25 21.5833333,14.876904 21.5833333,14.4166667 C21.5833333,13.9918322 21.265429,13.6412484 20.8545316,13.5898262 L20.75,13.5833333 Z M12.8333333,13.5833333 L11.25,13.5833333 C10.7897627,13.5833333 10.4166667,13.9564294 10.4166667,14.4166667 C10.4166667,14.8415011 10.734571,15.192085 11.1454684,15.2435072 L11.25,15.25 L12.8333333,15.25 C13.2935706,15.25 13.6666667,14.876904 13.6666667,14.4166667 C13.6666667,13.9918322 13.3487623,13.6412484 12.9378649,13.5898262 L12.8333333,13.5833333 Z M20.75,7.25 L19.1666667,7.25 C18.7064294,7.25 18.3333333,7.62309604 18.3333333,8.08333333 C18.3333333,8.50816776 18.6512377,8.85875165 19.0621351,8.91017382 L19.1666667,8.91666667 L20.75,8.91666667 C21.2102373,8.91666667 21.5833333,8.54357062 21.5833333,8.08333333 C21.5833333,7.65849891 21.265429,7.30791502 20.8545316,7.25649285 L20.75,7.25 Z M12.8333333,7.25 L11.25,7.25 C10.7897627,7.25 10.4166667,7.62309604 10.4166667,8.08333333 C10.4166667,8.50816776 10.734571,8.85875165 11.1454684,8.91017382 L11.25,8.91666667 L12.8333333,8.91666667 C13.2935706,8.91666667 13.6666667,8.54357062 13.6666667,8.08333333 C13.6666667,7.65849891 13.3487623,7.30791502 12.9378649,7.25649285 L12.8333333,7.25 Z" id="Icon-Shape"></path>
            </g>
        </g>
    </g>
</svg>
