<?xml version="1.0" encoding="UTF-8"?>
<svg width="40px" height="40px" viewBox="0 0 40 40" version="1.1" xmlns="http://www.w3.org/2000/svg" xmlns:xlink="http://www.w3.org/1999/xlink">
    <!-- Generator: Sketch 60.1 (88133) - https://sketch.com -->
    <title>menu_resources</title>
    <desc>Created with Sketch.</desc>
    <g id="menu_resources" stroke="none" stroke-width="1" fill-rule="evenodd">
        <g id="mdi-light:note-text" transform="translate(3.000000, 4.000000)" fill-rule="nonzero">
            <g id="Icon">
                <path d="M22.125,0.8 L5.375,0.8 C2.50760661,0.8 0.169552206,3.06636957 0.0544416062,5.90550389 L0.05,6.125 L0.05,26.75 C0.05,29.6173934 2.31636957,31.9554478 5.15550389,32.0705584 L5.375,32.075 L29.75,32.075 C32.6173934,32.075 34.9554478,29.8086304 35.0705584,26.9694961 L35.075,26.75 L35.075,13.75 L22.125,0.8 Z M20.675,2.075 L20.675,9.875 C20.675,12.7423934 22.9413696,15.0804478 25.7805039,15.1955584 L26,15.2 L33.8,15.2 L33.8,26.75 C33.8,28.9189728 32.0949819,30.6897174 29.9521358,30.7950435 L29.75,30.8 L5.375,30.8 C3.20602716,30.8 1.43528264,29.0949819 1.3299565,26.9521358 L1.325,26.75 L1.325,6.125 C1.325,3.95602716 3.03001808,2.18528264 5.17286415,2.0799565 L5.375,2.075 L20.675,2.075 Z M29.45,23.3 L5.675,23.3 L5.675,24.575 L29.45,24.575 L29.45,23.3 Z M16.325,15.8 L5.675,15.8 L5.675,17.075 L16.325,17.075 L16.325,15.8 Z M21.95,9.875 L21.95,2.42698593 L33.4480141,13.925 L26,13.925 C23.8310272,13.925 22.0602826,12.2199819 21.9549565,10.0771358 L21.95,9.875 Z M16.325,8.3 L5.675,8.3 L5.675,9.575 L16.325,9.575 L16.325,8.3 Z" id="Icon-Shape"></path>
            </g>
        </g>
    </g>
</svg>
