<?xml version="1.0" encoding="UTF-8"?>
<svg width="40px" height="40px" viewBox="0 0 40 40" version="1.1" xmlns="http://www.w3.org/2000/svg" xmlns:xlink="http://www.w3.org/1999/xlink">
    <!-- Generator: Sketch 63.1 (92452) - https://sketch.com -->
    <title>menu_iot</title>
    <desc>Created with Sketch.</desc>
    <g id="menu_cloud" stroke="none" stroke-width="1" fill-rule="evenodd">
        <g id="et-cloud" transform="translate(5.000000, 3.000000)" fill-rule="nonzero">
            <g id="Icon">
            <path d="M16.9794173,0.484448256 L17.1642687,0.634825056 L17.2680836,0.732608167 C17.8253176,1.28984211 18.0643823,2.0451771 17.9852357,2.77243195 L26.9628014,7.52875489 C27.8415081,6.84158994 29.0785122,6.82144491 29.9793898,7.48444787 L30.1642411,7.63482454 L30.2680559,7.73260757 C31.2439814,8.70853302 31.2439814,10.292097 30.2680559,11.2680224 C29.9603442,11.5757341 29.5925094,11.7865193 29.2024714,11.9003836 L29.0071669,22.051593 C29.3511265,22.1225021 29.6834309,22.2665966 29.9794447,22.4844486 L30.1642963,22.6348256 L30.2681113,22.7326088 C31.2440736,23.7085711 31.2439923,25.2911943 30.2676908,26.2684498 C29.4083983,27.1269027 28.079747,27.2298751 27.1082045,26.5772467 L17.818413,31.5632977 C18.1825803,32.4654055 17.9989945,33.5364663 17.2677295,34.2670168 C16.2914528,35.2442473 14.7087803,35.2443287 13.7318887,34.2674371 C13.0896643,33.6252127 12.8700859,32.7202924 13.0732037,31.8980377 L4.04869609,26.4633191 C3.0672769,27.2389445 1.6385684,27.1738946 0.732688228,26.2680145 C-0.244118648,25.2912076 -0.244200043,23.7085404 0.732267943,22.7330265 C1.09193993,22.3730031 1.535196,22.144955 2.00072361,22.0503048 L2.00011693,11.9498933 C1.53570179,11.8555339 1.09301306,11.6281736 0.733011839,11.2678203 C-0.244226539,10.2915357 -0.244307887,8.70885055 0.732591534,7.73195113 C1.5727035,6.89183916 2.86232955,6.77495653 3.82818169,7.3811096 L13.0070842,2.68869484 C12.9543437,1.98762967 13.1960864,1.2686639 13.7322456,0.733028467 C14.6134917,-0.149078597 15.996515,-0.238920902 16.9794173,0.484448256 Z M14.4391518,31.4382452 C13.8537287,32.0242405 13.8536799,32.9732959 14.4386225,33.5582384 C15.0245453,34.1441612 15.9727841,34.1441125 16.5586157,33.5577091 C17.0952261,33.0216227 17.1399027,32.1801649 16.7071129,31.6066653 L16.5772522,31.4573306 L16.4856281,31.3708547 C15.8953148,30.8525253 14.998086,30.8798576 14.4391518,31.4382452 Z M12.0924165,20.0035674 L4.97042141,24.1151966 C5.05284904,24.6475927 4.96300016,25.2016222 4.70085833,25.6874111 L13.5059285,30.9913019 C13.574432,30.9009053 13.6498922,30.8140936 13.7323092,30.731596 C14.0918811,30.3723755 14.5349162,30.1447917 15.0001546,30.0502798 L14.9991641,21.5368197 C13.8408587,21.4085741 12.8150504,20.8405976 12.0924165,20.0035674 Z M18.9075298,20.0035926 C18.1847726,20.8407093 17.1587422,21.4087039 16.0001534,21.536863 L16.0007683,30.0503211 C16.3429064,30.1199247 16.6736121,30.2618259 16.9686319,30.476593 L17.16357,30.6343118 L17.261,30.726 L26.3826934,25.8299823 C26.0566056,25.3119408 25.9389135,24.7005165 26.0295998,24.1152609 L18.9075298,20.0035926 Z M1.43895503,23.4399202 C0.853569056,24.0247345 0.853617822,24.9729614 1.43948455,25.5588281 C2.02437744,26.143721 2.97346179,26.1437747 3.55845525,25.5594107 C4.09504502,25.0222439 4.13980182,24.1799512 3.70781216,23.607062 L3.57818798,23.4579306 L3.48644173,23.371345 C2.89518235,22.8521387 1.99875504,22.8795738 1.43895503,23.4399202 Z M27.4389605,23.4399257 C26.8535672,24.0247472 26.853616,24.9729859 27.43949,25.5588599 C28.0243838,26.1437537 28.9734391,26.1438025 29.5584242,25.5593894 C30.095062,25.0222271 30.1398228,24.1799935 29.7077437,23.6070703 L29.5780928,23.4579271 L29.4863203,23.3713059 C28.8951601,22.8521433 27.9987571,22.8795827 27.4389605,23.4399257 Z M26.3854153,10.8345033 L19.4207319,14.8542995 C19.7895317,15.5071334 20,16.2612596 20,17.0645415 C20,17.8278152 19.8099239,18.5467193 19.4745212,19.1765046 L26.385423,23.1658321 C26.482646,23.0122194 26.598262,22.8669066 26.7322705,22.7330291 C27.0937354,22.371211 27.5396209,22.1426861 28.0076878,22.0488999 L28.2000826,11.9827725 C27.6637495,11.9183214 27.1444234,11.6802071 26.7330614,11.2684427 C26.5987116,11.1342241 26.4828299,10.9885247 26.3854153,10.8345033 Z M4.26809022,11.267442 C3.90784815,11.6276489 3.46522152,11.8550323 3.00104015,11.9496002 L3.00020816,22.0501661 C3.34665754,22.1205587 3.68146658,22.2651244 3.97949899,22.4844466 L4.16435384,22.6348134 L4.26819158,22.7326094 C4.40207171,22.8665026 4.51758308,23.011814 4.61472513,23.165414 L11.5254564,19.1764772 C11.1900703,18.5466929 11,17.8277962 11,17.0645415 C11,16.2615636 11.2103131,15.5076937 11.5788518,14.8550195 L4.61476084,10.8344296 C4.51758673,10.9881071 4.40202961,11.1334896 4.26809022,11.267442 Z M15.499822,13.5643635 C13.5670433,13.5643635 12,15.1315032 12,17.0645415 C12,18.997272 13.5670915,20.5643635 15.499822,20.5643635 C17.4328603,20.5643635 19,18.9973201 19,17.0645415 C19,15.131455 17.4329085,13.5643635 15.499822,13.5643635 Z M17.2678573,4.26825207 C16.9076987,4.62805889 16.4651331,4.85517979 16.0009867,4.94961477 L16.0001644,12.5918649 C17.11904,12.715633 18.1142698,13.2496008 18.8321261,14.0400407 L26.029566,9.88439813 C25.947012,9.35114602 26.0373401,8.79637668 26.3005242,8.31057689 L17.6731434,3.73772234 C17.5649226,3.92758831 17.4298276,4.10628179 17.2678573,4.26825207 Z M13.2881797,3.66662737 L4.58394876,8.11770372 C4.93529986,8.64661422 5.0641084,9.27961998 4.97040554,9.88471609 L12.1678156,14.0400653 C12.8855457,13.2497095 13.8805556,12.7157593 14.9991532,12.5919081 L15.0000975,4.94981822 C14.5356786,4.85550625 14.0929576,4.62831752 13.7328921,4.26825201 C13.5506751,4.08621289 13.4024385,3.88304287 13.2881797,3.66662737 Z M1.43971828,8.43898245 C0.853314603,9.02538613 0.853363381,9.97440311 1.44024798,10.5607154 C2.02555591,11.1465955 2.97461371,11.1465516 3.56098407,10.5602385 C4.09753092,10.0236392 4.14229241,9.18072929 3.69513969,8.59259859 L3.56162002,8.43956508 C2.97502717,7.8536023 2.02515213,7.85354861 1.43971828,8.43898245 Z M27.4390697,8.44016777 C26.8534182,9.02524738 26.8535158,9.97475666 27.4401291,10.560798 C28.0252725,11.1465133 28.974033,11.1464646 29.5602295,10.5602681 C30.0966186,10.023879 30.1413177,9.18064178 29.709077,8.60739254 L29.5793793,8.45817914 L29.4875563,8.37151028 C28.8960708,7.85206197 27.9991744,7.87951639 27.4390697,8.44016777 Z M14.4389042,1.44028545 C13.853586,2.02549709 13.8536348,2.97526012 14.4394338,3.56095262 C15.0243652,4.14634913 15.9734419,4.14634913 16.5589453,3.56095262 C17.0950515,3.02442009 17.1397271,2.18095743 16.7077143,1.60755493 L16.578085,1.45830163 L16.4863105,1.3716096 C15.8951369,0.852022422 14.9987136,0.879484177 14.4389042,1.44028545 Z" id="Combined-Shape"></path>
        </g>
    </g>
</g>
</svg>
