<?xml version="1.0" encoding="UTF-8"?>
<svg width="40px" height="40px" viewBox="0 0 40 40" version="1.1" xmlns="http://www.w3.org/2000/svg" xmlns:xlink="http://www.w3.org/1999/xlink">
    <!-- Generator: Sketch 60 (88103) - https://sketch.com -->
    <title>menu_caseStudies</title>
    <desc>Created with Sketch.</desc>
    <g id="menu_caseStudies" stroke="none" stroke-width="1" fill-rule="evenodd">
        <g id="simple-line-icons:notebook" transform="translate(6.000000, 4.000000)" fill-rule="nonzero">
            <g id="Icon">
                <path d="M24.53125,0.25 L4.59375,0.25 C4.18146292,0.25 3.83788408,0.341621024 3.55740672,0.522574162 C3.27365429,0.705640247 3.07729494,0.924313153 2.96250233,1.18038898 C2.86591175,1.39586028 2.80786461,1.62664135 2.78850937,1.87392469 L2.78125,2.0625 L2.78125,6.28125 L1.4375,6.28125 C1.23544377,6.28125 1.07186393,6.35188675 0.931488171,6.50006116 C0.787899942,6.65162651 0.71875,6.82450137 0.71875,7.03125 C0.71875,7.15621186 0.750019069,7.2773795 0.814338235,7.39797794 C0.874329707,7.51046195 0.958288049,7.59442029 1.07077206,7.65441176 C1.16122089,7.70265114 1.25198989,7.73229983 1.34443963,7.74410922 L1.4375,7.75 L2.78125,7.75 L2.78125,12.28125 L1.53125,12.28125 C1.40628814,12.28125 1.2851205,12.3125191 1.16452206,12.3768382 C1.05203805,12.4368297 0.968079707,12.520788 0.908088235,12.6332721 C0.843769069,12.7538705 0.8125,12.8750381 0.8125,13 C0.8125,13.2049189 0.880192265,13.3703889 1.0205267,13.5107233 C1.13279424,13.6229908 1.26114854,13.6887674 1.41291803,13.7105873 L1.53125,13.71875 L2.78125,13.71875 L2.78125,18.28125 L1.5,18.28125 C1.41075161,18.28125 1.32622793,18.2996247 1.24407574,18.3369666 C1.15227558,18.378694 1.0692283,18.4326747 0.99421596,18.4993523 C0.929151724,18.5571872 0.878040047,18.6302039 0.840144231,18.7211538 C0.800505166,18.8162876 0.78125,18.9087124 0.78125,19 C0.78125,19.2039062 0.853442967,19.3748896 1.0049017,19.5263483 C1.12684509,19.6482917 1.25439387,19.7182627 1.39345412,19.7413734 L1.5,19.75 L2.78125,19.75 L2.78125,24.25 L1.5,24.25 C1.4372661,24.25 1.37428671,24.2578724 1.31063391,24.2737856 C1.24937494,24.2891004 1.19259337,24.311813 1.13965973,24.3420608 C1.086292,24.3725566 1.03626262,24.4110408 0.989276695,24.4580267 C0.942290775,24.5050126 0.903806636,24.555042 0.873310786,24.6084097 C0.843062997,24.6613434 0.820350367,24.7181249 0.805035625,24.7793839 C0.789122423,24.8430367 0.78125,24.9060161 0.78125,24.96875 C0.78125,25.1726562 0.853442967,25.3436396 1.0049017,25.4950983 C1.12684509,25.6170417 1.25439387,25.6870127 1.39345412,25.7101234 L1.5,25.71875 L2.78125,25.71875 L2.78125,30 C2.78125,30.6543794 2.96281167,31.0927844 3.31624118,31.3427711 C3.64655526,31.5764079 3.99735109,31.708713 4.37273817,31.7417464 L4.5625,31.75 L24.53125,31.75 C25.2984664,31.75 25.9431578,31.4845388 26.4794733,30.9482233 C26.9670329,30.4606637 27.2307459,29.8835373 27.2746643,29.2062137 L27.28125,29 L27.28125,3 C27.28125,2.23278362 27.0157888,1.58809223 26.4794733,1.0517767 C25.9919137,0.564217117 25.4147873,0.300504131 24.7374637,0.256585734 L24.53125,0.25 Z M20.78125,1.75 L20.78125,30.25 L4.28125,30.25 L4.28125,25.71875 L5.5625,25.71875 C5.76640623,25.71875 5.93738958,25.646557 6.0888483,25.4950983 C6.24030703,25.3436396 6.3125,25.1726562 6.3125,24.96875 C6.3125,24.8774624 6.29324483,24.7850376 6.25360577,24.6899038 C6.21570995,24.5989539 6.16459828,24.5259372 6.09953404,24.4681023 C6.0245217,24.4014247 5.94147442,24.347444 5.84967426,24.3057166 C5.79582465,24.2812395 5.73565039,24.2646356 5.66851159,24.256286 L5.5625,24.25 L4.28125,24.25 L4.28125,19.75 L5.5625,19.75 C5.70301948,19.75 5.8226729,19.7163475 5.9273106,19.6490804 C6.04301827,19.5746969 6.13719688,19.4805183 6.21158038,19.3648106 C6.27884747,19.2601729 6.3125,19.1405195 6.3125,19 C6.3125,18.7979438 6.24186325,18.6343639 6.09368884,18.4939882 C5.97243656,18.3791176 5.83754619,18.3118875 5.68258484,18.2895903 L5.5625,18.28125 L4.28125,18.28125 L4.28125,13.71875 L5.59375,13.71875 C5.73892777,13.71875 5.86280532,13.6877806 5.96971527,13.6266892 C6.07679078,13.5655032 6.15925321,13.4830408 6.22043921,13.3759653 C6.28153061,13.2690553 6.3125,13.1451778 6.3125,13 C6.3125,12.9022405 6.29610963,12.8038983 6.26282918,12.7040569 C6.23483308,12.6200687 6.19137637,12.5532122 6.13078404,12.4993523 C6.0557717,12.4326747 5.97272442,12.378694 5.88092426,12.3369666 C5.82707465,12.3124895 5.76690039,12.2958856 5.69976159,12.287536 L5.59375,12.28125 L4.28125,12.28125 L4.28125,7.75 L5.5,7.75 C5.70491889,7.75 5.87038887,7.68230774 6.0107233,7.5419733 C6.15105774,7.40163887 6.21875,7.23616889 6.21875,7.03125 C6.21875,6.82450137 6.14960006,6.65162651 6.00601183,6.50006116 C5.89371122,6.38152163 5.76656,6.31260621 5.61673875,6.28978162 L5.5,6.28125 L4.28125,6.28125 L4.28125,1.75 L20.78125,1.75 Z M24.53125,1.75 C24.8690104,1.75 25.1667771,1.8757237 25.4111517,2.1200983 C25.6206156,2.32956225 25.7429075,2.57825301 25.7735733,2.85773319 L25.78125,3 L25.78125,29 C25.78125,29.3377604 25.6555263,29.6355271 25.4111517,29.8799017 C25.2016877,30.0893656 24.952997,30.2116575 24.6735168,30.2423233 L24.53125,30.25 L22.28125,30.25 L22.28125,1.75 L24.53125,1.75 Z" id="Icon-Shape"></path>
            </g>
        </g>
    </g>
</svg>
