<?xml version="1.0" encoding="UTF-8"?>
<svg width="40px" height="40px" viewBox="0 0 40 40" version="1.1" xmlns="http://www.w3.org/2000/svg" xmlns:xlink="http://www.w3.org/1999/xlink">
    <!-- Generator: Sketch 60 (88103) - https://sketch.com -->
    <title>menu_cloud</title>
    <desc>Created with Sketch.</desc>
    <g id="menu_cloud" stroke="none" stroke-width="1" fill-rule="evenodd">
        <g id="et-cloud" transform="translate(1.000000, 6.000000)" fill-rule="nonzero">
            <g id="Icon">
                <path d="M18.553204,0 C25.5109371,0 30.2345131,4.94178138 30.7905486,11.4957291 L30.7978272,11.6004904 L30.8091005,11.6016717 C34.3957238,12.0141836 37.7357538,15.6366769 37.985095,19.7985463 L37.9963239,20.0488844 L38,20.2955419 C38,24.4133201 34.1036511,28.8389657 29.9499054,28.9957114 L29.7231041,29 L8.27689594,29 C3.86035699,29 0,24.9343573 0,20.2955419 C0,16.9188117 2.35613035,13.2118057 5.75581083,12.0228622 L5.83792593,11.995568 L5.84570749,11.8564331 C6.26215194,5.25078114 11.3345856,0.30079698 17.9434934,0.0132167049 L18.2495995,0.00326530029 L18.553204,0 Z M18.553204,1.35972329 C12.3222776,1.35972329 7.88271935,5.77967026 7.25644437,11.4070597 L7.22938272,11.6707056 L7.48974127,11.6373024 C7.66930404,11.616875 7.84396825,11.6031426 8.01734501,11.5962573 L8.27689594,11.5910838 L9.61728395,11.5910838 C9.99359084,11.5910838 10.2986479,11.8954682 10.2986479,12.2709454 C10.2986479,12.6151329 10.0423152,12.8995826 9.709741,12.9446007 L9.61728395,12.9508071 L8.27689594,12.9508071 C4.3311957,12.9508071 1.36272781,16.8215083 1.36272781,20.2955419 C1.36272781,24.1300342 4.47559047,27.505444 8.06121244,27.6363387 L8.27689594,27.6402767 L29.7231041,27.6402767 C33.2332736,27.6402767 36.6372722,23.812939 36.6372722,20.2955419 C36.6372722,16.6315708 33.8954251,13.5485159 30.9805775,12.9994144 L30.8503704,12.9776449 L30.851264,14.0541891 C30.851264,14.3983765 30.5949313,14.6828263 30.2623571,14.7278444 L30.1699001,14.7340507 C29.8249521,14.7340507 29.5398738,14.4782833 29.4947562,14.1464423 L29.4885362,14.0541891 L29.4885362,12.7167563 C29.4885362,6.34824197 25.3316652,1.35972329 18.553204,1.35972329 Z" id="Icon-Shape"></path>
            </g>
        </g>
    </g>
</svg>
