<?xml version="1.0" encoding="UTF-8"?>
<svg width="40px" height="40px" viewBox="0 0 40 40" version="1.1" xmlns="http://www.w3.org/2000/svg" xmlns:xlink="http://www.w3.org/1999/xlink">
    <!-- Generator: Sketch 60 (88103) - https://sketch.com -->
    <title>menu_mobile</title>
    <desc>Created with Sketch.</desc>
    <g id="menu_mobile" stroke="none" stroke-width="1" fill-rule="evenodd">
        <g id="et-mobile" transform="translate(3.000000, 3.000000)" fill-rule="nonzero">
            <g id="Icon">
                <g id="Icon-Group">
                    <path d="M23.5,0.85 C24.4098427,0.85 25.15,1.59015729 25.15,2.5 L25.15,2.5 L25.15,7.5 C25.15,7.85898509 24.8589851,8.15 24.5,8.15 C24.1410149,8.15 23.85,7.85898509 23.85,7.5 L23.85,7.5 L23.85,2.5 C23.85,2.30670034 23.6932997,2.15 23.5,2.15 L23.5,2.15 L2.5,2.15 C2.30670034,2.15 2.15,2.30670034 2.15,2.5 L2.15,2.5 L2.15,31.5 C2.15,31.6932997 2.30670034,31.85 2.5,31.85 L2.5,31.85 L16.5,31.85 C16.8589851,31.85 17.15,32.1410149 17.15,32.5 C17.15,32.8589851 16.8589851,33.15 16.5,33.15 L16.5,33.15 L2.5,33.15 C1.59015729,33.15 0.85,32.4098427 0.85,31.5 L0.85,31.5 L0.85,2.5 C0.85,1.59015729 1.59015729,0.85 2.5,0.85 L2.5,0.85 Z M31.5,9.85 C32.3619563,9.85 33.0716187,10.5142963 33.1439323,11.3578339 L33.15,11.5 L33.15,31.5 C33.15,32.3619563 32.4857037,33.0716187 31.6421661,33.1439323 L31.5,33.15 L20.5,33.15 C19.6380437,33.15 18.9283813,32.4857037 18.8560677,31.6421661 L18.85,31.5 L18.85,11.5 C18.85,10.6380437 19.5142963,9.92838134 20.3578339,9.85606772 L20.5,9.85 L31.5,9.85 Z M31.5,10.85 L20.5,10.85 L20.4039478,10.8570477 C20.1253348,10.8983151 19.9043467,11.1163731 19.8586778,11.393527 L19.85,11.5 L19.85,31.5 L19.8570477,31.5960522 C19.8983151,31.8746652 20.1163731,32.0956533 20.393527,32.1413222 L20.5,32.15 L31.5,32.15 L31.5960522,32.1429523 C31.8746652,32.1016849 32.0956533,31.8836269 32.1413222,31.606473 L32.15,31.5 L32.15,11.5 L32.1429523,11.4039478 C32.0965265,11.0905082 31.8263501,10.85 31.5,10.85 Z M13,28 C13.5522847,28 14,28.4477153 14,29 C14,29.5522847 13.5522847,30 13,30 C12.4477153,30 12,29.5522847 12,29 C12,28.4477153 12.4477153,28 13,28 Z M26,28 C26.5522847,28 27,28.4477153 27,29 C27,29.5522847 26.5522847,30 26,30 C25.4477153,30 25,29.5522847 25,29 C25,28.4477153 25.4477153,28 26,28 Z" id="Combined-Shape"></path>
                </g>
            </g>
        </g>
    </g>
</svg>
