<?xml version="1.0" encoding="UTF-8"?>
<svg width="40px" height="40px" viewBox="0 0 40 40" version="1.1" xmlns="http://www.w3.org/2000/svg" xmlns:xlink="http://www.w3.org/1999/xlink">
    <!-- Generator: Sketch 60 (88103) - https://sketch.com -->
    <title>menu_apple</title>
    <desc>Created with Sketch.</desc>
    <g id="menu_apple" stroke="none" stroke-width="1" fill-rule="evenodd">
        <g id="Icon" transform="translate(6.000000, 2.000000)" fill-rule="nonzero">
            <path d="M22.1776565,9.37013689 C21.8872849,9.34722442 21.5829624,9.3485983 21.2641811,9.37318938 C20.4190808,9.4383812 19.542266,9.65030873 18.4468778,10.0215384 L17.8976241,10.2147298 C17.5471436,10.3423234 16.8594948,10.5951632 16.5573085,10.7020193 L16.4718473,10.7318591 C15.9509112,10.910183 15.5778202,11.0085024 15.2547546,11.030296 L14.9996378,11.0350193 C14.5719561,11.0343219 14.4449474,11.0098593 13.0246852,10.5072661 L12.1579484,10.1992693 C11.5555059,9.98488531 11.100076,9.83647621 10.6601092,9.71749713 C10.0087432,9.5413499 9.45296027,9.45039062 8.98720012,9.4503012 C4.24672664,9.52351314 0.473632812,13.3502087 0.473632812,19.4113932 C0.473632812,21.4348308 0.844642271,23.5306174 1.58770994,25.693054 C3.20312014,30.3220867 6.78129165,35.3420767 9.48185583,35.2606237 C9.98993851,35.2486816 10.4820521,35.1396818 11.1306666,34.9142962 L11.7651608,34.6811227 C11.8772458,34.6387881 11.9906079,34.5959022 12.0049695,34.5904928 C13.4427257,34.0489607 14.3547422,33.8230469 15.5953125,33.8230469 C16.6912106,33.8230469 17.4783468,34.0054163 18.7264223,34.469774 L19.4296001,34.7381106 C20.4125374,35.1113497 21.0128268,35.2604167 21.7279733,35.2604944 C24.2656733,35.2239605 27.2512049,31.362479 28.8618656,27.3131151 L28.9719836,27.0303422 L29.062,26.787 L29.0016165,26.7553128 C27.8342522,26.1108088 26.8920009,25.3191313 26.1582815,24.4080409 L25.944405,24.1311591 L25.759258,23.8711991 C25.0926122,22.897454 24.6721801,21.8566563 24.4495085,20.802833 C24.3244059,20.2107683 24.2763423,19.7072634 24.2722328,19.2734726 L24.274342,19.0368201 C24.2584938,16.2505124 25.3572483,14.0219159 27.5616248,12.3163595 L27.820882,12.1218838 L27.956,12.025 L27.9079072,11.9672383 C26.6824459,10.5714609 25.0098278,9.73028598 22.8719863,9.44280215 L22.5113686,9.4000148 L22.1776565,9.37013689 Z M21.8417484,10.7950548 L22.0662552,10.8054828 C23.0231382,10.8813466 23.8578185,11.0606603 24.5893805,11.353158 L24.8589199,11.4681692 L25.7726071,11.8834815 L25.1154207,12.6420425 C23.5986853,14.3927424 22.8311048,16.5204394 22.8349676,19.0240594 C22.8217207,19.6731574 22.883643,20.3493889 23.0399388,21.0973771 C23.3077352,22.3735945 23.814697,23.579779 24.565899,24.6812834 C25.0899996,25.4478251 25.7197033,26.1411127 26.4535902,26.7556953 L26.7744876,27.0142532 L27.2553427,27.3870262 L26.9897329,27.9344134 C26.4515482,29.0435418 25.8176506,30.128728 25.1749423,31.0233085 C24.5162908,31.9398935 23.8445711,32.6724616 23.2063879,33.1607665 C22.6683634,33.5706899 22.178328,33.7996784 21.7044601,33.8164063 C21.2517702,33.8113301 20.8363414,33.7160104 20.1397507,33.4595632 L19.1037619,33.0665838 C18.6114111,32.8846373 18.2733346,32.7770854 17.871348,32.6712926 C17.100725,32.4724222 16.3639528,32.374707 15.5953125,32.374707 C14.801484,32.374707 14.0400574,32.4705026 13.263048,32.6637238 C12.8551555,32.7664306 12.4902096,32.8776701 12.0273728,33.0409742 L10.6583212,33.5500156 C10.1395357,33.7295952 9.78387265,33.8103729 9.42154948,33.8164063 C9.33841036,33.8164063 9.26971454,33.8078193 9.20945571,33.7956498 C9.09806992,33.7753979 8.98176439,33.7394489 8.88757027,33.6978224 C8.61947873,33.5905857 8.32931589,33.4129627 8.0126569,33.1689675 C7.34544919,32.6494986 6.63301995,31.8605274 5.90999907,30.8519767 C4.72881468,29.1940234 3.5474101,26.9223878 2.95414651,25.2185169 C2.26374002,23.2100616 1.91764323,21.2703362 1.91764323,19.4070638 C1.91764323,16.6869673 2.71522239,14.4833838 4.22975688,12.9441052 C5.49420178,11.665237 7.20736849,10.9295528 9.00997566,10.8901793 C9.29320569,10.8949798 9.6446346,10.9485717 10.0448691,11.0463946 L10.2907114,11.1103596 C10.5251865,11.1730681 10.7717024,11.2479963 11.0733959,11.3484606 L12.8408347,11.9763667 C12.9492341,12.0141656 13.0486448,12.04783 13.144411,12.0791903 L13.2859951,12.1247318 C14.0804015,12.3778943 14.5915864,12.4789714 15.1190755,12.4789714 C15.6482488,12.4789714 16.1193084,12.3778094 16.9440414,12.0941821 L18.5565446,11.509205 C19.7505968,11.0847568 20.6163223,10.8664245 21.377755,10.8104032 L21.6131602,10.7966166 L21.8417484,10.7950548 Z M21.69,0.841 L21.4517528,0.896207325 C20.0052696,1.25759127 18.467706,2.17602924 17.5082492,3.29152088 C16.4350036,4.50676513 15.7953804,5.87506111 15.6484984,7.33405455 L15.6257094,7.62704406 L15.619,7.832 C16.9750335,7.73423776 18.2840229,7.03805339 19.4806411,5.80052049 L19.7036742,5.56215308 L19.9009181,5.33819046 C21.1394474,3.86758967 21.616863,2.5407361 21.6828053,1.14811983 L21.690242,0.90163871 L21.69,0.841 Z" id="Icon-Shape"></path>
        </g>
    </g>
</svg>
