<?xml version="1.0" encoding="UTF-8"?>
<svg width="40px" height="40px" viewBox="0 0 40 40" version="1.1" xmlns="http://www.w3.org/2000/svg" xmlns:xlink="http://www.w3.org/1999/xlink">
    <!-- Generator: Sketch 60 (88103) - https://sketch.com -->
    <title>menu_nodejs</title>
    <desc>Created with Sketch.</desc>
    <g id="menu_nodejs" stroke="none" stroke-width="1" fill-rule="evenodd">
        <g id="logos-nodejs-icon" transform="translate(4.000000, 2.000000)" fill-rule="nonzero">
            <g id="Icon">
                <path d="M17.2607061,0.832038637 C16.6490461,0.489509027 15.8157216,0.460964892 15.1723987,0.743398924 L15.0019671,0.828134331 L1.67813301,8.54181965 C1.03662772,8.91201196 0.619659548,9.58068088 0.559306488,10.3163556 L0.551724138,10.5015363 L0.551724138,25.8947429 C0.551724138,26.6399778 0.919345751,27.3374962 1.52090333,27.754904 L1.67608903,27.8532858 L5.15139947,29.8403091 C6.2907646,30.3988214 6.88456303,30.5776953 7.54089211,30.6115833 L7.88465285,30.6186641 L7.98041666,30.6187348 C10.0918409,30.6187348 11.2848953,29.4289649 11.3646644,27.2354576 L11.3689421,26.9966066 L11.3688276,11.9536552 L9.96744828,11.9536552 L9.96790264,26.9967326 C9.96790264,28.7137055 8.29157035,29.7630915 6.31966246,28.9839549 L6.1279563,28.9028074 L5.93468281,28.8100098 L2.32427686,26.722244 C2.03656928,26.5783903 1.86546092,26.2901187 1.82717926,25.9902949 L1.81895239,25.8614791 L1.81895239,10.4681465 C1.81895239,10.1677336 1.95409731,9.85989217 2.18886501,9.68786082 L2.29547553,9.62286561 L15.5881382,1.96163601 C15.8304165,1.80011712 16.1487385,1.77992726 16.4450411,1.88838298 L16.5703939,1.94270329 L29.8647603,9.60725554 C30.1541855,9.75196814 30.3240056,10.0206359 30.3619384,10.3321351 L30.3700847,10.4680205 L30.3700847,25.8614791 C30.3700847,26.1835601 30.2364427,26.474399 30.0013325,26.6421539 L29.8944525,26.7062453 L16.6008989,34.4011274 C16.3586206,34.5626463 16.0402986,34.5828361 15.7388793,34.471376 L15.6110055,34.4155753 L12.2902069,32.4281379 L12.1900094,32.4860805 C11.7460296,32.7365769 11.4810179,32.8725255 11.1495636,33.0046988 L10.9351724,33.0857931 L14.9871086,35.4931924 C15.2348092,35.6265696 15.4855422,35.7160959 15.74099,35.7609603 L15.9334863,35.7862219 L16.1279084,35.7946593 C16.4626713,35.7946593 16.8100746,35.7332679 17.092677,35.6330269 L17.2538429,35.5684008 L30.5777358,27.8544295 C31.2191938,27.4843576 31.6361576,26.8157231 31.6965103,26.0800498 L31.7040926,25.8948689 L31.7040926,10.5015363 C31.7040926,9.75619439 31.336482,9.05868696 30.7327815,8.64012727 L30.5770139,8.54143251 L17.2607061,0.832038637 Z M19.7341339,11.487328 C16.1960115,11.487328 14.2086605,12.89439 14.2086605,15.2431414 C14.2086605,17.4338337 15.5931273,18.3196773 19.2983823,18.7333513 L20.2727292,18.8367208 C23.8118058,19.2387182 24.8271242,19.8352814 24.8271242,21.2535592 C24.8271242,23.1523827 23.3424819,23.9422312 20.2683708,23.9422312 C17.0680406,23.9422312 15.7328262,23.2512766 15.2570198,21.3416967 L15.2136231,21.1530767 L15.1768276,20.969931 L13.7423448,20.969931 L13.7442651,21.0129764 C13.8240172,23.5041365 15.4693875,25.0511969 19.5747996,25.1979839 L19.9040383,25.2066549 L20.234981,25.2094595 C24.2009813,25.2094595 26.3320816,23.7365044 26.3614709,21.1532638 C26.3614709,18.9240026 25.167367,18.1273638 21.1239515,17.5700006 L20.1582298,17.4416945 C16.4805187,16.9407547 15.7431333,16.558337 15.7431333,15.1762358 C15.7431333,13.6419521 16.8926271,12.7546823 19.7341339,12.7546823 C22.6085477,12.7546823 23.895894,13.449726 24.3995751,15.4262091 L24.4148966,15.4924138 L25.8118621,15.4924138 L25.806176,15.4261393 C25.5062767,12.8612657 23.847492,11.6297157 20.3758338,11.4990153 L20.0552218,11.4901597 L19.7341339,11.487328 Z" id="Icon-Shape"></path>
            </g>
        </g>
    </g>
</svg>
