<?xml version="1.0" encoding="UTF-8"?>
<svg width="40px" height="40px" viewBox="0 0 40 40" version="1.1" xmlns="http://www.w3.org/2000/svg" xmlns:xlink="http://www.w3.org/1999/xlink">
    <!-- Generator: Sketch 60 (88103) - https://sketch.com -->
    <title>menu_web</title>
    <desc>Created with Sketch.</desc>
    <g id="menu_web" stroke="none" stroke-width="1" fill-rule="evenodd">
        <g id="et-browser" transform="translate(0.000000, 4.000000)" fill-rule="nonzero">
            <path d="M37.6428571,0.967363531 C38.479102,0.967363531 39.169305,1.60104999 39.2434132,2.40900519 L39.25,2.55330103 L39.25,7.89705103 C39.25,7.97596231 39.2367455,8.05174276 39.2123361,8.12235929 C39.226751,8.16691474 39.237473,8.21459466 39.2436926,8.26368274 L39.25,8.36395444 L39.25,28.2275908 C39.25,29.1318536 38.607957,29.8842344 37.7821199,29.9609275 L37.6428571,29.9673635 L2.35714286,29.9673635 C1.51229851,29.9673635 0.825790029,29.2625754 0.755866268,28.3768051 L0.75,28.2275908 L0.75,8.36395444 C0.75,8.27926644 0.76335239,8.19752571 0.788039585,8.12116648 C0.773213065,8.08059895 0.762628864,8.03679271 0.756428593,7.99158756 L0.75,7.89705103 L0.75,2.55330103 C0.75,1.7264333 1.39374497,1.04680975 2.21118192,0.97384808 L2.35714286,0.967363531 L37.6428571,0.967363531 Z M37.845,8.59236353 L2.154,8.59236353 L2.1547619,28.2275908 C2.1547619,28.345192 2.22148406,28.4380349 2.30524159,28.4657158 L2.35714286,28.4741817 L37.6428571,28.4741817 C37.7314414,28.4741817 37.8129275,28.400939 37.8376289,28.2948573 L37.8452381,28.2275908 L37.845,8.59236353 Z M21.9791667,21.4517385 C22.5053659,21.4517385 22.9642857,21.7297381 22.9642857,22.147051 C22.9642857,22.4924422 22.648321,22.7443273 22.2277485,22.8200231 L22.1106121,22.836237 L21.9791667,22.8423635 L8.97321429,22.8423635 C8.44701509,22.8423635 7.98809524,22.564364 7.98809524,22.147051 C7.98809524,21.8016599 8.30405997,21.5497748 8.72463249,21.4740789 L8.84176887,21.457865 L8.97321429,21.4517385 L21.9791667,21.4517385 Z M31.0267857,14.3267385 C31.5529849,14.3267385 32.0119048,14.6047381 32.0119048,15.022051 C32.0119048,15.3674422 31.69594,15.6193273 31.2753675,15.6950231 L31.1582311,15.711237 L31.0267857,15.7173635 L8.97321429,15.7173635 C8.44701509,15.7173635 7.98809524,15.439364 7.98809524,15.022051 C7.98809524,14.6766599 8.30405997,14.4247748 8.72463249,14.3490789 L8.84176887,14.332865 L8.97321429,14.3267385 L31.0267857,14.3267385 Z M37.5608371,1.96736353 L2.93916288,1.96736353 L2.84582762,1.97332156 C2.54357096,2.01222051 2.30275592,2.2373721 2.25761547,2.52409253 L2.25,2.6217753 L2.25,7.46736353 L38.25,7.46736353 L38.25,2.6217753 L38.2436924,2.53279974 C38.1979438,2.2128536 37.9089477,1.96736353 37.5608371,1.96736353 Z M4.61904762,3.88923853 C5.11873382,3.88923853 5.52380952,4.28798493 5.52380952,4.77986353 C5.52380952,5.27174214 5.11873382,5.67048853 4.61904762,5.67048853 C4.11936142,5.67048853 3.71428571,5.27174214 3.71428571,4.77986353 C3.71428571,4.28798493 4.11936142,3.88923853 4.61904762,3.88923853 Z M8.23809524,3.88923853 C8.73778144,3.88923853 9.14285714,4.28798493 9.14285714,4.77986353 C9.14285714,5.27174214 8.73778144,5.67048853 8.23809524,5.67048853 C7.73840904,5.67048853 7.33333333,5.27174214 7.33333333,4.77986353 C7.33333333,4.28798493 7.73840904,3.88923853 8.23809524,3.88923853 Z M11.8571429,3.88923853 C12.3568291,3.88923853 12.7619048,4.28798493 12.7619048,4.77986353 C12.7619048,5.27174214 12.3568291,5.67048853 11.8571429,5.67048853 C11.3574567,5.67048853 10.952381,5.27174214 10.952381,4.77986353 C10.952381,4.28798493 11.3574567,3.88923853 11.8571429,3.88923853 Z" id="Combined-Shape"></path>
        </g>
    </g>
</svg>
