<?xml version="1.0" encoding="UTF-8"?>
<svg width="40px" height="40px" viewBox="0 0 40 40" version="1.1" xmlns="http://www.w3.org/2000/svg" xmlns:xlink="http://www.w3.org/1999/xlink">
    <!-- Generator: Sketch 60 (88103) - https://sketch.com -->
    <title>menu_partner</title>
    <desc>Created with Sketch.</desc>
    <g id="menu_partner" stroke="none" stroke-width="1" fill-rule="evenodd">
        <g id="noto-handshake-medium-light-skin-tone" transform="translate(0.000000, 5.000000)">
            <g id="Icon">
                <path d="M32.8747093,1.11805959 C33.7459852,1.11805959 34.6020615,1.47797633 35.4494431,2.2304037 L35.6448413,2.41102327 L37.8307345,4.46604537 C40.7139275,7.36991699 39.0406324,12.9364774 35.3772682,15.7755794 C35.8632194,16.7911005 35.7761052,18.0295266 35.074524,18.978511 L34.95329,19.1322505 L34.889252,19.2090842 C34.2954985,19.9141666 33.437146,20.3051599 32.5360647,20.3051599 C32.3961738,20.3051599 32.2569855,20.2957805 32.1193354,20.2771145 L32.041,20.264 L32.0404191,20.2939695 C32.0013795,20.8812501 31.7964479,21.4511338 31.4419721,21.9327731 L31.3182973,22.089954 L31.2532954,22.1679294 C30.6584314,22.8706124 29.7995546,23.2628634 28.9007408,23.2628633 C28.5967465,23.262688 28.2966407,23.217434 28.0096622,23.1302805 L27.926,23.102 L27.8870986,23.2944438 C27.7915859,23.6913997 27.6181732,24.0687249 27.3734909,24.402784 L27.2452414,24.5660987 L27.1812034,24.6429323 C26.5867853,25.3488038 25.7278185,25.7421148 24.8287911,25.7421143 C24.5356654,25.7425098 24.245957,25.700884 23.968038,25.6199985 L23.842,25.578 L23.8309668,25.6344973 C23.7337415,26.0247215 23.5609513,26.3944589 23.3200344,26.721077 L23.1298952,26.9575217 C22.5357818,27.6630314 21.6739851,28.0567042 20.773601,28.0567042 C20.0400136,28.0567042 19.3306423,27.7935253 18.768293,27.3099389 L18.3592202,26.9470596 L18.2943846,27.0158408 C17.824345,27.4686774 17.2140196,27.6997649 16.6011265,27.6997649 C16.000798,27.7003327 15.4216834,27.4777667 14.9762536,27.0752907 C14.0104343,26.2105109 13.8860084,24.7459541 14.6627928,23.7284185 L14.7743096,23.5925327 L16.7595749,21.3431868 C17.2442406,20.7963844 17.9153161,20.5167685 18.5894985,20.5167685 C19.189827,20.5162007 19.7689416,20.7387668 20.2143714,21.1412427 C21.1801907,22.0060225 21.3046166,23.4705793 20.5278322,24.488115 L20.4163154,24.6240007 L19.1222202,26.0890596 L19.5232248,26.4440043 C19.8712862,26.743272 20.314935,26.907867 20.773601,26.907867 C21.281545,26.907867 21.7691208,26.7083432 22.1327561,26.3463976 L22.2492354,26.2197843 L22.3139651,26.1421309 C22.6099379,25.7919921 22.7716716,25.3501827 22.7740264,24.8953143 L22.7673894,24.7242801 L22.6624467,23.4585658 L23.6822297,24.2155918 C24.013333,24.4613831 24.4148789,24.5938345 24.828016,24.5932776 C25.3351071,24.5932776 25.8203999,24.3942868 26.183991,24.0319681 L26.3005435,23.9051949 L26.3643344,23.8286549 C26.6951508,23.4352773 26.856871,22.9297134 26.8192522,22.4215731 L26.7992882,22.2522479 L26.5648672,20.8069194 L27.7195233,21.7073065 C28.0572326,21.9706482 28.473155,22.1137794 28.9010719,22.1140262 C29.4077965,22.1140262 29.8937324,21.9152404 30.2571409,21.555043 L30.3735995,21.4290503 L30.4372437,21.3526848 C30.8087785,20.9105324 30.9654217,20.3300165 30.8719899,19.7658597 L30.8364229,19.5972581 L30.5169287,18.3545126 L31.6566518,18.9440245 C31.9286049,19.08469 32.2284911,19.1563227 32.5360647,19.1563227 C33.0450264,19.1563227 33.5298044,18.9586825 33.8923903,18.5976832 L34.0085922,18.4713468 L34.0721995,18.3950252 C34.7308562,17.6110187 34.6747579,16.4592265 33.9626811,15.7368993 L33.8379378,15.6206247 L25.0951737,7.83442183 L25.0522202,7.80705959 L23.6080984,8.46944264 C19.5291791,10.3163025 17.1091155,11.2207849 16.1754906,11.2207849 L15.7757859,11.2145133 C14.6534406,11.1749216 14.1945812,10.9306806 13.6585123,10.0050267 C12.924241,8.73555312 13.7351272,7.34613139 15.2246338,6.25262181 C15.2411569,6.23857951 15.2583138,6.22404939 15.2755953,6.20944456 C15.9547684,5.63546774 16.6886653,5.06155005 17.4517716,4.52489169 C17.9277562,4.19015315 18.3982107,3.88193863 18.8606068,3.60440345 C18.5542775,3.48505697 18.2618676,3.38883047 17.9827561,3.3173498 C17.3466568,3.15284135 16.7808626,3.0777798 16.2562682,3.0777798 C15.5992017,3.0777798 15.0993899,3.17798746 14.3905952,3.42252848 L13.5484683,3.72704732 L13.4434471,3.76290959 C12.9017194,3.94448296 12.4552652,4.03468387 11.965734,4.03468387 C11.6361867,4.03468387 11.3022233,3.99159181 10.9500839,3.90093591 C10.6910681,3.83299733 10.4321447,3.71031261 10.1187603,3.52246718 L9.31526038,3.00696806 L9.12149805,2.88507977 C8.42380916,2.45712193 7.9249477,2.2668968 7.3924782,2.2668968 C6.82184578,2.2668968 6.23396906,2.51240222 5.58707765,3.08646848 L5.40915816,3.25124054 L3.25170109,5.27859489 C0.984025452,7.56253459 1.81647576,10.6828442 4.50647756,13.1661513 L5.86222017,14.3670596 L7.84607558,13.1287246 C8.24375,12.8801781 8.68492006,12.7621174 9.12298328,12.7621174 C9.96833741,12.7613323 10.7527922,13.2018519 11.192133,13.9240734 C11.4770632,14.3864601 11.5900776,14.90766 11.5491719,15.4118493 L11.5649528,15.3998183 C11.9905887,15.1077762 12.4721475,14.9679688 12.9474927,14.9679688 C13.7273074,14.9679688 14.4946948,15.3438953 14.97004,16.0398256 C15.7010909,17.1155997 15.4713616,18.5665898 14.4738979,19.3650304 L14.3331395,19.4697674 L10.9218387,21.8278525 C10.4962028,22.1198946 10.0146439,22.2597068 9.53929869,22.2597068 C8.7287443,22.2612946 7.97052885,21.8594753 7.51675145,21.1878452 C7.05428872,20.5073106 6.97631354,19.6766211 7.23395529,18.9559612 L7.05072674,18.9633539 C6.20572289,18.9628006 5.42187925,18.5226242 4.98157703,17.801399 C4.46487706,16.9628946 4.51352476,15.9309819 5.0202039,15.1578358 L3.9363439,14.199167 C0.731970731,11.367495 -0.416842826,7.54568139 2.28069455,4.63252345 L2.45067106,4.45531833 L4.61700056,2.41921962 C5.53237672,1.53641913 6.45312914,1.11805959 7.3924782,1.11805959 C8.18483668,1.11805959 8.85308248,1.3723726 9.71770507,1.90294432 L10.8207695,2.60449143 C11.0625631,2.75214495 11.0930536,2.75073945 11.2390226,2.78903012 C11.4959237,2.85516306 11.7337216,2.88584666 11.965734,2.88584666 C12.3137925,2.88584666 12.6446052,2.81900977 13.0783482,2.67363012 L13.7185857,2.44254328 C14.6968462,2.08363412 15.3557082,1.92894259 16.2562682,1.92894259 C16.8800582,1.92894259 17.5422676,2.01679514 18.2690888,2.20476781 C18.7647065,2.3316943 19.2851429,2.52164059 19.8281814,2.76885766 L20.133277,2.91033492 C20.2104819,2.87276887 20.2873733,2.83624249 20.3639381,2.80077746 C20.9341077,2.53667322 21.4795051,2.33483296 21.9973611,2.2018504 C22.5565256,2.05785953 23.075688,1.97260145 23.5667513,1.94051464 L23.6128796,1.93161782 C23.749384,1.92968286 23.8810654,1.92583576 24.0109193,1.92583576 C24.8126274,1.92583576 25.4234721,2.04821469 26.2360094,2.32734692 L27.1028511,2.64045756 L27.1982604,2.67299005 C27.6277516,2.81660457 27.9563463,2.88273983 28.3014535,2.88273983 C28.4740817,2.88273983 28.6527119,2.86530628 28.838761,2.82891054 L29.1214486,2.76182903 C29.2777312,2.71857498 29.3665702,2.65915111 30.3112946,2.0522459 C31.2955713,1.41993162 32.0113879,1.11805959 32.8747093,1.11805959 Z M18.5894985,21.448819 C18.2104746,21.4489598 17.8475857,21.5919975 17.5714423,21.8459245 L17.4586119,21.9614462 L15.4733467,24.2107922 C14.914117,24.8445858 14.97004,25.8201308 15.5976199,26.3855741 C15.8962206,26.6546137 16.2902687,26.792621 16.691481,26.7686768 C17.0425418,26.7477256 17.373409,26.6043126 17.6278232,26.3660388 L17.7320131,26.258194 L19.7172783,24.0088481 C20.276508,23.3750545 20.220585,22.3995094 19.5930051,21.8340661 C19.3164971,21.5855196 18.9592115,21.448819 18.5894985,21.448819 Z M12.9474927,15.9000182 C12.6937682,15.9000182 12.4465162,15.9647438 12.225514,16.0870034 L12.0962209,16.1672057 L8.68492006,18.5252907 C7.99209666,19.0037427 7.81500727,19.9637536 8.29035247,20.6658975 C8.57307413,21.0822129 9.03909884,21.3307594 9.53929869,21.3307594 C9.79302326,21.3307594 10.0402753,21.2660338 10.2612774,21.1437742 L10.3905705,21.0635719 L13.8018714,18.7054869 C14.4946948,18.2270349 14.6717842,17.267024 14.196439,16.5648801 C13.9137173,16.1485647 13.4476926,15.9000182 12.9474927,15.9000182 Z M9.12298328,13.6941679 C8.90177689,13.6941679 8.68454724,13.7438772 8.48720131,13.8385237 L8.3431686,13.9178597 L6.2646984,15.2165153 C5.55634084,15.6576853 5.33886265,16.5990552 5.77692587,17.3136265 C5.98198353,17.6543778 6.31544251,17.8983657 6.70227101,17.9906904 C7.04074595,18.0714744 7.39520451,18.0302037 7.70418943,17.876992 L7.83364826,17.8045058 L9.90901163,16.5089571 C10.6173692,16.0677871 10.8348474,15.1264172 10.3967842,14.4118459 C10.123383,13.9613554 9.64493096,13.6941679 9.12298328,13.6941679 Z M32.8747093,2.2668968 C32.3428924,2.2668968 31.8446485,2.45662596 31.1475592,2.88357013 L30.1927029,3.49402557 L30.1489526,3.52071145 C29.8348473,3.70852206 29.5752097,3.83097815 29.3145677,3.89848805 C28.9660433,3.98820719 28.6290235,4.03157703 28.3014535,4.03157703 C27.8153445,4.03157703 27.3712357,3.94219261 26.8339372,3.76252918 L26.1552318,3.51797634 C25.2931461,3.20168998 24.7516054,3.07467297 24.0109193,3.07467297 C23.9230343,3.07467297 23.8338779,3.0768062 23.7433144,3.0811416 L23.471459,3.1431193 C20.7935819,3.75552811 19.3612092,4.41449409 16.4780395,6.79060918 C16.2702559,6.91935547 16.0763394,7.05214904 15.897791,7.18713927 L15.7959951,7.27558529 L15.2025455,7.80379272 C14.6333935,8.41000373 14.4071951,9.00488685 14.6528247,9.42955316 L14.7673625,9.61799816 C15.0400216,10.0360927 15.2452592,10.0719477 16.1754906,10.0719477 C16.8806229,10.0719477 19.263627,9.17331404 23.1537252,7.41358147 L23.9922202,7.02905959 L24.0259206,6.99583049 C24.4647243,6.58796685 25.1171338,6.51871761 25.6304903,6.81244273 L25.7463283,6.88667987 L25.8562664,6.9738702 L34.5935832,14.7553489 L34.6971247,14.8490981 C37.7954314,12.42924 39.2507946,7.78664648 37.1673329,5.43602154 L37.0297045,5.28932193 L34.8534481,3.24378001 C34.1404572,2.55869976 33.4968485,2.2668968 32.8747093,2.2668968 Z" id="Combined-Shape" fill-rule="nonzero"></path>
                <path d="M16.0884993,18.3015988 C16.4768532,18.3015988 16.8434593,18.4538336 17.1199673,18.7334484 C17.6947311,19.311319 17.6947311,20.252689 17.1199673,20.8336664 L13.4694404,24.509048 C13.1929324,24.785556 12.8294331,24.9408975 12.4379724,24.9408975 C12.0465116,24.9408975 11.6830124,24.7886628 11.4065044,24.509048 C10.8317406,23.9311773 10.8317406,22.9898074 11.4065044,22.4088299 L15.0539244,18.7303416 C15.3335392,18.4538336 15.6970385,18.3015988 16.0884993,18.3015988 M16.0884993,17.3695494 C15.4764535,17.3695494 14.8644077,17.6056686 14.3952762,18.0748001 L10.7478561,21.7532885 C9.81269985,22.6946584 9.81269985,24.2232195 10.7478561,25.1645894 C11.194423,25.6178598 11.8047844,25.8720837 12.4410792,25.8698548 C13.053125,25.8698548 13.6651708,25.6337209 14.1343023,25.1645894 L17.7817224,21.486101 C18.7168786,20.5447311 18.7168786,19.0161701 17.7817224,18.0748001 C17.3336696,17.6237359 16.7242745,17.3699145 16.0884993,17.3695494 L16.0884993,17.3695494 Z" id="Icon-Shape" fill-rule="nonzero"></path>
                <g id="Icon-Clipped" transform="translate(12.475654, 0.697311)">
                    <g id="Icon-Group" transform="translate(0.000000, 0.573038)"></g>
                </g>
            </g>
        </g>
    </g>
</svg>
