<?xml version="1.0" encoding="UTF-8"?>
<svg width="40px" height="40px" viewBox="0 0 40 40" version="1.1" xmlns="http://www.w3.org/2000/svg" xmlns:xlink="http://www.w3.org/1999/xlink">
    <!-- Generator: Sketch 60 (88103) - https://sketch.com -->
    <title>menu_process</title>
    <desc>Created with Sketch.</desc>
    <g id="menu_process" stroke="none" stroke-width="1" fill-rule="evenodd">
        <g id="uil-process" transform="translate(5.000000, 5.000000)" fill-rule="nonzero">
            <g id="Icon">
                <path d="M26.758,22.335 L20.529,22.3365 C20.2068339,22.3365 19.9456667,22.5976672 19.9456667,22.9198333 C19.9456667,23.1819443 20.1196146,23.4067392 20.3508122,23.4778987 L20.439967,23.4971547 L20.529,23.5031667 L25.9911438,23.5031667 L24.0128966,25.2523201 C21.5222218,27.4545585 18.3121287,28.6701304 14.9884035,28.6698328 C14.4813695,28.6703754 13.9744704,28.6393103 13.4740865,28.5771177 C13.1536192,28.53841 12.8624504,28.7668213 12.8237427,29.0872886 C12.78504,29.4077145 13.013405,29.6989197 13.3334046,29.737571 C13.8821412,29.8035648 14.4343783,29.8366049 14.9867614,29.8365019 C18.2552655,29.834631 21.4259954,28.7492379 24.0036195,26.7600507 L24.3226976,26.5067081 L24.6260796,26.2521568 L26.279,24.8272987 L26.279,29.2531667 C26.279,29.5753331 26.5401675,29.8365019 26.8623333,29.8365019 C27.124444,29.8365019 27.3492391,29.6625526 27.4203987,29.4313546 L27.4396547,29.3421997 L27.4456667,29.2530239 L27.4530274,23.0363217 L27.4375311,22.9434743 L27.3905888,22.758308 L27.3645161,22.6859389 L27.3314645,22.623395 L27.2901182,22.5665089 L27.2406688,22.5145198 L27.1710081,22.4552154 L27.108747,22.4233859 L27.0519555,22.399384 L26.996895,22.3801529 L26.9040461,22.3596218 L26.8092167,22.3463225 L26.758,22.335 Z M1.18978543,12.9193962 C1.02151292,12.7910241 0.796908413,12.7638679 0.602889908,12.8484366 C0.407341315,12.9336722 0.275644245,13.1178173 0.252778244,13.350485 C0.186195861,13.8983101 0.15319892,14.4497692 0.153919792,15.0025869 C0.155864048,18.2711185 1.24127535,21.441847 3.23045116,24.0194552 L3.48379224,24.3385313 L3.73834324,24.641913 L5.16320128,26.2948333 L0.737333333,26.2948333 C0.415146779,26.2948333 0.153919792,26.556021 0.153919792,26.8781667 C0.153919792,27.1402577 0.327914141,27.3650657 0.559241139,27.436237 L0.648448985,27.4554973 L0.737333333,27.4615841 L7.05770134,27.4615841 C7.18089182,27.4599867 7.29767654,27.4175957 7.3896566,27.3458961 L7.4537033,27.2868056 L7.52895203,27.1991318 L7.56481833,27.1324908 L7.58808331,27.0766812 L7.62352131,26.9556025 L7.65037526,26.7907681 L7.654,26.805 L7.654,20.5448333 C7.654,20.309875 7.51383643,20.102822 7.3171125,20.0134613 L7.2295831,19.9826313 L7.15969966,19.967512 L7.07066667,19.9615 C6.80855572,19.9615 6.58376081,20.1354479 6.51260129,20.3666456 L6.49334531,20.4558003 L6.48733333,20.5448333 L6.48733333,26.0067878 L4.73821142,24.0287655 C2.53584523,21.5381847 1.32021166,18.3280193 1.32066776,15.0046432 C1.31991654,14.4958837 1.35012911,13.9902231 1.41329897,13.4666835 C1.44359641,13.2572148 1.35805793,13.0477684 1.18978543,12.9193962 Z M29.2373002,2.54483333 L22.974,2.543 L22.7437108,2.59889688 L22.6735764,2.62411279 L22.5876002,2.67297305 L22.5296701,2.71963399 L22.4418221,2.81389096 L22.3954668,2.90749417 L22.3645047,2.99307081 L22.3426878,3.09890182 L22.3233208,3.21949121 L22.32,3.20097338 L22.3206667,9.4615 C22.3206667,9.69645838 22.4608302,9.90351129 22.6575542,9.99287203 L22.7450836,10.0237021 L22.814967,10.0388214 L22.904,10.0448333 C23.1661109,10.0448333 23.3909059,9.87088541 23.4620654,9.63968776 L23.4813214,9.55053299 L23.4873333,9.4615 L23.4873333,3.99739418 L25.2365496,5.97609126 C27.4389079,8.46737825 28.6543981,11.6780004 28.6539999,15.00281 C28.6541804,15.508775 28.6237408,16.0143882 28.5629387,16.5158244 C28.5245102,16.835574 28.751956,17.1268815 29.0671553,17.1655482 L29.1421383,17.1698383 C29.4369603,17.169314 29.6848774,16.94895 29.7204124,16.6549687 C29.7874895,16.1071271 29.8209721,15.5556787 29.8206808,15.003739 C29.8187979,11.7352329 28.7334035,8.56450318 26.7442173,5.98688037 L26.4908747,5.66780245 L26.2363234,5.36442035 L24.8114654,3.7115 L29.2373333,3.7115 C29.5595012,3.7115 29.8206808,3.45033097 29.8206808,3.12816667 C29.8206808,2.86605755 29.6467217,2.64126142 29.4155219,2.57010142 L29.3263663,2.55084531 L29.2373002,2.54483333 Z M14.989,0.169 L14.5961424,0.175245371 C11.600124,0.256550703 8.70645984,1.24641803 6.29684742,3.00196413 L5.97130008,3.24608931 L5.65196845,3.49962585 L5.34858702,3.75417657 L3.69566667,5.17903461 L3.69566667,0.753166667 C3.69566667,0.430990023 3.4344889,0.169803486 3.11233333,0.169803486 C2.85023158,0.169803486 2.62543076,0.34376395 2.55426882,0.574972556 L2.53501213,0.664131336 L2.52899997,0.753295971 L2.52319804,6.98116383 L2.52823747,7.0247553 L2.57219035,7.20348233 C2.57799051,7.23316672 2.58649662,7.26325669 2.59463551,7.28712358 L2.60618429,7.31742805 L2.63116305,7.36667705 L2.69540574,7.45324188 L2.73203878,7.49157463 L2.80449142,7.5557993 L2.88492804,7.59960412 L2.98200678,7.63635599 L3.0444902,7.65425658 L3.14813866,7.66007489 L3.19403332,7.669 L9.44566667,7.66983333 C9.68062505,7.66983333 9.88767796,7.52966976 9.97703869,7.33294583 L10.0078687,7.24541643 L10.022988,7.17553299 L10.029,7.0865 C10.029,6.82438905 9.85505208,6.59959414 9.62385443,6.52843462 L9.53469966,6.50917864 L9.44566667,6.50316667 L3.98175022,6.50316667 L5.96022234,4.75398183 C8.45130865,2.55159023 11.6619674,1.33594386 14.9851441,1.3365024 C15.4922411,1.33539222 15.9991322,1.3658939 16.5005802,1.42763233 C16.8210475,1.46633999 17.1122163,1.23792871 17.150924,0.917461438 C17.1896267,0.59703516 16.9612613,0.305830264 16.6412575,0.267178465 C16.3672381,0.234222247 16.0923008,0.209611715 15.8179529,0.193397095 L15.4070618,0.175378378 L14.989,0.169 Z" id="Icon-Shape"></path>
            </g>
        </g>
    </g>
</svg>
