<?xml version="1.0" encoding="UTF-8"?>
<svg width="40px" height="40px" viewBox="0 0 40 40" version="1.1" xmlns="http://www.w3.org/2000/svg" xmlns:xlink="http://www.w3.org/1999/xlink">
    <!-- Generator: Sketch 60 (88103) - https://sketch.com -->
    <title>menu_marketing</title>
    <desc>Created with Sketch.</desc>
    <g id="menu_marketing" stroke="none" stroke-width="1" fill-rule="evenodd">
        <g id="Group-8" transform="translate(1.000000, 5.000000)" fill-rule="nonzero">
            <path d="M21.476217,1.38043381 C24.2853507,0.245470154 28.2437586,4.07307175 30.540975,9.75888182 C32.8381914,15.4446919 32.6496265,20.9477793 29.8404929,22.0827429 C29.6943344,22.1417948 29.5450647,22.1874125 29.3930797,22.2200334 C29.3067185,22.3428509 29.1698027,22.4292309 29.0086281,22.4473919 L24.9812426,22.890358 C22.9744547,23.1056444 21.0517144,23.3037017 19.238255,23.4833673 L19.2384726,25.615921 L19.1797417,25.7323019 C18.184664,27.704143 16.4341497,28.7044629 14.0162693,28.7044629 C11.6879401,28.7044629 9.97845789,27.7768686 8.96646549,25.9473958 L8.85279698,25.7323019 L8.79406611,25.615921 L8.79455151,24.4149299 C6.42545268,24.5941198 4.7300806,24.6884206 3.91268493,24.6884206 C1.07709798,24.6884206 -1.02800036,20.1650241 1.69434083,17.5554831 L2.06218494,17.2118215 C4.25909346,15.2009601 10.320135,10.2434619 20.2733017,2.31468316 C20.5990413,1.89081781 20.9999685,1.57285071 21.476217,1.38043381 Z M9.8887167,24.3299272 L9.88926829,25.3497073 L9.9339058,25.4333315 C10.7125212,26.8288719 11.9677649,27.5453846 13.7674734,27.605052 L14.0162693,27.6091192 C15.949676,27.6091192 17.2846259,26.8923055 18.0986329,25.4333315 L18.1426829,25.3487805 L18.1432722,23.5909195 C14.9761576,23.8992715 12.1762784,24.1478358 9.8887167,24.3299272 Z M19.3819889,4.43011722 L15.0738613,7.87503585 C8.08672797,13.4881698 3.87387659,16.9835532 2.45231049,18.3462168 C0.4705368,20.2458757 2.02825736,23.5930769 3.91268493,23.5930769 L4.24371232,23.5889075 C6.93505935,23.5282927 15.6897583,22.8094653 26.6312759,21.6095966 C24.4933211,20.3495992 22.2788981,17.4247545 20.7757349,13.7042949 C19.3698925,10.224713 18.895013,6.81356349 19.3819889,4.43011722 Z M29.5253901,10.1692048 C27.4297596,4.98233733 23.9097075,1.57860607 21.88654,2.39601879 C21.6376672,2.49656993 21.4168713,2.65880231 21.2249113,2.87567419 C21.192162,2.95462308 21.1387783,3.02565614 21.0674251,3.08248978 L21.0565292,3.09031774 C19.8679359,4.7940275 20.0324992,8.94073799 21.7913199,13.293972 C23.8869503,18.4808394 27.4070024,21.8845707 29.4301699,21.067158 C31.4533374,20.2497452 31.6210205,15.3560722 29.5253901,10.1692048 Z M33.6415249,12.9102235 L37.7781358,15.39219 L37.0655706,16.5797987 L32.9289597,14.0978322 L33.6415249,12.9102235 Z M35.4444235,6.4723618 L35.9587913,7.75828143 L31.7238695,9.45225017 L31.2095016,8.16633054 L35.4444235,6.4723618 Z M29.9022756,0.00876377673 L31.2161809,0.446732221 L29.5986116,5.29944021 L28.2847062,4.86147177 L29.9022756,0.00876377673 Z" id="Combined-Shape"></path>
        </g>
    </g>
</svg>
