<?xml version="1.0" encoding="UTF-8"?>
<svg width="40px" height="40px" viewBox="0 0 40 40" version="1.1" xmlns="http://www.w3.org/2000/svg" xmlns:xlink="http://www.w3.org/1999/xlink">
    <!-- Generator: Sketch 60 (88103) - https://sketch.com -->
    <title>menu_testimonials</title>
    <desc>Created with Sketch.</desc>
    <g id="menu_testimonials" stroke="none" stroke-width="1" fill-rule="evenodd">
        <g id="Testimonials" transform="translate(4.000000, 5.000000)" fill-rule="nonzero">
            <g id="Icon">
                <path d="M26.9634082,0.350002689 L5.03659177,0.350002689 C2.44969647,0.357444096 0.357342,2.47304695 0.35,5.08150443 L0.35,19.0833333 L0.355404162,19.2996775 C0.473965505,21.8095265 2.52155467,23.8094293 5.03659177,23.816664 L7.273,23.816 L7.27307692,29 L7.27960868,29.0948559 C7.34833642,29.5859039 7.94422251,29.8323304 8.34203228,29.4969672 L15.08,23.816 L26.9615385,23.8166667 C29.5503035,23.8092226 31.642658,21.6936197 31.65,19.0851622 L31.65,5.08333333 C31.642658,2.47304695 29.5503035,0.357444096 26.9634082,0.350002689 Z M5.04033131,1.64999731 L26.9615385,1.64999731 C28.8282738,1.6553725 30.3446662,3.18861375 30.3500026,5.08516223 L30.3500026,19.0833333 C30.3446662,20.9780529 28.8282738,22.5112942 26.9596687,22.5166694 L15.0516827,22.5166667 L14.9082597,22.5250963 C14.6712785,22.5531022 14.4464804,22.6501809 14.2623403,22.8056916 L8.573,27.602 L8.57307692,23.1666667 C8.57307692,22.8076816 8.28206201,22.5166667 7.92307692,22.5166667 L5.03846154,22.5166667 C3.1717262,22.5112942 1.65533375,20.9780529 1.64999743,19.0815044 L1.64999743,5.08333333 C1.65533375,3.18861375 3.1717262,1.6553725 5.04033131,1.64999731 Z" id="Icon-Path"></path>
            </g>
        </g>
    </g>
</svg>
