<?xml version="1.0" encoding="UTF-8"?>
<svg width="40px" height="40px" viewBox="0 0 40 40" version="1.1" xmlns="http://www.w3.org/2000/svg" xmlns:xlink="http://www.w3.org/1999/xlink">
    <!-- Generator: Sketch 60 (88103) - https://sketch.com -->
    <title>menu_android</title>
    <desc>Created with Sketch.</desc>
    <g id="menu_android" stroke="none" stroke-width="1" fill-rule="evenodd">
        <path d="M13.5515625,2 C13.2031223,2 12.9890625,2.21358831 12.9890625,2.55839844 C12.9890625,2.61424583 13.0110517,2.68277841 13.0735868,2.77158057 L13.1283805,2.84210125 L14.5191737,4.82982789 L13.8230488,5.24216668 C12.7347338,5.88681325 11.7934533,6.73590648 11.0877996,7.70569718 C10.4248226,8.62497969 9.97694205,9.6307952 9.77026606,10.657159 L9.71552551,10.9656187 L9.61781786,11.6017578 L9.498,11.601 L9.49863281,11.7964682 L8.61041641,11.6299276 C8.51077886,11.6112455 8.41454623,11.6017578 8.30976562,11.6017578 C7.66931883,11.6017578 7.08575952,11.8351815 6.66216602,12.2557207 C6.27877252,12.6391142 6.04913284,13.1478427 6.00703884,13.7099656 L6,13.8992188 L6,23.5378906 C6,24.1775889 6.23274409,24.7550197 6.65806446,25.1772871 C7.0823414,25.601564 7.6705466,25.8394531 8.30976562,25.8394531 L8.46016668,25.8322534 L8.61446873,25.8105351 L9.49863281,25.649778 L9.49863281,30.3833984 C9.49863281,31.1211494 10.0698988,31.7350716 10.7933382,31.8047449 L10.9306641,31.8113281 L12.9890625,31.8113281 L12.9890625,34.9525391 C12.9890625,35.5922373 13.2218066,36.1696681 13.647127,36.5919355 C14.0714039,37.0162125 14.6596091,37.2541016 15.2988281,37.2541016 C15.9392749,37.2541016 16.5228342,37.0206778 16.9464277,36.6001387 C17.3298212,36.2167452 17.5594609,35.7080167 17.6015549,35.1458938 L17.6085937,34.9566406 L17.6085937,31.8195312 L21.7253906,31.8195312 L21.7253906,34.9525391 C21.7253906,35.5922373 21.9581347,36.1696681 22.3834551,36.5919355 C22.807732,37.0162125 23.3959372,37.2541016 24.0351562,37.2541016 C24.6796917,37.2541016 25.2557539,37.0209526 25.6827559,36.587834 C26.0661494,36.2044405 26.295789,35.695712 26.337883,35.1335891 L26.3449219,34.9443359 L26.3449219,31.8072266 L28.4033203,31.8072266 C29.1456837,31.8072266 29.7591693,31.2388875 29.8287753,30.5164572 L29.8353516,30.3792969 L29.8353516,25.726774 L30.723568,25.8933146 C30.8232055,25.9119967 30.9194381,25.9214844 31.0242187,25.9214844 C31.6646655,25.9214844 32.2482249,25.6880606 32.6718184,25.2675215 C33.0552119,24.884128 33.2848515,24.3753995 33.3269455,23.8132766 L33.3339935,23.6240234 L33.3339935,13.9890461 C33.3308361,13.3481022 33.0978993,12.7709992 32.6759199,12.3459551 C32.2505184,11.9205536 31.6659046,11.6837891 31.0242187,11.6837891 L30.8738177,11.6909888 L30.7195156,11.7127071 L29.8353516,11.8734642 L29.835,11.683 L29.8104808,11.6837891 L29.6995242,11.0664669 C29.495026,9.92871336 29.0051775,8.80646269 28.26855,7.79029251 C27.6332095,6.91712404 26.8228006,6.14576094 25.8938013,5.52735646 L25.5798201,5.32695694 L24.8985859,4.91037491 L26.254,2.976 L26.315468,2.68996714 C26.3308192,2.62606789 26.3367187,2.58801592 26.3367187,2.5625 C26.3367187,2.21949975 26.1203696,2.00410156 25.7742187,2.00410156 C25.6582592,2.00410156 25.5218042,2.07352319 25.399159,2.21824959 L25.3275035,2.31416907 L23.8072543,4.49855455 L23.2772673,4.32542547 C22.1200679,3.94740699 20.8696797,3.74726563 19.6628906,3.74726563 C18.5937276,3.74726563 17.4867808,3.9054324 16.4381358,4.20620822 L16.0478145,4.32565357 L15.5166987,4.49857502 L13.9999373,2.30653724 C13.8585148,2.10083185 13.6896691,2 13.5515625,2 Z M14.1222656,31.8113281 L16.4917969,31.8113281 L16.4875287,35.106267 C16.4206501,35.7304676 15.9325893,36.1332031 15.3111328,36.1332031 C14.6625795,36.1332031 14.1851608,35.7023038 14.1280169,35.0761927 L14.1222656,34.9484375 L14.1222656,31.8113281 Z M22.8503906,31.8113281 L25.2199219,31.8113281 L25.2156537,35.106267 C25.1487578,35.7306295 24.6643047,36.1332031 24.0392578,36.1332031 C23.3907045,36.1332031 22.9132858,35.7023038 22.8561419,35.0761927 L22.8503906,34.9484375 L22.8503906,31.8113281 Z M28.7185547,12.8046875 L28.7185547,30.6945312 L10.6236328,30.6945312 L10.6236328,12.8046875 L28.7185547,12.8046875 Z M8.31386719,12.8005859 C8.96242055,12.8005859 9.43983916,13.2314853 9.49698307,13.8575964 L9.50273437,13.9853516 L9.50273437,23.628125 C9.50273437,24.322623 9.00565744,24.8128906 8.31386719,24.8128906 C7.66531383,24.8128906 7.18789522,24.3819913 7.1307513,23.7558802 L7.125,23.628125 L7.125,13.9853516 C7.125,13.2908536 7.62207694,12.8005859 8.31386719,12.8005859 Z M31.0242188,12.8005859 C31.6727721,12.8005859 32.1501907,13.2314853 32.2073346,13.8575964 L32.2130859,13.9853516 L32.2130859,23.628125 C32.2130859,24.322623 31.716009,24.8128906 31.0242188,24.8128906 C30.3756654,24.8128906 29.8982468,24.3819913 29.8411029,23.7558802 L29.8353516,23.628125 L29.8353516,13.9853516 C29.8353516,13.2908536 30.3324285,12.8005859 31.0242188,12.8005859 Z M19.6669922,4.86816406 C21.8594452,4.86816406 23.9759144,5.53506028 25.646895,6.75599024 C27.0178379,7.75880958 27.9817356,9.04786718 28.421542,10.4770416 L28.5024807,10.7647015 L28.7412704,11.7001953 L10.5934287,11.7001953 L10.8313708,10.765223 C11.2237697,9.22332599 12.226508,7.82280719 13.6884657,6.74678277 C15.3580086,5.53135551 17.4737398,4.86816406 19.6669922,4.86816406 Z M17.0501953,8.61171875 C16.7017551,8.61171875 16.4876953,8.82530706 16.4876953,9.17011719 C16.4876953,9.51311744 16.7040445,9.72851562 17.0501953,9.72851562 C17.3986442,9.72851562 17.6127179,9.5149186 17.6127289,9.16606366 C17.6145569,8.8278457 17.3979513,8.61171875 17.0501953,8.61171875 Z M22.2919922,8.61171875 C21.943552,8.61171875 21.7294922,8.82530706 21.7294922,9.17011719 C21.7294922,9.51311744 21.9458414,9.72851562 22.2919922,9.72851562 C22.6422456,9.72851562 22.8586046,9.5131164 22.8586046,9.17004782 C22.8567227,8.82001988 22.64657,8.61171875 22.2919922,8.61171875 Z" id="Icon-Shape" fill-rule="nonzero"></path>
    </g>
</svg>
