<?xml version="1.0" encoding="UTF-8"?>
<svg width="40px" height="40px" viewBox="0 0 40 40" version="1.1" xmlns="http://www.w3.org/2000/svg" xmlns:xlink="http://www.w3.org/1999/xlink">
    <!-- Generator: Sketch 60 (88103) - https://sketch.com -->
    <title>menu_blockchain</title>
    <desc>Created with Sketch.</desc>
    <g id="menu_blockchain" stroke="none" stroke-width="1" fill-rule="evenodd">
        <path d="M16.9420731,4 C18.7900947,4 20.2882122,5.48006943 20.2882122,7.30582761 C20.2882122,8.64548005 19.4816392,9.79901679 18.3220894,10.3183063 L19.789298,15.7107238 C19.8797571,15.7034732 19.9712333,15.6997771 20.0635832,15.6997771 C20.9791823,15.6997771 21.8088908,16.0630882 22.4130662,16.6517504 L28.6570735,10.4836749 C28.7136184,10.4278111 28.7787839,10.3856547 28.8483394,10.3572055 C28.2327385,9.76019785 27.851359,8.92701124 27.851359,8.00582181 C27.851359,6.18006364 29.3494765,4.6999942 31.1974981,4.6999942 C33.0455196,4.6999942 34.5436371,6.18006364 34.5436371,8.00582181 C34.5436371,9.83157998 33.0455196,11.3116494 31.1974981,11.3116494 C30.6438882,11.3116494 30.1216792,11.1788257 29.6617395,10.9436746 C29.6544511,11.0428007 29.6202272,11.1413386 29.559878,11.2274037 L29.4915973,11.3081451 L23.2430333,17.4814317 C23.1963748,17.5275281 23.1438468,17.5642914 23.087826,17.5917216 C23.2944495,18.0193104 23.4097223,18.499158 23.4097223,19.0056047 C23.4097223,19.9843026 22.9792386,20.863667 22.2951349,21.4689647 L30.5346345,29.8213943 C30.5966647,29.8842722 30.6414342,29.9574441 30.6690174,30.035181 C31.2219418,29.6284564 31.9095189,29.3883448 32.653861,29.3883448 C34.5018825,29.3883448 36,30.8684142 36,32.6941724 C36,34.5199306 34.5018825,36 32.653861,36 C30.8058394,36 29.3077219,34.5199306 29.3077219,32.6941724 C29.3077219,31.9808055 29.536432,31.3202132 29.9253614,30.780061 C29.8704741,30.7642292 29.818103,30.7382739 29.769788,30.7042911 L29.6888913,30.6357554 L21.2610198,22.0934645 C20.889226,22.2342757 20.4855249,22.3114323 20.0635832,22.3114323 C19.9021931,22.3114323 19.7434715,22.3001442 19.5881834,22.2783234 L15.5483226,30.2602152 L15.5296541,30.2932475 C15.9177022,30.8330272 16.145844,31.492864 16.145844,32.2053442 C16.145844,34.0311023 14.6477265,35.5111718 12.799705,35.5111718 C10.9516834,35.5111718 9.45356593,34.0311023 9.45356593,32.2053442 C9.45356593,30.379586 10.9516834,28.8995165 12.799705,28.8995165 C13.4801499,28.8995165 14.1131573,29.1001734 14.6414108,29.4448609 L18.4561631,21.9057203 C17.6228095,21.4539282 17.0053302,20.6617462 16.7954715,19.7186103 L11.6278259,19.7191194 C11.3225825,21.234133 9.9693335,22.3759832 8.34613905,22.3759832 C6.49811748,22.3759832 5,20.8959138 5,19.0701556 C5,17.2443974 6.49811748,15.764328 8.34613905,15.764328 C10.0145405,15.764328 11.3977508,16.9706663 11.650874,18.5486257 L16.7492626,18.5478559 C16.9073109,17.420578 17.6407013,16.4749652 18.64708,16.0097291 L17.1770008,10.6036341 C17.0993904,10.608952 17.0210513,10.6116552 16.9420731,10.6116552 C15.0940516,10.6116552 13.5959341,9.13158578 13.5959341,7.30582761 C13.5959341,5.48006943 15.0940516,4 16.9420731,4 Z M32.653861,30.5551075 C31.4580823,30.5551075 30.4887122,31.5127995 30.4887122,32.6941724 C30.4887122,33.8755453 31.4580823,34.8332373 32.653861,34.8332373 C33.8496396,34.8332373 34.8190097,33.8755453 34.8190097,32.6941724 C34.8190097,31.5127995 33.8496396,30.5551075 32.653861,30.5551075 Z M12.799705,30.0662792 C11.6039263,30.0662792 10.6345562,31.0239712 10.6345562,32.2053442 C10.6345562,33.3867171 11.6039263,34.3444091 12.799705,34.3444091 C13.9954836,34.3444091 14.9648538,33.3867171 14.9648538,32.2053442 C14.9648538,31.0239712 13.9954836,30.0662792 12.799705,30.0662792 Z M8.34613905,16.9310907 C7.15036039,16.9310907 6.18099025,17.8887827 6.18099025,19.0701556 C6.18099025,20.2515285 7.15036039,21.2092205 8.34613905,21.2092205 C9.54191771,21.2092205 10.5112878,20.2515285 10.5112878,19.0701556 C10.5112878,17.8887827 9.54191771,16.9310907 8.34613905,16.9310907 Z M20.0635832,16.8665398 C18.8678046,16.8665398 17.8984345,17.8242318 17.8984345,19.0056047 C17.8984345,20.1869776 18.8678046,21.1446696 20.0635832,21.1446696 C20.4097919,21.1446696 20.7370218,21.064391 21.0272417,20.9216478 L20.9724553,20.9643891 C21.0345201,20.9046273 21.1064937,20.8610822 21.1829983,20.8336857 C21.8102982,20.4613871 22.228732,19.7817724 22.228732,19.0056047 C22.228732,17.8242318 21.2593619,16.8665398 20.0635832,16.8665398 Z M31.1974981,5.86675689 C30.0017194,5.86675689 29.0323493,6.82444887 29.0323493,8.00582181 C29.0323493,9.18719474 30.0017194,10.1448867 31.1974981,10.1448867 C32.3932767,10.1448867 33.3626469,9.18719474 33.3626469,8.00582181 C33.3626469,6.82444887 32.3932767,5.86675689 31.1974981,5.86675689 Z M16.9420731,5.16676268 C15.7462945,5.16676268 14.7769243,6.12445467 14.7769243,7.30582761 C14.7769243,8.48720054 15.7462945,9.44489253 16.9420731,9.44489253 C18.1378518,9.44489253 19.1072219,8.48720054 19.1072219,7.30582761 C19.1072219,6.12445467 18.1378518,5.16676268 16.9420731,5.16676268 Z" id="Combined-Shape" fill-rule="nonzero"></path>
    </g>
</svg>
