<?xml version="1.0" encoding="UTF-8"?>
<svg width="40px" height="40px" viewBox="0 0 40 40" version="1.1" xmlns="http://www.w3.org/2000/svg" xmlns:xlink="http://www.w3.org/1999/xlink">
    <!-- Generator: Sketch 60 (88103) - https://sketch.com -->
    <title>menu_reactnative</title>
    <desc>Created with Sketch.</desc>
    <g id="menu_reactnative" stroke="none" stroke-width="1" fill-rule="evenodd">
        <g id="Icon-Group" transform="translate(5.000000, 4.000000)" fill-rule="nonzero">
            <path d="M17.3913043,0 C18.4918866,0 19.3964343,0.85669631 19.4730101,1.93815156 L19.4782609,2.08695652 L19.478,2.5 L18.086,2.5 L18.0869565,2.08695652 C18.0869565,1.73477494 17.8252486,1.44371853 17.4857002,1.39765483 L17.3913043,1.39130435 L2.08695652,1.39130435 C1.73477494,1.39130435 1.44371853,1.6530123 1.39765483,1.99256064 L1.39130435,2.08695652 L1.39130435,29.9130435 C1.39130435,30.2652251 1.6530123,30.5562815 1.99256064,30.6023452 L2.08695652,30.6086957 L17.3913043,30.6086957 C17.7434859,30.6086957 18.0345423,30.3469877 18.080606,30.0074394 L18.0869565,29.9130435 L18.086,28.5 L19.478,28.5 L19.4782609,29.9130435 C19.4782609,31.0136257 18.6215646,31.9181734 17.5401093,31.9947492 L17.3913043,32 L2.08695652,32 C0.986374291,32 0.0818265801,31.1433037 0.00525075311,30.0618484 L-5.40012479e-13,29.9130435 L-5.40012479e-13,2.08695652 C-5.40012479e-13,0.986374291 0.85669631,0.0818265801 1.93815156,0.00525075311 L2.08695652,0 L17.3913043,0 Z M9.73913043,25.0434783 C10.5075266,25.0434783 11.1304348,25.6663864 11.1304348,26.4347826 C11.1304348,27.2031788 10.5075266,27.826087 9.73913043,27.826087 C8.97073426,27.826087 8.34782609,27.2031788 8.34782609,26.4347826 C8.34782609,25.6663864 8.97073426,25.0434783 9.73913043,25.0434783 Z M20.5229297,7.61539063 C22.3001172,6.06507813 24.0618359,5.41667969 25.1360547,6.03886719 C26.2579687,6.68726563 26.5866797,8.65695313 26.0839453,11.101875 C26.0527214,11.2539844 26.0186328,11.4052344 25.9816797,11.555625 C26.2045443,11.6203646 26.4258333,11.6902604 26.6455469,11.7653125 C28.8730469,12.5340234 30.3125,13.7375781 30.3133594,14.9836719 C30.3133594,16.2808984 28.7737891,17.5501953 26.4105078,18.3352344 C26.2853255,18.3764844 26.1574219,18.4164453 26.0267969,18.4551172 C26.0734896,18.6430339 26.1147396,18.8272266 26.1505469,19.0076953 C26.6176172,21.3705469 26.2579687,23.3127344 25.1515234,23.9546875 C24.0811719,24.5760156 22.3499609,23.9654297 20.5968359,22.4537891 C20.4054818,22.2890755 20.2192839,22.1192057 20.0382422,21.9441797 C19.895013,22.0836849 19.7517839,22.2161719 19.6085547,22.3416406 C17.7978516,23.9271875 15.9403125,24.5846094 14.8330078,23.9448047 C13.7609375,23.3251953 13.4257812,21.5175 13.8554687,19.2401563 C13.9024479,18.9915104 13.9564453,18.7455859 14.0174609,18.5023828 C13.8295443,18.4485286 13.6433464,18.3902344 13.4588672,18.3275 C11.1845312,17.5484766 9.6875,16.2637109 9.6875,14.9823828 C9.6875,13.7423047 11.0822656,12.5464844 13.2633594,11.7837891 C13.5154946,11.6962062 13.7701202,11.6159641 14.0269141,11.5431641 C13.9704818,11.3160026 13.9196354,11.0878385 13.874375,10.8586719 C13.4219141,8.54136719 13.7411719,6.68984375 14.8153906,6.06636719 C15.9360156,5.41582031 17.8030078,6.1140625 19.6657031,7.77179688 C19.783151,7.87492188 19.8977344,7.98033854 20.0094531,8.08804688 C20.1770312,7.92591146 20.3481901,7.76835938 20.5229297,7.61539063 Z M25.1734375,18.6798438 C24.2534714,18.8877674 23.3202717,19.0320544 22.3804687,19.1116797 C21.8542396,19.882944 21.2767249,20.6179365 20.6518359,21.3116797 C20.8267187,21.4779688 20.9985937,21.6365234 21.1704687,21.7843359 C22.6692187,23.0772656 24.0592578,23.5675391 24.709375,23.1902734 C25.0148828,23.0132422 25.2619531,22.5706641 25.3848437,21.9072266 C25.5214844,21.1685938 25.4918359,20.2241406 25.2851562,19.18 C25.2527865,19.0167188 25.2155469,18.85 25.1734375,18.6798438 Z M14.8708203,18.7172266 C14.814388,18.9463932 14.7642578,19.1755599 14.7204297,19.4047266 C14.3513281,21.3520703 14.6220312,22.8039844 15.2725781,23.1799609 C15.5780859,23.3565625 16.0838281,23.3501172 16.7189062,23.1253906 C17.4257422,22.8748828 18.2275391,22.3777344 19.0280469,21.6764844 C19.1616797,21.5591797 19.2927344,21.4380078 19.4207812,21.3121094 C18.7834816,20.6210609 18.1921126,19.8890264 17.6504687,19.1207031 C16.7158398,19.0494183 15.7871449,18.9146147 14.8708203,18.7172266 Z M21.2460937,19.1860156 C20.8361719,19.2044922 20.4202344,19.2135156 20,19.2135156 C19.590651,19.2135156 19.1884635,19.2057813 18.7934375,19.1903125 C19.1999219,19.7274219 19.6167187,20.2271484 20.034375,20.67875 C20.4633742,20.2020768 20.8678048,19.7038526 21.2460937,19.1860156 Z M20.0012891,11.6712109 C19.3657812,11.6712109 18.7367187,11.6957031 18.123125,11.7421094 C17.7696354,12.2614583 17.4363411,12.7932682 17.1232422,13.3375391 C16.8098568,13.8820964 16.5173828,14.4375391 16.2458203,15.0038672 L16.2458203,15.0038672 C16.5152344,15.5670443 16.8085677,16.1222005 17.1245312,16.6693359 C17.4404948,17.2164714 17.7765104,17.7505729 18.1325781,18.2716406 C18.7337109,18.3107422 19.3554687,18.3309375 20,18.3309375 C20.6445312,18.3309375 21.2783203,18.3073047 21.890625,18.2643359 C22.2369531,17.7418359 22.5663802,17.2084505 22.8789062,16.6641797 C23.1940104,16.1170443 23.4896354,15.5593099 23.7657812,14.9909766 C23.4859115,14.4269401 23.1895703,13.8740755 22.8767578,13.3323828 C22.5639453,12.7906901 22.2326562,12.2607422 21.8828906,11.7425391 C21.2697266,11.6957031 20.6367969,11.6712109 20.0012891,11.6712109 Z M15.7774609,16.0419922 C15.5153516,16.6650391 15.2910547,17.2773438 15.1088672,17.866875 C15.7368327,18.0015673 16.371319,18.1038252 17.0098047,18.1732422 C16.7852214,17.8246224 16.569375,17.4707031 16.3622656,17.1114844 C16.1588802,16.7594271 15.9639453,16.4029297 15.7774609,16.0419922 Z M24.2397266,16.0101953 C24.0486589,16.380013 23.8492839,16.7451042 23.6416016,17.1054688 C23.4373568,17.4603906 23.2260937,17.8110156 23.0078125,18.1573438 C23.6546307,18.0814203 24.2970326,17.9716999 24.9323828,17.8286328 C24.732835,17.2110096 24.501644,16.6040615 24.2397266,16.0101953 Z M14.2653906,12.3952344 C14.0267708,12.4628385 13.7901562,12.5374609 13.5555469,12.6191016 C11.688125,13.2700781 10.5683594,14.23 10.5683594,14.9823828 C10.5683594,15.3364453 10.8270312,15.7734375 11.3375,16.2112891 C11.9076953,16.6998438 12.7382812,17.1484375 13.74375,17.4921875 C13.9113281,17.5494792 14.0810547,17.6026172 14.2529297,17.6516016 C14.5339011,16.7482469 14.8739439,15.8643366 15.2708594,15.0055859 C14.878619,14.1585457 14.5427323,13.2865319 14.2653906,12.3952344 Z M25.7453516,12.4064063 C25.4687718,13.2880896 25.1334377,14.1502543 24.7416016,14.9871094 C25.1487086,15.8352767 25.4977028,16.710131 25.7861719,17.605625 C25.9039062,17.5703906 26.0199219,17.5342969 26.1325,17.4969141 C28.1739453,16.8188672 29.4316406,15.7816016 29.4316406,14.9823828 C29.4316406,14.2334375 28.2671875,13.2589063 26.3585156,12.600625 C26.1612891,12.5323047 25.9563281,12.4678516 25.7453516,12.4064063 Z M19.3003446,13.2730843 C19.9915053,12.9874583 20.786685,13.1466416 21.3146345,13.6763156 C21.842584,14.2059897 21.9991733,15.0016842 21.7112948,15.6919097 C21.4234164,16.3821352 20.7478498,16.8307552 20,16.8283302 C19.5106983,16.8277512 19.0416886,16.6327131 18.6962645,16.2861607 C18.3508404,15.9396082 18.1573328,15.469965 18.1583553,14.9806641 C18.1583553,14.2328103 18.609184,13.5587103 19.3003446,13.2730843 Z M23.0108203,11.8576953 C23.2282422,12.1980078 23.4372135,12.5426172 23.6377344,12.8915234 C23.843125,13.2452995 24.0409245,13.6033724 24.2311328,13.9657422 C24.4809069,13.3843452 24.7013277,12.7907722 24.8915625,12.1872656 C24.2998828,12.0519141 23.6686719,11.9410547 23.0108203,11.8576953 Z M16.9921875,11.8551172 C16.3382031,11.9367578 15.7108594,12.0446094 15.1221875,12.1765234 C15.3013672,12.7557422 15.5196484,13.3555859 15.7774609,13.9653125 L15.777,13.964 L16.0619141,13.4275586 L16.0619141,13.4275586 L16.3596875,12.89625 C16.5622135,12.5441927 16.7730469,12.1971484 16.9921875,11.8551172 Z M24.6969141,6.80371094 C24.0480859,6.42902344 22.6249609,6.95324219 21.1025781,8.28140625 L21.1025781,8.28140625 C20.9401562,8.42263021 20.7823177,8.56800781 20.6282031,8.71753906 C21.2577425,9.40432853 21.8401501,10.1328764 22.3714453,10.8982031 C23.299371,10.9822722 24.220659,11.1281165 25.1291797,11.3347656 C25.1624089,11.198125 25.1933464,11.0610547 25.2219922,10.9235547 C25.6559766,8.8125 25.3874219,7.20289063 24.6969141,6.80371094 Z M19.0830469,8.43136719 C17.4747266,7.00179688 15.9489062,6.42945313 15.2588281,6.82992188 C14.6108594,7.20589844 14.3534766,8.70335938 14.7423437,10.6898047 C14.7844531,10.9035026 14.8317187,11.1157682 14.8841406,11.3266016 C15.7913844,11.1238673 16.7108498,10.9803354 17.6367187,10.8969141 C18.1731255,10.1325737 18.7596477,9.40466029 19.3924219,8.71796875 C19.2892969,8.61871094 19.1857422,8.52289063 19.0830469,8.43136719 Z M20.0098828,9.34875 C19.5969531,9.79519531 19.1866016,10.2871875 18.7857031,10.8174219 C19.5989583,10.77875 20.4116406,10.77875 21.22375,10.8174219 C20.8440837,10.3077625 20.4389464,9.8175822 20.0098828,9.34875 Z" id="Combined-Shape"></path>
        </g>
    </g>
</svg>
