<?xml version="1.0" encoding="UTF-8"?>
<svg width="40px" height="40px" viewBox="0 0 40 40" version="1.1" xmlns="http://www.w3.org/2000/svg" xmlns:xlink="http://www.w3.org/1999/xlink">
    <!-- Generator: Sketch 60 (88103) - https://sketch.com -->
    <title>menu_reactjs</title>
    <desc>Created with Sketch.</desc>
    <g id="menu_reactjs" stroke="none" stroke-width="1" fill-rule="evenodd">
        <g id="ion-logo-react" transform="translate(2.000000, 4.000000)" fill-rule="nonzero">
            <g id="Icon" transform="translate(0.903541, 0.813187)">
                <path d="M19.3376416,3.32117434 C22.2976193,0.821205351 25.1049861,-0.115778946 26.7661617,0.846373974 C28.5596487,1.88290106 29.1498493,5.13426847 28.2877732,9.32675819 C28.2345089,9.58623801 28.1763772,9.84416727 28.1133616,10.1006259 L28.1133616,10.1006259 L28.0590824,10.3215295 L28.277527,10.3849851 L28.8468589,10.5575656 L29.4121535,10.7433656 C33.2394256,12.0641596 35.5770383,14.0880846 35.5784055,16.0705655 C35.5784055,18.1435666 33.061998,20.2801089 29.008624,21.6265661 C28.7955403,21.6967806 28.5772139,21.7649923 28.3541854,21.8310205 L28.3541854,21.8310205 L28.1366186,21.8954317 L28.2678743,22.434007 C28.3168315,22.6448118 28.3616501,22.8527325 28.4023316,23.0577675 C29.2006066,27.0961435 28.5666825,30.3104716 26.7926917,31.3397307 C25.0853849,32.3308048 22.2136264,31.3661578 19.2100313,28.7762932 C18.8832647,28.4950194 18.5654602,28.2050839 18.2564609,27.906352 L18.2564609,27.906352 L18.0909914,27.7463807 L17.6820498,28.140705 C17.5193617,28.2938504 17.356723,28.4416356 17.1941359,28.5840619 C14.0994127,31.2939642 11.0064935,32.3480452 9.23154018,31.3224707 C7.52229411,30.3346018 6.92298669,27.3614093 7.65974988,23.4565644 C7.73990999,23.0323023 7.83205052,22.6126597 7.93615978,22.197689 L7.93615978,22.197689 L7.99198516,21.9751737 L7.77145159,21.911972 L7.29298569,21.7685423 L6.81892934,21.6137598 C2.9319356,20.2823555 0.474358974,18.1226305 0.474358974,16.0681784 C0.474358974,14.0898733 2.74581984,12.0817276 6.483618,10.7746764 C6.91373556,10.6252694 7.3485693,10.4882368 7.78710596,10.3639134 L7.78710596,10.3639134 L8.00793891,10.3013082 L7.95259889,10.0785435 L7.81513049,9.49508328 L7.69197969,8.90906206 C6.91488854,4.92914222 7.49217844,1.88582264 9.20155062,0.893703029 C10.9924525,-0.14595394 14.097516,0.965139608 17.2913184,3.80751324 C17.4923361,3.98402363 17.6872757,4.16336806 17.8773286,4.34659857 L17.8773286,4.34659857 L18.0422387,4.50558886 L18.2068674,4.34630712 L18.6407592,3.936813 L19.0835786,3.53927728 Z M27.1239225,22.163504 L26.8972326,22.2147387 L26.2203371,22.3607384 C24.8639022,22.6393661 23.4920011,22.8377028 22.1117875,22.9546421 L22.1117875,22.9546421 L21.9358901,23.0572992 L21.5440778,23.619869 C20.7497706,24.7372984 19.8916017,25.8081688 18.9737916,26.8271089 L18.9737916,26.8271089 L18.8192807,26.9986448 L19.3708882,27.5178069 C19.5535569,27.6860329 19.7238361,27.8380925 19.8899811,27.9809771 C22.4641925,30.2016776 24.98974,31.1732792 26.2680824,30.431452 C26.8792172,30.0773204 27.3288193,29.2363321 27.547395,28.0563289 C27.7916623,26.7359028 27.7330584,25.0722127 27.3748928,23.2627691 C27.3183128,22.9773657 27.2532689,22.6861691 27.1797533,22.3891059 L27.1797533,22.3891059 L27.1239225,22.163504 Z M9.00288018,22.2302005 L8.85313146,22.8531834 C8.79245418,23.1194104 8.73665428,23.3856531 8.68573255,23.6519105 C8.05178843,26.996536 8.47337493,29.674656 9.75243334,30.413874 C10.3640104,30.7674017 11.3155901,30.7376583 12.4450656,30.337986 C13.7092797,29.8899393 15.1185956,29.0083382 16.505364,27.7935202 C16.7448621,27.5832857 16.9735041,27.371337 17.1928088,27.1557119 L17.1928088,27.1557119 L17.3566088,26.9946602 L17.2008771,26.8257943 L16.6613243,26.2277738 C15.7731037,25.2214407 14.9403036,24.1672566 14.166688,23.0698806 L14.166688,23.0698806 L13.990874,22.9700471 L13.3051923,22.9110409 C11.9352024,22.7797202 10.5738404,22.5686056 9.22805081,22.2787052 L9.22805081,22.2787052 L9.00288018,22.2302005 Z M20.6581509,23.0600061 L20.1644005,23.0822611 L19.4605065,23.1085022 C18.9881217,23.122486 18.5096061,23.1294564 18.025641,23.1294564 C17.3226058,23.1294564 16.631949,23.1161746 15.9536716,23.089614 L15.9536716,23.089614 L15.4527409,23.0699982 L15.7552665,23.4697413 L16.180269,24.0207367 C16.7496636,24.7449095 17.3292668,25.4263125 17.9108081,26.055119 L17.9108081,26.055119 L18.0873218,26.2459789 L18.2612313,26.0527431 L18.70332,25.5513432 C19.2858833,24.8768906 19.8407763,24.1789043 20.3665997,23.4591084 L20.3665997,23.4591084 L20.6581509,23.0600061 Z M18.0278646,10.1194204 C16.9383246,10.1194204 15.8474181,10.1609253 14.7702542,10.2423915 L14.7702542,10.2423915 L14.5920694,10.3454413 L14.138803,11.0250848 C13.6921036,11.7087818 13.2651058,12.4046387 12.8578124,13.112651 C12.3143001,14.0570905 11.8070329,15.0204511 11.3359422,16.0026871 L11.3359422,16.0026871 L11.3359422,16.2075912 L11.6926338,16.9345768 C12.0574816,17.6599961 12.4467686,18.3807119 12.8602337,19.096685 C13.4082471,20.0456475 13.9910454,20.9720136 14.608622,21.875772 L14.608622,21.875772 L14.789052,21.9786357 L15.5823589,22.0235348 C16.3808181,22.0620557 17.1948623,22.0814196 18.025641,22.0814196 C19.1194126,22.0814196 20.2172965,22.042176 21.3034623,21.9659539 L21.3034623,21.9659539 L21.4845537,21.860394 L21.9292093,21.1777263 C22.3683728,20.4915217 22.7910599,19.794707 23.1972691,19.087285 C23.7434256,18.1389591 24.2559629,17.171992 24.7347246,16.1866566 L24.7347246,16.1866566 L24.7338567,15.9775801 L24.364773,15.2481618 C23.9903351,14.5223689 23.5998349,13.8074527 23.1932732,13.103416 C22.6509212,12.1642332 22.0765308,11.2454072 21.4701073,10.3469468 L21.4701073,10.3469468 L21.2915817,10.2431461 L20.4831487,10.1892661 C19.6708213,10.1429523 18.8482063,10.1194204 18.0278646,10.1194204 Z M10.719993,17.3366262 L10.5233858,17.803971 L10.2583422,18.4504528 C9.91555536,19.3091387 9.6155126,20.1537787 9.36211666,20.9737297 L9.36211666,20.9737297 L9.28560272,21.2213172 L9.53898065,21.2756643 L10.1950056,21.4093222 C11.0714249,21.5785004 11.9545352,21.7115184 12.842093,21.8080149 L12.842093,21.8080149 L13.3363795,21.8617543 L13.0671161,21.4437778 L12.6868299,20.842675 C12.4366367,20.4399197 12.1931054,20.0331241 11.9562354,19.6222873 C11.6071625,19.0180469 11.2726932,18.4063687 10.9527236,17.7870726 L10.9527236,17.7870726 L10.719993,17.3366262 Z M25.3558242,17.2916622 L25.1282048,17.732227 L24.795539,18.36421 C24.570594,18.7837288 24.339313,19.1996413 24.1016957,19.6119483 C23.7508951,20.2215441 23.3881191,20.8236293 23.0132915,21.4183362 L23.0132915,21.4183362 L22.7486468,21.8382252 L23.2415926,21.7803632 L23.9150002,21.6941653 C24.8115515,21.5698551 25.7026053,21.4080597 26.585817,21.2091795 L26.585817,21.2091795 L26.8392835,21.1521044 L26.7594061,20.9048749 L26.5447957,20.2632711 C26.2498858,19.4108562 25.9199931,18.5708473 25.5559331,17.7453851 L25.5559331,17.7453851 L25.3558242,17.2916622 Z M8.29155416,11.3142823 L7.65420898,11.4992601 C7.37837777,11.5832859 7.10410247,11.67275 6.83138476,11.7676517 C3.62443666,12.8855823 1.51943109,14.5888793 1.51943109,16.0681784 C1.51943109,16.7762671 2.02102204,17.5892554 2.92891658,18.3679966 C3.95016816,19.2430253 5.41771891,20.0271607 7.15724747,20.6218713 C7.45019293,20.7220236 7.74686917,20.8149071 8.04727208,20.9005219 L8.04727208,20.9005219 L8.26997988,20.9639936 L8.33875722,20.7428667 L8.58796327,19.9715342 C9.01731044,18.6907599 9.51653101,17.4342628 10.0834441,16.207712 L10.0834441,16.207712 L10.0834441,16.0085384 L9.75533563,15.2792062 C9.22207861,14.0578587 8.75632321,12.8079186 8.36024294,11.5350286 L8.36024294,11.5350286 L8.29155416,11.3142823 Z M27.7792773,11.3320798 L27.7097317,11.5537778 L27.4644033,12.3063176 C27.0415997,13.5557522 26.54933,14.7808127 25.9898278,15.9757569 L25.9898278,15.9757569 L25.9908033,16.1789636 L26.2836601,16.804598 C26.8571322,18.0613454 27.3570116,19.3506017 27.7806951,20.6658417 L27.7806951,20.6658417 L27.8519178,20.8869382 L28.4884283,20.6926001 L28.9757538,20.5294272 C32.3111322,19.3636089 34.531851,17.5892253 34.531851,16.0681784 C34.531851,14.5945535 32.3499628,12.8664326 29.0710407,11.7355662 C28.7372274,11.6199312 28.3820611,11.507636 28.0023589,11.3970506 L28.0023589,11.3970506 L27.7792773,11.3320798 Z M16.8639534,13.2849073 C18.0561652,12.7922191 19.4278038,13.066801 20.3384859,13.9804579 C21.249168,14.8941147 21.5192755,16.2666414 21.0227019,17.4572402 C20.5261284,18.647839 19.3608154,19.4216823 18.0708181,19.4174993 C17.2268012,19.4165006 16.4177868,19.0800712 15.8219503,18.4822885 C15.2261138,17.8845057 14.8923245,17.0743984 14.8940883,16.2303829 C14.8940883,14.9403787 15.6717415,13.7775956 16.8639534,13.2849073 Z M22.7466871,10.379333 L23.0192603,10.8059694 L23.3874706,11.3923205 C23.6297209,11.7848576 23.8655248,12.1806673 24.0948829,12.5797505 C24.4479977,13.1879794 24.7875601,13.8026831 25.1140918,14.4247653 L25.1140918,14.4247653 L25.3454912,14.8656091 L25.5420189,14.4081533 L25.7962751,13.799543 C26.1270924,12.9847608 26.4250839,12.1569376 26.6895088,11.3180683 L26.6895088,11.3180683 L26.7667946,11.0728845 L26.5161918,11.015557 L25.8896889,10.8792632 C25.0443827,10.7046125 24.1601873,10.5584441 23.2489463,10.4429766 L23.2489463,10.4429766 L22.7466871,10.379333 Z M13.3099681,10.375806 L12.8079593,10.4384747 L12.1325135,10.528939 C11.2396363,10.6567769 10.3785181,10.8133382 9.55983594,10.9967947 L9.55983594,10.9967947 L9.30920842,11.0529572 L9.3851132,11.298328 L9.5827604,11.9144415 C9.85650321,12.7385071 10.1708993,13.5721334 10.5235536,14.4061608 L10.5235536,14.4061608 L10.7521819,14.3170102 L10.950548,14.4210884 L11.2758209,13.8048792 L11.6090029,13.1944844 L11.951903,12.5879888 C12.2993649,11.9839851 12.6610785,11.3885829 13.0370454,10.8017795 L13.0370454,10.8017795 L13.3099681,10.375806 Z M26.2461543,1.75505438 C24.9697533,1.01795393 22.3880081,2.04804308 19.7716011,4.33066062 C19.4918216,4.57392525 19.216373,4.82728303 18.9440939,5.09146466 L18.9440939,5.09146466 L18.7786328,5.25200493 L19.3917497,5.93065006 C20.2964514,6.95670499 21.1411039,8.03443309 21.9214122,9.15846138 L21.9214122,9.15846138 L22.0948454,9.25941845 L22.888908,9.34026392 C24.2106038,9.48968345 25.5231849,9.7124241 26.8205727,10.0075236 L26.8205727,10.0075236 L27.0484234,10.0593498 L27.1875499,9.47436707 L27.2654673,9.11531015 C28.0094646,5.49624646 27.5996232,2.53748905 26.2461543,1.75505438 Z M16.6015209,4.5907854 C13.8425164,2.13841891 11.080153,1.01603544 9.7283489,1.80051951 C8.45369206,2.54012477 8.0555786,5.29619289 8.72372892,8.70929671 C8.79717262,9.08201193 8.87954766,9.45195074 8.97091043,9.81939884 L8.97091043,9.81939884 L9.02679163,10.0441451 L9.25280655,9.99363938 L10.0319606,9.82837075 C11.333306,9.56703952 12.6480435,9.37635081 13.9704024,9.25720544 L13.9704024,9.25720544 L14.1432602,9.15722954 L14.6100088,8.50754147 C15.3997492,7.43352502 16.2483644,6.40381052 17.152023,5.42315308 L17.152023,5.42315308 L17.3092911,5.2524845 L17.1420807,5.09154447 L16.8731553,4.83761123 Z M18.0436134,6.00018973 L17.8685687,6.18944201 L17.4378053,6.665284 C16.8647655,7.31179839 16.297467,8.00596596 15.7418594,8.74082093 L15.7418594,8.74082093 L15.4363951,9.14483275 L15.9423153,9.12077525 L16.7793805,9.0889274 C17.8953074,9.05707954 19.0105952,9.06769536 20.125257,9.1207745 L20.125257,9.1207745 L20.6265623,9.14464618 L20.3267429,8.74217232 L19.925653,8.21494166 C19.3838427,7.51745187 18.8140523,6.84203838 18.2176561,6.19036391 L18.2176561,6.19036391 L18.0436134,6.00018973 Z" id="Combined-Shape"></path>
            </g>
        </g>
    </g>
</svg>
