<?xml version="1.0" encoding="UTF-8"?>
<svg width="40px" height="40px" viewBox="0 0 40 40" version="1.1" xmlns="http://www.w3.org/2000/svg" xmlns:xlink="http://www.w3.org/1999/xlink">
    <!-- Generator: Sketch 60 (88103) - https://sketch.com -->
    <title>menu_team</title>
    <desc>Created with Sketch.</desc>
    <g id="menu_team" stroke="none" stroke-width="1" fill-rule="evenodd" stroke-linecap="round" stroke-linejoin="round">
        <g id="Icon-Group" transform="translate(3.000000, 6.000000)" fill-rule="nonzero">
            <path d="M17.0416667,17.75 C20.6001822,17.75 23.4992646,20.5733693 23.6210189,24.1022129 L23.625,24.3333333 L23.625,27.25 C23.625,27.6642136 23.2892136,28 22.875,28 C22.4953042,28 22.181509,27.7178461 22.1318466,27.3517706 L22.125,27.25 L22.125,24.3333333 C22.125,21.5978717 19.9643299,19.3670616 17.2565463,19.2544595 L17.0416667,19.25 L6.83333333,19.25 C4.09787169,19.25 1.86706158,21.4106701 1.75445952,24.1184537 L1.75,24.3333333 L1.75,27.25 C1.75,27.6642136 1.41421356,28 1,28 C0.620304234,28 0.306509039,27.7178461 0.256846616,27.3517706 L0.25,27.25 L0.25,24.3333333 C0.25,20.7748178 3.07336925,17.8757354 6.60221291,17.7539811 L6.83333333,17.75 L17.0416667,17.75 Z M33.6136634,9.21966991 C33.87993,9.48593648 33.904136,9.90260016 33.6862816,10.1962117 L33.6136634,10.2803301 L27.7803301,16.1136634 C27.5140635,16.37993 27.0973998,16.404136 26.8037883,16.1862816 L26.7196699,16.1136634 L23.8030032,13.1969968 C23.51011,12.9041035 23.51011,12.4292298 23.8030032,12.1363366 C24.0692698,11.87007 24.4859335,11.845864 24.779545,12.0637184 L24.8636634,12.1363366 L27.25,14.523 L32.5530032,9.21966991 C32.8458965,8.9267767 33.3207702,8.9267767 33.6136634,9.21966991 Z M11.9375,0.25 C15.5733746,0.25 18.5208333,3.19745873 18.5208333,6.83333333 C18.5208333,10.4692079 15.5733746,13.4166667 11.9375,13.4166667 C8.3016254,13.4166667 5.35416667,10.4692079 5.35416667,6.83333333 C5.35416667,3.19745873 8.3016254,0.25 11.9375,0.25 Z M11.9375,1.75 C9.13005252,1.75 6.85416667,4.02588586 6.85416667,6.83333333 C6.85416667,9.64078081 9.13005252,11.9166667 11.9375,11.9166667 C14.7449475,11.9166667 17.0208333,9.64078081 17.0208333,6.83333333 C17.0208333,4.02588586 14.7449475,1.75 11.9375,1.75 Z" id="Combined-Shape"></path>
        </g>
    </g>
</svg>
