<svg xmlns="http://www.w3.org/2000/svg" viewBox="0 0 140 140" width="140" height="140"><defs><clipPath clipPathUnits="userSpaceOnUse" id="cp1"><path d="M0 0L140 0L140 140L0 140Z" /></clipPath></defs><style>tspan { white-space:pre }.shp0 { fill: none;stroke: #3bebeb;stroke-linecap:round;stroke-linejoin:round;stroke-width: 2 } </style><g clip-path="url(#cp1)"><path class="shp0" d="M88.7 65.56L85.77 65.07C85.47 64.1 85.08 63.17 84.6 62.27L86.29 59.92C87.01 58.9 86.9 57.52 86.01 56.64L83.46 54.08C82.98 53.6 82.34 53.34 81.66 53.34C81.13 53.34 80.62 53.5 80.19 53.81L77.78 55.53C76.91 55.07 76 54.7 75.06 54.41L74.58 51.52C74.37 50.29 73.31 49.4 72.07 49.4L68.44 49.4C67.2 49.4 66.14 50.29 65.93 51.52L65.44 54.41C64.47 54.71 63.53 55.1 62.64 55.57L60.26 53.87C59.83 53.56 59.32 53.4 58.79 53.4C58.1 53.4 57.47 53.66 56.99 54.14L54.43 56.7C53.55 57.58 53.43 58.97 54.15 59.98L55.86 62.37C55.38 63.27 54.99 64.21 54.7 65.17L51.8 65.65C50.57 65.86 49.68 66.91 49.68 68.16L49.68 71.78C49.66 73.03 50.56 74.08 51.79 74.29L54.68 74.78C54.98 75.75 55.37 76.69 55.84 77.58L54.14 79.96C53.41 80.97 53.53 82.36 54.41 83.23L56.97 85.79C57.45 86.28 58.09 86.54 58.77 86.54C59.3 86.54 59.81 86.38 60.24 86.07L62.62 84.36C63.56 84.85 64.52 85.26 65.53 85.56L66.01 88.41C66.22 89.64 67.27 90.54 68.52 90.54L72.14 90.54C73.38 90.54 74.45 89.64 74.65 88.41L75.15 85.49C76.11 85.19 77.05 84.8 77.94 84.32L80.31 86.02C80.73 86.33 81.25 86.49 81.78 86.49C82.46 86.49 83.1 86.22 83.57 85.74L86.15 83.18C87.02 82.31 87.14 80.92 86.42 79.91L84.7 77.49C85.18 76.59 85.55 75.65 85.84 74.68L88.7 74.2C89.93 74 90.82 72.94 90.82 71.69L90.82 68.07C90.82 66.83 89.93 65.77 88.7 65.56ZM71.12 76.47C67.53 76.95 64.22 74.43 63.75 70.84C63.27 67.25 65.79 63.95 69.38 63.47C72.96 62.99 76.26 65.51 76.75 69.1C77.22 72.69 74.7 75.99 71.12 76.47ZM119.02 21.09C123.4 25.47 123.4 32.57 119.02 36.95C114.64 41.33 107.54 41.33 103.16 36.95C98.78 32.57 98.78 25.47 103.16 21.09C107.54 16.71 114.64 16.71 119.02 21.09ZM91.33 48.78L102.96 37.14M139.21 69.97C139.21 76.16 134.19 81.18 127.99 81.18C121.8 81.19 116.78 76.16 116.77 69.97C116.78 63.78 121.8 58.75 127.99 58.75C134.19 58.75 139.21 63.78 139.21 69.97ZM100.05 69.97L116.51 69.97M118.92 118.81C114.54 123.19 107.44 123.19 103.06 118.81C98.68 114.43 98.68 107.33 103.06 102.95C107.44 98.57 114.54 98.57 118.92 102.95C123.3 107.33 123.3 114.43 118.92 118.81ZM91.23 91.12L102.87 102.76M70.04 139C63.85 139 58.83 133.98 58.83 127.79C58.82 121.59 63.85 116.57 70.04 116.57C76.24 116.57 81.26 121.59 81.26 127.79C81.26 133.98 76.24 139 70.04 139ZM70.04 99.84L70.04 116.3M21.2 118.71C16.82 114.34 16.82 107.23 21.2 102.85C25.58 98.47 32.68 98.47 37.06 102.85C41.44 107.24 41.44 114.34 37.06 118.71C32.68 123.09 25.58 123.1 21.2 118.71ZM48.89 91.02L37.25 102.66M1 69.83C1 63.64 6.03 58.62 12.22 58.62C18.42 58.62 23.44 63.64 23.44 69.83C23.44 76.03 18.42 81.05 12.22 81.05C6.03 81.05 1 76.03 1 69.83ZM40.16 69.83L23.71 69.83M21.3 20.99C25.67 16.61 32.77 16.61 37.15 20.99C41.54 25.37 41.53 32.48 37.16 36.86C32.77 41.24 25.67 41.23 21.29 36.86C16.92 32.48 16.91 25.37 21.3 20.99ZM48.98 48.68L37.35 37.04M70.18 0.8C76.37 0.8 81.39 5.82 81.39 12.02C81.39 18.21 76.37 23.23 70.18 23.24C63.98 23.23 58.96 18.21 58.96 12.02C58.96 5.82 63.98 0.8 70.18 0.8ZM70.18 39.96L70.18 23.5" /></g></svg>