<?xml version="1.0" encoding="UTF-8"?>
<svg width="84px" height="85px" viewBox="0 0 84 85" version="1.1" xmlns="http://www.w3.org/2000/svg" xmlns:xlink="http://www.w3.org/1999/xlink">
    <!-- Generator: Sketch 58 (84663) - https://sketch.com -->
    <title>Group 23</title>
    <desc>Created with Sketch.</desc>
    <g id="Page-1" stroke="none" stroke-width="1" fill="none" fill-rule="evenodd">
        <g id="Group-23" transform="translate(1.000000, 0.000000)">
            <path d="M52,0 C52,0 51.64,14.09 52,14 C53.81,13.94 55.55,13.95 57.12,14.78 C57,15 66.9,6.7 66.9,6.7 L76.41,16.19 L68.87,25.38 C69.88,27.14 70.68,28.98 71.27,30.89 L83,32.06 L83,45.47 L72,46 C71.41,47.92 68.99,51.27 68,53 L76.41,61.35 L66.9,70.83 L57.28,62.98 C55.22,63.63 52.99,63.76 51,65 L50,77 L47.509,77.086 L47.444,76.008 L49,76 L50.37,63.85 L57.17,61.14 L66.68,69.27 L74.84,61.14 L66.68,53 L71,45 L82,45 L82,33 L71,32 L70.52,32.32 C69.91,30.09 68.97,27.93 67.72,25.91 L67.27,25.18 L74.84,16.4 L66.68,8.26 L57.58,16.07 L56.87,15.7 C54.95,14.7 52.93,15.31 50.87,14.84 L51,14 L51,1 L38,1 L38.13,12.33 L36.77,13.69 C34.71,14.15 33.55,14.7 31.63,15.7 L30.92,16.07 L21.82,8.26 L13.66,16.4 L20.46,24.53 L17.74,32.67 L6.87,34.02 L6.869,37.682 L5.814,37.717 L6,33 L17,32 C17.59,30.09 18.31,26.72 19.1,24.53 L12.1,16.19 L21.6,6.7 L31.22,14.56 C32.85,13.77 35.06,12.78 36.77,12.33 L37,0 L52,0 Z" id="Combined-Shape" fill="#7E8890" fill-rule="nonzero"></path>
            <path d="M44.25,20.67 C54.25,20.67 62.39,28.79 62.39,38.77 C62.39,48.0668697 55.3262258,55.7496583 46.2753394,56.7578715 L46.2199554,55.8564149 C54.5607059,54.7690038 61,47.6375862 61,39 C61,29.61 53.39,22 44,22 C35.2844828,22 28.102435,28.556013 27.1156315,37.0062643 L26.1924233,37.037717 C27.0693904,27.8671509 34.8353909,20.67 44.25,20.67 Z" id="Combined-Shape" fill="#7E8890" fill-rule="nonzero"></path>
            <path d="M37.71,75.84 L36.1515288,46.7562971" id="Path" stroke="#8A939B" stroke-width="1.5"></path>
            <path d="M36.5,47.5 L8.68,48.45" id="Path" stroke="#8A939B" stroke-width="1.5"></path>
            <path d="M0,84.13 L35.5,48.5" id="Path" stroke="#8A939B" stroke-width="1.5" fill="#FF0000" fill-rule="nonzero"></path>
        </g>
    </g>
</svg>