<svg xmlns="http://www.w3.org/2000/svg" viewBox="0 0 158 142" width="158" height="142"><defs><clipPath clipPathUnits="userSpaceOnUse" id="cp1"><path d="M0 0L158 0L158 142L0 142Z" /></clipPath></defs><style>tspan { white-space:pre }.shp0 { fill: none;stroke: #3bebeb;stroke-linecap:round;stroke-linejoin:round;stroke-width: 2 } </style><g clip-path="url(#cp1)"><path class="shp0" d="M51.1 21.94L105.14 21.94M50.46 112.83L133.31 112.83M96.73 127.02C96.73 129.64 94.6 131.76 91.99 131.76C89.38 131.76 87.25 129.64 87.25 127.02C87.25 124.41 89.38 122.28 91.99 122.28C94.6 122.28 96.73 124.41 96.73 127.02ZM133.28 60.46L133.28 128.2C133.28 135.27 127.55 141 120.48 141L63.51 141C56.44 141 50.71 135.27 50.71 128.2L50.71 13.62C50.71 6.55 56.44 0.82 63.51 0.82L120.48 0.82M154.39 23.75L151.21 23.21C150.88 22.16 150.45 21.15 149.93 20.17L151.77 17.61C152.55 16.5 152.43 15 151.47 14.05L148.69 11.26C148.17 10.74 147.47 10.45 146.74 10.45C146.16 10.45 145.6 10.63 145.13 10.96L142.51 12.83C141.56 12.34 140.57 11.93 139.55 11.62L139.03 8.48C138.8 7.14 137.65 6.17 136.3 6.17L132.36 6.17C131 6.17 129.85 7.14 129.63 8.48L129.09 11.62C128.04 11.95 127.01 12.36 126.04 12.88L123.45 11.03C122.99 10.69 122.43 10.52 121.85 10.52C121.11 10.52 120.41 10.8 119.89 11.33L117.11 14.12C116.16 15.07 116.03 16.58 116.81 17.68L118.66 20.28C118.15 21.26 117.72 22.28 117.4 23.33L114.25 23.84C112.92 24.07 111.95 25.21 111.95 26.57L111.95 30.51C111.93 31.87 112.9 33.02 114.24 33.24L117.38 33.78C117.7 34.83 118.13 35.86 118.64 36.82L116.79 39.41C116 40.52 116.13 42.02 117.09 42.97L119.88 45.76C120.4 46.29 121.09 46.58 121.83 46.58C122.41 46.58 122.96 46.39 123.42 46.06L126.02 44.2C127.04 44.74 128.09 45.18 129.18 45.5L129.7 48.61C129.94 49.95 131.08 50.92 132.44 50.92L136.37 50.92C137.73 50.92 138.88 49.95 139.1 48.61L139.64 45.43C140.69 45.11 141.71 44.67 142.68 44.15L145.26 46C145.72 46.34 146.29 46.52 146.86 46.52C147.6 46.52 148.3 46.23 148.81 45.7L151.61 42.91C152.56 41.97 152.7 40.46 151.91 39.36L150.04 36.73C150.56 35.75 150.97 34.73 151.29 33.67L154.39 33.15C155.73 32.92 156.69 31.77 156.69 30.42L156.69 26.48C156.69 25.13 155.73 23.98 154.39 23.75ZM135.26 35.62C131.37 36.14 127.76 33.4 127.25 29.49C126.72 25.59 129.47 22 133.37 21.48C137.27 20.96 140.86 23.7 141.39 27.6C141.91 31.51 139.16 35.1 135.26 35.62ZM42.91 21.91L1 21.91M42.91 40.96L18.15 40.96M42.91 60.01L25.77 60.01" /></g></svg>