<svg xmlns="http://www.w3.org/2000/svg" viewBox="0 0 93 87" width="93" height="87"><style>tspan { white-space:pre }.shp0 { fill: #3cecec } .shp1 { fill: #3cecec;stroke: #3cecec } </style><path class="shp0" d="M35.37 2.55L35.37 6.8L35.37 8.77L37.27 9.27C39.41 9.83 41.46 10.7 43.35 11.86L45.04 12.89L46.44 11.48L49.45 8.44L54.81 13.86L51.7 16.99L50.33 18.38L51.3 20.07C52.36 21.95 53.16 23.98 53.67 26.12L54.13 28.07L56.13 28.07L60.64 28.07L60.64 35.73L55.91 35.73L53.99 35.73L53.48 37.6C52.92 39.63 52.1 41.56 51.01 43.36L49.98 45.08L51.39 46.49L54.81 49.95L49.45 55.36L45.92 51.81L44.56 50.42L42.88 51.4C41.14 52.41 39.25 53.18 37.27 53.7L35.37 54.19L35.37 56.17L35.37 61.25L27.79 61.25L27.79 56.17L27.79 54.19L25.9 53.7C23.91 53.18 22.02 52.41 20.28 51.4L18.61 50.42L17.24 51.81L13.72 55.36L8.36 49.95L11.78 46.49L13.18 45.08L12.15 43.36C11.07 41.56 10.24 39.63 9.69 37.6L9.17 35.73L7.25 35.73L2.53 35.73L2.53 28.07L7.04 28.07L9.03 28.07L9.49 26.12C10 23.98 10.8 21.95 11.87 20.07L12.83 18.38L11.46 16.99L8.36 13.86L13.72 8.44L16.72 11.48L18.12 12.89L19.82 11.86C21.71 10.7 23.75 9.83 25.9 9.27L27.79 8.77L27.79 6.8L27.79 2.55L35.37 2.55M31.58 43.39C37.85 43.39 42.95 38.24 42.95 31.9C42.95 25.57 37.85 20.42 31.58 20.42C25.31 20.42 20.21 25.57 20.21 31.9C20.21 38.24 25.31 43.39 31.58 43.39M37.9 0L25.27 0L25.27 6.8C22.85 7.43 20.59 8.4 18.51 9.67L13.72 4.83L4.78 13.86L9.68 18.8C8.5 20.88 7.6 23.13 7.04 25.52L0 25.52L0 38.28L7.25 38.28C7.88 40.57 8.8 42.71 9.99 44.69L4.78 49.95L13.72 58.97L19.03 53.61C20.96 54.73 23.05 55.59 25.27 56.17L25.27 63.81L37.9 63.81L37.9 56.17C40.11 55.59 42.2 54.73 44.14 53.61L49.45 58.97L58.38 49.95L53.17 44.69C54.36 42.71 55.29 40.57 55.91 38.28L63.16 38.28L63.16 25.52L56.13 25.52C55.56 23.13 54.67 20.88 53.49 18.8L58.38 13.86L49.45 4.83L44.66 9.67C42.58 8.4 40.31 7.43 37.9 6.8L37.9 0L37.9 0ZM31.58 40.84C26.7 40.84 22.74 36.84 22.74 31.9C22.74 26.97 26.7 22.97 31.58 22.97C36.47 22.97 40.43 26.97 40.43 31.9C40.43 36.84 36.47 40.84 31.58 40.84L31.58 40.84Z" /><path class="shp1" d="M75.69 50.05L75.69 52.54L75.69 53.7L76.8 53.99C78.06 54.32 79.26 54.83 80.37 55.51L81.36 56.12L82.19 55.29L83.95 53.5L87.09 56.68L85.27 58.52L84.47 59.33L85.03 60.33C85.66 61.43 86.13 62.63 86.43 63.88L86.7 65.03L87.87 65.03L90.52 65.03L90.52 69.52L87.74 69.52L86.61 69.52L86.31 70.62C85.99 71.81 85.5 72.94 84.87 74L84.26 75.01L85.09 75.84L87.09 77.87L83.95 81.04L81.88 78.96L81.08 78.14L80.09 78.72C79.07 79.31 77.96 79.76 76.8 80.07L75.69 80.36L75.69 81.52L75.69 84.5L71.24 84.5L71.24 81.52L71.24 80.36L70.13 80.07C68.96 79.76 67.85 79.31 66.83 78.72L65.85 78.14L65.04 78.96L62.98 81.04L59.83 77.87L61.84 75.84L62.66 75.01L62.06 74C61.42 72.94 60.94 71.81 60.61 70.62L60.31 69.52L59.18 69.52L56.41 69.52L56.41 65.03L59.06 65.03L60.23 65.03L60.5 63.88C60.8 62.63 61.26 61.43 61.89 60.33L62.46 59.33L61.65 58.52L59.83 56.68L62.98 53.5L64.74 55.29L65.56 56.12L66.56 55.51C67.67 54.83 68.87 54.32 70.13 53.99L71.24 53.7L71.24 52.54L71.24 50.05L75.69 50.05M73.46 74.02C77.14 74.02 80.14 70.99 80.14 67.27C80.14 63.56 77.14 60.53 73.46 60.53C69.78 60.53 66.79 63.56 66.79 67.27C66.79 70.99 69.78 74.02 73.46 74.02M77.17 48.55L69.76 48.55L69.76 52.54C68.34 52.91 67.01 53.48 65.79 54.23L62.98 51.38L57.73 56.68L60.61 59.58C59.91 60.8 59.39 62.13 59.06 63.53L54.93 63.53L54.93 71.02L59.18 71.02C59.55 72.36 60.09 73.62 60.79 74.78L57.73 77.87L62.98 83.16L66.09 80.02C67.23 80.67 68.46 81.18 69.76 81.52L69.76 86L77.17 86L77.17 81.52C78.47 81.18 79.7 80.67 80.83 80.02L83.95 83.16L89.19 77.87L86.14 74.78C86.83 73.62 87.38 72.36 87.74 71.02L92 71.02L92 63.53L87.87 63.53C87.54 62.13 87.01 60.8 86.32 59.58L89.19 56.68L83.95 51.38L81.14 54.23C79.92 53.48 78.59 52.91 77.17 52.54L77.17 48.55L77.17 48.55ZM73.46 72.52C70.6 72.52 68.27 70.17 68.27 67.27C68.27 64.38 70.6 62.03 73.46 62.03C76.33 62.03 78.65 64.38 78.65 67.27C78.65 70.17 76.33 72.52 73.46 72.52L73.46 72.52Z" /></svg>