<svg width="25" height="24" viewBox="0 0 25 24" fill="none" xmlns="http://www.w3.org/2000/svg">
<path d="M21.5815 10C21.5815 17 12.5815 23 12.5815 23C12.5815 23 3.58148 17 3.58148 10C3.58148 7.61305 4.52969 5.32387 6.21752 3.63604C7.90535 1.94821 10.1945 1 12.5815 1C14.9684 1 17.2576 1.94821 18.9454 3.63604C20.6333 5.32387 21.5815 7.61305 21.5815 10Z" stroke="white" stroke-width="2" stroke-linecap="round" stroke-linejoin="round"/>
<path d="M12.5815 13C14.2383 13 15.5815 11.6569 15.5815 10C15.5815 8.34315 14.2383 7 12.5815 7C10.9246 7 9.58148 8.34315 9.58148 10C9.58148 11.6569 10.9246 13 12.5815 13Z" stroke="white" stroke-width="2" stroke-linecap="round" stroke-linejoin="round"/>
</svg>
