<svg width="24" height="24" viewBox="0 0 24 24" fill="none" xmlns="http://www.w3.org/2000/svg">
<g clip-path="url(#clip0)">
<path d="M8.00002 8.8H9.60002H8.00002ZM14.4 15.2H16H14.4ZM16 8L8.00002 16L16 8ZM10.8816 1.264L9.07522 3.0672C8.77917 3.36378 8.37747 3.53067 7.95842 3.5312H5.11362C4.69437 3.5312 4.29228 3.69774 3.99583 3.9942C3.69937 4.29066 3.53282 4.69274 3.53282 5.112V7.9568C3.53229 8.37585 3.3654 8.77755 3.06882 9.0736L1.26402 10.8832C0.967681 11.1796 0.801208 11.5816 0.801208 12.0008C0.801208 12.42 0.967681 12.822 1.26402 13.1184L3.07202 14.9248C3.36802 15.2208 3.53442 15.6224 3.53442 16.0416V18.8864C3.53442 19.76 4.24162 20.4672 5.11522 20.4672H7.96002C8.37922 20.4672 8.78082 20.6336 9.07682 20.9312L10.8848 22.7376C11.1813 23.0339 11.5833 23.2004 12.0024 23.2004C12.4216 23.2004 12.8236 23.0339 13.12 22.7376L14.9264 20.9296C15.2227 20.6336 15.6244 20.4673 16.0432 20.4672H18.888C19.3073 20.4672 19.7094 20.3006 20.0058 20.0042C20.3023 19.7077 20.4688 19.3057 20.4688 18.8864V16.0416C20.4688 15.6224 20.6352 15.2208 20.9328 14.9248L22.7392 13.1168C23.0356 12.8204 23.202 12.4184 23.202 11.9992C23.202 11.58 23.0356 11.178 22.7392 10.8816L20.9312 9.0752C20.6352 8.77888 20.4689 8.37722 20.4688 7.9584V5.1136C20.4688 4.69434 20.3023 4.29226 20.0058 3.9958C19.7094 3.69935 19.3073 3.5328 18.888 3.5328H16.0432C15.6242 3.53227 15.2225 3.36538 14.9264 3.0688L13.1168 1.264C12.8204 0.967658 12.4184 0.801186 11.9992 0.801186C11.5801 0.801186 11.1781 0.967658 10.8816 1.264V1.264Z" stroke="white" stroke-width="2"/>
</g>
<defs>
<clipPath id="clip0">
<rect width="24" height="24" fill="white"/>
</clipPath>
</defs>
</svg>
