<?xml version="1.0" encoding="UTF-8"?>
<svg width="13px" height="20px" viewBox="0 0 13 20" version="1.1" xmlns="http://www.w3.org/2000/svg" xmlns:xlink="http://www.w3.org/1999/xlink">
    <!-- Generator: Sketch 50.2 (55047) - http://www.bohemiancoding.com/sketch -->
    <title>location-1 - entypo</title>
    <desc>Created with Sketch.</desc>
    <defs></defs>
    <g id="Page-1" stroke="none" stroke-width="1" fill="none" fill-rule="evenodd">
        <g id="Artboard" transform="translate(-344.000000, -4995.000000)" fill="#D2D2D2">
            <path d="M350.5,4995 C352.302676,4995 353.83666,4995.60833 355.102,4996.825 C356.36734,4998.04167 357,4999.52499 357,5001.275 C357,5003.02501 356.462672,5005.04166 355.388,5007.325 C354.313328,5009.60834 353.221339,5011.46666 352.112,5012.9 L350.5,5015 C350.326666,5014.8 350.092668,5014.50834 349.798,5014.125 C349.503332,5013.74166 348.983337,5013.00001 348.238,5011.9 C347.492663,5010.79999 346.834003,5009.71667 346.262,5008.65 C345.689997,5007.58333 345.170002,5006.35834 344.702,5004.975 C344.233998,5003.59166 344,5002.35001 344,5001.25 C344,4999.51666 344.63266,4998.04167 345.898,4996.825 C347.16334,4995.60833 348.697324,4995 350.5,4995 Z M350.5,5004.7 C351.470672,5004.7 352.302663,5004.36667 352.996,5003.7 C353.689337,5003.03333 354.036,5002.23334 354.036,5001.3 C354.036,5000.36666 353.689337,4999.575 352.996,4998.925 C352.302663,4998.275 351.470672,4997.95 350.5,4997.95 C349.529328,4997.95 348.706003,4998.275 348.03,4998.925 C347.353997,4999.575 347.016,5000.36666 347.016,5001.3 C347.016,5002.23334 347.353997,5003.03333 348.03,5003.7 C348.706003,5004.36667 349.529328,5004.7 350.5,5004.7 Z" id="location-1---entypo"></path>
        </g>
    </g>
</svg>