<?xml version="1.0" encoding="UTF-8"?>
<svg width="17px" height="17px" viewBox="0 0 17 17" version="1.1" xmlns="http://www.w3.org/2000/svg" xmlns:xlink="http://www.w3.org/1999/xlink">
    <!-- Generator: Sketch 50.2 (55047) - http://www.bohemiancoding.com/sketch -->
    <title>phone-squared - FontAwesome</title>
    <desc>Created with Sketch.</desc>
    <defs></defs>
    <g id="Page-1" stroke="none" stroke-width="1" fill="none" fill-rule="evenodd">
        <g id="Artboard" transform="translate(-343.000000, -5076.000000)" fill="#D2D2D2">
            <path d="M357.166667,5087.78711 C357.166667,5087.73177 357.166667,5087.66536 357.144531,5087.61003 C357.078125,5087.41081 355.46224,5086.5918 355.152344,5086.41471 C354.942057,5086.29297 354.6875,5086.04948 354.432943,5086.04948 C353.945964,5086.04948 353.226562,5087.49935 352.794922,5087.49935 C352.573568,5087.49935 352.296875,5087.30013 352.097656,5087.18945 C350.636719,5086.37044 349.629557,5085.36328 348.810547,5083.90234 C348.69987,5083.70312 348.500651,5083.42643 348.500651,5083.20508 C348.500651,5082.77344 349.950521,5082.05404 349.950521,5081.56706 C349.950521,5081.3125 349.707031,5081.05794 349.585286,5080.84766 C349.408203,5080.53776 348.589193,5078.92188 348.389974,5078.85547 C348.334635,5078.83333 348.268229,5078.83333 348.212891,5078.83333 C347.92513,5078.83333 347.360677,5078.96615 347.095052,5079.07682 C346.364583,5079.40885 345.833333,5080.80339 345.833333,5081.56706 C345.833333,5082.30859 346.132161,5082.98372 346.386719,5083.66992 C347.272135,5086.09375 349.90625,5088.72786 352.330078,5089.61328 C353.016276,5089.86784 353.691406,5090.16667 354.432943,5090.16667 C355.196615,5090.16667 356.591146,5089.63542 356.923177,5088.90495 C357.033854,5088.63932 357.166667,5088.07487 357.166667,5087.78711 Z M360,5079.1875 L360,5089.8125 C360,5091.57227 358.572266,5093 356.8125,5093 L346.1875,5093 C344.427734,5093 343,5091.57227 343,5089.8125 L343,5079.1875 C343,5077.42773 344.427734,5076 346.1875,5076 L356.8125,5076 C358.572266,5076 360,5077.42773 360,5079.1875 Z" id="phone-squared---FontAwesome"></path>
        </g>
    </g>
</svg>