<?xml version="1.0" encoding="UTF-8"?>
<svg viewBox="0 0 200 67" version="1.1" xmlns="http://www.w3.org/2000/svg" xmlns:xlink="http://www.w3.org/1999/xlink">
    <!-- Generator: Sketch 61 (89581) - https://sketch.com -->
    <title>logo</title>
    <desc>Created with Sketch.</desc>
    <defs>
        <path d="M34.5913253,0.219798561 C32.2419277,0.313791367 29.9484337,0.700366906 29.9484337,0.700366906 L29.9484337,0.700366906 L23.9918072,1.45471942 L17.573494,2.06591367 L9.40385542,2.18400719 C9.08289157,2.18400719 8.77445783,2.17918705 8.47180723,2.16665468 L8.47180723,2.16665468 C6.74168675,2.24377698 4.56771084,1.95215827 2.48,0.52394964 L2.48,0.52394964 C1.85156627,1.88997842 1.08626506,3.20202158 0.192289157,4.45718705 L0.192289157,4.45718705 C0.644819277,5.77356835 1.29204819,6.55009353 1.62216867,7.02584173 L1.62216867,7.02584173 C4.97975904,11.8141727 11.4313253,11.6599281 12.4660241,11.791036 L12.4660241,11.791036 C14.1710843,12.0093885 21.9296386,12.2629281 23.3108434,12.2773885 L23.3108434,12.2773885 C30.7556627,12.3482446 36.139759,11.6276331 37.340241,11.2801007 L37.340241,11.2801007 C40.9378313,10.2341295 41.8453012,7.47411511 41.5942169,4.81243165 L41.5942169,4.81243165 C41.3257831,1.96565468 39.4327711,1.13755396 39.4327711,1.13755396 L39.4327711,1.13755396 C38.8640964,0.72157554 37.2819277,0.210158273 35.1108434,0.210158273 L35.1108434,0.210158273 C34.9412048,0.210158273 34.7681928,0.21305036 34.5913253,0.219798561" id="path-1"></path>
        <linearGradient x1="48.6487287%" y1="46.7899152%" x2="53.4725948%" y2="56.1063483%" id="linearGradient-3">
            <stop stop-color="#3CECEC" offset="0%"></stop>
            <stop stop-color="#3CECEC" offset="24.2%"></stop>
            <stop stop-color="#31DEDE" offset="57%"></stop>
            <stop stop-color="#24B6B6" offset="93.3%"></stop>
            <stop stop-color="#24B6B6" offset="100%"></stop>
        </linearGradient>
        <path d="M34.5913253,0.219798561 C32.2419277,0.313791367 29.9484337,0.700366906 29.9484337,0.700366906 L29.9484337,0.700366906 L23.9918072,1.45471942 L17.573494,2.06591367 L9.40385542,2.18400719 C9.08289157,2.18400719 8.77445783,2.17918705 8.47180723,2.16665468 L8.47180723,2.16665468 C6.74168675,2.24377698 4.56771084,1.95215827 2.48,0.52394964 L2.48,0.52394964 C1.85156627,1.88997842 1.08626506,3.20202158 0.192289157,4.45718705 L0.192289157,4.45718705 C0.644819277,5.77356835 1.29204819,6.55009353 1.62216867,7.02584173 L1.62216867,7.02584173 C4.97975904,11.8141727 11.4313253,11.6599281 12.4660241,11.791036 L12.4660241,11.791036 C14.1710843,12.0093885 21.9296386,12.2629281 23.3108434,12.2773885 L23.3108434,12.2773885 C30.7556627,12.3482446 36.139759,11.6276331 37.340241,11.2801007 L37.340241,11.2801007 C40.9378313,10.2341295 41.8453012,7.47411511 41.5942169,4.81243165 L41.5942169,4.81243165 C41.3257831,1.96565468 39.4327711,1.13755396 39.4327711,1.13755396 L39.4327711,1.13755396 C38.8640964,0.72157554 37.2819277,0.210158273 35.1108434,0.210158273 L35.1108434,0.210158273 C34.9412048,0.210158273 34.7681928,0.21305036 34.5913253,0.219798561" id="path-4"></path>
        <path d="M1.92771084,34.0538345 L1.92771084,34.1675899 C1.92771084,37.8795827 1.74072289,41.5361439 0.319036145,44.6282662 L0.319036145,44.6282662 C3.81783133,46.3664101 6.87710843,46.0733453 7.10843373,46.0453885 L7.10843373,46.0453885 L22.7927711,26.7889137 C22.7927711,26.7889137 37.500241,8.58756835 37.5262651,8.47381295 L37.5262651,8.47381295 C37.4987952,8.52105036 37.6298795,8.1908705 37.7392771,7.51942446 L37.7392771,7.51942446 C37.8351807,6.81616547 37.8761446,5.86418705 37.6592771,4.91028058 L37.6592771,4.91028058 C37.3253012,3.56738849 36.4245783,2.16328058 34.3450602,1.2561295 L34.3450602,1.2561295 C33.5493976,0.914381295 32.5575904,0.652165468 31.5021687,0.453093525 L31.5021687,0.453093525 C31.2279518,0.407302158 30.5455422,0.293064748 30.233253,0.262695731 L30.233253,0.262695731 C30.1922892,0.256913669 11.0843373,24.018295 1.92771084,34.0538345" id="path-5"></path>
        <linearGradient x1="79.8862728%" y1="3.78215193%" x2="20.4187504%" y2="97.452266%" id="linearGradient-7">
            <stop stop-color="#684574" offset="0%"></stop>
            <stop stop-color="#9F41C0" offset="52.73%"></stop>
            <stop stop-color="#684574" offset="100%"></stop>
        </linearGradient>
        <linearGradient x1="48.0728865%" y1="135.86334%" x2="49.2079928%" y2="-11.4429915%" id="linearGradient-8">
            <stop stop-color="#3CECEC" offset="0%"></stop>
            <stop stop-color="#3CECEC" offset="61%"></stop>
            <stop stop-color="#31DEDE" offset="71.2%"></stop>
            <stop stop-color="#24B6B6" offset="86.2%"></stop>
            <stop stop-color="#24B6B6" offset="100%"></stop>
        </linearGradient>
        <linearGradient x1="48.0728865%" y1="84.7860081%" x2="49.2079928%" y2="25.1074626%" id="linearGradient-9">
            <stop stop-color="#3CECEC" offset="0%"></stop>
            <stop stop-color="#3CECEC" offset="61%"></stop>
            <stop stop-color="#31DEDE" offset="71.2%"></stop>
            <stop stop-color="#24B6B6" offset="86.2%"></stop>
            <stop stop-color="#24B6B6" offset="100%"></stop>
        </linearGradient>
        <path d="M8.73012048,0.237151079 C3.52674699,0.419352518 1.34120482,0.751942446 0.264096386,1.04211511 L0.264096386,1.04211511 C0.508433735,1.57907914 0.66746988,2.0736259 0.756626506,2.47369784 L0.756626506,2.47369784 C1.55084337,5.96203597 1.44289157,8.14604317 1.4346988,11.8869568 L1.4346988,11.8869568 C3.2660241,12.0334892 4.93493976,11.7413885 4.93493976,11.7413885 L4.93493976,11.7413885 C4.93493976,11.7413885 11.0737349,11.1118777 12.180241,11.0092086 L12.180241,11.0092086 C15.8284337,10.6703525 23.4187952,10.386446 25.7961446,10.5488849 L25.7961446,10.5488849 C27.0674699,10.6298633 28.6110843,10.787 30.0563855,11.0574101 L30.0563855,11.0574101 C32.8390361,11.5784676 33.9108434,12.3737914 34.6910843,13.0249928 L34.6910843,13.0249928 C35.546988,13.736446 35.9787952,14.604554 36.1821687,15.5174892 L36.1821687,15.5174892 C36.4308434,16.4954964 36.4038554,17.4508489 36.293494,18.123741 L36.293494,18.123741 C36.220241,18.5681583 36.1339759,18.9103885 36.0819277,19.0993381 L36.0819277,19.0993381 C38.0115663,16.0669856 38.8761446,8.88834532 35.8645783,5.55955396 L35.8645783,5.55955396 C32.9079518,2.30595683 29.7609639,1.6682518 28.7874699,1.40458993 L28.7874699,1.40458993 C27.813494,1.139 20.5455422,0.531179856 20.5455422,0.531179856 L20.5455422,0.531179856 C20.5455422,0.531179856 13.9696386,0.216906475 10.1440964,0.216906475 L10.1440964,0.216906475 C9.61060241,0.216906475 9.13108434,0.223172662 8.73012048,0.237151079" id="path-10"></path>
    </defs>
    <g id="Page-1" stroke="none" stroke-width="1" fill="none" fill-rule="evenodd">
        <g id="logo">
            <path d="M10.8014458,2.72802158 C9.62168675,1.57938129 8.10168675,1 6.23855422,1 C4.37783133,1 2.87036145,1.57938129 1.72240964,2.72802158 C0.573975904,3.8776259 0,5.38392086 0,7.24738849 L0,60.697964 C0,62.5638417 0.573975904,64.0739928 1.72240964,65.220223 C2.87036145,66.3703094 4.37783133,66.9448705 6.23855422,66.9448705 C8.10168675,66.9448705 9.62168675,66.3703094 10.8014458,65.220223 C11.980241,64.0739928 12.5720482,62.5638417 12.5720482,60.697964 L12.5720482,7.24738849 C12.5720482,5.38392086 11.980241,3.8776259 10.8014458,2.72802158" id="Fill-2" fill="#3CECEC" fill-rule="nonzero"></path>
            <g id="Group-6" transform="translate(158.072289, 54.467626)">
                <g id="Fill-4-Clipped">
                    <mask id="mask-2" fill="white">
                        <use xlink:href="#path-1"></use>
                    </mask>
                    <g id="path-1"></g>
                    <g id="Fill-4" fill-rule="nonzero" mask="url(#mask-2)">
                        <use fill="url(#linearGradient-3)" xlink:href="#path-4"></use>
                        <use fill="#3CECEC" xlink:href="#path-4"></use>
                    </g>
                </g>
            </g>
            <g id="Group-9" transform="translate(160.000000, 10.604317)">
                <g id="Fill-7-Clipped">
                    <mask id="mask-6" fill="white">
                        <use xlink:href="#path-5"></use>
                    </mask>
                    <g id="path-4"></g>
                    <path d="M1.92771084,34.0538345 L1.92771084,34.1675899 C1.92771084,37.8795827 1.74072289,41.5361439 0.319036145,44.6282662 L0.319036145,44.6282662 C3.81783133,46.3664101 6.87710843,46.0733453 7.10843373,46.0453885 L7.10843373,46.0453885 L22.7927711,26.7889137 C22.7927711,26.7889137 37.500241,8.58756835 37.5262651,8.47381295 L37.5262651,8.47381295 C37.4987952,8.52105036 37.6298795,8.1908705 37.7392771,7.51942446 L37.7392771,7.51942446 C37.8351807,6.81616547 37.8761446,5.86418705 37.6592771,4.91028058 L37.6592771,4.91028058 C37.3253012,3.56738849 36.4245783,2.16328058 34.3450602,1.2561295 L34.3450602,1.2561295 C33.5493976,0.914381295 32.5575904,0.652165468 31.5021687,0.453093525 L31.5021687,0.453093525 C31.2279518,0.407302158 30.5455422,0.293064748 30.233253,0.262695731 L30.233253,0.262695731 C30.1922892,0.256913669 11.0843373,24.018295 1.92771084,34.0538345" id="Fill-7" fill="url(#linearGradient-7)" fill-rule="nonzero" mask="url(#mask-6)"></path>
                </g>
            </g>
            <g id="Group-12" transform="translate(161.445783, 0.000000)" fill-rule="nonzero">
                <g id="Clip-11">
                    <g id="path-8">
                        <use fill="url(#linearGradient-9)" xlink:href="#path-10"></use>
                        <use fill="#3CECEC" xlink:href="#path-10"></use>
                    </g>
                </g>
            </g>
            <g id="Group-17" transform="translate(18.313253, 0.482014)" fill="#3CECEC" fill-rule="nonzero">
                <path d="M81.4613012,66.3998439 C67.7210602,66.3998439 56.3841928,55.7468439 56.3841928,42.6577432 L56.3841928,5.73977914 C56.3841928,2.60572158 58.9263614,0.0606856115 62.0598554,0.0606856115 C65.195759,0.0606856115 67.7403373,2.60572158 67.7403373,5.73977914 L67.7403373,12.6846424 L71.2102169,12.6846424 C74.696,12.6846424 77.5215422,15.5063547 77.5215422,18.9927647 C77.5215422,22.4753187 74.696,25.3061892 71.2102169,25.3061892 L67.7403373,25.3061892 L67.7403373,42.6577432 C67.7403373,49.3673835 74.1075663,55.0435849 81.4613012,55.0435849 C83.396241,55.0435849 85.2347952,54.6724338 86.9070843,54.0149662 C88.5066024,57.5529518 90.8304578,60.7265345 93.6950361,63.3597791 C90.0714217,65.2912108 85.8998554,66.3998439 81.4613012,66.3998439 M114.431904,66.3212755 C100.688289,66.3212755 89.5075663,55.7087647 89.5075663,42.6577432 L89.5075663,5.73977914 C89.5075663,2.60572158 92.049253,0.0606856115 95.1870843,0.0606856115 C98.3239518,0.0606856115 100.864193,2.60572158 100.864193,5.73977914 L100.864193,42.6577432 C100.864193,49.4401676 106.951904,54.9621245 114.431904,54.9621245 C121.909976,54.9621245 127.994795,49.4401676 127.994795,42.6577432 L127.994795,5.73977914 C127.994795,2.60572158 130.537446,0.0606856115 133.675759,0.0606856115 C136.810217,0.0606856115 139.352867,2.60572158 139.352867,5.73977914 L139.352867,42.6577432 C139.352867,55.7087647 128.170217,66.3212755 114.431904,66.3212755" id="Fill-13"></path>
                <path d="M50.1501205,23.8305504 L50.1501205,60.7480324 C50.1501205,63.8806439 47.6074699,66.4261619 44.473012,66.4261619 C41.3346988,66.4261619 38.7920482,63.8806439 38.7920482,60.7480324 L38.7920482,23.8305504 C38.7920482,17.0461978 32.7086747,11.524241 25.2296386,11.524241 C17.7491566,11.524241 11.6643373,17.0461978 11.6643373,23.8305504 L11.6643373,60.7480324 C11.6643373,63.8806439 9.12216867,66.4261619 5.98481928,66.4261619 C2.84843373,66.4261619 0.30626506,63.8806439 0.30626506,60.7480324 L0.30626506,23.8305504 C0.30626506,10.7790468 11.4860241,0.166535971 25.2296386,0.166535971 C38.9693976,0.166535971 50.1501205,10.7790468 50.1501205,23.8305504" id="Fill-15"></path>
            </g>
        </g>
    </g>
</svg>