<?xml version="1.0" encoding="UTF-8"?>
<svg width="45px" height="45px" viewBox="0 0 45 45" version="1.1" xmlns="http://www.w3.org/2000/svg" xmlns:xlink="http://www.w3.org/1999/xlink">
    <!-- Generator: Sketch 55.2 (78181) - https://sketchapp.com -->
    <title>right-c-arr</title>
    <desc>Created with Sketch.</desc>
    <g id="right-c-arr" stroke="none" stroke-width="1" fill="none" fill-rule="evenodd">
        <path d="M22.7125456,2.25506795 C28.3153658,2.25698267 33.1315313,4.25804825 37.1196899,8.24031083 C41.1101853,12.2249067 43.1142558,17.0520062 43.1142558,22.6797767 C43.1142558,28.3083295 41.109545,33.1216908 37.1176527,37.0772541 C33.129602,41.0290107 28.3148479,43.0436391 22.7126354,43.1044427 C17.1007214,43.1653516 12.2623913,41.1472649 8.24124604,37.0712282 C4.22428571,32.9994335 2.22018079,28.1877341 2.2503358,22.6755802 C2.28114412,17.1696167 4.28256914,12.3490968 8.23530358,8.25040259 C12.1986962,4.14065664 17.0404768,2.13526249 22.7125456,2.25506795 Z M23.4985759,30.674832 L31.4753082,22.6381363 L23.4985759,14.6731968 L23.4985759,20.9209211 L13.5805355,20.9209211 L13.5805355,24.3506024 L23.4985759,24.3506024 L23.4985759,30.674832 Z" id="right-circle---iconic" stroke="#FFFFFF" stroke-width="1.5"></path>
    </g>
</svg>