<svg width="274" height="222" viewBox="0 0 274 222" fill="none" xmlns="http://www.w3.org/2000/svg">
<g clip-path="url(#clip0)">
<path d="M149.465 65.4405V65.4395C149.465 32.8676 175.877 6.46254 208.459 6.46254C241.041 6.46254 267.454 32.8676 267.454 65.4395C267.454 98.0114 241.041 124.416 208.459 124.416H208.458C198.543 124.431 188.785 121.935 180.095 117.162L179.642 116.913L179.22 117.213C177.192 118.655 173.718 120.804 169.55 122.075C165.704 123.247 161.311 123.659 156.917 122.127L168.121 109.572L168.656 108.972L168.069 108.422C162.188 102.914 157.503 96.2561 154.302 88.8625C151.102 81.4688 149.455 73.4966 149.465 65.4405Z" fill="#D9D8D8" stroke="#D9D8D8" stroke-width="1.64798"/>
<path opacity="0.1" d="M258.088 65.5691C258.088 34.3235 234.116 8.67947 203.556 6.00333C205.298 5.85075 207.061 5.76819 208.843 5.76819C241.88 5.76819 268.662 32.542 268.662 65.5691C268.662 98.5963 241.88 125.37 208.843 125.37C207.064 125.37 205.304 125.286 203.564 125.134C234.12 122.454 258.088 96.8119 258.088 65.5691Z" fill="black"/>
<path d="M124.485 198.185L113.285 185.634C118.963 180.099 123.508 173.506 126.661 166.223C129.973 158.57 131.678 150.319 131.668 141.98C131.667 108.271 104.332 80.9446 70.6134 80.9446C36.8942 80.9446 9.55869 108.271 9.55869 141.981C9.55869 175.691 36.8932 203.017 70.6116 203.018C80.6184 203.033 90.47 200.578 99.2935 195.875C101.478 197.364 104.879 199.355 108.922 200.587C113.388 201.948 118.716 202.406 124.045 200.146L125.633 199.472L124.485 198.185Z" fill="#3CECEC" stroke="#3CECEC" stroke-width="2.47197"/>
<path opacity="0.1" d="M21.3687 141.679C21.3687 110.434 45.3404 84.7897 75.9004 82.1136C74.158 81.961 72.3955 81.8784 70.6134 81.8784C37.5764 81.8784 10.7947 108.652 10.7947 141.679C10.7947 174.707 37.5764 201.48 70.6134 201.48C72.3928 201.48 74.1523 201.397 75.8921 201.244C45.3361 198.564 21.3687 172.922 21.3687 141.679Z" fill="black"/>
<path d="M222.502 46.4408C218.588 39.8296 210.845 39.5215 210.845 39.5215C210.845 39.5215 203.3 38.5569 198.46 48.6259C193.948 58.011 187.722 67.0725 197.457 69.2695L199.216 63.7978L200.305 69.6768C201.691 69.7765 203.082 69.8003 204.47 69.748C214.896 69.4115 224.826 69.8465 224.506 66.1063C224.081 61.1342 226.268 52.8022 222.502 46.4408Z" fill="#2F2E41"/>
<path d="M196.901 104.338C196.786 105.066 196.619 105.784 196.402 106.487C196.157 107.175 195.779 107.812 195.555 108.508C194.841 110.725 195.831 113.197 197.411 114.908C198.782 116.387 200.551 117.437 202.505 117.932C203.944 118.24 205.411 118.394 206.883 118.392C210.951 118.53 215.125 118.654 218.98 117.346C220.198 116.923 221.375 116.389 222.495 115.75C222.848 115.582 223.16 115.337 223.407 115.032C223.665 114.587 223.78 114.073 223.736 113.56C223.727 111.835 223.377 110.12 223.46 108.398C223.506 107.444 223.685 106.49 223.597 105.539C223.475 104.459 223.023 103.443 222.301 102.63C221.58 101.817 220.624 101.247 219.566 100.997C218.472 100.762 217.338 100.89 216.225 100.997C213.334 101.275 210.432 101.405 207.528 101.386C204.562 101.367 201.613 100.914 198.662 100.867C197.789 100.853 197.806 101.122 197.528 101.967C197.272 102.744 197.063 103.536 196.901 104.338Z" fill="#2F2E41"/>
<path d="M205.32 61.7613C205.178 62.5076 205.024 63.2811 204.575 63.8944C204.059 64.6 203.217 65.0031 202.662 65.6784C201.826 66.6948 201.778 68.125 201.775 69.4407C201.772 70.6527 201.796 71.9455 202.473 72.9516C202.954 73.5766 203.551 74.103 204.232 74.502C206.767 76.2102 209.507 77.9491 212.564 78.0054C213.831 78.0288 215.189 77.7018 216.022 76.7479C216.382 76.2999 216.665 75.7953 216.86 75.2546C217.641 73.3283 218.115 71.2911 218.264 69.2177C218.376 68.2429 218.285 67.2554 217.996 66.3176C217.625 65.2825 216.874 64.4308 216.378 63.4494C215.791 62.2823 215.577 60.9635 215.763 59.6708C215.788 59.5798 215.78 59.483 215.742 59.397C215.701 59.3509 215.65 59.3149 215.593 59.2918C215.536 59.2687 215.474 59.2591 215.413 59.2638L209.351 58.8275C208.787 58.7995 208.224 58.7352 207.668 58.635C207.341 58.5686 206.478 58.1047 206.167 58.228C205.59 58.4564 205.439 61.1425 205.32 61.7613Z" fill="#FFB8B8"/>
<path opacity="0.1" d="M205.32 61.9505C205.178 62.6968 205.024 63.4703 204.575 64.0836C204.059 64.7892 203.217 65.1923 202.662 65.8676C201.826 66.884 201.778 68.3142 201.775 69.6299C201.772 70.8419 201.796 72.1347 202.473 73.1408C202.954 73.7658 203.551 74.2922 204.232 74.6912C206.767 76.3994 209.507 78.1383 212.564 78.1946C213.831 78.218 215.189 77.891 216.022 76.9371C216.382 76.4891 216.665 75.9845 216.86 75.4438C217.641 73.5175 218.115 71.4803 218.264 69.4069C218.376 68.4321 218.285 67.4446 217.996 66.5068C217.625 65.4717 216.874 64.62 216.378 63.6386C215.791 62.4715 215.577 61.1527 215.763 59.86C215.788 59.769 215.78 59.6722 215.742 59.5862C215.701 59.5401 215.65 59.5041 215.593 59.481C215.536 59.4579 215.474 59.4483 215.413 59.453L209.351 59.0167C208.787 58.9887 208.224 58.9244 207.668 58.8243C207.341 58.7578 206.478 58.2939 206.167 58.4172C205.59 58.6456 205.439 61.3317 205.32 61.9505Z" fill="black"/>
<path d="M211.117 62.5739C216.029 62.5739 220.01 58.5935 220.01 53.6835C220.01 48.7734 216.029 44.793 211.117 44.793C206.206 44.793 202.224 48.7734 202.224 53.6835C202.224 58.5935 206.206 62.5739 211.117 62.5739Z" fill="#FFB8B8"/>
<path d="M206.568 73.596C207.007 74.1046 207.537 74.5277 208.13 74.8438C208.748 75.0993 209.412 75.2257 210.081 75.2153C211.684 75.2603 213.422 74.9667 214.537 73.8145C215.975 72.3294 215.927 69.9339 217.054 68.2012C217.145 68.0441 217.269 67.9087 217.417 67.8042C217.606 67.7014 217.82 67.6523 218.035 67.6623C219.458 67.649 220.697 68.5717 221.816 69.451C222.343 69.8133 222.795 70.2735 223.147 70.8065C223.368 71.238 223.52 71.7017 223.596 72.1806C224.151 74.89 224.331 77.6602 224.51 80.42C224.608 81.9444 224.707 83.4703 224.699 84.9979C224.675 90.0305 223.505 94.979 222.342 99.8754C222.192 100.506 221.986 101.212 221.413 101.514C221.157 101.629 220.882 101.696 220.602 101.712C217.269 102.103 213.93 102.495 210.574 102.546C209.265 102.566 207.956 102.535 206.648 102.451C206.423 102.448 206.199 102.409 205.986 102.336C205.697 102.197 205.449 101.986 205.265 101.724C203.45 99.4374 203.343 96.2766 203.355 93.3578C203.383 86.2218 203.638 79.0914 204.12 71.9668C204.16 71.3787 204.169 70.6645 203.745 70.2019C204.57 71.4246 205.516 72.5617 206.568 73.596Z" fill="white"/>
<path d="M204.684 63.3307C204.383 63.8742 202.169 65.224 201.742 65.6744C199.353 68.1914 194.993 68.097 192.809 70.7929C192.04 71.7414 191.641 72.9332 191.347 74.118C190.932 75.7938 190.71 77.6213 191.406 79.2014C192.075 80.7218 193.485 81.7729 194.442 83.131C195.493 84.6222 195.965 86.4328 196.418 88.1998C196.752 89.5044 197.089 90.8414 196.959 92.1818C196.811 93.7059 196.073 95.1014 195.637 96.5695C195.202 98.0375 195.127 99.7859 196.134 100.94C196.874 101.787 198.034 102.123 199.144 102.312C200.564 102.526 201.997 102.65 203.433 102.686C204.702 102.742 206.099 102.752 207.074 101.94C207.843 101.299 208.178 100.258 208.221 99.2577C208.264 98.2574 208.056 97.2659 207.926 96.2732C207.79 95.244 207.738 94.206 207.695 93.1689C207.5 88.5159 207.473 83.8598 207.615 79.2008C207.687 78.2325 207.639 77.259 207.474 76.3023C207.202 75.056 206.528 73.9421 205.966 72.797C204.842 70.6402 204.333 68.2162 204.495 65.7898C204.665 63.2962 205.753 61.3965 204.684 63.3307Z" fill="white"/>
<path d="M217.172 63.5197C217.63 63.9898 219.184 64.1448 219.766 64.4475C220.314 64.7003 220.885 64.898 221.471 65.0377C223.594 65.65 225.613 66.5764 227.462 67.7864C227.846 68.011 228.186 68.3042 228.464 68.6514C228.757 69.128 228.946 69.6611 229.018 70.2158C229.303 71.627 229.589 73.0551 229.525 74.4933C229.457 76.02 228.997 77.4985 228.541 78.957L226.836 84.4065C225.563 88.4742 224.282 92.5819 223.924 96.8289C223.726 99.1827 223.814 101.552 224.186 103.884C224.222 103.998 224.232 104.118 224.217 104.235C224.202 104.353 224.163 104.467 224.101 104.568C223.988 104.679 223.84 104.747 223.683 104.76C222.86 104.888 222.064 104.469 221.318 104.098C219.039 102.964 216.607 102.168 214.098 101.736C215.079 100.32 215.835 98.7614 216.341 97.1151C216.628 96.0698 216.854 95.0086 217.018 93.937L217.811 89.3508C218.134 87.6745 218.361 85.9813 218.492 84.2792C218.552 83.6405 218.515 82.9964 218.381 82.3688C218.199 81.7715 217.956 81.1943 217.657 80.6459C216.35 77.9276 215.737 74.8255 216.251 71.8535C216.476 70.5528 216.913 69.2505 216.731 67.9432C216.556 66.6863 216.738 65.7094 216.415 64.4656C215.091 59.3582 216.311 62.6354 217.172 63.5197Z" fill="white"/>
<path d="M192.786 75.0907C192.19 76.327 191.194 77.3802 190.855 78.7101C190.723 79.3316 190.666 79.9667 190.686 80.6017C190.628 81.5588 190.722 82.5191 190.967 83.4462C191.156 84.0326 191.464 84.5734 191.686 85.1483C191.995 85.9515 192.133 86.8105 192.091 87.6701C192.031 88.861 191.626 90.0169 191.594 91.2089C191.545 93.0833 192.412 94.8454 193.258 96.5189C193.471 95.9916 193.797 95.5171 194.212 95.1288C194.628 94.7405 195.123 94.4476 195.664 94.2707C196.205 94.0937 196.777 94.037 197.342 94.1045C197.907 94.172 198.45 94.362 198.934 94.6613C199.128 94.4233 199.22 94.1185 199.19 93.8131C199.252 91.6384 199.313 89.4637 199.371 87.289C199.462 83.9256 199.549 80.5172 198.776 77.2428C198.426 75.7643 197.882 74.2916 196.886 73.1449C196.361 72.5411 194.579 70.9507 193.718 71.6271C193.33 71.9312 193.421 72.7593 193.359 73.1786C193.267 73.8414 193.073 74.4862 192.786 75.0907Z" fill="white"/>
<path d="M229.699 71.528C229.939 72.4195 230.042 73.3423 230.004 74.2646C230.015 76.1445 229.99 78.0242 229.929 79.9036C229.938 80.8675 229.815 81.8282 229.563 82.7585C229.37 83.3635 229.073 83.9308 228.874 84.5338C228.279 86.3409 228.604 88.3008 228.655 90.2027C228.691 90.8183 228.639 91.4359 228.499 92.0365C228.185 93.2156 227.34 94.1683 226.75 95.2367C226.191 96.2514 225.853 97.3887 225.184 98.3353C224.515 99.2818 223.357 100.032 222.235 99.7413C221.385 99.5211 220.781 98.7687 220.363 97.9964C219.451 96.2983 219.139 94.3423 219.478 92.4449C219.897 90.1365 221.254 88.0886 221.743 85.794C222.414 82.6429 221.394 79.3912 221.424 76.1694C221.41 75.6644 221.479 75.1605 221.627 74.6775C221.883 73.9416 222.434 73.3539 222.943 72.7638C223.58 72.0262 224.171 71.2508 224.713 70.442C225.078 69.8986 225.573 68.501 226.219 68.3848C227.661 68.1254 229.342 70.4138 229.699 71.528Z" fill="white"/>
<path d="M185.301 102.937C184.503 102.736 183.681 102.649 182.859 102.677C181.995 102.725 181.152 102.956 180.384 103.355C179.617 103.754 178.943 104.312 178.408 104.991C177.872 105.671 177.488 106.456 177.28 107.295C177.072 108.135 177.045 109.009 177.201 109.86C177.4 110.781 177.726 111.67 178.169 112.503C178.816 113.816 179.593 115.127 180.792 115.969C181.514 116.432 182.292 116.802 183.107 117.071L189.42 119.449C190.349 119.798 191.278 120.148 192.216 120.473C196.929 122.101 201.842 123.077 206.819 123.375C208.334 123.517 209.861 123.439 211.353 123.145C211.714 123.098 212.045 122.919 212.282 122.644C212.402 122.434 212.473 122.2 212.49 121.959L212.878 119.239C212.965 118.861 212.954 118.466 212.845 118.093C212.667 117.636 212.221 117.349 211.796 117.105C207.645 114.721 202.798 113.406 199.304 110.135C198.482 109.365 197.793 108.144 196.794 107.621C195.661 107.028 194.326 106.69 193.155 106.143C190.594 104.948 188.076 103.575 185.301 102.937Z" fill="#2F2E41"/>
<path opacity="0.1" d="M191.604 106.603C193.836 107.302 203.258 112.145 204.873 113.836C204.657 113.914 197.312 109.799 197.091 109.733C195.071 109.178 193.093 108.481 191.171 107.647C190.789 107.47 188.685 106.639 188.78 106.156C188.888 105.611 191.208 106.479 191.604 106.603Z" fill="black"/>
<path d="M219.446 124.785C219.573 124.794 219.698 124.757 219.8 124.681C219.844 124.624 219.877 124.558 219.896 124.488C219.915 124.419 219.92 124.346 219.91 124.274L219.9 120.57C218.834 120.062 217.642 119.899 216.473 119.743L211.014 119.014C211.139 119.03 210.16 121.364 210.311 121.675C210.575 122.225 212.597 122.711 213.167 122.97C215.151 123.872 217.212 124.863 219.446 124.785Z" fill="#FFB8B8"/>
<path d="M202.32 120.557C201.289 120.721 200.139 120.866 199.471 121.668C198.625 122.685 198.985 124.201 199.389 125.461C199.414 125.624 199.471 125.78 199.557 125.92C199.643 126.06 199.756 126.182 199.89 126.278C200.023 126.373 200.175 126.441 200.336 126.477C200.496 126.513 200.662 126.517 200.824 126.488C201.764 126.547 202.764 126.594 203.586 126.133C203.958 125.887 204.316 125.621 204.658 125.336C205.264 124.933 205.93 124.629 206.631 124.434C207.919 124.029 209.246 123.756 210.59 123.619C211.119 123.595 211.643 123.502 212.149 123.344C212.402 123.262 212.632 123.124 212.823 122.939C213.013 122.754 213.159 122.528 213.247 122.278C213.438 121.605 213.046 120.918 212.671 120.328C212.238 119.555 211.677 118.861 211.011 118.277C209.994 117.487 209.491 118.093 208.466 118.599C206.527 119.555 204.455 120.215 202.32 120.557Z" fill="#FFB8B8"/>
<path d="M199.626 121.485L193.082 119.551C192.297 119.278 191.477 119.119 190.647 119.079C190.231 119.062 189.817 119.134 189.431 119.29C189.045 119.446 188.697 119.682 188.41 119.984C187.903 120.579 187.758 121.393 187.631 122.165L187.361 123.816C187.18 124.648 187.129 125.504 187.209 126.352C187.253 126.776 187.392 127.184 187.618 127.546C187.843 127.908 188.148 128.214 188.509 128.441C189.415 128.935 190.525 128.693 191.535 128.487C193.577 128.07 195.653 127.847 197.737 127.822C198.52 127.812 199.342 127.822 200.034 127.456C200.436 127.217 200.773 126.885 201.017 126.487C201.261 126.089 201.404 125.637 201.433 125.171C201.562 123.76 201.092 121.918 199.626 121.485Z" fill="#2F2E41"/>
<path d="M222.018 119.8C222.867 119.651 223.615 119.169 224.428 118.885C225.573 118.484 226.813 118.484 228.025 118.489C228.471 118.448 228.919 118.538 229.314 118.747C229.848 119.102 229.985 119.813 230.076 120.448L230.624 124.279C230.77 124.993 230.785 125.729 230.668 126.449C230.508 127.159 230.024 127.843 229.319 128.026C228.463 128.248 227.625 127.702 226.817 127.343C224.797 126.446 222.45 126.675 220.344 126.004C220.143 125.964 219.952 125.881 219.785 125.762C219.618 125.643 219.478 125.489 219.375 125.312C219.303 125.099 219.277 124.873 219.3 124.65C219.336 123.419 219.076 121.738 219.447 120.561C219.78 119.503 221.071 119.8 222.018 119.8Z" fill="#2F2E41"/>
<path d="M235.867 101.395C237.175 101.067 238.53 100.975 239.87 101.122C240.941 101.24 242.043 101.537 242.825 102.278C243.776 103.179 244.081 104.573 244.107 105.883C244.149 108.492 243.283 111.034 241.658 113.076C241.261 113.593 240.789 114.047 240.258 114.424C239.685 114.782 239.074 115.076 238.436 115.301L224.297 120.877C220.577 122.343 216.844 123.814 212.964 124.781C212.858 124.833 212.743 124.862 212.625 124.868C212.507 124.874 212.39 124.856 212.279 124.816C212.168 124.776 212.067 124.714 211.98 124.634C211.894 124.554 211.824 124.458 211.776 124.351C210.537 122.581 209.497 120.681 208.676 118.683C208.638 118.636 208.611 118.58 208.598 118.52C208.586 118.46 208.588 118.397 208.604 118.338C208.621 118.279 208.651 118.225 208.693 118.18C208.735 118.136 208.787 118.102 208.845 118.081L218.846 112.337C219.58 111.954 220.263 111.483 220.882 110.934C221.314 110.516 221.668 110.023 221.927 109.48C222.134 109.047 222.154 108.026 222.419 107.706C222.678 107.392 223.565 107.367 223.974 107.244C224.552 107.067 225.118 106.853 225.668 106.604C227.905 105.604 229.897 104.15 232.042 102.978C233.245 102.291 234.53 101.759 235.867 101.395Z" fill="#2F2E41"/>
<path opacity="0.1" d="M230.198 105.685C228.479 106.975 226.254 108.161 224.552 109.485C223.97 109.937 214.282 115.383 214.145 116.106C215.733 116.374 225.854 109.296 227.302 108.589C228.75 107.883 230.034 106.887 231.305 105.899C231.63 105.647 233.003 104.889 232.073 104.608C231.549 104.449 230.585 105.427 230.198 105.685Z" fill="black"/>
<path d="M218.375 63.6448H203.292C202.679 63.6448 202.092 63.8881 201.658 64.3213C201.225 64.7545 200.982 65.342 200.982 65.9546V66.8004H200.818V68.692H200.982V70.0161H200.818V71.1511H200.982V85.1083C200.982 85.7209 201.225 86.3084 201.658 86.7416C202.092 87.1747 202.679 87.4181 203.292 87.4181H218.375C218.988 87.4181 219.575 87.1747 220.009 86.7416C220.442 86.3084 220.685 85.7209 220.685 85.1083V65.9546C220.685 65.342 220.442 64.7545 220.009 64.3213C219.575 63.8881 218.988 63.6448 218.375 63.6448Z" fill="#D0CDE1"/>
<path d="M220.772 45.8037L213.122 41.7976L202.558 43.4365L200.372 53.0871L205.813 52.8777L207.333 49.3323V52.8195L209.843 52.723L211.3 47.0781L212.211 53.0871L221.136 52.9049L220.772 45.8037Z" fill="#2F2E41"/>
<path d="M194.788 100.145C195.134 100.733 195.626 101.222 196.216 101.565C196.603 101.742 197.025 101.828 197.451 101.817C197.876 101.805 198.293 101.697 198.67 101.5C199.423 101.096 200.04 100.478 200.442 99.7241C201.273 98.2564 201.445 96.5002 201.342 94.8167C201.238 93.1332 200.878 91.4755 200.719 89.7963C200.603 88.5757 200.594 87.3478 200.585 86.1217C200.556 85.8639 200.61 85.6036 200.739 85.3785C200.961 85.1576 201.249 85.014 201.559 84.9691C203.237 84.4707 204.351 82.8985 205.149 81.3412C205.683 80.3014 206.146 79.1647 206.043 78.0008C205.941 76.8369 205.104 75.6643 203.941 75.5456C202.982 75.4477 202.097 76.0564 201.406 76.7273C199.661 78.4303 198.54 80.6701 198.223 83.0868C198.071 84.2703 198.114 85.486 197.792 86.6349C197.105 89.088 194.954 90.5921 193.882 92.7995C192.701 95.2318 193.352 97.9932 194.788 100.145Z" fill="#FFB8B8"/>
<path d="M226.442 90.7732C226.198 91.3421 225.841 91.8563 225.395 92.2854C224.948 92.7144 224.42 93.0497 223.841 93.2713C223.123 93.56 222.329 93.6086 221.581 93.4098C221.209 93.3068 220.867 93.1196 220.579 92.8627C220.292 92.6059 220.068 92.2863 219.925 91.9288C219.81 91.5687 219.747 91.1942 219.738 90.8164C219.63 89.1621 219.672 87.4574 220.273 85.9124C220.505 85.3164 220.817 84.7513 221 84.1386C221.18 83.431 221.272 82.7039 221.274 81.9738L221.472 77.46C221.505 77.1323 221.482 76.8015 221.405 76.4813C221.208 75.8282 220.597 75.4038 220.037 75.0143C218.684 74.0736 217.347 72.976 216.691 71.4645C216.466 71.0094 216.385 70.4963 216.46 69.9941C216.645 69.0977 217.55 68.5175 218.444 68.322C219.029 68.1941 219.634 68.1859 220.223 68.298C220.811 68.4101 221.371 68.64 221.868 68.9741C222.365 69.3081 222.789 69.7393 223.115 70.2417C223.441 70.744 223.662 71.3071 223.764 71.8971C223.853 72.4065 223.852 72.9268 223.903 73.4412C224.013 74.5324 224.36 75.5843 224.577 76.6594C225.111 79.3075 224.834 82.0449 225.362 84.6926C225.803 86.9064 227.468 88.3509 226.442 90.7732Z" fill="#FFB8B8"/>
<path d="M211.035 73.7992C212.08 73.7992 212.927 72.9523 212.927 71.9076C212.927 70.8629 212.08 70.016 211.035 70.016C209.99 70.016 209.143 70.8629 209.143 71.9076C209.143 72.9523 209.99 73.7992 211.035 73.7992Z" fill="#3CECEC"/>
<path d="M5.58223 139.892C8.66487 139.892 11.1638 137.394 11.1638 134.312C11.1638 131.23 8.66487 128.732 5.58223 128.732C2.49959 128.732 0.000610352 131.23 0.000610352 134.312C0.000610352 137.394 2.49959 139.892 5.58223 139.892Z" fill="#2F2E41"/>
<path d="M25.8147 150.877L23.0033 148.145L17.3579 149.898L17.9001 156.433L29.5078 155.894L25.9419 151.05L25.8147 150.877Z" fill="#FBBEBE"/>
<path d="M19.6659 150.821C24.6497 150.821 28.6899 146.782 28.6899 141.8C28.6899 136.817 24.6497 132.778 19.6659 132.778C14.6821 132.778 10.642 136.817 10.642 141.8C10.642 146.782 14.6821 150.821 19.6659 150.821Z" fill="#FBBEBE"/>
<path d="M75.6871 162.456C75.6871 162.456 86.7731 181.502 89.4115 184.361C90.6662 185.768 92.003 187.1 93.4148 188.35C93.4148 188.35 92.1742 192.463 90.1988 192.316C89.0729 192.248 87.9687 191.976 86.9401 191.513C86.9401 191.513 86.0584 189.228 84.5205 188.226C82.9826 187.224 70.4177 174.867 70.7114 170.917C71.005 166.967 75.6871 162.456 75.6871 162.456Z" fill="#2F2E41"/>
<path d="M36.2062 189.635C36.2062 189.635 48.0265 198.807 64.0906 190.189L65.475 189.17C65.475 189.17 63.1387 194.425 62.9219 195.849C62.6706 197.501 56.5881 207.176 55.5955 207.64C54.6029 208.103 54.3842 208.531 54.3842 208.531L58.5964 213.166L60.1538 212.02C60.1538 212.02 66.2266 203.419 68.0028 201.845C69.7789 200.272 78.2415 184.045 78.2415 184.045C78.2415 184.045 81.477 177.931 73.4022 177.471C65.3275 177.011 61.6118 179.212 61.6118 179.212L47.2812 181.487L36.2062 189.635Z" fill="#2F2E41"/>
<path d="M93.5519 187.449L99.5306 191.584C99.5306 191.584 107.158 193.973 102.46 195.563C97.7611 197.153 85.3797 197.728 85.0988 195.535C84.8179 193.341 85.5872 189.889 86.2049 190.077C86.8225 190.266 91.1098 191.379 93.5519 187.449Z" fill="#2F2E41"/>
<path d="M60.6828 210.599L61.7894 216.674C61.7894 216.674 64.936 222.69 61.158 220.824C57.38 218.957 49.5964 211.867 50.7458 210.38C51.8952 208.894 54.432 207.282 54.6896 207.766C54.9473 208.25 56.854 211.494 60.6828 210.599Z" fill="#2F2E41"/>
<path d="M49.2828 183.482C49.2828 183.482 41.2477 192.86 36.3695 190.582C31.4912 188.304 11.5334 161.917 13.8122 157.04C16.0911 152.164 16.8552 153.202 16.8552 153.202L27.16 154.154L24.195 149.402C24.195 149.402 25.5794 148.383 26.8986 149.813C28.2178 151.243 33.514 154.813 35.3591 159.856C37.2041 164.899 42.621 164.648 42.621 164.648L49.2828 183.482Z" fill="white"/>
<path d="M81.731 164.143L67.8026 178.924L55.3253 156.901L67.187 142.574L81.731 164.143Z" fill="#3F3D56"/>
<path d="M80.6797 163.983L68.0996 176.972L56.7 156.957L67.1544 143.798L80.6797 163.983Z" fill="white"/>
<path d="M67.12 178.359L67.8025 178.924L67.3649 179.779L47.8885 185.574L47.7043 184.907L48.5904 183.991L67.12 178.359Z" fill="#B3B3B3"/>
<path d="M67.9755 178.797L47.8071 185.101L35.5128 161.877L55.3252 156.901L67.9755 178.797Z" fill="#D0CDE1"/>
<path d="M66.4572 175.647L65.5919 176.283L55.9885 159.614L56.981 159.15L66.4572 175.647Z" fill="#3F3D56"/>
<path d="M64.4718 176.574L55.9402 179.117L46.2551 161.974L54.6954 160.032L64.4718 176.574Z" fill="#3F3D56"/>
<path d="M40.4366 163.855L42.203 163.355C42.203 163.355 52.0539 162.242 52.1977 165.336C52.3415 168.431 40.8808 166.995 40.8808 166.995L39.3526 164.919L40.4366 163.855Z" fill="#FBBEBE"/>
<path d="M49.0769 177.766L51.5355 176.757C51.5355 176.757 58.957 173.431 56.828 171.264C54.699 169.096 48.133 172.86 48.133 172.86L46.876 174.052L49.0769 177.766Z" fill="#FBBEBE"/>
<path d="M46.8857 172.978C46.8857 172.978 50.889 176.966 49.978 177.903C49.0671 178.84 34.1296 191.163 30.4267 187.22C26.7239 183.277 8.68295 163.481 15.703 161.783C22.723 160.085 24.5777 164.055 24.5777 164.055L33.845 179.905L46.8857 172.978Z" fill="white"/>
<path d="M34.8987 160.862L41.4747 163.091L41.3673 167.837L34.4125 167.087L34.8987 160.862Z" fill="white"/>
<path opacity="0.2" d="M40.8257 175.436L33.7406 179.582L25.6457 167.136L33.4596 177.388L40.8257 175.436Z" fill="black"/>
<path d="M15.705 149.924C21.6381 149.924 26.4478 145.116 26.4478 139.185C26.4478 133.253 21.6381 128.445 15.705 128.445C9.77196 128.445 4.96225 133.253 4.96225 139.185C4.96225 145.116 9.77196 149.924 15.705 149.924Z" fill="#2F2E41"/>
<path d="M73.7508 165.08L66.2288 154.08L69.4174 150.134L77.2335 161.452L73.7508 165.08Z" fill="#3CECEC"/>
<path d="M73.5389 169.503L62.0872 152.86L62.652 152.178L74.0501 168.86L73.5389 169.503Z" fill="#E6E6E6"/>
<path d="M72.0632 171.122L60.6116 154.479L61.1764 153.797L72.5745 170.48L72.0632 171.122Z" fill="#E6E6E6"/>
<path d="M70.8061 172.314L59.3544 155.671L59.9192 154.988L71.3174 171.671L70.8061 172.314Z" fill="#E6E6E6"/>
<path d="M20.4623 132.015H23.7856C25.4683 132.015 27.082 132.683 28.2718 133.872C29.4616 135.062 30.13 136.675 30.13 138.357H20.4623V132.015Z" fill="#2F2E41"/>
<path d="M66.24 127.978L65.6375 127.934C65.6142 128.247 65.5975 128.562 65.5776 128.876L62.8734 128.785L65.71 134.099L68.8958 128.987L66.1816 128.896C66.201 128.59 66.2173 128.284 66.24 127.978Z" fill="#3F3D56"/>
<path d="M82.1012 84.6628L82.5815 85.0295C83.302 84.0861 84.0545 83.1443 84.8182 82.2303L84.3544 81.843C83.5851 82.7638 82.827 83.7125 82.1012 84.6628Z" fill="#3F3D56"/>
<path d="M86.7297 79.1253L87.1758 79.5327C87.9774 78.6551 88.8097 77.7835 89.6492 76.9419L89.2214 76.5154C88.3755 77.363 87.5372 78.2412 86.7297 79.1253Z" fill="#3F3D56"/>
<path d="M91.8251 74.0176L92.2337 74.4627C93.1104 73.658 94.0156 72.8631 94.924 72.1L94.5354 71.6376C93.6202 72.4062 92.7083 73.2071 91.8251 74.0176Z" fill="#3F3D56"/>
<path d="M77.9771 90.5888L78.4877 90.9115C79.1228 89.9071 79.7897 88.9023 80.4698 87.925L79.9738 87.58C79.2886 88.5646 78.6168 89.5769 77.9771 90.5888Z" fill="#3F3D56"/>
<path d="M97.3472 69.3791L97.7151 69.8581C98.6593 69.1334 99.6305 68.4214 100.602 67.7419L100.256 67.2469C99.2768 67.9317 98.2983 68.649 97.3472 69.3791Z" fill="#3F3D56"/>
<path d="M74.3917 96.8585L74.9289 97.1345C75.4733 96.0763 76.0489 95.0159 76.6397 93.9832L76.1151 93.6832C75.5199 94.7238 74.94 95.7921 74.3917 96.8585Z" fill="#3F3D56"/>
<path d="M68.5636 113.861L67.9785 113.71C67.68 114.869 67.4035 116.051 67.1569 117.223L67.7481 117.348C67.993 116.185 68.2674 115.011 68.5636 113.861Z" fill="#3F3D56"/>
<path d="M103.254 65.2457L103.578 65.7554C104.58 65.1183 105.609 64.495 106.639 63.9026L106.337 63.379C105.3 63.976 104.263 64.6039 103.254 65.2457Z" fill="#3F3D56"/>
<path d="M67.0885 120.867L66.4923 120.77C66.2983 121.949 66.1279 123.15 65.9858 124.341L66.5859 124.412C66.7268 123.231 66.896 122.038 67.0885 120.867Z" fill="#3F3D56"/>
<path d="M71.3757 103.425L71.9354 103.652C72.3834 102.55 72.8627 101.442 73.3598 100.36L72.8107 100.108C72.3098 101.198 71.8269 102.314 71.3757 103.425Z" fill="#3F3D56"/>
<path d="M68.9556 110.238L69.5335 110.414C69.882 109.274 70.2606 108.128 70.6591 107.006L70.0897 106.804C69.6883 107.934 69.3067 109.089 68.9556 110.238Z" fill="#3F3D56"/>
<path d="M144.127 53.2061C145.312 53.1651 146.518 53.1488 147.711 53.16L147.716 52.5559C146.515 52.5447 145.3 52.5611 144.107 52.6024L144.127 53.2061Z" fill="#3F3D56"/>
<path d="M109.5 61.6512L109.777 62.1874C110.833 61.6409 111.913 61.1113 112.988 60.6133L112.734 60.0653C111.651 60.567 110.563 61.1006 109.5 61.6512Z" fill="#3F3D56"/>
<path d="M158.425 53.9592C159.604 54.126 160.793 54.3213 161.961 54.5397L162.072 53.946C160.896 53.7259 159.697 53.5291 158.509 53.3611L158.425 53.9592Z" fill="#3F3D56"/>
<path d="M165.468 55.2765C166.625 55.5467 167.792 55.8469 168.938 56.1688L169.101 55.5872C167.947 55.2629 166.771 54.9606 165.605 54.6884L165.468 55.2765Z" fill="#3F3D56"/>
<path d="M172.364 57.2149C173.492 57.587 174.628 57.9899 175.741 58.4125L175.955 57.848C174.835 57.4221 173.69 57.0161 172.553 56.6412L172.364 57.2149Z" fill="#3F3D56"/>
<path d="M151.293 53.2695C152.483 53.3319 153.685 53.4216 154.867 53.5357L154.925 52.9346C153.735 52.8195 152.524 52.7292 151.325 52.6664L151.293 53.2695Z" fill="#3F3D56"/>
<path d="M136.914 53.1675L136.987 53.7671C138.165 53.6223 139.364 53.5015 140.551 53.4083L140.504 52.806C139.307 52.9 138.1 53.0216 136.914 53.1675Z" fill="#3F3D56"/>
<path d="M122.818 56.1895L122.996 56.7664C124.132 56.415 125.291 56.0843 126.441 55.7836L126.288 55.1993C125.129 55.5021 123.962 55.8352 122.818 56.1895Z" fill="#3F3D56"/>
<path d="M116.035 58.625L116.264 59.1839C117.363 58.7332 118.485 58.3019 119.599 57.9015L119.395 57.3331C118.272 57.7363 117.141 58.1711 116.035 58.625Z" fill="#3F3D56"/>
<path d="M129.799 54.3645L129.925 54.9553C131.086 54.7065 132.269 54.4801 133.443 54.2827L133.343 53.6869C132.16 53.886 130.968 54.114 129.799 54.3645Z" fill="#3F3D56"/>
<path d="M184.756 62.1472L181.38 57.1587L180.192 59.6019C179.905 59.4736 179.619 59.3425 179.332 59.2182L179.092 59.7727C179.372 59.894 179.649 60.0212 179.928 60.1455L178.746 62.5771L184.756 62.1472Z" fill="#3F3D56"/>
</g>
<defs>
<clipPath id="clip0">
<rect width="273.565" height="220.83" fill="white" transform="translate(0 0.353149)"/>
</clipPath>
</defs>
</svg>
