<svg width="285" height="260" viewBox="0 0 285 260" fill="none" xmlns="http://www.w3.org/2000/svg">
<g clip-path="url(#clip0)">
<path d="M252.138 62.1182V62.5302H252.55H253.559V89.4275H252.552H252.14V89.8395V236.826C252.14 242.695 249.81 248.324 245.662 252.473C241.515 256.623 235.89 258.955 230.025 258.955H147.565C141.7 258.955 136.075 256.623 131.928 252.473C127.781 248.324 125.451 242.695 125.451 236.826V23.1736C125.451 17.3048 127.781 11.6764 131.928 7.52653C136.075 3.37672 141.7 1.04542 147.565 1.04542H230.023C235.888 1.04542 241.513 3.37672 245.661 7.52653C249.808 11.6764 252.138 17.3048 252.138 23.1736V62.1182Z" stroke="#D9D8D8" stroke-width="0.823991"/>
<path d="M247.959 21.6654V238.336C247.958 242.868 246.159 247.215 242.956 250.42C239.753 253.625 235.41 255.427 230.88 255.429H146.726C142.195 255.429 137.848 253.628 134.643 250.422C131.439 247.217 129.638 242.868 129.637 238.334V21.6654C129.638 17.1314 131.439 12.7836 134.644 9.57829C137.849 6.37295 142.195 4.57255 146.726 4.57305H156.934C156.433 5.80645 156.242 7.14415 156.379 8.46859C156.515 9.79302 156.975 11.0636 157.717 12.1687C158.459 13.2739 159.461 14.1796 160.635 14.8065C161.809 15.4333 163.119 15.762 164.45 15.7636H212.426C213.757 15.7618 215.067 15.433 216.241 14.8059C217.415 14.1789 218.417 13.273 219.159 12.1677C219.901 11.0624 220.36 9.79165 220.497 8.46713C220.633 7.14261 220.442 5.80488 219.94 4.57153H230.875C235.405 4.57234 239.749 6.37292 242.952 9.57744C246.155 12.782 247.956 17.1281 247.957 21.6605L247.959 21.6654Z" fill="#F8F8F8"/>
<path d="M238.992 244.118H138.603C137.746 244.118 136.925 243.776 136.319 243.17C135.713 242.564 135.372 241.742 135.371 240.884V29.7127C135.372 28.8552 135.713 28.0332 136.319 27.4268C136.925 26.8205 137.746 26.4795 138.603 26.4785H238.992C239.849 26.4795 240.671 26.8205 241.277 27.4268C241.883 28.0332 242.223 28.8552 242.224 29.7127V240.884C242.223 241.742 241.883 242.564 241.277 243.17C240.671 243.776 239.849 244.118 238.992 244.118Z" fill="white"/>
<path d="M188.418 97.775C203.693 97.775 216.076 85.3844 216.076 70.0997C216.076 54.8151 203.693 42.4244 188.418 42.4244C173.142 42.4244 160.759 54.8151 160.759 70.0997C160.759 85.3844 173.142 97.775 188.418 97.775Z" fill="#E6E6E6"/>
<path d="M188.037 94.0282C201.245 94.0282 211.951 83.315 211.951 70.0996C211.951 56.8842 201.245 46.171 188.037 46.171C174.83 46.171 164.123 56.8842 164.123 70.0996C164.123 83.315 174.83 94.0282 188.037 94.0282Z" fill="white"/>
<path d="M188.57 56.5276C185.873 56.5276 183.237 57.3277 180.995 58.8268C178.752 60.3259 177.005 62.4566 175.973 64.9495C174.941 67.4424 174.671 70.1855 175.197 72.832C175.723 75.4784 177.022 77.9094 178.929 79.8173C180.835 81.7253 183.265 83.0247 185.91 83.5511C188.555 84.0775 191.296 83.8073 193.787 82.7747C196.279 81.7421 198.408 79.9935 199.906 77.75C201.405 75.5064 202.204 72.8687 202.204 70.1704C202.204 66.5521 200.768 63.082 198.211 60.5235C195.654 57.965 192.186 56.5276 188.57 56.5276ZM188.57 60.6205C189.379 60.6205 190.17 60.8606 190.842 61.3103C191.515 61.76 192.039 62.3993 192.349 63.1471C192.658 63.895 192.739 64.718 192.582 65.5119C192.424 66.3059 192.034 67.0352 191.462 67.6076C190.89 68.18 190.161 68.5698 189.368 68.7277C188.574 68.8856 187.752 68.8046 187.004 68.4948C186.257 68.185 185.618 67.6604 185.169 66.9873C184.719 66.3143 184.479 65.5229 184.479 64.7134C184.479 64.1759 184.585 63.6437 184.791 63.1471C184.996 62.6506 185.297 62.1994 185.677 61.8193C186.057 61.4392 186.508 61.1377 187.004 60.9321C187.501 60.7264 188.032 60.6205 188.57 60.6205ZM188.57 80.3238C186.954 80.3164 185.364 79.9147 183.938 79.1534C182.513 78.3922 181.294 77.2944 180.389 75.9554C180.454 73.2269 185.842 71.7247 188.57 71.7247C191.297 71.7247 196.685 73.2269 196.751 75.9554C195.844 77.2937 194.625 78.3909 193.2 79.1522C191.775 79.9135 190.185 80.316 188.57 80.3249V80.3238Z" fill="#3CECEC"/>
<path d="M211.244 107.075H163.393V110.674H211.244V107.075Z" fill="#E6E6E6"/>
<path d="M217.211 116.427H156.99V120.025H217.211V116.427Z" fill="#E6E6E6"/>
<path d="M231.215 143.287H146.381V228.172H231.215V143.287Z" fill="#E6E6E6"/>
<path d="M228.974 145.083H147.73V226.377H228.974V145.083Z" fill="white"/>
<path d="M196.087 152.931H164.461V155.309H196.087V152.931Z" fill="#E6E6E6"/>
<path d="M213.298 159.913H164.461V162.292H213.298V159.913Z" fill="#3CECEC"/>
<path d="M204.77 166.563H164.969V168.942H204.77V166.563Z" fill="#E6E6E6"/>
<path d="M187.696 173.859H164.461V176.238H187.696V173.859Z" fill="#E6E6E6"/>
<path d="M199.529 180.986H164.461V183.365H199.529V180.986Z" fill="#3CECEC"/>
<path d="M196.087 188.158H164.461V190.536H196.087V188.158Z" fill="#E6E6E6"/>
<path d="M213.298 195.14H164.461V197.519H213.298V195.14Z" fill="#3CECEC"/>
<path d="M204.77 201.79H164.969V204.169H204.77V201.79Z" fill="#E6E6E6"/>
<path d="M187.696 209.087H164.461V211.465H187.696V209.087Z" fill="#E6E6E6"/>
<path d="M199.529 216.214H164.461V218.592H199.529V216.214Z" fill="#E6E6E6"/>
<path d="M110.639 161.602C110.452 161.687 110.273 161.787 110.102 161.901L93.0466 154.618L92.4381 150.122L85.6231 150.08L86.0258 160.392L108.537 166.349C108.585 166.506 108.642 166.659 108.708 166.809C109.033 167.504 109.557 168.087 110.212 168.485C110.868 168.884 111.626 169.079 112.393 169.047C113.159 169.016 113.899 168.758 114.52 168.307C115.14 167.856 115.613 167.231 115.88 166.512C116.147 165.792 116.196 165.01 116.02 164.263C115.844 163.516 115.451 162.838 114.891 162.313C114.331 161.789 113.629 161.442 112.872 161.315C112.116 161.189 111.339 161.289 110.639 161.603L110.639 161.602Z" fill="#FFB8B8"/>
<path d="M83.1446 255.035H87.8066L90.0243 237.042H83.1438L83.1446 255.035Z" fill="#FFB8B8"/>
<path d="M91.1365 253.702H82.1456V259.364H96.7975C96.7975 257.862 96.201 256.421 95.1394 255.359C94.0778 254.297 92.6379 253.7 91.1365 253.7H91.1365L91.1365 253.702Z" fill="#2F2E41"/>
<path d="M65.0137 253.717L69.6529 254.173L73.6232 236.485L66.7759 235.812L65.0137 253.717Z" fill="#FFB8B8"/>
<path d="M73.1005 253.175L64.1546 252.293L63.5998 257.929L78.178 259.366C78.2508 258.626 78.1773 257.879 77.9615 257.167C77.7458 256.455 77.392 255.793 76.9205 255.218C76.449 254.643 75.8689 254.167 75.2134 253.816C74.5579 253.466 73.8398 253.248 73.1001 253.175L73.1005 253.175Z" fill="#2F2E41"/>
<path d="M81.8468 131.039C87.0049 131.039 91.1863 126.855 91.1863 121.693C91.1863 116.532 87.0049 112.348 81.8468 112.348C76.6886 112.348 72.5072 116.532 72.5072 121.693C72.5072 126.855 76.6886 131.039 81.8468 131.039Z" fill="#FFB8B8"/>
<path d="M88.8485 251.396C89.2493 251.397 89.6375 251.256 89.9447 250.999C90.2519 250.741 90.4582 250.383 90.5273 249.988C92.9386 236.588 100.828 192.763 101.016 191.548C101.021 191.52 101.023 191.492 101.023 191.463V188.196C101.023 188.077 100.986 187.961 100.916 187.864L99.8745 186.404C99.825 186.333 99.76 186.275 99.6846 186.234C99.6092 186.193 99.5254 186.17 99.4395 186.166C93.4991 185.887 74.0442 185.07 73.1042 186.245C72.1604 187.425 72.4958 191.004 72.5718 191.709L72.568 191.783L63.8277 247.715C63.7593 248.161 63.8691 248.616 64.1335 248.981C64.3979 249.347 64.7955 249.594 65.2404 249.668L70.6994 250.568C71.106 250.634 71.5225 250.551 71.8731 250.335C72.2238 250.119 72.4854 249.784 72.6102 249.391C74.2986 243.993 79.9603 225.832 81.9224 218.805C81.935 218.761 81.9631 218.722 82.0016 218.697C82.0402 218.672 82.0865 218.662 82.132 218.669C82.1775 218.675 82.2192 218.698 82.2492 218.732C82.2793 218.767 82.2957 218.812 82.2955 218.858C82.1974 225.557 81.9605 242.647 81.8772 248.55L81.8684 249.186C81.8648 249.616 82.0227 250.032 82.3109 250.352C82.5991 250.672 82.9966 250.871 83.4248 250.912L88.6888 251.389C88.7419 251.394 88.7952 251.396 88.8485 251.396Z" fill="#2F2E41"/>
<path d="M87.7743 134.713C89.4041 135.683 90.3794 137.464 90.9392 139.279C91.9753 142.635 92.5989 146.106 92.7964 149.613L93.388 160.114L100.71 187.955C94.3638 193.328 90.7034 192.106 82.1605 187.712C73.6175 183.317 72.6418 189.177 72.6418 189.177L70.9336 165.488L68.4931 139.603C69.0411 138.943 69.6612 138.346 70.342 137.825C72.5978 136.069 75.2224 134.849 78.018 134.255C80.8136 133.662 83.7073 133.712 86.481 134.4L87.7743 134.713Z" fill="#E6E6E6"/>
<path d="M90.1524 167.225C89.9556 167.298 89.7649 167.387 89.582 167.491L72.7174 159.044L72.4376 154.468L65.4811 153.989L65.1084 164.419L87.645 171.876C87.8288 172.667 88.2488 173.382 88.849 173.928C89.4492 174.473 90.2012 174.823 91.0049 174.93C91.8086 175.038 92.626 174.898 93.3483 174.529C94.0705 174.16 94.6635 173.58 95.0482 172.866C95.4329 172.152 95.5912 171.337 95.502 170.531C95.4127 169.725 95.0802 168.964 94.5487 168.352C94.0171 167.739 93.3117 167.303 92.5263 167.101C91.741 166.899 90.9128 166.942 90.152 167.222L90.1524 167.225Z" fill="#FFB8B8"/>
<path d="M68.6148 139.719C64.4658 141.185 63.7345 157.06 63.7345 157.06C68.6159 154.374 74.4735 158.769 74.4735 158.769C74.4735 158.769 75.6937 154.617 77.1581 149.245C77.6003 147.734 77.6532 146.135 77.3118 144.598C76.9705 143.061 76.246 141.635 75.2059 140.453C75.2059 140.453 72.7642 138.253 68.6148 139.719Z" fill="#E6E6E6"/>
<path d="M73.4742 124.165C74.6378 123.234 76.2253 124.926 76.2253 124.926L77.1562 116.543C77.1562 116.543 82.9742 117.241 86.6985 116.311C90.4228 115.38 91.0042 119.687 91.0042 119.687C91.1962 117.948 91.2351 116.194 91.1205 114.448C90.8878 112.352 87.8625 110.256 82.5095 108.859C77.1566 107.462 74.364 113.516 74.364 113.516C70.6382 115.379 72.3091 125.097 73.4742 124.165Z" fill="#2F2E41"/>
<path d="M299.356 259.291H15.1674V259.951H299.356V259.291Z" fill="#D9D8D8"/>
</g>
<defs>
<clipPath id="clip0">
<rect width="285" height="260" fill="white"/>
</clipPath>
</defs>
</svg>
