<svg width="78" height="72" viewBox="0 0 78 72" fill="none" xmlns="http://www.w3.org/2000/svg">
<path fill-rule="evenodd" clip-rule="evenodd" d="M9.256 36.2861H14.976C15.5795 36.2861 16.076 36.7601 16.076 37.3361V42.7961C16.076 43.3722 15.5795 43.8461 14.976 43.8461H13.0742L13.0841 44.4855C13.2648 56.1269 22.4794 65.5714 34.5456 66.524L35.26 66.5804V65.3081C35.26 64.7321 35.7565 64.2581 36.36 64.2581H42.08C42.6835 64.2581 43.18 64.7321 43.18 65.3081V66.5855L43.8993 66.5236C55.9936 65.482 65.1757 56.0967 65.3559 44.4855L65.3659 43.8461H63.464C62.8605 43.8461 62.364 43.3722 62.364 42.7961V37.3361C62.364 36.7601 62.8605 36.2861 63.464 36.2861H69.184C69.7875 36.2861 70.284 36.7601 70.284 37.3361V42.7961C70.284 43.3722 69.7875 43.8461 69.184 43.8461H67.6525L67.6441 44.468C67.5581 50.7849 64.9776 56.7609 60.3489 61.3428C58.5209 63.0876 56.3673 64.6347 54.1751 65.7614L51.8702 66.9461H70.1409L70.3151 66.572C70.9188 65.2754 72.2746 64.4261 73.76 64.4261C75.8553 64.4261 77.5744 66.0671 77.5005 67.9728C77.5 69.9473 75.8273 71.5661 73.76 71.5661C72.2199 71.5661 70.9329 70.7471 70.3151 69.4203L70.1409 69.0461H43.18V70.6841C43.18 71.2602 42.6835 71.7341 42.08 71.7341H36.36C35.7565 71.7341 35.26 71.2602 35.26 70.6841V69.0461H8.29909L8.12489 69.4203C7.52117 70.7169 6.16544 71.5661 4.68 71.5661C2.63593 71.5661 0.940002 69.9695 0.940002 67.9961C0.940002 66.045 2.6127 64.4261 4.68 64.4261C6.22009 64.4261 7.50708 65.2451 8.12489 66.572L8.29909 66.9461H26.5698L24.2649 65.7614C21.9155 64.5539 19.8112 63.0629 18.0934 61.3451C13.4624 56.7609 10.8819 50.7849 10.7959 44.468L10.7875 43.8461H9.256C8.65251 43.8461 8.156 43.3722 8.156 42.7961V37.3361C8.156 36.7601 8.65251 36.2861 9.256 36.2861ZM40.98 69.7181V66.3581H37.46V69.7181H40.98ZM68.172 38.3021V41.5781H64.652V38.3021H68.172ZM13.876 41.5781V38.3021H10.356V41.5781H13.876Z" fill="#E0E0E0"/>
<path d="M57.92 27.5917L59.0054 28.2117L59.6463 27.0897L58.5037 26.4864L57.92 27.5917ZM48.416 11.7157L47.912 10.5718L47.1351 10.9141L47.1669 11.7625L48.416 11.7157ZM50.352 8.43973V7.18973H49.102V8.43973H50.352ZM28.176 8.43973H29.426V7.18973H28.176V8.43973ZM29.848 11.5477L31.0942 11.6456L31.1544 10.8787L30.497 10.4794L29.848 11.5477ZM20.608 27.5917L20.229 26.4006L18.7622 26.8673L19.52 28.2071L20.608 27.5917ZM38.472 59.1757L37.384 59.7911L39.722 63.9248V59.1757H38.472ZM39.88 59.1757H38.63V63.8845L40.9654 59.7957L39.88 59.1757ZM42.432 31.3717L43.6803 31.4371L43.682 31.4044V31.3717H42.432ZM58.5037 26.4864C50.859 22.4496 49.7494 13.9211 49.6651 11.669L47.1669 11.7625C47.2586 14.2144 48.437 23.9978 57.3363 28.6971L58.5037 26.4864ZM48.92 12.8596C50.5208 12.1544 51.602 10.5275 51.602 8.69173H49.102C49.102 9.54399 48.5992 10.2691 47.912 10.5718L48.92 12.8596ZM51.602 8.69173C51.602 8.69156 51.602 8.6914 51.602 8.69123C51.602 8.69107 51.602 8.69091 51.602 8.69074C51.602 8.69058 51.602 8.69041 51.602 8.69025C51.602 8.69009 51.602 8.68992 51.602 8.68976C51.602 8.68959 51.602 8.68943 51.602 8.68927C51.602 8.6891 51.602 8.68894 51.602 8.68877C51.602 8.68861 51.602 8.68845 51.602 8.68828C51.602 8.68812 51.602 8.68795 51.602 8.68779C51.602 8.68762 51.602 8.68746 51.602 8.6873C51.602 8.68713 51.602 8.68697 51.602 8.6868C51.602 8.68664 51.602 8.68648 51.602 8.68631C51.602 8.68615 51.602 8.68598 51.602 8.68582C51.602 8.68566 51.602 8.68549 51.602 8.68533C51.602 8.68516 51.602 8.685 51.602 8.68484C51.602 8.68467 51.602 8.68451 51.602 8.68434C51.602 8.68418 51.602 8.68402 51.602 8.68385C51.602 8.68369 51.602 8.68352 51.602 8.68336C51.602 8.6832 51.602 8.68303 51.602 8.68287C51.602 8.6827 51.602 8.68254 51.602 8.68237C51.602 8.68221 51.602 8.68205 51.602 8.68188C51.602 8.68172 51.602 8.68155 51.602 8.68139C51.602 8.68123 51.602 8.68106 51.602 8.6809C51.602 8.68073 51.602 8.68057 51.602 8.68041C51.602 8.68024 51.602 8.68008 51.602 8.67991C51.602 8.67975 51.602 8.67959 51.602 8.67942C51.602 8.67926 51.602 8.67909 51.602 8.67893C51.602 8.67877 51.602 8.6786 51.602 8.67844C51.602 8.67827 51.602 8.67811 51.602 8.67795C51.602 8.67778 51.602 8.67762 51.602 8.67745C51.602 8.67729 51.602 8.67712 51.602 8.67696C51.602 8.6768 51.602 8.67663 51.602 8.67647C51.602 8.6763 51.602 8.67614 51.602 8.67598C51.602 8.67581 51.602 8.67565 51.602 8.67548C51.602 8.67532 51.602 8.67516 51.602 8.67499C51.602 8.67483 51.602 8.67466 51.602 8.6745C51.602 8.67434 51.602 8.67417 51.602 8.67401C51.602 8.67384 51.602 8.67368 51.602 8.67352C51.602 8.67335 51.602 8.67319 51.602 8.67302C51.602 8.67286 51.602 8.6727 51.602 8.67253C51.602 8.67237 51.602 8.6722 51.602 8.67204C51.602 8.67188 51.602 8.67171 51.602 8.67155C51.602 8.67138 51.602 8.67122 51.602 8.67105C51.602 8.67089 51.602 8.67073 51.602 8.67056C51.602 8.6704 51.602 8.67023 51.602 8.67007C51.602 8.66991 51.602 8.66974 51.602 8.66958C51.602 8.66941 51.602 8.66925 51.602 8.66909C51.602 8.66892 51.602 8.66876 51.602 8.66859C51.602 8.66843 51.602 8.66827 51.602 8.6681C51.602 8.66794 51.602 8.66777 51.602 8.66761C51.602 8.66745 51.602 8.66728 51.602 8.66712C51.602 8.66695 51.602 8.66679 51.602 8.66663C51.602 8.66646 51.602 8.6663 51.602 8.66613C51.602 8.66597 51.602 8.6658 51.602 8.66564C51.602 8.66548 51.602 8.66531 51.602 8.66515C51.602 8.66498 51.602 8.66482 51.602 8.66466C51.602 8.66449 51.602 8.66433 51.602 8.66416C51.602 8.664 51.602 8.66384 51.602 8.66367C51.602 8.66351 51.602 8.66334 51.602 8.66318C51.602 8.66302 51.602 8.66285 51.602 8.66269C51.602 8.66252 51.602 8.66236 51.602 8.6622C51.602 8.66203 51.602 8.66187 51.602 8.6617C51.602 8.66154 51.602 8.66138 51.602 8.66121C51.602 8.66105 51.602 8.66088 51.602 8.66072C51.602 8.66055 51.602 8.66039 51.602 8.66023C51.602 8.66006 51.602 8.6599 51.602 8.65973C51.602 8.65957 51.602 8.65941 51.602 8.65924C51.602 8.65908 51.602 8.65891 51.602 8.65875C51.602 8.65859 51.602 8.65842 51.602 8.65826C51.602 8.65809 51.602 8.65793 51.602 8.65777C51.602 8.6576 51.602 8.65744 51.602 8.65727C51.602 8.65711 51.602 8.65695 51.602 8.65678C51.602 8.65662 51.602 8.65645 51.602 8.65629C51.602 8.65613 51.602 8.65596 51.602 8.6558C51.602 8.65563 51.602 8.65547 51.602 8.6553C51.602 8.65514 51.602 8.65498 51.602 8.65481C51.602 8.65465 51.602 8.65448 51.602 8.65432C51.602 8.65416 51.602 8.65399 51.602 8.65383C51.602 8.65366 51.602 8.6535 51.602 8.65334C51.602 8.65317 51.602 8.65301 51.602 8.65284C51.602 8.65268 51.602 8.65252 51.602 8.65235C51.602 8.65219 51.602 8.65202 51.602 8.65186C51.602 8.6517 51.602 8.65153 51.602 8.65137C51.602 8.6512 51.602 8.65104 51.602 8.65088C51.602 8.65071 51.602 8.65055 51.602 8.65038C51.602 8.65022 51.602 8.65005 51.602 8.64989C51.602 8.64973 51.602 8.64956 51.602 8.6494C51.602 8.64923 51.602 8.64907 51.602 8.64891C51.602 8.64874 51.602 8.64858 51.602 8.64841C51.602 8.64825 51.602 8.64809 51.602 8.64792C51.602 8.64776 51.602 8.64759 51.602 8.64743C51.602 8.64727 51.602 8.6471 51.602 8.64694C51.602 8.64677 51.602 8.64661 51.602 8.64645C51.602 8.64628 51.602 8.64612 51.602 8.64595C51.602 8.64579 51.602 8.64563 51.602 8.64546C51.602 8.6453 51.602 8.64513 51.602 8.64497C51.602 8.6448 51.602 8.64464 51.602 8.64448C51.602 8.64431 51.602 8.64415 51.602 8.64398C51.602 8.64382 51.602 8.64366 51.602 8.64349C51.602 8.64333 51.602 8.64316 51.602 8.643C51.602 8.64284 51.602 8.64267 51.602 8.64251C51.602 8.64234 51.602 8.64218 51.602 8.64202C51.602 8.64185 51.602 8.64169 51.602 8.64152C51.602 8.64136 51.602 8.6412 51.602 8.64103C51.602 8.64087 51.602 8.6407 51.602 8.64054C51.602 8.64038 51.602 8.64021 51.602 8.64005C51.602 8.63988 51.602 8.63972 51.602 8.63955C51.602 8.63939 51.602 8.63923 51.602 8.63906C51.602 8.6389 51.602 8.63873 51.602 8.63857C51.602 8.63841 51.602 8.63824 51.602 8.63808C51.602 8.63791 51.602 8.63775 51.602 8.63759C51.602 8.63742 51.602 8.63726 51.602 8.63709C51.602 8.63693 51.602 8.63677 51.602 8.6366C51.602 8.63644 51.602 8.63627 51.602 8.63611C51.602 8.63595 51.602 8.63578 51.602 8.63562C51.602 8.63545 51.602 8.63529 51.602 8.63513C51.602 8.63496 51.602 8.6348 51.602 8.63463C51.602 8.63447 51.602 8.6343 51.602 8.63414C51.602 8.63398 51.602 8.63381 51.602 8.63365C51.602 8.63348 51.602 8.63332 51.602 8.63316C51.602 8.63299 51.602 8.63283 51.602 8.63266C51.602 8.6325 51.602 8.63234 51.602 8.63217C51.602 8.63201 51.602 8.63184 51.602 8.63168C51.602 8.63152 51.602 8.63135 51.602 8.63119C51.602 8.63102 51.602 8.63086 51.602 8.6307C51.602 8.63053 51.602 8.63037 51.602 8.6302C51.602 8.63004 51.602 8.62987 51.602 8.62971C51.602 8.62955 51.602 8.62938 51.602 8.62922C51.602 8.62905 51.602 8.62889 51.602 8.62873C51.602 8.62856 51.602 8.6284 51.602 8.62823C51.602 8.62807 51.602 8.62791 51.602 8.62774C51.602 8.62758 51.602 8.62741 51.602 8.62725C51.602 8.62709 51.602 8.62692 51.602 8.62676C51.602 8.62659 51.602 8.62643 51.602 8.62627C51.602 8.6261 51.602 8.62594 51.602 8.62577C51.602 8.62561 51.602 8.62545 51.602 8.62528C51.602 8.62512 51.602 8.62495 51.602 8.62479C51.602 8.62462 51.602 8.62446 51.602 8.6243C51.602 8.62413 51.602 8.62397 51.602 8.6238C51.602 8.62364 51.602 8.62348 51.602 8.62331C51.602 8.62315 51.602 8.62298 51.602 8.62282C51.602 8.62266 51.602 8.62249 51.602 8.62233C51.602 8.62216 51.602 8.622 51.602 8.62184C51.602 8.62167 51.602 8.62151 51.602 8.62134C51.602 8.62118 51.602 8.62102 51.602 8.62085C51.602 8.62069 51.602 8.62052 51.602 8.62036C51.602 8.6202 51.602 8.62003 51.602 8.61987C51.602 8.6197 51.602 8.61954 51.602 8.61937C51.602 8.61921 51.602 8.61905 51.602 8.61888C51.602 8.61872 51.602 8.61855 51.602 8.61839C51.602 8.61823 51.602 8.61806 51.602 8.6179C51.602 8.61773 51.602 8.61757 51.602 8.61741C51.602 8.61724 51.602 8.61708 51.602 8.61691C51.602 8.61675 51.602 8.61659 51.602 8.61642C51.602 8.61626 51.602 8.61609 51.602 8.61593C51.602 8.61577 51.602 8.6156 51.602 8.61544C51.602 8.61527 51.602 8.61511 51.602 8.61495C51.602 8.61478 51.602 8.61462 51.602 8.61445C51.602 8.61429 51.602 8.61412 51.602 8.61396C51.602 8.6138 51.602 8.61363 51.602 8.61347C51.602 8.6133 51.602 8.61314 51.602 8.61298C51.602 8.61281 51.602 8.61265 51.602 8.61248C51.602 8.61232 51.602 8.61216 51.602 8.61199C51.602 8.61183 51.602 8.61166 51.602 8.6115C51.602 8.61134 51.602 8.61117 51.602 8.61101C51.602 8.61084 51.602 8.61068 51.602 8.61052C51.602 8.61035 51.602 8.61019 51.602 8.61002C51.602 8.60986 51.602 8.6097 51.602 8.60953C51.602 8.60937 51.602 8.6092 51.602 8.60904C51.602 8.60887 51.602 8.60871 51.602 8.60855C51.602 8.60838 51.602 8.60822 51.602 8.60805C51.602 8.60789 51.602 8.60773 51.602 8.60756C51.602 8.6074 51.602 8.60723 51.602 8.60707C51.602 8.60691 51.602 8.60674 51.602 8.60658C51.602 8.60641 51.602 8.60625 51.602 8.60609C51.602 8.60592 51.602 8.60576 51.602 8.60559C51.602 8.60543 51.602 8.60527 51.602 8.6051C51.602 8.60494 51.602 8.60477 51.602 8.60461C51.602 8.60444 51.602 8.60428 51.602 8.60412C51.602 8.60395 51.602 8.60379 51.602 8.60362C51.602 8.60346 51.602 8.6033 51.602 8.60313C51.602 8.60297 51.602 8.6028 51.602 8.60264C51.602 8.60248 51.602 8.60231 51.602 8.60215C51.602 8.60198 51.602 8.60182 51.602 8.60166C51.602 8.60149 51.602 8.60133 51.602 8.60116C51.602 8.601 51.602 8.60084 51.602 8.60067C51.602 8.60051 51.602 8.60034 51.602 8.60018C51.602 8.60002 51.602 8.59985 51.602 8.59969C51.602 8.59952 51.602 8.59936 51.602 8.5992C51.602 8.59903 51.602 8.59887 51.602 8.5987C51.602 8.59854 51.602 8.59837 51.602 8.59821C51.602 8.59805 51.602 8.59788 51.602 8.59772C51.602 8.59755 51.602 8.59739 51.602 8.59723C51.602 8.59706 51.602 8.5969 51.602 8.59673C51.602 8.59657 51.602 8.59641 51.602 8.59624C51.602 8.59608 51.602 8.59591 51.602 8.59575C51.602 8.59559 51.602 8.59542 51.602 8.59526C51.602 8.59509 51.602 8.59493 51.602 8.59477C51.602 8.5946 51.602 8.59444 51.602 8.59427C51.602 8.59411 51.602 8.59395 51.602 8.59378C51.602 8.59362 51.602 8.59345 51.602 8.59329C51.602 8.59312 51.602 8.59296 51.602 8.5928C51.602 8.59263 51.602 8.59247 51.602 8.5923C51.602 8.59214 51.602 8.59198 51.602 8.59181C51.602 8.59165 51.602 8.59148 51.602 8.59132C51.602 8.59116 51.602 8.59099 51.602 8.59083C51.602 8.59066 51.602 8.5905 51.602 8.59034C51.602 8.59017 51.602 8.59001 51.602 8.58984C51.602 8.58968 51.602 8.58952 51.602 8.58935C51.602 8.58919 51.602 8.58902 51.602 8.58886C51.602 8.5887 51.602 8.58853 51.602 8.58837C51.602 8.5882 51.602 8.58804 51.602 8.58787C51.602 8.58771 51.602 8.58755 51.602 8.58738C51.602 8.58722 51.602 8.58705 51.602 8.58689C51.602 8.58673 51.602 8.58656 51.602 8.5864C51.602 8.58623 51.602 8.58607 51.602 8.58591C51.602 8.58574 51.602 8.58558 51.602 8.58541C51.602 8.58525 51.602 8.58509 51.602 8.58492C51.602 8.58476 51.602 8.58459 51.602 8.58443C51.602 8.58427 51.602 8.5841 51.602 8.58394C51.602 8.58377 51.602 8.58361 51.602 8.58345C51.602 8.58328 51.602 8.58312 51.602 8.58295C51.602 8.58279 51.602 8.58262 51.602 8.58246C51.602 8.5823 51.602 8.58213 51.602 8.58197C51.602 8.5818 51.602 8.58164 51.602 8.58148C51.602 8.58131 51.602 8.58115 51.602 8.58098C51.602 8.58082 51.602 8.58066 51.602 8.58049C51.602 8.58033 51.602 8.58016 51.602 8.58C51.602 8.57984 51.602 8.57967 51.602 8.57951C51.602 8.57934 51.602 8.57918 51.602 8.57902C51.602 8.57885 51.602 8.57869 51.602 8.57852C51.602 8.57836 51.602 8.5782 51.602 8.57803C51.602 8.57787 51.602 8.5777 51.602 8.57754C51.602 8.57737 51.602 8.57721 51.602 8.57705C51.602 8.57688 51.602 8.57672 51.602 8.57655C51.602 8.57639 51.602 8.57623 51.602 8.57606C51.602 8.5759 51.602 8.57573 51.602 8.57557C51.602 8.57541 51.602 8.57524 51.602 8.57508C51.602 8.57491 51.602 8.57475 51.602 8.57459C51.602 8.57442 51.602 8.57426 51.602 8.57409C51.602 8.57393 51.602 8.57377 51.602 8.5736C51.602 8.57344 51.602 8.57327 51.602 8.57311C51.602 8.57295 51.602 8.57278 51.602 8.57262C51.602 8.57245 51.602 8.57229 51.602 8.57212C51.602 8.57196 51.602 8.5718 51.602 8.57163C51.602 8.57147 51.602 8.5713 51.602 8.57114C51.602 8.57098 51.602 8.57081 51.602 8.57065C51.602 8.57048 51.602 8.57032 51.602 8.57016C51.602 8.56999 51.602 8.56983 51.602 8.56966C51.602 8.5695 51.602 8.56934 51.602 8.56917C51.602 8.56901 51.602 8.56884 51.602 8.56868C51.602 8.56852 51.602 8.56835 51.602 8.56819C51.602 8.56802 51.602 8.56786 51.602 8.5677C51.602 8.56753 51.602 8.56737 51.602 8.5672C51.602 8.56704 51.602 8.56687 51.602 8.56671C51.602 8.56655 51.602 8.56638 51.602 8.56622C51.602 8.56605 51.602 8.56589 51.602 8.56573C51.602 8.56556 51.602 8.5654 51.602 8.56523C51.602 8.56507 51.602 8.56491 51.602 8.56474C51.602 8.56458 51.602 8.56441 51.602 8.56425C51.602 8.56409 51.602 8.56392 51.602 8.56376C51.602 8.56359 51.602 8.56343 51.602 8.56327C51.602 8.5631 51.602 8.56294 51.602 8.56277C51.602 8.56261 51.602 8.56245 51.602 8.56228C51.602 8.56212 51.602 8.56195 51.602 8.56179C51.602 8.56163 51.602 8.56146 51.602 8.5613C51.602 8.56113 51.602 8.56097 51.602 8.5608C51.602 8.56064 51.602 8.56048 51.602 8.56031C51.602 8.56015 51.602 8.55998 51.602 8.55982C51.602 8.55966 51.602 8.55949 51.602 8.55933C51.602 8.55916 51.602 8.559 51.602 8.55884C51.602 8.55867 51.602 8.55851 51.602 8.55834C51.602 8.55818 51.602 8.55802 51.602 8.55785C51.602 8.55769 51.602 8.55752 51.602 8.55736C51.602 8.5572 51.602 8.55703 51.602 8.55687C51.602 8.5567 51.602 8.55654 51.602 8.55638C51.602 8.55621 51.602 8.55605 51.602 8.55588C51.602 8.55572 51.602 8.55555 51.602 8.55539C51.602 8.55523 51.602 8.55506 51.602 8.5549C51.602 8.55473 51.602 8.55457 51.602 8.55441C51.602 8.55424 51.602 8.55408 51.602 8.55391C51.602 8.55375 51.602 8.55359 51.602 8.55342C51.602 8.55326 51.602 8.55309 51.602 8.55293C51.602 8.55277 51.602 8.5526 51.602 8.55244C51.602 8.55227 51.602 8.55211 51.602 8.55195C51.602 8.55178 51.602 8.55162 51.602 8.55145C51.602 8.55129 51.602 8.55113 51.602 8.55096C51.602 8.5508 51.602 8.55063 51.602 8.55047C51.602 8.5503 51.602 8.55014 51.602 8.54998C51.602 8.54981 51.602 8.54965 51.602 8.54948C51.602 8.54932 51.602 8.54916 51.602 8.54899C51.602 8.54883 51.602 8.54866 51.602 8.5485C51.602 8.54834 51.602 8.54817 51.602 8.54801C51.602 8.54784 51.602 8.54768 51.602 8.54752C51.602 8.54735 51.602 8.54719 51.602 8.54702C51.602 8.54686 51.602 8.5467 51.602 8.54653C51.602 8.54637 51.602 8.5462 51.602 8.54604C51.602 8.54588 51.602 8.54571 51.602 8.54555C51.602 8.54538 51.602 8.54522 51.602 8.54505C51.602 8.54489 51.602 8.54473 51.602 8.54456C51.602 8.5444 51.602 8.54423 51.602 8.54407C51.602 8.54391 51.602 8.54374 51.602 8.54358C51.602 8.54341 51.602 8.54325 51.602 8.54309C51.602 8.54292 51.602 8.54276 51.602 8.54259C51.602 8.54243 51.602 8.54227 51.602 8.5421C51.602 8.54194 51.602 8.54177 51.602 8.54161C51.602 8.54145 51.602 8.54128 51.602 8.54112C51.602 8.54095 51.602 8.54079 51.602 8.54062C51.602 8.54046 51.602 8.5403 51.602 8.54013C51.602 8.53997 51.602 8.5398 51.602 8.53964C51.602 8.53948 51.602 8.53931 51.602 8.53915C51.602 8.53898 51.602 8.53882 51.602 8.53866C51.602 8.53849 51.602 8.53833 51.602 8.53816C51.602 8.538 51.602 8.53784 51.602 8.53767C51.602 8.53751 51.602 8.53734 51.602 8.53718C51.602 8.53702 51.602 8.53685 51.602 8.53669C51.602 8.53652 51.602 8.53636 51.602 8.5362C51.602 8.53603 51.602 8.53587 51.602 8.5357C51.602 8.53554 51.602 8.53537 51.602 8.53521C51.602 8.53505 51.602 8.53488 51.602 8.53472C51.602 8.53455 51.602 8.53439 51.602 8.53423C51.602 8.53406 51.602 8.5339 51.602 8.53373C51.602 8.53357 51.602 8.53341 51.602 8.53324C51.602 8.53308 51.602 8.53291 51.602 8.53275C51.602 8.53259 51.602 8.53242 51.602 8.53226C51.602 8.53209 51.602 8.53193 51.602 8.53177C51.602 8.5316 51.602 8.53144 51.602 8.53127C51.602 8.53111 51.602 8.53095 51.602 8.53078C51.602 8.53062 51.602 8.53045 51.602 8.53029C51.602 8.53012 51.602 8.52996 51.602 8.5298C51.602 8.52963 51.602 8.52947 51.602 8.5293C51.602 8.52914 51.602 8.52898 51.602 8.52881C51.602 8.52865 51.602 8.52848 51.602 8.52832C51.602 8.52816 51.602 8.52799 51.602 8.52783C51.602 8.52766 51.602 8.5275 51.602 8.52734C51.602 8.52717 51.602 8.52701 51.602 8.52684C51.602 8.52668 51.602 8.52652 51.602 8.52635C51.602 8.52619 51.602 8.52602 51.602 8.52586C51.602 8.5257 51.602 8.52553 51.602 8.52537C51.602 8.5252 51.602 8.52504 51.602 8.52487C51.602 8.52471 51.602 8.52455 51.602 8.52438C51.602 8.52422 51.602 8.52405 51.602 8.52389C51.602 8.52373 51.602 8.52356 51.602 8.5234C51.602 8.52323 51.602 8.52307 51.602 8.52291C51.602 8.52274 51.602 8.52258 51.602 8.52241C51.602 8.52225 51.602 8.52209 51.602 8.52192C51.602 8.52176 51.602 8.52159 51.602 8.52143C51.602 8.52127 51.602 8.5211 51.602 8.52094C51.602 8.52077 51.602 8.52061 51.602 8.52045C51.602 8.52028 51.602 8.52012 51.602 8.51995C51.602 8.51979 51.602 8.51962 51.602 8.51946C51.602 8.5193 51.602 8.51913 51.602 8.51897C51.602 8.5188 51.602 8.51864 51.602 8.51848C51.602 8.51831 51.602 8.51815 51.602 8.51798C51.602 8.51782 51.602 8.51766 51.602 8.51749C51.602 8.51733 51.602 8.51716 51.602 8.517C51.602 8.51684 51.602 8.51667 51.602 8.51651C51.602 8.51634 51.602 8.51618 51.602 8.51602C51.602 8.51585 51.602 8.51569 51.602 8.51552C51.602 8.51536 51.602 8.5152 51.602 8.51503C51.602 8.51487 51.602 8.5147 51.602 8.51454C51.602 8.51437 51.602 8.51421 51.602 8.51405C51.602 8.51388 51.602 8.51372 51.602 8.51355C51.602 8.51339 51.602 8.51323 51.602 8.51306C51.602 8.5129 51.602 8.51273 51.602 8.51257C51.602 8.51241 51.602 8.51224 51.602 8.51208C51.602 8.51191 51.602 8.51175 51.602 8.51159C51.602 8.51142 51.602 8.51126 51.602 8.51109C51.602 8.51093 51.602 8.51077 51.602 8.5106C51.602 8.51044 51.602 8.51027 51.602 8.51011C51.602 8.50994 51.602 8.50978 51.602 8.50962C51.602 8.50945 51.602 8.50929 51.602 8.50912C51.602 8.50896 51.602 8.5088 51.602 8.50863C51.602 8.50847 51.602 8.5083 51.602 8.50814C51.602 8.50798 51.602 8.50781 51.602 8.50765C51.602 8.50748 51.602 8.50732 51.602 8.50716C51.602 8.50699 51.602 8.50683 51.602 8.50666C51.602 8.5065 51.602 8.50634 51.602 8.50617C51.602 8.50601 51.602 8.50584 51.602 8.50568C51.602 8.50552 51.602 8.50535 51.602 8.50519C51.602 8.50502 51.602 8.50486 51.602 8.50469C51.602 8.50453 51.602 8.50437 51.602 8.5042C51.602 8.50404 51.602 8.50387 51.602 8.50371C51.602 8.50355 51.602 8.50338 51.602 8.50322C51.602 8.50305 51.602 8.50289 51.602 8.50273C51.602 8.50256 51.602 8.5024 51.602 8.50223C51.602 8.50207 51.602 8.50191 51.602 8.50174C51.602 8.50158 51.602 8.50141 51.602 8.50125C51.602 8.50109 51.602 8.50092 51.602 8.50076C51.602 8.50059 51.602 8.50043 51.602 8.50027C51.602 8.5001 51.602 8.49994 51.602 8.49977C51.602 8.49961 51.602 8.49944 51.602 8.49928C51.602 8.49912 51.602 8.49895 51.602 8.49879C51.602 8.49862 51.602 8.49846 51.602 8.4983C51.602 8.49813 51.602 8.49797 51.602 8.4978C51.602 8.49764 51.602 8.49748 51.602 8.49731C51.602 8.49715 51.602 8.49698 51.602 8.49682C51.602 8.49666 51.602 8.49649 51.602 8.49633C51.602 8.49616 51.602 8.496 51.602 8.49584C51.602 8.49567 51.602 8.49551 51.602 8.49534C51.602 8.49518 51.602 8.49502 51.602 8.49485C51.602 8.49469 51.602 8.49452 51.602 8.49436C51.602 8.49419 51.602 8.49403 51.602 8.49387C51.602 8.4937 51.602 8.49354 51.602 8.49337C51.602 8.49321 51.602 8.49305 51.602 8.49288C51.602 8.49272 51.602 8.49255 51.602 8.49239C51.602 8.49223 51.602 8.49206 51.602 8.4919C51.602 8.49173 51.602 8.49157 51.602 8.49141C51.602 8.49124 51.602 8.49108 51.602 8.49091C51.602 8.49075 51.602 8.49059 51.602 8.49042C51.602 8.49026 51.602 8.49009 51.602 8.48993C51.602 8.48977 51.602 8.4896 51.602 8.48944C51.602 8.48927 51.602 8.48911 51.602 8.48895C51.602 8.48878 51.602 8.48862 51.602 8.48845C51.602 8.48829 51.602 8.48812 51.602 8.48796C51.602 8.4878 51.602 8.48763 51.602 8.48747C51.602 8.4873 51.602 8.48714 51.602 8.48698C51.602 8.48681 51.602 8.48665 51.602 8.48648C51.602 8.48632 51.602 8.48616 51.602 8.48599C51.602 8.48583 51.602 8.48566 51.602 8.4855C51.602 8.48534 51.602 8.48517 51.602 8.48501C51.602 8.48484 51.602 8.48468 51.602 8.48452C51.602 8.48435 51.602 8.48419 51.602 8.48402C51.602 8.48386 51.602 8.4837 51.602 8.48353C51.602 8.48337 51.602 8.4832 51.602 8.48304C51.602 8.48287 51.602 8.48271 51.602 8.48255C51.602 8.48238 51.602 8.48222 51.602 8.48205C51.602 8.48189 51.602 8.48173 51.602 8.48156C51.602 8.4814 51.602 8.48123 51.602 8.48107C51.602 8.48091 51.602 8.48074 51.602 8.48058C51.602 8.48041 51.602 8.48025 51.602 8.48009C51.602 8.47992 51.602 8.47976 51.602 8.47959C51.602 8.47943 51.602 8.47927 51.602 8.4791C51.602 8.47894 51.602 8.47877 51.602 8.47861C51.602 8.47845 51.602 8.47828 51.602 8.47812C51.602 8.47795 51.602 8.47779 51.602 8.47762C51.602 8.47746 51.602 8.4773 51.602 8.47713C51.602 8.47697 51.602 8.4768 51.602 8.47664C51.602 8.47648 51.602 8.47631 51.602 8.47615C51.602 8.47598 51.602 8.47582 51.602 8.47566C51.602 8.47549 51.602 8.47533 51.602 8.47516C51.602 8.475 51.602 8.47484 51.602 8.47467C51.602 8.47451 51.602 8.47434 51.602 8.47418C51.602 8.47402 51.602 8.47385 51.602 8.47369C51.602 8.47352 51.602 8.47336 51.602 8.4732C51.602 8.47303 51.602 8.47287 51.602 8.4727C51.602 8.47254 51.602 8.47237 51.602 8.47221C51.602 8.47205 51.602 8.47188 51.602 8.47172C51.602 8.47155 51.602 8.47139 51.602 8.47123C51.602 8.47106 51.602 8.4709 51.602 8.47073C51.602 8.47057 51.602 8.47041 51.602 8.47024C51.602 8.47008 51.602 8.46991 51.602 8.46975C51.602 8.46959 51.602 8.46942 51.602 8.46926C51.602 8.46909 51.602 8.46893 51.602 8.46877C51.602 8.4686 51.602 8.46844 51.602 8.46827C51.602 8.46811 51.602 8.46795 51.602 8.46778C51.602 8.46762 51.602 8.46745 51.602 8.46729C51.602 8.46712 51.602 8.46696 51.602 8.4668C51.602 8.46663 51.602 8.46647 51.602 8.4663C51.602 8.46614 51.602 8.46598 51.602 8.46581C51.602 8.46565 51.602 8.46548 51.602 8.46532C51.602 8.46516 51.602 8.46499 51.602 8.46483C51.602 8.46466 51.602 8.4645 51.602 8.46434C51.602 8.46417 51.602 8.46401 51.602 8.46384C51.602 8.46368 51.602 8.46352 51.602 8.46335C51.602 8.46319 51.602 8.46302 51.602 8.46286C51.602 8.4627 51.602 8.46253 51.602 8.46237C51.602 8.4622 51.602 8.46204 51.602 8.46187C51.602 8.46171 51.602 8.46155 51.602 8.46138C51.602 8.46122 51.602 8.46105 51.602 8.46089C51.602 8.46073 51.602 8.46056 51.602 8.4604C51.602 8.46023 51.602 8.46007 51.602 8.45991C51.602 8.45974 51.602 8.45958 51.602 8.45941C51.602 8.45925 51.602 8.45909 51.602 8.45892C51.602 8.45876 51.602 8.45859 51.602 8.45843C51.602 8.45827 51.602 8.4581 51.602 8.45794C51.602 8.45777 51.602 8.45761 51.602 8.45745C51.602 8.45728 51.602 8.45712 51.602 8.45695C51.602 8.45679 51.602 8.45662 51.602 8.45646C51.602 8.4563 51.602 8.45613 51.602 8.45597C51.602 8.4558 51.602 8.45564 51.602 8.45548C51.602 8.45531 51.602 8.45515 51.602 8.45498C51.602 8.45482 51.602 8.45466 51.602 8.45449C51.602 8.45433 51.602 8.45416 51.602 8.454C51.602 8.45384 51.602 8.45367 51.602 8.45351C51.602 8.45334 51.602 8.45318 51.602 8.45302C51.602 8.45285 51.602 8.45269 51.602 8.45252C51.602 8.45236 51.602 8.4522 51.602 8.45203C51.602 8.45187 51.602 8.4517 51.602 8.45154C51.602 8.45138 51.602 8.45121 51.602 8.45105C51.602 8.45088 51.602 8.45072 51.602 8.45055C51.602 8.45039 51.602 8.45023 51.602 8.45006C51.602 8.4499 51.602 8.44973 51.602 8.44957C51.602 8.44941 51.602 8.44924 51.602 8.44908C51.602 8.44891 51.602 8.44875 51.602 8.44859C51.602 8.44842 51.602 8.44826 51.602 8.44809C51.602 8.44793 51.602 8.44777 51.602 8.4476C51.602 8.44744 51.602 8.44727 51.602 8.44711C51.602 8.44695 51.602 8.44678 51.602 8.44662C51.602 8.44645 51.602 8.44629 51.602 8.44612C51.602 8.44596 51.602 8.4458 51.602 8.44563C51.602 8.44547 51.602 8.4453 51.602 8.44514C51.602 8.44498 51.602 8.44481 51.602 8.44465C51.602 8.44448 51.602 8.44432 51.602 8.44416C51.602 8.44399 51.602 8.44383 51.602 8.44366C51.602 8.4435 51.602 8.44334 51.602 8.44317C51.602 8.44301 51.602 8.44284 51.602 8.44268C51.602 8.44252 51.602 8.44235 51.602 8.44219C51.602 8.44202 51.602 8.44186 51.602 8.4417C51.602 8.44153 51.602 8.44137 51.602 8.4412C51.602 8.44104 51.602 8.44087 51.602 8.44071C51.602 8.44055 51.602 8.44038 51.602 8.44022C51.602 8.44005 51.602 8.43989 51.602 8.43973H49.102C49.102 8.43989 49.102 8.44005 49.102 8.44022C49.102 8.44038 49.102 8.44055 49.102 8.44071C49.102 8.44087 49.102 8.44104 49.102 8.4412C49.102 8.44137 49.102 8.44153 49.102 8.4417C49.102 8.44186 49.102 8.44202 49.102 8.44219C49.102 8.44235 49.102 8.44252 49.102 8.44268C49.102 8.44284 49.102 8.44301 49.102 8.44317C49.102 8.44334 49.102 8.4435 49.102 8.44366C49.102 8.44383 49.102 8.44399 49.102 8.44416C49.102 8.44432 49.102 8.44448 49.102 8.44465C49.102 8.44481 49.102 8.44498 49.102 8.44514C49.102 8.4453 49.102 8.44547 49.102 8.44563C49.102 8.4458 49.102 8.44596 49.102 8.44612C49.102 8.44629 49.102 8.44645 49.102 8.44662C49.102 8.44678 49.102 8.44695 49.102 8.44711C49.102 8.44727 49.102 8.44744 49.102 8.4476C49.102 8.44777 49.102 8.44793 49.102 8.44809C49.102 8.44826 49.102 8.44842 49.102 8.44859C49.102 8.44875 49.102 8.44891 49.102 8.44908C49.102 8.44924 49.102 8.44941 49.102 8.44957C49.102 8.44973 49.102 8.4499 49.102 8.45006C49.102 8.45023 49.102 8.45039 49.102 8.45055C49.102 8.45072 49.102 8.45088 49.102 8.45105C49.102 8.45121 49.102 8.45138 49.102 8.45154C49.102 8.4517 49.102 8.45187 49.102 8.45203C49.102 8.4522 49.102 8.45236 49.102 8.45252C49.102 8.45269 49.102 8.45285 49.102 8.45302C49.102 8.45318 49.102 8.45334 49.102 8.45351C49.102 8.45367 49.102 8.45384 49.102 8.454C49.102 8.45416 49.102 8.45433 49.102 8.45449C49.102 8.45466 49.102 8.45482 49.102 8.45498C49.102 8.45515 49.102 8.45531 49.102 8.45548C49.102 8.45564 49.102 8.4558 49.102 8.45597C49.102 8.45613 49.102 8.4563 49.102 8.45646C49.102 8.45662 49.102 8.45679 49.102 8.45695C49.102 8.45712 49.102 8.45728 49.102 8.45745C49.102 8.45761 49.102 8.45777 49.102 8.45794C49.102 8.4581 49.102 8.45827 49.102 8.45843C49.102 8.45859 49.102 8.45876 49.102 8.45892C49.102 8.45909 49.102 8.45925 49.102 8.45941C49.102 8.45958 49.102 8.45974 49.102 8.45991C49.102 8.46007 49.102 8.46023 49.102 8.4604C49.102 8.46056 49.102 8.46073 49.102 8.46089C49.102 8.46105 49.102 8.46122 49.102 8.46138C49.102 8.46155 49.102 8.46171 49.102 8.46187C49.102 8.46204 49.102 8.4622 49.102 8.46237C49.102 8.46253 49.102 8.4627 49.102 8.46286C49.102 8.46302 49.102 8.46319 49.102 8.46335C49.102 8.46352 49.102 8.46368 49.102 8.46384C49.102 8.46401 49.102 8.46417 49.102 8.46434C49.102 8.4645 49.102 8.46466 49.102 8.46483C49.102 8.46499 49.102 8.46516 49.102 8.46532C49.102 8.46548 49.102 8.46565 49.102 8.46581C49.102 8.46598 49.102 8.46614 49.102 8.4663C49.102 8.46647 49.102 8.46663 49.102 8.4668C49.102 8.46696 49.102 8.46712 49.102 8.46729C49.102 8.46745 49.102 8.46762 49.102 8.46778C49.102 8.46795 49.102 8.46811 49.102 8.46827C49.102 8.46844 49.102 8.4686 49.102 8.46877C49.102 8.46893 49.102 8.46909 49.102 8.46926C49.102 8.46942 49.102 8.46959 49.102 8.46975C49.102 8.46991 49.102 8.47008 49.102 8.47024C49.102 8.47041 49.102 8.47057 49.102 8.47073C49.102 8.4709 49.102 8.47106 49.102 8.47123C49.102 8.47139 49.102 8.47155 49.102 8.47172C49.102 8.47188 49.102 8.47205 49.102 8.47221C49.102 8.47237 49.102 8.47254 49.102 8.4727C49.102 8.47287 49.102 8.47303 49.102 8.4732C49.102 8.47336 49.102 8.47352 49.102 8.47369C49.102 8.47385 49.102 8.47402 49.102 8.47418C49.102 8.47434 49.102 8.47451 49.102 8.47467C49.102 8.47484 49.102 8.475 49.102 8.47516C49.102 8.47533 49.102 8.47549 49.102 8.47566C49.102 8.47582 49.102 8.47598 49.102 8.47615C49.102 8.47631 49.102 8.47648 49.102 8.47664C49.102 8.4768 49.102 8.47697 49.102 8.47713C49.102 8.4773 49.102 8.47746 49.102 8.47762C49.102 8.47779 49.102 8.47795 49.102 8.47812C49.102 8.47828 49.102 8.47845 49.102 8.47861C49.102 8.47877 49.102 8.47894 49.102 8.4791C49.102 8.47927 49.102 8.47943 49.102 8.47959C49.102 8.47976 49.102 8.47992 49.102 8.48009C49.102 8.48025 49.102 8.48041 49.102 8.48058C49.102 8.48074 49.102 8.48091 49.102 8.48107C49.102 8.48123 49.102 8.4814 49.102 8.48156C49.102 8.48173 49.102 8.48189 49.102 8.48205C49.102 8.48222 49.102 8.48238 49.102 8.48255C49.102 8.48271 49.102 8.48287 49.102 8.48304C49.102 8.4832 49.102 8.48337 49.102 8.48353C49.102 8.4837 49.102 8.48386 49.102 8.48402C49.102 8.48419 49.102 8.48435 49.102 8.48452C49.102 8.48468 49.102 8.48484 49.102 8.48501C49.102 8.48517 49.102 8.48534 49.102 8.4855C49.102 8.48566 49.102 8.48583 49.102 8.48599C49.102 8.48616 49.102 8.48632 49.102 8.48648C49.102 8.48665 49.102 8.48681 49.102 8.48698C49.102 8.48714 49.102 8.4873 49.102 8.48747C49.102 8.48763 49.102 8.4878 49.102 8.48796C49.102 8.48812 49.102 8.48829 49.102 8.48845C49.102 8.48862 49.102 8.48878 49.102 8.48895C49.102 8.48911 49.102 8.48927 49.102 8.48944C49.102 8.4896 49.102 8.48977 49.102 8.48993C49.102 8.49009 49.102 8.49026 49.102 8.49042C49.102 8.49059 49.102 8.49075 49.102 8.49091C49.102 8.49108 49.102 8.49124 49.102 8.49141C49.102 8.49157 49.102 8.49173 49.102 8.4919C49.102 8.49206 49.102 8.49223 49.102 8.49239C49.102 8.49255 49.102 8.49272 49.102 8.49288C49.102 8.49305 49.102 8.49321 49.102 8.49337C49.102 8.49354 49.102 8.4937 49.102 8.49387C49.102 8.49403 49.102 8.49419 49.102 8.49436C49.102 8.49452 49.102 8.49469 49.102 8.49485C49.102 8.49502 49.102 8.49518 49.102 8.49534C49.102 8.49551 49.102 8.49567 49.102 8.49584C49.102 8.496 49.102 8.49616 49.102 8.49633C49.102 8.49649 49.102 8.49666 49.102 8.49682C49.102 8.49698 49.102 8.49715 49.102 8.49731C49.102 8.49748 49.102 8.49764 49.102 8.4978C49.102 8.49797 49.102 8.49813 49.102 8.4983C49.102 8.49846 49.102 8.49862 49.102 8.49879C49.102 8.49895 49.102 8.49912 49.102 8.49928C49.102 8.49944 49.102 8.49961 49.102 8.49977C49.102 8.49994 49.102 8.5001 49.102 8.50027C49.102 8.50043 49.102 8.50059 49.102 8.50076C49.102 8.50092 49.102 8.50109 49.102 8.50125C49.102 8.50141 49.102 8.50158 49.102 8.50174C49.102 8.50191 49.102 8.50207 49.102 8.50223C49.102 8.5024 49.102 8.50256 49.102 8.50273C49.102 8.50289 49.102 8.50305 49.102 8.50322C49.102 8.50338 49.102 8.50355 49.102 8.50371C49.102 8.50387 49.102 8.50404 49.102 8.5042C49.102 8.50437 49.102 8.50453 49.102 8.50469C49.102 8.50486 49.102 8.50502 49.102 8.50519C49.102 8.50535 49.102 8.50552 49.102 8.50568C49.102 8.50584 49.102 8.50601 49.102 8.50617C49.102 8.50634 49.102 8.5065 49.102 8.50666C49.102 8.50683 49.102 8.50699 49.102 8.50716C49.102 8.50732 49.102 8.50748 49.102 8.50765C49.102 8.50781 49.102 8.50798 49.102 8.50814C49.102 8.5083 49.102 8.50847 49.102 8.50863C49.102 8.5088 49.102 8.50896 49.102 8.50912C49.102 8.50929 49.102 8.50945 49.102 8.50962C49.102 8.50978 49.102 8.50994 49.102 8.51011C49.102 8.51027 49.102 8.51044 49.102 8.5106C49.102 8.51077 49.102 8.51093 49.102 8.51109C49.102 8.51126 49.102 8.51142 49.102 8.51159C49.102 8.51175 49.102 8.51191 49.102 8.51208C49.102 8.51224 49.102 8.51241 49.102 8.51257C49.102 8.51273 49.102 8.5129 49.102 8.51306C49.102 8.51323 49.102 8.51339 49.102 8.51355C49.102 8.51372 49.102 8.51388 49.102 8.51405C49.102 8.51421 49.102 8.51437 49.102 8.51454C49.102 8.5147 49.102 8.51487 49.102 8.51503C49.102 8.5152 49.102 8.51536 49.102 8.51552C49.102 8.51569 49.102 8.51585 49.102 8.51602C49.102 8.51618 49.102 8.51634 49.102 8.51651C49.102 8.51667 49.102 8.51684 49.102 8.517C49.102 8.51716 49.102 8.51733 49.102 8.51749C49.102 8.51766 49.102 8.51782 49.102 8.51798C49.102 8.51815 49.102 8.51831 49.102 8.51848C49.102 8.51864 49.102 8.5188 49.102 8.51897C49.102 8.51913 49.102 8.5193 49.102 8.51946C49.102 8.51962 49.102 8.51979 49.102 8.51995C49.102 8.52012 49.102 8.52028 49.102 8.52045C49.102 8.52061 49.102 8.52077 49.102 8.52094C49.102 8.5211 49.102 8.52127 49.102 8.52143C49.102 8.52159 49.102 8.52176 49.102 8.52192C49.102 8.52209 49.102 8.52225 49.102 8.52241C49.102 8.52258 49.102 8.52274 49.102 8.52291C49.102 8.52307 49.102 8.52323 49.102 8.5234C49.102 8.52356 49.102 8.52373 49.102 8.52389C49.102 8.52405 49.102 8.52422 49.102 8.52438C49.102 8.52455 49.102 8.52471 49.102 8.52487C49.102 8.52504 49.102 8.5252 49.102 8.52537C49.102 8.52553 49.102 8.5257 49.102 8.52586C49.102 8.52602 49.102 8.52619 49.102 8.52635C49.102 8.52652 49.102 8.52668 49.102 8.52684C49.102 8.52701 49.102 8.52717 49.102 8.52734C49.102 8.5275 49.102 8.52766 49.102 8.52783C49.102 8.52799 49.102 8.52816 49.102 8.52832C49.102 8.52848 49.102 8.52865 49.102 8.52881C49.102 8.52898 49.102 8.52914 49.102 8.5293C49.102 8.52947 49.102 8.52963 49.102 8.5298C49.102 8.52996 49.102 8.53012 49.102 8.53029C49.102 8.53045 49.102 8.53062 49.102 8.53078C49.102 8.53095 49.102 8.53111 49.102 8.53127C49.102 8.53144 49.102 8.5316 49.102 8.53177C49.102 8.53193 49.102 8.53209 49.102 8.53226C49.102 8.53242 49.102 8.53259 49.102 8.53275C49.102 8.53291 49.102 8.53308 49.102 8.53324C49.102 8.53341 49.102 8.53357 49.102 8.53373C49.102 8.5339 49.102 8.53406 49.102 8.53423C49.102 8.53439 49.102 8.53455 49.102 8.53472C49.102 8.53488 49.102 8.53505 49.102 8.53521C49.102 8.53537 49.102 8.53554 49.102 8.5357C49.102 8.53587 49.102 8.53603 49.102 8.5362C49.102 8.53636 49.102 8.53652 49.102 8.53669C49.102 8.53685 49.102 8.53702 49.102 8.53718C49.102 8.53734 49.102 8.53751 49.102 8.53767C49.102 8.53784 49.102 8.538 49.102 8.53816C49.102 8.53833 49.102 8.53849 49.102 8.53866C49.102 8.53882 49.102 8.53898 49.102 8.53915C49.102 8.53931 49.102 8.53948 49.102 8.53964C49.102 8.5398 49.102 8.53997 49.102 8.54013C49.102 8.5403 49.102 8.54046 49.102 8.54062C49.102 8.54079 49.102 8.54095 49.102 8.54112C49.102 8.54128 49.102 8.54145 49.102 8.54161C49.102 8.54177 49.102 8.54194 49.102 8.5421C49.102 8.54227 49.102 8.54243 49.102 8.54259C49.102 8.54276 49.102 8.54292 49.102 8.54309C49.102 8.54325 49.102 8.54341 49.102 8.54358C49.102 8.54374 49.102 8.54391 49.102 8.54407C49.102 8.54423 49.102 8.5444 49.102 8.54456C49.102 8.54473 49.102 8.54489 49.102 8.54505C49.102 8.54522 49.102 8.54538 49.102 8.54555C49.102 8.54571 49.102 8.54588 49.102 8.54604C49.102 8.5462 49.102 8.54637 49.102 8.54653C49.102 8.5467 49.102 8.54686 49.102 8.54702C49.102 8.54719 49.102 8.54735 49.102 8.54752C49.102 8.54768 49.102 8.54784 49.102 8.54801C49.102 8.54817 49.102 8.54834 49.102 8.5485C49.102 8.54866 49.102 8.54883 49.102 8.54899C49.102 8.54916 49.102 8.54932 49.102 8.54948C49.102 8.54965 49.102 8.54981 49.102 8.54998C49.102 8.55014 49.102 8.5503 49.102 8.55047C49.102 8.55063 49.102 8.5508 49.102 8.55096C49.102 8.55113 49.102 8.55129 49.102 8.55145C49.102 8.55162 49.102 8.55178 49.102 8.55195C49.102 8.55211 49.102 8.55227 49.102 8.55244C49.102 8.5526 49.102 8.55277 49.102 8.55293C49.102 8.55309 49.102 8.55326 49.102 8.55342C49.102 8.55359 49.102 8.55375 49.102 8.55391C49.102 8.55408 49.102 8.55424 49.102 8.55441C49.102 8.55457 49.102 8.55473 49.102 8.5549C49.102 8.55506 49.102 8.55523 49.102 8.55539C49.102 8.55555 49.102 8.55572 49.102 8.55588C49.102 8.55605 49.102 8.55621 49.102 8.55638C49.102 8.55654 49.102 8.5567 49.102 8.55687C49.102 8.55703 49.102 8.5572 49.102 8.55736C49.102 8.55752 49.102 8.55769 49.102 8.55785C49.102 8.55802 49.102 8.55818 49.102 8.55834C49.102 8.55851 49.102 8.55867 49.102 8.55884C49.102 8.559 49.102 8.55916 49.102 8.55933C49.102 8.55949 49.102 8.55966 49.102 8.55982C49.102 8.55998 49.102 8.56015 49.102 8.56031C49.102 8.56048 49.102 8.56064 49.102 8.5608C49.102 8.56097 49.102 8.56113 49.102 8.5613C49.102 8.56146 49.102 8.56163 49.102 8.56179C49.102 8.56195 49.102 8.56212 49.102 8.56228C49.102 8.56245 49.102 8.56261 49.102 8.56277C49.102 8.56294 49.102 8.5631 49.102 8.56327C49.102 8.56343 49.102 8.56359 49.102 8.56376C49.102 8.56392 49.102 8.56409 49.102 8.56425C49.102 8.56441 49.102 8.56458 49.102 8.56474C49.102 8.56491 49.102 8.56507 49.102 8.56523C49.102 8.5654 49.102 8.56556 49.102 8.56573C49.102 8.56589 49.102 8.56605 49.102 8.56622C49.102 8.56638 49.102 8.56655 49.102 8.56671C49.102 8.56687 49.102 8.56704 49.102 8.5672C49.102 8.56737 49.102 8.56753 49.102 8.5677C49.102 8.56786 49.102 8.56802 49.102 8.56819C49.102 8.56835 49.102 8.56852 49.102 8.56868C49.102 8.56884 49.102 8.56901 49.102 8.56917C49.102 8.56934 49.102 8.5695 49.102 8.56966C49.102 8.56983 49.102 8.56999 49.102 8.57016C49.102 8.57032 49.102 8.57048 49.102 8.57065C49.102 8.57081 49.102 8.57098 49.102 8.57114C49.102 8.5713 49.102 8.57147 49.102 8.57163C49.102 8.5718 49.102 8.57196 49.102 8.57212C49.102 8.57229 49.102 8.57245 49.102 8.57262C49.102 8.57278 49.102 8.57295 49.102 8.57311C49.102 8.57327 49.102 8.57344 49.102 8.5736C49.102 8.57377 49.102 8.57393 49.102 8.57409C49.102 8.57426 49.102 8.57442 49.102 8.57459C49.102 8.57475 49.102 8.57491 49.102 8.57508C49.102 8.57524 49.102 8.57541 49.102 8.57557C49.102 8.57573 49.102 8.5759 49.102 8.57606C49.102 8.57623 49.102 8.57639 49.102 8.57655C49.102 8.57672 49.102 8.57688 49.102 8.57705C49.102 8.57721 49.102 8.57737 49.102 8.57754C49.102 8.5777 49.102 8.57787 49.102 8.57803C49.102 8.5782 49.102 8.57836 49.102 8.57852C49.102 8.57869 49.102 8.57885 49.102 8.57902C49.102 8.57918 49.102 8.57934 49.102 8.57951C49.102 8.57967 49.102 8.57984 49.102 8.58C49.102 8.58016 49.102 8.58033 49.102 8.58049C49.102 8.58066 49.102 8.58082 49.102 8.58098C49.102 8.58115 49.102 8.58131 49.102 8.58148C49.102 8.58164 49.102 8.5818 49.102 8.58197C49.102 8.58213 49.102 8.5823 49.102 8.58246C49.102 8.58262 49.102 8.58279 49.102 8.58295C49.102 8.58312 49.102 8.58328 49.102 8.58345C49.102 8.58361 49.102 8.58377 49.102 8.58394C49.102 8.5841 49.102 8.58427 49.102 8.58443C49.102 8.58459 49.102 8.58476 49.102 8.58492C49.102 8.58509 49.102 8.58525 49.102 8.58541C49.102 8.58558 49.102 8.58574 49.102 8.58591C49.102 8.58607 49.102 8.58623 49.102 8.5864C49.102 8.58656 49.102 8.58673 49.102 8.58689C49.102 8.58705 49.102 8.58722 49.102 8.58738C49.102 8.58755 49.102 8.58771 49.102 8.58787C49.102 8.58804 49.102 8.5882 49.102 8.58837C49.102 8.58853 49.102 8.5887 49.102 8.58886C49.102 8.58902 49.102 8.58919 49.102 8.58935C49.102 8.58952 49.102 8.58968 49.102 8.58984C49.102 8.59001 49.102 8.59017 49.102 8.59034C49.102 8.5905 49.102 8.59066 49.102 8.59083C49.102 8.59099 49.102 8.59116 49.102 8.59132C49.102 8.59148 49.102 8.59165 49.102 8.59181C49.102 8.59198 49.102 8.59214 49.102 8.5923C49.102 8.59247 49.102 8.59263 49.102 8.5928C49.102 8.59296 49.102 8.59312 49.102 8.59329C49.102 8.59345 49.102 8.59362 49.102 8.59378C49.102 8.59395 49.102 8.59411 49.102 8.59427C49.102 8.59444 49.102 8.5946 49.102 8.59477C49.102 8.59493 49.102 8.59509 49.102 8.59526C49.102 8.59542 49.102 8.59559 49.102 8.59575C49.102 8.59591 49.102 8.59608 49.102 8.59624C49.102 8.59641 49.102 8.59657 49.102 8.59673C49.102 8.5969 49.102 8.59706 49.102 8.59723C49.102 8.59739 49.102 8.59755 49.102 8.59772C49.102 8.59788 49.102 8.59805 49.102 8.59821C49.102 8.59837 49.102 8.59854 49.102 8.5987C49.102 8.59887 49.102 8.59903 49.102 8.5992C49.102 8.59936 49.102 8.59952 49.102 8.59969C49.102 8.59985 49.102 8.60002 49.102 8.60018C49.102 8.60034 49.102 8.60051 49.102 8.60067C49.102 8.60084 49.102 8.601 49.102 8.60116C49.102 8.60133 49.102 8.60149 49.102 8.60166C49.102 8.60182 49.102 8.60198 49.102 8.60215C49.102 8.60231 49.102 8.60248 49.102 8.60264C49.102 8.6028 49.102 8.60297 49.102 8.60313C49.102 8.6033 49.102 8.60346 49.102 8.60362C49.102 8.60379 49.102 8.60395 49.102 8.60412C49.102 8.60428 49.102 8.60444 49.102 8.60461C49.102 8.60477 49.102 8.60494 49.102 8.6051C49.102 8.60527 49.102 8.60543 49.102 8.60559C49.102 8.60576 49.102 8.60592 49.102 8.60609C49.102 8.60625 49.102 8.60641 49.102 8.60658C49.102 8.60674 49.102 8.60691 49.102 8.60707C49.102 8.60723 49.102 8.6074 49.102 8.60756C49.102 8.60773 49.102 8.60789 49.102 8.60805C49.102 8.60822 49.102 8.60838 49.102 8.60855C49.102 8.60871 49.102 8.60887 49.102 8.60904C49.102 8.6092 49.102 8.60937 49.102 8.60953C49.102 8.6097 49.102 8.60986 49.102 8.61002C49.102 8.61019 49.102 8.61035 49.102 8.61052C49.102 8.61068 49.102 8.61084 49.102 8.61101C49.102 8.61117 49.102 8.61134 49.102 8.6115C49.102 8.61166 49.102 8.61183 49.102 8.61199C49.102 8.61216 49.102 8.61232 49.102 8.61248C49.102 8.61265 49.102 8.61281 49.102 8.61298C49.102 8.61314 49.102 8.6133 49.102 8.61347C49.102 8.61363 49.102 8.6138 49.102 8.61396C49.102 8.61412 49.102 8.61429 49.102 8.61445C49.102 8.61462 49.102 8.61478 49.102 8.61495C49.102 8.61511 49.102 8.61527 49.102 8.61544C49.102 8.6156 49.102 8.61577 49.102 8.61593C49.102 8.61609 49.102 8.61626 49.102 8.61642C49.102 8.61659 49.102 8.61675 49.102 8.61691C49.102 8.61708 49.102 8.61724 49.102 8.61741C49.102 8.61757 49.102 8.61773 49.102 8.6179C49.102 8.61806 49.102 8.61823 49.102 8.61839C49.102 8.61855 49.102 8.61872 49.102 8.61888C49.102 8.61905 49.102 8.61921 49.102 8.61937C49.102 8.61954 49.102 8.6197 49.102 8.61987C49.102 8.62003 49.102 8.6202 49.102 8.62036C49.102 8.62052 49.102 8.62069 49.102 8.62085C49.102 8.62102 49.102 8.62118 49.102 8.62134C49.102 8.62151 49.102 8.62167 49.102 8.62184C49.102 8.622 49.102 8.62216 49.102 8.62233C49.102 8.62249 49.102 8.62266 49.102 8.62282C49.102 8.62298 49.102 8.62315 49.102 8.62331C49.102 8.62348 49.102 8.62364 49.102 8.6238C49.102 8.62397 49.102 8.62413 49.102 8.6243C49.102 8.62446 49.102 8.62462 49.102 8.62479C49.102 8.62495 49.102 8.62512 49.102 8.62528C49.102 8.62545 49.102 8.62561 49.102 8.62577C49.102 8.62594 49.102 8.6261 49.102 8.62627C49.102 8.62643 49.102 8.62659 49.102 8.62676C49.102 8.62692 49.102 8.62709 49.102 8.62725C49.102 8.62741 49.102 8.62758 49.102 8.62774C49.102 8.62791 49.102 8.62807 49.102 8.62823C49.102 8.6284 49.102 8.62856 49.102 8.62873C49.102 8.62889 49.102 8.62905 49.102 8.62922C49.102 8.62938 49.102 8.62955 49.102 8.62971C49.102 8.62987 49.102 8.63004 49.102 8.6302C49.102 8.63037 49.102 8.63053 49.102 8.6307C49.102 8.63086 49.102 8.63102 49.102 8.63119C49.102 8.63135 49.102 8.63152 49.102 8.63168C49.102 8.63184 49.102 8.63201 49.102 8.63217C49.102 8.63234 49.102 8.6325 49.102 8.63266C49.102 8.63283 49.102 8.63299 49.102 8.63316C49.102 8.63332 49.102 8.63348 49.102 8.63365C49.102 8.63381 49.102 8.63398 49.102 8.63414C49.102 8.6343 49.102 8.63447 49.102 8.63463C49.102 8.6348 49.102 8.63496 49.102 8.63513C49.102 8.63529 49.102 8.63545 49.102 8.63562C49.102 8.63578 49.102 8.63595 49.102 8.63611C49.102 8.63627 49.102 8.63644 49.102 8.6366C49.102 8.63677 49.102 8.63693 49.102 8.63709C49.102 8.63726 49.102 8.63742 49.102 8.63759C49.102 8.63775 49.102 8.63791 49.102 8.63808C49.102 8.63824 49.102 8.63841 49.102 8.63857C49.102 8.63873 49.102 8.6389 49.102 8.63906C49.102 8.63923 49.102 8.63939 49.102 8.63955C49.102 8.63972 49.102 8.63988 49.102 8.64005C49.102 8.64021 49.102 8.64038 49.102 8.64054C49.102 8.6407 49.102 8.64087 49.102 8.64103C49.102 8.6412 49.102 8.64136 49.102 8.64152C49.102 8.64169 49.102 8.64185 49.102 8.64202C49.102 8.64218 49.102 8.64234 49.102 8.64251C49.102 8.64267 49.102 8.64284 49.102 8.643C49.102 8.64316 49.102 8.64333 49.102 8.64349C49.102 8.64366 49.102 8.64382 49.102 8.64398C49.102 8.64415 49.102 8.64431 49.102 8.64448C49.102 8.64464 49.102 8.6448 49.102 8.64497C49.102 8.64513 49.102 8.6453 49.102 8.64546C49.102 8.64563 49.102 8.64579 49.102 8.64595C49.102 8.64612 49.102 8.64628 49.102 8.64645C49.102 8.64661 49.102 8.64677 49.102 8.64694C49.102 8.6471 49.102 8.64727 49.102 8.64743C49.102 8.64759 49.102 8.64776 49.102 8.64792C49.102 8.64809 49.102 8.64825 49.102 8.64841C49.102 8.64858 49.102 8.64874 49.102 8.64891C49.102 8.64907 49.102 8.64923 49.102 8.6494C49.102 8.64956 49.102 8.64973 49.102 8.64989C49.102 8.65005 49.102 8.65022 49.102 8.65038C49.102 8.65055 49.102 8.65071 49.102 8.65088C49.102 8.65104 49.102 8.6512 49.102 8.65137C49.102 8.65153 49.102 8.6517 49.102 8.65186C49.102 8.65202 49.102 8.65219 49.102 8.65235C49.102 8.65252 49.102 8.65268 49.102 8.65284C49.102 8.65301 49.102 8.65317 49.102 8.65334C49.102 8.6535 49.102 8.65366 49.102 8.65383C49.102 8.65399 49.102 8.65416 49.102 8.65432C49.102 8.65448 49.102 8.65465 49.102 8.65481C49.102 8.65498 49.102 8.65514 49.102 8.6553C49.102 8.65547 49.102 8.65563 49.102 8.6558C49.102 8.65596 49.102 8.65613 49.102 8.65629C49.102 8.65645 49.102 8.65662 49.102 8.65678C49.102 8.65695 49.102 8.65711 49.102 8.65727C49.102 8.65744 49.102 8.6576 49.102 8.65777C49.102 8.65793 49.102 8.65809 49.102 8.65826C49.102 8.65842 49.102 8.65859 49.102 8.65875C49.102 8.65891 49.102 8.65908 49.102 8.65924C49.102 8.65941 49.102 8.65957 49.102 8.65973C49.102 8.6599 49.102 8.66006 49.102 8.66023C49.102 8.66039 49.102 8.66055 49.102 8.66072C49.102 8.66088 49.102 8.66105 49.102 8.66121C49.102 8.66138 49.102 8.66154 49.102 8.6617C49.102 8.66187 49.102 8.66203 49.102 8.6622C49.102 8.66236 49.102 8.66252 49.102 8.66269C49.102 8.66285 49.102 8.66302 49.102 8.66318C49.102 8.66334 49.102 8.66351 49.102 8.66367C49.102 8.66384 49.102 8.664 49.102 8.66416C49.102 8.66433 49.102 8.66449 49.102 8.66466C49.102 8.66482 49.102 8.66498 49.102 8.66515C49.102 8.66531 49.102 8.66548 49.102 8.66564C49.102 8.6658 49.102 8.66597 49.102 8.66613C49.102 8.6663 49.102 8.66646 49.102 8.66663C49.102 8.66679 49.102 8.66695 49.102 8.66712C49.102 8.66728 49.102 8.66745 49.102 8.66761C49.102 8.66777 49.102 8.66794 49.102 8.6681C49.102 8.66827 49.102 8.66843 49.102 8.66859C49.102 8.66876 49.102 8.66892 49.102 8.66909C49.102 8.66925 49.102 8.66941 49.102 8.66958C49.102 8.66974 49.102 8.66991 49.102 8.67007C49.102 8.67023 49.102 8.6704 49.102 8.67056C49.102 8.67073 49.102 8.67089 49.102 8.67105C49.102 8.67122 49.102 8.67138 49.102 8.67155C49.102 8.67171 49.102 8.67188 49.102 8.67204C49.102 8.6722 49.102 8.67237 49.102 8.67253C49.102 8.6727 49.102 8.67286 49.102 8.67302C49.102 8.67319 49.102 8.67335 49.102 8.67352C49.102 8.67368 49.102 8.67384 49.102 8.67401C49.102 8.67417 49.102 8.67434 49.102 8.6745C49.102 8.67466 49.102 8.67483 49.102 8.67499C49.102 8.67516 49.102 8.67532 49.102 8.67548C49.102 8.67565 49.102 8.67581 49.102 8.67598C49.102 8.67614 49.102 8.6763 49.102 8.67647C49.102 8.67663 49.102 8.6768 49.102 8.67696C49.102 8.67712 49.102 8.67729 49.102 8.67745C49.102 8.67762 49.102 8.67778 49.102 8.67795C49.102 8.67811 49.102 8.67827 49.102 8.67844C49.102 8.6786 49.102 8.67877 49.102 8.67893C49.102 8.67909 49.102 8.67926 49.102 8.67942C49.102 8.67959 49.102 8.67975 49.102 8.67991C49.102 8.68008 49.102 8.68024 49.102 8.68041C49.102 8.68057 49.102 8.68073 49.102 8.6809C49.102 8.68106 49.102 8.68123 49.102 8.68139C49.102 8.68155 49.102 8.68172 49.102 8.68188C49.102 8.68205 49.102 8.68221 49.102 8.68237C49.102 8.68254 49.102 8.6827 49.102 8.68287C49.102 8.68303 49.102 8.6832 49.102 8.68336C49.102 8.68352 49.102 8.68369 49.102 8.68385C49.102 8.68402 49.102 8.68418 49.102 8.68434C49.102 8.68451 49.102 8.68467 49.102 8.68484C49.102 8.685 49.102 8.68516 49.102 8.68533C49.102 8.68549 49.102 8.68566 49.102 8.68582C49.102 8.68598 49.102 8.68615 49.102 8.68631C49.102 8.68648 49.102 8.68664 49.102 8.6868C49.102 8.68697 49.102 8.68713 49.102 8.6873C49.102 8.68746 49.102 8.68762 49.102 8.68779C49.102 8.68795 49.102 8.68812 49.102 8.68828C49.102 8.68845 49.102 8.68861 49.102 8.68877C49.102 8.68894 49.102 8.6891 49.102 8.68927C49.102 8.68943 49.102 8.68959 49.102 8.68976C49.102 8.68992 49.102 8.69009 49.102 8.69025C49.102 8.69041 49.102 8.69058 49.102 8.69074C49.102 8.69091 49.102 8.69107 49.102 8.69123C49.102 8.6914 49.102 8.69156 49.102 8.69173H51.602ZM50.352 9.68973H51.056V7.18973H50.352V9.68973ZM51.056 9.68973C53.6269 9.68973 55.826 7.67225 55.826 5.07973H53.326C53.326 6.18321 52.3571 7.18973 51.056 7.18973V9.68973ZM55.826 5.07973C55.826 2.48721 53.6269 0.469727 51.056 0.469727V2.96973C52.3571 2.96973 53.326 3.97624 53.326 5.07973H55.826ZM51.056 0.469727H27.472V2.96973H51.056V0.469727ZM27.472 0.469727C24.9011 0.469727 22.702 2.48721 22.702 5.07973H25.202C25.202 3.97625 26.1709 2.96973 27.472 2.96973V0.469727ZM22.702 5.07973C22.702 7.67225 24.9011 9.68973 27.472 9.68973V7.18973C26.1709 7.18973 25.202 6.18321 25.202 5.07973H22.702ZM27.472 9.68973H28.176V7.18973H27.472V9.68973ZM26.926 8.43973C26.926 8.43989 26.926 8.44005 26.926 8.44022C26.926 8.44038 26.926 8.44055 26.926 8.44071C26.926 8.44087 26.926 8.44104 26.926 8.4412C26.926 8.44137 26.926 8.44153 26.926 8.4417C26.926 8.44186 26.926 8.44202 26.926 8.44219C26.926 8.44235 26.926 8.44252 26.926 8.44268C26.926 8.44284 26.926 8.44301 26.926 8.44317C26.926 8.44334 26.926 8.4435 26.926 8.44366C26.926 8.44383 26.926 8.44399 26.926 8.44416C26.926 8.44432 26.926 8.44448 26.926 8.44465C26.926 8.44481 26.926 8.44498 26.926 8.44514C26.926 8.4453 26.926 8.44547 26.926 8.44563C26.926 8.4458 26.926 8.44596 26.926 8.44612C26.926 8.44629 26.926 8.44645 26.926 8.44662C26.926 8.44678 26.926 8.44695 26.926 8.44711C26.926 8.44727 26.926 8.44744 26.926 8.4476C26.926 8.44777 26.926 8.44793 26.926 8.44809C26.926 8.44826 26.926 8.44842 26.926 8.44859C26.926 8.44875 26.926 8.44891 26.926 8.44908C26.926 8.44924 26.926 8.44941 26.926 8.44957C26.926 8.44973 26.926 8.4499 26.926 8.45006C26.926 8.45023 26.926 8.45039 26.926 8.45055C26.926 8.45072 26.926 8.45088 26.926 8.45105C26.926 8.45121 26.926 8.45138 26.926 8.45154C26.926 8.4517 26.926 8.45187 26.926 8.45203C26.926 8.4522 26.926 8.45236 26.926 8.45252C26.926 8.45269 26.926 8.45285 26.926 8.45302C26.926 8.45318 26.926 8.45334 26.926 8.45351C26.926 8.45367 26.926 8.45384 26.926 8.454C26.926 8.45416 26.926 8.45433 26.926 8.45449C26.926 8.45466 26.926 8.45482 26.926 8.45498C26.926 8.45515 26.926 8.45531 26.926 8.45548C26.926 8.45564 26.926 8.4558 26.926 8.45597C26.926 8.45613 26.926 8.4563 26.926 8.45646C26.926 8.45662 26.926 8.45679 26.926 8.45695C26.926 8.45712 26.926 8.45728 26.926 8.45745C26.926 8.45761 26.926 8.45777 26.926 8.45794C26.926 8.4581 26.926 8.45827 26.926 8.45843C26.926 8.45859 26.926 8.45876 26.926 8.45892C26.926 8.45909 26.926 8.45925 26.926 8.45941C26.926 8.45958 26.926 8.45974 26.926 8.45991C26.926 8.46007 26.926 8.46023 26.926 8.4604C26.926 8.46056 26.926 8.46073 26.926 8.46089C26.926 8.46105 26.926 8.46122 26.926 8.46138C26.926 8.46155 26.926 8.46171 26.926 8.46187C26.926 8.46204 26.926 8.4622 26.926 8.46237C26.926 8.46253 26.926 8.4627 26.926 8.46286C26.926 8.46302 26.926 8.46319 26.926 8.46335C26.926 8.46352 26.926 8.46368 26.926 8.46384C26.926 8.46401 26.926 8.46417 26.926 8.46434C26.926 8.4645 26.926 8.46466 26.926 8.46483C26.926 8.46499 26.926 8.46516 26.926 8.46532C26.926 8.46548 26.926 8.46565 26.926 8.46581C26.926 8.46598 26.926 8.46614 26.926 8.4663C26.926 8.46647 26.926 8.46663 26.926 8.4668C26.926 8.46696 26.926 8.46712 26.926 8.46729C26.926 8.46745 26.926 8.46762 26.926 8.46778C26.926 8.46795 26.926 8.46811 26.926 8.46827C26.926 8.46844 26.926 8.4686 26.926 8.46877C26.926 8.46893 26.926 8.46909 26.926 8.46926C26.926 8.46942 26.926 8.46959 26.926 8.46975C26.926 8.46991 26.926 8.47008 26.926 8.47024C26.926 8.47041 26.926 8.47057 26.926 8.47073C26.926 8.4709 26.926 8.47106 26.926 8.47123C26.926 8.47139 26.926 8.47155 26.926 8.47172C26.926 8.47188 26.926 8.47205 26.926 8.47221C26.926 8.47237 26.926 8.47254 26.926 8.4727C26.926 8.47287 26.926 8.47303 26.926 8.4732C26.926 8.47336 26.926 8.47352 26.926 8.47369C26.926 8.47385 26.926 8.47402 26.926 8.47418C26.926 8.47434 26.926 8.47451 26.926 8.47467C26.926 8.47484 26.926 8.475 26.926 8.47516C26.926 8.47533 26.926 8.47549 26.926 8.47566C26.926 8.47582 26.926 8.47598 26.926 8.47615C26.926 8.47631 26.926 8.47648 26.926 8.47664C26.926 8.4768 26.926 8.47697 26.926 8.47713C26.926 8.4773 26.926 8.47746 26.926 8.47762C26.926 8.47779 26.926 8.47795 26.926 8.47812C26.926 8.47828 26.926 8.47845 26.926 8.47861C26.926 8.47877 26.926 8.47894 26.926 8.4791C26.926 8.47927 26.926 8.47943 26.926 8.47959C26.926 8.47976 26.926 8.47992 26.926 8.48009C26.926 8.48025 26.926 8.48041 26.926 8.48058C26.926 8.48074 26.926 8.48091 26.926 8.48107C26.926 8.48123 26.926 8.4814 26.926 8.48156C26.926 8.48173 26.926 8.48189 26.926 8.48205C26.926 8.48222 26.926 8.48238 26.926 8.48255C26.926 8.48271 26.926 8.48287 26.926 8.48304C26.926 8.4832 26.926 8.48337 26.926 8.48353C26.926 8.4837 26.926 8.48386 26.926 8.48402C26.926 8.48419 26.926 8.48435 26.926 8.48452C26.926 8.48468 26.926 8.48484 26.926 8.48501C26.926 8.48517 26.926 8.48534 26.926 8.4855C26.926 8.48566 26.926 8.48583 26.926 8.48599C26.926 8.48616 26.926 8.48632 26.926 8.48648C26.926 8.48665 26.926 8.48681 26.926 8.48698C26.926 8.48714 26.926 8.4873 26.926 8.48747C26.926 8.48763 26.926 8.4878 26.926 8.48796C26.926 8.48812 26.926 8.48829 26.926 8.48845C26.926 8.48862 26.926 8.48878 26.926 8.48895C26.926 8.48911 26.926 8.48927 26.926 8.48944C26.926 8.4896 26.926 8.48977 26.926 8.48993C26.926 8.49009 26.926 8.49026 26.926 8.49042C26.926 8.49059 26.926 8.49075 26.926 8.49091C26.926 8.49108 26.926 8.49124 26.926 8.49141C26.926 8.49157 26.926 8.49173 26.926 8.4919C26.926 8.49206 26.926 8.49223 26.926 8.49239C26.926 8.49255 26.926 8.49272 26.926 8.49288C26.926 8.49305 26.926 8.49321 26.926 8.49337C26.926 8.49354 26.926 8.4937 26.926 8.49387C26.926 8.49403 26.926 8.49419 26.926 8.49436C26.926 8.49452 26.926 8.49469 26.926 8.49485C26.926 8.49502 26.926 8.49518 26.926 8.49534C26.926 8.49551 26.926 8.49567 26.926 8.49584C26.926 8.496 26.926 8.49616 26.926 8.49633C26.926 8.49649 26.926 8.49666 26.926 8.49682C26.926 8.49698 26.926 8.49715 26.926 8.49731C26.926 8.49748 26.926 8.49764 26.926 8.4978C26.926 8.49797 26.926 8.49813 26.926 8.4983C26.926 8.49846 26.926 8.49862 26.926 8.49879C26.926 8.49895 26.926 8.49912 26.926 8.49928C26.926 8.49944 26.926 8.49961 26.926 8.49977C26.926 8.49994 26.926 8.5001 26.926 8.50027C26.926 8.50043 26.926 8.50059 26.926 8.50076C26.926 8.50092 26.926 8.50109 26.926 8.50125C26.926 8.50141 26.926 8.50158 26.926 8.50174C26.926 8.50191 26.926 8.50207 26.926 8.50223C26.926 8.5024 26.926 8.50256 26.926 8.50273C26.926 8.50289 26.926 8.50305 26.926 8.50322C26.926 8.50338 26.926 8.50355 26.926 8.50371C26.926 8.50387 26.926 8.50404 26.926 8.5042C26.926 8.50437 26.926 8.50453 26.926 8.50469C26.926 8.50486 26.926 8.50502 26.926 8.50519C26.926 8.50535 26.926 8.50552 26.926 8.50568C26.926 8.50584 26.926 8.50601 26.926 8.50617C26.926 8.50634 26.926 8.5065 26.926 8.50666C26.926 8.50683 26.926 8.50699 26.926 8.50716C26.926 8.50732 26.926 8.50748 26.926 8.50765C26.926 8.50781 26.926 8.50798 26.926 8.50814C26.926 8.5083 26.926 8.50847 26.926 8.50863C26.926 8.5088 26.926 8.50896 26.926 8.50912C26.926 8.50929 26.926 8.50945 26.926 8.50962C26.926 8.50978 26.926 8.50994 26.926 8.51011C26.926 8.51027 26.926 8.51044 26.926 8.5106C26.926 8.51077 26.926 8.51093 26.926 8.51109C26.926 8.51126 26.926 8.51142 26.926 8.51159C26.926 8.51175 26.926 8.51191 26.926 8.51208C26.926 8.51224 26.926 8.51241 26.926 8.51257C26.926 8.51273 26.926 8.5129 26.926 8.51306C26.926 8.51323 26.926 8.51339 26.926 8.51355C26.926 8.51372 26.926 8.51388 26.926 8.51405C26.926 8.51421 26.926 8.51437 26.926 8.51454C26.926 8.5147 26.926 8.51487 26.926 8.51503C26.926 8.5152 26.926 8.51536 26.926 8.51552C26.926 8.51569 26.926 8.51585 26.926 8.51602C26.926 8.51618 26.926 8.51634 26.926 8.51651C26.926 8.51667 26.926 8.51684 26.926 8.517C26.926 8.51716 26.926 8.51733 26.926 8.51749C26.926 8.51766 26.926 8.51782 26.926 8.51798C26.926 8.51815 26.926 8.51831 26.926 8.51848C26.926 8.51864 26.926 8.5188 26.926 8.51897C26.926 8.51913 26.926 8.5193 26.926 8.51946C26.926 8.51962 26.926 8.51979 26.926 8.51995C26.926 8.52012 26.926 8.52028 26.926 8.52045C26.926 8.52061 26.926 8.52077 26.926 8.52094C26.926 8.5211 26.926 8.52127 26.926 8.52143C26.926 8.52159 26.926 8.52176 26.926 8.52192C26.926 8.52209 26.926 8.52225 26.926 8.52241C26.926 8.52258 26.926 8.52274 26.926 8.52291C26.926 8.52307 26.926 8.52323 26.926 8.5234C26.926 8.52356 26.926 8.52373 26.926 8.52389C26.926 8.52405 26.926 8.52422 26.926 8.52438C26.926 8.52455 26.926 8.52471 26.926 8.52487C26.926 8.52504 26.926 8.5252 26.926 8.52537C26.926 8.52553 26.926 8.5257 26.926 8.52586C26.926 8.52602 26.926 8.52619 26.926 8.52635C26.926 8.52652 26.926 8.52668 26.926 8.52684C26.926 8.52701 26.926 8.52717 26.926 8.52734C26.926 8.5275 26.926 8.52766 26.926 8.52783C26.926 8.52799 26.926 8.52816 26.926 8.52832C26.926 8.52848 26.926 8.52865 26.926 8.52881C26.926 8.52898 26.926 8.52914 26.926 8.5293C26.926 8.52947 26.926 8.52963 26.926 8.5298C26.926 8.52996 26.926 8.53012 26.926 8.53029C26.926 8.53045 26.926 8.53062 26.926 8.53078C26.926 8.53095 26.926 8.53111 26.926 8.53127C26.926 8.53144 26.926 8.5316 26.926 8.53177C26.926 8.53193 26.926 8.53209 26.926 8.53226C26.926 8.53242 26.926 8.53259 26.926 8.53275C26.926 8.53291 26.926 8.53308 26.926 8.53324C26.926 8.53341 26.926 8.53357 26.926 8.53373C26.926 8.5339 26.926 8.53406 26.926 8.53423C26.926 8.53439 26.926 8.53455 26.926 8.53472C26.926 8.53488 26.926 8.53505 26.926 8.53521C26.926 8.53537 26.926 8.53554 26.926 8.5357C26.926 8.53587 26.926 8.53603 26.926 8.5362C26.926 8.53636 26.926 8.53652 26.926 8.53669C26.926 8.53685 26.926 8.53702 26.926 8.53718C26.926 8.53734 26.926 8.53751 26.926 8.53767C26.926 8.53784 26.926 8.538 26.926 8.53816C26.926 8.53833 26.926 8.53849 26.926 8.53866C26.926 8.53882 26.926 8.53898 26.926 8.53915C26.926 8.53931 26.926 8.53948 26.926 8.53964C26.926 8.5398 26.926 8.53997 26.926 8.54013C26.926 8.5403 26.926 8.54046 26.926 8.54062C26.926 8.54079 26.926 8.54095 26.926 8.54112C26.926 8.54128 26.926 8.54145 26.926 8.54161C26.926 8.54177 26.926 8.54194 26.926 8.5421C26.926 8.54227 26.926 8.54243 26.926 8.54259C26.926 8.54276 26.926 8.54292 26.926 8.54309C26.926 8.54325 26.926 8.54341 26.926 8.54358C26.926 8.54374 26.926 8.54391 26.926 8.54407C26.926 8.54423 26.926 8.5444 26.926 8.54456C26.926 8.54473 26.926 8.54489 26.926 8.54505C26.926 8.54522 26.926 8.54538 26.926 8.54555C26.926 8.54571 26.926 8.54588 26.926 8.54604C26.926 8.5462 26.926 8.54637 26.926 8.54653C26.926 8.5467 26.926 8.54686 26.926 8.54702C26.926 8.54719 26.926 8.54735 26.926 8.54752C26.926 8.54768 26.926 8.54784 26.926 8.54801C26.926 8.54817 26.926 8.54834 26.926 8.5485C26.926 8.54866 26.926 8.54883 26.926 8.54899C26.926 8.54916 26.926 8.54932 26.926 8.54948C26.926 8.54965 26.926 8.54981 26.926 8.54998C26.926 8.55014 26.926 8.5503 26.926 8.55047C26.926 8.55063 26.926 8.5508 26.926 8.55096C26.926 8.55113 26.926 8.55129 26.926 8.55145C26.926 8.55162 26.926 8.55178 26.926 8.55195C26.926 8.55211 26.926 8.55227 26.926 8.55244C26.926 8.5526 26.926 8.55277 26.926 8.55293C26.926 8.55309 26.926 8.55326 26.926 8.55342C26.926 8.55359 26.926 8.55375 26.926 8.55391C26.926 8.55408 26.926 8.55424 26.926 8.55441C26.926 8.55457 26.926 8.55473 26.926 8.5549C26.926 8.55506 26.926 8.55523 26.926 8.55539C26.926 8.55555 26.926 8.55572 26.926 8.55588C26.926 8.55605 26.926 8.55621 26.926 8.55638C26.926 8.55654 26.926 8.5567 26.926 8.55687C26.926 8.55703 26.926 8.5572 26.926 8.55736C26.926 8.55752 26.926 8.55769 26.926 8.55785C26.926 8.55802 26.926 8.55818 26.926 8.55834C26.926 8.55851 26.926 8.55867 26.926 8.55884C26.926 8.559 26.926 8.55916 26.926 8.55933C26.926 8.55949 26.926 8.55966 26.926 8.55982C26.926 8.55998 26.926 8.56015 26.926 8.56031C26.926 8.56048 26.926 8.56064 26.926 8.5608C26.926 8.56097 26.926 8.56113 26.926 8.5613C26.926 8.56146 26.926 8.56163 26.926 8.56179C26.926 8.56195 26.926 8.56212 26.926 8.56228C26.926 8.56245 26.926 8.56261 26.926 8.56277C26.926 8.56294 26.926 8.5631 26.926 8.56327C26.926 8.56343 26.926 8.56359 26.926 8.56376C26.926 8.56392 26.926 8.56409 26.926 8.56425C26.926 8.56441 26.926 8.56458 26.926 8.56474C26.926 8.56491 26.926 8.56507 26.926 8.56523C26.926 8.5654 26.926 8.56556 26.926 8.56573C26.926 8.56589 26.926 8.56605 26.926 8.56622C26.926 8.56638 26.926 8.56655 26.926 8.56671C26.926 8.56687 26.926 8.56704 26.926 8.5672C26.926 8.56737 26.926 8.56753 26.926 8.5677C26.926 8.56786 26.926 8.56802 26.926 8.56819C26.926 8.56835 26.926 8.56852 26.926 8.56868C26.926 8.56884 26.926 8.56901 26.926 8.56917C26.926 8.56934 26.926 8.5695 26.926 8.56966C26.926 8.56983 26.926 8.56999 26.926 8.57016C26.926 8.57032 26.926 8.57048 26.926 8.57065C26.926 8.57081 26.926 8.57098 26.926 8.57114C26.926 8.5713 26.926 8.57147 26.926 8.57163C26.926 8.5718 26.926 8.57196 26.926 8.57212C26.926 8.57229 26.926 8.57245 26.926 8.57262C26.926 8.57278 26.926 8.57295 26.926 8.57311C26.926 8.57327 26.926 8.57344 26.926 8.5736C26.926 8.57377 26.926 8.57393 26.926 8.57409C26.926 8.57426 26.926 8.57442 26.926 8.57459C26.926 8.57475 26.926 8.57491 26.926 8.57508C26.926 8.57524 26.926 8.57541 26.926 8.57557C26.926 8.57573 26.926 8.5759 26.926 8.57606C26.926 8.57623 26.926 8.57639 26.926 8.57655C26.926 8.57672 26.926 8.57688 26.926 8.57705C26.926 8.57721 26.926 8.57737 26.926 8.57754C26.926 8.5777 26.926 8.57787 26.926 8.57803C26.926 8.5782 26.926 8.57836 26.926 8.57852C26.926 8.57869 26.926 8.57885 26.926 8.57902C26.926 8.57918 26.926 8.57934 26.926 8.57951C26.926 8.57967 26.926 8.57984 26.926 8.58C26.926 8.58016 26.926 8.58033 26.926 8.58049C26.926 8.58066 26.926 8.58082 26.926 8.58098C26.926 8.58115 26.926 8.58131 26.926 8.58148C26.926 8.58164 26.926 8.5818 26.926 8.58197C26.926 8.58213 26.926 8.5823 26.926 8.58246C26.926 8.58262 26.926 8.58279 26.926 8.58295C26.926 8.58312 26.926 8.58328 26.926 8.58345C26.926 8.58361 26.926 8.58377 26.926 8.58394C26.926 8.5841 26.926 8.58427 26.926 8.58443C26.926 8.58459 26.926 8.58476 26.926 8.58492C26.926 8.58509 26.926 8.58525 26.926 8.58541C26.926 8.58558 26.926 8.58574 26.926 8.58591C26.926 8.58607 26.926 8.58623 26.926 8.5864C26.926 8.58656 26.926 8.58673 26.926 8.58689C26.926 8.58705 26.926 8.58722 26.926 8.58738C26.926 8.58755 26.926 8.58771 26.926 8.58787C26.926 8.58804 26.926 8.5882 26.926 8.58837C26.926 8.58853 26.926 8.5887 26.926 8.58886C26.926 8.58902 26.926 8.58919 26.926 8.58935C26.926 8.58952 26.926 8.58968 26.926 8.58984C26.926 8.59001 26.926 8.59017 26.926 8.59034C26.926 8.5905 26.926 8.59066 26.926 8.59083C26.926 8.59099 26.926 8.59116 26.926 8.59132C26.926 8.59148 26.926 8.59165 26.926 8.59181C26.926 8.59198 26.926 8.59214 26.926 8.5923C26.926 8.59247 26.926 8.59263 26.926 8.5928C26.926 8.59296 26.926 8.59312 26.926 8.59329C26.926 8.59345 26.926 8.59362 26.926 8.59378C26.926 8.59395 26.926 8.59411 26.926 8.59427C26.926 8.59444 26.926 8.5946 26.926 8.59477C26.926 8.59493 26.926 8.59509 26.926 8.59526C26.926 8.59542 26.926 8.59559 26.926 8.59575C26.926 8.59591 26.926 8.59608 26.926 8.59624C26.926 8.59641 26.926 8.59657 26.926 8.59673C26.926 8.5969 26.926 8.59706 26.926 8.59723C26.926 8.59739 26.926 8.59755 26.926 8.59772C26.926 8.59788 26.926 8.59805 26.926 8.59821C26.926 8.59837 26.926 8.59854 26.926 8.5987C26.926 8.59887 26.926 8.59903 26.926 8.5992C26.926 8.59936 26.926 8.59952 26.926 8.59969C26.926 8.59985 26.926 8.60002 26.926 8.60018C26.926 8.60034 26.926 8.60051 26.926 8.60067C26.926 8.60084 26.926 8.601 26.926 8.60116C26.926 8.60133 26.926 8.60149 26.926 8.60166C26.926 8.60182 26.926 8.60198 26.926 8.60215C26.926 8.60231 26.926 8.60248 26.926 8.60264C26.926 8.6028 26.926 8.60297 26.926 8.60313C26.926 8.6033 26.926 8.60346 26.926 8.60362C26.926 8.60379 26.926 8.60395 26.926 8.60412C26.926 8.60428 26.926 8.60444 26.926 8.60461C26.926 8.60477 26.926 8.60494 26.926 8.6051C26.926 8.60527 26.926 8.60543 26.926 8.60559C26.926 8.60576 26.926 8.60592 26.926 8.60609C26.926 8.60625 26.926 8.60641 26.926 8.60658C26.926 8.60674 26.926 8.60691 26.926 8.60707C26.926 8.60723 26.926 8.6074 26.926 8.60756C26.926 8.60773 26.926 8.60789 26.926 8.60805C26.926 8.60822 26.926 8.60838 26.926 8.60855C26.926 8.60871 26.926 8.60887 26.926 8.60904C26.926 8.6092 26.926 8.60937 26.926 8.60953C26.926 8.6097 26.926 8.60986 26.926 8.61002C26.926 8.61019 26.926 8.61035 26.926 8.61052C26.926 8.61068 26.926 8.61084 26.926 8.61101C26.926 8.61117 26.926 8.61134 26.926 8.6115C26.926 8.61166 26.926 8.61183 26.926 8.61199C26.926 8.61216 26.926 8.61232 26.926 8.61248C26.926 8.61265 26.926 8.61281 26.926 8.61298C26.926 8.61314 26.926 8.6133 26.926 8.61347C26.926 8.61363 26.926 8.6138 26.926 8.61396C26.926 8.61412 26.926 8.61429 26.926 8.61445C26.926 8.61462 26.926 8.61478 26.926 8.61495C26.926 8.61511 26.926 8.61527 26.926 8.61544C26.926 8.6156 26.926 8.61577 26.926 8.61593C26.926 8.61609 26.926 8.61626 26.926 8.61642C26.926 8.61659 26.926 8.61675 26.926 8.61691C26.926 8.61708 26.926 8.61724 26.926 8.61741C26.926 8.61757 26.926 8.61773 26.926 8.6179C26.926 8.61806 26.926 8.61823 26.926 8.61839C26.926 8.61855 26.926 8.61872 26.926 8.61888C26.926 8.61905 26.926 8.61921 26.926 8.61937C26.926 8.61954 26.926 8.6197 26.926 8.61987C26.926 8.62003 26.926 8.6202 26.926 8.62036C26.926 8.62052 26.926 8.62069 26.926 8.62085C26.926 8.62102 26.926 8.62118 26.926 8.62134C26.926 8.62151 26.926 8.62167 26.926 8.62184C26.926 8.622 26.926 8.62216 26.926 8.62233C26.926 8.62249 26.926 8.62266 26.926 8.62282C26.926 8.62298 26.926 8.62315 26.926 8.62331C26.926 8.62348 26.926 8.62364 26.926 8.6238C26.926 8.62397 26.926 8.62413 26.926 8.6243C26.926 8.62446 26.926 8.62462 26.926 8.62479C26.926 8.62495 26.926 8.62512 26.926 8.62528C26.926 8.62545 26.926 8.62561 26.926 8.62577C26.926 8.62594 26.926 8.6261 26.926 8.62627C26.926 8.62643 26.926 8.62659 26.926 8.62676C26.926 8.62692 26.926 8.62709 26.926 8.62725C26.926 8.62741 26.926 8.62758 26.926 8.62774C26.926 8.62791 26.926 8.62807 26.926 8.62823C26.926 8.6284 26.926 8.62856 26.926 8.62873C26.926 8.62889 26.926 8.62905 26.926 8.62922C26.926 8.62938 26.926 8.62955 26.926 8.62971C26.926 8.62987 26.926 8.63004 26.926 8.6302C26.926 8.63037 26.926 8.63053 26.926 8.6307C26.926 8.63086 26.926 8.63102 26.926 8.63119C26.926 8.63135 26.926 8.63152 26.926 8.63168C26.926 8.63184 26.926 8.63201 26.926 8.63217C26.926 8.63234 26.926 8.6325 26.926 8.63266C26.926 8.63283 26.926 8.63299 26.926 8.63316C26.926 8.63332 26.926 8.63348 26.926 8.63365C26.926 8.63381 26.926 8.63398 26.926 8.63414C26.926 8.6343 26.926 8.63447 26.926 8.63463C26.926 8.6348 26.926 8.63496 26.926 8.63513C26.926 8.63529 26.926 8.63545 26.926 8.63562C26.926 8.63578 26.926 8.63595 26.926 8.63611C26.926 8.63627 26.926 8.63644 26.926 8.6366C26.926 8.63677 26.926 8.63693 26.926 8.63709C26.926 8.63726 26.926 8.63742 26.926 8.63759C26.926 8.63775 26.926 8.63791 26.926 8.63808C26.926 8.63824 26.926 8.63841 26.926 8.63857C26.926 8.63873 26.926 8.6389 26.926 8.63906C26.926 8.63923 26.926 8.63939 26.926 8.63955C26.926 8.63972 26.926 8.63988 26.926 8.64005C26.926 8.64021 26.926 8.64038 26.926 8.64054C26.926 8.6407 26.926 8.64087 26.926 8.64103C26.926 8.6412 26.926 8.64136 26.926 8.64152C26.926 8.64169 26.926 8.64185 26.926 8.64202C26.926 8.64218 26.926 8.64234 26.926 8.64251C26.926 8.64267 26.926 8.64284 26.926 8.643C26.926 8.64316 26.926 8.64333 26.926 8.64349C26.926 8.64366 26.926 8.64382 26.926 8.64398C26.926 8.64415 26.926 8.64431 26.926 8.64448C26.926 8.64464 26.926 8.6448 26.926 8.64497C26.926 8.64513 26.926 8.6453 26.926 8.64546C26.926 8.64563 26.926 8.64579 26.926 8.64595C26.926 8.64612 26.926 8.64628 26.926 8.64645C26.926 8.64661 26.926 8.64677 26.926 8.64694C26.926 8.6471 26.926 8.64727 26.926 8.64743C26.926 8.64759 26.926 8.64776 26.926 8.64792C26.926 8.64809 26.926 8.64825 26.926 8.64841C26.926 8.64858 26.926 8.64874 26.926 8.64891C26.926 8.64907 26.926 8.64923 26.926 8.6494C26.926 8.64956 26.926 8.64973 26.926 8.64989C26.926 8.65005 26.926 8.65022 26.926 8.65038C26.926 8.65055 26.926 8.65071 26.926 8.65088C26.926 8.65104 26.926 8.6512 26.926 8.65137C26.926 8.65153 26.926 8.6517 26.926 8.65186C26.926 8.65202 26.926 8.65219 26.926 8.65235C26.926 8.65252 26.926 8.65268 26.926 8.65284C26.926 8.65301 26.926 8.65317 26.926 8.65334C26.926 8.6535 26.926 8.65366 26.926 8.65383C26.926 8.65399 26.926 8.65416 26.926 8.65432C26.926 8.65448 26.926 8.65465 26.926 8.65481C26.926 8.65498 26.926 8.65514 26.926 8.6553C26.926 8.65547 26.926 8.65563 26.926 8.6558C26.926 8.65596 26.926 8.65613 26.926 8.65629C26.926 8.65645 26.926 8.65662 26.926 8.65678C26.926 8.65695 26.926 8.65711 26.926 8.65727C26.926 8.65744 26.926 8.6576 26.926 8.65777C26.926 8.65793 26.926 8.65809 26.926 8.65826C26.926 8.65842 26.926 8.65859 26.926 8.65875C26.926 8.65891 26.926 8.65908 26.926 8.65924C26.926 8.65941 26.926 8.65957 26.926 8.65973C26.926 8.6599 26.926 8.66006 26.926 8.66023C26.926 8.66039 26.926 8.66055 26.926 8.66072C26.926 8.66088 26.926 8.66105 26.926 8.66121C26.926 8.66138 26.926 8.66154 26.926 8.6617C26.926 8.66187 26.926 8.66203 26.926 8.6622C26.926 8.66236 26.926 8.66252 26.926 8.66269C26.926 8.66285 26.926 8.66302 26.926 8.66318C26.926 8.66334 26.926 8.66351 26.926 8.66367C26.926 8.66384 26.926 8.664 26.926 8.66416C26.926 8.66433 26.926 8.66449 26.926 8.66466C26.926 8.66482 26.926 8.66498 26.926 8.66515C26.926 8.66531 26.926 8.66548 26.926 8.66564C26.926 8.6658 26.926 8.66597 26.926 8.66613C26.926 8.6663 26.926 8.66646 26.926 8.66663C26.926 8.66679 26.926 8.66695 26.926 8.66712C26.926 8.66728 26.926 8.66745 26.926 8.66761C26.926 8.66777 26.926 8.66794 26.926 8.6681C26.926 8.66827 26.926 8.66843 26.926 8.66859C26.926 8.66876 26.926 8.66892 26.926 8.66909C26.926 8.66925 26.926 8.66941 26.926 8.66958C26.926 8.66974 26.926 8.66991 26.926 8.67007C26.926 8.67023 26.926 8.6704 26.926 8.67056C26.926 8.67073 26.926 8.67089 26.926 8.67105C26.926 8.67122 26.926 8.67138 26.926 8.67155C26.926 8.67171 26.926 8.67188 26.926 8.67204C26.926 8.6722 26.926 8.67237 26.926 8.67253C26.926 8.6727 26.926 8.67286 26.926 8.67302C26.926 8.67319 26.926 8.67335 26.926 8.67352C26.926 8.67368 26.926 8.67384 26.926 8.67401C26.926 8.67417 26.926 8.67434 26.926 8.6745C26.926 8.67466 26.926 8.67483 26.926 8.67499C26.926 8.67516 26.926 8.67532 26.926 8.67548C26.926 8.67565 26.926 8.67581 26.926 8.67598C26.926 8.67614 26.926 8.6763 26.926 8.67647C26.926 8.67663 26.926 8.6768 26.926 8.67696C26.926 8.67712 26.926 8.67729 26.926 8.67745C26.926 8.67762 26.926 8.67778 26.926 8.67795C26.926 8.67811 26.926 8.67827 26.926 8.67844C26.926 8.6786 26.926 8.67877 26.926 8.67893C26.926 8.67909 26.926 8.67926 26.926 8.67942C26.926 8.67959 26.926 8.67975 26.926 8.67991C26.926 8.68008 26.926 8.68024 26.926 8.68041C26.926 8.68057 26.926 8.68073 26.926 8.6809C26.926 8.68106 26.926 8.68123 26.926 8.68139C26.926 8.68155 26.926 8.68172 26.926 8.68188C26.926 8.68205 26.926 8.68221 26.926 8.68237C26.926 8.68254 26.926 8.6827 26.926 8.68287C26.926 8.68303 26.926 8.6832 26.926 8.68336C26.926 8.68352 26.926 8.68369 26.926 8.68385C26.926 8.68402 26.926 8.68418 26.926 8.68434C26.926 8.68451 26.926 8.68467 26.926 8.68484C26.926 8.685 26.926 8.68516 26.926 8.68533C26.926 8.68549 26.926 8.68566 26.926 8.68582C26.926 8.68598 26.926 8.68615 26.926 8.68631C26.926 8.68648 26.926 8.68664 26.926 8.6868C26.926 8.68697 26.926 8.68713 26.926 8.6873C26.926 8.68746 26.926 8.68762 26.926 8.68779C26.926 8.68795 26.926 8.68812 26.926 8.68828C26.926 8.68845 26.926 8.68861 26.926 8.68877C26.926 8.68894 26.926 8.6891 26.926 8.68927C26.926 8.68943 26.926 8.68959 26.926 8.68976C26.926 8.68992 26.926 8.69009 26.926 8.69025C26.926 8.69041 26.926 8.69058 26.926 8.69074C26.926 8.69091 26.926 8.69107 26.926 8.69123C26.926 8.6914 26.926 8.69156 26.926 8.69173H29.426C29.426 8.69156 29.426 8.6914 29.426 8.69123C29.426 8.69107 29.426 8.69091 29.426 8.69074C29.426 8.69058 29.426 8.69041 29.426 8.69025C29.426 8.69009 29.426 8.68992 29.426 8.68976C29.426 8.68959 29.426 8.68943 29.426 8.68927C29.426 8.6891 29.426 8.68894 29.426 8.68877C29.426 8.68861 29.426 8.68845 29.426 8.68828C29.426 8.68812 29.426 8.68795 29.426 8.68779C29.426 8.68762 29.426 8.68746 29.426 8.6873C29.426 8.68713 29.426 8.68697 29.426 8.6868C29.426 8.68664 29.426 8.68648 29.426 8.68631C29.426 8.68615 29.426 8.68598 29.426 8.68582C29.426 8.68566 29.426 8.68549 29.426 8.68533C29.426 8.68516 29.426 8.685 29.426 8.68484C29.426 8.68467 29.426 8.68451 29.426 8.68434C29.426 8.68418 29.426 8.68402 29.426 8.68385C29.426 8.68369 29.426 8.68352 29.426 8.68336C29.426 8.6832 29.426 8.68303 29.426 8.68287C29.426 8.6827 29.426 8.68254 29.426 8.68237C29.426 8.68221 29.426 8.68205 29.426 8.68188C29.426 8.68172 29.426 8.68155 29.426 8.68139C29.426 8.68123 29.426 8.68106 29.426 8.6809C29.426 8.68073 29.426 8.68057 29.426 8.68041C29.426 8.68024 29.426 8.68008 29.426 8.67991C29.426 8.67975 29.426 8.67959 29.426 8.67942C29.426 8.67926 29.426 8.67909 29.426 8.67893C29.426 8.67877 29.426 8.6786 29.426 8.67844C29.426 8.67827 29.426 8.67811 29.426 8.67795C29.426 8.67778 29.426 8.67762 29.426 8.67745C29.426 8.67729 29.426 8.67712 29.426 8.67696C29.426 8.6768 29.426 8.67663 29.426 8.67647C29.426 8.6763 29.426 8.67614 29.426 8.67598C29.426 8.67581 29.426 8.67565 29.426 8.67548C29.426 8.67532 29.426 8.67516 29.426 8.67499C29.426 8.67483 29.426 8.67466 29.426 8.6745C29.426 8.67434 29.426 8.67417 29.426 8.67401C29.426 8.67384 29.426 8.67368 29.426 8.67352C29.426 8.67335 29.426 8.67319 29.426 8.67302C29.426 8.67286 29.426 8.6727 29.426 8.67253C29.426 8.67237 29.426 8.6722 29.426 8.67204C29.426 8.67188 29.426 8.67171 29.426 8.67155C29.426 8.67138 29.426 8.67122 29.426 8.67105C29.426 8.67089 29.426 8.67073 29.426 8.67056C29.426 8.6704 29.426 8.67023 29.426 8.67007C29.426 8.66991 29.426 8.66974 29.426 8.66958C29.426 8.66941 29.426 8.66925 29.426 8.66909C29.426 8.66892 29.426 8.66876 29.426 8.66859C29.426 8.66843 29.426 8.66827 29.426 8.6681C29.426 8.66794 29.426 8.66777 29.426 8.66761C29.426 8.66745 29.426 8.66728 29.426 8.66712C29.426 8.66695 29.426 8.66679 29.426 8.66663C29.426 8.66646 29.426 8.6663 29.426 8.66613C29.426 8.66597 29.426 8.6658 29.426 8.66564C29.426 8.66548 29.426 8.66531 29.426 8.66515C29.426 8.66498 29.426 8.66482 29.426 8.66466C29.426 8.66449 29.426 8.66433 29.426 8.66416C29.426 8.664 29.426 8.66384 29.426 8.66367C29.426 8.66351 29.426 8.66334 29.426 8.66318C29.426 8.66302 29.426 8.66285 29.426 8.66269C29.426 8.66252 29.426 8.66236 29.426 8.6622C29.426 8.66203 29.426 8.66187 29.426 8.6617C29.426 8.66154 29.426 8.66138 29.426 8.66121C29.426 8.66105 29.426 8.66088 29.426 8.66072C29.426 8.66055 29.426 8.66039 29.426 8.66023C29.426 8.66006 29.426 8.6599 29.426 8.65973C29.426 8.65957 29.426 8.65941 29.426 8.65924C29.426 8.65908 29.426 8.65891 29.426 8.65875C29.426 8.65859 29.426 8.65842 29.426 8.65826C29.426 8.65809 29.426 8.65793 29.426 8.65777C29.426 8.6576 29.426 8.65744 29.426 8.65727C29.426 8.65711 29.426 8.65695 29.426 8.65678C29.426 8.65662 29.426 8.65645 29.426 8.65629C29.426 8.65613 29.426 8.65596 29.426 8.6558C29.426 8.65563 29.426 8.65547 29.426 8.6553C29.426 8.65514 29.426 8.65498 29.426 8.65481C29.426 8.65465 29.426 8.65448 29.426 8.65432C29.426 8.65416 29.426 8.65399 29.426 8.65383C29.426 8.65366 29.426 8.6535 29.426 8.65334C29.426 8.65317 29.426 8.65301 29.426 8.65284C29.426 8.65268 29.426 8.65252 29.426 8.65235C29.426 8.65219 29.426 8.65202 29.426 8.65186C29.426 8.6517 29.426 8.65153 29.426 8.65137C29.426 8.6512 29.426 8.65104 29.426 8.65088C29.426 8.65071 29.426 8.65055 29.426 8.65038C29.426 8.65022 29.426 8.65005 29.426 8.64989C29.426 8.64973 29.426 8.64956 29.426 8.6494C29.426 8.64923 29.426 8.64907 29.426 8.64891C29.426 8.64874 29.426 8.64858 29.426 8.64841C29.426 8.64825 29.426 8.64809 29.426 8.64792C29.426 8.64776 29.426 8.64759 29.426 8.64743C29.426 8.64727 29.426 8.6471 29.426 8.64694C29.426 8.64677 29.426 8.64661 29.426 8.64645C29.426 8.64628 29.426 8.64612 29.426 8.64595C29.426 8.64579 29.426 8.64563 29.426 8.64546C29.426 8.6453 29.426 8.64513 29.426 8.64497C29.426 8.6448 29.426 8.64464 29.426 8.64448C29.426 8.64431 29.426 8.64415 29.426 8.64398C29.426 8.64382 29.426 8.64366 29.426 8.64349C29.426 8.64333 29.426 8.64316 29.426 8.643C29.426 8.64284 29.426 8.64267 29.426 8.64251C29.426 8.64234 29.426 8.64218 29.426 8.64202C29.426 8.64185 29.426 8.64169 29.426 8.64152C29.426 8.64136 29.426 8.6412 29.426 8.64103C29.426 8.64087 29.426 8.6407 29.426 8.64054C29.426 8.64038 29.426 8.64021 29.426 8.64005C29.426 8.63988 29.426 8.63972 29.426 8.63955C29.426 8.63939 29.426 8.63923 29.426 8.63906C29.426 8.6389 29.426 8.63873 29.426 8.63857C29.426 8.63841 29.426 8.63824 29.426 8.63808C29.426 8.63791 29.426 8.63775 29.426 8.63759C29.426 8.63742 29.426 8.63726 29.426 8.63709C29.426 8.63693 29.426 8.63677 29.426 8.6366C29.426 8.63644 29.426 8.63627 29.426 8.63611C29.426 8.63595 29.426 8.63578 29.426 8.63562C29.426 8.63545 29.426 8.63529 29.426 8.63513C29.426 8.63496 29.426 8.6348 29.426 8.63463C29.426 8.63447 29.426 8.6343 29.426 8.63414C29.426 8.63398 29.426 8.63381 29.426 8.63365C29.426 8.63348 29.426 8.63332 29.426 8.63316C29.426 8.63299 29.426 8.63283 29.426 8.63266C29.426 8.6325 29.426 8.63234 29.426 8.63217C29.426 8.63201 29.426 8.63184 29.426 8.63168C29.426 8.63152 29.426 8.63135 29.426 8.63119C29.426 8.63102 29.426 8.63086 29.426 8.6307C29.426 8.63053 29.426 8.63037 29.426 8.6302C29.426 8.63004 29.426 8.62987 29.426 8.62971C29.426 8.62955 29.426 8.62938 29.426 8.62922C29.426 8.62905 29.426 8.62889 29.426 8.62873C29.426 8.62856 29.426 8.6284 29.426 8.62823C29.426 8.62807 29.426 8.62791 29.426 8.62774C29.426 8.62758 29.426 8.62741 29.426 8.62725C29.426 8.62709 29.426 8.62692 29.426 8.62676C29.426 8.62659 29.426 8.62643 29.426 8.62627C29.426 8.6261 29.426 8.62594 29.426 8.62577C29.426 8.62561 29.426 8.62545 29.426 8.62528C29.426 8.62512 29.426 8.62495 29.426 8.62479C29.426 8.62462 29.426 8.62446 29.426 8.6243C29.426 8.62413 29.426 8.62397 29.426 8.6238C29.426 8.62364 29.426 8.62348 29.426 8.62331C29.426 8.62315 29.426 8.62298 29.426 8.62282C29.426 8.62266 29.426 8.62249 29.426 8.62233C29.426 8.62216 29.426 8.622 29.426 8.62184C29.426 8.62167 29.426 8.62151 29.426 8.62134C29.426 8.62118 29.426 8.62102 29.426 8.62085C29.426 8.62069 29.426 8.62052 29.426 8.62036C29.426 8.6202 29.426 8.62003 29.426 8.61987C29.426 8.6197 29.426 8.61954 29.426 8.61937C29.426 8.61921 29.426 8.61905 29.426 8.61888C29.426 8.61872 29.426 8.61855 29.426 8.61839C29.426 8.61823 29.426 8.61806 29.426 8.6179C29.426 8.61773 29.426 8.61757 29.426 8.61741C29.426 8.61724 29.426 8.61708 29.426 8.61691C29.426 8.61675 29.426 8.61659 29.426 8.61642C29.426 8.61626 29.426 8.61609 29.426 8.61593C29.426 8.61577 29.426 8.6156 29.426 8.61544C29.426 8.61527 29.426 8.61511 29.426 8.61495C29.426 8.61478 29.426 8.61462 29.426 8.61445C29.426 8.61429 29.426 8.61412 29.426 8.61396C29.426 8.6138 29.426 8.61363 29.426 8.61347C29.426 8.6133 29.426 8.61314 29.426 8.61298C29.426 8.61281 29.426 8.61265 29.426 8.61248C29.426 8.61232 29.426 8.61216 29.426 8.61199C29.426 8.61183 29.426 8.61166 29.426 8.6115C29.426 8.61134 29.426 8.61117 29.426 8.61101C29.426 8.61084 29.426 8.61068 29.426 8.61052C29.426 8.61035 29.426 8.61019 29.426 8.61002C29.426 8.60986 29.426 8.6097 29.426 8.60953C29.426 8.60937 29.426 8.6092 29.426 8.60904C29.426 8.60887 29.426 8.60871 29.426 8.60855C29.426 8.60838 29.426 8.60822 29.426 8.60805C29.426 8.60789 29.426 8.60773 29.426 8.60756C29.426 8.6074 29.426 8.60723 29.426 8.60707C29.426 8.60691 29.426 8.60674 29.426 8.60658C29.426 8.60641 29.426 8.60625 29.426 8.60609C29.426 8.60592 29.426 8.60576 29.426 8.60559C29.426 8.60543 29.426 8.60527 29.426 8.6051C29.426 8.60494 29.426 8.60477 29.426 8.60461C29.426 8.60444 29.426 8.60428 29.426 8.60412C29.426 8.60395 29.426 8.60379 29.426 8.60362C29.426 8.60346 29.426 8.6033 29.426 8.60313C29.426 8.60297 29.426 8.6028 29.426 8.60264C29.426 8.60248 29.426 8.60231 29.426 8.60215C29.426 8.60198 29.426 8.60182 29.426 8.60166C29.426 8.60149 29.426 8.60133 29.426 8.60116C29.426 8.601 29.426 8.60084 29.426 8.60067C29.426 8.60051 29.426 8.60034 29.426 8.60018C29.426 8.60002 29.426 8.59985 29.426 8.59969C29.426 8.59952 29.426 8.59936 29.426 8.5992C29.426 8.59903 29.426 8.59887 29.426 8.5987C29.426 8.59854 29.426 8.59837 29.426 8.59821C29.426 8.59805 29.426 8.59788 29.426 8.59772C29.426 8.59755 29.426 8.59739 29.426 8.59723C29.426 8.59706 29.426 8.5969 29.426 8.59673C29.426 8.59657 29.426 8.59641 29.426 8.59624C29.426 8.59608 29.426 8.59591 29.426 8.59575C29.426 8.59559 29.426 8.59542 29.426 8.59526C29.426 8.59509 29.426 8.59493 29.426 8.59477C29.426 8.5946 29.426 8.59444 29.426 8.59427C29.426 8.59411 29.426 8.59395 29.426 8.59378C29.426 8.59362 29.426 8.59345 29.426 8.59329C29.426 8.59312 29.426 8.59296 29.426 8.5928C29.426 8.59263 29.426 8.59247 29.426 8.5923C29.426 8.59214 29.426 8.59198 29.426 8.59181C29.426 8.59165 29.426 8.59148 29.426 8.59132C29.426 8.59116 29.426 8.59099 29.426 8.59083C29.426 8.59066 29.426 8.5905 29.426 8.59034C29.426 8.59017 29.426 8.59001 29.426 8.58984C29.426 8.58968 29.426 8.58952 29.426 8.58935C29.426 8.58919 29.426 8.58902 29.426 8.58886C29.426 8.5887 29.426 8.58853 29.426 8.58837C29.426 8.5882 29.426 8.58804 29.426 8.58787C29.426 8.58771 29.426 8.58755 29.426 8.58738C29.426 8.58722 29.426 8.58705 29.426 8.58689C29.426 8.58673 29.426 8.58656 29.426 8.5864C29.426 8.58623 29.426 8.58607 29.426 8.58591C29.426 8.58574 29.426 8.58558 29.426 8.58541C29.426 8.58525 29.426 8.58509 29.426 8.58492C29.426 8.58476 29.426 8.58459 29.426 8.58443C29.426 8.58427 29.426 8.5841 29.426 8.58394C29.426 8.58377 29.426 8.58361 29.426 8.58345C29.426 8.58328 29.426 8.58312 29.426 8.58295C29.426 8.58279 29.426 8.58262 29.426 8.58246C29.426 8.5823 29.426 8.58213 29.426 8.58197C29.426 8.5818 29.426 8.58164 29.426 8.58148C29.426 8.58131 29.426 8.58115 29.426 8.58098C29.426 8.58082 29.426 8.58066 29.426 8.58049C29.426 8.58033 29.426 8.58016 29.426 8.58C29.426 8.57984 29.426 8.57967 29.426 8.57951C29.426 8.57934 29.426 8.57918 29.426 8.57902C29.426 8.57885 29.426 8.57869 29.426 8.57852C29.426 8.57836 29.426 8.5782 29.426 8.57803C29.426 8.57787 29.426 8.5777 29.426 8.57754C29.426 8.57737 29.426 8.57721 29.426 8.57705C29.426 8.57688 29.426 8.57672 29.426 8.57655C29.426 8.57639 29.426 8.57623 29.426 8.57606C29.426 8.5759 29.426 8.57573 29.426 8.57557C29.426 8.57541 29.426 8.57524 29.426 8.57508C29.426 8.57491 29.426 8.57475 29.426 8.57459C29.426 8.57442 29.426 8.57426 29.426 8.57409C29.426 8.57393 29.426 8.57377 29.426 8.5736C29.426 8.57344 29.426 8.57327 29.426 8.57311C29.426 8.57295 29.426 8.57278 29.426 8.57262C29.426 8.57245 29.426 8.57229 29.426 8.57212C29.426 8.57196 29.426 8.5718 29.426 8.57163C29.426 8.57147 29.426 8.5713 29.426 8.57114C29.426 8.57098 29.426 8.57081 29.426 8.57065C29.426 8.57048 29.426 8.57032 29.426 8.57016C29.426 8.56999 29.426 8.56983 29.426 8.56966C29.426 8.5695 29.426 8.56934 29.426 8.56917C29.426 8.56901 29.426 8.56884 29.426 8.56868C29.426 8.56852 29.426 8.56835 29.426 8.56819C29.426 8.56802 29.426 8.56786 29.426 8.5677C29.426 8.56753 29.426 8.56737 29.426 8.5672C29.426 8.56704 29.426 8.56687 29.426 8.56671C29.426 8.56655 29.426 8.56638 29.426 8.56622C29.426 8.56605 29.426 8.56589 29.426 8.56573C29.426 8.56556 29.426 8.5654 29.426 8.56523C29.426 8.56507 29.426 8.56491 29.426 8.56474C29.426 8.56458 29.426 8.56441 29.426 8.56425C29.426 8.56409 29.426 8.56392 29.426 8.56376C29.426 8.56359 29.426 8.56343 29.426 8.56327C29.426 8.5631 29.426 8.56294 29.426 8.56277C29.426 8.56261 29.426 8.56245 29.426 8.56228C29.426 8.56212 29.426 8.56195 29.426 8.56179C29.426 8.56163 29.426 8.56146 29.426 8.5613C29.426 8.56113 29.426 8.56097 29.426 8.5608C29.426 8.56064 29.426 8.56048 29.426 8.56031C29.426 8.56015 29.426 8.55998 29.426 8.55982C29.426 8.55966 29.426 8.55949 29.426 8.55933C29.426 8.55916 29.426 8.559 29.426 8.55884C29.426 8.55867 29.426 8.55851 29.426 8.55834C29.426 8.55818 29.426 8.55802 29.426 8.55785C29.426 8.55769 29.426 8.55752 29.426 8.55736C29.426 8.5572 29.426 8.55703 29.426 8.55687C29.426 8.5567 29.426 8.55654 29.426 8.55638C29.426 8.55621 29.426 8.55605 29.426 8.55588C29.426 8.55572 29.426 8.55555 29.426 8.55539C29.426 8.55523 29.426 8.55506 29.426 8.5549C29.426 8.55473 29.426 8.55457 29.426 8.55441C29.426 8.55424 29.426 8.55408 29.426 8.55391C29.426 8.55375 29.426 8.55359 29.426 8.55342C29.426 8.55326 29.426 8.55309 29.426 8.55293C29.426 8.55277 29.426 8.5526 29.426 8.55244C29.426 8.55227 29.426 8.55211 29.426 8.55195C29.426 8.55178 29.426 8.55162 29.426 8.55145C29.426 8.55129 29.426 8.55113 29.426 8.55096C29.426 8.5508 29.426 8.55063 29.426 8.55047C29.426 8.5503 29.426 8.55014 29.426 8.54998C29.426 8.54981 29.426 8.54965 29.426 8.54948C29.426 8.54932 29.426 8.54916 29.426 8.54899C29.426 8.54883 29.426 8.54866 29.426 8.5485C29.426 8.54834 29.426 8.54817 29.426 8.54801C29.426 8.54784 29.426 8.54768 29.426 8.54752C29.426 8.54735 29.426 8.54719 29.426 8.54702C29.426 8.54686 29.426 8.5467 29.426 8.54653C29.426 8.54637 29.426 8.5462 29.426 8.54604C29.426 8.54588 29.426 8.54571 29.426 8.54555C29.426 8.54538 29.426 8.54522 29.426 8.54505C29.426 8.54489 29.426 8.54473 29.426 8.54456C29.426 8.5444 29.426 8.54423 29.426 8.54407C29.426 8.54391 29.426 8.54374 29.426 8.54358C29.426 8.54341 29.426 8.54325 29.426 8.54309C29.426 8.54292 29.426 8.54276 29.426 8.54259C29.426 8.54243 29.426 8.54227 29.426 8.5421C29.426 8.54194 29.426 8.54177 29.426 8.54161C29.426 8.54145 29.426 8.54128 29.426 8.54112C29.426 8.54095 29.426 8.54079 29.426 8.54062C29.426 8.54046 29.426 8.5403 29.426 8.54013C29.426 8.53997 29.426 8.5398 29.426 8.53964C29.426 8.53948 29.426 8.53931 29.426 8.53915C29.426 8.53898 29.426 8.53882 29.426 8.53866C29.426 8.53849 29.426 8.53833 29.426 8.53816C29.426 8.538 29.426 8.53784 29.426 8.53767C29.426 8.53751 29.426 8.53734 29.426 8.53718C29.426 8.53702 29.426 8.53685 29.426 8.53669C29.426 8.53652 29.426 8.53636 29.426 8.5362C29.426 8.53603 29.426 8.53587 29.426 8.5357C29.426 8.53554 29.426 8.53537 29.426 8.53521C29.426 8.53505 29.426 8.53488 29.426 8.53472C29.426 8.53455 29.426 8.53439 29.426 8.53423C29.426 8.53406 29.426 8.5339 29.426 8.53373C29.426 8.53357 29.426 8.53341 29.426 8.53324C29.426 8.53308 29.426 8.53291 29.426 8.53275C29.426 8.53259 29.426 8.53242 29.426 8.53226C29.426 8.53209 29.426 8.53193 29.426 8.53177C29.426 8.5316 29.426 8.53144 29.426 8.53127C29.426 8.53111 29.426 8.53095 29.426 8.53078C29.426 8.53062 29.426 8.53045 29.426 8.53029C29.426 8.53012 29.426 8.52996 29.426 8.5298C29.426 8.52963 29.426 8.52947 29.426 8.5293C29.426 8.52914 29.426 8.52898 29.426 8.52881C29.426 8.52865 29.426 8.52848 29.426 8.52832C29.426 8.52816 29.426 8.52799 29.426 8.52783C29.426 8.52766 29.426 8.5275 29.426 8.52734C29.426 8.52717 29.426 8.52701 29.426 8.52684C29.426 8.52668 29.426 8.52652 29.426 8.52635C29.426 8.52619 29.426 8.52602 29.426 8.52586C29.426 8.5257 29.426 8.52553 29.426 8.52537C29.426 8.5252 29.426 8.52504 29.426 8.52487C29.426 8.52471 29.426 8.52455 29.426 8.52438C29.426 8.52422 29.426 8.52405 29.426 8.52389C29.426 8.52373 29.426 8.52356 29.426 8.5234C29.426 8.52323 29.426 8.52307 29.426 8.52291C29.426 8.52274 29.426 8.52258 29.426 8.52241C29.426 8.52225 29.426 8.52209 29.426 8.52192C29.426 8.52176 29.426 8.52159 29.426 8.52143C29.426 8.52127 29.426 8.5211 29.426 8.52094C29.426 8.52077 29.426 8.52061 29.426 8.52045C29.426 8.52028 29.426 8.52012 29.426 8.51995C29.426 8.51979 29.426 8.51962 29.426 8.51946C29.426 8.5193 29.426 8.51913 29.426 8.51897C29.426 8.5188 29.426 8.51864 29.426 8.51848C29.426 8.51831 29.426 8.51815 29.426 8.51798C29.426 8.51782 29.426 8.51766 29.426 8.51749C29.426 8.51733 29.426 8.51716 29.426 8.517C29.426 8.51684 29.426 8.51667 29.426 8.51651C29.426 8.51634 29.426 8.51618 29.426 8.51602C29.426 8.51585 29.426 8.51569 29.426 8.51552C29.426 8.51536 29.426 8.5152 29.426 8.51503C29.426 8.51487 29.426 8.5147 29.426 8.51454C29.426 8.51437 29.426 8.51421 29.426 8.51405C29.426 8.51388 29.426 8.51372 29.426 8.51355C29.426 8.51339 29.426 8.51323 29.426 8.51306C29.426 8.5129 29.426 8.51273 29.426 8.51257C29.426 8.51241 29.426 8.51224 29.426 8.51208C29.426 8.51191 29.426 8.51175 29.426 8.51159C29.426 8.51142 29.426 8.51126 29.426 8.51109C29.426 8.51093 29.426 8.51077 29.426 8.5106C29.426 8.51044 29.426 8.51027 29.426 8.51011C29.426 8.50994 29.426 8.50978 29.426 8.50962C29.426 8.50945 29.426 8.50929 29.426 8.50912C29.426 8.50896 29.426 8.5088 29.426 8.50863C29.426 8.50847 29.426 8.5083 29.426 8.50814C29.426 8.50798 29.426 8.50781 29.426 8.50765C29.426 8.50748 29.426 8.50732 29.426 8.50716C29.426 8.50699 29.426 8.50683 29.426 8.50666C29.426 8.5065 29.426 8.50634 29.426 8.50617C29.426 8.50601 29.426 8.50584 29.426 8.50568C29.426 8.50552 29.426 8.50535 29.426 8.50519C29.426 8.50502 29.426 8.50486 29.426 8.50469C29.426 8.50453 29.426 8.50437 29.426 8.5042C29.426 8.50404 29.426 8.50387 29.426 8.50371C29.426 8.50355 29.426 8.50338 29.426 8.50322C29.426 8.50305 29.426 8.50289 29.426 8.50273C29.426 8.50256 29.426 8.5024 29.426 8.50223C29.426 8.50207 29.426 8.50191 29.426 8.50174C29.426 8.50158 29.426 8.50141 29.426 8.50125C29.426 8.50109 29.426 8.50092 29.426 8.50076C29.426 8.50059 29.426 8.50043 29.426 8.50027C29.426 8.5001 29.426 8.49994 29.426 8.49977C29.426 8.49961 29.426 8.49944 29.426 8.49928C29.426 8.49912 29.426 8.49895 29.426 8.49879C29.426 8.49862 29.426 8.49846 29.426 8.4983C29.426 8.49813 29.426 8.49797 29.426 8.4978C29.426 8.49764 29.426 8.49748 29.426 8.49731C29.426 8.49715 29.426 8.49698 29.426 8.49682C29.426 8.49666 29.426 8.49649 29.426 8.49633C29.426 8.49616 29.426 8.496 29.426 8.49584C29.426 8.49567 29.426 8.49551 29.426 8.49534C29.426 8.49518 29.426 8.49502 29.426 8.49485C29.426 8.49469 29.426 8.49452 29.426 8.49436C29.426 8.49419 29.426 8.49403 29.426 8.49387C29.426 8.4937 29.426 8.49354 29.426 8.49337C29.426 8.49321 29.426 8.49305 29.426 8.49288C29.426 8.49272 29.426 8.49255 29.426 8.49239C29.426 8.49223 29.426 8.49206 29.426 8.4919C29.426 8.49173 29.426 8.49157 29.426 8.49141C29.426 8.49124 29.426 8.49108 29.426 8.49091C29.426 8.49075 29.426 8.49059 29.426 8.49042C29.426 8.49026 29.426 8.49009 29.426 8.48993C29.426 8.48977 29.426 8.4896 29.426 8.48944C29.426 8.48927 29.426 8.48911 29.426 8.48895C29.426 8.48878 29.426 8.48862 29.426 8.48845C29.426 8.48829 29.426 8.48812 29.426 8.48796C29.426 8.4878 29.426 8.48763 29.426 8.48747C29.426 8.4873 29.426 8.48714 29.426 8.48698C29.426 8.48681 29.426 8.48665 29.426 8.48648C29.426 8.48632 29.426 8.48616 29.426 8.48599C29.426 8.48583 29.426 8.48566 29.426 8.4855C29.426 8.48534 29.426 8.48517 29.426 8.48501C29.426 8.48484 29.426 8.48468 29.426 8.48452C29.426 8.48435 29.426 8.48419 29.426 8.48402C29.426 8.48386 29.426 8.4837 29.426 8.48353C29.426 8.48337 29.426 8.4832 29.426 8.48304C29.426 8.48287 29.426 8.48271 29.426 8.48255C29.426 8.48238 29.426 8.48222 29.426 8.48205C29.426 8.48189 29.426 8.48173 29.426 8.48156C29.426 8.4814 29.426 8.48123 29.426 8.48107C29.426 8.48091 29.426 8.48074 29.426 8.48058C29.426 8.48041 29.426 8.48025 29.426 8.48009C29.426 8.47992 29.426 8.47976 29.426 8.47959C29.426 8.47943 29.426 8.47927 29.426 8.4791C29.426 8.47894 29.426 8.47877 29.426 8.47861C29.426 8.47845 29.426 8.47828 29.426 8.47812C29.426 8.47795 29.426 8.47779 29.426 8.47762C29.426 8.47746 29.426 8.4773 29.426 8.47713C29.426 8.47697 29.426 8.4768 29.426 8.47664C29.426 8.47648 29.426 8.47631 29.426 8.47615C29.426 8.47598 29.426 8.47582 29.426 8.47566C29.426 8.47549 29.426 8.47533 29.426 8.47516C29.426 8.475 29.426 8.47484 29.426 8.47467C29.426 8.47451 29.426 8.47434 29.426 8.47418C29.426 8.47402 29.426 8.47385 29.426 8.47369C29.426 8.47352 29.426 8.47336 29.426 8.4732C29.426 8.47303 29.426 8.47287 29.426 8.4727C29.426 8.47254 29.426 8.47237 29.426 8.47221C29.426 8.47205 29.426 8.47188 29.426 8.47172C29.426 8.47155 29.426 8.47139 29.426 8.47123C29.426 8.47106 29.426 8.4709 29.426 8.47073C29.426 8.47057 29.426 8.47041 29.426 8.47024C29.426 8.47008 29.426 8.46991 29.426 8.46975C29.426 8.46959 29.426 8.46942 29.426 8.46926C29.426 8.46909 29.426 8.46893 29.426 8.46877C29.426 8.4686 29.426 8.46844 29.426 8.46827C29.426 8.46811 29.426 8.46795 29.426 8.46778C29.426 8.46762 29.426 8.46745 29.426 8.46729C29.426 8.46712 29.426 8.46696 29.426 8.4668C29.426 8.46663 29.426 8.46647 29.426 8.4663C29.426 8.46614 29.426 8.46598 29.426 8.46581C29.426 8.46565 29.426 8.46548 29.426 8.46532C29.426 8.46516 29.426 8.46499 29.426 8.46483C29.426 8.46466 29.426 8.4645 29.426 8.46434C29.426 8.46417 29.426 8.46401 29.426 8.46384C29.426 8.46368 29.426 8.46352 29.426 8.46335C29.426 8.46319 29.426 8.46302 29.426 8.46286C29.426 8.4627 29.426 8.46253 29.426 8.46237C29.426 8.4622 29.426 8.46204 29.426 8.46187C29.426 8.46171 29.426 8.46155 29.426 8.46138C29.426 8.46122 29.426 8.46105 29.426 8.46089C29.426 8.46073 29.426 8.46056 29.426 8.4604C29.426 8.46023 29.426 8.46007 29.426 8.45991C29.426 8.45974 29.426 8.45958 29.426 8.45941C29.426 8.45925 29.426 8.45909 29.426 8.45892C29.426 8.45876 29.426 8.45859 29.426 8.45843C29.426 8.45827 29.426 8.4581 29.426 8.45794C29.426 8.45777 29.426 8.45761 29.426 8.45745C29.426 8.45728 29.426 8.45712 29.426 8.45695C29.426 8.45679 29.426 8.45662 29.426 8.45646C29.426 8.4563 29.426 8.45613 29.426 8.45597C29.426 8.4558 29.426 8.45564 29.426 8.45548C29.426 8.45531 29.426 8.45515 29.426 8.45498C29.426 8.45482 29.426 8.45466 29.426 8.45449C29.426 8.45433 29.426 8.45416 29.426 8.454C29.426 8.45384 29.426 8.45367 29.426 8.45351C29.426 8.45334 29.426 8.45318 29.426 8.45302C29.426 8.45285 29.426 8.45269 29.426 8.45252C29.426 8.45236 29.426 8.4522 29.426 8.45203C29.426 8.45187 29.426 8.4517 29.426 8.45154C29.426 8.45138 29.426 8.45121 29.426 8.45105C29.426 8.45088 29.426 8.45072 29.426 8.45055C29.426 8.45039 29.426 8.45023 29.426 8.45006C29.426 8.4499 29.426 8.44973 29.426 8.44957C29.426 8.44941 29.426 8.44924 29.426 8.44908C29.426 8.44891 29.426 8.44875 29.426 8.44859C29.426 8.44842 29.426 8.44826 29.426 8.44809C29.426 8.44793 29.426 8.44777 29.426 8.4476C29.426 8.44744 29.426 8.44727 29.426 8.44711C29.426 8.44695 29.426 8.44678 29.426 8.44662C29.426 8.44645 29.426 8.44629 29.426 8.44612C29.426 8.44596 29.426 8.4458 29.426 8.44563C29.426 8.44547 29.426 8.4453 29.426 8.44514C29.426 8.44498 29.426 8.44481 29.426 8.44465C29.426 8.44448 29.426 8.44432 29.426 8.44416C29.426 8.44399 29.426 8.44383 29.426 8.44366C29.426 8.4435 29.426 8.44334 29.426 8.44317C29.426 8.44301 29.426 8.44284 29.426 8.44268C29.426 8.44252 29.426 8.44235 29.426 8.44219C29.426 8.44202 29.426 8.44186 29.426 8.4417C29.426 8.44153 29.426 8.44137 29.426 8.4412C29.426 8.44104 29.426 8.44087 29.426 8.44071C29.426 8.44055 29.426 8.44038 29.426 8.44022C29.426 8.44005 29.426 8.43989 29.426 8.43973H26.926ZM26.926 8.69173C26.926 10.3589 27.907 11.8312 29.199 12.6161L30.497 10.4794C29.853 10.0882 29.426 9.37652 29.426 8.69173H26.926ZM28.6018 11.4498C28.0947 17.9047 25.8919 21.6444 23.9187 23.7563C22.924 24.8209 21.9682 25.4925 21.2766 25.8933C20.9306 26.0937 20.6511 26.2262 20.4665 26.3059C20.3742 26.3457 20.3059 26.3722 20.265 26.3874C20.2446 26.395 20.2311 26.3997 20.2249 26.4018C20.2219 26.4029 20.2206 26.4033 20.2213 26.4031C20.2216 26.403 20.2224 26.4027 20.2237 26.4023C20.2243 26.4021 20.2251 26.4018 20.226 26.4015C20.2264 26.4014 20.2272 26.4011 20.2274 26.4011C20.2282 26.4008 20.229 26.4006 20.608 27.5917C20.987 28.7829 20.9879 28.7826 20.9888 28.7823C20.9891 28.7822 20.9901 28.7819 20.9908 28.7817C20.9922 28.7812 20.9937 28.7807 20.9953 28.7802C20.9986 28.7792 21.0023 28.7779 21.0066 28.7765C21.0151 28.7737 21.0256 28.7702 21.0381 28.7659C21.0629 28.7573 21.0955 28.7458 21.1353 28.731C21.2149 28.7015 21.3234 28.6589 21.457 28.6013C21.7241 28.486 22.0921 28.3101 22.5299 28.0564C23.4058 27.5489 24.562 26.7296 25.7454 25.4631C28.1281 22.913 30.5453 18.6307 31.0942 11.6456L28.6018 11.4498ZM19.52 28.2071L37.384 59.7911L39.56 58.5603L21.696 26.9763L19.52 28.2071ZM39.722 59.1757V39.4357H37.222V59.1757H39.722ZM39.722 39.4357C39.722 39.5892 39.664 39.7318 39.5606 39.8395C39.4439 39.9611 39.2934 40.0137 39.176 40.0137V37.5137C37.9984 37.5137 37.222 38.4576 37.222 39.4357H39.722ZM39.176 40.0137C39.0648 40.0137 38.9442 39.9768 38.8369 39.8829C38.7112 39.773 38.63 39.6039 38.63 39.4357H41.13C41.13 38.1738 40.0564 37.5137 39.176 37.5137V40.0137ZM38.63 39.4357V59.1757H41.13V39.4357H38.63ZM40.9654 59.7957L59.0054 28.2117L56.8346 26.9718L38.7946 58.5558L40.9654 59.7957ZM39.176 33.2297C38.0283 33.2297 37.17 32.3698 37.17 31.3717H34.67C34.67 33.9016 36.8037 35.7297 39.176 35.7297V33.2297ZM37.17 31.3717C37.17 30.4147 37.9853 29.5137 39.176 29.5137V27.0137C36.6707 27.0137 34.67 28.9688 34.67 31.3717H37.17ZM39.176 29.5137C40.3237 29.5137 41.182 30.3736 41.182 31.3717H43.682C43.682 28.8418 41.5483 27.0137 39.176 27.0137V29.5137ZM41.1837 31.3063C41.129 32.3506 40.2431 33.2297 39.176 33.2297V35.7297C41.6289 35.7297 43.559 33.7529 43.6803 31.4371L41.1837 31.3063Z" fill="#E0E0E0"/>
</svg>
