<svg width="74" height="58" viewBox="0 0 74 58" fill="none" xmlns="http://www.w3.org/2000/svg">
<path fill-rule="evenodd" clip-rule="evenodd" d="M64.176 0.30957H9.65199C4.48369 0.30957 0.234985 4.06424 0.234985 8.63157V38.8036C0.234985 43.3709 4.48369 47.1256 9.65199 47.1256H29.389V50.5076C29.389 51.6377 29.7253 52.6944 30.3653 53.6842L31.2844 55.1056H20.918C20.2217 55.1056 19.671 55.5922 19.671 56.2076C19.671 56.8229 20.2217 57.3096 20.918 57.3096H52.996C53.6923 57.3096 54.243 56.8229 54.243 56.2076C54.243 55.5922 53.6923 55.1056 52.996 55.1056H42.6296L43.5486 53.6842C44.1701 52.7232 44.525 51.5905 44.525 50.5076V47.1256H64.262C69.4303 47.1256 73.679 43.3709 73.679 38.8036L73.6791 8.64554C73.6015 3.98304 69.4211 0.30957 64.176 0.30957ZM42.031 47.2016V50.5836C42.031 53.0842 39.7437 55.1056 36.914 55.1056C34.1486 55.1056 31.9012 53.1751 31.8005 50.7533L31.797 50.5836V47.2016H42.031ZM64.176 2.43757H9.65198L9.43819 2.44042C5.67479 2.5408 2.64298 5.2821 2.64298 8.63157V38.8036L2.6462 38.9925C2.75979 42.3183 5.86179 44.9976 9.65198 44.9976H64.176L64.3898 44.9947C68.1532 44.8943 71.185 42.153 71.185 38.8036V8.63157L71.1818 8.44264C71.0682 5.11684 67.9662 2.43757 64.176 2.43757Z" fill="#E0E0E0"/>
<path fill-rule="evenodd" clip-rule="evenodd" d="M35.581 11.5952C35.581 10.9798 36.1317 10.4932 36.828 10.4932C37.5243 10.4932 38.075 10.9798 38.075 11.5952V14.453L38.873 14.6411C40.1725 14.9473 41.138 15.3015 41.9937 15.8056L42.7269 16.2376L45.0701 14.1669C45.5626 13.7727 46.3718 13.7727 46.8178 14.1669C47.2639 14.6021 47.2639 15.3172 46.8178 15.7114L44.4747 17.7821L44.9635 18.4301C45.5814 19.2492 46.0411 20.2029 46.2688 21.1422L46.4509 21.8932H49.728C50.4243 21.8932 50.975 22.3798 50.975 22.9952C50.975 23.6105 50.4243 24.0972 49.728 24.0972H46.4941L46.2813 24.8024C45.9347 25.9508 45.5339 26.804 44.9635 27.5602L44.4747 28.2082L46.8178 30.2789C47.2639 30.7141 47.2639 31.4292 46.8178 31.8234C46.5845 32.0296 46.254 32.1532 45.944 32.1532C45.6339 32.1532 45.3034 32.0296 45.0701 31.8234L42.7269 29.7527L41.9937 30.1847C41.0668 30.7308 39.9876 31.137 38.9247 31.3383L38.075 31.4992V34.3952C38.075 35.0105 37.5243 35.4972 36.828 35.4972C36.1317 35.4972 35.581 35.0105 35.581 34.3952V31.5373L34.783 31.3492C33.4834 31.043 32.5179 30.6888 31.6623 30.1847L30.929 29.7527L28.5858 31.8234C28.3525 32.0296 28.022 32.1532 27.712 32.1532C27.402 32.1532 27.0714 32.0296 26.8381 31.8234C26.392 31.3882 26.392 30.6731 26.8381 30.2789L29.1813 28.2082L28.6924 27.5602C28.0745 26.7411 27.6149 25.7874 27.3871 24.8481L27.205 24.0972H23.928C23.2317 24.0972 22.681 23.6105 22.681 22.9952C22.681 22.3798 23.2317 21.8932 23.928 21.8932H27.1619L27.3747 21.1879C27.7212 20.0395 28.122 19.1863 28.6924 18.4301L29.1813 17.7821L26.8381 15.7114C26.392 15.2762 26.392 14.5611 26.8381 14.1669C27.3306 13.7727 28.1398 13.7727 28.5858 14.1669L30.929 16.2376L31.6623 15.8056C32.5891 15.2596 33.6683 14.8534 34.7312 14.6521L35.581 14.4912V11.5952ZM44.009 22.9952C44.009 19.5825 40.7757 16.7252 36.914 16.7252C33.0248 16.7252 29.819 19.5305 29.819 22.9952C29.819 26.4321 32.9934 29.2652 36.914 29.2652C40.8345 29.2652 44.009 26.4321 44.009 22.9952Z" fill="#E0E0E0"/>
</svg>
