<svg width="70" height="70" viewBox="0 0 70 70" fill="none" xmlns="http://www.w3.org/2000/svg">
<path d="M54.9991 14.2L44.8004 24.6H65.1979L54.9991 14.2Z" fill="#E0E0E0"/>
<path d="M54.9991 57.1L65.1979 46.7H44.8004L54.9991 57.1Z" fill="#E0E0E0"/>
<path d="M24.4028 61H14.204V55.8H4.00525V45.4H24.4028V40.2H9.10464C6.29998 40.2 4.00525 37.86 4.00525 35V19.4C4.00525 16.54 6.29998 14.2 9.10464 14.2H14.204V9H24.4028V14.2H34.6016V24.6H14.204V29.8H29.5022C32.3069 29.8 34.6016 32.14 34.6016 35V50.6C34.6016 53.46 32.3069 55.8 29.5022 55.8H24.4028V61Z" fill="#E0E0E0" stroke="white" stroke-width="6"/>
</svg>
