<?xml version="1.0" standalone="no"?>
<!DOCTYPE svg PUBLIC "-//W3C//DTD SVG 20010904//EN"
 "http://www.w3.org/TR/2001/REC-SVG-20010904/DTD/svg10.dtd">
<svg version="1.0" xmlns="http://www.w3.org/2000/svg"
 width="300.000000pt" height="137.000000pt" viewBox="0 0 300.000000 137.000000"
 preserveAspectRatio="xMidYMid meet">
<metadata>
Created by potrace 1.10, written by Peter Selinger 2001-2011
</metadata>
<g transform="translate(0.000000,137.000000) scale(0.100000,-0.100000)"
fill="#000000" stroke="none">
<path d="M690 1240 c0 -5 -7 -10 -15 -10 -16 0 -35 -30 -35 -54 0 -13 13 -16
65 -16 52 0 65 3 65 16 0 21 -19 54 -31 54 -6 0 -3 -7 5 -16 27 -26 18 -34
-39 -34 -52 0 -55 1 -45 20 6 11 22 23 35 26 27 7 34 24 10 24 -8 0 -15 -4
-15 -10z"/>
<path d="M1235 1240 c3 -5 -4 -19 -15 -30 -11 -11 -25 -18 -30 -15 -6 4 -10 1
-10 -5 0 -7 8 -9 20 -5 23 7 27 -10 4 -19 -8 -3 -12 -11 -8 -17 5 -9 11 -6 21
6 12 18 19 10 14 -17 0 -5 4 -8 10 -8 11 0 9 16 -7 54 -6 16 -4 18 12 12 38
-16 54 -18 54 -7 0 6 -3 10 -7 9 -5 -1 -18 2 -31 6 -17 6 -21 13 -17 27 4 11
2 19 -5 19 -6 0 -9 -4 -5 -10z"/>
<path d="M1794 1236 c-12 -9 -30 -12 -49 -9 -29 6 -30 6 -12 -14 22 -25 22
-33 -3 -33 -18 0 -18 -1 3 -23 24 -25 40 -26 30 -2 -7 20 6 19 30 -2 19 -18
20 -17 13 18 -5 26 -2 40 9 49 31 26 13 40 -21 16z m12 -15 c-12 -13 -16 -28
-11 -43 5 -20 5 -21 -5 -5 -11 18 -13 18 -33 0 -22 -18 -22 -18 -4 4 18 20 18
22 0 32 -15 10 -14 10 8 5 17 -3 30 0 38 10 8 9 16 16 19 16 3 0 -3 -9 -12
-19z"/>
<path d="M2306 1235 c-19 -19 -20 -27 -4 -43 15 -15 49 3 42 23 -4 8 -10 12
-15 9 -5 -3 -7 -9 -4 -14 3 -5 1 -11 -5 -15 -5 -3 -10 3 -10 14 0 28 19 36 38
17 14 -14 14 -17 -4 -37 -13 -15 -14 -20 -5 -17 25 7 37 36 25 56 -15 23 -38
26 -58 7z"/>
<path d="M1196 1232 c-3 -6 -1 -14 5 -17 15 -10 25 3 12 16 -7 7 -13 7 -17 1z"/>
<path d="M1260 1225 c0 -8 5 -15 10 -15 6 0 10 7 10 15 0 8 -4 15 -10 15 -5 0
-10 -7 -10 -15z"/>
<path d="M1252 1170 c7 -11 16 -20 20 -20 15 0 8 15 -12 28 -19 12 -20 11 -8
-8z"/>
<path d="M2230 1150 c0 -11 7 -20 15 -20 8 0 15 5 15 10 0 6 -5 10 -12 10 -6
0 -8 3 -4 7 4 5 13 1 19 -8 16 -21 63 -32 87 -19 21 11 27 30 9 30 -5 0 -8 -4
-5 -9 3 -5 -1 -12 -10 -15 -23 -9 -64 4 -64 20 0 8 -10 14 -25 14 -18 0 -25
-5 -25 -20z"/>
<path d="M2305 1160 c-3 -6 1 -13 10 -16 19 -8 30 0 20 15 -8 14 -22 14 -30 1z"/>
<path d="M620 1065 c0 -14 137 -15 159 -1 9 6 12 5 7 -2 -3 -6 -2 -13 3 -16 7
-5 21 14 21 28 0 1 -16 3 -35 4 -23 2 -35 -2 -35 -10 0 -8 -3 -9 -8 -3 -10 15
-112 15 -112 0z"/>
<path d="M1113 1066 c0 -7 20 -12 49 -14 36 -1 48 2 48 13 0 8 -4 15 -10 15
-5 0 -10 -6 -10 -12 0 -9 -3 -9 -8 -3 -10 15 -69 15 -69 1z"/>
<path d="M1220 1068 c0 -4 5 -9 10 -9 6 -1 16 -2 23 -3 6 -1 18 3 26 8 11 8
13 8 8 -1 -10 -15 55 -15 65 1 5 8 8 7 8 -1 0 -7 4 -13 10 -13 5 0 7 6 4 13
-5 15 -154 20 -154 5z"/>
<path d="M1647 1063 c3 -7 9 -13 14 -13 5 0 9 6 9 13 0 9 2 9 8 0 4 -7 18 -11
30 -8 12 2 24 -1 27 -6 4 -5 12 -6 18 -2 7 4 21 8 31 8 11 0 21 5 23 10 2 7
-27 11 -81 10 -62 0 -82 -3 -79 -12z"/>
<path d="M1816 1064 c-5 -13 49 -15 71 -1 6 4 14 2 16 -3 3 -6 4 -5 3 2 -3 17
-84 19 -90 2z"/>
<path d="M2110 1067 c0 -12 17 -15 80 -14 56 0 80 4 80 12 0 8 -16 12 -45 12
-26 0 -45 -4 -45 -11 0 -7 -3 -7 -8 -1 -12 17 -62 18 -62 2z"/>
<path d="M2280 1065 c0 -8 7 -15 15 -15 9 0 12 6 9 15 -4 8 -10 15 -15 15 -5
0 -9 -7 -9 -15z"/>
<path d="M2321 1063 c0 -12 2 -14 6 -4 5 11 7 11 15 0 8 -12 9 -12 6 0 -6 22
-28 25 -27 4z"/>
<path d="M2363 1065 c0 -6 22 -11 49 -12 33 0 46 3 41 11 -4 7 -1 6 9 -1 8 -7
18 -10 21 -6 4 3 13 1 21 -6 11 -9 15 -8 20 5 3 8 6 17 6 18 0 2 -37 3 -83 2
-50 -1 -84 -5 -84 -11z"/>
<path d="M570 1019 c0 -11 33 -14 90 -9 l55 6 -73 4 c-39 3 -72 2 -72 -1z"/>
<path d="M1090 1020 c0 -5 14 -10 32 -10 36 0 35 4 -4 14 -17 4 -28 2 -28 -4z"/>
<path d="M1263 1019 c-11 -5 2 -8 35 -8 28 -1 52 1 52 3 0 8 -69 12 -87 5z"/>
<path d="M1360 1020 c0 -6 7 -10 15 -10 8 0 15 2 15 4 0 2 -7 6 -15 10 -8 3
-15 1 -15 -4z"/>
<path d="M1630 1018 c0 -5 18 -8 40 -8 22 0 40 2 40 4 0 2 -18 6 -40 8 -22 2
-40 0 -40 -4z"/>
<path d="M2180 1018 c0 -4 14 -8 30 -8 17 0 30 2 30 4 0 2 -13 6 -30 8 -16 3
-30 1 -30 -4z"/>
<path d="M721 1016 c9 -9 118 -13 131 -5 8 5 -17 9 -61 9 -41 0 -72 -2 -70 -4z"/>
<path d="M1178 1013 c12 -2 32 -2 45 0 12 2 2 4 -23 4 -25 0 -35 -2 -22 -4z"/>
<path d="M1733 1013 c9 -2 23 -2 30 0 6 3 -1 5 -18 5 -16 0 -22 -2 -12 -5z"/>
<path d="M1780 1011 c0 -5 9 -7 20 -4 11 3 20 7 20 9 0 2 -9 4 -20 4 -11 0
-20 -4 -20 -9z"/>
<path d="M1834 1013 c7 -7 77 -5 85 2 2 3 -17 5 -44 5 -27 0 -45 -3 -41 -7z"/>
<path d="M2252 1015 c9 -9 78 -12 78 -3 0 4 -19 8 -42 8 -23 0 -39 -2 -36 -5z"/>
<path d="M2340 1012 c0 -4 21 -6 48 -4 75 5 82 10 15 11 -35 0 -63 -2 -63 -7z"/>
<path d="M1835 990 c-4 -6 -5 -10 -3 -11 25 -6 38 -6 38 1 0 12 -29 20 -35 10z"/>
<path d="M614 981 c3 -5 15 -7 26 -4 28 7 25 13 -6 13 -14 0 -23 -4 -20 -9z"/>
<path d="M674 983 c9 -10 136 -10 136 -1 0 4 -32 8 -72 8 -39 0 -68 -3 -64 -7z"/>
<path d="M1140 983 c0 -5 14 -8 30 -9 17 -1 30 3 30 7 0 5 -13 9 -30 9 -16 0
-30 -3 -30 -7z"/>
<path d="M1223 983 c9 -2 23 -2 30 0 6 3 -1 5 -18 5 -16 0 -22 -2 -12 -5z"/>
<path d="M1274 983 c9 -10 76 -10 76 -1 0 4 -19 8 -42 8 -23 0 -38 -3 -34 -7z"/>
<path d="M1680 981 c0 -8 129 -5 137 3 4 3 -26 5 -65 5 -40 -1 -72 -4 -72 -8z"/>
<path d="M2210 982 c0 -4 52 -7 115 -7 63 0 115 3 115 8 0 4 -52 7 -115 7 -63
0 -115 -4 -115 -8z"/>
<path d="M670 860 c0 -5 -7 -10 -15 -10 -11 0 -15 -12 -15 -50 l0 -50 65 0 65
0 0 50 c0 38 -4 50 -15 50 -8 0 -15 5 -15 10 0 6 -16 10 -35 10 -19 0 -35 -4
-35 -10z m53 -7 c-7 -2 -21 -2 -30 0 -10 3 -4 5 12 5 17 0 24 -2 18 -5z m37
-53 l0 -40 -55 0 -55 0 0 40 0 40 55 0 55 0 0 -40z"/>
<path d="M697 806 c-3 -8 -2 -18 3 -21 13 -8 20 9 11 24 -6 10 -10 9 -14 -3z"/>
<path d="M1180 861 c0 -5 5 -13 10 -16 6 -3 10 -19 10 -34 0 -15 6 -33 13 -40
10 -11 9 -12 -2 -6 -9 5 -12 4 -7 -3 10 -17 26 -15 26 3 0 8 7 15 15 15 8 0
15 -7 15 -15 0 -8 5 -15 11 -15 5 0 8 4 4 9 -3 5 0 13 7 18 8 5 -1 10 -27 13
-32 4 -41 9 -43 28 -3 19 1 22 33 22 44 0 43 -22 -1 -31 l-29 -7 31 -1 c24 -1
33 5 42 24 11 24 11 25 -29 25 -22 0 -49 5 -60 10 -12 7 -19 7 -19 1z"/>
<path d="M1745 861 c-32 -5 -41 -11 -43 -28 -3 -19 1 -23 25 -23 l28 1 -25 14
-25 13 30 7 c17 4 37 9 46 11 29 8 52 -19 45 -53 -6 -24 -14 -32 -38 -37 -34
-7 -78 2 -78 15 0 5 11 4 24 -1 14 -5 36 -5 53 0 20 6 23 9 8 9 -19 1 -19 3 4
20 28 22 20 29 -34 28 -22 0 -32 -2 -23 -4 17 -4 35 -40 25 -50 -3 -2 -15 1
-27 7 -29 16 -57 5 -40 -15 16 -19 68 -28 105 -17 26 7 30 14 33 50 3 38 1 43
-23 52 -14 5 -27 9 -28 9 -1 -1 -20 -5 -42 -8z m65 -35 c0 -2 -9 -6 -20 -9
-11 -3 -20 -1 -20 4 0 5 9 9 20 9 11 0 20 -2 20 -4z"/>
<path d="M2270 858 c0 -9 -7 -24 -16 -32 -14 -15 -14 -17 0 -32 9 -8 16 -23
16 -32 0 -13 3 -13 12 -4 10 10 10 15 -2 22 -17 11 -16 11 23 14 32 3 35 -4 7
-22 -11 -7 -20 -18 -20 -25 1 -7 6 -5 14 5 10 14 15 15 25 5 10 -9 12 -9 11 3
-4 29 0 40 17 40 14 0 13 3 -5 21 -12 11 -20 24 -17 30 4 5 1 9 -5 9 -7 0 -10
-6 -7 -12 19 -47 19 -46 -10 -40 -32 6 -47 23 -30 34 9 5 9 10 -1 20 -9 9 -12
9 -12 -4z m5 -48 c3 -5 1 -10 -4 -10 -6 0 -11 5 -11 10 0 6 2 10 4 10 3 0 8
-4 11 -10z"/>
<path d="M530 675 c0 -6 35 -11 80 -12 58 -2 80 1 80 10 0 8 3 7 10 -3 5 -8
12 -11 16 -7 10 9 1 17 -25 22 -11 2 -21 0 -21 -6 0 -5 -5 -9 -11 -9 -5 0 -8
4 -5 9 3 4 -24 8 -59 7 -36 -1 -65 -5 -65 -11z"/>
<path d="M730 675 c0 -8 7 -15 15 -15 9 0 12 6 9 15 -4 8 -10 15 -15 15 -5 0
-9 -7 -9 -15z"/>
<path d="M770 675 c0 -15 43 -17 52 -2 5 8 8 8 8 1 0 -6 14 -11 30 -12 22 0
30 4 30 16 0 15 -2 15 -10 2 -5 -8 -10 -10 -10 -5 0 6 -22 10 -50 11 -31 0
-50 -4 -50 -11z"/>
<path d="M1130 675 c0 -8 5 -15 10 -15 6 0 10 7 10 15 0 8 -4 15 -10 15 -5 0
-10 -7 -10 -15z"/>
<path d="M1164 678 c-6 -10 7 -14 52 -17 27 -2 43 2 47 11 3 10 -7 13 -45 13
-27 0 -52 -3 -54 -7z"/>
<path d="M1275 681 c-12 -12 -2 -17 35 -18 25 0 40 4 40 11 0 11 -65 17 -75 7z"/>
<path d="M1691 674 c0 -11 3 -14 6 -6 3 7 2 16 -1 19 -3 4 -6 -2 -5 -13z"/>
<path d="M1714 681 c-14 -14 4 -19 71 -20 54 -1 75 2 75 11 0 8 -16 14 -40 16
-22 1 -40 -2 -40 -8 0 -5 -5 -10 -11 -10 -5 0 -8 3 -6 8 5 7 -41 10 -49 3z"/>
<path d="M2251 677 c-1 -14 6 -17 37 -16 20 1 42 1 47 -1 24 -6 55 1 55 13 0
8 -12 13 -30 12 -16 0 -30 -3 -30 -7 0 -4 -12 -3 -27 3 -19 7 -28 6 -33 -2 -6
-8 -9 -7 -13 2 -4 10 -6 8 -6 -4z"/>
<path d="M563 628 c-5 -10 -7 -9 67 -11 34 -1 60 2 60 8 0 12 -120 14 -127 3z"/>
<path d="M700 630 c0 -13 18 -22 24 -11 3 5 -1 11 -9 15 -8 3 -15 1 -15 -4z"/>
<path d="M740 630 c0 -14 15 -19 29 -11 9 6 7 10 -8 14 -12 3 -21 1 -21 -3z"/>
<path d="M1100 625 c0 -7 11 -11 26 -9 37 4 39 11 4 16 -19 3 -30 0 -30 -7z"/>
<path d="M1620 624 c0 -8 9 -11 27 -8 38 7 39 11 3 16 -20 3 -30 0 -30 -8z"/>
<path d="M1844 628 c-3 -4 -4 -8 -2 -9 27 -6 38 -5 38 5 0 14 -28 17 -36 4z"/>
<path d="M790 623 c0 -5 16 -8 35 -8 19 0 35 3 35 8 0 4 -16 7 -35 7 -19 0
-35 -3 -35 -7z"/>
<path d="M1170 621 c0 -4 13 -8 30 -7 39 1 39 16 0 16 -16 0 -30 -4 -30 -9z"/>
<path d="M1240 622 c0 -9 66 -9 76 1 4 4 -11 7 -34 7 -23 0 -42 -3 -42 -8z"/>
<path d="M1330 626 c0 -2 14 -6 30 -8 17 -3 30 -1 30 4 0 4 -13 8 -30 8 -16 0
-30 -2 -30 -4z"/>
<path d="M1690 623 c0 -10 128 -8 137 1 3 3 -26 6 -65 6 -40 0 -72 -3 -72 -7z"/>
<path d="M1895 620 c3 -5 13 -10 21 -10 8 0 14 5 14 10 0 6 -9 10 -21 10 -11
0 -17 -4 -14 -10z"/>
<path d="M2208 623 c18 -2 45 -2 60 0 15 2 0 4 -33 4 -33 0 -45 -2 -27 -4z"/>
<path d="M2301 626 c8 -8 148 -11 155 -3 4 4 -30 7 -76 7 -46 0 -81 -2 -79 -4z"/>
<path d="M620 591 c0 -6 16 -10 35 -9 19 1 35 4 35 8 0 3 -16 7 -35 8 -19 2
-35 -2 -35 -7z"/>
<path d="M700 590 c0 -6 16 -10 35 -8 19 1 35 6 35 10 0 4 -16 8 -35 8 -19 0
-35 -5 -35 -10z"/>
<path d="M780 590 c0 -5 5 -10 10 -10 6 0 10 5 10 10 0 6 -4 10 -10 10 -5 0
-10 -4 -10 -10z"/>
<path d="M1150 593 c0 -10 86 -10 96 0 4 4 -16 7 -44 7 -29 0 -52 -3 -52 -7z"/>
<path d="M1260 591 c0 -5 18 -8 40 -8 22 0 40 4 40 9 0 4 -18 8 -40 8 -22 0
-40 -4 -40 -9z"/>
<path d="M1674 593 c10 -11 76 -11 76 -1 0 4 -19 8 -42 8 -23 0 -38 -3 -34 -7z"/>
<path d="M1760 590 c0 -6 25 -9 60 -8 33 1 60 6 60 10 0 4 -27 8 -60 8 -33 0
-60 -4 -60 -10z"/>
<path d="M2245 590 c6 -10 155 -11 155 0 0 5 -36 9 -80 8 -44 0 -78 -4 -75 -8z"/>
<path d="M671 469 c13 -8 6 -13 -13 -10 -16 2 -7 -15 13 -27 16 -11 19 -16 10
-25 -10 -9 -16 -7 -27 7 -15 22 -19 10 -4 -14 7 -12 12 -12 34 -1 20 11 28 12
41 1 21 -17 45 -5 44 22 l-2 23 -4 -22 c-5 -26 -10 -27 -45 -11 -37 18 -35 53
5 56 l30 3 -24 -20 c-27 -23 -14 -28 15 -6 27 21 12 33 -41 33 -31 0 -42 -3
-32 -9z"/>
<path d="M1180 416 l0 -59 35 6 c33 5 80 37 55 37 -6 0 -18 -7 -26 -15 -19
-18 -57 -20 -51 -2 2 6 14 11 25 9 12 -2 22 1 22 6 0 6 -11 9 -25 7 -21 -2
-25 2 -25 25 0 23 4 27 25 25 14 -2 25 2 25 8 0 7 -13 12 -30 12 -30 0 -30 0
-30 -59z"/>
<path d="M1728 459 c-10 -10 -18 -26 -18 -35 0 -20 39 -53 63 -54 21 0 57 34
57 55 0 23 -37 55 -62 54 -13 0 -31 -9 -40 -20z m77 -18 c9 -31 -5 -51 -36
-51 -26 0 -29 3 -29 35 0 32 2 35 29 35 20 0 32 -6 36 -19z"/>
<path d="M1250 439 c0 -5 -4 -7 -10 -4 -5 3 -10 2 -10 -4 0 -6 12 -8 30 -4 27
5 30 3 30 -21 0 -14 -5 -26 -11 -26 -5 0 -7 -5 -4 -10 13 -20 26 3 23 41 -2
33 -5 39 -25 39 -13 0 -23 -5 -23 -11z"/>
<path d="M650 295 c0 -13 12 -15 60 -13 34 2 60 8 60 14 0 13 -79 13 -99 0
-10 -6 -12 -6 -7 2 4 7 2 12 -3 12 -6 0 -11 -7 -11 -15z"/>
<path d="M1152 298 c7 -19 68 -21 68 -3 0 8 -4 15 -10 15 -5 0 -10 -5 -10 -10
0 -7 -6 -7 -19 0 -26 13 -34 13 -29 -2z"/>
<path d="M1230 295 c0 -8 19 -12 55 -13 38 0 55 4 55 13 0 14 -42 15 -52 0 -5
-6 -8 -6 -8 1 0 6 -11 12 -25 12 -14 0 -25 -6 -25 -13z"/>
<path d="M1676 295 c4 -8 8 -15 10 -15 2 0 4 7 4 15 0 8 -4 15 -10 15 -5 0 -7
-7 -4 -15z"/>
<path d="M1700 295 c0 -16 38 -16 44 1 4 10 -2 13 -19 12 -14 -1 -25 -7 -25
-13z"/>
<path d="M1755 302 c-15 -16 0 -23 40 -19 25 3 45 1 45 -4 0 -15 28 -10 34 7
3 9 6 17 6 18 0 4 -120 2 -125 -2z"/>
<path d="M574 249 c-7 -12 9 -15 46 -9 l35 6 -38 5 c-21 3 -40 2 -43 -2z"/>
<path d="M1100 248 c0 -5 6 -8 13 -9 6 0 25 -2 40 -3 15 -1 33 1 39 5 6 4 -12
8 -41 10 -28 2 -51 1 -51 -3z"/>
<path d="M1640 244 c0 -7 16 -9 42 -7 57 6 58 10 4 15 -29 2 -46 -1 -46 -8z"/>
<path d="M665 245 c23 -8 85 -10 85 -3 0 4 -21 8 -47 7 -27 0 -43 -2 -38 -4z"/>
<path d="M760 243 c0 -5 20 -8 45 -8 25 0 45 3 45 8 0 4 -20 7 -45 7 -25 0
-45 -3 -45 -7z"/>
<path d="M1253 243 c26 -2 68 -2 95 0 26 2 4 3 -48 3 -52 0 -74 -1 -47 -3z"/>
<path d="M1760 246 c0 -9 39 -13 51 -5 10 6 4 9 -18 9 -18 0 -33 -2 -33 -4z"/>
<path d="M1848 243 c12 -2 32 -2 45 0 12 2 2 4 -23 4 -25 0 -35 -2 -22 -4z"/>
<path d="M582 214 c9 -9 129 -10 135 -2 2 5 -28 8 -68 8 -40 0 -70 -3 -67 -6z"/>
<path d="M730 210 c0 -5 7 -7 15 -4 8 4 15 8 15 10 0 2 -7 4 -15 4 -8 0 -15
-4 -15 -10z"/>
<path d="M775 210 c7 -11 55 -9 55 2 0 4 -14 8 -31 8 -17 0 -28 -4 -24 -10z"/>
<path d="M1150 211 c0 -4 23 -6 50 -6 28 0 50 3 50 8 0 4 -22 7 -50 6 -27 -1
-50 -5 -50 -8z"/>
<path d="M1260 213 c0 -5 18 -8 40 -9 22 -1 37 3 34 7 -6 11 -74 12 -74 2z"/>
<path d="M1660 212 c0 -5 14 -8 30 -8 17 0 30 3 30 8 0 4 -13 8 -30 8 -16 0
-30 -4 -30 -8z"/>
<path d="M1730 212 c0 -9 76 -9 86 1 4 4 -14 7 -39 7 -26 0 -47 -3 -47 -8z"/>
<path d="M1830 211 c0 -5 14 -8 30 -7 17 0 30 4 30 8 0 5 -13 8 -30 8 -16 0
-30 -4 -30 -9z"/>
</g>
</svg>
