<svg width="322" height="252" viewBox="0 0 322 252" fill="none" xmlns="http://www.w3.org/2000/svg">
<g clip-path="url(#clip0)">
<path d="M91.3255 52.4139C91.3265 54.3418 90.9146 56.2475 90.1174 58.0032C89.3201 59.759 88.156 61.324 86.7031 62.5934C85.2503 63.8627 83.5424 64.8069 81.694 65.3626C79.8456 65.9183 77.8996 66.0726 75.9866 65.8152C75.923 65.8112 75.8598 65.8017 75.7978 65.7868C75.3077 65.7178 74.8222 65.6192 74.3441 65.4914C74.027 65.4131 73.717 65.3171 73.4105 65.2103C71.333 64.5014 69.4592 63.2985 67.9507 61.7054C66.4422 60.1123 65.3443 58.1767 64.7514 56.0655C64.1586 53.9543 64.0887 51.7308 64.5478 49.5866C65.0068 47.4424 65.9811 45.4419 67.3865 43.7574C68.792 42.0729 70.5865 40.755 72.6154 39.9174C74.6444 39.0797 76.8468 38.7473 79.0329 38.9489C81.2191 39.1505 83.3234 39.8799 85.1644 41.0745C87.0055 42.269 88.5281 43.8928 89.601 45.8058C89.9986 46.5091 90.3302 47.2477 90.5915 48.012C90.8773 48.8392 91.0802 49.6927 91.1972 50.5599C91.2647 51.0257 91.3051 51.4951 91.3183 51.9655C91.3219 52.115 91.3255 52.2609 91.3255 52.4139Z" fill="#2F2E41"/>
<path d="M30.7278 115.243L20.1604 119.531C20.1604 119.531 1.00693 113.924 4.63948 119.531C8.27204 125.138 21.1511 123.159 21.1511 123.159L37.3325 119.531L30.7278 115.243Z" fill="#FFB8B8"/>
<path d="M86.5371 170.322L87.5278 188.132C87.5278 188.132 87.5278 208.25 88.8487 215.506C90.1697 222.762 92.4813 235.295 92.4813 235.295L98.7557 234.635C98.7557 234.635 98.0952 220.453 98.7557 216.826C99.4162 213.198 98.7557 190.441 98.7557 190.441L99.7464 169.662L86.5371 170.322Z" fill="#FFB8B8"/>
<path d="M113.616 167.354L119.23 186.483C119.23 186.483 122.863 208.25 127.816 218.145L130.788 227.709L139.044 226.39L135.742 212.868L130.788 185.823L127.156 161.747L113.616 167.354Z" fill="#FFB8B8"/>
<path d="M99.086 230.348C99.086 230.348 94.1325 229.688 91.1604 231.997C91.1604 231.997 92.1511 249.807 93.472 250.137C94.7929 250.466 103.709 252.445 104.039 250.137C104.37 247.828 101.398 242.881 101.398 242.881L99.086 230.348Z" fill="#2F2E41"/>
<path d="M129.467 226.06C129.467 226.06 131.118 231.008 130.458 231.667C129.798 232.327 127.156 239.912 128.807 240.902C130.458 241.891 138.714 245.849 139.705 248.817C140.695 251.786 154.895 252.116 153.574 249.477C152.253 246.839 143.667 239.253 143.667 239.253L139.044 224.741L129.467 226.06Z" fill="#2F2E41"/>
<path d="M82.2441 67.4204C87.898 67.4204 92.4813 62.8429 92.4813 57.1962C92.4813 51.5496 87.898 46.972 82.2441 46.972C76.5903 46.972 72.0069 51.5496 72.0069 57.1962C72.0069 62.8429 76.5903 67.4204 82.2441 67.4204Z" fill="#FFB8B8"/>
<path d="M74.8139 61.9787L69.8604 76.1606L86.7022 78.7991C86.7022 78.7991 83.7301 65.2768 85.7115 61.9787C87.6929 58.6805 74.8139 61.9787 74.8139 61.9787Z" fill="#FFB8B8"/>
<path d="M130.788 157.13C130.184 168.296 112.435 169.521 109.425 169.648C109.303 169.653 109.182 169.617 109.084 169.544C108.986 169.472 108.915 169.368 108.884 169.25L105.424 156.168C105.391 156.042 105.313 155.933 105.205 155.86C105.097 155.788 104.966 155.757 104.837 155.774C104.708 155.791 104.589 155.854 104.503 155.951C104.417 156.049 104.37 156.175 104.37 156.305V169.291C104.369 169.4 104.336 169.507 104.273 169.597C104.21 169.687 104.122 169.756 104.019 169.795C83.202 177.576 74.7236 165.708 73.7534 164.208C73.691 164.111 73.662 163.996 73.6709 163.881L77.1783 116.434L77.2906 114.913C77.2114 114.874 77.1321 114.831 77.0495 114.782C70.3113 110.879 60.9154 83.3302 59.6106 79.4241C59.5686 79.298 59.5751 79.1608 59.629 79.0393C59.6828 78.9178 59.7801 78.8207 59.9018 78.7669L68.2344 75.0683C68.3259 75.0277 68.4041 74.9623 68.4603 74.8796L71.5745 70.2934C71.6211 70.2244 71.6832 70.1673 71.7558 70.1265C71.8285 70.0857 71.9097 70.0625 71.9929 70.0587C72.0762 70.0548 72.1591 70.0705 72.2352 70.1044C72.3114 70.1382 72.3785 70.1894 72.4313 70.2538C73.5499 71.6157 76.2121 74.0377 77.0403 74.7822C77.1153 74.8496 77.2079 74.8943 77.3073 74.9112C77.4068 74.9281 77.509 74.9164 77.602 74.8776L85.3531 71.6779C85.426 71.6478 85.5048 71.6342 85.5836 71.6379L95.9335 72.1364C97.316 72.2029 98.6388 72.7189 99.7006 73.6057C100.762 74.4924 101.505 75.7014 101.815 77.0486L108.314 105.271C108.326 105.322 108.345 105.371 108.371 105.416C108.416 105.494 108.5 105.638 108.62 105.844C108.933 106.385 109.492 107.361 110.231 108.677C115.749 118.459 131.333 147.08 130.788 157.13Z" fill="#2F2E41"/>
<path d="M62.5953 80.448L59.9534 78.799C59.9534 78.799 54.0092 82.4269 54.0092 85.725C54.0092 89.0231 46.0836 101.886 46.0836 101.886L28.9116 115.408L38.1581 122.994L68.8697 100.896L62.5953 80.448Z" fill="#2F2E41"/>
<path d="M321.356 251.291H37.1674V251.951H321.356V251.291Z" fill="#D9D8D8"/>
<path d="M67.1261 45.0922C69.7305 45.0922 71.8418 42.9836 71.8418 40.3825C71.8418 37.7813 69.7305 35.6727 67.1261 35.6727C64.5216 35.6727 62.4103 37.7813 62.4103 40.3825C62.4103 42.9836 64.5216 45.0922 67.1261 45.0922Z" fill="#2F2E41"/>
<path d="M61.5121 39.7096C61.5123 38.5383 61.9495 37.4092 62.7384 36.5425C63.5273 35.6759 64.6113 35.1339 65.7787 35.0225C65.6308 35.0085 65.4812 34.9999 65.3296 34.9999C64.0789 34.9999 62.8794 35.4961 61.9951 36.3793C61.1107 37.2626 60.6139 38.4605 60.6139 39.7096C60.6139 40.9587 61.1107 42.1566 61.9951 43.0399C62.8794 43.9231 64.0789 44.4193 65.3296 44.4193C65.4812 44.4193 65.6308 44.4107 65.7787 44.3967C64.6113 44.2853 63.5273 43.7433 62.7384 42.8767C61.9495 42.01 61.5123 40.8809 61.5121 39.7096Z" fill="#2F2E41"/>
<path d="M88.8066 51.6389L90.7643 52.3498C91.3709 51.9695 92.7238 51.2178 92.7761 51.188C92.653 50.2677 91.1886 45.6212 90.7745 44.8909C88.0996 43.952 85.38 43.0988 82.5745 42.7224C79.3586 42.2865 75.9861 42.5026 73.0389 43.8663C70.0954 45.2263 67.6406 47.8456 66.9654 51.0126C66.6333 52.5626 66.693 54.2803 65.7603 55.562C65.5732 55.8176 65.3537 56.048 65.1075 56.2475C66.0876 59.0296 67.8331 61.4793 70.1439 63.3156C71.4851 64.3833 72.994 65.2218 74.6095 65.7971L74.8333 65.8753C74.8333 65.8604 74.8296 65.8418 74.8296 65.8269C74.8184 65.7188 74.811 65.6108 74.7998 65.5027C74.7438 64.8805 74.6841 64.2657 74.6282 63.6435C74.5647 62.9132 74.5013 62.1531 74.7699 61.4713C75.0423 60.7894 75.7548 60.2231 76.4711 60.3759C77.1911 60.5286 77.5567 61.6278 76.9486 62.0376C77.7171 62.645 78.8848 62.4587 79.6795 61.8923C80.4778 61.3223 81.0001 60.4616 81.5448 59.6493C83.7139 56.4058 86.8675 54.9231 90.1207 52.7638L88.8066 51.6389Z" fill="#2F2E41"/>
<path d="M77.1783 116.434L77.2906 114.913C77.2114 114.874 77.1321 114.831 77.0495 114.782C83.849 113.106 102.259 108.469 108.62 105.844C108.933 106.385 109.492 107.361 110.231 108.677C102.223 110.445 84.0439 114.511 77.1783 116.434Z" fill="#CFCCE0"/>
<path d="M0.455647 158.793L4.54604 122.577L79.8583 131.062L75.7679 167.277L0.455647 158.793Z" fill="white" stroke="black" stroke-width="0.823991"/>
<path opacity="0.1" d="M93.6371 89.353L97.5998 104.195L90.3347 115.408L93.6371 104.195V89.353Z" fill="black"/>
<path d="M71.8418 68.9047C71.8418 68.9047 68.2092 74.1817 68.8697 74.8413C69.5302 75.5009 77.1255 76.8202 77.1255 76.8202V74.8413L71.8418 68.9047Z" fill="#CFCCE0"/>
<path d="M85.3813 68.9047C85.3813 68.9047 89.0139 74.1817 88.3534 74.8413C87.6929 75.5009 77.1255 76.8202 77.1255 76.8202V74.8413L85.3813 68.9047Z" fill="#CFCCE0"/>
<path d="M104.205 154.986C105.299 154.986 106.186 154.1 106.186 153.007C106.186 151.914 105.299 151.028 104.205 151.028C103.11 151.028 102.223 151.914 102.223 153.007C102.223 154.1 103.11 154.986 104.205 154.986Z" fill="#CFCCE0"/>
<path d="M101.893 147.4C102.987 147.4 103.874 146.514 103.874 145.421C103.874 144.328 102.987 143.442 101.893 143.442C100.799 143.442 99.9115 144.328 99.9115 145.421C99.9115 146.514 100.799 147.4 101.893 147.4Z" fill="#CFCCE0"/>
<path d="M99.9115 139.814C101.006 139.814 101.893 138.928 101.893 137.836C101.893 136.743 101.006 135.857 99.9115 135.857C98.8173 135.857 97.9302 136.743 97.9302 137.836C97.9302 138.928 98.8173 139.814 99.9115 139.814Z" fill="#CFCCE0"/>
<path d="M97.9301 131.899C99.0244 131.899 99.9115 131.013 99.9115 129.92C99.9115 128.827 99.0244 127.941 97.9301 127.941C96.8358 127.941 95.9487 128.827 95.9487 129.92C95.9487 131.013 96.8358 131.899 97.9301 131.899Z" fill="#CFCCE0"/>
<path d="M95.2883 124.313C96.3826 124.313 97.2697 123.427 97.2697 122.334C97.2697 121.241 96.3826 120.355 95.2883 120.355C94.194 120.355 93.3069 121.241 93.3069 122.334C93.3069 123.427 94.194 124.313 95.2883 124.313Z" fill="#CFCCE0"/>
<path d="M93.472 116.233L82.5743 125.468C82.5743 125.468 70.686 135.692 75.9697 138.33C81.2534 140.969 87.5278 127.776 87.5278 127.776L102.058 117.222L93.472 116.233Z" fill="#FFB8B8"/>
<path d="M97.1045 73.3571C98.2295 73.0472 99.4219 73.084 100.525 73.4629C101.629 73.8417 102.592 74.5448 103.289 75.48C104.124 76.5492 104.82 77.7198 105.36 78.9639C106.351 81.6024 108.332 120.19 108.332 120.19L90.1697 117.552L97.1045 104.03V73.3571Z" fill="#2F2E41"/>
<path d="M155.828 133.704H155.168V150.719H155.828V133.704Z" fill="#D9D8D8"/>
<path d="M263.473 251.816H170.944C166.761 251.811 162.751 250.148 159.793 247.194C156.835 244.239 155.172 240.233 155.168 236.055V180.815H155.828V236.055C155.832 240.058 157.426 243.896 160.26 246.727C163.094 249.559 166.936 251.151 170.944 251.156H263.473C267.482 251.152 271.325 249.559 274.16 246.728C276.994 243.897 278.589 240.059 278.593 236.055V180.024H279.254V236.055C279.249 240.234 277.585 244.24 274.626 247.195C271.668 250.149 267.657 251.811 263.473 251.816Z" fill="#D9D8D8"/>
<path d="M279.254 133.75H278.593V150.368H279.254V133.75Z" fill="#D9D8D8"/>
<path d="M279.254 104.021H278.593V87.831H279.629C279.804 87.8308 279.972 87.7612 280.096 87.6375C280.22 87.5137 280.289 87.3459 280.29 87.1709V58.7808C280.289 58.6058 280.22 58.438 280.096 58.3143C279.972 58.1906 279.804 58.121 279.629 58.1208H278.593V16.3902C278.588 12.387 276.993 8.54927 274.159 5.71898C271.324 2.8887 267.481 1.29698 263.473 1.29305H170.944C166.937 1.29759 163.094 2.88965 160.261 5.71993C157.427 8.55021 155.833 12.3876 155.828 16.3902V103.974H155.168V16.3902C155.172 12.2127 156.836 8.20767 159.794 5.25373C162.751 2.29978 166.762 0.63817 170.944 0.633423H263.473C267.656 0.637558 271.667 2.29883 274.626 5.25278C277.584 8.20673 279.249 12.2121 279.254 16.3902V57.4612H279.629C279.979 57.4616 280.315 57.6008 280.563 57.8482C280.81 58.0955 280.95 58.4309 280.95 58.7808V87.1709C280.95 87.5208 280.81 87.8562 280.563 88.1037C280.315 88.3511 279.979 88.4903 279.629 88.4907H279.254V104.021Z" fill="#D9D8D8"/>
<path d="M221.927 8.87634H206.37C205.907 8.87634 205.531 9.25168 205.531 9.71469V11.5333C205.531 11.9963 205.907 12.3717 206.37 12.3717H221.927C222.391 12.3717 222.767 11.9963 222.767 11.5333V9.71469C222.767 9.25168 222.391 8.87634 221.927 8.87634Z" fill="#E6E8EC"/>
<path d="M227.358 12.6065C228.454 12.6065 229.343 11.7189 229.343 10.6239C229.343 9.52899 228.454 8.64136 227.358 8.64136C226.261 8.64136 225.373 9.52899 225.373 10.6239C225.373 11.7189 226.261 12.6065 227.358 12.6065Z" fill="#E6E8EC"/>
<path d="M271.525 19.4418V237.334C271.524 239.93 270.49 242.419 268.652 244.254C266.814 246.089 264.321 247.12 261.722 247.12H173.15C171.862 247.123 170.587 246.871 169.396 246.38C168.206 245.889 167.125 245.168 166.214 244.259C165.304 243.35 164.582 242.271 164.09 241.082C163.597 239.894 163.345 238.62 163.347 237.334V19.4418C163.347 18.1561 163.6 16.883 164.093 15.6951C164.585 14.5073 165.307 13.4279 166.218 12.5188C167.128 11.6097 168.209 10.8885 169.398 10.3965C170.587 9.90452 171.862 9.65132 173.15 9.65137H186.406V11.3501C186.406 13.4881 187.257 15.5386 188.77 17.0504C190.284 18.5622 192.337 19.4115 194.478 19.4116H239.524C241.664 19.4115 243.717 18.5622 245.231 17.0504C246.745 15.5386 247.595 13.4881 247.595 11.3501V9.65137H261.722C263.009 9.65095 264.284 9.9039 265.474 10.3958C266.663 10.8876 267.744 11.6088 268.654 12.518C269.565 13.4272 270.287 14.5067 270.779 15.6947C271.272 16.8827 271.525 18.156 271.525 19.4418Z" fill="#F8F8F8"/>
<path opacity="0.2" d="M255.451 193.244H178.837V230.513H255.451V193.244Z" fill="black"/>
<path d="M284.741 134.087H150.13V103.64H284.741V134.087ZM150.922 133.296H283.949V104.431H150.922V133.296Z" fill="#3F3D56"/>
<path d="M175.865 113.921H160.82V128.947H175.865V113.921Z" fill="#3CECEC"/>
<path d="M173.885 126.97H158.049V111.153H173.885V126.97ZM158.84 126.179H173.093V111.944H158.84V126.179Z" fill="#3F3D56"/>
<path d="M269.3 114.317H198.828V115.107H269.3V114.317Z" fill="#3F3D56"/>
<path d="M269.3 119.852H198.828V120.643H269.3V119.852Z" fill="#3F3D56"/>
<path d="M269.3 125.388H198.828V126.179H269.3V125.388Z" fill="#3F3D56"/>
<path d="M27.8874 138.079L12.7144 136.397L11.0349 151.551L26.2078 153.233L27.8874 138.079Z" fill="#3CECEC"/>
<path d="M24.4324 151.017L8.4609 149.247L10.2289 133.296L26.2003 135.066L24.4324 151.017ZM9.34788 148.538L23.7222 150.131L25.3134 135.775L10.9391 134.182L9.34788 148.538Z" fill="#3F3D56"/>
<path d="M92.8745 146.941L37.2926 139.064L37.2234 139.861L92.8054 147.739L92.8745 146.941Z" fill="#3F3D56"/>
<path d="M92.3906 152.524L36.8086 144.647L36.7395 145.444L92.3215 153.322L92.3906 152.524Z" fill="#3F3D56"/>
<path d="M91.9067 158.107L36.3247 150.23L36.2556 151.027L91.8376 158.905L91.9067 158.107Z" fill="#3F3D56"/>
<path d="M284.741 180.815H150.13V150.368H284.741V180.815ZM150.922 180.024H283.949V151.159H150.922V180.024Z" fill="#3F3D56"/>
<path d="M259.007 175.674H274.051V160.649H259.007V175.674Z" fill="#3CECEC"/>
<path d="M276.823 173.697H260.986V157.881H276.823V173.697ZM261.778 172.907H276.031V158.672H261.778L261.778 172.907Z" fill="#3F3D56"/>
<path d="M236.044 161.044H165.571V161.835H236.044V161.044Z" fill="#3F3D56"/>
<path d="M236.044 166.58H165.571V167.371H236.044V166.58Z" fill="#3F3D56"/>
<path d="M236.044 172.116H165.571V172.907H236.044V172.116Z" fill="#3F3D56"/>
<path d="M252.523 55.0786H182.051V55.8694H252.523V55.0786Z" fill="#3F3D56"/>
<path d="M252.523 60.6145H182.051V61.4053H252.523V60.6145Z" fill="#3F3D56"/>
<path d="M252.523 66.1503H182.051V66.9411H252.523V66.1503Z" fill="#3F3D56"/>
</g>
<defs>
<clipPath id="clip0">
<rect width="321.357" height="251.317" fill="white" transform="translate(0 0.633423)"/>
</clipPath>
</defs>
</svg>
