<svg width="63" height="74" viewBox="0 0 63 74" fill="none" xmlns="http://www.w3.org/2000/svg">
<path d="M46.1973 56.6755L46.1981 56.4247H46.1955L46.1919 15.7938C46.1919 15.3427 45.8267 14.9765 45.3764 14.9765H14.9409C14.4892 14.9765 14.1236 15.3422 14.1236 15.7938L14.1236 56.6747L14.1236 56.6763C14.1249 56.8922 14.2115 57.0988 14.3644 57.2512C14.5173 57.4037 14.7242 57.4895 14.9401 57.4902H14.9409H45.38C45.5963 57.4902 45.8038 57.4045 45.957 57.2518C46.1102 57.0991 46.1966 56.8918 46.1973 56.6755ZM12.8384 10.8184H47.4752H47.4771C48.9064 10.8184 50.0636 11.9784 50.0636 13.4085V59.2884C50.0636 60.7161 48.907 61.8731 47.4752 61.8731H12.8384C11.4067 61.8731 10.25 60.7162 10.25 59.2865V13.4067C10.25 11.9787 11.4087 10.8184 12.8384 10.8184Z" fill="#E0E0E0" stroke="white" stroke-width="0.5"/>
<rect x="35" y="24" width="25" height="25" fill="white"/>
<circle cx="29.75" cy="59.75" r="0.75" fill="white"/>
<path fill-rule="evenodd" clip-rule="evenodd" d="M50.3424 27.3966C50.5489 26.7705 50.6522 26.2041 50.6522 25.6973C50.6396 25.6824 50.6334 25.6452 50.6334 25.5856L50.6313 25.4166L50.6146 25.3173C50.6021 25.2576 50.5896 25.2129 50.5771 25.1831C49.3507 25.5259 48.4778 26.1445 47.9585 27.0388C47.4391 27.9332 47.1669 28.9989 47.1419 30.2361C47.6175 30.1914 47.9804 30.1168 48.2306 30.0125C48.6061 29.8634 48.9815 29.5653 49.3569 29.1182C49.8074 28.5965 50.1359 28.0226 50.3424 27.3966ZM53.2989 43.4498C53.8871 42.4213 54.3126 41.3854 54.5754 40.342C53.9497 40.1334 53.399 39.6117 52.9235 38.7769C52.448 37.9422 52.2102 37.0106 52.2102 35.9822C52.2102 35.0431 52.4354 34.1861 52.886 33.411C53.1362 32.9787 53.5367 32.4868 54.0873 31.9353C53.7244 31.3987 53.3615 30.9814 52.9986 30.6833C52.3353 30.1466 51.5907 29.8784 50.7648 29.8784C50.2642 29.8784 49.6635 30.02 48.9627 30.3032L48.709 30.4027C48.1383 30.6196 47.716 30.728 47.4422 30.728C47.2573 30.728 46.9248 30.6513 46.4446 30.498L45.6927 30.247C45.0981 30.0609 44.5863 29.9678 44.1572 29.9678C42.9559 29.9678 41.961 30.5715 41.1726 31.7788C40.3842 32.9862 39.99 34.5363 39.99 36.4293C39.99 38.4416 40.5062 40.5321 41.5386 42.7008C42.5711 44.8696 43.6191 45.954 44.6828 45.954C45.0458 45.954 45.5088 45.8124 46.0719 45.5292L46.3483 45.3993C46.8002 45.2027 47.2086 45.1043 47.5736 45.1043C48.0117 45.1043 48.531 45.2385 49.1317 45.5068C49.7699 45.7751 50.258 45.9092 50.5958 45.9092C51.4969 45.9092 52.3979 45.0894 53.2989 43.4498Z" fill="#E0E0E0"/>
</svg>
