<svg width="63" height="73" viewBox="0 0 63 73" fill="none" xmlns="http://www.w3.org/2000/svg">
<path d="M46.0806 21.0664C46.0806 18.7085 46.0806 15.1718 46.0806 10.4561C46.0806 7.9983 44.3799 6 42.2881 6H14.7925C12.7007 6 11 7.9983 11 10.4561V63.9297C11 66.3875 12.7007 68.3858 14.7925 68.3858H42.2881C44.3799 68.3858 46.0806 66.3875 46.0806 63.9297C46.0806 58.1535 46.0806 53.9521 46.0806 51.3254" stroke="#E0E0E0" stroke-width="2.38043"/>
<path d="M26.17 56.2704C26.17 57.8086 27.2312 59.0555 28.5403 59.0555C29.8494 59.0555 30.9106 57.8086 30.9106 56.2704C30.9106 54.7323 29.8494 53.4854 28.5403 53.4854C27.2312 53.4854 26.17 54.7323 26.17 56.2704Z" fill="#E0E0E0"/>
<path fill-rule="evenodd" clip-rule="evenodd" d="M48.854 26.296C49.0633 25.67 49.1679 25.1036 49.1679 24.5968C49.1553 24.5819 49.1489 24.5446 49.1489 24.485L49.1468 24.316L49.1299 24.2167C49.1172 24.157 49.1045 24.1123 49.0918 24.0825C47.8486 24.4253 46.9638 25.0439 46.4373 25.9383C45.9109 26.8326 45.635 27.8983 45.6096 29.1355C46.0917 29.0908 46.4595 29.0162 46.7133 28.9119C47.0938 28.7629 47.4744 28.4647 47.855 28.0176C48.3117 27.4959 48.6447 26.922 48.854 26.296ZM51.851 42.3492C52.4472 41.3208 52.8785 40.2848 53.1449 39.2414C52.5106 39.0328 51.9525 38.5111 51.4704 37.6764C50.9883 36.8417 50.7473 35.9101 50.7473 34.8816C50.7473 33.9425 50.9757 33.0855 51.4323 32.3104C51.6861 31.8781 52.092 31.3862 52.6502 30.8347C52.2823 30.2981 51.9144 29.8808 51.5465 29.5827C50.8742 29.0461 50.1194 28.7778 49.2821 28.7778C48.7747 28.7778 48.1658 28.9194 47.4554 29.2026L47.1982 29.3021C46.6196 29.519 46.1916 29.6274 45.9141 29.6274C45.7266 29.6274 45.3895 29.5507 44.9027 29.3975L44.1405 29.1465C43.5378 28.9603 43.019 28.8672 42.5841 28.8672C41.3662 28.8672 40.3577 29.4709 39.5585 30.6782C38.7593 31.8856 38.3597 33.4357 38.3597 35.3287C38.3597 37.341 38.883 39.4315 39.9296 41.6002C40.9761 43.769 42.0386 44.8534 43.1169 44.8534C43.4847 44.8534 43.9541 44.7118 44.525 44.4286L44.8051 44.2988C45.2632 44.1021 45.6773 44.0038 46.0473 44.0038C46.4913 44.0038 47.0177 44.1379 47.6266 44.4062C48.2736 44.6745 48.7683 44.8087 49.1109 44.8087C50.0242 44.8087 50.9376 43.9889 51.851 42.3492Z" fill="#E0E0E0"/>
</svg>
