<svg width="48" height="80" viewBox="0 0 48 80" fill="none" xmlns="http://www.w3.org/2000/svg">
<path fill-rule="evenodd" clip-rule="evenodd" d="M0.952492 23.569C0.952492 10.9224 11.4288 0.5625 24.2175 0.5625C37.0062 0.5625 47.4825 10.9224 47.4825 23.569C47.4825 35.0823 38.7531 44.864 27.3055 46.4077L26.3325 46.5389V54.4905L26.8036 54.8233C27.7919 55.5214 28.4025 56.7101 28.4025 58.012V75.1C28.4025 77.3336 26.4762 79.2385 24.2175 79.2385C21.9588 79.2385 20.1225 77.4226 20.1225 75.189V58.012C20.1225 56.7367 20.7104 55.6103 21.7625 54.7928L22.1925 54.4587V46.5379L21.2184 46.4075C9.66356 44.8611 0.952492 35.1542 0.952492 23.569ZM44.8725 23.48C44.8725 12.2154 35.5791 3.0545 24.2175 3.0545C12.8264 3.0545 3.5625 12.2446 3.5625 23.48C3.5625 34.7446 12.8559 43.9055 24.2175 43.9055C35.6388 43.9055 44.8725 34.7744 44.8725 23.48Z" fill="#979797"/>
</svg>
