<svg width="68" height="68" viewBox="0 0 68 68" fill="none" xmlns="http://www.w3.org/2000/svg">
<path d="M17 29.75H29.75V34H17V29.75Z" fill="#E0E0E0" stroke="white"/>
<path d="M17 12.75H42.5V17H17V12.75Z" fill="#E0E0E0" stroke="white"/>
<path d="M17 21.25H42.5V25.5H17V21.25Z" fill="#E0E0E0" stroke="white"/>
<path d="M17 51H29.75V55.25H17V51Z" fill="#E0E0E0" stroke="white"/>
<path d="M63.75 51V46.75H59.2854C59.0113 45.4198 58.4832 44.155 57.7299 43.0249L60.8961 39.8586L57.8914 36.8539L54.7251 40.0201C53.595 39.2668 52.3302 38.7387 51 38.4646V34H46.75V38.4646C45.4198 38.7387 44.155 39.2668 43.0249 40.0201L39.8586 36.8539L36.8539 39.8586L40.0201 43.0249C39.2668 44.155 38.7387 45.4198 38.4646 46.75H34V51H38.4646C38.7387 52.3302 39.2668 53.595 40.0201 54.7251L36.8539 57.8914L39.8586 60.8961L43.0249 57.7299C44.155 58.4832 45.4198 59.0113 46.75 59.2854V63.75H51V59.2854C52.3302 59.0113 53.595 58.4832 54.7251 57.7299L57.8914 60.8961L60.8961 57.8914L57.7299 54.7251C58.4832 53.595 59.0113 52.3302 59.2854 51H63.75ZM48.875 55.25C47.6141 55.25 46.3816 54.8761 45.3332 54.1756C44.2849 53.4751 43.4678 52.4795 42.9853 51.3146C42.5028 50.1497 42.3765 48.8679 42.6225 47.6313C42.8685 46.3947 43.4756 45.2588 44.3672 44.3672C45.2588 43.4756 46.3947 42.8685 47.6313 42.6225C48.8679 42.3765 50.1497 42.5028 51.3146 42.9853C52.4795 43.4678 53.4751 44.2849 54.1756 45.3332C54.8761 46.3816 55.25 47.6141 55.25 48.875C55.2483 50.5652 54.5761 52.1858 53.3809 53.3809C52.1858 54.5761 50.5652 55.2483 48.875 55.25Z" fill="#E0E0E0" stroke="white"/>
<path d="M29.75 63.75H12.75C11.6232 63.7489 10.5428 63.3007 9.74604 62.504C8.94925 61.7072 8.50113 60.6268 8.5 59.5V8.5C8.50113 7.37318 8.94925 6.29282 9.74604 5.49604C10.5428 4.69925 11.6232 4.25113 12.75 4.25H46.75C47.8768 4.25113 48.9572 4.69925 49.754 5.49604C50.5507 6.29282 50.9989 7.37318 51 8.5V29.75H46.75V8.5H12.75V59.5H29.75V63.75Z" fill="#E0E0E0" stroke="white"/>
</svg>
