<svg width="304" height="200" viewBox="0 0 304 200" fill="none" xmlns="http://www.w3.org/2000/svg">
<g clip-path="url(#clip0)">
<path d="M181.302 116.956H54.2231C53.3557 116.955 52.524 116.611 51.9106 115.999C51.2972 115.387 50.9522 114.558 50.9512 113.693V35.5594C50.9519 34.9257 51.2046 34.3182 51.654 33.8701C52.1034 33.422 52.7127 33.1699 53.3482 33.1692H182.135C182.782 33.1699 183.402 33.4263 183.859 33.8822C184.316 34.338 184.573 34.9561 184.574 35.6007V113.693C184.573 114.558 184.228 115.387 183.615 115.999C183.001 116.611 182.17 116.955 181.302 116.956Z" fill="#F2F2F2"/>
<path d="M177.193 112.836H58.759C57.0229 112.836 55.6105 111.518 55.6105 109.897V41.8567C55.6105 40.6545 56.6571 39.6764 57.9436 39.6764H177.97C179.278 39.6764 180.342 40.6706 180.342 41.8926V109.897C180.342 111.518 178.929 112.836 177.193 112.836Z" fill="white"/>
<path d="M184.528 35.9659H50.9053V34.3049C50.9065 33.437 51.253 32.6051 51.8686 31.9916C52.4842 31.3781 53.3188 31.0332 54.1891 31.0325H181.245C182.115 31.0332 182.95 31.3781 183.565 31.9916C184.181 32.6051 184.527 33.437 184.528 34.3049V35.9659Z" fill="#3F3D56"/>
<path d="M56.8732 34.351C57.3423 34.351 57.7226 33.9718 57.7226 33.5041C57.7226 33.0363 57.3423 32.6571 56.8732 32.6571C56.4041 32.6571 56.0238 33.0363 56.0238 33.5041C56.0238 33.9718 56.4041 34.351 56.8732 34.351Z" fill="white"/>
<path d="M60.0973 34.351C60.5664 34.351 60.9467 33.9718 60.9467 33.5041C60.9467 33.0363 60.5664 32.6571 60.0973 32.6571C59.6282 32.6571 59.2479 33.0363 59.2479 33.5041C59.2479 33.9718 59.6282 34.351 60.0973 34.351Z" fill="white"/>
<path d="M63.3215 34.351C63.7906 34.351 64.1709 33.9718 64.1709 33.5041C64.1709 33.0363 63.7906 32.6571 63.3215 32.6571C62.8523 32.6571 62.472 33.0363 62.472 33.5041C62.472 33.9718 62.8523 34.351 63.3215 34.351Z" fill="white"/>
<path d="M115.166 54.5533H92.0032C91.6579 54.5533 91.3267 54.4165 91.0825 54.173C90.8383 53.9296 90.7012 53.5993 90.7012 53.255C90.7012 52.9106 90.8383 52.5804 91.0825 52.3369C91.3267 52.0935 91.6579 51.9567 92.0032 51.9567H115.166C115.512 51.9567 115.843 52.0935 116.087 52.3369C116.331 52.5804 116.468 52.9106 116.468 53.255C116.468 53.5993 116.331 53.9296 116.087 54.173C115.843 54.4165 115.512 54.5533 115.166 54.5533Z" fill="#CCCCCC"/>
<path d="M143.949 54.5533H120.786C120.441 54.5533 120.109 54.4165 119.865 54.173C119.621 53.9296 119.484 53.5993 119.484 53.255C119.484 52.9106 119.621 52.5804 119.865 52.3369C120.109 52.0935 120.441 51.9567 120.786 51.9567H143.949C144.294 51.9567 144.626 52.0935 144.87 52.3369C145.114 52.5804 145.251 52.9106 145.251 53.255C145.251 53.5993 145.114 53.9296 144.87 54.173C144.626 54.4165 144.294 54.5533 143.949 54.5533Z" fill="#CCCCCC"/>
<path d="M143.949 59.4733H103.653C103.308 59.4733 102.977 59.3366 102.733 59.0931C102.488 58.8496 102.351 58.5194 102.351 58.175C102.351 57.8307 102.488 57.5005 102.733 57.257C102.977 57.0135 103.308 56.8767 103.653 56.8767H143.949C144.294 56.8767 144.626 57.0135 144.87 57.257C145.114 57.5005 145.251 57.8307 145.251 58.175C145.251 58.5194 145.114 58.8496 144.87 59.0931C144.626 59.3366 144.294 59.4733 143.949 59.4733Z" fill="#CCCCCC"/>
<path d="M115.167 49.5651H92.0033C91.6583 49.5647 91.3275 49.4277 91.0837 49.1843C90.8398 48.9409 90.7029 48.6109 90.7029 48.2668C90.7029 47.9228 90.8398 47.5928 91.0837 47.3493C91.3275 47.1059 91.6583 46.9689 92.0033 46.9685H115.167C115.338 46.9683 115.507 47.0017 115.665 47.0669C115.823 47.132 115.967 47.2276 116.088 47.3482C116.209 47.4688 116.305 47.612 116.371 47.7696C116.436 47.9272 116.47 48.0962 116.47 48.2668C116.47 48.4375 116.436 48.6064 116.371 48.764C116.305 48.9217 116.209 49.0649 116.088 49.1854C115.967 49.306 115.823 49.4016 115.665 49.4668C115.507 49.5319 115.338 49.5654 115.167 49.5651Z" fill="#CCCCCC"/>
<path d="M127.913 49.6334H121.334C120.989 49.6334 120.658 49.4966 120.414 49.2531C120.169 49.0096 120.032 48.6794 120.032 48.3351C120.032 47.9907 120.169 47.6605 120.414 47.417C120.658 47.1735 120.989 47.0367 121.334 47.0367H127.913C128.259 47.0367 128.59 47.1735 128.834 47.417C129.078 47.6605 129.215 47.9907 129.215 48.3351C129.215 48.6794 129.078 49.0096 128.834 49.2531C128.59 49.4966 128.259 49.6334 127.913 49.6334Z" fill="#CCCCCC"/>
<path d="M98.5822 59.4733H92.0033C91.6583 59.4729 91.3275 59.336 91.0837 59.0925C90.8398 58.8491 90.7029 58.5191 90.7029 58.175C90.7029 57.831 90.8398 57.501 91.0837 57.2575C91.3275 57.0141 91.6583 56.8771 92.0033 56.8767H98.5822C98.7534 56.8765 98.9229 56.9099 99.081 56.9751C99.2392 57.0402 99.3829 57.1358 99.504 57.2564C99.6251 57.377 99.7211 57.5202 99.7866 57.6778C99.8522 57.8354 99.8859 58.0044 99.8859 58.175C99.8859 58.3457 99.8522 58.5146 99.7866 58.6722C99.7211 58.8299 99.6251 58.9731 99.504 59.0936C99.3829 59.2142 99.2392 59.3098 99.081 59.375C98.9229 59.4401 98.7534 59.4736 98.5822 59.4733Z" fill="#CCCCCC"/>
<path d="M115.166 100.624H92.0032C91.6579 100.624 91.3267 100.488 91.0825 100.244C90.8383 100.001 90.7012 99.6704 90.7012 99.326C90.7012 98.9817 90.8383 98.6515 91.0825 98.408C91.3267 98.1645 91.6579 98.0277 92.0032 98.0277H115.166C115.337 98.0277 115.507 98.0613 115.665 98.1265C115.823 98.1918 115.966 98.2874 116.087 98.408C116.208 98.5285 116.304 98.6717 116.369 98.8292C116.435 98.9867 116.468 99.1555 116.468 99.326C116.468 99.4965 116.435 99.6654 116.369 99.8229C116.304 99.9804 116.208 100.124 116.087 100.244C115.966 100.365 115.823 100.46 115.665 100.526C115.507 100.591 115.337 100.624 115.166 100.624Z" fill="#CCCCCC"/>
<path d="M143.949 100.624H120.786C120.441 100.624 120.109 100.488 119.865 100.244C119.621 100.001 119.484 99.6704 119.484 99.326C119.484 98.9817 119.621 98.6515 119.865 98.408C120.109 98.1645 120.441 98.0277 120.786 98.0277H143.949C144.12 98.0277 144.289 98.0613 144.447 98.1265C144.605 98.1918 144.749 98.2874 144.87 98.408C144.991 98.5285 145.087 98.6717 145.152 98.8292C145.218 98.9867 145.251 99.1555 145.251 99.326C145.251 99.4965 145.218 99.6654 145.152 99.8229C145.087 99.9804 144.991 100.124 144.87 100.244C144.749 100.365 144.605 100.46 144.447 100.526C144.289 100.591 144.12 100.624 143.949 100.624Z" fill="#CCCCCC"/>
<path d="M143.949 105.544H103.653C103.308 105.544 102.977 105.408 102.733 105.164C102.488 104.921 102.351 104.59 102.351 104.246C102.351 103.902 102.488 103.572 102.733 103.328C102.977 103.085 103.308 102.948 103.653 102.948H143.949C144.12 102.948 144.29 102.981 144.448 103.046C144.606 103.111 144.75 103.207 144.871 103.327C144.992 103.448 145.088 103.591 145.153 103.749C145.219 103.906 145.253 104.075 145.253 104.246C145.253 104.417 145.219 104.586 145.153 104.743C145.088 104.901 144.992 105.044 144.871 105.165C144.75 105.285 144.606 105.381 144.448 105.446C144.29 105.511 144.12 105.545 143.949 105.544Z" fill="#CCCCCC"/>
<path d="M115.166 95.6361H92.0032C91.6579 95.6361 91.3267 95.4993 91.0825 95.2558C90.8384 95.0123 90.7012 94.6821 90.7012 94.3377C90.7012 93.9934 90.8384 93.6632 91.0825 93.4197C91.3267 93.1762 91.6579 93.0394 92.0032 93.0394H115.166C115.512 93.0394 115.843 93.1762 116.087 93.4197C116.331 93.6632 116.468 93.9934 116.468 94.3377C116.468 94.6821 116.331 95.0123 116.087 95.2558C115.843 95.4993 115.512 95.6361 115.166 95.6361Z" fill="#CCCCCC"/>
<path d="M127.913 95.7044H121.334C120.989 95.7044 120.658 95.5676 120.414 95.3242C120.169 95.0807 120.032 94.7505 120.032 94.4061C120.032 94.0618 120.169 93.7315 120.414 93.4881C120.658 93.2446 120.989 93.1078 121.334 93.1078H127.913C128.259 93.1078 128.59 93.2446 128.834 93.4881C129.078 93.7315 129.215 94.0618 129.215 94.4061C129.215 94.7505 129.078 95.0807 128.834 95.3242C128.59 95.5676 128.259 95.7044 127.913 95.7044Z" fill="#CCCCCC"/>
<path d="M98.5821 105.544H92.0032C91.6579 105.544 91.3267 105.408 91.0825 105.164C90.8383 104.921 90.7012 104.59 90.7012 104.246C90.7012 103.902 90.8383 103.572 91.0825 103.328C91.3267 103.085 91.6579 102.948 92.0032 102.948H98.5821C98.7532 102.948 98.9227 102.981 99.0809 103.046C99.2391 103.111 99.3828 103.207 99.5039 103.327C99.6249 103.448 99.721 103.591 99.7865 103.749C99.8521 103.906 99.8858 104.075 99.8858 104.246C99.8858 104.417 99.8521 104.586 99.7865 104.743C99.721 104.901 99.6249 105.044 99.5039 105.165C99.3828 105.285 99.2391 105.381 99.0809 105.446C98.9227 105.511 98.7532 105.545 98.5821 105.544Z" fill="#CCCCCC"/>
<path d="M109.117 86.6859C108.625 86.687 108.153 86.4944 107.804 86.15L99.0964 77.5766C98.9254 77.4083 98.7897 77.2078 98.6971 76.9868C98.6045 76.7658 98.5568 76.5286 98.5568 76.2891C98.5568 76.0495 98.6045 75.8124 98.6971 75.5913C98.7897 75.3703 98.9254 75.1698 99.0964 75.0015L107.768 66.4627C108.13 66.1087 108.616 65.911 109.123 65.9126C109.629 65.9142 110.115 66.1149 110.474 66.4712C110.833 66.8303 111.035 67.317 111.035 67.8243C111.035 68.3316 110.833 68.8183 110.474 69.1774L104.03 75.603C103.829 75.8037 103.716 76.0755 103.716 76.359C103.716 76.6424 103.829 76.9143 104.03 77.1149L110.439 83.5056C110.701 83.7661 110.879 84.0981 110.951 84.4597C111.024 84.8213 110.987 85.1961 110.845 85.5367C110.703 85.8773 110.464 86.1684 110.156 86.3729C109.848 86.5775 109.487 86.6864 109.117 86.6859V86.6859Z" fill="#3CECEC"/>
<path d="M122.991 86.6859C122.622 86.6865 122.26 86.5775 121.952 86.3729C121.645 86.1684 121.405 85.8773 121.263 85.5367C121.122 85.1961 121.085 84.8213 121.157 84.4597C121.229 84.0981 121.408 83.7661 121.669 83.5056L128.078 77.115C128.279 76.9143 128.392 76.6424 128.392 76.359C128.392 76.0755 128.279 75.8037 128.078 75.603L121.634 69.1774C121.456 68.9998 121.315 68.7888 121.218 68.5566C121.122 68.3245 121.072 68.0756 121.072 67.8243C121.072 67.573 121.122 67.3242 121.218 67.092C121.315 66.8598 121.456 66.6489 121.634 66.4712C121.993 66.1149 122.479 65.9142 122.985 65.9126C123.492 65.911 123.979 66.1087 124.34 66.4627L133.012 75.0015C133.183 75.1698 133.319 75.3703 133.411 75.5913C133.504 75.8124 133.552 76.0495 133.552 76.2891C133.552 76.5286 133.504 76.7658 133.411 76.9868C133.319 77.2078 133.183 77.4083 133.012 77.5766L124.305 86.15C123.955 86.4944 123.483 86.687 122.991 86.6859Z" fill="#3CECEC"/>
</g>
<g clip-path="url(#clip1)">
<path d="M50.7288 130.517C50.7288 130.517 54.4182 136.377 53.1006 137.964C51.7829 139.55 62.9861 139.59 62.9861 139.59C62.9861 139.59 61.3033 131.066 61.7986 129.104L50.7288 130.517Z" fill="#FFB8B8"/>
<path d="M56.6251 132.641C63.0145 132.641 68.1941 127.454 68.1941 121.056C68.1941 114.657 63.0145 109.47 56.6251 109.47C50.2358 109.47 45.0562 114.657 45.0562 121.056C45.0562 127.454 50.2358 132.641 56.6251 132.641Z" fill="#2F2E41"/>
<path d="M83.8353 183.851V190.719L90.6935 189.288L90.1222 184.424L83.8353 183.851Z" fill="#FFB8B8"/>
<path d="M108.125 184.996L127.271 188.144L122.413 195.298C122.413 195.298 108.982 190.719 105.553 190.719C102.124 190.719 108.125 184.996 108.125 184.996Z" fill="#FFB8B8"/>
<path d="M64.6892 171.26C64.6892 171.26 78.9773 154.662 83.5495 155.521C88.1217 156.379 90.1221 161.53 90.1221 161.53L92.694 186.999C92.694 186.999 83.5495 187.857 83.5495 186.999C83.5495 186.14 81.835 167.826 81.835 167.826C81.835 167.826 68.4041 197.587 61.26 177.842L64.6892 171.26Z" fill="#D0CDE1"/>
<path d="M41.5424 182.42C41.5424 182.42 41.8281 197.413 50.401 198.271C58.9739 199.129 68.4041 191.864 68.4041 191.864L83.8353 184.461C83.8353 184.461 102.124 194.153 107.554 191.578C107.554 191.578 113.269 185.568 109.554 183.851C105.839 182.134 109.268 183.851 109.268 183.851L87.2645 172.404C87.2645 172.404 82.978 171.26 75.5482 174.408C68.1183 177.555 58.1166 178.986 58.1166 178.986L41.5424 182.42Z" fill="#D0CDE1"/>
<path d="M55.8306 133.486C60.5653 133.486 64.4035 129.642 64.4035 124.901C64.4035 120.159 60.5653 116.316 55.8306 116.316C51.0959 116.316 47.2577 120.159 47.2577 124.901C47.2577 129.642 51.0959 133.486 55.8306 133.486Z" fill="#FFB8B8"/>
<path d="M68.1183 148.939L67.5468 160.958C67.5468 160.958 67.8326 176.697 65.2607 177.842C63.9605 178.42 61.3486 179.581 58.9339 180.852C57.1222 181.802 55.4219 182.809 54.4731 183.676C54.2216 183.891 54.0047 184.143 53.8302 184.423C52.6871 186.427 45.2573 186.14 43.5427 184.71C41.8281 183.279 42.9712 186.427 41.5423 186.999C40.1592 187.554 38.2418 183.015 39.4162 176.239C39.4534 176.013 39.4963 175.784 39.542 175.552C40.8536 168.985 38.7933 153.254 39.1105 147.176C39.129 146.712 39.1776 146.249 39.2562 145.791C40.1135 141.212 51.0525 131.895 53.0986 135.864C55.619 140.763 61.4086 136.287 62.403 134.058C68.1183 133.772 70.1186 140.64 70.1186 140.64L68.1183 148.939Z" fill="#3CECEC"/>
<path d="M91.2652 188.144C91.2652 188.144 86.693 189.861 85.2642 189.574C83.8354 189.288 82.4065 190.433 82.4065 192.15C82.4065 193.867 80.692 197.873 83.2638 198.159C85.8357 198.446 96.4089 197.873 98.695 198.732C98.695 198.732 108.982 199.018 108.125 194.725C107.268 190.433 102.981 190.719 102.981 190.719C102.981 190.719 91.2652 190.147 91.2652 188.144Z" fill="#2F2E41"/>
<path d="M124.699 189.002C124.699 189.002 125.271 187.285 126.128 187.285C126.986 187.285 133.844 188.43 134.701 188.144C135.558 187.857 145.56 187.285 143.846 192.15C142.131 197.015 136.416 197.587 136.416 197.587C136.416 197.587 126.128 196.442 124.699 196.729C123.271 197.015 118.127 196.729 118.984 195.298C119.841 193.867 125.271 191.291 124.699 189.002Z" fill="#2F2E41"/>
<path d="M98.6876 147.898L100.255 154.374C100.273 154.446 100.27 154.522 100.247 154.593L93.1358 176.848C93.1077 176.936 93.0502 177.012 92.973 177.063C92.8957 177.113 92.8035 177.136 92.7115 177.127C92.6195 177.118 92.5335 177.078 92.4676 177.013C92.4018 176.948 92.3602 176.862 92.3498 176.77L91.366 168.101C91.3595 168.043 91.3653 167.985 91.3833 167.93L97.911 147.868C97.9382 147.784 97.992 147.712 98.0641 147.661C98.1362 147.611 98.2227 147.586 98.3106 147.589C98.3984 147.593 98.4828 147.625 98.5508 147.68C98.6188 147.736 98.6669 147.812 98.6876 147.898Z" fill="#3F3D56"/>
<path d="M98.1109 148.445L99.5584 154.001L93.2859 174.294L91.8384 168.013L98.1109 148.445Z" fill="white"/>
<path d="M66.5081 178.643C66.7494 179.368 91.5973 178.401 91.8386 178.16C92.0489 177.857 92.2268 177.533 92.3693 177.193C92.5961 176.71 92.8035 176.227 92.8035 176.227L91.8386 168.405L67.2318 167.53C67.2318 167.53 66.6167 174.159 66.4912 177.193C66.4485 177.676 66.4541 178.161 66.5081 178.643Z" fill="#3F3D56"/>
<path opacity="0.1" d="M88.7023 169.463L89.1848 176.227H78.329V169.463H88.7023Z" fill="black"/>
<path opacity="0.1" d="M74.7104 171.637L74.7753 171.624L74.469 174.536H68.4379V171.637H74.7104Z" fill="black"/>
<path opacity="0.1" d="M66.5081 178.643C66.7494 179.368 91.5973 178.401 91.8386 178.16C92.0489 177.857 92.2268 177.533 92.3693 177.193H66.4912C66.4485 177.676 66.4541 178.161 66.5081 178.643Z" fill="black"/>
<path d="M58.5419 111.619C60.3225 111.619 61.766 110.174 61.766 108.391C61.766 106.607 60.3225 105.162 58.5419 105.162C56.7612 105.162 55.3177 106.607 55.3177 108.391C55.3177 110.174 56.7612 111.619 58.5419 111.619Z" fill="#2F2E41"/>
<path d="M57.5723 111.905C57.5723 111.905 54.2782 117.392 46.6184 119.446C38.9586 121.5 46.5559 133.027 46.5559 133.027C46.5559 133.027 43.7932 128.835 47.7779 124.396C51.7627 119.957 58.1752 116.922 57.5723 111.905Z" fill="#2F2E41"/>
<path opacity="0.1" d="M58.9339 180.852C58.228 182.188 57.3993 183.576 57.2593 184.137C57.165 184.518 56.1191 184.297 54.4731 183.676C51.1725 182.426 45.4516 179.561 40.1135 176.697C39.8675 176.566 39.634 176.413 39.4162 176.239C39.4534 176.013 39.4963 175.784 39.542 175.552C40.8536 168.985 38.7933 153.254 39.1105 147.176L41.5423 146.363L46.4003 150.942V170.401C46.4003 170.401 58.9739 177.269 59.8312 177.842C60.2684 178.133 59.6654 179.464 58.9339 180.852Z" fill="black"/>
<path d="M69.5472 165.25L77.2627 169.257C77.2627 169.257 81.8349 164.392 84.6926 168.112C87.5502 171.832 76.4055 172.977 76.4055 172.977C76.4055 172.977 66.6895 170.687 66.4038 167.54C66.118 164.392 69.5472 165.25 69.5472 165.25Z" fill="#FFB8B8"/>
<path d="M56.6878 175.838L61.26 176.983C61.26 176.983 66.4037 170.687 71.8332 172.977C77.2627 175.266 64.9749 179.845 64.9749 179.845C64.9749 179.845 58.4024 183.279 55.8305 180.417C53.2586 177.555 56.6878 175.838 56.6878 175.838Z" fill="#FFB8B8"/>
<path d="M66.6894 138.064C66.9752 138.351 70.1186 140.64 70.1186 140.64C70.1186 140.64 70.9759 151.514 69.8328 153.803C68.6897 156.093 67.8324 156.093 68.6897 157.237C69.547 158.382 70.6901 157.524 69.547 159.527C68.404 161.53 67.2609 161.244 68.1182 162.102C68.9755 162.961 68.6897 163.247 68.6897 163.247L72.1189 166.109C72.1189 166.109 70.015 169.464 67.3521 169.217C64.6891 168.97 62.403 156.093 62.403 156.093L66.6894 138.064Z" fill="#3CECEC"/>
<path d="M41.5423 144.932L38.9705 145.791C38.9705 145.791 32.1122 170.974 40.1135 175.266C48.1149 179.559 56.9736 183.851 57.2593 182.706C57.5451 181.562 60.6885 176.983 59.8312 176.411C58.9739 175.838 46.4003 168.97 46.4003 168.97V149.511L41.5423 144.932Z" fill="#3CECEC"/>
<path opacity="0.1" d="M45.4 155.377L44.8287 169.113L59.9741 176.268L45.9716 169.113L45.4 155.377Z" fill="black"/>
<path d="M166.678 54.5175L167.083 54.5175H167.495V54.9295V59.7442V60.1562H167.083H166.68H166.68C166.662 60.1562 166.643 60.1598 166.626 60.1669C166.609 60.174 166.594 60.1844 166.58 60.1975M166.678 54.5175L166.127 73.0805M166.678 54.5175C166.678 54.5175 166.678 54.5175 166.678 54.5175C166.634 54.5171 166.592 54.4995 166.56 54.4681C166.529 54.4365 166.512 54.3937 166.512 54.349V54.3482V41.7409C166.512 41.6966 166.529 41.6543 166.561 41.6231C166.592 41.5919 166.634 41.5744 166.678 41.5743H167.083H167.495V41.1623V34.5899V34.1779H167.083H166.67H166.669C166.656 34.178 166.643 34.1754 166.631 34.1704C166.619 34.1654 166.608 34.1581 166.599 34.1488C166.59 34.1395 166.582 34.1284 166.577 34.1162C166.572 34.1039 166.57 34.0908 166.57 34.0776V34.077L166.57 27.1968L166.57 27.1959C166.57 27.1684 166.58 27.1421 166.6 27.1227C166.619 27.1035 166.644 27.0927 166.671 27.0925H167.083H167.495V26.6805V12.7492C167.495 12.7492 167.495 12.7492 167.495 12.7492C167.495 9.62151 168.736 6.62207 170.944 4.41064C173.153 2.19922 176.148 0.956913 179.27 0.956795C179.27 0.956795 179.27 0.956795 179.27 0.956795H252.274C255.397 0.956781 258.392 2.19895 260.601 4.41032C262.81 6.62171 264.052 9.62125 264.053 12.7493V45.5018V45.9137H264.465H265.02C265.118 45.914 265.212 45.9532 265.282 46.0228C265.352 46.0925 265.391 46.1871 265.391 46.2859M166.678 54.5175L265.803 46.2848M166.58 60.1975L166.289 59.9064L166.58 60.1975C166.58 60.1975 166.58 60.1975 166.58 60.1975ZM166.58 60.1975C166.567 60.2107 166.557 60.2263 166.55 60.2436C166.543 60.2609 166.539 60.2794 166.539 60.2981L166.539 60.2982L166.539 73.0792M166.539 73.0792C166.539 73.079 166.539 73.0788 166.539 73.0786L166.127 73.0805M166.539 73.0792V73.0805H166.127M166.539 73.0792C166.539 73.1165 166.554 73.1521 166.581 73.1782C166.607 73.2045 166.643 73.2191 166.679 73.219H166.68H167.083H167.495V73.631V186.528C167.495 188.077 167.799 189.611 168.391 191.042C168.982 192.473 169.85 193.773 170.943 194.868C172.037 195.964 173.335 196.833 174.764 197.425C176.192 198.018 177.724 198.324 179.27 198.324H252.274C255.398 198.323 258.393 197.081 260.602 194.869C262.811 192.657 264.052 189.656 264.053 186.528V69.5276V69.1156H264.465H265.02M166.127 73.0805C166.128 73.2269 166.186 73.367 166.29 73.4702C166.393 73.573 166.533 73.6308 166.678 73.631C166.679 73.631 166.68 73.631 166.68 73.631H167.083V74.043V186.528C167.083 188.131 167.398 189.718 168.01 191.199C168.622 192.68 169.52 194.026 170.652 195.16C171.783 196.293 173.127 197.192 174.606 197.806C176.085 198.42 177.67 198.735 179.27 198.736H252.274C255.507 198.735 258.608 197.449 260.894 195.16C263.18 192.87 264.464 189.765 264.465 186.528V69.9396V69.5276H264.877H265.021M265.02 69.1156L265.021 69.5276M265.02 69.1156H265.021V69.5276M265.02 69.1156C265.118 69.1153 265.212 69.0761 265.282 69.0065C265.352 68.9368 265.391 68.8422 265.391 68.7434M265.021 69.5276C265.228 69.527 265.427 69.4443 265.573 69.2976C265.72 69.1509 265.803 68.952 265.803 68.7445M265.803 68.7445H265.391V68.7434M265.803 68.7445V46.2848M265.803 68.7445L265.391 68.7434M265.391 68.7434V46.2859M265.803 46.2848L265.391 46.2859M265.803 46.2848H265.391V46.2859" fill="white" stroke="#D9D8D8" stroke-width="0.823991"/>
<path d="M219.289 6.80493H207.427C206.947 6.80493 206.559 7.19409 206.559 7.67415V8.70092C206.559 9.18097 206.947 9.57013 207.427 9.57013H219.289C219.769 9.57013 220.157 9.18097 220.157 8.70092V7.67415C220.157 7.19409 219.769 6.80493 219.289 6.80493Z" fill="#E6E8EC"/>
<path d="M223.78 9.75601C224.645 9.75601 225.346 9.05379 225.346 8.18757C225.346 7.32135 224.645 6.61914 223.78 6.61914C222.915 6.61914 222.214 7.32135 222.214 8.18757C222.214 9.05379 222.915 9.75601 223.78 9.75601Z" fill="#E6E8EC"/>
<path d="M258.627 15.1634V187.54C258.626 189.594 257.811 191.563 256.36 193.014C254.91 194.466 252.943 195.282 250.893 195.282H181.01C179.994 195.284 178.988 195.085 178.049 194.696C177.11 194.308 176.257 193.738 175.538 193.018C174.82 192.299 174.25 191.445 173.862 190.505C173.473 189.565 173.274 188.557 173.276 187.54V15.1634C173.276 14.1463 173.476 13.1391 173.864 12.1993C174.253 11.2596 174.823 10.4058 175.541 9.68654C176.259 8.96732 177.112 8.3968 178.05 8.00758C178.989 7.61836 179.994 7.41805 181.01 7.41809H191.469V8.76198C191.469 10.4534 192.14 12.0755 193.335 13.2715C194.529 14.4675 196.149 15.1394 197.838 15.1395H233.378C235.067 15.1395 236.687 14.4675 237.882 13.2715C239.076 12.0755 239.747 10.4534 239.747 8.76198V7.41809H250.893C251.908 7.41776 252.914 7.61788 253.853 8.007C254.791 8.39612 255.644 8.96662 256.362 9.6859C257.081 10.4052 257.65 11.2592 258.039 12.199C258.427 13.1389 258.627 14.1462 258.627 15.1634Z" fill="#F8F8F8"/>
<path d="M251.607 120.899H180.581V130.132H251.607V120.899Z" fill="white"/>
<path d="M251.607 137.313H180.581V146.546H251.607V137.313Z" fill="white"/>
<path d="M251.607 153.727H180.581V162.96H251.607V153.727Z" fill="white"/>
<path d="M243.753 38.4878C247.525 38.4878 250.583 35.4258 250.583 31.6487C250.583 27.8715 247.525 24.8096 243.753 24.8096C239.981 24.8096 236.924 27.8715 236.924 31.6487C236.924 35.4258 239.981 38.4878 243.753 38.4878Z" fill="#3CECEC"/>
<path d="M53.9714 49.9843C61.0252 49.9843 66.7433 44.2661 66.7433 37.2124C66.7433 30.1587 61.0252 24.4406 53.9714 24.4406C46.9177 24.4406 41.1996 30.1587 41.1996 37.2124C41.1996 44.2661 46.9177 49.9843 53.9714 49.9843Z" fill="#3F3D56"/>
<path d="M56.0294 41.2664C56.0294 40.6964 55.8483 40.227 55.4862 39.8582C55.1241 39.4827 54.5206 39.1474 53.6757 38.8524C52.8308 38.5506 52.1737 38.2723 51.7043 38.0175C50.1418 37.1793 49.3606 35.9388 49.3606 34.2959C49.3606 33.1827 49.6993 32.2674 50.3765 31.5499C51.0538 30.8324 51.9725 30.4066 53.1326 30.2725V28.0797H54.7419V30.2926C55.9087 30.4602 56.8106 30.9565 57.4476 31.7812C58.0847 32.5993 58.4032 33.6655 58.4032 34.9798H55.9691C55.9691 34.1349 55.7779 33.4711 55.3957 32.9883C55.0202 32.4988 54.5072 32.254 53.8568 32.254C53.213 32.254 52.7101 32.4283 52.348 32.777C51.9859 33.1257 51.8048 33.6253 51.8048 34.2758C51.8048 34.8591 51.9825 35.3285 52.3379 35.6839C52.7 36.0326 53.3103 36.3646 54.1686 36.6797C55.0269 36.9949 55.7008 37.2866 56.1903 37.5548C56.6799 37.823 57.0922 38.1315 57.4275 38.4802C57.7628 38.8222 58.021 39.2178 58.202 39.6671C58.3831 40.1164 58.4736 40.6428 58.4736 41.2463C58.4736 42.3795 58.1249 43.2982 57.4275 44.0023C56.7368 44.7064 55.7712 45.1222 54.5307 45.2496V47.211H52.9314V45.2596C51.6037 45.1121 50.5811 44.636 49.8636 43.8313C49.1528 43.0266 48.7974 41.9604 48.7974 40.6327H51.2416C51.2416 41.4776 51.4528 42.1314 51.8752 42.5941C52.3044 43.0568 52.9079 43.2882 53.6858 43.2882C54.4502 43.2882 55.0303 43.1037 55.4259 42.7349C55.8282 42.3661 56.0294 41.8766 56.0294 41.2664Z" fill="white"/>
<path d="M251.465 54.5598H180.438V101.75H251.465V54.5598Z" fill="white"/>
<path d="M303.229 198.36H6.10352e-05V199.127H303.229V198.36Z" fill="#D9D8D8"/>
</g>
<defs>
<clipPath id="clip0">
<rect width="183.75" height="118.655" fill="white" transform="translate(0.824097 31.0325)"/>
</clipPath>
<clipPath id="clip1">
<rect width="303.229" height="198.582" fill="white" transform="translate(0 0.5448)"/>
</clipPath>
</defs>
</svg>
