<svg width="304" height="200" viewBox="0 0 304 200" fill="none" xmlns="http://www.w3.org/2000/svg">
<g clip-path="url(#clip0)">
<path d="M50.7288 130.517C50.7288 130.517 54.4182 136.377 53.1006 137.964C51.7829 139.55 62.9861 139.59 62.9861 139.59C62.9861 139.59 61.3033 131.066 61.7986 129.104L50.7288 130.517Z" fill="#FFB8B8"/>
<path d="M56.6251 132.641C63.0145 132.641 68.1941 127.454 68.1941 121.056C68.1941 114.657 63.0145 109.47 56.6251 109.47C50.2358 109.47 45.0562 114.657 45.0562 121.056C45.0562 127.454 50.2358 132.641 56.6251 132.641Z" fill="#2F2E41"/>
<path d="M83.8353 183.851V190.719L90.6935 189.288L90.1222 184.424L83.8353 183.851Z" fill="#FFB8B8"/>
<path d="M108.125 184.996L127.271 188.144L122.413 195.298C122.413 195.298 108.982 190.719 105.553 190.719C102.124 190.719 108.125 184.996 108.125 184.996Z" fill="#FFB8B8"/>
<path d="M64.6892 171.26C64.6892 171.26 78.9773 154.662 83.5495 155.521C88.1217 156.379 90.1221 161.53 90.1221 161.53L92.694 186.999C92.694 186.999 83.5495 187.857 83.5495 186.999C83.5495 186.14 81.835 167.826 81.835 167.826C81.835 167.826 68.4041 197.587 61.26 177.842L64.6892 171.26Z" fill="#D0CDE1"/>
<path d="M41.5424 182.42C41.5424 182.42 41.8281 197.413 50.401 198.271C58.9739 199.129 68.4041 191.864 68.4041 191.864L83.8353 184.461C83.8353 184.461 102.124 194.153 107.554 191.578C107.554 191.578 113.269 185.568 109.554 183.851C105.839 182.134 109.268 183.851 109.268 183.851L87.2645 172.404C87.2645 172.404 82.978 171.26 75.5482 174.408C68.1183 177.555 58.1166 178.986 58.1166 178.986L41.5424 182.42Z" fill="#D0CDE1"/>
<path d="M55.8306 133.486C60.5653 133.486 64.4035 129.642 64.4035 124.901C64.4035 120.159 60.5653 116.316 55.8306 116.316C51.0959 116.316 47.2577 120.159 47.2577 124.901C47.2577 129.642 51.0959 133.486 55.8306 133.486Z" fill="#FFB8B8"/>
<path d="M68.1183 148.939L67.5468 160.958C67.5468 160.958 67.8326 176.697 65.2607 177.842C63.9605 178.42 61.3486 179.581 58.9339 180.852C57.1222 181.802 55.4219 182.809 54.4731 183.676C54.2216 183.891 54.0047 184.143 53.8302 184.423C52.6871 186.427 45.2573 186.14 43.5427 184.71C41.8281 183.279 42.9712 186.427 41.5423 186.999C40.1592 187.554 38.2418 183.015 39.4162 176.239C39.4534 176.013 39.4963 175.784 39.542 175.552C40.8536 168.985 38.7933 153.254 39.1105 147.176C39.129 146.712 39.1776 146.249 39.2562 145.791C40.1135 141.212 51.0525 131.895 53.0986 135.864C55.619 140.763 61.4086 136.287 62.403 134.058C68.1183 133.772 70.1186 140.64 70.1186 140.64L68.1183 148.939Z" fill="#3CECEC"/>
<path d="M91.2652 188.144C91.2652 188.144 86.693 189.861 85.2642 189.574C83.8354 189.288 82.4065 190.433 82.4065 192.15C82.4065 193.867 80.692 197.873 83.2638 198.159C85.8357 198.446 96.4089 197.873 98.695 198.732C98.695 198.732 108.982 199.018 108.125 194.725C107.268 190.433 102.981 190.719 102.981 190.719C102.981 190.719 91.2652 190.147 91.2652 188.144Z" fill="#2F2E41"/>
<path d="M124.699 189.002C124.699 189.002 125.271 187.285 126.128 187.285C126.986 187.285 133.844 188.43 134.701 188.144C135.558 187.857 145.56 187.285 143.846 192.15C142.131 197.015 136.416 197.587 136.416 197.587C136.416 197.587 126.128 196.442 124.699 196.729C123.271 197.015 118.127 196.729 118.984 195.298C119.841 193.867 125.271 191.291 124.699 189.002Z" fill="#2F2E41"/>
<path d="M98.6876 147.898L100.255 154.374C100.273 154.446 100.27 154.522 100.247 154.593L93.1358 176.848C93.1077 176.936 93.0502 177.012 92.973 177.063C92.8957 177.113 92.8035 177.136 92.7115 177.127C92.6195 177.118 92.5335 177.078 92.4676 177.013C92.4018 176.948 92.3602 176.862 92.3498 176.77L91.366 168.101C91.3595 168.043 91.3653 167.985 91.3833 167.93L97.911 147.868C97.9382 147.784 97.992 147.712 98.0641 147.661C98.1362 147.611 98.2227 147.586 98.3106 147.589C98.3984 147.593 98.4828 147.625 98.5508 147.68C98.6188 147.736 98.6669 147.812 98.6876 147.898Z" fill="#3F3D56"/>
<path d="M98.1109 148.445L99.5584 154.001L93.2859 174.294L91.8384 168.013L98.1109 148.445Z" fill="white"/>
<path d="M66.5081 178.643C66.7494 179.368 91.5973 178.401 91.8386 178.16C92.0489 177.857 92.2268 177.533 92.3693 177.193C92.5961 176.71 92.8035 176.227 92.8035 176.227L91.8386 168.405L67.2318 167.53C67.2318 167.53 66.6167 174.159 66.4912 177.193C66.4485 177.676 66.4541 178.161 66.5081 178.643Z" fill="#3F3D56"/>
<path opacity="0.1" d="M88.7023 169.463L89.1848 176.227H78.329V169.463H88.7023Z" fill="black"/>
<path opacity="0.1" d="M74.7104 171.637L74.7753 171.624L74.469 174.536H68.4379V171.637H74.7104Z" fill="black"/>
<path opacity="0.1" d="M66.5081 178.643C66.7494 179.368 91.5973 178.401 91.8386 178.16C92.0489 177.857 92.2268 177.533 92.3693 177.193H66.4912C66.4485 177.676 66.4541 178.161 66.5081 178.643Z" fill="black"/>
<path d="M58.5419 111.619C60.3225 111.619 61.766 110.174 61.766 108.391C61.766 106.607 60.3225 105.162 58.5419 105.162C56.7612 105.162 55.3177 106.607 55.3177 108.391C55.3177 110.174 56.7612 111.619 58.5419 111.619Z" fill="#2F2E41"/>
<path d="M57.5723 111.905C57.5723 111.905 54.2782 117.392 46.6184 119.446C38.9586 121.5 46.5559 133.027 46.5559 133.027C46.5559 133.027 43.7932 128.835 47.7779 124.396C51.7627 119.957 58.1752 116.922 57.5723 111.905Z" fill="#2F2E41"/>
<path opacity="0.1" d="M58.9339 180.852C58.228 182.188 57.3993 183.576 57.2593 184.137C57.165 184.518 56.1191 184.297 54.4731 183.676C51.1725 182.426 45.4516 179.561 40.1135 176.697C39.8675 176.566 39.634 176.413 39.4162 176.239C39.4534 176.013 39.4963 175.784 39.542 175.552C40.8536 168.985 38.7933 153.254 39.1105 147.176L41.5423 146.363L46.4003 150.942V170.401C46.4003 170.401 58.9739 177.269 59.8312 177.842C60.2684 178.133 59.6654 179.464 58.9339 180.852Z" fill="black"/>
<path d="M69.5472 165.25L77.2627 169.257C77.2627 169.257 81.8349 164.392 84.6926 168.112C87.5502 171.832 76.4055 172.977 76.4055 172.977C76.4055 172.977 66.6895 170.687 66.4038 167.54C66.118 164.392 69.5472 165.25 69.5472 165.25Z" fill="#FFB8B8"/>
<path d="M56.6878 175.838L61.26 176.983C61.26 176.983 66.4037 170.687 71.8332 172.977C77.2627 175.266 64.9749 179.845 64.9749 179.845C64.9749 179.845 58.4024 183.279 55.8305 180.417C53.2586 177.555 56.6878 175.838 56.6878 175.838Z" fill="#FFB8B8"/>
<path d="M66.6894 138.064C66.9752 138.351 70.1186 140.64 70.1186 140.64C70.1186 140.64 70.9759 151.514 69.8328 153.803C68.6897 156.093 67.8324 156.093 68.6897 157.237C69.547 158.382 70.6901 157.524 69.547 159.527C68.404 161.53 67.2609 161.244 68.1182 162.102C68.9755 162.961 68.6897 163.247 68.6897 163.247L72.1189 166.109C72.1189 166.109 70.015 169.464 67.3521 169.217C64.6891 168.97 62.403 156.093 62.403 156.093L66.6894 138.064Z" fill="#3CECEC"/>
<path d="M41.5423 144.932L38.9705 145.791C38.9705 145.791 32.1122 170.974 40.1135 175.266C48.1149 179.559 56.9736 183.851 57.2593 182.706C57.5451 181.562 60.6885 176.983 59.8312 176.411C58.9739 175.838 46.4003 168.97 46.4003 168.97V149.511L41.5423 144.932Z" fill="#3CECEC"/>
<path opacity="0.1" d="M45.4 155.377L44.8287 169.113L59.9741 176.268L45.9716 169.113L45.4 155.377Z" fill="black"/>
<path d="M166.678 54.5175L167.083 54.5175H167.495V54.9295V59.7442V60.1562H167.083H166.68H166.68C166.662 60.1562 166.643 60.1598 166.626 60.1669C166.609 60.174 166.594 60.1844 166.58 60.1975M166.678 54.5175L166.127 73.0805M166.678 54.5175C166.678 54.5175 166.678 54.5175 166.678 54.5175C166.634 54.5171 166.592 54.4995 166.56 54.4681C166.529 54.4365 166.512 54.3937 166.512 54.349V54.3482V41.7409C166.512 41.6966 166.529 41.6543 166.561 41.6231C166.592 41.5919 166.634 41.5744 166.678 41.5743H167.083H167.495V41.1623V34.5899V34.1779H167.083H166.67H166.669C166.656 34.178 166.643 34.1754 166.631 34.1704C166.619 34.1654 166.608 34.1581 166.599 34.1488C166.59 34.1395 166.582 34.1284 166.577 34.1162C166.572 34.1039 166.57 34.0908 166.57 34.0776V34.077L166.57 27.1968L166.57 27.1959C166.57 27.1684 166.58 27.1421 166.6 27.1227C166.619 27.1035 166.644 27.0927 166.671 27.0925H167.083H167.495V26.6805V12.7492C167.495 12.7492 167.495 12.7492 167.495 12.7492C167.495 9.62151 168.736 6.62207 170.944 4.41064C173.153 2.19922 176.148 0.956913 179.27 0.956795C179.27 0.956795 179.27 0.956795 179.27 0.956795H252.274C255.397 0.956781 258.392 2.19895 260.601 4.41032C262.81 6.62171 264.052 9.62125 264.053 12.7493V45.5018V45.9137H264.465H265.02C265.118 45.914 265.212 45.9532 265.282 46.0228C265.352 46.0925 265.391 46.1871 265.391 46.2859M166.678 54.5175L265.803 46.2848M166.58 60.1975L166.289 59.9064L166.58 60.1975C166.58 60.1975 166.58 60.1975 166.58 60.1975ZM166.58 60.1975C166.567 60.2107 166.557 60.2263 166.55 60.2436C166.543 60.2609 166.539 60.2794 166.539 60.2981L166.539 60.2982L166.539 73.0792M166.539 73.0792C166.539 73.079 166.539 73.0788 166.539 73.0786L166.127 73.0805M166.539 73.0792V73.0805H166.127M166.539 73.0792C166.539 73.1165 166.554 73.1521 166.581 73.1782C166.607 73.2045 166.643 73.2191 166.679 73.219H166.68H167.083H167.495V73.631V186.528C167.495 188.077 167.799 189.611 168.391 191.042C168.982 192.473 169.85 193.773 170.943 194.868C172.037 195.964 173.335 196.833 174.764 197.425C176.192 198.018 177.724 198.324 179.27 198.324H252.274C255.398 198.323 258.393 197.081 260.602 194.869C262.811 192.657 264.052 189.656 264.053 186.528V69.5276V69.1156H264.465H265.02M166.127 73.0805C166.128 73.2269 166.186 73.367 166.29 73.4702C166.393 73.573 166.533 73.6308 166.678 73.631C166.679 73.631 166.68 73.631 166.68 73.631H167.083V74.043V186.528C167.083 188.131 167.398 189.718 168.01 191.199C168.622 192.68 169.52 194.026 170.652 195.16C171.783 196.293 173.127 197.192 174.606 197.806C176.085 198.42 177.67 198.735 179.27 198.736H252.274C255.507 198.735 258.608 197.449 260.894 195.16C263.18 192.87 264.464 189.765 264.465 186.528V69.9396V69.5276H264.877H265.021M265.02 69.1156L265.021 69.5276M265.02 69.1156H265.021V69.5276M265.02 69.1156C265.118 69.1153 265.212 69.0761 265.282 69.0065C265.352 68.9368 265.391 68.8422 265.391 68.7434M265.021 69.5276C265.228 69.527 265.427 69.4443 265.573 69.2976C265.72 69.1509 265.803 68.952 265.803 68.7445M265.803 68.7445H265.391V68.7434M265.803 68.7445V46.2848M265.803 68.7445L265.391 68.7434M265.391 68.7434V46.2859M265.803 46.2848L265.391 46.2859M265.803 46.2848H265.391V46.2859" fill="white" stroke="#D9D8D8" stroke-width="0.823991"/>
<path d="M219.289 6.80493H207.427C206.947 6.80493 206.559 7.19409 206.559 7.67415V8.70092C206.559 9.18097 206.947 9.57013 207.427 9.57013H219.289C219.769 9.57013 220.157 9.18097 220.157 8.70092V7.67415C220.157 7.19409 219.769 6.80493 219.289 6.80493Z" fill="#E6E8EC"/>
<path d="M223.78 9.75601C224.645 9.75601 225.346 9.05379 225.346 8.18757C225.346 7.32135 224.645 6.61914 223.78 6.61914C222.915 6.61914 222.214 7.32135 222.214 8.18757C222.214 9.05379 222.915 9.75601 223.78 9.75601Z" fill="#E6E8EC"/>
<path d="M258.627 15.1634V187.54C258.626 189.594 257.811 191.563 256.36 193.014C254.91 194.466 252.943 195.282 250.893 195.282H181.01C179.994 195.284 178.988 195.085 178.049 194.696C177.11 194.308 176.257 193.738 175.538 193.018C174.82 192.299 174.25 191.445 173.862 190.505C173.473 189.565 173.274 188.557 173.276 187.54V15.1634C173.276 14.1463 173.476 13.1391 173.864 12.1993C174.253 11.2596 174.823 10.4058 175.541 9.68654C176.259 8.96732 177.112 8.3968 178.05 8.00758C178.989 7.61836 179.994 7.41805 181.01 7.41809H191.469V8.76198C191.469 10.4534 192.14 12.0755 193.335 13.2715C194.529 14.4675 196.149 15.1394 197.838 15.1395H233.378C235.067 15.1395 236.687 14.4675 237.882 13.2715C239.076 12.0755 239.747 10.4534 239.747 8.76198V7.41809H250.893C251.908 7.41776 252.914 7.61788 253.853 8.007C254.791 8.39612 255.644 8.96662 256.362 9.6859C257.081 10.4052 257.65 11.2592 258.039 12.199C258.427 13.1389 258.627 14.1462 258.627 15.1634Z" fill="#F8F8F8"/>
<path d="M251.607 120.899H180.581V130.132H251.607V120.899Z" fill="white"/>
<path d="M251.607 137.313H180.581V146.546H251.607V137.313Z" fill="white"/>
<path d="M251.607 153.727H180.581V162.96H251.607V153.727Z" fill="white"/>
<path d="M243.753 38.4878C247.525 38.4878 250.583 35.4258 250.583 31.6487C250.583 27.8715 247.525 24.8096 243.753 24.8096C239.981 24.8096 236.924 27.8715 236.924 31.6487C236.924 35.4258 239.981 38.4878 243.753 38.4878Z" fill="#3CECEC"/>
<path d="M53.9714 49.9843C61.0252 49.9843 66.7433 44.2661 66.7433 37.2124C66.7433 30.1587 61.0252 24.4406 53.9714 24.4406C46.9177 24.4406 41.1996 30.1587 41.1996 37.2124C41.1996 44.2661 46.9177 49.9843 53.9714 49.9843Z" fill="#3F3D56"/>
<path d="M56.0294 41.2664C56.0294 40.6964 55.8483 40.227 55.4862 39.8582C55.1241 39.4827 54.5206 39.1474 53.6757 38.8524C52.8308 38.5506 52.1737 38.2723 51.7043 38.0175C50.1418 37.1793 49.3606 35.9388 49.3606 34.2959C49.3606 33.1827 49.6993 32.2674 50.3765 31.5499C51.0538 30.8324 51.9725 30.4066 53.1326 30.2725V28.0797H54.7419V30.2926C55.9087 30.4602 56.8106 30.9565 57.4476 31.7812C58.0847 32.5993 58.4032 33.6655 58.4032 34.9798H55.9691C55.9691 34.1349 55.7779 33.4711 55.3957 32.9883C55.0202 32.4988 54.5072 32.254 53.8568 32.254C53.213 32.254 52.7101 32.4283 52.348 32.777C51.9859 33.1257 51.8048 33.6253 51.8048 34.2758C51.8048 34.8591 51.9825 35.3285 52.3379 35.6839C52.7 36.0326 53.3103 36.3646 54.1686 36.6797C55.0269 36.9949 55.7008 37.2866 56.1903 37.5548C56.6799 37.823 57.0922 38.1315 57.4275 38.4802C57.7628 38.8222 58.021 39.2178 58.202 39.6671C58.3831 40.1164 58.4736 40.6428 58.4736 41.2463C58.4736 42.3795 58.1249 43.2982 57.4275 44.0023C56.7368 44.7064 55.7712 45.1222 54.5307 45.2496V47.211H52.9314V45.2596C51.6037 45.1121 50.5811 44.636 49.8636 43.8313C49.1528 43.0266 48.7974 41.9604 48.7974 40.6327H51.2416C51.2416 41.4776 51.4528 42.1314 51.8752 42.5941C52.3044 43.0568 52.9079 43.2882 53.6858 43.2882C54.4502 43.2882 55.0303 43.1037 55.4259 42.7349C55.8282 42.3661 56.0294 41.8766 56.0294 41.2664Z" fill="white"/>
<path d="M251.465 54.5598H180.438V101.75H251.465V54.5598Z" fill="white"/>
<path d="M303.229 198.36H6.10352e-05V199.127H303.229V198.36Z" fill="#D9D8D8"/>
</g>
<defs>
<clipPath id="clip0">
<rect width="303.229" height="198.582" fill="white" transform="translate(0 0.5448)"/>
</clipPath>
</defs>
</svg>
