<svg width="70" height="70" viewBox="0 0 70 70" fill="none" xmlns="http://www.w3.org/2000/svg">
<path d="M17.4909 8.75V17.5H8.85482V8.75H17.4909ZM4.53679 4.375V21.875H21.8089V4.375H4.53679Z" fill="#E0E0E0"/>
<path d="M39.0811 15.3125V24.0625H30.445V15.3125H39.0811ZM26.127 10.9375V28.4375H43.3991V10.9375H26.127Z" fill="#E0E0E0"/>
<path d="M17.4909 35V43.75H8.85482V35H17.4909ZM4.53679 30.625V48.125H21.8089V30.625H4.53679Z" fill="#E0E0E0"/>
<path d="M47.7171 21.875V35H34.763V48.125H21.8089V65.625H64.9893V21.875H47.7171ZM39.0811 39.375H47.7171V48.125H39.0811V39.375ZM34.763 61.25H26.127V52.5H34.763V61.25ZM47.7171 61.25H39.0811V52.5H47.7171V61.25ZM60.6712 61.25H52.0352V52.5H60.6712V61.25ZM60.6712 48.125H52.0352V39.375H60.6712V48.125ZM52.0352 35V26.25H60.6712V35H52.0352Z" fill="#E0E0E0"/>
</svg>
