<svg width="90" height="90" viewBox="0 0 90 90" fill="none" xmlns="http://www.w3.org/2000/svg">
<path fill-rule="evenodd" clip-rule="evenodd" d="M55.8276 27.4958C59.5894 30.7179 62.1047 35.1845 62.9284 40.105C52.1506 40 42.8581 33.665 38.3328 24.46C37.4303 29.0328 35.425 33.3083 32.4957 36.9052C29.5663 40.5022 25.8041 43.3089 21.5443 45.075C20.6462 31.285 31.9076 22.5 42.3745 22.5C47.3003 22.5041 52.0659 24.2738 55.8276 27.4958ZM31.8385 50.5C33.7463 50.5 35.2929 48.933 35.2929 47C35.2929 45.067 33.7463 43.5 31.8385 43.5C29.9307 43.5 28.3841 45.067 28.3841 47C28.3841 48.933 29.9307 50.5 31.8385 50.5ZM52.5651 50.5C54.4729 50.5 56.0195 48.933 56.0195 47C56.0195 45.067 54.4729 43.5 52.5651 43.5C50.6572 43.5 49.1106 45.067 49.1106 47C49.1106 48.933 50.6572 50.5 52.5651 50.5Z" fill="#E0E0E0"/>
<path d="M73.2571 43.5C72.8771 24.705 58.3685 12 42.2018 12C26.2769 12 11.6301 24.355 11.1465 43.5H7.65753V64.5H18.0208V44.165C18.0208 30.76 28.2114 19.035 41.4418 18.65C44.6798 18.5502 47.9047 19.11 50.9252 20.2962C53.9458 21.4824 56.7006 23.2708 59.0265 25.5555C61.3523 27.8403 63.2018 30.5748 64.4654 33.597C65.7291 36.6193 66.3811 39.8678 66.3828 43.15V68H38.7474V75H73.2916V64.5H76.7461V43.5H73.2571Z" fill="#E0E0E0" stroke="white" stroke-width="3"/>
</svg>
