<svg width="63" height="74" viewBox="0 0 63 74" fill="none" xmlns="http://www.w3.org/2000/svg">
<path d="M42.1649 14.415H21.3328C16.7307 14.415 13 18.1458 13 22.7479V43.5799C13 48.182 16.7307 51.9128 21.3328 51.9128H42.1649C46.767 51.9128 50.4977 48.182 50.4977 43.5799V22.7479C50.4977 18.1458 46.767 14.415 42.1649 14.415Z" stroke="#E0E0E0" stroke-width="2.92373" stroke-linejoin="round"/>
<path d="M21.3328 14.416V5.0416C21.3328 4.76535 21.4426 4.50042 21.6379 4.30508C21.8333 4.10974 22.0982 4 22.3744 4H41.1233C41.3996 4 41.6645 4.10974 41.8598 4.30508C42.0552 4.50042 42.1649 4.76535 42.1649 5.0416V14.416" stroke="#E0E0E0" stroke-width="2.92373" stroke-linejoin="round"/>
<path d="M42.1649 51.9136V61.288C42.1649 61.5643 42.0552 61.8292 41.8598 62.0245C41.6645 62.2199 41.3996 62.3296 41.1233 62.3296H22.3744C22.0982 62.3296 21.8333 62.2199 21.6379 62.0245C21.4426 61.8292 21.3328 61.5643 21.3328 61.288V51.9136" stroke="#E0E0E0" stroke-width="2.92373" stroke-linejoin="round"/>
</svg>
