<svg width="10" height="16" viewBox="0 0 10 16" fill="none" xmlns="http://www.w3.org/2000/svg">
<path d="M1.99958 15.0006C1.76593 15.0011 1.53949 14.9197 1.35958 14.7706C1.25832 14.6867 1.17462 14.5836 1.11327 14.4672C1.05192 14.3509 1.01412 14.2236 1.00204 14.0926C0.989969 13.9616 1.00385 13.8295 1.0429 13.7039C1.08194 13.5783 1.14538 13.4617 1.22958 13.3606L6.70958 8.00061L1.38958 2.63061C1.30652 2.52833 1.24448 2.41063 1.20705 2.28429C1.16962 2.15795 1.15753 2.02546 1.17147 1.89443C1.18541 1.7634 1.2251 1.63642 1.28828 1.52078C1.35145 1.40515 1.43685 1.30314 1.53958 1.22061C1.64305 1.12958 1.76421 1.06091 1.89548 1.01892C2.02674 0.976931 2.16526 0.962528 2.30236 0.976612C2.43945 0.990697 2.57215 1.03297 2.69213 1.10077C2.81212 1.16857 2.91679 1.26044 2.99958 1.37061L8.82958 7.37061C8.97666 7.54955 9.05707 7.77399 9.05707 8.00561C9.05707 8.23724 8.97666 8.46168 8.82958 8.64061L2.82958 14.6406C2.72926 14.7616 2.60183 14.8573 2.45762 14.9198C2.31341 14.9824 2.15649 15.0101 1.99958 15.0006Z" fill="#979797"/>
</svg>
