<svg width="52" height="46" viewBox="0 0 52 46" fill="none" xmlns="http://www.w3.org/2000/svg">
<path d="M33.5 34.5625H38.5156C45.2445 34.5625 50.75 29.8727 50.75 23.1438C50.75 16.5678 46.0375 12.7853 40.3734 11.8621C40.0658 11.8118 39.7766 11.6823 39.5342 11.4862C39.2919 11.2901 39.1048 11.0343 38.9914 10.744C37.2265 6.21387 32.8436 1.9375 26.2812 1.9375C19.2159 1.9375 13.1508 6.94113 11.7812 15.2594C11.7185 15.6374 11.5382 15.9859 11.2658 16.2554C10.9935 16.5249 10.643 16.7016 10.2644 16.7604C6.19309 17.4095 1.8125 20.0999 1.8125 25.5906C1.8125 31.7645 6.40039 34.5625 12.0078 34.5625H19.5" stroke="#BDBDBD" stroke-width="2" stroke-linejoin="round"/>
<path d="M30.0148 27.8965C31.1833 28.2781 32.4497 28.4818 33.9999 28.6257V39.0988L33.9736 39.1275C31.4235 41.9062 29.7806 43.1625 26.4956 44.9298C23.1839 43.2347 21.5416 41.9945 19.0413 39.1442L19 39.0971V28.6651C20.3797 28.6181 21.5514 28.4552 22.7051 28.0709C23.9575 27.6537 25.132 26.9944 26.4974 26.0317C27.6868 26.9 28.7741 27.4913 30.0148 27.8965Z" stroke="#BDBDBD" stroke-width="2"/>
</svg>
