<svg width="66" height="56" viewBox="0 0 66 56" fill="none" xmlns="http://www.w3.org/2000/svg">
<path fill-rule="evenodd" clip-rule="evenodd" d="M37.1269 34.2895C35.622 31.5264 31.6636 31.5021 30.125 34.2465L24.6321 44.044C23.1372 46.7104 25.0644 50.0001 28.1212 50.0001H38.95C41.9851 50.0001 43.9145 46.7524 42.4628 44.087L37.1269 34.2895ZM31.8695 35.2246C32.6388 33.8524 34.618 33.8645 35.3705 35.2461L40.7064 45.0436C41.4322 46.3763 40.4675 48.0001 38.95 48.0001H28.1212C26.5928 48.0001 25.6292 46.3553 26.3766 45.0221L31.8695 35.2246ZM33.9221 43.4342C33.8216 43.5347 33.7044 43.5849 33.5705 43.5849C33.4253 43.5849 33.3081 43.5402 33.2188 43.4509C33.1295 43.3505 33.0793 43.2109 33.0681 43.0323L32.5658 37.9328C32.5323 37.6203 32.616 37.3691 32.817 37.1793C33.0067 36.9784 33.2579 36.8779 33.5705 36.8779C33.8942 36.8779 34.1565 36.9784 34.3574 37.1793C34.5472 37.3691 34.6253 37.6203 34.5919 37.9328L34.0895 43.0323C34.0784 43.1998 34.0226 43.3337 33.9221 43.4342ZM34.3407 46.5486C34.1286 46.7495 33.8719 46.85 33.5705 46.85C33.2691 46.85 33.0179 46.7495 32.817 46.5486C32.616 46.3477 32.5156 46.0909 32.5156 45.7784C32.5156 45.4658 32.616 45.2091 32.817 45.0082C33.0179 44.7961 33.2691 44.69 33.5705 44.69C33.8719 44.69 34.1286 44.7961 34.3407 45.0082C34.5416 45.2091 34.6421 45.4658 34.6421 45.7784C34.6421 46.0909 34.5416 46.3477 34.3407 46.5486Z" fill="#BDBDBD"/>
<path d="M41 44.5625H45.5156C52.2445 44.5625 57.75 39.8727 57.75 33.1438C57.75 26.5678 53.0375 22.7853 47.3734 21.8621C47.0658 21.8118 46.7766 21.6823 46.5342 21.4862C46.2919 21.2901 46.1048 21.0343 45.9914 20.744C44.2265 16.2139 39.8436 11.9375 33.2812 11.9375C26.2159 11.9375 20.1508 16.9411 18.7812 25.2594C18.7185 25.6374 18.5382 25.9859 18.2658 26.2554C17.9935 26.5249 17.643 26.7016 17.2644 26.7604C13.1931 27.4095 8.8125 30.0999 8.8125 35.5906C8.8125 41.7645 13.4004 44.5625 19.0078 44.5625H26" stroke="#BDBDBD" stroke-width="2" stroke-linejoin="round"/>
</svg>
