<svg width="36" height="54" viewBox="0 0 36 54" fill="none" xmlns="http://www.w3.org/2000/svg">
<path fill-rule="evenodd" clip-rule="evenodd" d="M2.66663 17.6666C2.66663 9.19822 9.53159 2.33325 18 2.33325C26.4683 2.33325 33.3333 9.19822 33.3333 17.6666C33.3333 23.0187 30.5912 27.7303 26.4352 30.4732C26.3409 30.5153 26.255 30.5713 26.1796 30.6383C23.8123 32.1342 21.0072 32.9999 18 32.9999C9.53159 32.9999 2.66663 26.135 2.66663 17.6666ZM26.0513 33.0205C23.6455 34.2846 20.9063 34.9999 18 34.9999C15.0947 34.9999 12.3564 34.2852 9.95125 33.0219L7.5977 50.7416L17.4854 44.809C17.8021 44.619 18.1977 44.619 18.5144 44.809L28.4025 50.7418L26.0513 33.0205ZM8.0846 31.8857C3.60004 28.7526 0.666626 23.5522 0.666626 17.6666C0.666626 8.09365 8.42702 0.333252 18 0.333252C27.5729 0.333252 35.3333 8.09365 35.3333 17.6666C35.3333 23.551 32.401 28.7506 27.918 31.8838L30.6579 52.535C30.7084 52.9156 30.5365 53.2915 30.2156 53.5023C29.8946 53.7131 29.4813 53.7215 29.1521 53.524L17.9999 46.8327L6.84775 53.524C6.51848 53.7215 6.10516 53.7131 5.78421 53.5023C5.46327 53.2915 5.2914 52.9155 5.34196 52.5348L8.0846 31.8857Z" fill="#BDBDBD"/>
<path d="M26.4182 14.9859L21.0222 14.2103L18.61 9.3739C18.5441 9.24148 18.4357 9.13428 18.3018 9.06913C17.966 8.90518 17.558 9.0418 17.3901 9.3739L14.9779 14.2103L9.58186 14.9859C9.4331 15.007 9.29708 15.0763 9.19294 15.1814C9.06704 15.3094 8.99767 15.4816 9.00006 15.6601C9.00245 15.8386 9.07641 16.0089 9.20569 16.1336L13.1098 19.8981L12.1874 25.2137C12.1658 25.3374 12.1796 25.4646 12.2274 25.5808C12.2751 25.6971 12.3548 25.7978 12.4575 25.8716C12.5602 25.9453 12.6817 25.9891 12.8082 25.9981C12.9348 26.007 13.0614 25.9807 13.1736 25.9221L18 23.4124L22.8265 25.9221C22.9583 25.9914 23.1113 26.0145 23.258 25.9893C23.6277 25.9263 23.8764 25.5795 23.8126 25.2137L22.8903 19.8981L26.7944 16.1336C26.9007 16.0306 26.9708 15.8961 26.992 15.7489C27.0494 15.3811 26.7901 15.0406 26.4182 14.9859V14.9859Z" stroke="#BDBDBD" stroke-width="1.5"/>
</svg>
