<svg width="770" height="82" viewBox="0 0 770 82" fill="none" xmlns="http://www.w3.org/2000/svg">
<path d="M31.2192 65.8107C25.0941 65.8107 19.7197 64.4896 15.0958 61.8474C10.532 59.2052 7.01913 55.4221 4.55709 50.498C2.09505 45.5739 0.86403 39.8091 0.86403 33.2037C0.86403 26.5982 2.09505 20.8634 4.55709 15.9994C7.01913 11.0753 10.532 7.29218 15.0958 4.65C19.7197 2.0078 25.0941 0.686709 31.2192 0.686709C35.1825 0.686709 38.9056 1.28721 42.3884 2.48821C45.8713 3.62915 48.9639 5.31054 51.6661 7.53238C52.4468 8.13288 52.9872 8.7634 53.2875 9.42395C53.5877 10.0845 53.7378 10.8952 53.7378 11.856C53.7378 13.1771 53.3775 14.288 52.6569 15.1887C51.9363 16.0895 51.0656 16.5398 50.0448 16.5398C48.8438 16.5398 47.6128 16.1195 46.3517 15.2788C43.7696 13.3572 41.3676 12.0361 39.1458 11.3155C36.9239 10.5349 34.4619 10.1445 31.7596 10.1445C25.5145 10.1445 20.7705 12.0962 17.5278 15.9994C14.3452 19.9026 12.7539 25.6374 12.7539 33.2037C12.7539 40.83 14.3452 46.5947 17.5278 50.498C20.7705 54.4012 25.5145 56.3528 31.7596 56.3528C34.3418 56.3528 36.7137 55.9625 38.8755 55.1819C41.0974 54.4012 43.5894 53.0801 46.3517 51.2186C46.9522 50.8583 47.5527 50.558 48.1532 50.3178C48.7537 50.0776 49.3842 49.9575 50.0448 49.9575C51.0656 49.9575 51.9363 50.4079 52.6569 51.3087C53.3775 52.2094 53.7378 53.3203 53.7378 54.6414C53.7378 55.5422 53.5877 56.3528 53.2875 57.0734C52.9872 57.734 52.4468 58.3645 51.6661 58.965C48.9639 61.1868 45.8713 62.8983 42.3884 64.0993C38.9056 65.2402 35.1825 65.8107 31.2192 65.8107ZM72.3393 65.5404C70.718 65.5404 69.3669 65.0901 68.286 64.1893C67.2651 63.2285 66.7547 61.8774 66.7547 60.136V6.36141C66.7547 4.61997 67.2651 3.29888 68.286 2.39813C69.3669 1.49738 70.718 1.04701 72.3393 1.04701C73.9607 1.04701 75.3118 1.49738 76.3927 2.39813C77.4736 3.29888 78.014 4.61997 78.014 6.36141V60.136C78.014 61.8774 77.4736 63.2285 76.3927 64.1893C75.3118 65.0901 73.9607 65.5404 72.3393 65.5404ZM113.565 65.7206C109.061 65.7206 105.098 64.7898 101.675 62.9283C98.3124 61.0667 95.7003 58.3945 93.8387 54.9116C91.9772 51.4288 91.0464 47.3754 91.0464 42.7516C91.0464 38.1277 91.9772 34.1044 93.8387 30.6816C95.7003 27.1987 98.3124 24.5265 101.675 22.6649C105.098 20.8034 109.061 19.8726 113.565 19.8726C118.069 19.8726 122.002 20.8034 125.365 22.6649C128.788 24.5265 131.4 27.1987 133.201 30.6816C135.063 34.1044 135.994 38.1277 135.994 42.7516C135.994 47.3754 135.063 51.4288 133.201 54.9116C131.4 58.3945 128.788 61.0667 125.365 62.9283C122.002 64.7898 118.069 65.7206 113.565 65.7206ZM113.475 56.9834C117.138 56.9834 119.93 55.7824 121.852 53.3804C123.774 50.9784 124.734 47.4354 124.734 42.7516C124.734 38.1277 123.774 34.6148 121.852 32.2128C119.93 29.7508 117.168 28.5198 113.565 28.5198C109.962 28.5198 107.17 29.7508 105.188 32.2128C103.267 34.6148 102.306 38.1277 102.306 42.7516C102.306 47.4354 103.267 50.9784 105.188 53.3804C107.11 55.7824 109.872 56.9834 113.475 56.9834ZM183.911 20.0528C185.652 20.0528 187.034 20.5332 188.054 21.494C189.075 22.4547 189.586 23.7458 189.586 25.3672V60.3161C189.586 61.8774 189.045 63.1385 187.964 64.0993C186.943 65.06 185.592 65.5404 183.911 65.5404C182.29 65.5404 180.999 65.0901 180.038 64.1893C179.077 63.2886 178.597 62.0576 178.597 60.4963V58.2444C177.215 60.6464 175.354 62.5079 173.012 63.829C170.67 65.0901 168.028 65.7206 165.085 65.7206C154.276 65.7206 148.872 59.6556 148.872 47.5255V25.3672C148.872 23.7458 149.382 22.4547 150.403 21.494C151.424 20.5332 152.775 20.0528 154.457 20.0528C156.198 20.0528 157.579 20.5332 158.6 21.494C159.621 22.4547 160.131 23.7458 160.131 25.3672V47.6156C160.131 50.7382 160.762 53.0501 162.023 54.5513C163.284 56.0526 165.265 56.8032 167.968 56.8032C171.09 56.8032 173.582 55.7824 175.444 53.7407C177.365 51.6389 178.326 48.8766 178.326 45.4538V25.3672C178.326 23.7458 178.837 22.4547 179.858 21.494C180.878 20.5332 182.23 20.0528 183.911 20.0528ZM241.908 1.04701C243.59 1.04701 244.971 1.52741 246.052 2.48821C247.132 3.449 247.673 4.71004 247.673 6.27134V60.136C247.673 61.7573 247.162 63.0484 246.142 64.0092C245.121 64.97 243.77 65.4504 242.088 65.4504C240.407 65.4504 239.056 64.97 238.035 64.0092C237.014 63.0484 236.504 61.7573 236.504 60.136V57.8841C235.183 60.3461 233.261 62.2677 230.739 63.6489C228.277 65.03 225.454 65.7206 222.272 65.7206C218.489 65.7206 215.096 64.7598 212.093 62.8382C209.151 60.9166 206.839 58.2144 205.158 54.7315C203.536 51.1886 202.726 47.1352 202.726 42.5714C202.726 38.0076 203.536 34.0143 205.158 30.5915C206.839 27.1687 209.151 24.5265 212.093 22.6649C215.036 20.8034 218.429 19.8726 222.272 19.8726C225.454 19.8726 228.277 20.5332 230.739 21.8542C233.201 23.1753 235.092 25.0369 236.414 27.4389V6.09119C236.414 4.58995 236.894 3.38895 237.855 2.48821C238.876 1.52741 240.227 1.04701 241.908 1.04701ZM225.244 56.9834C228.847 56.9834 231.61 55.7523 233.531 53.2903C235.513 50.8283 236.504 47.3153 236.504 42.7516C236.504 38.1878 235.513 34.7049 233.531 32.3029C231.61 29.8409 228.877 28.6098 225.334 28.6098C221.731 28.6098 218.939 29.8108 216.957 32.2128C214.976 34.6148 213.985 38.0677 213.985 42.5714C213.985 47.1352 214.976 50.6781 216.957 53.2002C218.939 55.7223 221.701 56.9834 225.244 56.9834ZM297.991 65C296.249 65 294.868 64.5196 293.847 63.5588C292.887 62.598 292.406 61.2469 292.406 59.5054V6.99193C292.406 5.25049 292.887 3.89937 293.847 2.93858C294.868 1.97778 296.249 1.49738 297.991 1.49738H330.508C332.249 1.49738 333.6 1.88771 334.561 2.66835C335.522 3.449 336.002 4.55992 336.002 6.00111C336.002 7.50236 335.522 8.67333 334.561 9.51402C333.6 10.2947 332.249 10.685 330.508 10.685H303.756V28.1595H328.706C330.448 28.1595 331.799 28.5498 332.76 29.3304C333.721 30.1111 334.201 31.252 334.201 32.7533C334.201 34.1945 333.721 35.3054 332.76 36.086C331.799 36.8667 330.448 37.257 328.706 37.257H303.756V55.8124H330.508C332.249 55.8124 333.6 56.2327 334.561 57.0734C335.522 57.8541 336.002 58.995 336.002 60.4963C336.002 61.9375 335.522 63.0484 334.561 63.829C333.6 64.6097 332.249 65 330.508 65H297.991ZM386.502 56.7131C387.583 57.794 388.124 59.025 388.124 60.4062C388.124 61.7273 387.613 62.9283 386.592 64.0092C385.572 65.03 384.371 65.5404 382.989 65.5404C381.488 65.5404 380.197 64.9099 379.116 63.6489L366.416 49.5972L353.715 63.6489C352.574 64.8499 351.283 65.4504 349.842 65.4504C348.521 65.4504 347.35 64.94 346.329 63.9191C345.308 62.8983 344.798 61.7273 344.798 60.4062C344.798 59.025 345.338 57.794 346.419 56.7131L359.57 42.3913L347.14 28.8801C346.059 27.7992 345.518 26.5682 345.518 25.187C345.518 23.8059 346.029 22.6349 347.05 21.6741C348.07 20.6533 349.241 20.1428 350.563 20.1428C352.004 20.1428 353.295 20.7433 354.436 21.9443L366.416 35.0952L378.396 21.9443C379.537 20.7433 380.828 20.1428 382.269 20.1428C383.65 20.1428 384.821 20.6533 385.782 21.6741C386.803 22.6349 387.313 23.8059 387.313 25.187C387.313 26.5682 386.773 27.7992 385.692 28.8801L373.261 42.3913L386.502 56.7131ZM425.415 19.8726C429.198 19.8726 432.561 20.8334 435.503 22.755C438.506 24.6766 440.818 27.4089 442.439 30.9518C444.12 34.4347 444.961 38.458 444.961 43.0218C444.961 47.5856 444.12 51.5789 442.439 55.0017C440.818 58.4246 438.536 61.0667 435.593 62.9283C432.651 64.7898 429.258 65.7206 425.415 65.7206C422.292 65.7206 419.5 65.06 417.038 63.739C414.576 62.4179 412.684 60.5863 411.363 58.2444V76.6196C411.363 78.1809 410.853 79.4119 409.832 80.3127C408.811 81.2134 407.46 81.6638 405.779 81.6638C404.097 81.6638 402.716 81.1834 401.635 80.2226C400.614 79.2618 400.104 78.0008 400.104 76.4395V25.3672C400.104 23.7458 400.584 22.4547 401.545 21.494C402.566 20.5332 403.917 20.0528 405.599 20.0528C407.28 20.0528 408.631 20.5332 409.652 21.494C410.673 22.4547 411.183 23.7458 411.183 25.3672V27.619C412.504 25.157 414.396 23.2654 416.858 21.9443C419.38 20.5632 422.232 19.8726 425.415 19.8726ZM422.442 56.9834C425.985 56.9834 428.748 55.7824 430.729 53.3804C432.711 50.9183 433.702 47.4655 433.702 43.0218C433.702 38.458 432.711 34.9151 430.729 32.393C428.748 29.8709 425.985 28.6098 422.442 28.6098C418.839 28.6098 416.047 29.8409 414.066 32.3029C412.144 34.7649 411.183 38.2779 411.183 42.8416C411.183 47.3454 412.144 50.8283 414.066 53.2903C416.047 55.7523 418.839 56.9834 422.442 56.9834ZM492.914 52.93C493.934 52.93 494.745 53.3203 495.346 54.101C496.006 54.8816 496.336 55.9325 496.336 57.2536C496.336 59.1151 495.226 60.6764 493.004 61.9375C490.962 63.0784 488.65 64.0092 486.068 64.7298C483.486 65.3903 481.024 65.7206 478.682 65.7206C471.596 65.7206 465.981 63.6789 461.838 59.5955C457.694 55.5121 455.623 49.9275 455.623 42.8416C455.623 38.3379 456.523 34.3446 458.325 30.8617C460.126 27.3788 462.649 24.6766 465.891 22.755C469.194 20.8334 472.917 19.8726 477.06 19.8726C481.024 19.8726 484.477 20.7433 487.419 22.4848C490.361 24.2262 492.643 26.6883 494.265 29.8709C495.886 33.0535 496.697 36.8066 496.697 41.1302C496.697 43.7124 495.556 45.0034 493.274 45.0034H466.702C467.062 49.1469 468.233 52.2094 470.215 54.191C472.196 56.1126 475.079 57.0734 478.862 57.0734C480.784 57.0734 482.465 56.8332 483.906 56.3528C485.407 55.8724 487.089 55.2119 488.95 54.3712C490.752 53.4104 492.073 52.93 492.914 52.93ZM477.331 27.7992C474.268 27.7992 471.806 28.76 469.945 30.6816C468.143 32.6032 467.062 35.3654 466.702 38.9684H487.059C486.939 35.3054 486.038 32.5431 484.357 30.6816C482.675 28.76 480.333 27.7992 477.331 27.7992ZM534.35 20.0528C535.912 19.9327 537.143 20.2629 538.043 21.0436C538.944 21.8242 539.395 22.9952 539.395 24.5565C539.395 26.1778 539.004 27.3788 538.224 28.1595C537.443 28.9401 536.032 29.4505 533.99 29.6907L531.288 29.961C527.745 30.3213 525.133 31.5223 523.451 33.564C521.83 35.6056 521.019 38.1578 521.019 41.2203V60.136C521.019 61.8774 520.479 63.2285 519.398 64.1893C518.317 65.0901 516.966 65.5404 515.345 65.5404C513.723 65.5404 512.372 65.0901 511.291 64.1893C510.27 63.2285 509.76 61.8774 509.76 60.136V25.2771C509.76 23.5957 510.27 22.3046 511.291 21.4039C512.372 20.5031 513.693 20.0528 515.255 20.0528C516.816 20.0528 518.077 20.5031 519.038 21.4039C519.999 22.2446 520.479 23.4756 520.479 25.0969V28.6999C521.62 26.0577 523.301 24.016 525.523 22.5748C527.805 21.1337 530.327 20.323 533.089 20.1428L534.35 20.0528ZM553.68 65.5404C552.058 65.5404 550.707 65.0901 549.626 64.1893C548.605 63.2285 548.095 61.8774 548.095 60.136V25.3672C548.095 23.6257 548.605 22.3046 549.626 21.4039C550.707 20.5031 552.058 20.0528 553.68 20.0528C555.301 20.0528 556.652 20.5031 557.733 21.4039C558.814 22.3046 559.354 23.6257 559.354 25.3672V60.136C559.354 61.8774 558.814 63.2285 557.733 64.1893C556.652 65.0901 555.301 65.5404 553.68 65.5404ZM553.68 12.0361C551.638 12.0361 550.016 11.4957 548.815 10.4148C547.615 9.27383 547.014 7.80261 547.014 6.00111C547.014 4.19962 547.615 2.75843 548.815 1.67753C550.016 0.596638 551.638 0.0561898 553.68 0.0561898C555.661 0.0561898 557.252 0.596638 558.453 1.67753C559.715 2.75843 560.345 4.19962 560.345 6.00111C560.345 7.80261 559.745 9.27383 558.544 10.4148C557.343 11.4957 555.721 12.0361 553.68 12.0361ZM609.678 52.93C610.698 52.93 611.509 53.3203 612.11 54.101C612.77 54.8816 613.1 55.9325 613.1 57.2536C613.1 59.1151 611.989 60.6764 609.768 61.9375C607.726 63.0784 605.414 64.0092 602.832 64.7298C600.25 65.3903 597.788 65.7206 595.446 65.7206C588.36 65.7206 582.745 63.6789 578.602 59.5955C574.458 55.5121 572.387 49.9275 572.387 42.8416C572.387 38.3379 573.287 34.3446 575.089 30.8617C576.89 27.3788 579.412 24.6766 582.655 22.755C585.958 20.8334 589.681 19.8726 593.824 19.8726C597.788 19.8726 601.241 20.7433 604.183 22.4848C607.125 24.2262 609.407 26.6883 611.029 29.8709C612.65 33.0535 613.461 36.8066 613.461 41.1302C613.461 43.7124 612.32 45.0034 610.038 45.0034H583.466C583.826 49.1469 584.997 52.2094 586.979 54.191C588.96 56.1126 591.843 57.0734 595.626 57.0734C597.547 57.0734 599.229 56.8332 600.67 56.3528C602.171 55.8724 603.853 55.2119 605.714 54.3712C607.516 53.4104 608.837 52.93 609.678 52.93ZM594.095 27.7992C591.032 27.7992 588.57 28.76 586.709 30.6816C584.907 32.6032 583.826 35.3654 583.466 38.9684H603.823C603.703 35.3054 602.802 32.5431 601.12 30.6816C599.439 28.76 597.097 27.7992 594.095 27.7992ZM652.105 19.8726C657.39 19.8726 661.323 21.3738 663.905 24.3763C666.487 27.3788 667.778 31.9126 667.778 37.9776V60.136C667.778 61.8174 667.268 63.1385 666.247 64.0993C665.286 65.06 663.935 65.5404 662.194 65.5404C660.452 65.5404 659.071 65.06 658.05 64.0993C657.029 63.1385 656.519 61.8174 656.519 60.136V38.6081C656.519 35.1853 655.858 32.6932 654.537 31.1319C653.276 29.5706 651.264 28.79 648.502 28.79C645.26 28.79 642.647 29.8108 640.666 31.8525C638.744 33.8942 637.783 36.6265 637.783 40.0493V60.136C637.783 61.8174 637.273 63.1385 636.252 64.0993C635.231 65.06 633.85 65.5404 632.109 65.5404C630.367 65.5404 628.986 65.06 627.965 64.0993C627.004 63.1385 626.524 61.8174 626.524 60.136V25.2771C626.524 23.7158 627.034 22.4547 628.055 21.494C629.076 20.5332 630.457 20.0528 632.199 20.0528C633.76 20.0528 635.021 20.5332 635.982 21.494C637.003 22.3947 637.513 23.5957 637.513 25.0969V27.529C639.014 25.0669 641.026 23.1753 643.548 21.8542C646.07 20.5332 648.923 19.8726 652.105 19.8726ZM702.614 65.7206C698.23 65.7206 694.357 64.7898 690.994 62.9283C687.691 61.0667 685.139 58.4246 683.338 55.0017C681.536 51.5789 680.635 47.5856 680.635 43.0218C680.635 38.458 681.566 34.4347 683.428 30.9518C685.349 27.4089 688.021 24.6766 691.444 22.755C694.867 20.8334 698.8 19.8726 703.244 19.8726C705.586 19.8726 707.928 20.2029 710.27 20.8634C712.672 21.524 714.774 22.4247 716.575 23.5657C718.497 24.8267 719.457 26.418 719.457 28.3396C719.457 29.6607 719.127 30.7416 718.467 31.5823C717.866 32.363 717.055 32.7533 716.035 32.7533C715.374 32.7533 714.684 32.6032 713.963 32.3029C713.242 32.0027 712.522 31.6424 711.801 31.222C710.48 30.4414 709.219 29.8409 708.018 29.4205C706.817 28.9401 705.436 28.6999 703.875 28.6999C700.151 28.6999 697.269 29.9309 695.227 32.393C693.246 34.795 692.255 38.2779 692.255 42.8416C692.255 47.3454 693.246 50.8283 695.227 53.2903C697.269 55.6923 700.151 56.8933 703.875 56.8933C705.376 56.8933 706.697 56.6831 707.838 56.2628C709.039 55.7824 710.36 55.1518 711.801 54.3712C712.702 53.8307 713.483 53.4404 714.143 53.2002C714.804 52.9 715.464 52.7498 716.125 52.7498C717.086 52.7498 717.896 53.1702 718.557 54.0109C719.217 54.8516 719.548 55.9025 719.548 57.1635C719.548 58.1844 719.307 59.0851 718.827 59.8657C718.407 60.5863 717.686 61.2469 716.665 61.8474C714.804 63.0484 712.642 64.0092 710.18 64.7298C707.718 65.3903 705.196 65.7206 702.614 65.7206ZM765.761 52.93C766.782 52.93 767.593 53.3203 768.193 54.101C768.854 54.8816 769.184 55.9325 769.184 57.2536C769.184 59.1151 768.073 60.6764 765.851 61.9375C763.81 63.0784 761.498 64.0092 758.915 64.7298C756.333 65.3903 753.871 65.7206 751.529 65.7206C744.443 65.7206 738.829 63.6789 734.685 59.5955C730.542 55.5121 728.47 49.9275 728.47 42.8416C728.47 38.3379 729.371 34.3446 731.172 30.8617C732.974 27.3788 735.496 24.6766 738.739 22.755C742.042 20.8334 745.765 19.8726 749.908 19.8726C753.871 19.8726 757.324 20.7433 760.267 22.4848C763.209 24.2262 765.491 26.6883 767.112 29.8709C768.734 33.0535 769.544 36.8066 769.544 41.1302C769.544 43.7124 768.403 45.0034 766.121 45.0034H739.549C739.91 49.1469 741.081 52.2094 743.062 54.191C745.044 56.1126 747.926 57.0734 751.71 57.0734C753.631 57.0734 755.313 56.8332 756.754 56.3528C758.255 55.8724 759.936 55.2119 761.798 54.3712C763.599 53.4104 764.92 52.93 765.761 52.93ZM750.178 27.7992C747.116 27.7992 744.654 28.76 742.792 30.6816C740.991 32.6032 739.91 35.3654 739.549 38.9684H759.906C759.786 35.3054 758.885 32.5431 757.204 30.6816C755.523 28.76 753.181 27.7992 750.178 27.7992Z" fill="url(#paint0_linear)"/>
<defs>
<linearGradient id="paint0_linear" x1="424.228" y1="-83.2773" x2="387.566" y2="139.966" gradientUnits="userSpaceOnUse">
<stop stop-color="#B133DC"/>
<stop offset="1" stop-color="#3CECEC"/>
</linearGradient>
</defs>
</svg>
