<svg width="48" height="49" viewBox="0 0 48 49" fill="none" xmlns="http://www.w3.org/2000/svg">
<path fill-rule="evenodd" clip-rule="evenodd" d="M1 0.999756L1 46.9998L1 47.9998L47 47.9998V46.9998H2L10 39.9998L9.3415 39.2472L2 45.671L2 0.999756H1ZM38.875 16.3341L34.9044 21.7938L34.0956 21.2057L38.0431 15.7778C36.7968 14.7695 36 13.2277 36 11.4998C36 8.46219 38.4624 5.99976 41.5 5.99976C44.5376 5.99976 47 8.46219 47 11.4998C47 14.5373 44.5376 16.9998 41.5 16.9998C40.5494 16.9998 39.6551 16.7586 38.875 16.3341ZM18.3458 32.896C18.7632 33.6711 19 34.5578 19 35.4998C19 38.5373 16.5376 40.9998 13.5 40.9998C10.4624 40.9998 8 38.5373 8 35.4998C8 32.4622 10.4624 29.9998 13.5 29.9998C15.2203 29.9998 16.7561 30.7896 17.7646 32.0263L26.5983 29.3762C25.6104 28.3819 25 27.0121 25 25.4998C25 22.4622 27.4624 19.9998 30.5 19.9998C33.5376 19.9998 36 22.4622 36 25.4998C36 28.5373 33.5376 30.9998 30.5 30.9998C29.411 30.9998 28.3959 30.6833 27.5417 30.1372L18.3458 32.896ZM41.5 15.9998C43.9853 15.9998 46 13.985 46 11.4998C46 9.01447 43.9853 6.99976 41.5 6.99976C39.0147 6.99976 37 9.01447 37 11.4998C37 13.985 39.0147 15.9998 41.5 15.9998ZM35 25.4998C35 27.985 32.9853 29.9998 30.5 29.9998C28.0147 29.9998 26 27.985 26 25.4998C26 23.0145 28.0147 20.9998 30.5 20.9998C32.9853 20.9998 35 23.0145 35 25.4998ZM18 35.4998C18 37.985 15.9853 39.9998 13.5 39.9998C11.0147 39.9998 9 37.985 9 35.4998C9 33.0145 11.0147 30.9998 13.5 30.9998C15.9853 30.9998 18 33.0145 18 35.4998Z" fill="#BDBDBD"/>
<path d="M1 46.9998H0.5H1ZM1 0.999756V0.499756H0.500002L0.500002 0.999756L1 0.999756ZM1 47.9998H0.500002L0.500003 48.4998H1L1 47.9998ZM47 47.9998V48.4998H47.5V47.9998H47ZM47 46.9998H47.5V46.4998H47V46.9998ZM2 46.9998L1.67075 46.6235L0.669275 47.4998H2V46.9998ZM10 39.9998L10.3293 40.376L10.7055 40.0468L10.3763 39.6705L10 39.9998ZM9.3415 39.2472L9.71779 38.9179L9.38853 38.5416L9.01225 38.8709L9.3415 39.2472ZM2 45.671H1.5L1.5 46.7729L2.32925 46.0473L2 45.671ZM2 0.999756L2.5 0.999756V0.499756H2V0.999756ZM38.875 16.3341L39.114 15.8949L38.7287 15.6852L38.4706 16.04L38.875 16.3341ZM34.9044 21.7938L34.6103 22.1982L35.0147 22.4923L35.3087 22.0879L34.9044 21.7938ZM34.0956 21.2057L33.6913 20.9116L33.3972 21.316L33.8016 21.61L34.0956 21.2057ZM38.0431 15.7778L38.4475 16.0719L38.7268 15.6878L38.3576 15.3891L38.0431 15.7778ZM18.3458 32.896L18.2022 32.4171L17.615 32.5933L17.9056 33.133L18.3458 32.896ZM17.7646 32.0263L17.3771 32.3423L17.5883 32.6012L17.9083 32.5052L17.7646 32.0263ZM26.5983 29.3762L26.742 29.8551L27.5409 29.6155L26.953 29.0238L26.5983 29.3762ZM27.5417 30.1372L27.811 29.716L27.6178 29.5924L27.3981 29.6583L27.5417 30.1372ZM1.5 46.9998L1.5 0.999756L0.500002 0.999756L0.5 46.9998H1.5ZM1.5 47.9998L1.5 46.9998H0.5L0.500002 47.9998H1.5ZM47 47.4998L1 47.4998L1 48.4998L47 48.4998V47.4998ZM46.5 46.9998V47.9998H47.5V46.9998H46.5ZM2 47.4998H47V46.4998H2V47.4998ZM9.67075 39.6235L1.67075 46.6235L2.32925 47.376L10.3293 40.376L9.67075 39.6235ZM8.96521 39.5764L9.62371 40.329L10.3763 39.6705L9.71779 38.9179L8.96521 39.5764ZM2.32925 46.0473L9.67075 39.6235L9.01225 38.8709L1.67075 45.2947L2.32925 46.0473ZM1.5 0.999756L1.5 45.671H2.5L2.5 0.999756L1.5 0.999756ZM1 1.49976H2V0.499756H1V1.49976ZM38.4706 16.04L34.5 21.4998L35.3087 22.0879L39.2794 16.6282L38.4706 16.04ZM35.1985 21.3895L34.3897 20.8013L33.8016 21.61L34.6103 22.1982L35.1985 21.3895ZM34.5 21.4998L38.4475 16.0719L37.6387 15.4837L33.6913 20.9116L34.5 21.4998ZM38.3576 15.3891C37.2236 14.4717 36.5 13.0704 36.5 11.4998H35.5C35.5 13.385 36.37 15.0674 37.7286 16.1665L38.3576 15.3891ZM36.5 11.4998C36.5 8.73833 38.7386 6.49976 41.5 6.49976V5.49976C38.1863 5.49976 35.5 8.18605 35.5 11.4998H36.5ZM41.5 6.49976C44.2614 6.49976 46.5 8.73833 46.5 11.4998H47.5C47.5 8.18605 44.8137 5.49976 41.5 5.49976V6.49976ZM46.5 11.4998C46.5 14.2612 44.2614 16.4998 41.5 16.4998V17.4998C44.8137 17.4998 47.5 14.8135 47.5 11.4998H46.5ZM41.5 16.4998C40.6349 16.4998 39.8226 16.2805 39.114 15.8949L38.636 16.7733C39.4876 17.2367 40.4638 17.4998 41.5 17.4998V16.4998ZM19.5 35.4998C19.5 34.473 19.2417 33.5051 18.7861 32.659L17.9056 33.133C18.2847 33.8371 18.5 34.6425 18.5 35.4998H19.5ZM13.5 41.4998C16.8137 41.4998 19.5 38.8135 19.5 35.4998H18.5C18.5 38.2612 16.2614 40.4998 13.5 40.4998V41.4998ZM7.5 35.4998C7.5 38.8135 10.1863 41.4998 13.5 41.4998V40.4998C10.7386 40.4998 8.5 38.2612 8.5 35.4998H7.5ZM13.5 29.4998C10.1863 29.4998 7.5 32.186 7.5 35.4998H8.5C8.5 32.7383 10.7386 30.4998 13.5 30.4998V29.4998ZM18.1521 31.7103C17.0527 30.3621 15.3769 29.4998 13.5 29.4998V30.4998C15.0637 30.4998 16.4595 31.217 17.3771 32.3423L18.1521 31.7103ZM26.4547 28.8973L17.621 31.5474L17.9083 32.5052L26.742 29.8551L26.4547 28.8973ZM24.5 25.4998C24.5 27.1495 25.1665 28.6445 26.2436 29.7286L26.953 29.0238C26.0544 28.1194 25.5 26.8748 25.5 25.4998H24.5ZM30.5 19.4998C27.1863 19.4998 24.5 22.186 24.5 25.4998H25.5C25.5 22.7383 27.7386 20.4998 30.5 20.4998V19.4998ZM36.5 25.4998C36.5 22.186 33.8137 19.4998 30.5 19.4998V20.4998C33.2614 20.4998 35.5 22.7383 35.5 25.4998H36.5ZM30.5 31.4998C33.8137 31.4998 36.5 28.8135 36.5 25.4998H35.5C35.5 28.2612 33.2614 30.4998 30.5 30.4998V31.4998ZM27.2724 30.5585C28.2046 31.1544 29.3128 31.4998 30.5 31.4998V30.4998C29.5092 30.4998 28.5872 30.2121 27.811 29.716L27.2724 30.5585ZM18.4895 33.3749L27.6854 30.6161L27.3981 29.6583L18.2022 32.4171L18.4895 33.3749ZM45.5 11.4998C45.5 13.7089 43.7091 15.4998 41.5 15.4998V16.4998C44.2614 16.4998 46.5 14.2612 46.5 11.4998H45.5ZM41.5 7.49976C43.7091 7.49976 45.5 9.29062 45.5 11.4998H46.5C46.5 8.73833 44.2614 6.49976 41.5 6.49976V7.49976ZM37.5 11.4998C37.5 9.29062 39.2909 7.49976 41.5 7.49976V6.49976C38.7386 6.49976 36.5 8.73833 36.5 11.4998H37.5ZM41.5 15.4998C39.2909 15.4998 37.5 13.7089 37.5 11.4998H36.5C36.5 14.2612 38.7386 16.4998 41.5 16.4998V15.4998ZM30.5 30.4998C33.2614 30.4998 35.5 28.2612 35.5 25.4998H34.5C34.5 27.7089 32.7091 29.4998 30.5 29.4998V30.4998ZM25.5 25.4998C25.5 28.2612 27.7386 30.4998 30.5 30.4998V29.4998C28.2909 29.4998 26.5 27.7089 26.5 25.4998H25.5ZM30.5 20.4998C27.7386 20.4998 25.5 22.7383 25.5 25.4998H26.5C26.5 23.2906 28.2909 21.4998 30.5 21.4998V20.4998ZM35.5 25.4998C35.5 22.7383 33.2614 20.4998 30.5 20.4998V21.4998C32.7091 21.4998 34.5 23.2906 34.5 25.4998H35.5ZM13.5 40.4998C16.2614 40.4998 18.5 38.2612 18.5 35.4998H17.5C17.5 37.7089 15.7091 39.4998 13.5 39.4998V40.4998ZM8.5 35.4998C8.5 38.2612 10.7386 40.4998 13.5 40.4998V39.4998C11.2909 39.4998 9.5 37.7089 9.5 35.4998H8.5ZM13.5 30.4998C10.7386 30.4998 8.5 32.7383 8.5 35.4998H9.5C9.5 33.2906 11.2909 31.4998 13.5 31.4998V30.4998ZM18.5 35.4998C18.5 32.7383 16.2614 30.4998 13.5 30.4998V31.4998C15.7091 31.4998 17.5 33.2906 17.5 35.4998H18.5Z" fill="#BDBDBD"/>
</svg>
