<svg width="74" height="50" viewBox="0 0 74 50" fill="none" xmlns="http://www.w3.org/2000/svg">
<mask id="path-1-inside-1" fill="white">
<path fill-rule="evenodd" clip-rule="evenodd" d="M7.60468 25.9949C7.43875 24.9491 7.35294 23.8805 7.35294 22.7941C7.35294 10.2053 18.875 0 33.0882 0C42.7989 0 51.2534 4.76361 55.6354 11.7964C55.9604 11.7754 56.2879 11.7647 56.6176 11.7647C65.9578 11.7647 73.5294 20.324 73.5294 30.8824C73.5294 41.4407 65.9578 50 56.6176 50C56.3601 50 56.1039 49.9935 55.8492 49.9806C55.6168 49.9935 55.3827 50 55.1471 50H12.5C5.59644 50 0 44.4036 0 37.5C0 32.3338 3.13408 27.8996 7.60468 25.9949Z"/>
</mask>
<path fill-rule="evenodd" clip-rule="evenodd" d="M7.60468 25.9949C7.43875 24.9491 7.35294 23.8805 7.35294 22.7941C7.35294 10.2053 18.875 0 33.0882 0C42.7989 0 51.2534 4.76361 55.6354 11.7964C55.9604 11.7754 56.2879 11.7647 56.6176 11.7647C65.9578 11.7647 73.5294 20.324 73.5294 30.8824C73.5294 41.4407 65.9578 50 56.6176 50C56.3601 50 56.1039 49.9935 55.8492 49.9806C55.6168 49.9935 55.3827 50 55.1471 50H12.5C5.59644 50 0 44.4036 0 37.5C0 32.3338 3.13408 27.8996 7.60468 25.9949Z" fill="white"/>
<path d="M7.60468 25.9949L8.1926 27.3749L9.2696 26.9161L9.08615 25.7599L7.60468 25.9949ZM55.6354 11.7964L54.3623 12.5897L54.8368 13.3513L55.7323 13.2933L55.6354 11.7964ZM55.8492 49.9806L55.9249 48.4825L55.8456 48.4785L55.7662 48.4829L55.8492 49.9806ZM9.08615 25.7599C8.93248 24.7914 8.85294 23.8013 8.85294 22.7941H5.85294C5.85294 23.9596 5.94501 25.1069 6.12321 26.23L9.08615 25.7599ZM8.85294 22.7941C8.85294 11.1996 19.5272 1.5 33.0882 1.5V-1.5C18.2229 -1.5 5.85294 9.21092 5.85294 22.7941H8.85294ZM33.0882 1.5C42.3185 1.5 50.2734 6.02739 54.3623 12.5897L56.9085 11.0032C52.2333 3.49983 43.2792 -1.5 33.0882 -1.5V1.5ZM56.6176 10.2647C56.2556 10.2647 55.8958 10.2764 55.5385 10.2995L55.7323 13.2933C56.0251 13.2743 56.3203 13.2647 56.6176 13.2647V10.2647ZM75.0294 30.8824C75.0294 19.6737 66.9537 10.2647 56.6176 10.2647V13.2647C64.9618 13.2647 72.0294 20.9743 72.0294 30.8824H75.0294ZM56.6176 51.5C66.9537 51.5 75.0294 42.091 75.0294 30.8824H72.0294C72.0294 40.7904 64.9618 48.5 56.6176 48.5V51.5ZM55.7734 51.4787C56.0534 51.4929 56.3348 51.5 56.6176 51.5V48.5C56.3854 48.5 56.1544 48.4941 55.9249 48.4825L55.7734 51.4787ZM55.1471 51.5C55.4104 51.5 55.6721 51.4927 55.9321 51.4783L55.7662 48.4829C55.5614 48.4942 55.355 48.5 55.1471 48.5V51.5ZM12.5 51.5H55.1471V48.5H12.5V51.5ZM-1.5 37.5C-1.5 45.232 4.76801 51.5 12.5 51.5V48.5C6.42487 48.5 1.5 43.5751 1.5 37.5H-1.5ZM7.01676 24.615C2.01271 26.7469 -1.5 31.7115 -1.5 37.5H1.5C1.5 32.9561 4.25546 29.0523 8.1926 27.3749L7.01676 24.615Z" fill="#C4C4C4" mask="url(#path-1-inside-1)"/>
<rect x="17.647" y="22.0586" width="41.1765" height="2.94118" fill="#C4C4C4"/>
<rect x="17.647" y="29.4116" width="10.2941" height="2.94118" fill="#C4C4C4"/>
<rect x="32.353" y="29.4116" width="26.4706" height="2.94118" fill="#C4C4C4"/>
<rect x="17.647" y="36.7646" width="27.9412" height="2.94118" fill="#C4C4C4"/>
<rect x="50" y="36.7646" width="8.82353" height="2.94118" fill="#C4C4C4"/>
</svg>
