<svg width="52" height="42" viewBox="0 0 52 42" fill="none" xmlns="http://www.w3.org/2000/svg">
<path d="M35.5 33.625H38.5156C45.2445 33.625 50.75 28.9352 50.75 22.2063C50.75 15.6303 46.0375 11.8478 40.3734 10.9246C40.0658 10.8743 39.7766 10.7448 39.5342 10.5487C39.2919 10.3526 39.1048 10.0968 38.9914 9.80649C37.2265 5.27637 32.8436 1 26.2812 1C19.2159 1 13.1508 6.00363 11.7812 14.3219C11.7185 14.6999 11.5382 15.0484 11.2658 15.3179C10.9935 15.5874 10.643 15.7641 10.2644 15.8229C6.19309 16.472 1.8125 19.1624 1.8125 24.6531C1.8125 30.827 6.40039 33.625 12.0078 33.625H17.5" stroke="#BDBDBD" stroke-width="2" stroke-linejoin="round"/>
<path d="M31 32C30.2044 32 29.4413 31.6839 28.8787 31.1213C28.3161 30.5587 28 29.7956 28 29V25H20C19.4696 25 18.9609 25.2107 18.5858 25.5858C18.2107 25.9609 18 26.4696 18 27V38C18 38.5304 18.2107 39.0391 18.5858 39.4142C18.9609 39.7893 19.4696 40 20 40H33C33.5304 40 34.0391 39.7893 34.4142 39.4142C34.7893 39.0391 35 38.5304 35 38V32H31ZM29 29C29 29.5304 29.2107 30.0391 29.5858 30.4142C29.9609 30.7893 30.4696 31 31 31H34.586L29 25.414V29ZM20 24H29L36 31V38C36 38.7956 35.6839 39.5587 35.1213 40.1213C34.5587 40.6839 33.7956 41 33 41H20C19.2044 41 18.4413 40.6839 17.8787 40.1213C17.3161 39.5587 17 38.7956 17 38V27C17 26.2044 17.3161 25.4413 17.8787 24.8787C18.4413 24.3161 19.2044 24 20 24V24ZM20 28H26V29H20V28ZM20 32H26V33H20V32ZM20 36H33V37H20V36Z" fill="#BDBDBD" stroke="#BDBDBD" stroke-width="0.5"/>
</svg>
