<svg width="44" height="65" viewBox="0 0 44 65" fill="none" xmlns="http://www.w3.org/2000/svg">
<path fill-rule="evenodd" clip-rule="evenodd" d="M21.712 1H21.6022L21.5025 1.04602C16.1496 3.51659 13.4373 8.24285 12.7376 10.3419L12.712 10.4189L12.712 10.5226C12.712 13.3528 12.7121 19.5629 13.4635 26.0398C10.0058 26.7435 5.43246 28.6547 2.89284 32.2094C1.59372 34.0277 0.834727 36.2672 1.03068 38.9582C1.22593 41.6395 2.3663 44.7339 4.79981 48.2828L4.94877 48.5H5.21217C5.7588 48.5 6.0742 48.0893 6.25413 47.7295C6.44021 47.3573 6.57804 46.8558 6.7063 46.3194C6.76449 46.0761 6.82216 45.8195 6.88219 45.5523C7.09595 44.6011 7.33965 43.5166 7.7437 42.4233C8.25747 41.0331 9.01303 39.6856 10.2394 38.6842C11.4534 37.6929 13.1727 37.0049 15.6854 37C15.7027 37.0529 15.7201 37.1056 15.7376 37.1581L15.7507 37.1974L15.7701 37.2339C16.9183 39.4028 18.1285 40.7809 19.3765 41.5302C20.6426 42.2905 21.9113 42.381 23.0987 42.0434C24.2671 41.7113 25.3354 40.972 26.2573 40.1068C27.1103 39.3061 27.8605 38.3762 28.4725 37.5025C30.8587 37.5483 32.5088 38.2239 33.6848 39.1842C34.9112 40.1856 35.6667 41.5331 36.1805 42.9233C36.5845 44.0166 36.8283 45.1011 37.042 46.0523C37.102 46.3195 37.1597 46.5761 37.2179 46.8194C37.3461 47.3558 37.484 47.8573 37.6701 48.2295C37.85 48.5893 38.1654 49 38.712 49H38.9754L39.1244 48.7828C41.5579 45.2339 42.6983 42.1395 42.8935 39.4582C43.0895 36.7672 42.3305 34.5277 41.0314 32.7094C38.4754 29.1319 33.8596 27.219 30.3941 26.5263L30.7088 24.5595L31.7164 11.9649L31.7001 11.8915C31.1826 9.56282 29.8969 6.867 28.1615 4.74589C26.437 2.63816 24.1842 1.00001 21.712 1ZM34.3173 38.4096C32.9989 37.333 31.2182 36.6115 28.7964 36.5119L30.236 27.5145C33.5783 28.1898 37.8812 30.0205 40.2177 33.2907C41.3894 34.9307 42.0742 36.9411 41.8962 39.3856C41.7246 41.7417 40.7487 44.5332 38.5768 47.8064L38.5645 47.7823C38.4361 47.5255 38.32 47.1287 38.1905 46.5869C38.1376 46.3659 38.0836 46.1252 38.0261 45.869L38.0259 45.8679L38.0259 45.8678C37.8112 44.9112 37.5482 43.7395 37.1185 42.5767C36.5698 41.0919 35.7316 39.5645 34.3173 38.4096ZM15.375 36.0039C14.5481 33.2107 13.978 30.1112 13.5849 27.0357C10.2578 27.7275 6.01895 29.554 3.70651 32.7907C2.53479 34.4307 1.85004 36.4411 2.02804 38.8856C2.19961 41.2417 3.1755 44.0332 5.34736 47.3064L5.3597 47.2823C5.48808 47.0255 5.60416 46.6287 5.73372 46.0869C5.78664 45.8656 5.84075 45.6245 5.89833 45.3679C6.11301 44.4113 6.37597 43.2395 6.8057 42.0767C7.35443 40.5919 8.19262 39.0645 9.6069 37.9096C10.9698 36.7967 12.8267 36.0632 15.375 36.0039ZM13.712 10.5828C14.3822 8.65455 16.9053 4.31287 21.82 2.00129C23.8106 2.04859 25.7663 3.39769 27.3875 5.37913C29.0088 7.36072 30.2143 9.88042 30.7075 12.0359L29.7151 24.4405L27.736 36.81C27.1354 37.6806 26.3998 38.6015 25.5729 39.3776C24.7135 40.1842 23.7819 40.8096 22.8252 41.0816C21.8876 41.3481 20.9064 41.2824 19.8912 40.6729C18.864 40.0561 17.7686 38.8613 16.6732 36.8025C13.7345 27.9489 13.7122 15.1677 13.712 10.5828ZM22.212 10.9998V15.9998H23.212V10.9998H22.212ZM21.212 49.9998V63.9998H22.212V49.9998H21.212ZM15.212 49.9998V58.9998H16.212V49.9998H15.212ZM27.212 49.9998V58.9998H28.212V49.9998H27.212Z" fill="#BDBDBD"/>
<path d="M21.6022 1V0.5H21.4924L21.3926 0.54602L21.6022 1ZM21.712 1L21.712 0.5H21.712V1ZM21.5025 1.04602L21.2929 0.592041L21.2929 0.592042L21.5025 1.04602ZM12.7376 10.3419L12.2633 10.1838V10.1838L12.7376 10.3419ZM12.712 10.4189L12.2376 10.2607L12.212 10.3377L12.212 10.4189L12.712 10.4189ZM12.712 10.5226L13.212 10.5226V10.5226L12.712 10.5226ZM13.4635 26.0398L13.5633 26.5297L14.0131 26.4381L13.9602 25.9821L13.4635 26.0398ZM2.89284 32.2094L3.29967 32.5L3.29967 32.5L2.89284 32.2094ZM1.03068 38.9582L0.532003 38.9945L1.03068 38.9582ZM4.79981 48.2828L4.38745 48.5656H4.38745L4.79981 48.2828ZM4.94877 48.5L4.53641 48.7828L4.68537 49H4.94877V48.5ZM6.25413 47.7295L5.80692 47.5059L6.25413 47.7295ZM6.7063 46.3194L6.22001 46.2031H6.22001L6.7063 46.3194ZM6.88219 45.5523L6.39435 45.4427H6.39435L6.88219 45.5523ZM7.7437 42.4233L8.21269 42.5967L7.7437 42.4233ZM10.2394 38.6842L9.92314 38.2969L9.92314 38.2969L10.2394 38.6842ZM15.6854 37L16.1605 36.8443L16.0474 36.4993L15.6844 36.5L15.6854 37ZM15.7376 37.1581L15.2633 37.3162L15.2633 37.3162L15.7376 37.1581ZM15.7507 37.1974L15.2764 37.3555L15.2895 37.3947L15.3088 37.4313L15.7507 37.1974ZM15.7701 37.2339L15.3282 37.4679L15.3282 37.4679L15.7701 37.2339ZM19.3765 41.5302L19.1191 41.9589L19.3765 41.5302ZM23.0987 42.0434L22.962 41.5625L23.0987 42.0434ZM26.2573 40.1068L25.9151 39.7422H25.9151L26.2573 40.1068ZM28.4725 37.5025L28.4821 37.0026L28.2158 36.9975L28.063 37.2156L28.4725 37.5025ZM33.6848 39.1842L34.0011 38.7969L34.0011 38.7969L33.6848 39.1842ZM36.1805 42.9233L35.7115 43.0967L36.1805 42.9233ZM37.042 46.0523L37.5298 45.9427V45.9427L37.042 46.0523ZM37.2179 46.8194L37.7042 46.7031V46.7031L37.2179 46.8194ZM37.6701 48.2295L37.2229 48.4531V48.4531L37.6701 48.2295ZM38.9754 49V49.5H39.2388L39.3878 49.2828L38.9754 49ZM39.1244 48.7828L39.5367 49.0656L39.5368 49.0656L39.1244 48.7828ZM42.8935 39.4582L43.3922 39.4945L42.8935 39.4582ZM41.0314 32.7094L40.6245 33L41.0314 32.7094ZM30.3941 26.5263L29.9004 26.4473L29.8244 26.9223L30.2961 27.0166L30.3941 26.5263ZM30.7088 24.5595L31.2025 24.6385L31.2056 24.6191L31.2072 24.5994L30.7088 24.5595ZM31.7164 11.9649L32.2148 12.0048L32.2208 11.9299L32.2045 11.8565L31.7164 11.9649ZM31.7001 11.8915L32.1882 11.7831V11.7831L31.7001 11.8915ZM28.1615 4.74589L28.5484 4.42927L28.1615 4.74589ZM28.7964 36.5119L28.3027 36.4329L28.2138 36.9883L28.7759 37.0114L28.7964 36.5119ZM34.3173 38.4096L34.0011 38.7969V38.7969L34.3173 38.4096ZM30.236 27.5145L30.335 27.0244L29.8246 26.9213L29.7423 27.4356L30.236 27.5145ZM40.2177 33.2907L40.6245 33L40.2177 33.2907ZM41.8962 39.3856L41.3975 39.3493V39.3493L41.8962 39.3856ZM38.5768 47.8064L38.1316 48.034L38.5207 48.7953L38.9935 48.0829L38.5768 47.8064ZM38.5645 47.7823L38.1173 48.0059L38.1193 48.0098L38.5645 47.7823ZM38.1905 46.5869L38.6768 46.4706V46.4706L38.1905 46.5869ZM38.0261 45.869L38.514 45.7596L38.5136 45.758L38.0261 45.869ZM38.0259 45.8679L37.5354 45.966L37.5383 45.9789L38.0259 45.8679ZM38.0259 45.8678L38.5163 45.7697L38.5137 45.7583L38.0259 45.8678ZM37.1185 42.5767L36.6495 42.75V42.75L37.1185 42.5767ZM13.5849 27.0357L14.0809 26.9723L14.0123 26.4361L13.4831 26.5462L13.5849 27.0357ZM15.375 36.0039L15.3867 36.5038L16.04 36.4886L15.8545 35.862L15.375 36.0039ZM3.70651 32.7907L3.29967 32.5L3.70651 32.7907ZM2.02804 38.8856L2.52672 38.8493L2.02804 38.8856ZM5.34736 47.3064L4.93074 47.5829L5.40348 48.2953L5.79259 47.534L5.34736 47.3064ZM5.3597 47.2823L5.80495 47.5098L5.80692 47.5059L5.3597 47.2823ZM5.73372 46.0869L5.24743 45.9706L5.73372 46.0869ZM5.89833 45.3679L6.38619 45.4774L5.89833 45.3679ZM6.8057 42.0767L7.2747 42.25L6.8057 42.0767ZM9.6069 37.9096L9.92314 38.2969L9.92314 38.2969L9.6069 37.9096ZM21.82 2.00129L21.8319 1.50143L21.7139 1.49862L21.6072 1.54883L21.82 2.00129ZM13.712 10.5828L13.2397 10.4186L13.212 10.4984L13.212 10.5828L13.712 10.5828ZM27.3875 5.37913L27.7745 5.06251V5.06251L27.3875 5.37913ZM30.7075 12.0359L31.2059 12.0757L31.2121 11.9992L31.1949 11.9243L30.7075 12.0359ZM29.7151 24.4405L30.2089 24.5195L30.212 24.5L30.2136 24.4803L29.7151 24.4405ZM27.736 36.81L28.1476 37.0939L28.2119 37.0007L28.2297 36.889L27.736 36.81ZM25.5729 39.3776L25.2307 39.0131H25.2307L25.5729 39.3776ZM22.8252 41.0816L22.6885 40.6006H22.6885L22.8252 41.0816ZM19.8912 40.6729L19.6339 41.1016L19.6339 41.1016L19.8912 40.6729ZM16.6732 36.8025L16.1987 36.96L16.212 37.0001L16.2318 37.0374L16.6732 36.8025ZM22.212 15.9998H21.712V16.4998H22.212V15.9998ZM22.212 10.9998V10.4998H21.712V10.9998H22.212ZM23.212 15.9998V16.4998H23.712V15.9998H23.212ZM23.212 10.9998H23.712V10.4998H23.212V10.9998ZM21.212 63.9998H20.712V64.4998H21.212V63.9998ZM21.212 49.9998V49.4998H20.712V49.9998H21.212ZM22.212 63.9998V64.4998H22.712V63.9998H22.212ZM22.212 49.9998H22.712V49.4998H22.212V49.9998ZM15.212 58.9998H14.712V59.4998H15.212V58.9998ZM15.212 49.9998V49.4998H14.712V49.9998H15.212ZM16.212 58.9998V59.4998H16.712V58.9998H16.212ZM16.212 49.9998H16.712V49.4998H16.212V49.9998ZM27.212 58.9998H26.712V59.4998H27.212V58.9998ZM27.212 49.9998V49.4998H26.712V49.9998H27.212ZM28.212 58.9998V59.4998H28.712V58.9998H28.212ZM28.212 49.9998H28.712V49.4998H28.212V49.9998ZM21.6022 1.5H21.712V0.5H21.6022V1.5ZM21.712 1.5L21.8117 1.45398L21.3926 0.54602L21.2929 0.592041L21.712 1.5ZM13.212 10.5C13.8787 8.49994 16.5121 3.89998 21.712 1.5L21.2929 0.592042C15.7871 3.1332 12.996 7.98575 12.2633 10.1838L13.212 10.5ZM13.1863 10.577L13.212 10.5L12.2633 10.1838L12.2376 10.2607L13.1863 10.577ZM13.212 10.5226L13.212 10.4189L12.212 10.4189L12.212 10.5226L13.212 10.5226ZM13.9602 25.9821C13.2124 19.5367 13.212 13.3521 13.212 10.5226L12.212 10.5226C12.212 13.3535 12.2118 19.5891 12.9669 26.0974L13.9602 25.9821ZM3.29967 32.5C5.73412 29.0926 10.163 27.2218 13.5633 26.5297L13.3638 25.5498C9.84859 26.2653 5.1308 28.2169 2.48601 31.9187L3.29967 32.5ZM1.52936 38.9219C1.34238 36.3542 2.06425 34.2292 3.29967 32.5L2.48601 31.9187C1.1232 33.8262 0.32707 36.1803 0.532003 38.9945L1.52936 38.9219ZM5.21217 48C2.81217 44.5 1.71634 41.4896 1.52936 38.9219L0.532003 38.9945C0.735527 41.7894 1.92043 44.9678 4.38745 48.5656L5.21217 48ZM5.36114 48.2173L5.21217 48L4.38745 48.5656L4.53641 48.7828L5.36114 48.2173ZM5.21217 48H4.94877V49H5.21217V48ZM5.80692 47.5059C5.64748 47.8247 5.4593 48 5.21217 48V49C6.0583 49 6.50091 48.354 6.70134 47.9531L5.80692 47.5059ZM6.22001 46.2031C6.09118 46.7419 5.96421 47.1913 5.80692 47.5059L6.70134 47.9531C6.91621 47.5234 7.06491 46.9697 7.19259 46.4357L6.22001 46.2031ZM6.39435 45.4427C6.33416 45.7106 6.27726 45.9637 6.22001 46.2031L7.19259 46.4357C7.25172 46.1884 7.31015 45.9284 7.37002 45.662L6.39435 45.4427ZM7.2747 42.25C6.85746 43.379 6.60737 44.4948 6.39435 45.4427L7.37002 45.662C7.58452 44.7075 7.82184 43.6543 8.21269 42.5967L7.2747 42.25ZM9.92314 38.2969C8.60283 39.375 7.80596 40.8125 7.2747 42.25L8.21269 42.5967C8.70898 41.2538 9.42322 39.9962 10.5556 39.0715L9.92314 38.2969ZM15.6844 36.5C13.0741 36.5051 11.2387 37.2227 9.92314 38.2969L10.5556 39.0715C11.6681 38.1631 13.2713 37.5047 15.6863 37.5L15.6844 36.5ZM16.212 37C16.1947 36.9482 16.1776 36.8963 16.1605 36.8443L15.2103 37.1558C15.2278 37.2094 15.2455 37.2629 15.2633 37.3162L16.212 37ZM16.2251 37.0393L16.212 37L15.2633 37.3162L15.2764 37.3555L16.2251 37.0393ZM16.212 37L16.1926 36.9634L15.3088 37.4313L15.3282 37.4679L16.212 37ZM19.6339 41.1016C18.4932 40.4167 17.337 39.125 16.212 37L15.3282 37.4679C16.4996 39.6805 17.7638 41.1451 19.1191 41.9589L19.6339 41.1016ZM22.962 41.5625C21.8994 41.8646 20.7744 41.7864 19.6339 41.1016L19.1191 41.9589C20.5108 42.7945 21.9233 42.8975 23.2355 42.5244L22.962 41.5625ZM25.9151 39.7422C25.0245 40.5781 24.0245 41.2604 22.962 41.5625L23.2355 42.5244C24.5097 42.1621 25.6464 41.3659 26.5995 40.4713L25.9151 39.7422ZM28.063 37.2156C27.4641 38.0706 26.7359 38.9718 25.9151 39.7422L26.5995 40.4713C27.4847 39.6404 28.2569 38.6818 28.882 37.7894L28.063 37.2156ZM34.0011 38.7969C32.7272 37.7567 30.9649 37.0502 28.4821 37.0026L28.4629 38.0024C30.7525 38.0463 32.2905 38.6911 33.3686 39.5715L34.0011 38.7969ZM36.6495 42.75C36.1182 41.3125 35.3214 39.875 34.0011 38.7969L33.3686 39.5715C34.501 40.4962 35.2152 41.7538 35.7115 43.0967L36.6495 42.75ZM37.5298 45.9427C37.3168 44.9948 37.0667 43.879 36.6495 42.75L35.7115 43.0967C36.1024 44.1543 36.3397 45.2075 36.5542 46.162L37.5298 45.9427ZM37.7042 46.7031C37.6469 46.4637 37.59 46.2106 37.5298 45.9427L36.5542 46.162C36.614 46.4284 36.6725 46.6884 36.7316 46.9357L37.7042 46.7031ZM38.1173 48.0059C37.96 47.6913 37.833 47.2419 37.7042 46.7031L36.7316 46.9357C36.8593 47.4697 37.008 48.0234 37.2229 48.4531L38.1173 48.0059ZM38.712 48.5C38.4649 48.5 38.2767 48.3247 38.1173 48.0059L37.2229 48.4531C37.4233 48.854 37.8659 49.5 38.712 49.5V48.5ZM38.9754 48.5H38.712V49.5H38.9754V48.5ZM38.712 48.5L38.5631 48.7173L39.3878 49.2828L39.5367 49.0656L38.712 48.5ZM42.3948 39.4219C42.2079 41.9896 41.112 45 38.712 48.5L39.5368 49.0656C42.0038 45.4678 43.1887 42.2894 43.3922 39.4945L42.3948 39.4219ZM40.6245 33C41.8599 34.7292 42.5818 36.8542 42.3948 39.4219L43.3922 39.4945C43.5971 36.6803 42.801 34.3262 41.4382 32.4187L40.6245 33ZM30.2961 27.0166C33.7039 27.6978 38.1743 29.5705 40.6245 33L41.4382 32.4187C38.7765 28.6933 34.0153 26.7403 30.4921 26.036L30.2961 27.0166ZM30.2151 24.4805L29.9004 26.4473L30.8878 26.6053L31.2025 24.6385L30.2151 24.4805ZM31.218 11.9251L30.2104 24.5197L31.2072 24.5994L32.2148 12.0048L31.218 11.9251ZM31.212 12L31.2283 12.0734L32.2045 11.8565L32.1882 11.7831L31.212 12ZM27.7745 5.06251C29.462 7.12501 30.712 9.75 31.212 12L32.1882 11.7831C31.6532 9.37565 30.3319 6.60899 28.5484 4.42927L27.7745 5.06251ZM21.712 1.5C23.9618 1.50001 26.0868 2.99982 27.7745 5.06251L28.5484 4.42927C26.7871 2.2765 24.4066 0.500014 21.712 0.5L21.712 1.5ZM28.7759 37.0114C31.1028 37.1072 32.7762 37.7968 34.0011 38.7969L34.6335 38.0223C33.2215 36.8693 31.3335 36.1158 28.817 36.0123L28.7759 37.0114ZM29.7423 27.4356L28.3027 36.4329L29.2902 36.5909L30.7297 27.5935L29.7423 27.4356ZM40.6245 33C38.1827 29.5823 33.7349 27.7113 30.335 27.0244L30.137 28.0046C33.4216 28.6682 37.5798 30.4586 39.8109 33.5814L40.6245 33ZM42.3948 39.4219C42.5818 36.8542 41.8599 34.7292 40.6245 33L39.8109 33.5814C40.9189 35.1322 41.5665 37.0281 41.3975 39.3493L42.3948 39.4219ZM38.9935 48.0829C41.198 44.7605 42.2153 41.8872 42.3948 39.4219L41.3975 39.3493C41.2339 41.5962 40.2994 44.306 38.1602 47.53L38.9935 48.0829ZM38.1193 48.0098L38.1316 48.034L39.0221 47.5789L39.0097 47.5547L38.1193 48.0098ZM37.7042 46.7031C37.833 47.2418 37.96 47.6913 38.1173 48.0059L39.0117 47.5587C38.9122 47.3597 38.8071 47.0155 38.6768 46.4706L37.7042 46.7031ZM37.5383 45.9785C37.5956 46.2339 37.6504 46.4781 37.7042 46.7032L38.6768 46.4706C38.6249 46.2537 38.5717 46.0165 38.514 45.7596L37.5383 45.9785ZM37.5383 45.9789L37.5386 45.9801L38.5136 45.758L38.5134 45.7569L37.5383 45.9789ZM37.5356 45.9659L37.5356 45.9659L38.5162 45.7698L38.5161 45.7698L37.5356 45.9659ZM36.6495 42.75C37.066 43.8771 37.3226 45.0176 37.538 45.9773L38.5137 45.7583C38.2998 44.8049 38.0304 43.6019 37.5875 42.4034L36.6495 42.75ZM34.0011 38.7969C35.3214 39.875 36.1182 41.3125 36.6495 42.75L37.5875 42.4034C37.0213 40.8713 36.1418 39.2539 34.6335 38.0223L34.0011 38.7969ZM13.0889 27.0991C13.4841 30.1908 14.0586 33.3186 14.8956 36.1458L15.8545 35.862C15.0377 33.1029 14.4719 30.0316 14.0809 26.9723L13.0889 27.0991ZM4.11334 33.0814C6.32127 29.991 10.4167 28.2052 13.6867 27.5252L13.4831 26.5462C10.0988 27.2499 5.71664 29.1171 3.29967 32.5L4.11334 33.0814ZM2.52672 38.8493C2.35769 36.5281 3.00533 34.6322 4.11334 33.0814L3.29967 32.5C2.06425 34.2292 1.34238 36.3542 1.52936 38.9219L2.52672 38.8493ZM5.76399 47.03C3.62477 43.806 2.69034 41.0962 2.52672 38.8493L1.52936 38.9219C1.70888 41.3872 2.72623 44.2605 4.93074 47.5829L5.76399 47.03ZM4.91448 47.0547L4.90214 47.0789L5.79259 47.534L5.80493 47.5098L4.91448 47.0547ZM5.24743 45.9706C5.11712 46.5155 5.01195 46.8597 4.91249 47.0587L5.80692 47.5059C5.96422 47.1913 6.0912 46.7418 6.22001 46.2031L5.24743 45.9706ZM5.41046 45.2584C5.35269 45.5158 5.29938 45.7533 5.24743 45.9706L6.22001 46.2031C6.27389 45.9778 6.3288 45.7331 6.38619 45.4774L5.41046 45.2584ZM6.3367 41.9034C5.89377 43.1019 5.62443 44.3049 5.41046 45.2584L6.38619 45.4774C6.60158 44.5176 6.85817 43.3771 7.2747 42.25L6.3367 41.9034ZM9.29065 37.5223C7.78241 38.7539 6.9029 40.3713 6.3367 41.9034L7.2747 42.25C7.80596 40.8125 8.60283 39.375 9.92314 38.2969L9.29065 37.5223ZM15.3634 35.5041C12.7189 35.5656 10.7507 36.3301 9.29065 37.5223L9.92314 38.2969C11.1888 37.2634 12.9345 36.5609 15.3867 36.5038L15.3634 35.5041ZM21.6072 1.54883C16.5432 3.93064 13.9429 8.39525 13.2397 10.4186L14.1843 10.7469C14.8214 8.91385 17.2674 4.6951 22.0328 2.45374L21.6072 1.54883ZM27.7745 5.06251C26.1161 3.03562 24.0372 1.55383 21.8319 1.50143L21.8081 2.50114C23.584 2.54335 25.4165 3.75975 27.0005 5.69575L27.7745 5.06251ZM31.1949 11.9243C30.6841 9.69182 29.4434 7.1023 27.7745 5.06251L27.0005 5.69575C28.5742 7.61915 29.7446 10.069 30.2201 12.1474L31.1949 11.9243ZM30.2136 24.4803L31.2059 12.0757L30.2091 11.996L29.2167 24.4006L30.2136 24.4803ZM28.2297 36.889L30.2089 24.5195L29.2214 24.3615L27.2423 36.731L28.2297 36.889ZM25.9151 39.7422C26.7756 38.9345 27.5339 37.9836 28.1476 37.0939L27.3244 36.526C26.737 37.3776 26.024 38.2685 25.2307 39.0131L25.9151 39.7422ZM22.962 41.5625C24.0245 41.2604 25.0245 40.5781 25.9151 39.7422L25.2307 39.0131C24.4026 39.7904 23.5393 40.3587 22.6885 40.6006L22.962 41.5625ZM19.6339 41.1016C20.7744 41.7864 21.8994 41.8646 22.962 41.5625L22.6885 40.6006C21.8758 40.8317 21.0383 40.7784 20.1486 40.2442L19.6339 41.1016ZM16.2318 37.0374C17.3505 39.1401 18.4999 40.4207 19.6339 41.1016L20.1486 40.2442C19.2281 39.6915 18.1866 38.5826 17.1146 36.5677L16.2318 37.0374ZM13.212 10.5828C13.2122 15.15 13.2299 28.0159 16.1987 36.96L17.1478 36.645C14.2391 27.882 14.2122 15.1855 14.212 10.5827L13.212 10.5828ZM22.712 15.9998V10.9998H21.712V15.9998H22.712ZM23.212 15.4998H22.212V16.4998H23.212V15.4998ZM22.712 10.9998V15.9998H23.712V10.9998H22.712ZM22.212 11.4998H23.212V10.4998H22.212V11.4998ZM21.712 63.9998V49.9998H20.712V63.9998H21.712ZM22.212 63.4998H21.212V64.4998H22.212V63.4998ZM21.712 49.9998V63.9998H22.712V49.9998H21.712ZM21.212 50.4998H22.212V49.4998H21.212V50.4998ZM15.712 58.9998V49.9998H14.712V58.9998H15.712ZM16.212 58.4998H15.212V59.4998H16.212V58.4998ZM15.712 49.9998V58.9998H16.712V49.9998H15.712ZM15.212 50.4998H16.212V49.4998H15.212V50.4998ZM27.712 58.9998V49.9998H26.712V58.9998H27.712ZM28.212 58.4998H27.212V59.4998H28.212V58.4998ZM27.712 49.9998V58.9998H28.712V49.9998H27.712ZM27.212 50.4998H28.212V49.4998H27.212V50.4998Z" fill="#BDBDBD"/>
</svg>
