<svg width="64" height="51" viewBox="0 0 64 51" fill="none" xmlns="http://www.w3.org/2000/svg">
<path fill-rule="evenodd" clip-rule="evenodd" d="M36 42V7C36 4.23858 33.7614 2 31 2C28.2386 2 26 4.23858 26 7V42H36ZM25 7V42H19V20C19 16.6863 16.3137 14 13 14C9.68629 14 7 16.6863 7 20V42H5C2.79086 42 1 43.7909 1 46C1 48.2091 2.79086 50 5 50H59C61.2091 50 63 48.2091 63 46C63 43.7909 61.2091 42 59 42H57V32C57 28.6863 54.3137 26 51 26C47.6863 26 45 28.6863 45 32V42H37V7C37 3.68629 34.3137 1 31 1C27.6863 1 25 3.68629 25 7ZM46 42H56V32C56 29.2386 53.7614 27 51 27C48.2386 27 46 29.2386 46 32V42ZM45 43H37H36H26H25H19H18H8H7H5C3.34315 43 2 44.3431 2 46C2 47.6569 3.34315 49 5 49H59C60.6569 49 62 47.6569 62 46C62 44.3431 60.6569 43 59 43H57H56H46H45ZM18 20V42H8V20C8 17.2386 10.2386 15 13 15C15.7614 15 18 17.2386 18 20Z" fill="#BDBDBD"/>
<path d="M36 42V42.5H36.5V42H36ZM26 42H25.5V42.5H26V42ZM25 42V42.5H25.5V42H25ZM19 42H18.5V42.5H19V42ZM7 42V42.5H7.5V42H7ZM57 42H56.5V42.5H57V42ZM45 42V42.5H45.5V42H45ZM37 42H36.5V42.5H37V42ZM46 42H45.5V42.5H46V42ZM56 42V42.5H56.5V42H56ZM18 42V42.5H18.5V42H18ZM8 42H7.5V42.5H8V42ZM35.5 7V42H36.5V7H35.5ZM31 2.5C33.4853 2.5 35.5 4.51472 35.5 7H36.5C36.5 3.96243 34.0376 1.5 31 1.5V2.5ZM26.5 7C26.5 4.51472 28.5147 2.5 31 2.5V1.5C27.9624 1.5 25.5 3.96243 25.5 7H26.5ZM26.5 42V7H25.5V42H26.5ZM36 41.5H26V42.5H36V41.5ZM25.5 42V7H24.5V42H25.5ZM19 42.5H25V41.5H19V42.5ZM18.5 20V42H19.5V20H18.5ZM13 14.5C16.0376 14.5 18.5 16.9624 18.5 20H19.5C19.5 16.4101 16.5899 13.5 13 13.5V14.5ZM7.5 20C7.5 16.9624 9.96243 14.5 13 14.5V13.5C9.41015 13.5 6.5 16.4101 6.5 20H7.5ZM7.5 42V20H6.5V42H7.5ZM5 42.5H7V41.5H5V42.5ZM1.5 46C1.5 44.067 3.067 42.5 5 42.5V41.5C2.51472 41.5 0.5 43.5147 0.5 46H1.5ZM5 49.5C3.067 49.5 1.5 47.933 1.5 46H0.5C0.5 48.4853 2.51472 50.5 5 50.5V49.5ZM59 49.5H5V50.5H59V49.5ZM62.5 46C62.5 47.933 60.933 49.5 59 49.5V50.5C61.4853 50.5 63.5 48.4853 63.5 46H62.5ZM59 42.5C60.933 42.5 62.5 44.067 62.5 46H63.5C63.5 43.5147 61.4853 41.5 59 41.5V42.5ZM57 42.5H59V41.5H57V42.5ZM57.5 42V32H56.5V42H57.5ZM57.5 32C57.5 28.4101 54.5899 25.5 51 25.5V26.5C54.0376 26.5 56.5 28.9624 56.5 32H57.5ZM51 25.5C47.4101 25.5 44.5 28.4101 44.5 32H45.5C45.5 28.9624 47.9624 26.5 51 26.5V25.5ZM44.5 32V42H45.5V32H44.5ZM37 42.5H45V41.5H37V42.5ZM36.5 7V42H37.5V7H36.5ZM31 1.5C34.0376 1.5 36.5 3.96243 36.5 7H37.5C37.5 3.41015 34.5899 0.5 31 0.5V1.5ZM25.5 7C25.5 3.96243 27.9624 1.5 31 1.5V0.5C27.4101 0.5 24.5 3.41015 24.5 7H25.5ZM46 42.5H56V41.5H46V42.5ZM56.5 42V32H55.5V42H56.5ZM56.5 32C56.5 28.9624 54.0376 26.5 51 26.5V27.5C53.4853 27.5 55.5 29.5147 55.5 32H56.5ZM51 26.5C47.9624 26.5 45.5 28.9624 45.5 32H46.5C46.5 29.5147 48.5147 27.5 51 27.5V26.5ZM45.5 32V42H46.5V32H45.5ZM45 42.5H37V43.5H45V42.5ZM37 42.5H36V43.5H37V42.5ZM36 42.5H26V43.5H36V42.5ZM26 42.5H25V43.5H26V42.5ZM25 42.5H19V43.5H25V42.5ZM19 42.5H18V43.5H19V42.5ZM18 42.5H8V43.5H18V42.5ZM8 42.5H7V43.5H8V42.5ZM7 42.5H5V43.5H7V42.5ZM5 42.5C3.067 42.5 1.5 44.067 1.5 46H2.5C2.5 44.6193 3.61929 43.5 5 43.5V42.5ZM1.5 46C1.5 47.933 3.067 49.5 5 49.5V48.5C3.61929 48.5 2.5 47.3807 2.5 46H1.5ZM5 49.5H59V48.5H5V49.5ZM59 49.5C60.933 49.5 62.5 47.933 62.5 46H61.5C61.5 47.3807 60.3807 48.5 59 48.5V49.5ZM62.5 46C62.5 44.067 60.933 42.5 59 42.5V43.5C60.3807 43.5 61.5 44.6193 61.5 46H62.5ZM59 42.5H57V43.5H59V42.5ZM56 43.5H57V42.5H56V43.5ZM46 43.5H56V42.5H46V43.5ZM45 43.5H46V42.5H45V43.5ZM18.5 42V20H17.5V42H18.5ZM8 42.5H18V41.5H8V42.5ZM7.5 20V42H8.5V20H7.5ZM13 14.5C9.96243 14.5 7.5 16.9624 7.5 20H8.5C8.5 17.5147 10.5147 15.5 13 15.5V14.5ZM18.5 20C18.5 16.9624 16.0376 14.5 13 14.5V15.5C15.4853 15.5 17.5 17.5147 17.5 20H18.5Z" fill="#BDBDBD"/>
</svg>
