<svg width="42" height="43" viewBox="0 0 42 43" fill="none" xmlns="http://www.w3.org/2000/svg">
<path d="M9.21918 42.0959V30.589C9.21918 30.589 1 33.3288 1 25.6575C1 17.9863 9.21918 20.1781 9.21918 20.1781V9.76712H19.6301C19.6301 9.76712 16.3425 1 25.1096 1C33.8767 1 30.589 9.76712 30.589 9.76712H41V20.1781C41 20.1781 31.6849 16.8904 31.6849 25.1096C31.6849 33.3288 41 30.589 41 30.589V42.0959H30.589C30.589 42.0959 33.8767 32.7808 25.1096 32.7808C16.3425 32.7808 19.6301 42.0959 19.6301 42.0959H9.21918Z" stroke="#BDBDBD" stroke-width="1.80187"/>
</svg>
