<svg width="92" height="40" viewBox="0 0 92 40" fill="none" xmlns="http://www.w3.org/2000/svg">
<mask id="path-1-inside-1" fill="white">
<path fill-rule="evenodd" clip-rule="evenodd" d="M0 6.66667L25.3333 0L92 6.66667V37.3333L25.3333 40L0 37.3333V6.66667Z"/>
</mask>
<path fill-rule="evenodd" clip-rule="evenodd" d="M0 6.66667L25.3333 0L92 6.66667V37.3333L25.3333 40L0 37.3333V6.66667Z" fill="white"/>
<path d="M25.3333 0L25.4826 -1.49256L25.2133 -1.51948L24.9516 -1.45061L25.3333 0ZM0 6.66667L-0.38174 5.21606L-1.5 5.51033V6.66667H0ZM92 6.66667H93.5V5.30919L92.1493 5.17411L92 6.66667ZM92 37.3333L92.06 38.8321L93.5 38.7745V37.3333H92ZM25.3333 40L25.1763 41.4918L25.2845 41.5032L25.3933 41.4988L25.3333 40ZM0 37.3333H-1.5V38.6837L-0.157027 38.8251L0 37.3333ZM24.9516 -1.45061L-0.38174 5.21606L0.38174 8.11728L25.7151 1.45061L24.9516 -1.45061ZM25.1841 1.49256L91.8508 8.15922L92.1493 5.17411L25.4826 -1.49256L25.1841 1.49256ZM90.5 6.66667V37.3333H93.5V6.66667H90.5ZM91.9401 35.8345L25.2734 38.5012L25.3933 41.4988L92.06 38.8321L91.9401 35.8345ZM-0.157027 38.8251L25.1763 41.4918L25.4904 38.5082L0.157027 35.8416L-0.157027 38.8251ZM-1.5 6.66667V37.3333H1.5V6.66667H-1.5Z" fill="#C4C4C4" mask="url(#path-1-inside-1)"/>
<path d="M8.375 33.1619L9.625 33.5047V9.69165L8.375 9.93578V33.1619Z" fill="#C4C4C4" stroke="#C4C4C4" stroke-width="0.75"/>
<path d="M53.625 33.1619L52.375 33.5047V9.69165L53.625 9.93578V33.1619Z" fill="#C4C4C4" stroke="#C4C4C4" stroke-width="0.75"/>
<path d="M80.2915 31.9298L79.0415 32.1987V13.6732L80.2915 13.8647V31.9298Z" fill="#C4C4C4" stroke="#C4C4C4" stroke-width="0.75"/>
<path d="M16.375 34.807L17.625 34.9222V6.43595L16.375 6.62492V34.807Z" fill="#C4C4C4" stroke="#C4C4C4" stroke-width="0.75"/>
<path d="M40.2915 34.807L39.0415 34.9222V6.43595L40.2915 6.62492V34.807Z" fill="#C4C4C4" stroke="#C4C4C4" stroke-width="0.75"/>
<path d="M66.9585 32.1821L65.7085 32.2658V11.752L66.9585 11.8894V32.1821Z" fill="#C4C4C4" stroke="#C4C4C4" stroke-width="0.75"/>
<path d="M25.7085 38.758L26.9585 38.9098V1.12361L25.7085 1.3727V38.758Z" fill="#C4C4C4" stroke="#C4C4C4" stroke-width="0.75"/>
</svg>
