<svg width="32" height="58" viewBox="0 0 32 58" fill="none" xmlns="http://www.w3.org/2000/svg">
<path d="M31.3022 38.761C31.3022 41.8379 30.178 44.4415 27.9295 46.5716C25.7204 48.6624 22.7815 49.9247 19.1129 50.3586V54.9148C19.1129 55.5854 18.9157 56.118 18.5212 56.5125C18.1662 56.9069 17.6731 57.1042 17.0419 57.1042C16.4107 57.1042 15.8979 56.9069 15.5034 56.5125C15.1484 56.118 14.9709 55.5854 14.9709 54.9148V50.4178C12.5646 50.26 10.2372 49.7866 7.98864 48.9977C5.74012 48.2087 3.8269 47.0845 2.24899 45.6249C1.61783 45.1121 1.30225 44.4415 1.30225 43.6131C1.30225 43.0608 1.46004 42.5874 1.77562 42.1929C2.0912 41.759 2.46595 41.542 2.89988 41.542C3.37325 41.542 3.94524 41.759 4.61586 42.1929C8.56063 44.9543 12.5251 46.3349 16.5093 46.3349C19.6257 46.3349 22.0518 45.6841 23.7875 44.3823C25.5232 43.0805 26.391 41.2265 26.391 38.8202C26.391 37.4 25.9374 36.256 25.0301 35.3882C24.1622 34.4809 23.0379 33.7906 21.6573 33.3172C20.3161 32.8044 18.4817 32.2718 16.1543 31.7196C13.1563 30.9701 10.7303 30.2205 8.87621 29.471C7.06161 28.7215 5.50343 27.5775 4.20165 26.0391C2.89988 24.5006 2.24899 22.4296 2.24899 19.8261C2.24899 17.6959 2.78154 15.7827 3.84663 14.0864C4.91171 12.3507 6.391 10.9503 8.28449 9.88524C10.2174 8.82015 12.4265 8.16926 14.9117 7.93258V3.37636C14.9117 2.7452 15.109 2.23238 15.5034 1.8379C15.8979 1.40397 16.391 1.18701 16.9827 1.18701C17.6139 1.18701 18.107 1.38425 18.462 1.77873C18.8565 2.1732 19.0537 2.70575 19.0537 3.37636V7.93258C21.1445 8.12981 23.1563 8.62291 25.0892 9.41186C27.0222 10.2008 28.6593 11.2856 30.0005 12.6663C30.6711 13.2186 31.0064 13.8892 31.0064 14.6781C31.0064 15.2304 30.8289 15.7235 30.4738 16.1574C30.1583 16.5519 29.7835 16.7491 29.3496 16.7491C28.8368 16.7491 28.2845 16.5322 27.6928 16.0983C25.9571 14.6781 24.2608 13.6328 22.604 12.9622C20.9867 12.2915 19.0932 11.9562 16.9235 11.9562C13.9255 11.9562 11.5389 12.6466 9.76378 14.0272C8.02808 15.4079 7.16023 17.2817 7.16023 19.6486C7.16023 21.3054 7.63361 22.6269 8.58035 23.613C9.56655 24.5992 10.7697 25.3685 12.1898 25.9207C13.6099 26.4336 15.5626 27.0056 18.0478 27.6367C20.9275 28.3468 23.2352 29.0568 24.9709 29.7669C26.746 30.477 28.2451 31.5618 29.4679 33.0213C30.6908 34.4415 31.3022 36.3547 31.3022 38.761Z" fill="#BDBDBD" stroke="white" stroke-width="1.21053"/>
</svg>
