<svg width="61" height="42" viewBox="0 0 61 42" fill="none" xmlns="http://www.w3.org/2000/svg">
<path fill-rule="evenodd" clip-rule="evenodd" d="M26.2064 9.57361C26.0932 9.64535 25.8239 9.78281 25.5286 9.63516C23.9858 8.86376 22.4768 8.3986 20.8925 8.39857C19.3121 8.39854 17.6147 8.86143 15.695 10.0133C14.2499 10.8803 13.4497 12.2737 13.0426 13.708C12.6343 15.1466 12.6355 16.5827 12.7591 17.448L12.8239 17.9016L12.3777 18.0057C10.4501 18.4554 7.61255 19.5773 5.3868 21.4609C3.17307 23.3343 1.60098 25.9228 2.04872 29.3554C2.50084 32.8217 4.60318 35.322 7.10375 37.0522C9.59075 38.773 12.4313 39.7009 14.2909 40.0279H50.2514C54.0601 38.4846 56.0274 36.3952 57.1001 34.4363C58.0625 32.6789 58.3226 31.0031 58.51 29.7959C58.5326 29.6499 58.5542 29.5108 58.5759 29.3792C58.5634 24.447 56.3006 21.8075 53.9953 19.8864L53.7963 19.7206L53.817 19.4624C54.2068 14.5895 53.2282 10.6576 50.9936 7.75745C48.7602 4.85884 45.2201 2.92313 40.3515 2.14415C35.5879 1.38199 32.2637 3.27739 30.0072 5.34179C28.8743 6.37831 28.0154 7.45377 27.3788 8.26347L27.2942 8.37112C27.0175 8.72346 26.7716 9.03651 26.5702 9.25326C26.4614 9.37034 26.3377 9.49043 26.2064 9.57361ZM29.3322 4.60399C31.7371 2.40376 35.3553 0.332043 40.5095 1.15672C45.5587 1.96458 49.3577 3.99594 51.7857 7.14712C54.1711 10.243 55.1827 14.3544 54.8332 19.2849C57.2167 21.3171 59.5759 24.2082 59.5759 29.42V29.4614L59.5691 29.5022C59.5469 29.6357 59.5244 29.7812 59.5003 29.9376L59.4999 29.9407L59.4998 29.9414L59.4997 29.9416C59.3141 31.1469 59.0294 32.9953 57.9772 34.9166C56.7772 37.108 54.6013 39.3652 50.534 40.9922L50.4446 41.0279H50.3483H14.2477H14.2049L14.1627 41.0207C12.1864 40.6799 9.1797 39.7046 6.53476 37.8745C3.8847 36.0409 1.5571 33.3179 1.05712 29.4847C0.55275 25.6179 2.3527 22.7185 4.74081 20.6975C6.95433 18.8243 9.70419 17.6729 11.7189 17.1394C11.6375 16.1587 11.6929 14.8008 12.0806 13.4349C12.533 11.841 13.4519 10.193 15.1805 9.15578C17.2279 7.92735 19.101 7.39854 20.8925 7.39857C22.6059 7.39861 24.2063 7.88239 25.7721 8.6405C25.7912 8.62153 25.813 8.59904 25.8377 8.57251C26.0091 8.38808 26.2283 8.10912 26.518 7.74041L26.5927 7.64538C27.233 6.83104 28.1345 5.6998 29.3322 4.60399ZM25.6655 8.73223C25.6656 8.73212 25.6672 8.7311 25.6703 8.72948C25.667 8.73152 25.6655 8.73233 25.6655 8.73223ZM30.0916 26.955C31.4324 27.7533 32.9986 27.8659 34.6334 27.4428C36.4719 26.967 38.3712 25.8168 40.038 24.2466C43.2901 21.183 45.4965 16.6877 44.7826 12.847C38.0145 12.6366 34.1642 14.9355 32.0571 17.8239C30.1766 20.4016 29.6343 23.5168 29.731 25.9222L36.1213 19.9313L36.8053 20.6609L30.0916 26.955ZM29.3373 27.6621C29.664 27.8777 30.0014 28.0567 30.3474 28.2014L29.6197 28.2924L30.8098 37.8134L30.9305 38.7785L31.6451 38.1188L36.8023 33.3583L36.9632 33.2098V32.9909V28.2304H35.9632V32.772L31.6815 36.7244L30.6298 28.3114C31.9745 28.7964 33.4352 28.7858 34.8839 28.4109C36.9258 27.8825 38.9689 26.6276 40.7237 24.9745C44.2101 21.6902 46.7279 16.6585 45.6773 12.2463L45.5899 11.8794L45.2131 11.8626C37.9398 11.5393 33.6315 13.969 31.2492 17.2346C29.2705 19.9469 28.6662 23.1744 28.7244 25.7189L19.9054 24.6606L23.1809 20.0749L28.7971 21.5725L29.0547 20.6063L23.1041 19.0195L22.7696 18.9303L22.5684 19.212L18.6013 24.7659L18.1109 25.4524L18.9486 25.553L28.7847 26.7333C28.787 26.7566 28.7893 26.7798 28.7917 26.8029L23.4266 31.8326L24.1105 32.5622L29.3373 27.6621Z" fill="#BDBDBD"/>
<path d="M25.5286 9.63516L25.7522 9.18795L25.5286 9.63516ZM26.2064 9.57361L25.9389 9.15124L26.2064 9.57361ZM20.8925 8.39857L20.8925 8.89857L20.8925 8.39857ZM15.695 10.0133L15.9522 10.442L15.695 10.0133ZM13.0426 13.708L12.5616 13.5715L13.0426 13.708ZM12.7591 17.448L13.254 17.3773V17.3773L12.7591 17.448ZM12.8239 17.9016L12.9375 18.3885L13.3836 18.2844L13.3188 17.8308L12.8239 17.9016ZM12.3777 18.0057L12.4913 18.4926H12.4913L12.3777 18.0057ZM5.3868 21.4609L5.06381 21.0792L5.3868 21.4609ZM2.04872 29.3554L1.55292 29.42L2.04872 29.3554ZM7.10375 37.0522L7.38824 36.641L7.10375 37.0522ZM14.2909 40.0279L14.2042 40.5204L14.2472 40.5279H14.2909V40.0279ZM50.2514 40.0279V40.5279H50.3489L50.4392 40.4913L50.2514 40.0279ZM57.1001 34.4363L57.5387 34.6765L57.1001 34.4363ZM58.51 29.7959L59.0041 29.8726V29.8726L58.51 29.7959ZM58.5759 29.3792L59.0692 29.4604L59.076 29.4195L59.0759 29.378L58.5759 29.3792ZM53.9953 19.8864L53.6752 20.2705L53.6752 20.2705L53.9953 19.8864ZM53.7963 19.7206L53.2979 19.6807L53.2773 19.9389L53.4762 20.1047L53.7963 19.7206ZM53.817 19.4624L53.3186 19.4226V19.4226L53.817 19.4624ZM50.9936 7.75745L51.3897 7.45229L50.9936 7.75745ZM40.3515 2.14415L40.4305 1.65044L40.3515 2.14415ZM30.0072 5.34179L29.6697 4.97289L30.0072 5.34179ZM27.3788 8.26347L26.9857 7.95443L26.9856 7.95457L27.3788 8.26347ZM27.2942 8.37112L26.9011 8.06222L26.901 8.06229L27.2942 8.37112ZM26.5702 9.25326L26.9365 9.59363H26.9365L26.5702 9.25326ZM40.5095 1.15672L40.5885 0.662998L40.5095 1.15672ZM29.3322 4.60399L29.6697 4.97289H29.6697L29.3322 4.60399ZM51.7857 7.14712L52.1818 6.84195L51.7857 7.14712ZM54.8332 19.2849L54.3344 19.2495L54.3166 19.5014L54.5088 19.6653L54.8332 19.2849ZM59.5759 29.4614L60.0691 29.5436L60.0759 29.5028V29.4614H59.5759ZM59.5691 29.5022L60.0623 29.5845L60.0623 29.5844L59.5691 29.5022ZM59.5003 29.9376L59.0062 29.8615L59.0061 29.8622L59.5003 29.9376ZM59.4999 29.9407L59.0056 29.8652L59.0055 29.8659L59.4999 29.9407ZM59.4998 29.9414L59.0053 29.8666L59.0046 29.8723L59.4998 29.9414ZM59.4997 29.9416L59.9939 30.0178L59.9949 30.0107L59.4997 29.9416ZM57.9772 34.9166L58.4158 35.1568L57.9772 34.9166ZM50.534 40.9922L50.7197 41.4564L50.7197 41.4564L50.534 40.9922ZM50.4446 41.0279V41.5279H50.5409L50.6303 41.4922L50.4446 41.0279ZM14.2049 41.0279L14.1199 41.5207L14.1621 41.5279H14.2049V41.0279ZM14.1627 41.0207L14.0777 41.5134L14.0778 41.5134L14.1627 41.0207ZM6.53476 37.8745L6.81925 37.4634L6.53476 37.8745ZM1.05712 29.4847L1.55292 29.4201L1.05712 29.4847ZM4.74081 20.6975L5.06381 21.0792L4.74081 20.6975ZM11.7189 17.1394L11.8469 17.6228L12.2519 17.5155L12.2172 17.098L11.7189 17.1394ZM12.0806 13.4349L12.5616 13.5715L12.0806 13.4349ZM15.1805 9.15578L14.9233 8.72703V8.72704L15.1805 9.15578ZM20.8925 7.39857L20.8925 7.89857L20.8925 7.39857ZM25.7721 8.6405L25.5543 9.09053L25.8731 9.24491L26.1245 8.99523L25.7721 8.6405ZM25.8377 8.57251L26.2039 8.91289L26.2039 8.91288L25.8377 8.57251ZM26.518 7.74041L26.1249 7.43145L26.1249 7.43149L26.518 7.74041ZM26.5927 7.64538L26.1996 7.33634L26.1996 7.33642L26.5927 7.64538ZM25.6703 8.72948L25.9352 9.15354L25.4389 8.28625L25.6703 8.72948ZM34.6334 27.4428L34.5081 26.9587L34.6334 27.4428ZM30.0916 26.955L29.7496 26.5902L29.2648 27.0447L29.8358 27.3846L30.0916 26.955ZM40.038 24.2466L40.3808 24.6105V24.6105L40.038 24.2466ZM44.7826 12.847L45.2742 12.7557L45.2006 12.3598L44.7981 12.3473L44.7826 12.847ZM32.0571 17.8239L32.461 18.1186L32.0571 17.8239ZM29.731 25.9222L29.2314 25.9423L29.2753 27.0348L30.073 26.287L29.731 25.9222ZM36.1213 19.9313L36.4861 19.5894L36.1441 19.2246L35.7794 19.5666L36.1213 19.9313ZM36.8053 20.6609L37.1473 21.0256L37.512 20.6837L37.1701 20.3189L36.8053 20.6609ZM30.3474 28.2014L30.4094 28.6976L32.2722 28.4647L30.5403 27.7402L30.3474 28.2014ZM29.3373 27.6621L29.6127 27.2448L29.2832 27.0274L28.9953 27.2973L29.3373 27.6621ZM29.6197 28.2924L29.5577 27.7963L29.0615 27.8583L29.1236 28.3544L29.6197 28.2924ZM30.8098 37.8134L31.306 37.7514L30.8098 37.8134ZM30.9305 38.7785L30.4343 38.8405L30.5549 39.8056L31.2696 39.1459L30.9305 38.7785ZM31.6451 38.1188L31.306 37.7514H31.306L31.6451 38.1188ZM36.8023 33.3583L37.1415 33.7257L37.1415 33.7257L36.8023 33.3583ZM36.9632 33.2098L37.3023 33.5772L37.4632 33.4287V33.2098H36.9632ZM36.9632 28.2304H37.4632V27.7304H36.9632V28.2304ZM35.9632 28.2304V27.7304H35.4632V28.2304H35.9632ZM35.9632 32.772L36.3023 33.1394L36.4632 32.9909V32.772H35.9632ZM31.6815 36.7244L31.1853 36.7864L31.306 37.7514L32.0206 37.0918L31.6815 36.7244ZM30.6298 28.3114L30.7995 27.841L30.0326 27.5645L30.1337 28.3734L30.6298 28.3114ZM34.8839 28.4109L34.7587 27.9268L34.8839 28.4109ZM40.7237 24.9745L41.0665 25.3384V25.3384L40.7237 24.9745ZM45.6773 12.2463L45.1909 12.3621V12.3621L45.6773 12.2463ZM45.5899 11.8794L46.0763 11.7635L45.9889 11.3966L45.6121 11.3798L45.5899 11.8794ZM45.2131 11.8626L45.1909 12.3621L45.2131 11.8626ZM31.2492 17.2346L31.6531 17.5293V17.5293L31.2492 17.2346ZM28.7244 25.7189L28.6648 26.2153L29.2374 26.284L29.2242 25.7075L28.7244 25.7189ZM19.9054 24.6606L19.4985 24.37L19.0081 25.0565L19.8458 25.157L19.9054 24.6606ZM23.1809 20.0749L23.3097 19.5918L22.9752 19.5026L22.774 19.7843L23.1809 20.0749ZM28.7971 21.5725L28.6682 22.0556L29.1514 22.1845L29.2802 21.7014L28.7971 21.5725ZM29.0547 20.6063L29.5379 20.7351L29.6667 20.252L29.1836 20.1232L29.0547 20.6063ZM23.1041 19.0195L23.2329 18.5363L23.1041 19.0195ZM22.7696 18.9303L22.8984 18.4471L22.5639 18.3579L22.3627 18.6396L22.7696 18.9303ZM22.5684 19.212L22.1615 18.9213H22.1615L22.5684 19.212ZM18.6013 24.7659L19.0081 25.0565L18.6013 24.7659ZM18.1109 25.4524L17.704 25.1618L17.2136 25.8483L18.0513 25.9489L18.1109 25.4524ZM18.9486 25.553L19.0081 25.0565L18.9486 25.553ZM28.7847 26.7333L29.2823 26.6846L29.2432 26.2847L28.8443 26.2369L28.7847 26.7333ZM28.7917 26.8029L29.1337 27.1676L29.3145 26.9981L29.2891 26.7515L28.7917 26.8029ZM23.4266 31.8326L23.0846 31.4679L22.7199 31.8098L23.0618 32.1746L23.4266 31.8326ZM24.1105 32.5622L23.7458 32.9041L24.0877 33.2689L24.4525 32.9269L24.1105 32.5622ZM25.305 10.0824C25.849 10.3544 26.3276 10.0887 26.474 9.99597L25.9389 9.15124C25.9086 9.17041 25.8703 9.18951 25.833 9.19734C25.8034 9.20356 25.7808 9.20224 25.7522 9.18795L25.305 10.0824ZM20.8925 8.89857C22.3751 8.8986 23.8063 9.33299 25.305 10.0824L25.7522 9.18795C24.1654 8.39452 22.5786 7.8986 20.8925 7.89857L20.8925 8.89857ZM15.9522 10.442C17.8081 9.32848 19.4176 8.89854 20.8925 8.89857L20.8925 7.89857C19.2065 7.89854 17.4213 8.39438 15.4378 9.58453L15.9522 10.442ZM13.5236 13.8445C13.908 12.4902 14.6489 11.224 15.9522 10.442L15.4378 9.58453C13.851 10.5366 12.9914 12.0572 12.5616 13.5715L13.5236 13.8445ZM13.254 17.3773C13.1391 16.5724 13.1367 15.2076 13.5236 13.8445L12.5616 13.5715C12.1319 15.0856 12.1319 16.5931 12.2641 17.5187L13.254 17.3773ZM13.3188 17.8308L13.254 17.3773L12.2641 17.5187L12.3289 17.9723L13.3188 17.8308ZM12.4913 18.4926L12.9375 18.3885L12.7103 17.4146L12.2641 17.5187L12.4913 18.4926ZM5.7098 21.8426C7.86037 20.0226 10.6196 18.9293 12.4913 18.4926L12.2641 17.5187C10.2805 17.9816 7.36472 19.132 5.06381 21.0792L5.7098 21.8426ZM2.54452 29.2907C2.12507 26.075 3.5835 23.642 5.7098 21.8426L5.06381 21.0792C2.76265 23.0266 1.0769 25.7705 1.55292 29.42L2.54452 29.2907ZM7.38824 36.641C4.96253 34.9626 2.97273 32.5737 2.54452 29.2907L1.55292 29.42C2.02896 33.0697 4.24383 35.6814 6.81925 37.4634L7.38824 36.641ZM14.3775 39.5355C12.5761 39.2187 9.806 38.3139 7.38824 36.641L6.81925 37.4634C9.3755 39.2321 12.2866 40.1831 14.2042 40.5204L14.3775 39.5355ZM50.2514 39.5279H14.2909V40.5279H50.2514V39.5279ZM56.6616 34.1962C55.6478 36.0474 53.7726 38.0616 50.0637 39.5646L50.4392 40.4913C54.3475 38.9076 56.407 36.743 57.5387 34.6765L56.6616 34.1962ZM58.0159 29.7192C57.8288 30.9243 57.5781 32.5225 56.6616 34.1962L57.5387 34.6765C58.5469 32.8353 58.8164 31.0819 59.0041 29.8726L58.0159 29.7192ZM58.0825 29.2981C58.0604 29.4323 58.0385 29.5737 58.0159 29.7192L59.0041 29.8726C59.0268 29.7261 59.048 29.5893 59.0692 29.4604L58.0825 29.2981ZM53.6752 20.2705C55.9121 22.1346 58.0639 24.6465 58.0759 29.3805L59.0759 29.378C59.0629 24.2476 56.689 21.4803 54.3154 19.5023L53.6752 20.2705ZM53.4762 20.1047L53.6752 20.2705L54.3154 19.5023L54.1164 19.3365L53.4762 20.1047ZM53.3186 19.4226L53.2979 19.6807L54.2947 19.7605L54.3154 19.5023L53.3186 19.4226ZM50.5975 8.06262C52.736 10.8381 53.7015 14.6356 53.3186 19.4226L54.3154 19.5023C54.7121 14.5434 53.7203 10.4771 51.3897 7.45229L50.5975 8.06262ZM40.2725 2.63787C45.0508 3.40239 48.4614 5.29026 50.5975 8.06262L51.3897 7.45229C49.059 4.42743 45.3895 2.44387 40.4305 1.65044L40.2725 2.63787ZM30.3447 5.7107C32.5268 3.71431 35.7042 1.90694 40.2725 2.63787L40.4305 1.65044C35.4717 0.857033 32.0005 2.84047 29.6697 4.97289L30.3447 5.7107ZM27.7719 8.57251C28.4067 7.7651 29.2442 6.71755 30.3447 5.7107L29.6697 4.97289C28.5044 6.03907 27.6242 7.14244 26.9857 7.95443L27.7719 8.57251ZM27.6874 8.68002L27.772 8.57237L26.9856 7.95457L26.9011 8.06222L27.6874 8.68002ZM26.9365 9.59363C27.1554 9.35809 27.4159 9.02563 27.6874 8.67994L26.901 8.06229C26.619 8.42129 26.3879 8.71492 26.2039 8.91288L26.9365 9.59363ZM26.474 9.99597C26.6614 9.87729 26.8204 9.71849 26.9365 9.59363L26.2039 8.91288C26.1024 9.02218 26.0141 9.10356 25.9389 9.15124L26.474 9.99597ZM40.5885 0.662998C35.2388 -0.192945 31.4737 1.96704 28.9947 4.23509L29.6697 4.97289C32.0005 2.84047 35.4717 0.857032 40.4305 1.65044L40.5885 0.662998ZM52.1818 6.84195C49.6565 3.56445 45.7279 1.4853 40.5885 0.662998L40.4305 1.65044C45.3895 2.44386 49.059 4.42742 51.3897 7.45229L52.1818 6.84195ZM55.3319 19.3202C55.6875 14.3039 54.6616 10.0604 52.1818 6.84195L51.3897 7.45229C53.6806 10.4257 54.6778 14.405 54.3344 19.2495L55.3319 19.3202ZM60.0759 29.42C60.0759 24.0164 57.6125 20.9975 55.1576 18.9044L54.5088 19.6653C56.8208 21.6366 59.0759 24.4001 59.0759 29.42H60.0759ZM60.0759 29.4614V29.42H59.0759V29.4614H60.0759ZM60.0623 29.5844L60.0691 29.5436L59.0827 29.3792L59.0759 29.4201L60.0623 29.5844ZM59.9945 30.0138C60.0187 29.8566 60.0407 29.7143 60.0623 29.5845L59.0759 29.42C59.0531 29.5571 59.0301 29.7058 59.0062 29.8615L59.9945 30.0138ZM59.9941 30.0162L59.9946 30.0131L59.0061 29.8622L59.0056 29.8652L59.9941 30.0162ZM59.9941 30.0162L59.9942 30.0155L59.0055 29.8659L59.0054 29.8666L59.9941 30.0162ZM59.9949 30.0107L59.995 30.0105L59.0046 29.8723L59.0045 29.8725L59.9949 30.0107ZM58.4158 35.1568C59.5137 33.1518 59.8078 31.2263 59.9939 30.0177L59.0056 29.8655C58.8204 31.0676 58.5451 32.8387 57.5387 34.6765L58.4158 35.1568ZM50.7197 41.4564C54.8872 39.7894 57.1562 37.4568 58.4158 35.1568L57.5387 34.6765C56.3982 36.7592 54.3154 38.9411 50.3483 40.5279L50.7197 41.4564ZM50.6303 41.4922L50.7197 41.4564L50.3483 40.5279L50.2589 40.5637L50.6303 41.4922ZM50.3483 41.5279H50.4446V40.5279H50.3483V41.5279ZM14.2477 41.5279H50.3483V40.5279H14.2477V41.5279ZM14.2049 41.5279H14.2477V40.5279H14.2049V41.5279ZM14.0778 41.5134L14.1199 41.5207L14.2898 40.5352L14.2476 40.5279L14.0778 41.5134ZM6.25026 38.2857C8.96483 40.1639 12.0426 41.1625 14.0777 41.5134L14.2477 40.5279C12.3302 40.1974 9.39456 39.2452 6.81925 37.4634L6.25026 38.2857ZM0.561323 29.5494C1.08524 33.5661 3.52556 36.4004 6.25026 38.2857L6.81925 37.4634C4.24384 35.6814 2.02896 33.0697 1.55292 29.4201L0.561323 29.5494ZM4.41782 20.3159C1.94272 22.4105 0.0286045 25.4652 0.561323 29.5494L1.55292 29.4201C1.07689 25.7705 2.76268 23.0266 5.06381 21.0792L4.41782 20.3159ZM11.591 16.6561C9.52539 17.203 6.70247 18.3825 4.41782 20.3159L5.06381 21.0792C7.20619 19.2662 9.88299 18.1428 11.8469 17.6228L11.591 16.6561ZM11.5996 13.2984C11.1929 14.7312 11.1351 16.1505 11.2207 17.1808L12.2172 17.098C12.1399 16.1669 12.1929 14.8704 12.5616 13.5715L11.5996 13.2984ZM14.9233 8.72704C13.0528 9.84933 12.0746 11.6248 11.5996 13.2984L12.5616 13.5715C12.9914 12.0572 13.851 10.5366 15.4378 9.58453L14.9233 8.72704ZM20.8926 6.89857C18.9954 6.89854 17.0344 7.46033 14.9233 8.72703L15.4378 9.58453C17.4213 8.39438 19.2065 7.89854 20.8925 7.89857L20.8926 6.89857ZM25.99 8.19047C24.3793 7.41064 22.7034 6.89861 20.8926 6.89857L20.8925 7.89857C22.5085 7.8986 24.0333 8.35414 25.5543 9.09053L25.99 8.19047ZM25.4714 8.23214C25.4509 8.25425 25.4337 8.27191 25.4198 8.28576L26.1245 8.99523C26.1487 8.97115 26.1752 8.94383 26.2039 8.91289L25.4714 8.23214ZM26.1249 7.43149C25.829 7.80798 25.6252 8.06668 25.4714 8.23214L26.2039 8.91288C26.393 8.70948 26.6275 8.41026 26.9111 8.04933L26.1249 7.43149ZM26.1996 7.33642L26.1249 7.43145L26.9111 8.04938L26.9858 7.95435L26.1996 7.33642ZM28.9947 4.23509C27.7646 5.36054 26.8418 6.51965 26.1996 7.33634L26.9857 7.95443C27.6242 7.14244 28.5044 6.03907 29.6697 4.97289L28.9947 4.23509ZM26.1303 8.91648C26.1123 8.96197 26.0913 8.99538 26.0785 9.01408C26.0647 9.03429 26.0519 9.04988 26.043 9.06016C26.0255 9.08022 26.0101 9.09466 26.0021 9.10197C25.9856 9.11701 25.9717 9.1276 25.9662 9.13173C25.9536 9.14121 25.9433 9.14796 25.9396 9.15037C25.9305 9.15633 25.9232 9.16064 25.92 9.16258C25.9122 9.16714 25.9059 9.17052 25.9017 9.1727L25.4389 8.28625C25.4316 8.29006 25.423 8.29476 25.4136 8.30026C25.4095 8.30267 25.4016 8.30736 25.3921 8.31359C25.3882 8.31613 25.3778 8.323 25.3651 8.33255C25.3595 8.33673 25.3456 8.34736 25.329 8.36242C25.321 8.36974 25.3055 8.3842 25.2881 8.40426C25.2779 8.41598 25.2326 8.46757 25.2007 8.54798L26.1303 8.91648ZM25.4054 8.30541C25.4081 8.30376 25.4138 8.3002 25.4218 8.29571C25.4246 8.29414 25.4341 8.28885 25.4467 8.28269C25.4494 8.28138 25.47 8.27117 25.4973 8.26139C25.4978 8.26123 25.5567 8.23812 25.634 8.23323C25.658 8.23172 25.7007 8.23065 25.7531 8.23996C25.8024 8.24873 25.8952 8.27285 25.9855 8.348C26.0891 8.43426 26.1499 8.55532 26.1629 8.68092C26.1741 8.78962 26.1471 8.87418 26.1303 8.91648L25.2007 8.54798C25.1839 8.59028 25.157 8.67483 25.1682 8.78354C25.1811 8.90914 25.242 9.0302 25.3456 9.11647C25.4358 9.19162 25.5287 9.21574 25.578 9.22451C25.6303 9.23382 25.6731 9.23275 25.6971 9.23124C25.7744 9.22635 25.8334 9.20323 25.8338 9.20306C25.8613 9.19324 25.882 9.18297 25.8849 9.18157C25.8979 9.17522 25.9079 9.16962 25.9115 9.16761C25.9211 9.16222 25.9293 9.15724 25.9352 9.15354L25.4054 8.30541ZM34.5081 26.9587C32.9702 27.3567 31.5477 27.2401 30.3473 26.5254L29.8358 27.3846C31.3171 28.2666 33.027 28.375 34.7587 27.9268L34.5081 26.9587ZM39.6951 23.8827C38.0723 25.4114 36.2449 26.5093 34.5081 26.9587L34.7587 27.9268C36.6988 27.4247 38.67 26.2222 40.3808 24.6105L39.6951 23.8827ZM44.291 12.9384C44.9616 16.5463 42.8814 20.881 39.6951 23.8827L40.3808 24.6105C43.6987 21.485 46.0313 16.8291 45.2742 12.7557L44.291 12.9384ZM32.461 18.1186C34.4532 15.3877 38.1319 13.1405 44.7671 13.3468L44.7981 12.3473C37.8971 12.1327 33.8751 14.4833 31.6531 17.5293L32.461 18.1186ZM30.2306 25.9022C30.1371 23.576 30.6644 20.5814 32.461 18.1186L31.6531 17.5293C29.6889 20.2219 29.1316 23.4577 29.2314 25.9423L30.2306 25.9022ZM35.7794 19.5666L29.3891 25.5575L30.073 26.287L36.4633 20.2961L35.7794 19.5666ZM37.1701 20.3189L36.4861 19.5894L35.7566 20.2733L36.4405 21.0028L37.1701 20.3189ZM30.4335 27.3197L37.1473 21.0256L36.4633 20.2961L29.7496 26.5902L30.4335 27.3197ZM30.5403 27.7402C30.2232 27.6075 29.9133 27.4432 29.6127 27.2448L29.0619 28.0794C29.4146 28.3122 29.7797 28.5059 30.1544 28.6627L30.5403 27.7402ZM29.6817 28.7885L30.4094 28.6976L30.2853 27.7053L29.5577 27.7963L29.6817 28.7885ZM31.306 37.7514L30.1158 28.2304L29.1236 28.3544L30.3137 37.8755L31.306 37.7514ZM31.4266 38.7165L31.306 37.7514L30.3137 37.8755L30.4343 38.8405L31.4266 38.7165ZM31.306 37.7514L30.5913 38.4111L31.2696 39.1459L31.9842 38.4862L31.306 37.7514ZM36.4632 32.9909L31.306 37.7514L31.9842 38.4862L37.1415 33.7257L36.4632 32.9909ZM36.6241 32.8424L36.4632 32.9909L37.1415 33.7257L37.3023 33.5772L36.6241 32.8424ZM36.4632 32.9909V33.2098H37.4632V32.9909H36.4632ZM36.4632 28.2304V32.9909H37.4632V28.2304H36.4632ZM35.9632 28.7304H36.9632V27.7304H35.9632V28.7304ZM36.4632 32.772V28.2304H35.4632V32.772H36.4632ZM32.0206 37.0918L36.3023 33.1394L35.6241 32.4046L31.3423 36.357L32.0206 37.0918ZM30.1337 28.3734L31.1853 36.7864L32.1776 36.6623L31.126 28.2494L30.1337 28.3734ZM34.7587 27.9268C33.3855 28.2822 32.0302 28.2849 30.7995 27.841L30.4602 28.7817C31.9188 29.3078 33.485 29.2894 35.0092 28.8949L34.7587 27.9268ZM40.3808 24.6105C38.67 26.2222 36.6988 27.4247 34.7587 27.9268L35.0092 28.8949C37.1528 28.3402 39.2677 27.033 41.0665 25.3384L40.3808 24.6105ZM45.1909 12.3621C46.1826 16.5273 43.8027 21.387 40.3808 24.6105L41.0665 25.3384C44.6174 21.9933 47.2731 16.7896 46.1637 12.1305L45.1909 12.3621ZM45.1035 11.9952L45.1909 12.3621L46.1637 12.1305L46.0763 11.7635L45.1035 11.9952ZM45.1909 12.3621L45.5677 12.3789L45.6121 11.3798L45.2353 11.3631L45.1909 12.3621ZM31.6531 17.5293C33.9176 14.4251 38.05 12.0447 45.1909 12.3621L45.2353 11.3631C37.8297 11.034 33.3453 13.5128 30.8452 16.9399L31.6531 17.5293ZM29.2242 25.7075C29.1679 23.2409 29.7558 20.1302 31.6531 17.5293L30.8452 16.9399C28.7853 19.7637 28.1646 23.1079 28.2245 25.7303L29.2242 25.7075ZM19.8458 25.157L28.6648 26.2153L28.7839 25.2224L19.965 24.1642L19.8458 25.157ZM22.774 19.7843L19.4985 24.37L20.3123 24.9512L23.5878 20.3655L22.774 19.7843ZM28.9259 21.0894L23.3097 19.5918L23.0521 20.558L28.6682 22.0556L28.9259 21.0894ZM28.5716 20.4775L28.314 21.4437L29.2802 21.7014L29.5379 20.7351L28.5716 20.4775ZM22.9753 19.5026L28.9259 21.0894L29.1836 20.1232L23.2329 18.5363L22.9753 19.5026ZM22.6408 19.4134L22.9753 19.5026L23.2329 18.5363L22.8984 18.4471L22.6408 19.4134ZM22.9752 19.5026L23.1765 19.2209L22.3627 18.6396L22.1615 18.9213L22.9752 19.5026ZM19.0081 25.0565L22.9753 19.5026L22.1615 18.9213L18.1944 24.4753L19.0081 25.0565ZM18.5178 25.743L19.0081 25.0565L18.1944 24.4753L17.704 25.1618L18.5178 25.743ZM19.0081 25.0565L18.1705 24.956L18.0513 25.9489L18.889 26.0494L19.0081 25.0565ZM28.8443 26.2369L19.0081 25.0565L18.889 26.0494L28.7251 27.2297L28.8443 26.2369ZM29.2891 26.7515C29.2868 26.7293 29.2845 26.707 29.2823 26.6846L28.2871 26.7819C28.2894 26.8061 28.2919 26.8302 28.2943 26.8542L29.2891 26.7515ZM23.7686 32.1974L29.1337 27.1676L28.4497 26.4381L23.0846 31.4679L23.7686 32.1974ZM24.4753 32.2202L23.7914 31.4907L23.0618 32.1746L23.7458 32.9041L24.4753 32.2202ZM28.9953 27.2973L23.7686 32.1974L24.4525 32.9269L29.6792 28.0269L28.9953 27.2973Z" fill="#BDBDBD"/>
</svg>
