<svg width="74" height="74" viewBox="0 0 74 74" fill="none" xmlns="http://www.w3.org/2000/svg">
<circle cx="37" cy="37" r="36" fill="white" stroke="#D1D1D1" stroke-width="2"/>
<path opacity="0.2" d="M46.3636 50.0909C46.3636 48.6437 45.1744 47.4545 43.7273 47.4545H43.0909V33.7273C43.0909 32.2801 41.9017 31.0909 40.4545 31.0909H30.6364C29.1892 31.0909 28 32.2801 28 33.7273V37C28 38.4472 29.1892 39.6364 30.6364 39.6364H31.2727V47.4545H30.6364C29.1892 47.4545 28 48.6437 28 50.0909V53.3636C28 54.8108 29.1892 56 30.6364 56H43.7273C45.1744 56 46.3636 54.8108 46.3636 53.3636V50.0909ZM43.0909 20.6364C43.0909 19.1892 41.9017 18 40.4545 18H33.9091C32.4619 18 31.2727 19.1892 31.2727 20.6364V25.5455C31.2727 26.9926 32.4619 28.1818 33.9091 28.1818H40.4545C41.9017 28.1818 43.0909 26.9926 43.0909 25.5455V20.6364Z" fill="white" stroke="black" stroke-width="2"/>
</svg>
