<svg width="43" height="44" viewBox="0 0 43 44" fill="none" xmlns="http://www.w3.org/2000/svg">
<path d="M38.1329 23.1881C37.803 22.8058 37.621 22.3143 37.621 21.8054C37.621 21.2966 37.803 20.8051 38.1329 20.4228L40.7671 17.4061C41.0574 17.0765 41.2376 16.6618 41.282 16.2215C41.3263 15.7811 41.2325 15.3378 41.014 14.9551L36.8981 7.70671C36.6818 7.32443 36.3525 7.02141 35.9571 6.84085C35.5617 6.66029 35.1204 6.6114 34.6961 6.70115L30.8271 7.49722C30.3348 7.60076 29.8223 7.5173 29.3863 7.26259C28.9503 7.00787 28.6209 6.59951 28.4604 6.11458L27.2051 2.2809C27.067 1.86481 26.804 1.50341 26.4531 1.24778C26.1023 0.992154 25.6814 0.855231 25.25 0.856365H17.0181C16.5693 0.83252 16.1252 0.958861 15.7536 1.21609C15.382 1.47332 15.1033 1.84729 14.9601 2.2809L13.8077 6.11458C13.6472 6.59951 13.3178 7.00787 12.8818 7.26259C12.4458 7.5173 11.9333 7.60076 11.441 7.49722L7.46913 6.70115C7.0669 6.64329 6.65685 6.7079 6.29063 6.88684C5.9244 7.06578 5.6184 7.35105 5.41116 7.70671L1.29522 14.9551C1.07123 15.3335 0.970516 15.7744 1.00748 16.2146C1.04444 16.6548 1.21718 17.0719 1.50101 17.4061L4.11464 20.4228C4.44457 20.8051 4.62652 21.2966 4.62652 21.8054C4.62652 22.3143 4.44457 22.8058 4.11464 23.1881L1.50101 26.2047C1.21718 26.539 1.04444 26.956 1.00748 27.3963C0.970516 27.8365 1.07123 28.2773 1.29522 28.6558L5.41116 35.9041C5.62745 36.2864 5.95676 36.5894 6.35217 36.77C6.74757 36.9506 7.18888 36.9994 7.61319 36.9097L11.4822 36.1136C11.9745 36.0101 12.487 36.0935 12.923 36.3483C13.359 36.603 13.6883 37.0113 13.8488 37.4963L15.1042 41.3299C15.2474 41.7635 15.5261 42.1375 15.8977 42.3948C16.2693 42.652 16.7134 42.7783 17.1622 42.7545H25.394C25.8255 42.7556 26.2464 42.6187 26.5972 42.3631C26.948 42.1074 27.2111 41.746 27.3491 41.3299L28.6045 37.4963C28.765 37.0113 29.0943 36.603 29.5303 36.3483C29.9663 36.0935 30.4788 36.0101 30.9711 36.1136L34.8401 36.9097C35.2644 36.9994 35.7057 36.9506 36.1012 36.77C36.4966 36.5894 36.8259 36.2864 37.0422 35.9041L41.1581 28.6558C41.3766 28.2731 41.4704 27.8297 41.426 27.3894C41.3817 26.949 41.2014 26.5343 40.9111 26.2047L38.1329 23.1881ZM35.0665 25.9952L36.7129 27.8806L34.0787 32.5313L31.6503 32.0286C30.1681 31.7201 28.6262 31.9764 27.3174 32.7488C26.0086 33.5211 25.0239 34.7558 24.5503 36.2184L23.7682 38.5647H18.4998L17.759 36.1765C17.2853 34.7139 16.3007 33.4792 14.9918 32.7069C13.683 31.9345 12.1412 31.6782 10.659 31.9867L8.23058 32.4894L5.55522 27.8597L7.20159 25.9743C8.21402 24.822 8.77374 23.3304 8.77374 21.7845C8.77374 20.2386 8.21402 18.7469 7.20159 17.5947L5.55522 15.7092L8.18942 11.1005L10.6178 11.6032C12.1 11.9116 13.6419 11.6554 14.9507 10.883C16.2595 10.1106 17.2442 8.876 17.7178 7.41342L18.4998 5.04618H23.7682L24.5503 7.43437C25.0239 8.89694 26.0086 10.1316 27.3174 10.9039C28.6262 11.6763 30.1681 11.9326 31.6503 11.6242L34.0787 11.1214L36.7129 15.7721L35.0665 17.6575C34.0654 18.8071 33.5127 20.2901 33.5127 21.8264C33.5127 23.3626 34.0654 24.8456 35.0665 25.9952ZM21.134 13.4258C19.5059 13.4258 17.9144 13.9173 16.5607 14.838C15.2069 15.7588 14.1518 17.0675 13.5288 18.5987C12.9057 20.1299 12.7427 21.8147 13.0603 23.4402C13.378 25.0657 14.162 26.5588 15.3132 27.7307C16.4645 28.9026 17.9313 29.7007 19.5281 30.024C21.1249 30.3474 22.7801 30.1814 24.2843 29.5472C25.7884 28.9129 27.0741 27.8389 27.9786 26.4609C28.8831 25.0829 29.3659 23.4628 29.3659 21.8054C29.3659 19.583 28.4986 17.4516 26.9549 15.8801C25.4111 14.3086 23.3173 13.4258 21.134 13.4258ZM21.134 25.9952C20.32 25.9952 19.5242 25.7495 18.8474 25.2891C18.1705 24.8287 17.6429 24.1744 17.3314 23.4088C17.0199 22.6432 16.9384 21.8008 17.0972 20.988C17.256 20.1753 17.648 19.4287 18.2236 18.8428C18.7993 18.2568 19.5327 17.8578 20.3311 17.6961C21.1295 17.5345 21.9571 17.6174 22.7092 17.9345C23.4612 18.2517 24.1041 18.7887 24.5563 19.4777C25.0086 20.1667 25.25 20.9768 25.25 21.8054C25.25 22.9166 24.8163 23.9823 24.0445 24.7681C23.2726 25.5538 22.2257 25.9952 21.134 25.9952Z" fill="#BDBDBD" stroke="white" stroke-width="1.5"/>
</svg>
