<svg width="58" height="58" viewBox="0 0 58 58" fill="none" xmlns="http://www.w3.org/2000/svg">
<path fill-rule="evenodd" clip-rule="evenodd" d="M39.0625 5.4375C39.0625 4.88522 38.6148 4.4375 38.0625 4.4375C37.5102 4.4375 37.0625 4.88522 37.0625 5.4375V9.0625C37.0625 9.61478 37.5102 10.0625 38.0625 10.0625C38.6148 10.0625 39.0625 9.61478 39.0625 9.0625V5.4375ZM39.8468 13.6667C38.318 13.3902 36.7459 13.4715 35.2537 13.9042C33.7615 14.3369 32.3898 15.1092 31.246 16.1607C30.3133 17.0181 29.5528 18.0422 29.0022 19.1775C28.1387 19.0211 27.2313 18.9375 26.2812 18.9375C18.685 18.9375 12.237 24.3375 10.7946 33.0963C10.7663 33.2664 10.685 33.4233 10.5624 33.5446C10.4397 33.6661 10.2818 33.7457 10.1111 33.7722L10.2644 34.7605L10.107 33.7728C7.9293 34.12 5.62332 35.018 3.84366 36.6158C2.03962 38.2354 0.8125 40.5465 0.8125 43.5906C0.8125 46.9523 2.07591 49.4953 4.18451 51.1741C6.26059 52.827 9.05328 53.5625 12.0078 53.5625H38.5156C45.7039 53.5625 51.75 48.5135 51.75 41.1438C51.75 37.5962 50.4705 34.7502 48.3923 32.6754C47.5088 31.7935 46.4902 31.0594 45.3789 30.4701C46.0754 29.731 46.6581 28.8886 47.105 27.9699C47.7845 26.5727 48.1313 25.0372 48.1182 23.4836C48.1051 21.93 47.7324 20.4006 47.0293 19.0151C46.3263 17.6296 45.312 16.4258 44.0658 15.4979C42.8197 14.57 41.3757 13.9432 39.8468 13.6667ZM43.1767 31.6553C43.2048 31.6681 43.2334 31.6795 43.2625 31.6895C44.6879 32.264 45.9553 33.0686 46.9792 34.0908C48.6733 35.7821 49.75 38.1153 49.75 41.1438C49.75 47.2318 44.7852 51.5625 38.5156 51.5625H12.0078C9.35492 51.5625 7.04996 50.899 5.43024 49.6094C3.84303 48.3457 2.8125 46.4028 2.8125 43.5906C2.8125 41.144 3.77567 39.3645 5.17976 38.104C6.60774 36.822 8.5269 36.0503 10.4199 35.7482C11.0057 35.6568 11.5478 35.3832 11.9692 34.9662C12.1589 34.7785 12.3198 34.5661 12.4482 34.3359L38.1613 29.3366C38.3395 29.6945 38.5929 30.0109 38.9053 30.2636C39.2827 30.569 39.7331 30.7707 40.2122 30.849L40.2126 30.849C41.251 31.0183 42.2468 31.2882 43.1767 31.6553ZM38.1613 29.3365L40.5343 28.8751C40.3983 28.8528 40.2704 28.7955 40.1632 28.7088C40.0559 28.622 39.9731 28.5087 39.9229 28.3802C38.4968 24.7203 35.4515 21.1853 30.9893 19.6872C31.4098 18.9217 31.953 18.2274 32.5996 17.6331C33.516 16.7906 34.6151 16.1718 35.8107 15.8251C37.0063 15.4784 38.2659 15.4133 39.4909 15.6348C40.7159 15.8563 41.8729 16.3585 42.8714 17.102C43.8698 17.8455 44.6825 18.81 45.2458 19.9201C45.8092 21.0302 46.1078 22.2557 46.1183 23.5005C46.1288 24.7453 45.8509 25.9756 45.3064 27.0951C44.8419 28.0503 44.1939 28.9026 43.4014 29.6044C42.4796 29.278 41.5176 29.0354 40.5347 28.8752L38.1613 29.3366L38.1613 29.3365ZM38.1613 29.3365L12.4482 34.3359C12.6056 34.054 12.7143 33.7454 12.7678 33.423L12.768 33.4218C14.0649 25.5446 19.747 20.9375 26.2812 20.9375C32.3483 20.9375 36.4117 24.8771 38.0596 29.107L38.0599 29.1078C38.0904 29.1857 38.1242 29.262 38.1613 29.3365ZM51.5625 23.5625C51.5625 23.0102 52.0102 22.5625 52.5625 22.5625H56.1875C56.7398 22.5625 57.1875 23.0102 57.1875 23.5625C57.1875 24.1148 56.7398 24.5625 56.1875 24.5625H52.5625C52.0102 24.5625 51.5625 24.1148 51.5625 23.5625ZM24.5387 10.0387C24.9293 9.64822 25.5624 9.64822 25.953 10.0387L28.5165 12.6023C28.907 12.9928 28.907 13.626 28.5165 14.0165C28.126 14.407 27.4928 14.407 27.1023 14.0165L24.5387 11.453C24.1482 11.0624 24.1482 10.4293 24.5387 10.0387ZM51.5861 11.453C51.9766 11.0624 51.9766 10.4293 51.5861 10.0387C51.1956 9.64822 50.5624 9.64822 50.1719 10.0387L47.6083 12.6023C47.2178 12.9928 47.2178 13.626 47.6083 14.0165C47.9988 14.407 48.632 14.407 49.0225 14.0165L51.5861 11.453Z" fill="#BDBDBD"/>
</svg>
