<svg width="43" height="43" viewBox="0 0 43 43" fill="none" xmlns="http://www.w3.org/2000/svg">
<path fill-rule="evenodd" clip-rule="evenodd" d="M41 21.5C41 32.2696 32.2696 41 21.5 41C19.2056 41 17.0038 40.6037 14.9592 39.8759C12.7278 38.167 11.3766 34.9764 11.5322 31.6465C11.6316 29.5196 12.3551 27.4373 13.7942 25.7947C15.2217 24.1653 17.4098 22.9036 20.5656 22.4946C27.1408 21.939 31.4454 18.24 32.6536 13.6486C33.4686 10.5515 32.8372 7.18666 30.7058 4.30545C36.8331 7.59285 41 14.0598 41 21.5ZM26.6799 0.628116C26.632 0.597743 26.5839 0.567524 26.5354 0.537457L26.5055 0.58574C24.8994 0.202765 23.2234 0 21.5 0C9.62588 0 0 9.62588 0 21.5C0 30.7275 5.81303 38.5972 13.9768 41.647C14.7988 42.2319 15.7255 42.6738 16.7494 42.9298L16.8575 42.4975C18.3526 42.8265 19.906 43 21.5 43C33.3741 43 43 33.3741 43 21.5C43 11.4117 36.0518 2.94632 26.6799 0.628116ZM10.8161 37.8154C5.50642 34.3313 2 28.3251 2 21.5C2 10.7304 10.7304 2 21.5 2C23.0066 2 24.4734 2.17087 25.8819 2.49428C30.2735 5.41051 31.6484 9.60965 30.7195 13.1397C29.7618 16.7789 26.2725 20.0121 20.3767 20.5035L20.3546 20.5053L20.3326 20.5081C16.7377 20.969 14.0776 22.4361 12.2899 24.4767C10.5105 26.5078 9.65177 29.0419 9.53443 31.5531C9.43412 33.6997 9.88265 35.9078 10.8161 37.8154ZM21.1532 33.371C21.7723 33.371 22.2742 32.8691 22.2742 32.25C22.2742 31.6309 21.7723 31.129 21.1532 31.129C20.5341 31.129 20.0323 31.6309 20.0323 32.25C20.0323 32.8691 20.5341 33.371 21.1532 33.371ZM21.1532 35.371C22.8769 35.371 24.2742 33.9737 24.2742 32.25C24.2742 30.5263 22.8769 29.129 21.1532 29.129C19.4296 29.129 18.0323 30.5263 18.0323 32.25C18.0323 33.9737 19.4296 35.371 21.1532 35.371ZM22.2742 10.75C22.2742 11.3691 21.7723 11.871 21.1532 11.871C20.5341 11.871 20.0323 11.3691 20.0323 10.75C20.0323 10.1309 20.5341 9.62903 21.1532 9.62903C21.7723 9.62903 22.2742 10.1309 22.2742 10.75ZM24.2742 10.75C24.2742 12.4737 22.8769 13.871 21.1532 13.871C19.4296 13.871 18.0323 12.4737 18.0323 10.75C18.0323 9.02634 19.4296 7.62903 21.1532 7.62903C22.8769 7.62903 24.2742 9.02634 24.2742 10.75Z" fill="#BDBDBD"/>
</svg>
