<svg width="74" height="74" viewBox="0 0 74 74" fill="none" xmlns="http://www.w3.org/2000/svg">
<circle cx="37" cy="37" r="36" fill="white" stroke="#D1D1D1" stroke-width="2"/>
<path opacity="0.2" d="M43.8535 41.393C40.0749 45.1716 32.7786 45.1716 29 41.393C25.2214 37.6144 24.3679 29.4646 28.1465 25.686C31.9251 21.9075 40.0749 21.9074 43.8535 25.686C47.6321 29.4646 47.6321 37.6144 43.8535 41.393ZM37.9581 60.9535C38.4783 60.4334 38.7689 59.7144 38.7689 59.0106V48.5162C41.7979 47.9655 44.5975 46.4816 46.7698 44.3093C52.7207 38.3584 52.7207 28.7207 46.7698 22.7698C40.8189 16.8189 31.1811 16.8189 25.2302 22.7698C19.2793 28.7207 19.2793 38.3584 25.2302 44.3093C27.4025 46.4816 30.2021 47.9655 33.2311 48.5162L33.2464 58.9953C33.2311 59.7144 33.5217 60.4334 34.0419 60.9535C35.1127 62.0243 36.8873 62.0243 37.9581 60.9535Z" fill="black"/>
<ellipse cx="36.0741" cy="33.5" rx="11.0741" ry="11.5" fill="white"/>
<ellipse cx="49" cy="36.5" rx="4" ry="4.5" fill="white"/>
<path d="M58.7854 34.3725L58.8088 34.3778C59.3957 34.5101 59.75 35.0482 59.75 35.5781V38.4688C59.75 38.7401 59.656 38.9969 59.517 39.1963C59.3813 39.3912 59.1377 39.6194 58.7792 39.6777L58.7854 34.3725ZM58.7854 34.3725L58.7617 34.3687L56.9523 34.0805C56.8857 33.9002 56.8141 33.7238 56.7401 33.5512C56.8913 33.3397 57.0393 33.1405 57.1919 32.9354C57.3788 32.684 57.5725 32.4236 57.7868 32.1202L57.7977 32.1048L57.8078 32.0888C57.892 31.956 58.0281 31.7145 58.0281 31.3906C58.0281 31.1336 57.9168 30.9164 57.8598 30.8125C57.7866 30.6789 57.6928 30.5432 57.5971 30.4164C57.404 30.1606 57.1529 29.8752 56.9037 29.6068C56.4312 29.0981 55.9171 28.5991 55.6998 28.3882C55.6865 28.3753 55.6743 28.3634 55.6633 28.3527L55.6496 28.3394L55.6352 28.3268C55.4362 28.1522 55.1625 28.0156 54.8289 28.0156C54.574 28.0156 54.2943 28.0938 54.0546 28.2964L52.6875 29.3818C52.5763 29.33 52.4625 29.2799 52.3464 29.2324L52.0685 27.2866C51.9857 26.6885 51.4532 26.25 50.8805 26.25H48.1195C47.509 26.25 47.0804 26.6995 46.9504 27.1785L46.9503 27.1785L46.947 27.1917C46.7782 27.8612 46.6944 28.5891 46.6305 29.2447C46.5164 29.2911 46.403 29.34 46.29 29.392L44.9597 28.2961L44.9373 28.2777L44.9136 28.2611C44.7483 28.1451 44.4955 28.0156 44.1711 28.0156C43.8962 28.0156 43.6698 28.1452 43.5701 28.2051C43.437 28.2853 43.3028 28.3874 43.1782 28.491C42.9266 28.7003 42.6474 28.9721 42.3861 29.2431C41.8804 29.7676 41.3694 30.3652 41.1787 30.6313C40.9929 30.8754 40.9273 31.1495 40.9273 31.3906C40.9273 31.6948 41.0465 31.9447 41.1476 32.1044L41.1698 32.1394L41.1956 32.1716C41.5743 32.645 41.9264 33.099 42.2566 33.5699C42.1916 33.7176 42.1303 33.8676 42.0738 34.0202L40.2215 34.3221L40.3414 35.0625L40.2208 34.3223L40.2212 34.3222C39.8624 34.3804 39.6188 34.6088 39.483 34.8037C39.344 35.0031 39.25 35.2599 39.25 35.5312V38.4219C39.25 38.9347 39.5976 39.5154 40.2376 39.6156L42.0469 39.9163C42.1145 40.0978 42.1881 40.276 42.2662 40.4517C42.1007 40.6795 41.9363 40.9007 41.7695 41.1248C41.5899 41.3664 41.4076 41.6115 41.2186 41.8723L41.2048 41.8913L41.1922 41.9112C41.108 42.044 40.9719 42.2855 40.9719 42.6094C40.9719 42.8643 41.0797 43.0803 41.1384 43.1887C41.2119 43.3244 41.3061 43.4615 41.4022 43.5893C41.596 43.8468 41.8478 44.1324 42.0973 44.4001C42.5484 44.884 43.0383 45.3583 43.2693 45.5819C43.2951 45.607 43.3178 45.6289 43.3367 45.6473L43.3504 45.6606L43.3648 45.6732C43.5638 45.8478 43.8375 45.9844 44.1711 45.9844C44.3737 45.9844 44.7005 45.9322 44.963 45.6896L46.3125 44.6182C46.4237 44.67 46.5375 44.7201 46.6536 44.7676L46.931 46.7102C46.9312 46.7113 46.9313 46.7124 46.9315 46.7135C47.0143 47.3115 47.5468 47.75 48.1195 47.75H50.8805C51.491 47.75 51.9196 47.3005 52.0496 46.8215L52.0497 46.8215L52.053 46.8083C52.2215 46.1401 52.3052 45.4143 52.3691 44.7514C52.4838 44.7065 52.597 44.6586 52.7094 44.6075L54.0403 45.7039L54.0627 45.7223L54.0864 45.7389C54.2517 45.8549 54.5045 45.9844 54.8289 45.9844C55.1055 45.9844 55.3329 45.853 55.4322 45.7928C55.5653 45.7119 55.6995 45.609 55.824 45.5047C56.0755 45.2938 56.3546 45.02 56.6158 44.7471C57.1088 44.2319 57.6054 43.6487 57.8061 43.3741C58.0189 43.1216 58.0727 42.8249 58.0727 42.6094C58.0727 42.2798 57.9454 42.0426 57.8524 41.8956L57.8302 41.8606L57.8044 41.8284C57.4257 41.355 57.0736 40.901 56.7434 40.4301C56.8084 40.2824 56.8697 40.1324 56.9262 39.9798L58.7785 39.6779L58.7854 34.3725ZM52.55 37C52.55 38.8256 51.143 40.25 49.5 40.25C47.857 40.25 46.45 38.8256 46.45 37C46.45 35.1744 47.857 33.75 49.5 33.75C51.143 33.75 52.55 35.1744 52.55 37Z" fill="white" stroke="#CCCCCC" stroke-width="1.5"/>
</svg>
