<svg width="24" height="39" viewBox="0 0 24 39" fill="none" xmlns="http://www.w3.org/2000/svg">
<path opacity="0.2" d="M23.4922 3.25C23.4922 2.89844 23.3359 2.58593 23.1016 2.35156L21.1484 0.398435C20.9141 0.164062 20.5625 0.00780892 20.25 0.00780892C19.9375 0.00780892 19.5859 0.164062 19.3516 0.398435L1.14844 18.6016C0.914063 18.8359 0.757813 19.1875 0.757813 19.5C0.757813 19.8125 0.914063 20.1641 1.14844 20.3984L19.3516 38.6016C19.5859 38.8359 19.9375 38.9922 20.25 38.9922C20.5625 38.9922 20.9141 38.8359 21.1484 38.6016L23.1016 36.6484C23.3359 36.4141 23.4922 36.0625 23.4922 35.75C23.4922 35.4375 23.3359 35.0859 23.1016 34.8516L7.75 19.5L23.1016 4.14844C23.3359 3.91406 23.4922 3.5625 23.4922 3.25Z" fill="black"/>
</svg>
