<svg width="42" height="40" viewBox="0 0 42 40" fill="none" xmlns="http://www.w3.org/2000/svg">
<path fill-rule="evenodd" clip-rule="evenodd" d="M21.9159 0.890625H20.2198L21.4191 2.08993L29.4926 10.1634L25.0942 13.6821L25.9719 14.7793L30.4922 11.1631L39.6771 20.3479L40.8764 21.5472V19.8511V1.59316V0.890625H40.1739H21.9159ZM39.4713 18.1551L23.612 2.2957H39.4713V18.1551ZM3.13307 19.3472L2.02759 18.2733L1.9421 19.8122L0.927766 38.0702L0.884277 38.853L1.66714 38.8106L20.4323 37.7963L22.0356 37.7097L20.8839 36.5909L12.4009 28.3503L16.8432 23.908L15.8497 22.9145L11.393 27.3712L3.13307 19.3472ZM2.37417 37.3653L3.25952 21.429L18.7532 36.4799L2.37417 37.3653ZM25.9724 23.9083L16.8434 13.765L17.8878 12.8251L27.0168 22.9684L25.9724 23.9083Z" fill="#BDBDBD"/>
<path d="M20.2198 0.890625V0.507892H19.2958L19.9492 1.16126L20.2198 0.890625ZM21.4191 2.08993L21.1485 2.36057V2.36057L21.4191 2.08993ZM29.4926 10.1634L29.7317 10.4623L30.0656 10.1951L29.7632 9.89277L29.4926 10.1634ZM25.0942 13.6821L24.8551 13.3832L24.5562 13.6223L24.7953 13.9212L25.0942 13.6821ZM25.9719 14.7793L25.6731 15.0184L25.9122 15.3172L26.211 15.0782L25.9719 14.7793ZM30.4922 11.1631L30.7629 10.8924L30.5206 10.6502L30.2531 10.8642L30.4922 11.1631ZM39.6771 20.3479L39.4065 20.6186L39.6771 20.3479ZM40.8764 21.5472L40.6058 21.8179L41.2591 22.4712V21.5472H40.8764ZM40.8764 0.890625H41.2591V0.507892H40.8764V0.890625ZM23.612 2.2957V1.91297H22.688L23.3413 2.56633L23.612 2.2957ZM39.4713 18.1551L39.2007 18.4257L39.8541 19.0791V18.1551H39.4713ZM39.4713 2.2957H39.8541V1.91297H39.4713V2.2957ZM2.02759 18.2733L2.29427 17.9988L1.69202 17.4138L1.64545 18.2521L2.02759 18.2733ZM3.13307 19.3472L3.39976 19.0727L3.13307 19.3472ZM1.9421 19.8122L2.32424 19.8334L1.9421 19.8122ZM0.927766 38.0702L0.545622 38.0489L0.927766 38.0702ZM0.884277 38.853L0.502134 38.8317L0.478441 39.2582L0.904935 39.2351L0.884277 38.853ZM1.66714 38.8106L1.6878 39.1928H1.6878L1.66714 38.8106ZM20.4323 37.7963L20.4116 37.4141L20.4323 37.7963ZM22.0356 37.7097L22.0562 38.0918L22.9297 38.0446L22.3023 37.4351L22.0356 37.7097ZM20.8839 36.5909L20.6172 36.8654V36.8654L20.8839 36.5909ZM12.4009 28.3503L12.1303 28.0797L11.8557 28.3542L12.1343 28.6248L12.4009 28.3503ZM16.8432 23.908L17.1138 24.1787L17.3845 23.908L17.1138 23.6374L16.8432 23.908ZM15.8497 22.9145L16.1203 22.6439L15.8497 22.3732L15.579 22.6439L15.8497 22.9145ZM11.393 27.3712L11.1263 27.6457L11.3969 27.9085L11.6636 27.6418L11.393 27.3712ZM3.25952 21.429L3.5262 21.1544L2.92395 20.5694L2.87738 21.4077L3.25952 21.429ZM2.37417 37.3653L1.99202 37.3441L1.96833 37.7705L2.39483 37.7475L2.37417 37.3653ZM18.7532 36.4799L18.7738 36.8621L19.6473 36.8149L19.0199 36.2054L18.7532 36.4799ZM16.8434 13.765L16.5874 13.4805L16.3029 13.7366L16.5589 14.021L16.8434 13.765ZM25.9724 23.9083L25.6879 24.1644L25.944 24.4489L26.2284 24.1928L25.9724 23.9083ZM17.8878 12.8251L18.1723 12.569L17.9163 12.2845L17.6318 12.5406L17.8878 12.8251ZM27.0168 22.9684L27.2728 23.2529L27.5573 22.9968L27.3013 22.7124L27.0168 22.9684ZM20.2198 1.27336H21.9159V0.507892H20.2198V1.27336ZM21.6897 1.8193L20.4904 0.619992L19.9492 1.16126L21.1485 2.36057L21.6897 1.8193ZM29.7632 9.89277L21.6897 1.8193L21.1485 2.36057L29.2219 10.434L29.7632 9.89277ZM25.3333 13.981L29.7317 10.4623L29.2535 9.86454L24.8551 13.3832L25.3333 13.981ZM26.2708 14.5402L25.3931 13.443L24.7953 13.9212L25.6731 15.0184L26.2708 14.5402ZM30.2531 10.8642L25.7328 14.4804L26.211 15.0782L30.7313 11.4619L30.2531 10.8642ZM39.9477 20.0773L30.7629 10.8924L30.2216 11.4337L39.4065 20.6186L39.9477 20.0773ZM41.147 21.2766L39.9477 20.0773L39.4065 20.6186L40.6058 21.8179L41.147 21.2766ZM40.4937 19.8511V21.5472H41.2591V19.8511H40.4937ZM40.4937 1.59316V19.8511H41.2591V1.59316H40.4937ZM40.4937 0.890625V1.59316H41.2591V0.890625H40.4937ZM40.1739 1.27336H40.8764V0.507892H40.1739V1.27336ZM21.9159 1.27336H40.1739V0.507892H21.9159V1.27336ZM23.3413 2.56633L39.2007 18.4257L39.742 17.8844L23.8826 2.02507L23.3413 2.56633ZM39.4713 1.91297H23.612V2.67843H39.4713V1.91297ZM39.8541 18.1551V2.2957H39.0886V18.1551H39.8541ZM1.76091 18.5479L2.86639 19.6218L3.39976 19.0727L2.29427 17.9988L1.76091 18.5479ZM2.32424 19.8334L2.40973 18.2946L1.64545 18.2521L1.55996 19.7909L2.32424 19.8334ZM1.30991 38.0914L2.32424 19.8334L1.55996 19.7909L0.545622 38.0489L1.30991 38.0914ZM1.26642 38.8742L1.30991 38.0914L0.545622 38.0489L0.502134 38.8317L1.26642 38.8742ZM1.64648 38.4285L0.86362 38.4708L0.904935 39.2351L1.6878 39.1928L1.64648 38.4285ZM20.4116 37.4141L1.64648 38.4285L1.6878 39.1928L20.453 38.1785L20.4116 37.4141ZM22.0149 37.3275L20.4116 37.4141L20.453 38.1785L22.0562 38.0918L22.0149 37.3275ZM20.6172 36.8654L21.7689 37.9842L22.3023 37.4351L21.1506 36.3164L20.6172 36.8654ZM12.1343 28.6248L20.6172 36.8654L21.1506 36.3164L12.6676 28.0758L12.1343 28.6248ZM16.5726 23.6374L12.1303 28.0797L12.6716 28.6209L17.1138 24.1787L16.5726 23.6374ZM15.579 23.1851L16.5726 24.1787L17.1138 23.6374L16.1203 22.6439L15.579 23.1851ZM11.6636 27.6418L16.1203 23.1851L15.579 22.6439L11.1224 27.1005L11.6636 27.6418ZM2.86639 19.6218L11.1263 27.6457L11.6597 27.0966L3.39976 19.0727L2.86639 19.6218ZM2.87738 21.4077L1.99202 37.3441L2.75631 37.3865L3.64166 21.4502L2.87738 21.4077ZM19.0199 36.2054L3.5262 21.1544L2.99284 21.7035L18.4865 36.7545L19.0199 36.2054ZM2.39483 37.7475L18.7738 36.8621L18.7325 36.0978L2.35351 36.9831L2.39483 37.7475ZM16.5589 14.021L25.6879 24.1644L26.2569 23.6523L17.1279 13.509L16.5589 14.021ZM17.6318 12.5406L16.5874 13.4805L17.0995 14.0495L18.1438 13.1095L17.6318 12.5406ZM27.3013 22.7124L18.1723 12.569L17.6033 13.0811L26.7323 23.2244L27.3013 22.7124ZM26.2284 24.1928L27.2728 23.2529L26.7608 22.6839L25.7164 23.6239L26.2284 24.1928Z" fill="#BDBDBD"/>
</svg>
