<svg width="80" height="80" viewBox="0 0 80 80" fill="none" xmlns="http://www.w3.org/2000/svg">
<path d="M62.3179 64.6074C62.3179 62.8099 63.7743 61.3516 65.5719 61.3516C67.3694 61.3516 68.8277 62.8099 68.8277 64.6074C68.8277 66.4049 67.3694 67.8632 65.5719 67.8632C63.7743 67.8632 62.3179 66.4049 62.3179 64.6074" stroke="#BDBDBD" stroke-width="2"/>
<path d="M12 64.2552C12 62.5093 13.4141 61.0952 15.16 61.0952C16.904 61.0952 18.3181 62.5093 18.3181 64.2552C18.3181 65.9992 16.904 67.4133 15.16 67.4133C13.4141 67.4133 12 65.9992 12 64.2552" stroke="#BDBDBD" stroke-width="2"/>
<path d="M29.984 53.8812V54.8812H30.984V53.8812H29.984ZM15 53.8812V52.8812H14V53.8812H15ZM28.984 45.5427V53.8812H30.984V45.5427H28.984ZM29.984 52.8812H15V54.8812H29.984V52.8812ZM14 53.8812V61.0625H16V53.8812H14Z" fill="#BDBDBD"/>
<path fill-rule="evenodd" clip-rule="evenodd" d="M36.3184 63.4846C36.3184 61.4548 37.9629 59.8103 39.9927 59.8103C42.0207 59.8103 43.6652 61.4548 43.6652 63.4846C43.6652 65.5126 42.0207 67.1571 39.9927 67.1571C37.9629 67.1571 36.3184 65.5126 36.3184 63.4846Z" stroke="#BDBDBD" stroke-width="2"/>
<path d="M52.179 45.4395V64.532H62.0755" stroke="#BDBDBD" stroke-width="2"/>
<path d="M40.3999 45.4624V59.4624" stroke="#BDBDBD" stroke-width="2"/>
<path d="M25.2658 27.3179C24.9935 27.5874 24.643 27.7641 24.2644 27.8229C20.1931 28.472 15.8125 31.1624 15.8125 36.6531C15.8125 42.827 20.4004 45.625 26.0078 45.625H33.5H47.5H52.5156C59.2445 45.625 64.75 40.9352 64.75 34.2063C64.75 27.6303 60.0375 23.8478 54.3734 22.9246C54.0658 22.8743 53.7766 22.7448 53.5342 22.5487C53.2919 22.3526 53.1048 22.0968 52.9914 21.8065C51.2265 17.2764 46.8436 13 40.2812 13C33.2159 13 27.1508 18.0036 25.7812 26.3219C25.7185 26.6999 25.5382 27.0484 25.2658 27.3179Z" stroke="#BDBDBD" stroke-width="2" stroke-linejoin="round"/>
</svg>
