<svg width="74" height="74" viewBox="0 0 74 74" fill="none" xmlns="http://www.w3.org/2000/svg">
<circle cx="37" cy="37" r="36" fill="white" stroke="#D1D1D1" stroke-width="2"/>
<path d="M22 52.5V25.1014L36.4037 26.4954L36.4517 26.5H36.5H50C50.5523 26.5 51 26.9477 51 27.5V52.5C51 53.0523 50.5523 53.5 50 53.5H23C22.4477 53.5 22 53.0523 22 52.5Z" fill="white" stroke="#C4C4C4" stroke-width="2"/>
<path d="M33.1881 36.4191C33.3415 36.2656 33.3415 36.0201 33.1881 35.8666L32.1691 34.8477C32.0156 34.6942 31.7701 34.6942 31.6166 34.8477L27.0619 39.4023C26.9085 39.5558 26.9085 39.8013 27.0619 39.9548L31.6166 44.5095C31.7701 44.6629 32.0156 44.6629 32.1691 44.5095L33.1881 43.4905C33.3415 43.3371 33.3415 43.0915 33.1881 42.9381L29.9286 39.6786L33.1881 36.4191Z" fill="#C4C4C4"/>
<path d="M39.8119 36.4191C39.6585 36.2656 39.6585 36.0201 39.8119 35.8666L40.8309 34.8477C40.9844 34.6942 41.2299 34.6942 41.3834 34.8477L45.9381 39.4023C46.0915 39.5558 46.0915 39.8013 45.9381 39.9548L41.3834 44.5095C41.2299 44.6629 40.9844 44.6629 40.8309 44.5095L39.8119 43.4905C39.6585 43.3371 39.6585 43.0915 39.8119 42.9381L43.0714 39.6786L39.8119 36.4191Z" fill="#C4C4C4"/>
<rect width="1.5" height="12" rx="0.75" transform="matrix(0.965924 0.258825 -0.258813 0.965927 37 33.5)" fill="#C4C4C4"/>
<path d="M24.75 21H46C46.5523 21 47 21.4477 47 22V26.5H24.75C23.2312 26.5 22 25.2688 22 23.75C22 22.2312 23.2312 21 24.75 21Z" fill="white" stroke="#C4C4C4" stroke-width="2"/>
</svg>
