<svg width="24" height="39" viewBox="0 0 24 39" fill="none" xmlns="http://www.w3.org/2000/svg">
<path opacity="0.2" d="M0.507811 3.25C0.507811 2.89844 0.66406 2.58593 0.898437 2.35156L2.85156 0.398435C3.08594 0.164062 3.4375 0.00780892 3.75 0.00780892C4.0625 0.00780892 4.41406 0.164062 4.64844 0.398435L22.8516 18.6016C23.0859 18.8359 23.2422 19.1875 23.2422 19.5C23.2422 19.8125 23.0859 20.1641 22.8516 20.3984L4.64844 38.6016C4.41406 38.8359 4.0625 38.9922 3.75 38.9922C3.4375 38.9922 3.08594 38.8359 2.85156 38.6016L0.898437 36.6484C0.66406 36.4141 0.507811 36.0625 0.507811 35.75C0.507811 35.4375 0.66406 35.0859 0.898437 34.8516L16.25 19.5L0.898437 4.14844C0.66406 3.91406 0.507811 3.5625 0.507811 3.25Z" fill="black"/>
</svg>
