<svg width="52" height="40" viewBox="0 0 52 40" fill="none" xmlns="http://www.w3.org/2000/svg">
<path d="M33.5 34.5625H38.5156C45.2445 34.5625 50.75 29.8727 50.75 23.1438C50.75 16.5678 46.0375 12.7853 40.3734 11.8621C40.0658 11.8118 39.7766 11.6823 39.5342 11.4862C39.2919 11.2901 39.1048 11.0343 38.9914 10.744C37.2265 6.21387 32.8436 1.9375 26.2812 1.9375C19.2159 1.9375 13.1508 6.94113 11.7812 15.2594C11.7185 15.6374 11.5382 15.9859 11.2658 16.2554C10.9935 16.5249 10.643 16.7016 10.2644 16.7604C6.19309 17.4095 1.8125 20.0999 1.8125 25.5906C1.8125 31.7645 6.40039 34.5625 12.0078 34.5625H19.5" stroke="#BDBDBD" stroke-width="2" stroke-linejoin="round"/>
<path d="M33.3182 30.48H31.8693V25.72C31.8693 24.2176 30.6484 23 29.142 23H23.858C22.3516 23 21.1307 24.2176 21.1307 25.72V30.48H19.6818C19.3047 30.48 19 30.7839 19 31.16V39.32C19 39.6961 19.3047 40 19.6818 40H33.3182C33.6953 40 34 39.6961 34 39.32V31.16C34 30.7839 33.6953 30.48 33.3182 30.48ZM22.6648 25.72C22.6648 25.0634 23.1996 24.53 23.858 24.53H29.142C29.8004 24.53 30.3352 25.0634 30.3352 25.72V30.48H22.6648V25.72ZM32.4659 38.47H20.5341V32.01H32.4659V38.47ZM25.9034 35.5162V36.6425C25.9034 36.736 25.9801 36.8125 26.0739 36.8125H26.9261C27.0199 36.8125 27.0966 36.736 27.0966 36.6425V35.5162C27.2725 35.3903 27.4038 35.212 27.4715 35.0069C27.5393 34.8018 27.5401 34.5805 27.4738 34.375C27.4074 34.1694 27.2774 33.9902 27.1024 33.863C26.9274 33.7358 26.7165 33.6673 26.5 33.6673C26.2835 33.6673 26.0726 33.7358 25.8976 33.863C25.7226 33.9902 25.5926 34.1694 25.5262 34.375C25.4599 34.5805 25.4607 34.8018 25.5285 35.0069C25.5963 35.212 25.7275 35.3903 25.9034 35.5162Z" fill="#BDBDBD"/>
</svg>
