<?xml version="1.0" encoding="UTF-8"?>
<svg width="401px" height="434px" viewBox="0 0 401 434" version="1.1" xmlns="http://www.w3.org/2000/svg" xmlns:xlink="http://www.w3.org/1999/xlink">
    <!-- Generator: Sketch 59.1 (86144) - https://sketch.com -->
    <title>Artboard</title>
    <desc>Created with Sketch.</desc>
    <g id="Artboard" stroke="none" stroke-width="1" fill="none" fill-rule="evenodd">
        <g id="Admiration">
            <path d="M202.9,149 C239.3,149 268.8,178.5 268.8,214.9 C268.8,251.29 239.3,280.8 202.9,280.8 C166.51,280.8 137,251.29 137,214.9 C137,178.5 166.51,149 202.9,149 Z" id="Path" fill="#3DE3E4" fill-rule="nonzero"></path>
            <path d="M345.03,93.95 C375.43,93.95 400.06,118.59 400.06,148.98 C400.06,179.37 375.43,204.01 345.03,204.01 C314.64,204.01 290.01,179.37 290.01,148.98 C290.01,118.59 314.64,93.95 345.03,93.95 Z" id="Path" stroke="#000000" stroke-width="2" fill="#7D878F" fill-rule="nonzero" opacity="0.102"></path>
            <path d="M339.87,249 C370.26,249 394.9,273.64 394.9,304.03 C394.9,334.42 370.26,359.05 339.87,359.05 C309.48,359.05 284.84,334.42 284.84,304.03 C284.84,273.64 309.48,249 339.87,249 Z" id="Path" stroke="#000000" stroke-width="2" fill="#7D878F" fill-rule="nonzero" opacity="0.102"></path>
            <g id="Group" transform="translate(325.050000, 265.640000)" fill-rule="nonzero">
                <path d="M16.5,0 C7.39,0 0,7.39 0,16.5 C0,25.61 7.39,33 16.5,33 C25.61,33 33,25.61 33,16.5 C33,7.39 25.61,0 16.5,0 Z M16.5,32 C7.95,32 1,25.05 1,16.5 C1,7.95 7.95,1 16.5,1 C25.05,1 32,7.95 32,16.5 C32,25.05 25.05,32 16.5,32 Z" id="Shape" fill="#BFC5CA"></path>
                <polygon id="Path" stroke="#3DE3E4" stroke-width="2" fill="#3CECEC" points="14.58 19.73 22.23 12.1 23.81 12.53 14.58 21.74 10.1 17.26 11.68 16.83"></polygon>
            </g>
            <path d="M203.74,323.36 C234.13,323.36 258.77,347.99 258.77,378.39 C258.77,408.78 234.13,433.41 203.74,433.41 C173.35,433.41 148.71,408.78 148.71,378.39 C148.71,347.99 173.35,323.36 203.74,323.36 Z" id="Path" stroke="#000000" stroke-width="2" fill="#7D878F" fill-rule="nonzero" opacity="0.102"></path>
            <path d="M71.2,254.33 C101.59,254.33 126.23,278.97 126.23,309.36 C126.23,339.75 101.59,364.39 71.2,364.39 C40.81,364.39 16.17,339.75 16.17,309.36 C16.17,278.97 40.81,254.33 71.2,254.33 Z" id="Path" stroke="#000000" stroke-width="2" fill="#7D878F" fill-rule="nonzero" opacity="0.102"></path>
            <path d="M55.53,89.62 C85.92,89.62 110.56,114.26 110.56,144.65 C110.56,175.04 85.92,199.68 55.53,199.68 C25.14,199.68 0.5,175.04 0.5,144.65 C0.5,114.26 25.14,89.62 55.53,89.62 Z" id="Path" stroke="#000000" stroke-width="2" fill="#7D878F" fill-rule="nonzero" opacity="0.102"></path>
            <path d="M202.83,0.18 C233.22,0.18 257.85,24.81 257.85,55.2 C257.85,85.59 233.22,110.23 202.83,110.23 C172.43,110.23 147.8,85.59 147.8,55.2 C147.8,24.81 172.43,0.18 202.83,0.18 Z" id="Path" stroke="#000000" stroke-width="2" fill="#7D878F" fill-rule="nonzero" opacity="0.102"></path>
            <path d="M55.07,124.18 C55,124.18 54.93,124.17 54.86,124.15 C54.47,124.04 54.24,123.63 54.36,123.24 C54.58,122.46 54.91,119.9 55.01,118.98 C55.06,118.58 55.43,118.29 55.83,118.34 C56.24,118.38 56.53,118.75 56.48,119.15 C56.44,119.5 56.08,122.61 55.78,123.65 C55.69,123.97 55.39,124.18 55.07,124.18 Z M60.82,123.98 C60.79,123.98 60.76,123.98 60.73,123.98 C60.32,123.92 60.03,123.56 60.09,123.15 C60.09,123.13 60.33,121.22 60.21,119.56 C60.18,119.15 60.48,118.8 60.89,118.77 C61.31,118.74 61.65,119.04 61.68,119.45 C61.82,121.27 61.57,123.26 61.55,123.34 C61.51,123.71 61.19,123.98 60.82,123.98 Z M60.94,120.35 C60.55,120.35 60.23,120.05 60.2,119.65 C60.17,118.87 60.04,117.76 59.4,117.22 C59.04,116.92 58.54,116.81 57.86,116.88 C57.12,116.96 56.73,117.32 56.5,119.15 C56.46,119.55 56.09,119.84 55.68,119.79 C55.27,119.74 54.99,119.38 55.04,118.97 C55.18,117.82 55.44,115.67 57.7,115.42 C58.79,115.3 59.68,115.53 60.36,116.1 C61.44,117.01 61.63,118.52 61.68,119.58 C61.7,119.99 61.39,120.33 60.98,120.35 C60.97,120.35 60.96,120.35 60.94,120.35 Z M67.46,129.06 L59.78,129.06 C59.37,129.06 59.04,128.73 59.04,128.33 C59.04,127.92 59.37,127.59 59.78,127.59 L67.46,127.59 C67.87,127.59 68.2,127.92 68.2,128.33 C68.2,128.73 67.87,129.06 67.46,129.06 Z M67.46,133.95 C67.05,133.95 66.72,133.62 66.72,133.21 C66.72,132.81 67.05,132.48 67.46,132.48 C68.41,132.48 69.18,131.71 69.18,130.77 C69.18,129.83 68.41,129.06 67.46,129.06 C67.05,129.06 66.72,128.73 66.72,128.33 C66.72,127.92 67.05,127.59 67.46,127.59 C69.22,127.59 70.66,129.02 70.66,130.77 C70.66,132.52 69.22,133.95 67.46,133.95 Z M66.77,138.73 C66.36,138.73 66.03,138.4 66.03,138 C66.03,137.59 66.36,137.26 66.77,137.26 C67.72,137.26 68.49,136.5 68.49,135.56 C68.49,134.81 67.98,134.14 67.27,133.92 C66.87,133.81 66.65,133.39 66.77,133.01 C66.89,132.62 67.3,132.4 67.69,132.51 C69.05,132.92 69.97,134.15 69.97,135.56 C69.97,137.31 68.53,138.73 66.77,138.73 Z M66.05,143.52 C65.64,143.52 65.31,143.2 65.31,142.79 C65.31,142.38 65.64,142.06 66.05,142.06 C66.99,142.06 67.77,141.29 67.77,140.35 C67.77,139.59 67.26,138.92 66.53,138.71 C66.14,138.6 65.91,138.19 66.02,137.8 C66.14,137.41 66.55,137.19 66.94,137.3 C68.3,137.69 69.25,138.94 69.25,140.35 C69.25,142.1 67.81,143.52 66.05,143.52 Z M65.32,148.33 C64.91,148.33 64.58,148 64.58,147.6 C64.58,147.19 64.91,146.86 65.32,146.86 C66.27,146.86 67.04,146.1 67.04,145.16 C67.04,144.4 66.55,143.75 65.83,143.53 C65.44,143.41 65.22,142.99 65.34,142.61 C65.46,142.22 65.88,142 66.27,142.12 C67.61,142.54 68.52,143.76 68.52,145.16 C68.52,146.91 67.08,148.33 65.32,148.33 Z M57.88,148.41 C56.06,148.41 54.28,148.39 53.01,148.35 C51.13,148.29 49.61,146.85 48.5,145.79 C48.14,145.45 47.81,145.13 47.54,144.94 C47.21,144.7 47.13,144.24 47.38,143.91 C47.62,143.59 48.08,143.52 48.41,143.75 C48.76,144 49.13,144.36 49.52,144.73 C50.51,145.67 51.74,146.84 53.06,146.88 C56.84,147.01 65.22,146.88 65.31,146.88 C65.68,146.87 66.05,147.2 66.06,147.6 C66.06,148.01 65.74,148.34 65.33,148.35 C65.27,148.35 61.51,148.41 57.88,148.41 Z M59.79,129.06 C59.65,129.06 59.52,129.02 59.39,128.95 C59.05,128.73 58.95,128.27 59.17,127.93 L59.17,127.93 C59.17,127.93 59.75,126.87 60.08,123.17 C60.11,122.76 60.47,122.46 60.88,122.5 C61.29,122.54 61.59,122.89 61.55,123.3 C61.19,127.34 60.54,128.53 60.42,128.72 C60.27,128.94 60.03,129.06 59.79,129.06 Z M47.81,134.39 C47.4,134.39 47.07,134.07 47.07,133.66 C47.07,133.3 47.33,133 47.67,132.94 C48.51,132.5 53.31,127.48 54.35,123.3 C54.45,122.91 54.85,122.67 55.24,122.76 C55.64,122.86 55.88,123.26 55.79,123.65 C54.66,128.18 49.19,134.39 47.81,134.39 Z M45.6,148.39 L45.6,131.23 C47.31,131.23 48.7,132.77 48.7,134.66 L48.7,144.95 C48.7,146.85 47.31,148.39 45.6,148.39 Z M45.6,146.92 C46.49,146.92 47.22,146.04 47.22,144.95 L47.22,134.66 C47.22,133.58 46.5,132.69 45.6,132.69 L45.6,146.92 Z" id="Shape" stroke="#3CECEC" fill="#3CECEC" fill-rule="nonzero"></path>
            <path d="M37,129 L45,129 C46.1,129 47,129.89 47,131 L47,146 C47,147.1 46.1,148 45,148 L37,148 C35.9,148 35,147.1 35,146 L35,131 C35,129.89 35.9,129 37,129 Z" id="Path" stroke="#BFC5CA" fill="#F2F3F4" fill-rule="nonzero"></path>
            <path d="M203.13,21.85 C194.01,21.85 186.63,29.24 186.63,38.36 C186.63,47.48 194.01,54.87 203.13,54.87 C212.25,54.87 219.64,47.48 219.64,38.36 C219.64,29.24 212.25,21.85 203.13,21.85 Z" id="Path" stroke="#BFC5CA" fill="#F2F3F4" fill-rule="nonzero" opacity="0.502"></path>
            <path d="M213.49,36.49 L208.35,41.34 L209.92,46.96 C210.23,48.1 209.67,48.53 208.65,47.93 L203.13,44.6 L197.6,47.92 C196.59,48.53 195.99,48.09 196.28,46.94 L197.8,40.82 L192.82,36.43 C191.93,35.65 192.17,35.01 193.35,35.01 L199.4,35.01 L202.28,28.32 C202.75,27.24 203.5,27.24 203.95,28.33 L206.76,35.01 L212.89,35.01 C214.08,35.02 214.35,35.68 213.49,36.49 Z" id="Path" stroke="#3CECEC" stroke-width="2" fill="#F2F3F4" fill-rule="nonzero"></path>
            <g id="Group-2" transform="translate(50.790000, 278.990000)" fill-rule="nonzero">
                <path d="M15.53,33.0100005 L12.59,33.0100005 C12.15,33.0100005 11.99,33.0100005 10.48,29.2700005 L9.32,28.8000005 C6.14,30.2400005 5.77,30.2400005 5.64,30.2400005 L5.4,30.2400005 L5.19,30.0600005 L3.1,28.0200005 C2.79,27.7000005 2.68,27.5900005 4.31,23.9000005 L3.83,22.7700005 C-3.55271368e-15,21.4000005 -3.55271368e-15,21.2400005 -3.55271368e-15,20.7900005 L-3.55271368e-15,17.9000005 C-3.55271368e-15,17.4500005 -3.55271368e-15,17.3100005 3.82,15.8300005 L4.3,14.7000005 C2.57,11.0700005 2.69,10.9600005 3.03,10.6400005 L5.27,8.44000046 L5.55,8.43000046 C5.89,8.43000046 7.15,8.88000046 9.29,9.79000046 L10.45,9.32000046 C11.85,5.56000046 12.02,5.56000046 12.47,5.56000046 L15.41,5.56000046 C15.85,5.56000046 16.01,5.56000046 17.52,9.31000046 L18.68,9.78000046 C21.85,8.34000046 22.23,8.34000046 22.36,8.34000046 L22.6,8.34000046 L22.81,8.51000046 L24.9,10.5500005 C25.21,10.8700005 25.32,10.9800005 23.69,14.6700005 L24.17,15.8000005 C28.01,17.1700005 28.01,17.3300005 28.01,17.7800005 L28.01,20.6700005 C28.01,21.1100005 28.01,21.2600005 24.18,22.7400005 L23.71,23.8700005 C25.43,27.4900005 25.31,27.6000005 24.99,27.9300005 L22.73,30.1400005 L22.45,30.1500005 C22.11,30.1500005 20.86,29.6900005 18.72,28.7800005 L17.55,29.2500005 C16.14,33.0100005 15.99,33.0100005 15.53,33.0100005 Z M12.9,31.8200005 L15.22,31.8200005 C15.49,31.2700005 16.06,29.8300005 16.52,28.5900005 L16.62,28.3500005 L18.73,27.4900005 L18.96,27.5900005 C20.22,28.1300005 21.71,28.7200005 22.29,28.9000005 L23.92,27.3100005 C23.71,26.7300005 23.08,25.3300005 22.52,24.1400005 L22.4,23.9000005 L23.28,21.8100005 L23.51,21.7200005 C24.79,21.2300005 26.26,20.6300005 26.81,20.3500005 L26.81,18.1100005 C26.26,17.8500005 24.79,17.2900005 23.52,16.8400005 L23.27,16.7500005 L22.39,14.6600005 L22.5,14.4300005 C23.04,13.2000005 23.64,11.7600005 23.83,11.1800005 L22.2,9.58000046 C21.67,9.76000046 20.19,10.4000005 18.94,10.9700005 L18.71,11.0700005 L16.6,10.2200005 L16.5,9.99000046 C16,8.74000046 15.38,7.29000046 15.1,6.76000046 L12.78,6.76000046 C12.52,7.30000046 11.94,8.74000046 11.48,9.98000046 L11.39,10.2300005 L9.28,11.0800005 L9.05,10.9800005 C7.79,10.4500005 6.3,9.85000046 5.72,9.67000046 L4.09,11.2700005 C4.29,11.8400005 4.92,13.2500005 5.49,14.4300005 L5.6,14.6700005 L4.72,16.7600005 L4.49,16.8500005 C3.22,17.3400005 1.74,17.9500005 1.19,18.2200005 L1.19,20.4700005 C1.75,20.7300005 3.22,21.2900005 4.48,21.7400005 L4.73,21.8300005 L5.61,23.9100005 L5.5,24.1500005 C4.96,25.3700005 4.36,26.8100005 4.17,27.3900005 L5.81,28.9900005 C6.33,28.8100005 7.81,28.1700005 9.06,27.6000005 L9.29,27.5000005 L11.4,28.3500005 L11.5,28.5900005 C12,29.8400005 12.62,31.2800005 12.9,31.8200005 Z M14,24.0900005 C11.3,24.0900005 9.1,21.9300005 9.1,19.2900005 C9.1,16.6400005 11.3,14.4900005 14,14.4900005 C16.7,14.4900005 18.89,16.6400005 18.89,19.2900005 C18.89,21.9300005 16.7,24.0900005 14,24.0900005 Z M14,15.6800005 C11.96,15.6800005 10.3,17.3000005 10.3,19.2900005 C10.3,21.2800005 11.96,22.9000005 14,22.9000005 C16.04,22.9000005 17.7,21.2800005 17.7,19.2900005 C17.7,17.3000005 16.04,15.6800005 14,15.6800005 Z" id="Shape" stroke="#3CECEC" fill="#3CECEC"></path>
                <path d="M39.11,21.3700005 L36.82,21.3700005 C36.48,21.3700005 36.36,21.3700005 35.18,18.4500005 L34.27,18.0800005 C31.8,19.2100005 31.51,19.2100005 31.41,19.2100005 L31.22,19.2100005 L31.06,19.0700005 L29.43,17.4800005 C29.19,17.2300005 29.1,17.1500005 30.37,14.2700005 L30,13.4000005 C27.02,12.3300005 27.02,12.2000005 27.02,11.8500005 L27.02,9.60000046 C27.02,9.25000046 27.02,9.14000046 29.99,7.99000046 L30.36,7.11000046 C29.02,4.28000046 29.11,4.19000046 29.38,3.94000046 L31.12,2.23000046 L31.34,2.22000046 C31.6,2.22000046 32.58,2.58000046 34.25,3.29000046 L35.16,2.92000046 C36.25,-0.00999953803 36.38,2.3097561e-07 36.72,2.3097561e-07 L39.02,2.3097561e-07 C39.36,2.3097561e-07 39.48,2.3097561e-07 40.66,2.91000046 L41.56,3.27000046 C44.03,2.15000046 44.33,2.15000046 44.43,2.15000046 L44.62,2.15000046 L44.78,2.29000046 L46.4,3.88000046 C46.65,4.13000046 46.74,4.21000046 45.46,7.09000046 L45.84,7.97000046 C48.82,9.03000046 48.82,9.16000046 48.82,9.51000046 L48.82,11.7500005 C48.82,12.1000005 48.82,12.2200005 45.85,13.3700005 L45.48,14.2500005 C46.82,17.0700005 46.73,17.1600005 46.48,17.4100005 L44.72,19.1300005 L44.5,19.1400005 C44.24,19.1400005 43.26,18.7800005 41.59,18.0700005 L40.68,18.4400005 C39.59,21.3700005 39.47,21.3700005 39.11,21.3700005 Z M37.06,20.4400005 L38.87,20.4400005 C39.08,20.0100005 39.52,18.8900005 39.88,17.9300005 L39.96,17.7300005 L41.6,17.0700005 L41.78,17.1400005 C42.76,17.5600005 43.92,18.0300005 44.37,18.1700005 L45.64,16.9300005 C45.48,16.4800005 44.99,15.3900005 44.55,14.4600005 L44.46,14.2700005 L45.14,12.6500005 L45.33,12.5800005 C46.32,12.2000005 47.47,11.7200005 47.9,11.5100005 L47.9,9.76000046 C47.46,9.56000046 46.32,9.12000046 45.33,8.78000046 L45.14,8.71000046 L44.45,7.08000046 L44.54,6.89000046 C44.96,5.94000046 45.43,4.82000046 45.58,4.37000046 L44.3,3.12000046 C43.89,3.27000046 42.74,3.76000046 41.77,4.20000046 L41.59,4.29000046 L39.94,3.62000046 L39.87,3.44000046 C39.48,2.47000046 39,1.34000046 38.78,0.920000462 L36.97,0.920000462 C36.76,1.35000046 36.32,2.47000046 35.96,3.43000046 L35.89,3.62000046 L34.24,4.29000046 L34.07,4.22000046 C33.08,3.80000046 31.92,3.34000046 31.47,3.19000046 L30.2,4.44000046 C30.36,4.88000046 30.85,5.98000046 31.29,6.90000046 L31.38,7.09000046 L30.7,8.71000046 L30.51,8.78000046 C29.52,9.17000046 28.38,9.64000046 27.95,9.85000046 L27.95,11.6000005 C28.38,11.8000005 29.52,12.2400005 30.51,12.5900005 L30.7,12.6600005 L31.39,14.2800005 L31.3,14.4700005 C30.88,15.4200005 30.41,16.5400005 30.26,16.9900005 L31.54,18.2400005 C31.95,18.0900005 33.1,17.6000005 34.07,17.1600005 L34.25,17.0700005 L35.9,17.7400005 L35.97,17.9200005 C36.36,18.9000005 36.84,20.0200005 37.06,20.4400005 Z M37.92,14.4200005 C35.82,14.4200005 34.11,12.7400005 34.11,10.6800005 C34.11,8.62000046 35.82,6.94000046 37.92,6.94000046 C40.02,6.94000046 41.73,8.62000046 41.73,10.6800005 C41.73,12.7400005 40.02,14.4200005 37.92,14.4200005 Z M37.92,7.87000046 C36.33,7.87000046 35.04,9.13000046 35.04,10.6800005 C35.04,12.2300005 36.33,13.4900005 37.92,13.4900005 C39.51,13.4900005 40.8,12.2300005 40.8,10.6800005 C40.8,9.13000046 39.51,7.87000046 37.92,7.87000046 Z" id="Shape" fill="#BFC5CA"></path>
            </g>
            <path d="M224.260052,355 L218.02,344.64 C217.84,344.34 217.52,344.16 217.17,344.16 L194.95,344.16 C194.6,344.16 194.28,344.34 194.1,344.64 L188.06,354.98 C188.06,354.99 188.06,355 188.05,355.01 C188.26,355 224.31,355.07 224.260052,355 Z M208.42,345.75 L211.92,354.46 L200.2,354.46 L203.7,345.75 L208.42,345.75 Z M194.65,345.75 L201.53,345.75 L198.03,354.46 L189.33,354.46 L194.65,345.75 Z M213.3,354.46 L209.79,345.75 L216.68,345.75 L221.99,354.46 L213.3,354.46 Z" id="Shape" fill="#BFC5CA" fill-rule="nonzero"></path>
            <path d="M189.82,355.9 L199.01,355.9 L205.06,374.68 L189.82,355.9 Z M206.06,374.64 L200.08,356.06 L212.04,356.06 L206.06,374.64 Z M207.26,374.68 L213.3,355.9 L222.5,355.9 L207.26,374.68 Z" id="Shape" stroke="#3DE3E4" stroke-width="1.5" opacity="0.702" fill-rule="nonzero"></path>
            <path d="M347.17,107.88 C338.06,107.88 330.68,115.27 330.68,124.39 C330.68,133.5 338.06,140.88 347.17,140.88 C356.29,140.88 363.67,133.5 363.67,124.38 C363.67,115.27 356.29,107.88 347.17,107.88 Z M347.17,139.97 C338.6,139.97 331.6,132.97 331.6,124.39 C331.6,115.8 338.6,108.81 347.17,108.81 C355.75,108.81 362.75,115.8 362.75,124.39 C362.75,132.97 355.8,139.97 347.17,139.97 Z" id="Shape" fill="#BFC5CA" fill-rule="nonzero"></path>
            <path d="M354.61,123.26 C354.56,123.26 354.56,123.22 354.52,123.22 L345.36,117.95 C345.06,117.77 344.8,117.69 344.5,117.69 C343.9,117.69 343.25,118.16 343.25,119.2 L343.25,129.56 C343.29,130.6 343.9,131.08 344.54,131.08 C344.85,131.08 345.15,130.99 345.45,130.82 L354.22,125.76 C354.86,125.42 355.17,124.94 355.21,124.42 C355.26,124.21 355.17,123.69 354.61,123.26 Z M344.85,129.35 L344.85,119.5 L353.36,124.43 L344.85,129.35 Z" id="Shape" stroke="#3CECEC" fill="#3CECEC" fill-rule="nonzero"></path>
            <polygon id="Path" fill="#506478" fill-rule="nonzero" opacity="0.2" points="212.49 307.45 211.21 308.77 204.6 302.06 202.79 302.04 196.07 308.65 194.81 307.31 203.72 298.54"></polygon>
            <polygon id="Path" fill="#506478" fill-rule="nonzero" opacity="0.2" points="194.82 127.73 196.1 126.41 202.71 133.13 204.53 133.14 211.24 126.54 212.5 127.88 203.59 136.65"></polygon>
            <polygon id="Path" fill="#506478" fill-rule="nonzero" opacity="0.2" points="127.65 166.18 125.91 166.78 129.19 175.61 128.44 177.26 119.61 180.54 120.29 182.25 132.01 177.9"></polygon>
            <polygon id="Path" fill="#506478" fill-rule="nonzero" opacity="0.2" points="133.65 274.26 131.91 273.66 135.19 264.83 134.44 263.18 125.61 259.9 126.29 258.19 138.01 262.54"></polygon>
            <polygon id="Path" fill="#506478" fill-rule="nonzero" opacity="0.2" points="278.06 169.18 279.8 169.78 276.53 178.61 277.28 180.26 286.11 183.54 285.43 185.25 273.71 180.9"></polygon>
            <polygon id="Path" fill="#506478" fill-rule="nonzero" opacity="0.2" points="276.06 274.26 277.8 273.66 274.53 264.83 275.28 263.18 284.11 259.9 283.43 258.19 271.71 262.54"></polygon>
            <path d="M189.430176,74.6313477 C189.430176,76.0034248 189.1543,77.1435501 188.602539,78.0517578 C188.050778,78.9599655 187.271978,79.5751937 186.266113,79.8974609 L188.814941,82.5488281 L187.005859,82.5488281 L184.918457,80.1318359 L184.515625,80.1464844 C182.938469,80.1464844 181.72144,79.6643115 180.864502,78.6999512 C180.007564,77.7355909 179.579102,76.3745205 179.579102,74.6166992 C179.579102,72.8735264 180.008785,71.5222216 180.868164,70.5627441 C181.727543,69.6032667 182.948234,69.1235352 184.530273,69.1235352 C186.068367,69.1235352 187.269527,69.6118115 188.133789,70.5883789 C188.998051,71.5649463 189.430176,72.9125891 189.430176,74.6313477 Z M180.897461,74.6313477 C180.897461,76.0815502 181.206296,77.1813927 181.823975,77.9309082 C182.441653,78.6804237 183.338861,79.0551758 184.515625,79.0551758 C185.702154,79.0551758 186.598142,78.6816444 187.203613,77.9345703 C187.809085,77.1874963 188.111816,76.0864331 188.111816,74.6313477 C188.111816,73.1909108 187.810306,72.0983924 187.207275,71.3537598 C186.604245,70.6091271 185.71192,70.2368164 184.530273,70.2368164 C183.343744,70.2368164 182.441653,70.6115685 181.823975,71.361084 C181.206296,72.1105995 180.897461,73.2006764 180.897461,74.6313477 Z M192.777344,71.9726562 L192.777344,77.1801758 C192.777344,77.8344759 192.926268,78.3227523 193.224121,78.6450195 C193.521974,78.9672868 193.988278,79.128418 194.623047,79.128418 C195.462895,79.128418 196.076902,78.8989281 196.465088,78.4399414 C196.853273,77.9809547 197.047363,77.2314505 197.047363,76.1914062 L197.047363,71.9726562 L198.263184,71.9726562 L198.263184,80 L197.259766,80 L197.083984,78.9233398 L197.018066,78.9233398 C196.769042,79.3188496 196.423586,79.621581 195.981689,79.831543 C195.539793,80.041505 195.035647,80.1464844 194.469238,80.1464844 C193.492671,80.1464844 192.761477,79.9145531 192.275635,79.4506836 C191.789792,78.9868141 191.546875,78.244634 191.546875,77.2241211 L191.546875,71.9726562 L192.777344,71.9726562 Z M205.777832,80 L205.536133,78.8574219 L205.477539,78.8574219 C205.077146,79.3603541 204.677981,79.7009268 204.280029,79.8791504 C203.882078,80.0573739 203.385257,80.1464844 202.789551,80.1464844 C201.993648,80.1464844 201.369875,79.9414083 200.918213,79.53125 C200.46655,79.1210917 200.240723,78.5376014 200.240723,77.7807617 C200.240723,76.1596599 201.537096,75.310059 204.129883,75.2319336 L205.492188,75.1879883 L205.492188,74.6899414 C205.492188,74.0600554 205.356691,73.5949722 205.085693,73.2946777 C204.814696,72.9943833 204.381351,72.8442383 203.785645,72.8442383 C203.116696,72.8442383 202.359868,73.0493144 201.515137,73.4594727 L201.141602,72.5292969 C201.537111,72.3144521 201.970457,72.1459967 202.44165,72.0239258 C202.912844,71.9018549 203.385252,71.8408203 203.858887,71.8408203 C204.815923,71.8408203 205.525144,72.0532205 205.986572,72.4780273 C206.448,72.9028342 206.678711,73.5839797 206.678711,74.5214844 L206.678711,80 L205.777832,80 Z M203.03125,79.1430664 C203.78809,79.1430664 204.382566,78.935549 204.814697,78.5205078 C205.246828,78.1054667 205.462891,77.5244178 205.462891,76.7773438 L205.462891,76.0522461 L204.24707,76.1035156 C203.280269,76.1376955 202.583254,76.2878405 202.156006,76.5539551 C201.728758,76.8200697 201.515137,77.2338839 201.515137,77.7954102 C201.515137,78.2348655 201.648192,78.5693348 201.914307,78.7988281 C202.180421,79.0283215 202.552732,79.1430664 203.03125,79.1430664 Z M210.399414,80 L209.183594,80 L209.183594,68.6035156 L210.399414,68.6035156 L210.399414,80 Z M214.193359,80 L212.977539,80 L212.977539,71.9726562 L214.193359,71.9726562 L214.193359,80 Z M212.875,69.7973633 C212.875,69.5190416 212.943359,69.3151862 213.080078,69.185791 C213.216798,69.0563958 213.387694,68.9916992 213.592773,68.9916992 C213.788087,68.9916992 213.956542,69.0576165 214.098145,69.1894531 C214.239747,69.3212897 214.310547,69.5239244 214.310547,69.7973633 C214.310547,70.0708021 214.239747,70.2746575 214.098145,70.4089355 C213.956542,70.5432136 213.788087,70.6103516 213.592773,70.6103516 C213.387694,70.6103516 213.216798,70.5432136 213.080078,70.4089355 C212.943359,70.2746575 212.875,70.0708021 212.875,69.7973633 Z M219.364258,79.1430664 C219.579103,79.1430664 219.78662,79.1271974 219.986816,79.095459 C220.187013,79.0637205 220.345703,79.0307619 220.462891,78.996582 L220.462891,79.9267578 C220.331054,79.9902347 220.136964,80.0427244 219.880615,80.0842285 C219.624266,80.1257326 219.393556,80.1464844 219.188477,80.1464844 C217.635734,80.1464844 216.859375,79.3286215 216.859375,77.6928711 L216.859375,72.9174805 L215.709473,72.9174805 L215.709473,72.331543 L216.859375,71.8261719 L217.37207,70.1123047 L218.075195,70.1123047 L218.075195,71.9726562 L220.404297,71.9726562 L220.404297,72.9174805 L218.075195,72.9174805 L218.075195,77.6416016 C218.075195,78.1250024 218.18994,78.4960925 218.419434,78.7548828 C218.648927,79.0136732 218.963865,79.1430664 219.364258,79.1430664 Z M220.79248,71.9726562 L222.096191,71.9726562 L223.854004,76.550293 L224.034669,77.0485449 C224.315431,77.8386125 224.494466,78.4269186 224.571777,78.8134766 L224.630371,78.8134766 L224.691025,78.593521 C224.752441,78.3825687 224.841037,78.1024759 224.956814,77.7532395 L225.330868,76.669838 C225.665373,75.7237178 226.22777,74.157997 227.018066,71.9726562 L228.321777,71.9726562 L224.87207,81.1132812 C224.530272,82.0166061 224.131106,82.6574688 223.674561,83.0358887 C223.218015,83.4143085 222.657718,83.6035156 221.993652,83.6035156 C221.622557,83.6035156 221.256349,83.5620121 220.89502,83.4790039 L220.89502,82.5048828 C221.163576,82.5634769 221.463866,82.5927734 221.795898,82.5927734 C222.630864,82.5927734 223.226561,82.1240281 223.583008,81.1865234 L224.029785,80.0439453 L220.79248,71.9726562 Z" id="Quality" fill="#7F8990" fill-rule="nonzero"></path>
            <path d="M35.2099609,176 L33.8769531,172.594238 L29.5849609,172.594238 L28.2666016,176 L27.0068359,176 L31.2402344,165.248047 L32.2875977,165.248047 L36.4990234,176 L35.2099609,176 Z M30.0244141,171.473633 L33.4887695,171.473633 L32.2436523,168.155762 C32.0825187,167.735838 31.9165048,167.220706 31.7456055,166.610352 C31.6381831,167.079104 31.484376,167.594235 31.2841797,168.155762 L30.0244141,171.473633 Z M40.3808594,175.143066 C40.5957042,175.143066 40.8032217,175.127197 41.003418,175.095459 C41.2036143,175.063721 41.3623041,175.030762 41.4794922,174.996582 L41.4794922,175.926758 C41.3476556,175.990235 41.1535657,176.042724 40.8972168,176.084229 C40.6408679,176.125733 40.4101573,176.146484 40.2050781,176.146484 C38.652336,176.146484 37.8759766,175.328621 37.8759766,173.692871 L37.8759766,168.91748 L36.7260742,168.91748 L36.7260742,168.331543 L37.8759766,167.826172 L38.3886719,166.112305 L39.0917969,166.112305 L39.0917969,167.972656 L41.4208984,167.972656 L41.4208984,168.91748 L39.0917969,168.91748 L39.0917969,173.641602 C39.0917969,174.125002 39.2065418,174.496092 39.4360352,174.754883 C39.6655285,175.013673 39.9804667,175.143066 40.3808594,175.143066 Z M45.6762695,175.143066 C45.8911144,175.143066 46.0986318,175.127197 46.2988281,175.095459 C46.4990244,175.063721 46.6577143,175.030762 46.7749023,174.996582 L46.7749023,175.926758 C46.6430657,175.990235 46.4489759,176.042724 46.192627,176.084229 C45.936278,176.125733 45.7055674,176.146484 45.5004883,176.146484 C43.9477461,176.146484 43.1713867,175.328621 43.1713867,173.692871 L43.1713867,168.91748 L42.0214844,168.91748 L42.0214844,168.331543 L43.1713867,167.826172 L43.684082,166.112305 L44.387207,166.112305 L44.387207,167.972656 L46.7163086,167.972656 L46.7163086,168.91748 L44.387207,168.91748 L44.387207,173.641602 C44.387207,174.125002 44.501952,174.496092 44.7314453,174.754883 C44.9609386,175.013673 45.2758769,175.143066 45.6762695,175.143066 Z M49.5947266,176 L48.3789062,176 L48.3789062,167.972656 L49.5947266,167.972656 L49.5947266,176 Z M48.2763672,165.797363 C48.2763672,165.519042 48.3447259,165.315186 48.4814453,165.185791 C48.6181647,165.056396 48.7890615,164.991699 48.9941406,164.991699 C49.1894541,164.991699 49.3579094,165.057617 49.4995117,165.189453 C49.641114,165.32129 49.7119141,165.523924 49.7119141,165.797363 C49.7119141,166.070802 49.641114,166.274658 49.4995117,166.408936 C49.3579094,166.543214 49.1894541,166.610352 48.9941406,166.610352 C48.7890615,166.610352 48.6181647,166.543214 48.4814453,166.408936 C48.3447259,166.274658 48.2763672,166.070802 48.2763672,165.797363 Z M54.765625,175.143066 C54.9804698,175.143066 55.1879873,175.127197 55.3881836,175.095459 C55.5883799,175.063721 55.7470697,175.030762 55.8642578,174.996582 L55.8642578,175.926758 C55.7324212,175.990235 55.5383314,176.042724 55.2819824,176.084229 C55.0256335,176.125733 54.7949229,176.146484 54.5898438,176.146484 C53.0371016,176.146484 52.2607422,175.328621 52.2607422,173.692871 L52.2607422,168.91748 L51.1108398,168.91748 L51.1108398,168.331543 L52.2607422,167.826172 L52.7734375,166.112305 L53.4765625,166.112305 L53.4765625,167.972656 L55.8056641,167.972656 L55.8056641,168.91748 L53.4765625,168.91748 L53.4765625,173.641602 C53.4765625,174.125002 53.5913074,174.496092 53.8208008,174.754883 C54.0502941,175.013673 54.3652324,175.143066 54.765625,175.143066 Z M58.6108398,167.972656 L58.6108398,173.180176 C58.6108398,173.834476 58.7597641,174.322752 59.0576172,174.64502 C59.3554702,174.967287 59.8217742,175.128418 60.456543,175.128418 C61.2963909,175.128418 61.9103984,174.898928 62.298584,174.439941 C62.6867695,173.980955 62.8808594,173.231451 62.8808594,172.191406 L62.8808594,167.972656 L64.0966797,167.972656 L64.0966797,176 L63.0932617,176 L62.9174805,174.92334 L62.8515625,174.92334 C62.6025378,175.31885 62.2570823,175.621581 61.8151855,175.831543 C61.3732888,176.041505 60.8691435,176.146484 60.3027344,176.146484 C59.326167,176.146484 58.5949731,175.914553 58.1091309,175.450684 C57.6232886,174.986814 57.3803711,174.244634 57.3803711,173.224121 L57.3803711,167.972656 L58.6108398,167.972656 Z M72.1386719,174.92334 L72.0727539,174.92334 C71.5112277,175.738774 70.6713923,176.146484 69.5532227,176.146484 C68.5034127,176.146484 67.6867705,175.787601 67.1032715,175.069824 C66.5197725,174.352047 66.2280273,173.33155 66.2280273,172.008301 C66.2280273,170.685052 66.5209932,169.65723 67.1069336,168.924805 C67.692874,168.192379 68.5082956,167.826172 69.5532227,167.826172 C70.6420953,167.826172 71.4770479,168.221676 72.0581055,169.012695 L72.1533203,169.012695 L72.1020508,168.434082 L72.0727539,167.870117 L72.0727539,164.603516 L73.2885742,164.603516 L73.2885742,176 L72.2998047,176 L72.1386719,174.92334 Z M69.7070312,175.128418 C70.5371135,175.128418 71.1389141,174.90259 71.5124512,174.450928 C71.8859882,173.999265 72.0727539,173.270513 72.0727539,172.264648 L72.0727539,172.008301 C72.0727539,170.8706 71.8835468,170.05884 71.505127,169.572998 C71.1267071,169.087156 70.5224651,168.844238 69.6923828,168.844238 C68.9794886,168.844238 68.4338398,169.121335 68.0554199,169.675537 C67.6770001,170.229739 67.487793,171.012202 67.487793,172.022949 C67.487793,173.048345 67.6757794,173.822263 68.0517578,174.344727 C68.4277363,174.86719 68.9794885,175.128418 69.7070312,175.128418 Z M78.9428711,167.826172 C79.9487355,167.826172 80.744626,168.156979 81.3305664,168.818604 C81.9165068,169.480228 82.2094727,170.353022 82.2094727,171.437012 L82.2094727,172.206055 L76.6796875,172.206055 C76.7041017,173.148442 76.9421364,173.863767 77.3937988,174.352051 C77.8454612,174.840334 78.4814412,175.084473 79.3017578,175.084473 C80.1660199,175.084473 81.0205036,174.90381 81.8652344,174.54248 L81.8652344,175.626465 C81.4355447,175.812013 81.0290547,175.945068 80.645752,176.025635 C80.2624493,176.106202 79.7998074,176.146484 79.2578125,176.146484 C78.0712831,176.146484 77.1350132,175.78516 76.4489746,175.0625 C75.762936,174.33984 75.4199219,173.336432 75.4199219,172.052246 C75.4199219,170.758294 75.7385222,169.730473 76.3757324,168.96875 C77.0129426,168.207027 77.868647,167.826172 78.9428711,167.826172 Z M78.9282227,168.844238 C78.2836882,168.844238 77.7697773,169.054197 77.3864746,169.474121 C77.0031719,169.894045 76.7773441,170.475094 76.7089844,171.217285 L76.7089844,171.217285 L80.9057617,171.217285 C80.9057617,170.45068 80.734865,169.863527 80.3930664,169.455811 C80.0512678,169.048094 79.5629915,168.844238 78.9282227,168.844238 Z" id="Attitude" fill="#7F8990" fill-rule="nonzero"></path>
            <path d="M192.394775,395.291992 L193.735107,395.291992 L189.875244,406 L188.644775,406 L184.806885,395.291992 L186.125244,395.291992 L188.586182,402.220703 C188.869386,403.016606 189.093993,403.790524 189.26001,404.54248 C189.435792,403.751461 189.665282,402.962895 189.948486,402.176758 L192.394775,395.291992 Z M199.6604,406 L199.418701,404.857422 L199.360107,404.857422 C198.959715,405.360354 198.560549,405.700927 198.162598,405.87915 C197.764646,406.057374 197.267825,406.146484 196.672119,406.146484 C195.876217,406.146484 195.252444,405.941408 194.800781,405.53125 C194.349119,405.121092 194.123291,404.537601 194.123291,403.780762 C194.123291,402.15966 195.419665,401.310059 198.012451,401.231934 L199.374756,401.187988 L199.374756,400.689941 C199.374756,400.060055 199.239259,399.594972 198.968262,399.294678 C198.697264,398.994383 198.263919,398.844238 197.668213,398.844238 C196.999264,398.844238 196.242436,399.049314 195.397705,399.459473 L195.02417,398.529297 C195.41968,398.314452 195.853025,398.145997 196.324219,398.023926 C196.795413,397.901855 197.26782,397.84082 197.741455,397.84082 C198.698491,397.84082 199.407713,398.053221 199.869141,398.478027 C200.330569,398.902834 200.561279,399.58398 200.561279,400.521484 L200.561279,406 L199.6604,406 Z M196.913818,405.143066 C197.670658,405.143066 198.265135,404.935549 198.697266,404.520508 C199.129397,404.105467 199.345459,403.524418 199.345459,402.777344 L199.345459,402.052246 L198.129639,402.103516 C197.162837,402.137695 196.465822,402.28784 196.038574,402.553955 C195.611326,402.82007 195.397705,403.233884 195.397705,403.79541 C195.397705,404.234865 195.53076,404.569335 195.796875,404.798828 C196.06299,405.028321 196.4353,405.143066 196.913818,405.143066 Z M204.281982,406 L203.066162,406 L203.066162,394.603516 L204.281982,394.603516 L204.281982,406 Z M208.002686,397.972656 L208.002686,403.180176 C208.002686,403.834476 208.15161,404.322752 208.449463,404.64502 C208.747316,404.967287 209.21362,405.128418 209.848389,405.128418 C210.688237,405.128418 211.302244,404.898928 211.69043,404.439941 C212.078615,403.980955 212.272705,403.231451 212.272705,402.191406 L212.272705,397.972656 L213.488525,397.972656 L213.488525,406 L212.485107,406 L212.309326,404.92334 L212.243408,404.92334 C211.994384,405.31885 211.648928,405.621581 211.207031,405.831543 C210.765135,406.041505 210.260989,406.146484 209.69458,406.146484 C208.718013,406.146484 207.986819,405.914553 207.500977,405.450684 C207.015134,404.986814 206.772217,404.244634 206.772217,403.224121 L206.772217,397.972656 L208.002686,397.972656 Z M219.142822,397.826172 C220.148687,397.826172 220.944577,398.156979 221.530518,398.818604 C222.116458,399.480228 222.409424,400.353022 222.409424,401.437012 L222.409424,402.206055 L216.879639,402.206055 C216.904053,403.148442 217.142088,403.863767 217.59375,404.352051 C218.045412,404.840334 218.681392,405.084473 219.501709,405.084473 C220.365971,405.084473 221.220455,404.90381 222.065186,404.54248 L222.065186,405.626465 C221.635496,405.812013 221.229006,405.945068 220.845703,406.025635 C220.4624,406.106202 219.999759,406.146484 219.457764,406.146484 C218.271234,406.146484 217.334964,405.78516 216.648926,405.0625 C215.962887,404.33984 215.619873,403.336432 215.619873,402.052246 C215.619873,400.758294 215.938473,399.730473 216.575684,398.96875 C217.212894,398.207027 218.068598,397.826172 219.142822,397.826172 Z M219.128174,398.844238 C218.483639,398.844238 217.969728,399.054197 217.586426,399.474121 C217.203123,399.894045 216.977295,400.475094 216.908936,401.217285 L216.908936,401.217285 L221.105713,401.217285 C221.105713,400.45068 220.934816,399.863527 220.593018,399.455811 C220.251219,399.048094 219.762943,398.844238 219.128174,398.844238 Z" id="Value" fill="#7F8990" fill-rule="nonzero"></path>
            <text id="On-time-delivery" font-family="OpenSans-Regular, Open Sans" font-size="15" font-weight="normal" fill="#7F8990">
                <tspan x="313.413574" y="321">On-time</tspan>
                <tspan x="314.596436" y="341">delivery</tspan>
            </text>
            <path d="M54.6965332,336.150879 C54.6965332,337.093266 54.3547397,337.828122 53.6711426,338.355469 C52.9875454,338.882815 52.0598203,339.146484 50.8879395,339.146484 C49.6184019,339.146484 48.6418491,338.982912 47.958252,338.655762 L47.958252,337.45459 C48.3977073,337.640138 48.8762181,337.786621 49.3937988,337.894043 C49.9113795,338.001465 50.4240697,338.055176 50.9318848,338.055176 C51.761967,338.055176 52.3869608,337.897707 52.8068848,337.582764 C53.2268087,337.267821 53.4367676,336.829593 53.4367676,336.268066 C53.4367676,335.896971 53.3623054,335.593019 53.2133789,335.356201 C53.0644524,335.119384 52.8154314,334.90088 52.4663086,334.700684 C52.1608261,334.525512 51.7160935,334.329781 51.1321001,334.113488 L50.873291,334.019531 C49.8771923,333.663084 49.1655295,333.240725 48.7382812,332.752441 C48.311033,332.264158 48.0974121,331.626957 48.0974121,330.84082 C48.0974121,330.015621 48.4074676,329.358889 49.0275879,328.870605 C49.6477082,328.382322 50.4680125,328.138184 51.4885254,328.138184 C52.5529838,328.138184 53.531978,328.333494 54.4255371,328.724121 L54.0373535,329.808105 C53.15356,329.43701 52.2941936,329.251465 51.4592285,329.251465 C50.8000455,329.251465 50.284914,329.393065 49.9138184,329.67627 C49.5427228,329.959474 49.3571777,330.352537 49.3571777,330.855469 C49.3571777,331.226564 49.4255364,331.530516 49.5622559,331.767334 C49.6989753,332.004152 49.9296859,332.221435 50.2543945,332.419189 C50.497926,332.567506 50.8382708,332.727493 51.2754352,332.899154 L51.744873,333.074707 C52.8679255,333.4751 53.6406229,333.904783 54.0629883,334.36377 C54.4853537,334.822756 54.6965332,335.418453 54.6965332,336.150879 Z M60.0944824,339.146484 C58.9079531,339.146484 57.9716831,338.78516 57.2856445,338.0625 C56.5996059,337.33984 56.2565918,336.336432 56.2565918,335.052246 C56.2565918,333.758294 56.5751921,332.730473 57.2124023,331.96875 C57.8496126,331.207027 58.7053169,330.826172 59.779541,330.826172 C60.7854054,330.826172 61.5812959,331.156979 62.1672363,331.818604 C62.7531768,332.480228 63.0461426,333.353022 63.0461426,334.437012 L63.0461426,335.206055 L57.5163574,335.206055 C57.5407716,336.148442 57.7788063,336.863767 58.2304688,337.352051 C58.6821312,337.840334 59.3181111,338.084473 60.1384277,338.084473 C61.0026899,338.084473 61.8571735,337.90381 62.7019043,337.54248 L62.7019043,338.626465 C62.2722146,338.812013 61.8657246,338.945068 61.4824219,339.025635 C61.0991192,339.106202 60.6364773,339.146484 60.0944824,339.146484 Z M59.7648926,331.844238 C59.1203581,331.844238 58.6064472,332.054197 58.2231445,332.474121 C57.8398418,332.894045 57.614014,333.475094 57.5456543,334.217285 L61.7424316,334.217285 C61.7424316,333.45068 61.5715349,332.863527 61.2297363,332.455811 C60.8879377,332.048094 60.3996614,331.844238 59.7648926,331.844238 Z M68.7810059,330.826172 C69.137453,330.826172 69.457274,330.855468 69.7404785,330.914062 L69.5720215,332.041992 C69.2399886,331.96875 68.9470228,331.932129 68.6931152,331.932129 C68.0436979,331.932129 67.4882836,332.195798 67.0268555,332.723145 C66.5654274,333.250491 66.3347168,333.907223 66.3347168,334.693359 L66.3347168,339 L65.1188965,339 L65.1188965,330.972656 L66.1223145,330.972656 L66.2614746,332.459473 L66.3200684,332.459473 C66.6179214,331.937009 66.9768045,331.534181 67.3967285,331.250977 C67.8166525,330.967772 68.2780737,330.826172 68.7810059,330.826172 Z M72.9997559,339 L69.9528809,330.972656 L71.2565918,330.972656 L72.9851074,335.733398 L73.2297978,336.441726 C73.4730719,337.159414 73.6209996,337.645957 73.673584,337.901367 L73.7321777,337.901367 C73.7761233,337.68963 73.8976981,337.2924 74.0969052,336.70967 L74.9783942,334.236666 C75.2922826,333.368409 75.6874233,332.280407 76.1638184,330.972656 L77.4675293,330.972656 L74.4206543,339 L72.9997559,339 Z M79.9724121,339 L78.7565918,339 L78.7565918,330.972656 L79.9724121,330.972656 L79.9724121,339 Z M78.6540527,328.797363 C78.6540527,328.519042 78.7224114,328.315186 78.8591309,328.185791 C78.9958503,328.056396 79.166747,327.991699 79.3718262,327.991699 C79.5671396,327.991699 79.735595,328.057617 79.8771973,328.189453 C80.0187995,328.32129 80.0895996,328.523924 80.0895996,328.797363 C80.0895996,329.070802 80.0187995,329.274658 79.8771973,329.408936 C79.735595,329.543214 79.5671396,329.610352 79.3718262,329.610352 C79.166747,329.610352 78.9958503,329.543214 78.8591309,329.408936 C78.7224114,329.274658 78.6540527,329.070802 78.6540527,328.797363 Z M85.7585449,339.146484 C84.5964297,339.146484 83.6967805,338.788822 83.0595703,338.073486 C82.4223601,337.358151 82.1037598,336.346198 82.1037598,335.037598 C82.1037598,333.694818 82.4272429,332.65723 83.0742188,331.924805 C83.7211946,331.192379 84.6428163,330.826172 85.8391113,330.826172 C86.2248554,330.826172 86.6105938,330.867675 86.9963379,330.950684 C87.382082,331.033692 87.6848134,331.131347 87.904541,331.243652 L87.5310059,332.276367 C87.2624498,332.168945 86.969484,332.079834 86.6520996,332.009033 C86.3347152,331.938232 86.0539563,331.902832 85.8098145,331.902832 C84.1789469,331.902832 83.3635254,332.942861 83.3635254,335.022949 C83.3635254,336.009282 83.562498,336.766111 83.9604492,337.293457 C84.3584004,337.820803 84.9479941,338.084473 85.729248,338.084473 C86.3981967,338.084473 87.084225,337.940431 87.7873535,337.652344 L87.7873535,338.729004 C87.2502415,339.007326 86.5739787,339.146484 85.7585449,339.146484 Z M92.7678223,330.826172 C93.7736867,330.826172 94.5695771,331.156979 95.1555176,331.818604 C95.741458,332.480228 96.0344238,333.353022 96.0344238,334.437012 L96.0344238,335.206055 L90.5046387,335.206055 C90.5290529,336.148442 90.7670876,336.863767 91.21875,337.352051 C91.6704124,337.840334 92.3063924,338.084473 93.126709,338.084473 C93.9909711,338.084473 94.8454548,337.90381 95.6901855,337.54248 L95.6901855,338.626465 C95.2604959,338.812013 94.8540058,338.945068 94.4707031,339.025635 C94.0874004,339.106202 93.6247586,339.146484 93.0827637,339.146484 C91.8962343,339.146484 90.9599644,338.78516 90.2739258,338.0625 C89.5878872,337.33984 89.244873,336.336432 89.244873,335.052246 C89.244873,333.758294 89.5634734,332.730473 90.2006836,331.96875 C90.8378938,331.207027 91.6935981,330.826172 92.7678223,330.826172 Z M92.7531738,331.844238 C92.1086394,331.844238 91.5947285,332.054197 91.2114258,332.474121 C90.8281231,332.894045 90.6022953,333.475094 90.5339355,334.217285 L90.5339355,334.217285 L94.7307129,334.217285 C94.7307129,333.45068 94.5598162,332.863527 94.2180176,332.455811 C93.876219,332.048094 93.3879426,331.844238 92.7531738,331.844238 Z" id="Service" fill="#7F8990" fill-rule="nonzero"></path>
            <path d="M305.913086,159.546875 L305.913086,164 L304.667969,164 L304.667969,153.291992 L307.60498,153.291992 C308.918464,153.291992 309.888913,153.543455 310.516357,154.046387 C311.143802,154.549319 311.45752,155.306147 311.45752,156.316895 C311.45752,157.732917 310.739753,158.689939 309.304199,159.187988 L312.211914,164 L310.739746,164 L308.146973,159.546875 L305.913086,159.546875 Z M305.913086,158.477539 L307.619629,158.477539 C308.49854,158.477539 309.143064,158.30298 309.553223,157.953857 C309.963381,157.604735 310.168457,157.081058 310.168457,156.382812 C310.168457,155.674801 309.959719,155.164552 309.542236,154.852051 C309.124754,154.539549 308.454594,154.383301 307.531738,154.383301 L305.913086,154.383301 L305.913086,158.477539 Z M317.148438,164.146484 C315.961908,164.146484 315.025638,163.78516 314.3396,163.0625 C313.653561,162.33984 313.310547,161.336432 313.310547,160.052246 C313.310547,158.758294 313.629147,157.730473 314.266357,156.96875 C314.903568,156.207027 315.759272,155.826172 316.833496,155.826172 C317.83936,155.826172 318.635251,156.156979 319.221191,156.818604 C319.807132,157.480228 320.100098,158.353022 320.100098,159.437012 L320.100098,160.206055 L314.570312,160.206055 C314.594727,161.148442 314.832761,161.863767 315.284424,162.352051 C315.736086,162.840334 316.372066,163.084473 317.192383,163.084473 C318.056645,163.084473 318.911129,162.90381 319.755859,162.54248 L319.755859,163.626465 C319.32617,163.812013 318.91968,163.945068 318.536377,164.025635 C318.153074,164.106202 317.690432,164.146484 317.148438,164.146484 Z M316.818848,156.844238 C316.174313,156.844238 315.660402,157.054197 315.2771,157.474121 C314.893797,157.894045 314.667969,158.475094 314.599609,159.217285 L318.796387,159.217285 C318.796387,158.45068 318.62549,157.863527 318.283691,157.455811 C317.941893,157.048094 317.453616,156.844238 316.818848,156.844238 Z M325.380859,164.146484 C324.218744,164.146484 323.319095,163.788822 322.681885,163.073486 C322.044675,162.358151 321.726074,161.346198 321.726074,160.037598 C321.726074,158.694818 322.049557,157.65723 322.696533,156.924805 C323.343509,156.192379 324.265131,155.826172 325.461426,155.826172 C325.84717,155.826172 326.232908,155.867675 326.618652,155.950684 C327.004396,156.033692 327.307128,156.131347 327.526855,156.243652 L327.15332,157.276367 C326.884764,157.168945 326.591798,157.079834 326.274414,157.009033 C325.95703,156.938232 325.676271,156.902832 325.432129,156.902832 C323.801261,156.902832 322.98584,157.942861 322.98584,160.022949 C322.98584,161.009282 323.184812,161.766111 323.582764,162.293457 C323.980715,162.820803 324.570309,163.084473 325.351562,163.084473 C326.020511,163.084473 326.706539,162.940431 327.409668,162.652344 L327.409668,163.729004 C326.872556,164.007326 326.196293,164.146484 325.380859,164.146484 Z M336.242676,159.979004 C336.242676,161.287604 335.913089,162.309322 335.253906,163.044189 C334.594723,163.779056 333.684088,164.146484 332.521973,164.146484 C331.804196,164.146484 331.166995,163.978029 330.610352,163.641113 C330.053708,163.304198 329.624025,162.820804 329.321289,162.190918 C329.018553,161.561032 328.867188,160.823735 328.867188,159.979004 C328.867188,158.670404 329.194333,157.651127 329.848633,156.921143 C330.502933,156.191158 331.411127,155.826172 332.573242,155.826172 C333.696295,155.826172 334.58862,156.199703 335.250244,156.946777 C335.911869,157.693851 336.242676,158.704583 336.242676,159.979004 Z M330.126953,159.979004 C330.126953,161.0044 330.332029,161.785642 330.742188,162.322754 C331.152346,162.859866 331.755367,163.128418 332.55127,163.128418 C333.347172,163.128418 333.951414,162.861087 334.364014,162.326416 C334.776613,161.791745 334.98291,161.009282 334.98291,159.979004 C334.98291,158.958491 334.776613,158.183352 334.364014,157.653564 C333.951414,157.123777 333.342289,156.858887 332.536621,156.858887 C331.740719,156.858887 331.140139,157.120115 330.734863,157.642578 C330.329588,158.165042 330.126953,158.943842 330.126953,159.979004 Z M348.605957,164 L348.605957,158.777832 C348.605957,158.13818 348.46924,157.658449 348.195801,157.338623 C347.922362,157.018797 347.497561,156.858887 346.921387,156.858887 C346.164547,156.858887 345.605471,157.07617 345.244141,157.510742 C344.882811,157.945315 344.702148,158.614253 344.702148,159.517578 L344.702148,164 L343.486328,164 L343.486328,158.777832 C343.486328,158.13818 343.349611,157.658449 343.076172,157.338623 C342.802733,157.018797 342.375491,156.858887 341.794434,156.858887 C341.032711,156.858887 340.474855,157.087156 340.12085,157.543701 C339.766844,158.000246 339.589844,158.74853 339.589844,159.788574 L339.589844,164 L338.374023,164 L338.374023,155.972656 L339.362793,155.972656 L339.560547,157.071289 L339.619141,157.071289 C339.848634,156.680662 340.172117,156.375489 340.5896,156.155762 C341.007082,155.936034 341.474607,155.826172 341.992188,155.826172 C343.247077,155.826172 344.067381,156.280269 344.453125,157.188477 L344.511719,157.188477 C344.750978,156.768553 345.097654,156.436525 345.551758,156.192383 C346.005862,155.948241 346.523435,155.826172 347.104492,155.826172 C348.0127,155.826172 348.692625,156.059324 349.144287,156.525635 C349.59595,156.991946 349.821777,157.737788 349.821777,158.763184 L349.821777,164 L348.605957,164 Z M362.558594,164 L362.558594,158.777832 C362.558594,158.13818 362.421876,157.658449 362.148438,157.338623 C361.874999,157.018797 361.450198,156.858887 360.874023,156.858887 C360.117184,156.858887 359.558107,157.07617 359.196777,157.510742 C358.835447,157.945315 358.654785,158.614253 358.654785,159.517578 L358.654785,164 L357.438965,164 L357.438965,158.777832 C357.438965,158.13818 357.302247,157.658449 357.028809,157.338623 C356.75537,157.018797 356.328128,156.858887 355.74707,156.858887 C354.985348,156.858887 354.427492,157.087156 354.073486,157.543701 C353.719481,158.000246 353.54248,158.74853 353.54248,159.788574 L353.54248,164 L352.32666,164 L352.32666,155.972656 L353.31543,155.972656 L353.513184,157.071289 L353.571777,157.071289 C353.801271,156.680662 354.124754,156.375489 354.542236,156.155762 C354.959719,155.936034 355.427244,155.826172 355.944824,155.826172 C357.199713,155.826172 358.020018,156.280269 358.405762,157.188477 L358.464355,157.188477 C358.703614,156.768553 359.050291,156.436525 359.504395,156.192383 C359.958498,155.948241 360.476071,155.826172 361.057129,155.826172 C361.965337,155.826172 362.645261,156.059324 363.096924,156.525635 C363.548586,156.991946 363.774414,157.737788 363.774414,158.763184 L363.774414,164 L362.558594,164 Z M369.67041,164.146484 C368.483881,164.146484 367.547611,163.78516 366.861572,163.0625 C366.175534,162.33984 365.83252,161.336432 365.83252,160.052246 C365.83252,158.758294 366.15112,157.730473 366.78833,156.96875 C367.42554,156.207027 368.281245,155.826172 369.355469,155.826172 C370.361333,155.826172 371.157224,156.156979 371.743164,156.818604 C372.329104,157.480228 372.62207,158.353022 372.62207,159.437012 L372.62207,160.206055 L367.092285,160.206055 C367.116699,161.148442 367.354734,161.863767 367.806396,162.352051 C368.258059,162.840334 368.894039,163.084473 369.714355,163.084473 C370.578618,163.084473 371.433101,162.90381 372.277832,162.54248 L372.277832,163.626465 C371.848142,163.812013 371.441652,163.945068 371.05835,164.025635 C370.675047,164.106202 370.212405,164.146484 369.67041,164.146484 Z M369.34082,156.844238 C368.696286,156.844238 368.182375,157.054197 367.799072,157.474121 C367.41577,157.894045 367.189942,158.475094 367.121582,159.217285 L371.318359,159.217285 C371.318359,158.45068 371.147463,157.863527 370.805664,157.455811 C370.463865,157.048094 369.975589,156.844238 369.34082,156.844238 Z M380.187988,164 L380.187988,158.807129 C380.187988,158.152829 380.039064,157.664552 379.741211,157.342285 C379.443358,157.020018 378.977054,156.858887 378.342285,156.858887 C377.502437,156.858887 376.887209,157.085935 376.496582,157.540039 C376.105955,157.994143 375.910645,158.743647 375.910645,159.788574 L375.910645,164 L374.694824,164 L374.694824,155.972656 L375.683594,155.972656 L375.881348,157.071289 L375.939941,157.071289 C376.188966,156.675779 376.538084,156.369386 376.987305,156.1521 C377.436526,155.934813 377.937009,155.826172 378.48877,155.826172 C379.455571,155.826172 380.183103,156.059324 380.671387,156.525635 C381.15967,156.991946 381.403809,157.737788 381.403809,158.763184 L381.403809,164 L380.187988,164 Z M389.365234,162.92334 L389.299316,162.92334 C388.73779,163.738774 387.897955,164.146484 386.779785,164.146484 C385.729975,164.146484 384.913333,163.787601 384.329834,163.069824 C383.746335,162.352047 383.45459,161.33155 383.45459,160.008301 C383.45459,158.685052 383.747556,157.65723 384.333496,156.924805 C384.919437,156.192379 385.734858,155.826172 386.779785,155.826172 C387.868658,155.826172 388.70361,156.221676 389.284668,157.012695 L389.379883,157.012695 L389.328613,156.434082 L389.299316,155.870117 L389.299316,152.603516 L390.515137,152.603516 L390.515137,164 L389.526367,164 L389.365234,162.92334 Z M386.933594,163.128418 C387.763676,163.128418 388.365477,162.90259 388.739014,162.450928 C389.112551,161.999265 389.299316,161.270513 389.299316,160.264648 L389.299316,160.008301 C389.299316,158.8706 389.110109,158.05884 388.731689,157.572998 C388.35327,157.087156 387.749028,156.844238 386.918945,156.844238 C386.206051,156.844238 385.660402,157.121335 385.281982,157.675537 C384.903563,158.229739 384.714355,159.012202 384.714355,160.022949 C384.714355,161.048345 384.902342,161.822263 385.27832,162.344727 C385.654299,162.86719 386.206051,163.128418 386.933594,163.128418 Z M328.728027,184 L328.486328,182.857422 L328.427734,182.857422 C328.027342,183.360354 327.628176,183.700927 327.230225,183.87915 C326.832273,184.057374 326.335452,184.146484 325.739746,184.146484 C324.943844,184.146484 324.320071,183.941408 323.868408,183.53125 C323.416746,183.121092 323.190918,182.537601 323.190918,181.780762 C323.190918,180.15966 324.487292,179.310059 327.080078,179.231934 L328.442383,179.187988 L328.442383,178.689941 C328.442383,178.060055 328.306886,177.594972 328.035889,177.294678 C327.764891,176.994383 327.331546,176.844238 326.73584,176.844238 C326.066891,176.844238 325.310063,177.049314 324.465332,177.459473 L324.091797,176.529297 C324.487307,176.314452 324.920652,176.145997 325.391846,176.023926 C325.863039,175.901855 326.335447,175.84082 326.809082,175.84082 C327.766118,175.84082 328.475339,176.053221 328.936768,176.478027 C329.398196,176.902834 329.628906,177.58398 329.628906,178.521484 L329.628906,184 L328.728027,184 Z M325.981445,183.143066 C326.738285,183.143066 327.332762,182.935549 327.764893,182.520508 C328.197024,182.105467 328.413086,181.524418 328.413086,180.777344 L328.413086,180.052246 L327.197266,180.103516 C326.230464,180.137695 325.533449,180.28784 325.106201,180.553955 C324.678953,180.82007 324.465332,181.233884 324.465332,181.79541 C324.465332,182.234865 324.598387,182.569335 324.864502,182.798828 C325.130617,183.028321 325.502927,183.143066 325.981445,183.143066 Z M335.341797,184.146484 C334.179682,184.146484 333.280032,183.788822 332.642822,183.073486 C332.005612,182.358151 331.687012,181.346198 331.687012,180.037598 C331.687012,178.694818 332.010495,177.65723 332.657471,176.924805 C333.304447,176.192379 334.226068,175.826172 335.422363,175.826172 C335.808107,175.826172 336.193846,175.867675 336.57959,175.950684 C336.965334,176.033692 337.268065,176.131347 337.487793,176.243652 L337.114258,177.276367 C336.845702,177.168945 336.552736,177.079834 336.235352,177.009033 C335.917967,176.938232 335.637208,176.902832 335.393066,176.902832 C333.762199,176.902832 332.946777,177.942861 332.946777,180.022949 C332.946777,181.009282 333.14575,181.766111 333.543701,182.293457 C333.941652,182.820803 334.531246,183.084473 335.3125,183.084473 C335.981449,183.084473 336.667477,182.940431 337.370605,182.652344 L337.370605,183.729004 C336.833493,184.007326 336.157231,184.146484 335.341797,184.146484 Z M341.867676,183.143066 C342.082521,183.143066 342.290038,183.127197 342.490234,183.095459 C342.690431,183.063721 342.849121,183.030762 342.966309,182.996582 L342.966309,183.926758 C342.834472,183.990235 342.640382,184.042724 342.384033,184.084229 C342.127684,184.125733 341.896974,184.146484 341.691895,184.146484 C340.139152,184.146484 339.362793,183.328621 339.362793,181.692871 L339.362793,176.91748 L338.212891,176.91748 L338.212891,176.331543 L339.362793,175.826172 L339.875488,174.112305 L340.578613,174.112305 L340.578613,175.972656 L342.907715,175.972656 L342.907715,176.91748 L340.578613,176.91748 L340.578613,181.641602 C340.578613,182.125002 340.693358,182.496092 340.922852,182.754883 C341.152345,183.013673 341.467283,183.143066 341.867676,183.143066 Z M345.786133,184 L344.570312,184 L344.570312,175.972656 L345.786133,175.972656 L345.786133,184 Z M344.467773,173.797363 C344.467773,173.519042 344.536132,173.315186 344.672852,173.185791 C344.809571,173.056396 344.980468,172.991699 345.185547,172.991699 C345.38086,172.991699 345.549316,173.057617 345.690918,173.189453 C345.83252,173.32129 345.90332,173.523924 345.90332,173.797363 C345.90332,174.070802 345.83252,174.274658 345.690918,174.408936 C345.549316,174.543214 345.38086,174.610352 345.185547,174.610352 C344.980468,174.610352 344.809571,174.543214 344.672852,174.408936 C344.536132,174.274658 344.467773,174.070802 344.467773,173.797363 Z M355.292969,179.979004 C355.292969,181.287604 354.963382,182.309322 354.304199,183.044189 C353.645016,183.779056 352.734381,184.146484 351.572266,184.146484 C350.854489,184.146484 350.217288,183.978029 349.660645,183.641113 C349.104001,183.304198 348.674318,182.820804 348.371582,182.190918 C348.068846,181.561032 347.91748,180.823735 347.91748,179.979004 C347.91748,178.670404 348.244626,177.651127 348.898926,176.921143 C349.553226,176.191158 350.46142,175.826172 351.623535,175.826172 C352.746588,175.826172 353.638913,176.199703 354.300537,176.946777 C354.962162,177.693851 355.292969,178.704583 355.292969,179.979004 Z M349.177246,179.979004 C349.177246,181.0044 349.382322,181.785642 349.79248,182.322754 C350.202639,182.859866 350.80566,183.128418 351.601562,183.128418 C352.397465,183.128418 353.001707,182.861087 353.414307,182.326416 C353.826906,181.791745 354.033203,181.009282 354.033203,179.979004 C354.033203,178.958491 353.826906,178.183352 353.414307,177.653564 C353.001707,177.123777 352.392582,176.858887 351.586914,176.858887 C350.791012,176.858887 350.190432,177.120115 349.785156,177.642578 C349.379881,178.165042 349.177246,178.943842 349.177246,179.979004 Z M362.91748,184 L362.91748,178.807129 C362.91748,178.152829 362.768556,177.664552 362.470703,177.342285 C362.17285,177.020018 361.706546,176.858887 361.071777,176.858887 C360.231929,176.858887 359.616701,177.085935 359.226074,177.540039 C358.835447,177.994143 358.640137,178.743647 358.640137,179.788574 L358.640137,184 L357.424316,184 L357.424316,175.972656 L358.413086,175.972656 L358.61084,177.071289 L358.669434,177.071289 C358.918458,176.675779 359.267576,176.369386 359.716797,176.1521 C360.166018,175.934813 360.666501,175.826172 361.218262,175.826172 C362.185063,175.826172 362.912595,176.059324 363.400879,176.525635 C363.889163,176.991946 364.133301,177.737788 364.133301,178.763184 L364.133301,184 L362.91748,184 Z M371.809082,181.810059 C371.809082,182.557133 371.530765,183.133299 370.974121,183.538574 C370.417478,183.94385 369.636235,184.146484 368.630371,184.146484 C367.565913,184.146484 366.735843,183.978029 366.140137,183.641113 L366.140137,182.513184 C366.525881,182.708497 366.939695,182.862304 367.381592,182.974609 C367.823489,183.086915 368.24951,183.143066 368.659668,183.143066 C369.294437,183.143066 369.782713,183.041749 370.124512,182.839111 C370.46631,182.636474 370.637207,182.327639 370.637207,181.912598 C370.637207,181.600096 370.50171,181.332765 370.230713,181.110596 C369.986815,180.910644 369.534292,180.678065 368.873133,180.412854 L368.64502,180.323242 C367.897945,180.04492 367.366945,179.802003 367.052002,179.594482 C366.737059,179.386962 366.502686,179.151369 366.348877,178.887695 C366.195068,178.624022 366.118164,178.309084 366.118164,177.942871 C366.118164,177.288571 366.384275,176.772219 366.916504,176.393799 C367.448733,176.015379 368.178706,175.826172 369.106445,175.826172 C369.970707,175.826172 370.815426,176.001951 371.640625,176.353516 L371.208496,177.342285 C370.402828,177.010252 369.672855,176.844238 369.018555,176.844238 C368.44238,176.844238 368.007814,176.934569 367.714844,177.115234 C367.421874,177.295899 367.275391,177.54492 367.275391,177.862305 C367.275391,178.07715 367.330322,178.260253 367.440186,178.411621 C367.550049,178.562989 367.72705,178.707031 367.971191,178.84375 C368.188206,178.965278 368.582686,179.13503 369.15464,179.353009 L369.377441,179.437012 C370.329595,179.783693 370.972899,180.132811 371.307373,180.484375 C371.641847,180.835939 371.809082,181.277829 371.809082,181.810059 Z" id="Recommendactions" fill="#7F8990" fill-rule="nonzero"></path>
        </g>
        <path d="M157.03125,224 L155.076172,219.004883 L148.78125,219.004883 L146.847656,224 L145,224 L151.208984,208.230469 L152.745117,208.230469 L158.921875,224 L157.03125,224 Z M149.425781,217.361328 L154.506836,217.361328 L152.680664,212.495117 C152.444335,211.879229 152.200848,211.123702 151.950195,210.228516 C151.792642,210.916019 151.567059,211.671545 151.273438,212.495117 L149.425781,217.361328 Z M168.826172,222.420898 L168.729492,222.420898 C167.90592,223.616868 166.674162,224.214844 165.03418,224.214844 C163.494458,224.214844 162.296717,223.688482 161.440918,222.635742 C160.585119,221.583003 160.157227,220.086273 160.157227,218.145508 C160.157227,216.204743 160.58691,214.697271 161.446289,213.623047 C162.305668,212.548823 163.50162,212.011719 165.03418,212.011719 C166.631193,212.011719 167.85579,212.591791 168.708008,213.751953 L168.847656,213.751953 L168.772461,212.90332 L168.729492,212.076172 L168.729492,207.285156 L170.512695,207.285156 L170.512695,224 L169.0625,224 L168.826172,222.420898 Z M165.259766,222.72168 C166.47722,222.72168 167.359861,222.390466 167.907715,221.728027 C168.455569,221.065589 168.729492,219.996752 168.729492,218.521484 L168.729492,218.145508 C168.729492,216.47688 168.451988,215.286299 167.896973,214.57373 C167.341957,213.861162 166.455735,213.504883 165.238281,213.504883 C164.192703,213.504883 163.392418,213.911292 162.837402,214.724121 C162.282387,215.536951 162.004883,216.684563 162.004883,218.166992 C162.004883,219.670906 162.280596,220.805986 162.832031,221.572266 C163.383466,222.338545 164.192703,222.72168 165.259766,222.72168 Z M189.300781,224 L189.300781,216.34082 C189.300781,215.402665 189.100262,214.699058 188.699219,214.22998 C188.298175,213.760903 187.675134,213.526367 186.830078,213.526367 C185.720047,213.526367 184.900068,213.845049 184.370117,214.482422 C183.840167,215.119795 183.575195,216.100905 183.575195,217.425781 L183.575195,224 L181.791992,224 L181.791992,216.34082 C181.791992,215.402665 181.591473,214.699058 181.19043,214.22998 C180.789386,213.760903 180.162765,213.526367 179.310547,213.526367 C178.193354,213.526367 177.375165,213.861162 176.855957,214.530762 C176.336749,215.200361 176.077148,216.297844 176.077148,217.823242 L176.077148,224 L174.293945,224 L174.293945,212.226562 L175.744141,212.226562 L176.03418,213.837891 L176.120117,213.837891 C176.456707,213.264971 176.931149,212.817384 177.543457,212.495117 C178.155765,212.17285 178.841468,212.011719 179.600586,212.011719 C181.44109,212.011719 182.644203,212.677728 183.209961,214.009766 L183.295898,214.009766 C183.646812,213.393877 184.15527,212.906903 184.821289,212.548828 C185.487308,212.190753 186.246415,212.011719 187.098633,212.011719 C188.430671,212.011719 189.427894,212.353675 190.090332,213.037598 C190.75277,213.72152 191.083984,214.815422 191.083984,216.319336 L191.083984,224 L189.300781,224 Z M196.541016,224 L194.757812,224 L194.757812,212.226562 L196.541016,212.226562 L196.541016,224 Z M194.607422,209.036133 C194.607422,208.627928 194.707681,208.32894 194.908203,208.13916 C195.108725,207.949381 195.359373,207.854492 195.660156,207.854492 C195.946616,207.854492 196.193684,207.951171 196.401367,208.144531 C196.609051,208.337892 196.712891,208.635089 196.712891,209.036133 C196.712891,209.437176 196.609051,209.736164 196.401367,209.933105 C196.193684,210.130047 195.946616,210.228516 195.660156,210.228516 C195.359373,210.228516 195.108725,210.130047 194.908203,209.933105 C194.707681,209.736164 194.607422,209.437176 194.607422,209.036133 Z M205.693359,212.011719 C206.216148,212.011719 206.685219,212.054687 207.100586,212.140625 L206.853516,213.794922 C206.366534,213.687499 205.936851,213.633789 205.564453,213.633789 C204.611974,213.633789 203.797367,214.020504 203.120605,214.793945 C202.443844,215.567387 202.105469,216.530593 202.105469,217.683594 L202.105469,224 L200.322266,224 L200.322266,212.226562 L201.793945,212.226562 L201.998047,214.407227 L202.083984,214.407227 C202.520836,213.640947 203.047197,213.050132 203.663086,212.634766 C204.278974,212.219399 204.955725,212.011719 205.693359,212.011719 Z M216.102539,224 L215.748047,222.324219 L215.662109,222.324219 C215.074867,223.061853 214.489423,223.561359 213.905762,223.822754 C213.3221,224.084148 212.593429,224.214844 211.719727,224.214844 C210.552403,224.214844 209.637536,223.914066 208.975098,223.3125 C208.312659,222.710934 207.981445,221.855149 207.981445,220.745117 C207.981445,218.367501 209.882793,217.12142 213.685547,217.006836 L215.683594,216.942383 L215.683594,216.211914 C215.683594,215.288081 215.484865,214.605959 215.087402,214.165527 C214.689939,213.725095 214.054366,213.504883 213.180664,213.504883 C212.199539,213.504883 211.089524,213.805661 209.850586,214.407227 L209.302734,213.042969 C209.882815,212.727863 210.518388,212.480795 211.209473,212.301758 C211.900557,212.12272 212.593421,212.033203 213.288086,212.033203 C214.691739,212.033203 215.73193,212.344723 216.408691,212.967773 C217.085453,213.590823 217.423828,214.589837 217.423828,215.964844 L217.423828,224 L216.102539,224 Z M212.074219,222.743164 C213.18425,222.743164 214.056149,222.438805 214.689941,221.830078 C215.323734,221.221351 215.640625,220.369146 215.640625,219.273438 L215.640625,218.209961 L213.857422,218.285156 C212.439446,218.335287 211.417158,218.555499 210.790527,218.945801 C210.163897,219.336102 209.850586,219.94303 209.850586,220.766602 C209.850586,221.411136 210.045734,221.901691 210.436035,222.238281 C210.826337,222.574871 211.372392,222.743164 212.074219,222.743164 Z M224.900391,222.743164 C225.215496,222.743164 225.519855,222.71989 225.813477,222.67334 C226.107098,222.62679 226.339843,222.578451 226.511719,222.52832 L226.511719,223.892578 C226.318358,223.985678 226.033693,224.062662 225.657715,224.123535 C225.281736,224.184408 224.943361,224.214844 224.642578,224.214844 C222.365223,224.214844 221.226562,223.015311 221.226562,220.616211 L221.226562,213.612305 L219.540039,213.612305 L219.540039,212.75293 L221.226562,212.011719 L221.978516,209.498047 L223.009766,209.498047 L223.009766,212.226562 L226.425781,212.226562 L226.425781,213.612305 L223.009766,213.612305 L223.009766,220.541016 C223.009766,221.250004 223.178058,221.794269 223.514648,222.173828 C223.851239,222.553387 224.313148,222.743164 224.900391,222.743164 Z M230.647461,224 L228.864258,224 L228.864258,212.226562 L230.647461,212.226562 L230.647461,224 Z M228.713867,209.036133 C228.713867,208.627928 228.814127,208.32894 229.014648,208.13916 C229.21517,207.949381 229.465819,207.854492 229.766602,207.854492 C230.053061,207.854492 230.300129,207.951171 230.507812,208.144531 C230.715496,208.337892 230.819336,208.635089 230.819336,209.036133 C230.819336,209.437176 230.715496,209.736164 230.507812,209.933105 C230.300129,210.130047 230.053061,210.228516 229.766602,210.228516 C229.465819,210.228516 229.21517,210.130047 229.014648,209.933105 C228.814127,209.736164 228.713867,209.437176 228.713867,209.036133 Z M244.59082,218.102539 C244.59082,220.021819 244.107427,221.52034 243.140625,222.598145 C242.173823,223.675949 240.838225,224.214844 239.133789,224.214844 C238.081049,224.214844 237.146488,223.967776 236.330078,223.473633 C235.513668,222.97949 234.883466,222.270512 234.439453,221.34668 C233.99544,220.422847 233.773438,219.341478 233.773438,218.102539 C233.773438,216.183259 234.25325,214.688319 235.212891,213.617676 C236.172531,212.547032 237.504549,212.011719 239.208984,212.011719 C240.856128,212.011719 242.164871,212.559565 243.135254,213.655273 C244.105636,214.750982 244.59082,216.233389 244.59082,218.102539 Z M235.621094,218.102539 C235.621094,219.606453 235.921872,220.752275 236.523438,221.540039 C237.125003,222.327803 238.009434,222.72168 239.176758,222.72168 C240.344081,222.72168 241.230303,222.329594 241.835449,221.54541 C242.440595,220.761227 242.743164,219.613614 242.743164,218.102539 C242.743164,216.605787 242.440595,215.468917 241.835449,214.691895 C241.230303,213.914872 240.33692,213.526367 239.155273,213.526367 C237.98795,213.526367 237.107099,213.909501 236.512695,214.675781 C235.918291,215.442061 235.621094,216.584302 235.621094,218.102539 Z M255.773438,224 L255.773438,216.383789 C255.773438,215.424149 255.555015,214.70801 255.118164,214.235352 C254.681313,213.762693 253.9974,213.526367 253.066406,213.526367 C251.834629,213.526367 250.932295,213.859372 250.359375,214.525391 C249.786455,215.19141 249.5,216.290682 249.5,217.823242 L249.5,224 L247.716797,224 L247.716797,212.226562 L249.166992,212.226562 L249.457031,213.837891 L249.542969,213.837891 C249.908205,213.25781 250.420244,212.808433 251.079102,212.489746 C251.737959,212.17106 252.472001,212.011719 253.28125,212.011719 C254.699226,212.011719 255.766272,212.353675 256.482422,213.037598 C257.198571,213.72152 257.556641,214.815422 257.556641,216.319336 L257.556641,224 L255.773438,224 Z" id="Admiration" fill="#000000" fill-rule="nonzero"></path>
    </g>
</svg>