<?xml version="1.0" encoding="UTF-8"?>
<svg width="245px" height="60px" viewBox="0 0 245 60" version="1.1" xmlns="http://www.w3.org/2000/svg" xmlns:xlink="http://www.w3.org/1999/xlink">
    <!-- Generator: Sketch 59.1 (86144) - https://sketch.com -->
    <title>android</title>
    <desc>Created with Sketch.</desc>
    <g id="android" stroke="none" stroke-width="1" fill="none" fill-rule="evenodd">
        <text id="Android-Developer" font-family="OpenSans-Bold, Open Sans" font-size="19" font-weight="bold" fill="#FFFFFF">
            <tspan x="64.4814453" y="37">Android</tspan>
            <tspan x="139.934082" y="37" font-family="OpenSans-Regular, Open Sans" font-weight="normal"> Developer</tspan>
        </text>
        <path d="M25.9949109,17.0126745 C26.300256,17.0126745 26.5716697,16.9114863 26.8091603,16.7091068 C27.0466509,16.5067273 27.148431,16.2537568 27.1145038,15.9501876 C27.0805766,15.6466184 26.9787964,15.3767832 26.8091603,15.1406738 C26.6395242,14.9045644 26.3681104,14.8033762 25.9949109,14.8371061 C25.6217115,14.870836 25.3672611,14.9720242 25.2315522,15.1406738 C25.0958433,15.3093233 24.9940631,15.5791586 24.9262087,15.9501876 C24.8583542,16.3212166 24.9601344,16.5741872 25.2315522,16.7091068 C25.50297,16.8440265 25.7574204,16.9452147 25.9949109,17.0126745 Z M38.0050891,17.0126745 C38.3104341,17.0126745 38.5648845,16.9114863 38.7684478,16.7091068 C38.9720112,16.5067273 39.0737913,16.2537568 39.0737913,15.9501876 C39.0737913,15.6466184 38.9720112,15.3767832 38.7684478,15.1406738 C38.5648845,14.9045644 38.3104341,14.8033762 38.0050891,14.8371061 C37.699744,14.870836 37.4283303,14.9720242 37.1908397,15.1406738 C36.9533491,15.3093233 36.851569,15.5791586 36.8854962,15.9501876 C36.9194234,16.3212166 37.0212036,16.5741872 37.1908397,16.7091068 C37.3604758,16.8440265 37.6318896,16.9452147 38.0050891,17.0126745 Z M14.9516539,22.2239197 C15.7319802,22.2239197 16.4105145,22.5106196 16.9872774,23.0840281 C17.5640402,23.6574366 17.8354539,24.3320247 17.8015267,25.1078127 L17.8015267,37.25052 C17.8015267,38.0600378 17.530113,38.7514906 16.9872774,39.3248991 C16.4444417,39.8983076 15.7659074,40.1850075 14.9516539,40.1850075 C14.1374005,40.1850075 13.4419028,39.8983076 12.8651399,39.3248991 C12.2883771,38.7514906 12,38.0600378 12,37.25052 L12,25.1078127 C12,24.3320247 12.2883771,23.6574366 12.8651399,23.0840281 C13.4419028,22.5106196 14.1374005,22.2239197 14.9516539,22.2239197 Z M45.0279898,22.7804604 L45.0279898,41.5510621 C45.0279898,42.4280398 44.7226494,43.1700867 44.1119593,43.7772251 C43.5012692,44.3843635 42.7718448,44.6879282 41.9236641,44.6879282 L39.7862595,44.6879282 L39.7862595,51.1134441 C39.7862595,51.922962 39.5148458,52.5975501 38.9720102,53.1372286 C38.4291746,53.6769072 37.7336768,53.9636072 36.8854962,53.9973371 C36.0373155,54.031067 35.3418178,53.744367 34.7989822,53.1372286 C34.2561466,52.5300902 33.9677695,51.8555021 33.9338422,51.1134441 L33.9338422,44.6879282 L30.0152672,44.6879282 L30.0152672,51.1134441 C30.0152672,51.922962 29.7438534,52.5975501 29.2010178,53.1372286 C28.6581822,53.6769072 27.9711662,53.9551748 27.1399491,53.9720398 C26.3087321,53.9889047 25.621716,53.7106371 25.0788804,53.1372286 C24.5360448,52.5638202 24.2476677,51.8892321 24.2137405,51.1134441 L24.1628499,44.6879282 L22.0763359,44.6879282 C21.194228,44.6879282 20.4648036,44.3843635 19.8880407,43.7772251 C19.3112779,43.1700867 19.0059374,42.4280398 18.9720102,41.5510621 L18.9720102,22.7804604 L45.0279898,22.7804604 Z M38.4631043,11.3460778 C40.4648107,12.3579751 42.0763298,13.7914748 43.2977099,15.6466199 C44.5190901,17.501765 45.129771,19.542394 45.129771,21.7685682 L18.870229,21.7685682 C18.870229,19.542394 19.4639466,17.501765 20.6513995,15.6466199 C21.8388524,13.7914748 23.4673349,12.3579751 25.5368957,11.3460778 L23.5521628,7.65267096 C23.4164539,7.38283167 23.4503807,7.18045524 23.653944,7.0455356 C23.9253618,6.94434587 24.1289221,7.01180468 24.264631,7.24791405 L26.3002545,10.9919155 C28.0983975,10.1823976 29.9982936,9.77764474 32,9.77764474 C34.0017064,9.77764474 35.9016025,10.1823976 37.6997455,10.9919155 L39.735369,7.24791405 C39.8710779,7.01180468 40.0576748,6.95277822 40.2951654,7.07083291 C40.532656,7.18888759 40.5835461,7.38283167 40.4478372,7.65267096 L38.4631043,11.3460778 Z M52,25.1078127 L52,37.25052 C52,38.0600378 51.7116229,38.7514906 51.1348601,39.3248991 C50.5580972,39.8983076 49.8710812,40.1850075 49.0737913,40.1850075 C48.2765015,40.1850075 47.5894855,39.8983076 47.0127226,39.3248991 C46.4359598,38.7514906 46.1475827,38.0600378 46.1475827,37.25052 L46.1475827,25.1078127 C46.1475827,24.2982948 46.4359598,23.6237067 47.0127226,23.0840281 C47.5894855,22.5443496 48.2765015,22.266082 49.0737913,22.249217 C49.8710812,22.232352 50.5580972,22.5106196 51.1348601,23.0840281 C51.7116229,23.6574366 52,24.3320247 52,25.1078127 Z" id="" fill="#D6D4D3" fill-rule="nonzero"></path>
    </g>
</svg>