<svg xmlns="http://www.w3.org/2000/svg" viewBox="0 0 901 633" width="901" height="633"><defs><clipPath clipPathUnits="userSpaceOnUse" id="cp1"><path d="M0 0L901 0L901 633L0 633Z" /></clipPath></defs><style>tspan { white-space:pre }.shp0 { fill: #d8d9da } .shp1 { fill: #f7fafb } .shp2 { fill: none;stroke: #d8d9da;stroke-linecap:round;stroke-linejoin:round;stroke-width: 6 } .shp3 { fill: none;stroke: #d8d9da;stroke-linecap:round;stroke-linejoin:round;stroke-width: 6;stroke-dasharray: 18,18 } .shp4 { fill: none;stroke: #d8d9da;stroke-linecap:round;stroke-linejoin:round;stroke-width: 6;stroke-dasharray: 24 } </style><g clip-path="url(#cp1)"><path class="shp0" d="M510.77 309.81C504.93 260.38 462.89 222.03 411.89 222.03C360.88 222.03 318.84 260.38 313 309.81C277.6 309.81 248.89 338.51 248.89 373.92C248.89 409.32 277.59 438.02 312.99 438.02L510.78 438.02C546.18 438.02 574.88 409.32 574.88 373.92C574.88 338.51 546.18 309.81 510.77 309.81Z" /><path class="shp1" d="M552.19 320.07C546.64 273.08 506.67 236.64 458.19 236.64C409.71 236.64 369.74 273.08 364.19 320.07C330.54 320.07 303.25 347.36 303.25 381.01C303.25 414.66 330.53 441.95 364.19 441.95L552.19 441.95C585.84 441.95 613.13 414.66 613.13 381.01C613.13 347.36 585.84 320.07 552.19 320.07Z" /><path fill-rule="evenodd" class="shp0" d="M628.95 383.16C628.95 416.29 602.09 443.15 568.96 443.15L383.89 443.15C350.76 443.15 323.9 416.29 323.9 383.16C323.9 350.03 350.76 323.18 383.89 323.18C389.35 276.92 428.7 241.04 476.42 241.04C524.15 241.04 563.49 276.92 568.96 323.18C602.09 323.18 628.95 350.03 628.95 383.16ZM418.44 33.94L386.55 69.63C385.55 67.82 384.93 65.77 384.93 63.56L384.93 13.05C384.93 10.59 385.67 8.3 386.89 6.35L418.44 33.94ZM479.96 74.24C478.03 75.46 475.76 76.18 473.3 76.18L397.55 76.18C395.1 76.18 392.83 75.46 390.9 74.24L423.19 38.11L433.35 47C433.95 47.52 434.69 47.78 435.43 47.78C436.17 47.78 436.91 47.52 437.51 47L447.67 38.11L479.96 74.24ZM391.54 2.02C393.33 1.03 395.36 0.43 397.55 0.43L473.3 0.43C475.49 0.43 477.52 1.03 479.32 2.02L435.43 40.43L391.54 2.02ZM485.93 63.56C485.93 65.77 485.31 67.82 484.31 69.63L452.42 33.95L483.96 6.35C485.19 8.3 485.93 10.59 485.93 13.05L485.93 63.56ZM169.03 141.39C174.48 141.24 179.83 140.46 184.99 139.01C187.79 145.46 189.36 152.4 189.57 159.55L169.03 159.55L169.03 141.39ZM170.02 114.29L170.91 113.6C183.1 114.45 194.1 119.51 202.29 127.3L201.16 128.12C196.71 131.04 191.9 133.32 186.89 134.98C182.97 127.1 177.25 120.04 170.02 114.29ZM183.56 135.98C178.86 137.25 173.99 137.96 169.03 138.09L169.03 117.81C175.17 122.96 180.09 129.13 183.56 135.98ZM192.99 162.85L217.01 162.85C216.62 173.78 212.39 183.79 205.58 191.66L204.09 190.6C199.35 187.35 194.22 184.83 188.85 182.96C191.38 176.61 192.8 169.83 192.99 162.85ZM132.28 127.35C140.48 119.54 151.51 114.45 163.72 113.6L164.61 114.29C157.38 120.04 151.66 127.1 147.74 134.98C142.73 133.32 137.92 131.04 133.47 128.12L132.28 127.35ZM165.6 138.09C160.64 137.96 155.77 137.25 151.07 135.98C154.54 129.14 159.45 122.96 165.6 117.81L165.6 138.09ZM145.78 182.96C140.41 184.83 135.26 187.36 130.51 190.62L129.05 191.66C122.23 183.79 118.01 173.78 117.62 162.85L141.64 162.85C141.83 169.83 143.25 176.6 145.78 182.96ZM141.64 159.55L117.62 159.55C118.02 148.17 122.59 137.8 129.91 129.78L131.53 130.84C136.15 133.87 141.15 136.24 146.35 138C143.45 144.76 141.85 152.05 141.64 159.55ZM149.64 139.01C154.79 140.46 160.15 141.24 165.6 141.39L165.6 159.55L145.06 159.55C145.27 152.4 146.84 145.46 149.64 139.01ZM163.26 208.77C150.75 207.8 139.54 202.36 131.35 194.12L132.53 193.28C137.06 190.18 141.96 187.76 147.1 186C150.99 194.37 156.85 201.88 164.43 207.97L163.26 208.77ZM149.03 181.91C146.62 175.9 145.27 169.47 145.06 162.85L165.6 162.85L165.6 179.38C159.93 179.52 154.38 180.37 149.03 181.91ZM203.28 194.13C195.09 202.36 183.88 207.8 171.37 208.77L170.19 207.97C177.77 201.91 183.64 194.39 187.54 186C192.66 187.77 197.55 190.17 202.07 193.26L203.28 194.13ZM204.65 129.71C212.01 137.73 216.61 148.14 217.01 159.56L192.99 159.56C192.78 152.05 191.17 144.76 188.28 138C193.5 136.24 198.51 133.85 203.17 130.79L204.65 129.71ZM150.36 184.97C155.28 183.58 160.39 182.81 165.6 182.66L165.6 204.59C159.02 199.09 153.87 192.39 150.36 184.97ZM185.6 181.91C180.26 180.37 174.7 179.52 169.03 179.38L169.03 162.85L189.57 162.85C189.36 169.47 188.01 175.9 185.6 181.91ZM169.03 204.6L169.03 182.66C174.24 182.81 179.36 183.58 184.27 184.97C180.76 192.41 175.6 199.11 169.03 204.6ZM755.39 102.54C747.47 90.66 735.59 67.65 715.8 70.86L715.8 134.21C715.8 142.96 705.16 150.05 692.05 150.05C678.93 150.05 668.29 142.96 668.29 134.21C668.29 125.46 678.93 118.37 692.05 118.37C698.16 118.37 703.68 119.95 707.88 122.48L707.88 47.11L715.8 47.11C715.8 47.11 750.44 47.11 755.39 102.54ZM6.72 434.15C3.01 434.15 0 431.14 0 427.43L0 357.03L2.34 357.03C2.53 357.05 2.73 357.06 2.92 357.06L21.34 357.06C26.56 357.06 30.8 352.82 30.8 347.59L30.8 329.18C30.8 328.94 30.79 328.7 30.77 328.47L30.77 326.24L78.78 326.24C82.5 326.24 85.51 329.26 85.51 332.97L85.51 427.43C85.51 431.14 82.5 434.15 78.78 434.15L6.72 434.15ZM70.79 391.91C70.79 390.16 69.37 388.74 67.62 388.74L20.61 388.74C18.86 388.74 17.44 390.16 17.44 391.91C17.44 393.67 18.86 395.09 20.61 395.09L67.62 395.09C69.37 395.09 70.79 393.67 70.79 391.91ZM47.3 408.13C47.3 406.38 45.87 404.95 44.12 404.95L20.61 404.95C18.86 404.95 17.44 406.38 17.44 408.13C17.44 409.88 18.86 411.31 20.61 411.31L44.11 411.31C45.86 411.31 47.3 409.88 47.3 408.13ZM17.44 374.7C17.44 376.45 18.86 377.87 20.61 377.87L67.62 377.87C69.37 377.87 70.79 376.45 70.79 374.7C70.79 372.94 69.37 371.52 67.62 371.52L20.61 371.52C18.86 371.52 17.44 372.94 17.44 374.7ZM0.92 348.42L22.15 327.18C22.73 326.6 23.43 326.35 24.13 326.35C25.58 326.35 26.98 327.48 26.98 329.18L26.98 347.66C26.95 350.73 24.46 353.22 21.39 353.25L2.92 353.25C0.39 353.25 -0.86 350.2 0.92 348.42Z" /><path fill-rule="evenodd" class="shp0" d="M240.29 628.12C240.29 630.69 238.22 632.77 235.65 632.77L133.71 632.77C132.28 632.77 130.93 632.11 130.05 630.98C129.17 629.86 128.86 628.39 129.2 627L136.17 599.14C136.28 598.71 136.45 598.31 136.66 597.94C136.26 596.84 136.05 595.66 136.05 594.44L136.05 548.88C136.05 543.17 140.69 538.52 146.41 538.52L222.95 538.52C228.66 538.52 233.31 543.17 233.31 548.88L233.31 594.44C233.31 595.66 233.09 596.84 232.7 597.94C232.91 598.31 233.08 598.71 233.19 599.14L240.1 626.78C240.23 627.21 240.29 627.66 240.29 628.12ZM197.36 624.59C197.36 624.51 197.35 624.43 197.33 624.35L195.51 614.26C195.43 613.82 195.05 613.5 194.61 613.5L174.75 613.5C174.3 613.5 173.93 613.82 173.85 614.26L172.01 624.43C171.97 624.7 172.04 624.98 172.21 625.18C172.39 625.39 172.64 625.51 172.92 625.51L196.44 625.51C196.44 625.51 196.44 625.51 196.44 625.51C196.95 625.51 197.36 625.1 197.36 624.59ZM224.26 548.88C224.26 548.16 223.67 547.57 222.95 547.57L146.41 547.57C145.68 547.57 145.09 548.16 145.09 548.88L145.09 594.44C145.09 594.96 145.41 595.42 145.86 595.63L223.49 595.63C223.94 595.42 224.26 594.96 224.26 594.44L224.26 548.88ZM193.97 576.51C194.5 577.04 194.5 577.91 193.97 578.45L192.27 580.15C191.73 580.69 190.86 580.69 190.32 580.15L183.56 573.38L182.77 576.29C182.61 576.86 182.1 577.27 181.51 577.3C180.91 577.32 180.37 576.97 180.16 576.41L175.08 563.04C174.89 562.53 175.01 561.96 175.4 561.58C175.78 561.2 176.35 561.08 176.86 561.27L190.23 566.34C190.79 566.55 191.14 567.1 191.11 567.69C191.08 568.28 190.68 568.79 190.1 568.95L187.2 569.74L193.97 576.51ZM810.73 344.45C801.58 344.45 794.12 337.03 794.12 327.87C794.12 318.68 801.58 311.27 810.73 311.27C819.92 311.27 827.34 318.68 827.34 327.87C827.34 337.03 819.92 344.45 810.73 344.45Z" /><path class="shp0" d="M850.73 367.54C851 367.31 851.23 367.04 851.47 366.77L852.17 366.04C852.3 365.9 852.4 365.77 852.5 365.6C872.02 344.15 871.25 311.3 850.77 290.81L848.33 288.41L845.02 285.06C840.97 281.02 834.36 281.02 830.31 285.1C826.24 289.17 826.24 295.76 830.28 299.8L835.99 305.55C849.03 318.58 849.03 339.77 836.03 352.8L832.02 356.95C828.01 360.96 828.01 367.47 832.05 371.52C833.99 373.45 836.56 374.56 839.34 374.56C842.08 374.56 844.68 373.49 846.62 371.55L850.73 367.54ZM871.28 395.81L874.73 392.37C874.73 392.37 874.76 392.37 874.76 392.34L877.5 389.6C877.97 389.13 878.37 388.6 878.74 388.06C909.45 353.07 908.51 299.84 875.93 265.95C875.76 265.78 875.66 265.62 875.49 265.45L869.28 259.23C865.57 255.52 859.59 255.56 855.88 259.27C852.17 262.98 852.14 268.96 855.84 272.67L862.06 278.88C862.09 278.95 862.16 278.98 862.19 279.02C888.66 306.42 888.83 349.86 862.73 377.5L857.82 382.38C854.14 386.09 854.14 392.1 857.85 395.81C861.56 399.49 867.57 399.52 871.28 395.81Z" /><path fill-rule="evenodd" class="shp0" d="M805.73 505.04L805.73 616.09C805.73 621.31 801.49 625.55 796.26 625.55L741.58 625.55C736.35 625.55 732.12 621.31 732.12 616.09L732.12 505.04C732.12 499.84 736.35 495.57 741.58 495.57L796.26 495.57C801.49 495.57 805.73 499.84 805.73 505.04ZM774.94 610.17C774.94 606.83 772.24 604.13 768.93 604.13C765.6 604.13 762.87 606.83 762.87 610.17C762.87 613.49 765.6 616.2 768.93 616.2C772.24 616.2 774.94 613.49 774.94 610.17ZM754.2 503.6C754.2 504.88 754.73 505.89 755.43 505.89L782.41 505.89C783.11 505.89 783.66 504.88 783.66 503.6C783.66 502.36 783.11 501.34 782.41 501.34L755.43 501.34C754.73 501.34 754.2 502.36 754.2 503.6ZM798.63 511.56L739.21 511.56L739.21 595.5L798.63 595.5L798.63 511.56Z" /><path class="shp2" d="M203.27 206.45L212.36 214.29" /><path class="shp3" d="M227.53 227.35L280.6 273.09" /><path class="shp2" d="M288.18 279.62L297.27 287.45" /><path class="shp4" d="M436.27 83.43L436.27 224.46M662.44 165.62L563.44 273.61M782.26 328.45L616.26 328.45M633.27 411.45L722.77 500.95M232.94 537.12L308 442.01M102.77 381.95L242.27 379.45" /><path class="shp1" d="M417.27 461.45C417.27 432.18 441 408.45 470.27 408.45C499.54 408.45 523.27 432.18 523.27 461.45" /><path fill-rule="evenodd" class="shp0" d="M525.17 488.31L525.17 543.76C525.17 546.33 524.27 548.51 522.48 550.31C520.68 552.11 518.5 553.01 515.93 553.01L423.51 553.01C420.95 553.01 418.77 552.11 416.97 550.31C415.17 548.51 414.27 546.33 414.27 543.76L414.27 488.31C414.27 485.75 415.17 483.56 416.97 481.77C418.77 479.97 420.95 479.07 423.51 479.07L426.6 479.07L426.6 460.59C426.6 448.78 430.83 438.64 439.3 430.17C447.77 421.69 457.91 417.46 469.72 417.46C481.53 417.46 491.67 421.69 500.14 430.17C508.61 438.64 512.85 448.78 512.85 460.59L512.85 479.07L515.93 479.07C518.5 479.07 520.68 479.97 522.47 481.77C524.27 483.56 525.17 485.75 525.17 488.31ZM494.36 460.59C494.36 453.78 491.96 447.97 487.15 443.16C482.33 438.35 476.52 435.94 469.72 435.94C462.92 435.94 457.11 438.35 452.3 443.16C447.49 447.97 445.07 453.78 445.07 460.59L445.07 479.07L494.36 479.07L494.36 460.59Z" /></g></svg>