<svg xmlns="http://www.w3.org/2000/svg" viewBox="0 0 65 65" width="65" height="65"><style>tspan { white-space:pre }.shp0 { fill: #d5d3d3 } </style><path class="shp0" d="M46.41 32.12L45.2 32.12L45.2 30.92C45.2 30.26 44.66 29.72 44 29.72L12.62 29.72C11.96 29.72 11.41 30.26 11.41 30.92L11.41 54.87C11.41 58.17 14.12 60.86 17.45 60.86L39.17 60.86C42.5 60.86 45.2 58.17 45.2 54.87L45.2 48.88L46.41 48.88C51.07 48.88 54.86 45.13 54.86 40.5C54.86 35.88 51.07 32.12 46.41 32.12ZM46.41 46.49L45.2 46.49L45.2 34.51L46.41 34.51C49.74 34.51 52.44 37.2 52.44 40.5C52.44 43.8 49.74 46.49 46.41 46.49ZM36.76 27.33L41.58 27.33C42.04 27.33 42.46 27.07 42.67 26.66L46.34 19.23C48.77 18.88 50.6 16.73 50.97 13.63C51.44 9.71 49.46 4.88 43.99 3.57C43.51 3.46 43.01 3.64 42.72 4.04C42.44 4.45 42.43 4.98 42.7 5.39C43.97 7.32 43.2 8.46 41.85 10.16C41.33 10.81 40.83 11.43 40.54 12.13C39.97 13.46 39.94 14.86 40.45 16.07C40.68 16.6 41.02 17.08 41.43 17.5L36.66 24.18L36.36 24.61L35.77 25.44C35.51 25.81 35.47 26.29 35.68 26.68C35.89 27.08 36.3 27.33 36.76 27.33ZM42.76 13.06C42.93 12.66 43.32 12.17 43.74 11.65C44.65 10.5 45.9 8.94 45.76 6.91C48.03 8.44 48.84 11.09 48.57 13.35C48.38 14.99 47.5 16.9 45.66 16.9L45.66 16.9L43.6 16.22C43.17 15.93 42.86 15.57 42.68 15.14C42.42 14.52 42.44 13.8 42.76 13.06ZM10.83 13.13C10.43 12.89 9.92 12.9 9.53 13.17C9.14 13.43 8.94 13.89 9.02 14.35L10.14 21.04L15.99 16.2C15.99 16.2 10.83 13.13 10.83 13.13ZM15.03 27.33L22.3 27.33C22.94 27.33 23.46 26.82 23.49 26.19C23.53 26.82 24.04 27.33 24.69 27.33L34.34 27.33C35.01 27.33 35.55 26.8 35.55 26.13L35.55 24.93L32.53 24.93C31.87 24.93 31.32 24.4 31.32 23.74C31.32 23.08 31.87 22.54 32.53 22.54L35.55 22.54L35.55 20.14L29.51 20.14C28.85 20.14 28.31 19.61 28.31 18.95C28.31 18.29 28.85 17.75 29.51 17.75L35.55 17.75L35.55 15.36L32.53 15.36C31.87 15.36 31.32 14.82 31.32 14.16C31.32 13.5 31.87 12.96 32.53 12.96L35.55 12.96L35.55 10.57L29.51 10.57C28.85 10.57 28.31 10.03 28.31 9.37C28.31 8.71 28.85 8.17 29.51 8.17L35.55 8.17L35.55 4.58C35.55 3.92 35.01 3.38 34.34 3.38L24.69 3.38C24.02 3.38 23.48 3.92 23.48 4.58L23.48 26.02C23.45 25.73 23.34 25.46 23.14 25.27L17.78 17.83L11.3 23.19L14.07 26.85C14.29 27.15 14.65 27.33 15.03 27.33Z" /></svg>