<svg xmlns="http://www.w3.org/2000/svg" viewBox="0 0 65 65" width="65" height="65"><style>tspan { white-space:pre }.shp0 { fill: #d5d3d3 } </style><path class="shp0" d="M57.72 6.73L7.1 6.73C5.2 6.73 3.65 8.28 3.65 10.18L3.65 55.36C3.65 57.26 5.2 58.8 7.1 58.8L57.72 58.8C59.62 58.8 61.17 57.26 61.17 55.36L61.17 10.18C61.17 8.28 59.62 6.73 57.72 6.73ZM47.29 12.52C47.29 11.81 47.87 11.24 48.57 11.24L49.85 11.24C50.55 11.24 51.12 11.81 51.12 12.52L51.12 13.96C51.12 14.66 50.55 15.23 49.85 15.23L48.57 15.23C47.87 15.23 47.29 14.66 47.29 13.96L47.29 12.52ZM41.36 12.52C41.36 11.81 41.93 11.24 42.64 11.24L43.91 11.24C44.62 11.24 45.19 11.81 45.19 12.52L45.19 13.96C45.19 14.66 44.62 15.23 43.91 15.23L42.64 15.23C41.93 15.23 41.36 14.66 41.36 13.96L41.36 12.52ZM57.03 54.67L7.8 54.67L7.8 19.05L57.03 19.05L57.03 54.67L57.03 54.67ZM57.06 13.96C57.06 14.66 56.49 15.23 55.78 15.23L54.51 15.23C53.8 15.23 53.23 14.66 53.23 13.96L53.23 12.52C53.23 11.81 53.8 11.24 54.51 11.24L55.78 11.24C56.49 11.24 57.06 11.81 57.06 12.52L57.06 13.96ZM16 38.2L25.25 42.49C25.49 42.6 25.74 42.66 26.01 42.66C26.35 42.66 26.68 42.56 26.97 42.38C27.49 42.04 27.81 41.48 27.81 40.86L27.81 40.82C27.81 40.12 27.4 39.49 26.76 39.19L20.98 36.51L26.76 33.83C27.4 33.54 27.81 32.9 27.81 32.21L27.81 32.16C27.81 31.55 27.49 30.98 26.97 30.65C26.69 30.47 26.35 30.37 26.01 30.37C25.74 30.37 25.48 30.43 25.25 30.54L16 34.83C15.36 35.12 14.96 35.76 14.96 36.45L14.96 36.58C14.96 37.27 15.36 37.91 16 38.2ZM27.89 46.94C28.23 47.4 28.77 47.67 29.34 47.67L29.39 47.67C30.17 47.67 30.86 47.17 31.1 46.43L37.19 27.61C37.37 27.06 37.27 26.47 36.93 26C36.6 25.54 36.05 25.27 35.48 25.27L35.44 25.27C34.65 25.27 33.96 25.77 33.72 26.51L27.63 45.33C27.45 45.88 27.55 46.48 27.89 46.94ZM37.02 32.21C37.02 32.9 37.42 33.54 38.06 33.84L43.84 36.51L38.06 39.19C37.43 39.49 37.02 40.12 37.02 40.82L37.02 40.86C37.02 41.48 37.33 42.04 37.85 42.38C38.14 42.56 38.47 42.66 38.82 42.66C39.08 42.66 39.33 42.6 39.57 42.49L48.83 38.2C49.46 37.91 49.87 37.27 49.87 36.58L49.87 36.45C49.87 35.76 49.46 35.12 48.83 34.83L39.57 30.54C39.34 30.43 39.08 30.37 38.82 30.37C38.47 30.37 38.14 30.47 37.85 30.65C37.33 30.98 37.02 31.55 37.02 32.16L37.02 32.21L37.02 32.21Z" /></svg>