<svg xmlns="http://www.w3.org/2000/svg" viewBox="0 0 65 65" width="65" height="65"><style>tspan { white-space:pre }.shp0 { fill: #cccccc } </style><path class="shp0" d="M50.95 36.93L50.95 47.92L14.05 47.92L14.05 36.93L7.08 36.93L7.08 52.11C7.08 54.09 8.28 55.09 10.27 55.09L54.73 55.09C56.71 55.09 57.92 54.09 57.92 52.11L57.92 36.93L50.95 36.93ZM37.98 9.93C37.98 13.06 37.98 21.27 37.98 25.49C37.98 26.86 37.98 27.93 37.98 27.93C37.98 27.93 40.94 27.93 43 27.93C45.06 27.93 43.51 29.29 43.51 29.29C43.51 29.29 34.78 40.88 33.56 42.1C32.68 42.98 31.84 41.99 31.84 41.99L21.58 29.59C21.58 29.59 20.02 28.06 21.71 28.06C23.41 28.06 27 28.06 27 28.06C27 28.06 27 27.13 27 25.6C27 21.24 27 13.3 27 10.07" /></svg>