<?xml version="1.0" encoding="UTF-8"?>
<svg width="181px" height="60px" viewBox="0 0 181 60" version="1.1" xmlns="http://www.w3.org/2000/svg" xmlns:xlink="http://www.w3.org/1999/xlink">
    <!-- Generator: Sketch 59.1 (86144) - https://sketch.com -->
    <title>ios</title>
    <desc>Created with Sketch.</desc>
    <g id="ios" stroke="none" stroke-width="1" fill="none" fill-rule="evenodd">
        <text id="iOS-Developer" font-family="OpenSans-Bold, Open Sans" font-size="19" font-weight="bold" fill="#FFFFFF">
            <tspan x="49.5151367" y="37">iOS</tspan>
            <tspan x="80.9003906" y="37" font-family="OpenSans-Regular, Open Sans" font-weight="normal"> Developer</tspan>
        </text>
        <path d="M45,41.0312164 C44.2792757,43.4424233 43.1124062,45.8363713 41.4993565,48.2131324 C39.0283017,52.0021718 36.5572839,53.8966631 34.0862291,53.8966631 C33.1595835,53.8966631 31.8211156,53.5866554 30.0707851,52.9666308 C28.4234152,52.3466062 26.999148,52.0365985 25.7979408,52.0365985 C24.7683346,52.0365985 23.6126693,52.2770126 22.330919,52.757847 L21.6795367,53.0182992 C20.1351274,53.6727697 18.8652988,54 17.8700129,54 C14.9527954,54 12.0785212,51.4941047 9.24710425,46.482239 C6.41568726,41.4703732 5,36.6394205 5,31.9892357 C5,27.6146175 6.08107027,24.0323067 8.24324324,21.2421959 C10.4054162,18.4520851 13.1338317,17.0570506 16.4285714,17.0570506 C17.6297786,17.0570506 19.0674542,17.2812141 20.7416319,17.7295471 L22.5876483,18.2516265 C23.9659427,18.6263958 24.9159133,18.8137783 25.4375804,18.8137783 C26.2002517,18.8137783 27.383223,18.5552259 28.9865238,18.0381143 L29.6074646,17.8320775 C31.5293961,17.1776071 33.1767413,16.8503767 34.5495495,16.8503767 C36.8146831,16.8503767 38.8567048,17.4703921 40.6756757,18.7104413 C41.6709616,19.3993576 42.6662327,20.3638259 43.6615187,21.6038751 C42.1514296,22.8783702 41.0531995,24.015065 40.3667954,25.0139935 C39.131268,26.8051758 38.5135135,28.7857803 38.5135135,30.9558665 C38.5135135,33.3326276 39.1655876,35.4854586 40.4697555,37.4144241 C41.7739233,39.3433896 43.2839897,40.548975 45,41.0312164 Z M34.2406692,7.1883746 C34.2406692,8.35953223 33.9575318,9.66845348 33.3912484,11.1151776 C32.824965,12.5619017 31.9240731,13.8880456 30.6885457,15.0936491 C29.6589395,16.1270235 28.6293488,16.8159294 27.5997426,17.1603875 C26.9133385,17.4015082 25.9180674,17.5737347 24.6138996,17.6770721 C24.68254,14.8180697 25.4289933,12.355231 26.8532819,10.2884822 C28.2775704,8.22173348 30.6713689,6.79225369 34.034749,6 C34.0690692,6.06889163 34.1033889,6.17222751 34.1377091,6.31001076 C34.1720293,6.44779402 34.1891892,6.5511299 34.1891892,6.62002153 L34.1891892,6.93003229 C34.1891892,7.06781554 34.206349,7.15392878 34.2406692,7.1883746 Z" id="" fill="#D6D4D3" fill-rule="nonzero"></path>
    </g>
</svg>