<svg xmlns="http://www.w3.org/2000/svg" viewBox="0 0 65 65" width="65" height="65"><style>tspan { white-space:pre }.shp0 { fill: #d5d3d3 } </style><path class="shp0" d="M41.85 12.69L41.85 30.12L41.85 47.55C41.85 48.81 40.17 49.32 39.47 48.25C35.5 42.15 31.58 38.95 17.81 38.27L22.16 52.21L15.66 52.21L11.27 38.12C6.96 37.92 3.52 34.41 3.52 30.12C3.52 25.69 7.16 22.1 11.64 22.1C30.53 22.1 34.96 18.91 39.47 11.98C40.17 10.91 41.85 11.42 41.85 12.69ZM53.04 31.81C53.04 35.15 51.9 38.21 50.18 40.54C50.18 40.54 49.49 41.46 48.35 41.46C47.18 41.46 46.14 40.49 46.14 39.27C46.14 38.55 46.58 37.97 46.58 37.97C47.4 36.79 48.59 34.98 48.59 31.81C48.59 28.63 47.4 26.82 46.58 25.64C46.58 25.64 46.14 25.06 46.14 24.34C46.14 23.12 47.18 22.15 48.35 22.15C49.49 22.15 50.18 23.08 50.18 23.08C51.9 25.4 53.04 28.46 53.04 31.81ZM51.39 19.16C51.39 19.16 50.38 18.45 50.38 17.35C50.38 16.1 51.42 15.15 52.6 15.15C53.37 15.15 54.07 15.68 54.07 15.68C56.75 17.66 61.05 22.73 61.05 31.81C61.05 40.88 56.75 45.96 54.07 47.94C54.07 47.94 53.36 48.46 52.6 48.46C51.42 48.46 50.38 47.51 50.38 46.26C50.38 45.16 51.39 44.45 51.39 44.45C54.51 42.18 56.6 37.63 56.6 31.81C56.6 25.98 54.51 21.44 51.39 19.16Z" /></svg>