<?xml version="1.0" encoding="UTF-8"?>
<svg width="401px" height="434px" viewBox="0 0 401 434" version="1.1" xmlns="http://www.w3.org/2000/svg" xmlns:xlink="http://www.w3.org/1999/xlink">
    <!-- Generator: Sketch 59.1 (86144) - https://sketch.com -->
    <title>Artboard Copy</title>
    <desc>Created with Sketch.</desc>
    <g id="Artboard-Copy" stroke="none" stroke-width="1" fill="none" fill-rule="evenodd">
        <g id="true-Partner" transform="translate(0.000000, 35.000000)" fill-rule="nonzero">
            <path d="M202.9,149 C239.3,149 268.8,178.5 268.8,214.9 C268.8,251.29 239.3,280.8 202.9,280.8 C166.51,280.8 137,251.29 137,214.9 C137,178.5 166.51,149 202.9,149 Z" id="Path" fill="#3DE3E4"></path>
            <path d="M345.03,93.95 C375.43,93.95 400.06,118.59 400.06,148.98 C400.06,179.37 375.43,204.01 345.03,204.01 C314.64,204.01 290.01,179.37 290.01,148.98 C290.01,118.59 314.64,93.95 345.03,93.95 Z" id="Path" stroke="#000000" stroke-width="2" fill="#7D878F" opacity="0.102"></path>
            <path d="M339.87,249 C370.26,249 394.9,273.64 394.9,304.03 C394.9,334.42 370.26,359.05 339.87,359.05 C309.48,359.05 284.84,334.42 284.84,304.03 C284.84,273.64 309.48,249 339.87,249 Z" id="Path" stroke="#000000" stroke-width="2" fill="#7D878F" opacity="0.102"></path>
            <path d="M342.92,262.15 C333.57,262.15 325.99,268.78 325.99,276.97 C325.99,281.64 328.47,285.8 332.33,288.52 L332.33,296.01 L339.75,291.51 C340.78,291.68 341.83,291.78 342.92,291.78 C352.27,291.78 359.85,285.15 359.85,276.97 C359.85,268.78 352.27,262.15 342.92,262.15 Z M342.92,290.43 C341.6,290.43 340.32,290.28 339.1,290.02 L333.78,293.22 L333.85,287.98 C329.77,285.52 327.1,281.47 327.1,276.88 C327.1,269.39 334.18,263.32 342.92,263.32 C351.65,263.32 358.73,269.39 358.73,276.88 C358.73,284.36 351.65,290.43 342.92,290.43 Z" id="Shape" fill="#BFC5CA"></path>
            <path d="M335.79,275.03 C337.13,275.03 338.22,276.12 338.22,277.47 C338.22,278.81 337.13,279.9 335.79,279.9 C334.44,279.9 333.35,278.81 333.35,277.47 C333.35,276.12 334.44,275.03 335.79,275.03 Z M342.92,275.03 C344.26,275.03 345.35,276.12 345.35,277.47 C345.35,278.81 344.26,279.9 342.92,279.9 C341.57,279.9 340.48,278.81 340.48,277.47 C340.48,276.12 341.57,275.03 342.92,275.03 Z M349.81,275.03 C351.15,275.03 352.24,276.12 352.24,277.47 C352.24,278.81 351.15,279.9 349.81,279.9 C348.46,279.9 347.37,278.81 347.37,277.47 C347.37,276.12 348.46,275.03 349.81,275.03 Z" id="Shape" fill="#3CECEC"></path>
            <path d="M71.2,254.33 C101.59,254.33 126.23,278.97 126.23,309.36 C126.23,339.75 101.59,364.39 71.2,364.39 C40.81,364.39 16.17,339.75 16.17,309.36 C16.17,278.97 40.81,254.33 71.2,254.33 Z" id="Path" stroke="#000000" stroke-width="2" fill="#7D878F" opacity="0.102"></path>
            <path d="M55.53,89.62 C85.92,89.62 110.56,114.26 110.56,144.65 C110.56,175.04 85.92,199.67 55.53,199.67 C25.14,199.67 0.5,175.04 0.5,144.65 C0.5,114.26 25.14,89.62 55.53,89.62 Z" id="Path" stroke="#000000" stroke-width="2" fill="#7D878F" opacity="0.102"></path>
            <path d="M202.83,0.18 C233.22,0.18 257.85,24.81 257.85,55.2 C257.85,85.59 233.22,110.23 202.83,110.23 C172.43,110.23 147.8,85.59 147.8,55.2 C147.8,24.81 172.43,0.18 202.83,0.18 Z" id="Path" stroke="#000000" stroke-width="2" fill="#7D878F" opacity="0.102"></path>
            <path d="M319.151367,180 L313.182129,180 L313.182129,169.291992 L319.151367,169.291992 L319.151367,170.397949 L314.427246,170.397949 L314.427246,173.847656 L318.865723,173.847656 L318.865723,174.946289 L314.427246,174.946289 L314.427246,178.886719 L319.151367,178.886719 L319.151367,180 Z M326.805176,178.92334 L326.739258,178.92334 C326.177732,179.738774 325.337896,180.146484 324.219727,180.146484 C323.169917,180.146484 322.353274,179.787601 321.769775,179.069824 C321.186276,178.352047 320.894531,177.33155 320.894531,176.008301 C320.894531,174.685052 321.187497,173.65723 321.773438,172.924805 C322.359378,172.192379 323.174799,171.826172 324.219727,171.826172 C325.308599,171.826172 326.143552,172.221676 326.724609,173.012695 L326.819824,173.012695 L326.768555,172.434082 L326.739258,171.870117 L326.739258,168.603516 L327.955078,168.603516 L327.955078,180 L326.966309,180 L326.805176,178.92334 Z M324.373535,179.128418 C325.203617,179.128418 325.805418,178.90259 326.178955,178.450928 C326.552492,177.999265 326.739258,177.270513 326.739258,176.264648 L326.739258,176.008301 C326.739258,174.8706 326.550051,174.05884 326.171631,173.572998 C325.793211,173.087156 325.188969,172.844238 324.358887,172.844238 C323.645993,172.844238 323.100344,173.121335 322.721924,173.675537 C322.343504,174.229739 322.154297,175.012202 322.154297,176.022949 C322.154297,177.048345 322.342283,177.822263 322.718262,178.344727 C323.09424,178.86719 323.645992,179.128418 324.373535,179.128418 Z M331.675781,171.972656 L331.675781,177.180176 C331.675781,177.834476 331.824706,178.322752 332.122559,178.64502 C332.420412,178.967287 332.886716,179.128418 333.521484,179.128418 C334.361332,179.128418 334.97534,178.898928 335.363525,178.439941 C335.751711,177.980955 335.945801,177.231451 335.945801,176.191406 L335.945801,171.972656 L337.161621,171.972656 L337.161621,180 L336.158203,180 L335.982422,178.92334 L335.916504,178.92334 C335.667479,179.31885 335.322024,179.621581 334.880127,179.831543 C334.43823,180.041505 333.934085,180.146484 333.367676,180.146484 C332.391108,180.146484 331.659915,179.914553 331.174072,179.450684 C330.68823,178.986814 330.445312,178.244634 330.445312,177.224121 L330.445312,171.972656 L331.675781,171.972656 Z M342.947754,180.146484 C341.785639,180.146484 340.88599,179.788822 340.248779,179.073486 C339.611569,178.358151 339.292969,177.346198 339.292969,176.037598 C339.292969,174.694818 339.616452,173.65723 340.263428,172.924805 C340.910404,172.192379 341.832025,171.826172 343.02832,171.826172 C343.414064,171.826172 343.799803,171.867675 344.185547,171.950684 C344.571291,172.033692 344.874022,172.131347 345.09375,172.243652 L344.720215,173.276367 C344.451659,173.168945 344.158693,173.079834 343.841309,173.009033 C343.523924,172.938232 343.243165,172.902832 342.999023,172.902832 C341.368156,172.902832 340.552734,173.942861 340.552734,176.022949 C340.552734,177.009282 340.751707,177.766111 341.149658,178.293457 C341.547609,178.820803 342.137203,179.084473 342.918457,179.084473 C343.587406,179.084473 344.273434,178.940431 344.976562,178.652344 L344.976562,179.729004 C344.43945,180.007326 343.763188,180.146484 342.947754,180.146484 Z M351.817383,180 L351.575684,178.857422 L351.51709,178.857422 C351.116697,179.360354 350.717531,179.700927 350.31958,179.87915 C349.921629,180.057374 349.424808,180.146484 348.829102,180.146484 C348.033199,180.146484 347.409426,179.941408 346.957764,179.53125 C346.506101,179.121092 346.280273,178.537601 346.280273,177.780762 C346.280273,176.15966 347.576647,175.310059 350.169434,175.231934 L351.531738,175.187988 L351.531738,174.689941 C351.531738,174.060055 351.396242,173.594972 351.125244,173.294678 C350.854247,172.994383 350.420901,172.844238 349.825195,172.844238 C349.156247,172.844238 348.399418,173.049314 347.554688,173.459473 L347.181152,172.529297 C347.576662,172.314452 348.010007,172.145997 348.481201,172.023926 C348.952395,171.901855 349.424802,171.84082 349.898438,171.84082 C350.855474,171.84082 351.564695,172.053221 352.026123,172.478027 C352.487551,172.902834 352.718262,173.58398 352.718262,174.521484 L352.718262,180 L351.817383,180 Z M349.070801,179.143066 C349.827641,179.143066 350.422117,178.935549 350.854248,178.520508 C351.286379,178.105467 351.502441,177.524418 351.502441,176.777344 L351.502441,176.052246 L350.286621,176.103516 C349.319819,176.137695 348.622805,176.28784 348.195557,176.553955 C347.768308,176.82007 347.554688,177.233884 347.554688,177.79541 C347.554688,178.234865 347.687743,178.569335 347.953857,178.798828 C348.219972,179.028321 348.592283,179.143066 349.070801,179.143066 Z M357.815918,179.143066 C358.030763,179.143066 358.23828,179.127197 358.438477,179.095459 C358.638673,179.063721 358.797363,179.030762 358.914551,178.996582 L358.914551,179.926758 C358.782714,179.990235 358.588624,180.042724 358.332275,180.084229 C358.075926,180.125733 357.845216,180.146484 357.640137,180.146484 C356.087395,180.146484 355.311035,179.328621 355.311035,177.692871 L355.311035,172.91748 L354.161133,172.91748 L354.161133,172.331543 L355.311035,171.826172 L355.82373,170.112305 L356.526855,170.112305 L356.526855,171.972656 L358.855957,171.972656 L358.855957,172.91748 L356.526855,172.91748 L356.526855,177.641602 C356.526855,178.125002 356.6416,178.496092 356.871094,178.754883 C357.100587,179.013673 357.415525,179.143066 357.815918,179.143066 Z M361.734375,180 L360.518555,180 L360.518555,171.972656 L361.734375,171.972656 L361.734375,180 Z M360.416016,169.797363 C360.416016,169.519042 360.484374,169.315186 360.621094,169.185791 C360.757813,169.056396 360.92871,168.991699 361.133789,168.991699 C361.329103,168.991699 361.497558,169.057617 361.63916,169.189453 C361.780762,169.32129 361.851562,169.523924 361.851562,169.797363 C361.851562,170.070802 361.780762,170.274658 361.63916,170.408936 C361.497558,170.543214 361.329103,170.610352 361.133789,170.610352 C360.92871,170.610352 360.757813,170.543214 360.621094,170.408936 C360.484374,170.274658 360.416016,170.070802 360.416016,169.797363 Z M371.241211,175.979004 C371.241211,177.287604 370.911624,178.309322 370.252441,179.044189 C369.593258,179.779056 368.682623,180.146484 367.520508,180.146484 C366.802731,180.146484 366.16553,179.978029 365.608887,179.641113 C365.052243,179.304198 364.62256,178.820804 364.319824,178.190918 C364.017088,177.561032 363.865723,176.823735 363.865723,175.979004 C363.865723,174.670404 364.192868,173.651127 364.847168,172.921143 C365.501468,172.191158 366.409662,171.826172 367.571777,171.826172 C368.69483,171.826172 369.587155,172.199703 370.248779,172.946777 C370.910404,173.693851 371.241211,174.704583 371.241211,175.979004 Z M365.125488,175.979004 C365.125488,177.0044 365.330564,177.785642 365.740723,178.322754 C366.150881,178.859866 366.753902,179.128418 367.549805,179.128418 C368.345707,179.128418 368.949949,178.861087 369.362549,178.326416 C369.775149,177.791745 369.981445,177.009282 369.981445,175.979004 C369.981445,174.958491 369.775149,174.183352 369.362549,173.653564 C368.949949,173.123777 368.340824,172.858887 367.535156,172.858887 C366.739254,172.858887 366.138674,173.120115 365.733398,173.642578 C365.328123,174.165042 365.125488,174.943842 365.125488,175.979004 Z M378.865723,180 L378.865723,174.807129 C378.865723,174.152829 378.716798,173.664552 378.418945,173.342285 C378.121092,173.020018 377.654788,172.858887 377.02002,172.858887 C376.180172,172.858887 375.564943,173.085935 375.174316,173.540039 C374.783689,173.994143 374.588379,174.743647 374.588379,175.788574 L374.588379,180 L373.372559,180 L373.372559,171.972656 L374.361328,171.972656 L374.559082,173.071289 L374.617676,173.071289 C374.8667,172.675779 375.215818,172.369386 375.665039,172.1521 C376.11426,171.934813 376.614743,171.826172 377.166504,171.826172 C378.133306,171.826172 378.860837,172.059324 379.349121,172.525635 C379.837405,172.991946 380.081543,173.737788 380.081543,174.763184 L380.081543,180 L378.865723,180 Z" id="Education" fill="#7F8990"></path>
            <path d="M333.018555,309.631348 C333.018555,311.345223 332.585209,312.692866 331.718506,313.674316 C330.851802,314.655767 329.64698,315.146484 328.104004,315.146484 C326.526848,315.146484 325.309819,314.664311 324.452881,313.699951 C323.595943,312.735591 323.16748,311.374521 323.16748,309.616699 C323.16748,307.873526 323.597164,306.522222 324.456543,305.562744 C325.315922,304.603267 326.536613,304.123535 328.118652,304.123535 C329.656746,304.123535 330.857906,304.611812 331.722168,305.588379 C332.58643,306.564946 333.018555,307.912589 333.018555,309.631348 Z M324.48584,309.631348 C324.48584,311.08155 324.794675,312.181393 325.412354,312.930908 C326.030032,313.680424 326.92724,314.055176 328.104004,314.055176 C329.290533,314.055176 330.18652,313.681644 330.791992,312.93457 C331.397464,312.187496 331.700195,311.086433 331.700195,309.631348 C331.700195,308.190911 331.398685,307.098392 330.795654,306.35376 C330.192624,305.609127 329.300299,305.236816 328.118652,305.236816 C326.932123,305.236816 326.030032,305.611569 325.412354,306.361084 C324.794675,307.110599 324.48584,308.200676 324.48584,309.631348 Z M338.958496,315.146484 C338.436033,315.146484 337.958742,315.05005 337.526611,314.857178 C337.09448,314.664306 336.731935,314.367678 336.438965,313.967285 L336.351074,313.967285 C336.409668,314.436037 336.438965,314.880369 336.438965,315.300293 L336.438965,318.603516 L335.223145,318.603516 L335.223145,306.972656 L336.211914,306.972656 L336.380371,308.071289 L336.438965,308.071289 C336.751466,307.631834 337.115232,307.314454 337.530273,307.119141 C337.945315,306.923827 338.421384,306.826172 338.958496,306.826172 C340.022955,306.826172 340.84448,307.189938 341.423096,307.91748 C342.001712,308.645023 342.291016,309.665521 342.291016,310.979004 C342.291016,312.29737 341.996829,313.32153 341.408447,314.051514 C340.820065,314.781498 340.003423,315.146484 338.958496,315.146484 Z M338.782715,307.858887 C337.962398,307.858887 337.369142,308.085935 337.00293,308.540039 C336.636717,308.994143 336.448731,309.716792 336.438965,310.708008 L336.438965,310.979004 C336.438965,312.106939 336.626951,312.913816 337.00293,313.399658 C337.378908,313.8855 337.981929,314.128418 338.812012,314.128418 C339.505375,314.128418 340.048582,313.847659 340.44165,313.286133 C340.834719,312.724607 341.03125,311.950689 341.03125,310.964355 C341.03125,309.963374 340.834719,309.195559 340.44165,308.660889 C340.048582,308.126218 339.495609,307.858887 338.782715,307.858887 Z M347.806152,315.146484 C346.619623,315.146484 345.683353,314.78516 344.997314,314.0625 C344.311276,313.33984 343.968262,312.336432 343.968262,311.052246 C343.968262,309.758294 344.286862,308.730473 344.924072,307.96875 C345.561282,307.207027 346.416987,306.826172 347.491211,306.826172 C348.497075,306.826172 349.292966,307.156979 349.878906,307.818604 C350.464847,308.480228 350.757812,309.353022 350.757812,310.437012 L350.757812,311.206055 L345.228027,311.206055 C345.252442,312.148442 345.490476,312.863767 345.942139,313.352051 C346.393801,313.840334 347.029781,314.084473 347.850098,314.084473 C348.71436,314.084473 349.568843,313.90381 350.413574,313.54248 L350.413574,314.626465 C349.983885,314.812013 349.577394,314.945068 349.194092,315.025635 C348.810789,315.106202 348.348147,315.146484 347.806152,315.146484 Z M347.476562,307.844238 C346.832028,307.844238 346.318117,308.054197 345.934814,308.474121 C345.551512,308.894045 345.325684,309.475094 345.257324,310.217285 L349.454102,310.217285 C349.454102,309.45068 349.283205,308.863527 348.941406,308.455811 C348.599608,308.048094 348.111331,307.844238 347.476562,307.844238 Z M358.32373,315 L358.32373,309.807129 C358.32373,309.152829 358.174806,308.664552 357.876953,308.342285 C357.5791,308.020018 357.112796,307.858887 356.478027,307.858887 C355.638179,307.858887 355.022951,308.085935 354.632324,308.540039 C354.241697,308.994143 354.046387,309.743647 354.046387,310.788574 L354.046387,315 L352.830566,315 L352.830566,306.972656 L353.819336,306.972656 L354.01709,308.071289 L354.075684,308.071289 C354.324708,307.675779 354.673826,307.369386 355.123047,307.1521 C355.572268,306.934813 356.072751,306.826172 356.624512,306.826172 C357.591313,306.826172 358.318845,307.059324 358.807129,307.525635 C359.295413,307.991946 359.539551,308.737788 359.539551,309.763184 L359.539551,315 L358.32373,315 Z M309.668945,322.251465 C308.492182,322.251465 307.563236,322.643307 306.88208,323.427002 C306.200924,324.210697 305.860352,325.283685 305.860352,326.645996 C305.860352,328.04737 306.188717,329.130123 306.845459,329.894287 C307.502201,330.658451 308.43847,331.040527 309.654297,331.040527 C310.401371,331.040527 311.253413,330.906251 312.210449,330.637695 L312.210449,331.729004 C311.468258,332.007326 310.55274,332.146484 309.463867,332.146484 C307.886711,332.146484 306.669682,331.667974 305.812744,330.710938 C304.955806,329.753901 304.527344,328.394052 304.527344,326.631348 C304.527344,325.527827 304.733641,324.561039 305.14624,323.730957 C305.55884,322.900875 306.154537,322.261233 306.93335,321.812012 C307.712162,321.362791 308.628901,321.138184 309.683594,321.138184 C310.806646,321.138184 311.788082,321.34326 312.62793,321.753418 L312.100586,322.822754 C311.290035,322.441893 310.479496,322.251465 309.668945,322.251465 Z M321.29248,327.979004 C321.29248,329.287604 320.962894,330.309322 320.303711,331.044189 C319.644528,331.779056 318.733893,332.146484 317.571777,332.146484 C316.854,332.146484 316.2168,331.978029 315.660156,331.641113 C315.103513,331.304198 314.67383,330.820804 314.371094,330.190918 C314.068358,329.561032 313.916992,328.823735 313.916992,327.979004 C313.916992,326.670404 314.244137,325.651127 314.898438,324.921143 C315.552738,324.191158 316.460932,323.826172 317.623047,323.826172 C318.746099,323.826172 319.638424,324.199703 320.300049,324.946777 C320.961673,325.693851 321.29248,326.704583 321.29248,327.979004 Z M315.176758,327.979004 C315.176758,329.0044 315.381834,329.785642 315.791992,330.322754 C316.20215,330.859866 316.805172,331.128418 317.601074,331.128418 C318.396977,331.128418 319.001219,330.861087 319.413818,330.326416 C319.826418,329.791745 320.032715,329.009282 320.032715,327.979004 C320.032715,326.958491 319.826418,326.183352 319.413818,325.653564 C319.001219,325.123777 318.392094,324.858887 317.586426,324.858887 C316.790523,324.858887 316.189943,325.120115 315.784668,325.642578 C315.379393,326.165042 315.176758,326.943842 315.176758,327.979004 Z M333.655762,332 L333.655762,326.777832 C333.655762,326.13818 333.519044,325.658449 333.245605,325.338623 C332.972167,325.018797 332.547366,324.858887 331.971191,324.858887 C331.214352,324.858887 330.655275,325.07617 330.293945,325.510742 C329.932615,325.945315 329.751953,326.614253 329.751953,327.517578 L329.751953,332 L328.536133,332 L328.536133,326.777832 C328.536133,326.13818 328.399415,325.658449 328.125977,325.338623 C327.852538,325.018797 327.425296,324.858887 326.844238,324.858887 C326.082516,324.858887 325.52466,325.087156 325.170654,325.543701 C324.816649,326.000246 324.639648,326.74853 324.639648,327.788574 L324.639648,332 L323.423828,332 L323.423828,323.972656 L324.412598,323.972656 L324.610352,325.071289 L324.668945,325.071289 C324.898439,324.680662 325.221922,324.375489 325.639404,324.155762 C326.056887,323.936034 326.524411,323.826172 327.041992,323.826172 C328.296881,323.826172 329.117186,324.280269 329.50293,325.188477 L329.561523,325.188477 C329.800782,324.768553 330.147459,324.436525 330.601562,324.192383 C331.055666,323.948241 331.573239,323.826172 332.154297,323.826172 C333.062505,323.826172 333.742429,324.059324 334.194092,324.525635 C334.645754,324.991946 334.871582,325.737788 334.871582,326.763184 L334.871582,332 L333.655762,332 Z M347.608398,332 L347.608398,326.777832 C347.608398,326.13818 347.471681,325.658449 347.198242,325.338623 C346.924803,325.018797 346.500003,324.858887 345.923828,324.858887 C345.166988,324.858887 344.607912,325.07617 344.246582,325.510742 C343.885252,325.945315 343.70459,326.614253 343.70459,327.517578 L343.70459,332 L342.48877,332 L342.48877,326.777832 C342.48877,326.13818 342.352052,325.658449 342.078613,325.338623 C341.805174,325.018797 341.377933,324.858887 340.796875,324.858887 C340.035152,324.858887 339.477297,325.087156 339.123291,325.543701 C338.769285,326.000246 338.592285,326.74853 338.592285,327.788574 L338.592285,332 L337.376465,332 L337.376465,323.972656 L338.365234,323.972656 L338.562988,325.071289 L338.621582,325.071289 C338.851075,324.680662 339.174558,324.375489 339.592041,324.155762 C340.009524,323.936034 340.477048,323.826172 340.994629,323.826172 C342.249518,323.826172 343.069822,324.280269 343.455566,325.188477 L343.51416,325.188477 C343.753419,324.768553 344.100095,324.436525 344.554199,324.192383 C345.008303,323.948241 345.525876,323.826172 346.106934,323.826172 C347.015141,323.826172 347.695066,324.059324 348.146729,324.525635 C348.598391,324.991946 348.824219,325.737788 348.824219,326.763184 L348.824219,332 L347.608398,332 Z M352.47168,323.972656 L352.47168,329.180176 C352.47168,329.834476 352.620604,330.322752 352.918457,330.64502 C353.21631,330.967287 353.682614,331.128418 354.317383,331.128418 C355.157231,331.128418 355.771238,330.898928 356.159424,330.439941 C356.547609,329.980955 356.741699,329.231451 356.741699,328.191406 L356.741699,323.972656 L357.95752,323.972656 L357.95752,332 L356.954102,332 L356.77832,330.92334 L356.712402,330.92334 C356.463378,331.31885 356.117922,331.621581 355.676025,331.831543 C355.234129,332.041505 354.729983,332.146484 354.163574,332.146484 C353.187007,332.146484 352.455813,331.914553 351.969971,331.450684 C351.484128,330.986814 351.241211,330.244634 351.241211,329.224121 L351.241211,323.972656 L352.47168,323.972656 Z M366.028809,332 L366.028809,326.807129 C366.028809,326.152829 365.879884,325.664552 365.582031,325.342285 C365.284178,325.020018 364.817874,324.858887 364.183105,324.858887 C363.343258,324.858887 362.728029,325.085935 362.337402,325.540039 C361.946775,325.994143 361.751465,326.743647 361.751465,327.788574 L361.751465,332 L360.535645,332 L360.535645,323.972656 L361.524414,323.972656 L361.722168,325.071289 L361.780762,325.071289 C362.029786,324.675779 362.378904,324.369386 362.828125,324.1521 C363.277346,323.934813 363.777829,323.826172 364.32959,323.826172 C365.296392,323.826172 366.023923,324.059324 366.512207,324.525635 C367.000491,324.991946 367.244629,325.737788 367.244629,326.763184 L367.244629,332 L366.028809,332 Z M370.958008,332 L369.742188,332 L369.742188,323.972656 L370.958008,323.972656 L370.958008,332 Z M369.639648,321.797363 C369.639648,321.519042 369.708007,321.315186 369.844727,321.185791 C369.981446,321.056396 370.152343,320.991699 370.357422,320.991699 C370.552735,320.991699 370.721191,321.057617 370.862793,321.189453 C371.004395,321.32129 371.075195,321.523924 371.075195,321.797363 C371.075195,322.070802 371.004395,322.274658 370.862793,322.408936 C370.721191,322.543214 370.552735,322.610352 370.357422,322.610352 C370.152343,322.610352 369.981446,322.543214 369.844727,322.408936 C369.708007,322.274658 369.639648,322.070802 369.639648,321.797363 Z M376.744141,332.146484 C375.582025,332.146484 374.682376,331.788822 374.045166,331.073486 C373.407956,330.358151 373.089355,329.346198 373.089355,328.037598 C373.089355,326.694818 373.412839,325.65723 374.059814,324.924805 C374.70679,324.192379 375.628412,323.826172 376.824707,323.826172 C377.210451,323.826172 377.596189,323.867675 377.981934,323.950684 C378.367678,324.033692 378.670409,324.131347 378.890137,324.243652 L378.516602,325.276367 C378.248046,325.168945 377.95508,325.079834 377.637695,325.009033 C377.320311,324.938232 377.039552,324.902832 376.79541,324.902832 C375.164543,324.902832 374.349121,325.942861 374.349121,328.022949 C374.349121,329.009282 374.548094,329.766111 374.946045,330.293457 C375.343996,330.820803 375.93359,331.084473 376.714844,331.084473 C377.383792,331.084473 378.069821,330.940431 378.772949,330.652344 L378.772949,331.729004 C378.235837,332.007326 377.559574,332.146484 376.744141,332.146484 Z M321.852783,345.535645 L321.852783,344.422363 L325.448975,344.422363 L325.448975,345.535645 L321.852783,345.535645 Z M332.289795,349 L332.048096,347.857422 L331.989502,347.857422 C331.589109,348.360354 331.189943,348.700927 330.791992,348.87915 C330.394041,349.057374 329.89722,349.146484 329.301514,349.146484 C328.505611,349.146484 327.881838,348.941408 327.430176,348.53125 C326.978513,348.121092 326.752686,347.537601 326.752686,346.780762 C326.752686,345.15966 328.049059,344.310059 330.641846,344.231934 L332.00415,344.187988 L332.00415,343.689941 C332.00415,343.060055 331.868654,342.594972 331.597656,342.294678 C331.326659,341.994383 330.893314,341.844238 330.297607,341.844238 C329.628659,341.844238 328.87183,342.049314 328.0271,342.459473 L327.653564,341.529297 C328.049074,341.314452 328.48242,341.145997 328.953613,341.023926 C329.424807,340.901855 329.897214,340.84082 330.37085,340.84082 C331.327886,340.84082 332.037107,341.053221 332.498535,341.478027 C332.959963,341.902834 333.190674,342.58398 333.190674,343.521484 L333.190674,349 L332.289795,349 Z M329.543213,348.143066 C330.300053,348.143066 330.894529,347.935549 331.32666,347.520508 C331.758791,347.105467 331.974854,346.524418 331.974854,345.777344 L331.974854,345.052246 L330.759033,345.103516 C329.792231,345.137695 329.095217,345.28784 328.667969,345.553955 C328.240721,345.82007 328.0271,346.233884 328.0271,346.79541 C328.0271,347.234865 328.160155,347.569335 328.42627,347.798828 C328.692384,348.028321 329.064695,348.143066 329.543213,348.143066 Z M338.28833,348.143066 C338.503175,348.143066 338.710692,348.127197 338.910889,348.095459 C339.111085,348.063721 339.269775,348.030762 339.386963,347.996582 L339.386963,348.926758 C339.255126,348.990235 339.061036,349.042724 338.804688,349.084229 C338.548339,349.125733 338.317628,349.146484 338.112549,349.146484 C336.559807,349.146484 335.783447,348.328621 335.783447,346.692871 L335.783447,341.91748 L334.633545,341.91748 L334.633545,341.331543 L335.783447,340.826172 L336.296143,339.112305 L336.999268,339.112305 L336.999268,340.972656 L339.328369,340.972656 L339.328369,341.91748 L336.999268,341.91748 L336.999268,346.641602 C336.999268,347.125002 337.114013,347.496092 337.343506,347.754883 C337.572999,348.013673 337.887937,348.143066 338.28833,348.143066 Z M342.206787,349 L340.990967,349 L340.990967,340.972656 L342.206787,340.972656 L342.206787,349 Z M340.888428,338.797363 C340.888428,338.519042 340.956786,338.315186 341.093506,338.185791 C341.230225,338.056396 341.401122,337.991699 341.606201,337.991699 C341.801515,337.991699 341.96997,338.057617 342.111572,338.189453 C342.253175,338.32129 342.323975,338.523924 342.323975,338.797363 C342.323975,339.070802 342.253175,339.274658 342.111572,339.408936 C341.96997,339.543214 341.801515,339.610352 341.606201,339.610352 C341.401122,339.610352 341.230225,339.543214 341.093506,339.408936 C340.956786,339.274658 340.888428,339.070802 340.888428,338.797363 Z M351.713623,344.979004 C351.713623,346.287604 351.384036,347.309322 350.724854,348.044189 C350.065671,348.779056 349.155035,349.146484 347.99292,349.146484 C347.275143,349.146484 346.637942,348.978029 346.081299,348.641113 C345.524655,348.304198 345.094972,347.820804 344.792236,347.190918 C344.4895,346.561032 344.338135,345.823735 344.338135,344.979004 C344.338135,343.670404 344.66528,342.651127 345.31958,341.921143 C345.97388,341.191158 346.882074,340.826172 348.044189,340.826172 C349.167242,340.826172 350.059567,341.199703 350.721191,341.946777 C351.382816,342.693851 351.713623,343.704583 351.713623,344.979004 Z M345.5979,344.979004 C345.5979,346.0044 345.802976,346.785642 346.213135,347.322754 C346.623293,347.859866 347.226314,348.128418 348.022217,348.128418 C348.818119,348.128418 349.422361,347.861087 349.834961,347.326416 C350.247561,346.791745 350.453857,346.009282 350.453857,344.979004 C350.453857,343.958491 350.247561,343.183352 349.834961,342.653564 C349.422361,342.123777 348.813236,341.858887 348.007568,341.858887 C347.211666,341.858887 346.611086,342.120115 346.205811,342.642578 C345.800535,343.165042 345.5979,343.943842 345.5979,344.979004 Z M359.338135,349 L359.338135,343.807129 C359.338135,343.152829 359.18921,342.664552 358.891357,342.342285 C358.593504,342.020018 358.1272,341.858887 357.492432,341.858887 C356.652584,341.858887 356.037355,342.085935 355.646729,342.540039 C355.256102,342.994143 355.060791,343.743647 355.060791,344.788574 L355.060791,349 L353.844971,349 L353.844971,340.972656 L354.83374,340.972656 L355.031494,342.071289 L355.090088,342.071289 C355.339113,341.675779 355.68823,341.369386 356.137451,341.1521 C356.586672,340.934813 357.087155,340.826172 357.638916,340.826172 C358.605718,340.826172 359.33325,341.059324 359.821533,341.525635 C360.309817,341.991946 360.553955,342.737788 360.553955,343.763184 L360.553955,349 L359.338135,349 Z" id="OpenCommunic-ation" fill="#7F8990"></path>
            <path d="M52.8708496,320.412109 C52.8708496,321.496099 52.5009803,322.329831 51.7612305,322.91333 C51.0214807,323.496829 49.9631417,323.788574 48.5861816,323.788574 L47.326416,323.788574 L47.326416,328 L46.0812988,328 L46.0812988,317.291992 L48.8571777,317.291992 C51.5329724,317.291992 52.8708496,318.332021 52.8708496,320.412109 Z M47.326416,322.719238 L48.4470215,322.719238 C49.5505426,322.719238 50.3488745,322.541017 50.842041,322.18457 C51.3352075,321.828123 51.5817871,321.25684 51.5817871,320.470703 C51.5817871,319.762692 51.3498558,319.235353 50.8859863,318.888672 C50.4221168,318.54199 49.6994678,318.368652 48.7180176,318.368652 L47.326416,318.368652 L47.326416,322.719238 Z M58.5910645,319.826172 C58.9475115,319.826172 59.2673326,319.855468 59.5505371,319.914062 L59.3820801,321.041992 C59.0500472,320.96875 58.7570813,320.932129 58.5031738,320.932129 C57.8537565,320.932129 57.2983422,321.195798 56.8369141,321.723145 C56.375486,322.250491 56.1447754,322.907223 56.1447754,323.693359 L56.1447754,328 L54.9289551,328 L54.9289551,319.972656 L55.932373,319.972656 L56.0715332,321.459473 L56.130127,321.459473 C56.42798,320.937009 56.7868631,320.534181 57.2067871,320.250977 C57.6267111,319.967772 58.0881323,319.826172 58.5910645,319.826172 Z M67.6804199,323.979004 C67.6804199,325.287604 67.3508334,326.309322 66.6916504,327.044189 C66.0324674,327.779056 65.121832,328.146484 63.9597168,328.146484 C63.2419398,328.146484 62.6047391,327.978029 62.0480957,327.641113 C61.4914523,327.304198 61.0617691,326.820804 60.7590332,326.190918 C60.4562973,325.561032 60.3049316,324.823735 60.3049316,323.979004 C60.3049316,322.670404 60.6320768,321.651127 61.286377,320.921143 C61.9406771,320.191158 62.8488711,319.826172 64.0109863,319.826172 C65.1340388,319.826172 66.0263639,320.199703 66.6879883,320.946777 C67.3496127,321.693851 67.6804199,322.704583 67.6804199,323.979004 Z M61.5646973,323.979004 C61.5646973,325.0044 61.7697733,325.785642 62.1799316,326.322754 C62.5900899,326.859866 63.1931113,327.128418 63.9890137,327.128418 C64.7849161,327.128418 65.3891581,326.861087 65.8017578,326.326416 C66.2143575,325.791745 66.4206543,325.009282 66.4206543,323.979004 C66.4206543,322.958491 66.2143575,322.183352 65.8017578,321.653564 C65.3891581,321.123777 64.7800333,320.858887 63.9743652,320.858887 C63.1784628,320.858887 62.5778829,321.120115 62.1726074,321.642578 C61.767332,322.165042 61.5646973,322.943842 61.5646973,323.979004 Z M73.0197754,328.146484 C71.8576602,328.146484 70.958011,327.788822 70.3208008,327.073486 C69.6835906,326.358151 69.3649902,325.346198 69.3649902,324.037598 C69.3649902,322.694818 69.6884733,321.65723 70.3354492,320.924805 C70.9824251,320.192379 71.9040468,319.826172 73.1003418,319.826172 C73.4860859,319.826172 73.8718242,319.867675 74.2575684,319.950684 C74.6433125,320.033692 74.9460438,320.131347 75.1657715,320.243652 L74.7922363,321.276367 C74.5236803,321.168945 74.2307145,321.079834 73.9133301,321.009033 C73.5959457,320.938232 73.3151868,320.902832 73.0710449,320.902832 C71.4401774,320.902832 70.6247559,321.942861 70.6247559,324.022949 C70.6247559,325.009282 70.8237285,325.766111 71.2216797,326.293457 C71.6196309,326.820803 72.2092246,327.084473 72.9904785,327.084473 C73.6594272,327.084473 74.3454555,326.940431 75.048584,326.652344 L75.048584,327.729004 C74.5114719,328.007326 73.8352092,328.146484 73.0197754,328.146484 Z M80.3439941,328.146484 C79.1574648,328.146484 78.2211948,327.78516 77.5351562,327.0625 C76.8491177,326.33984 76.5061035,325.336432 76.5061035,324.052246 C76.5061035,322.758294 76.8247038,321.730473 77.4619141,320.96875 C78.0991243,320.207027 78.9548286,319.826172 80.0290527,319.826172 C81.0349171,319.826172 81.8308076,320.156979 82.416748,320.818604 C83.0026885,321.480228 83.2956543,322.353022 83.2956543,323.437012 L83.2956543,324.206055 L77.7658691,324.206055 C77.7902833,325.148442 78.0283181,325.863767 78.4799805,326.352051 C78.9316429,326.840334 79.5676229,327.084473 80.3879395,327.084473 C81.2522016,327.084473 82.1066852,326.90381 82.951416,326.54248 L82.951416,327.626465 C82.5217264,327.812013 82.1152363,327.945068 81.7319336,328.025635 C81.3486309,328.106202 80.885989,328.146484 80.3439941,328.146484 Z M80.0144043,320.844238 C79.3698698,320.844238 78.8559589,321.054197 78.4726562,321.474121 C78.0893536,321.894045 77.8635257,322.475094 77.795166,323.217285 L81.9919434,323.217285 C81.9919434,322.45068 81.8210466,321.863527 81.479248,321.455811 C81.1374495,321.048094 80.6491731,320.844238 80.0144043,320.844238 Z M90.5466309,325.810059 C90.5466309,326.557133 90.2683133,327.133299 89.7116699,327.538574 C89.1550265,327.94385 88.3737843,328.146484 87.3679199,328.146484 C86.3034615,328.146484 85.4733917,327.978029 84.8776855,327.641113 L84.8776855,326.513184 C85.2634297,326.708497 85.6772439,326.862304 86.1191406,326.974609 C86.5610374,327.086915 86.9870585,327.143066 87.3972168,327.143066 C88.0319856,327.143066 88.520262,327.041749 88.8620605,326.839111 C89.2038591,326.636474 89.3747559,326.327639 89.3747559,325.912598 C89.3747559,325.600096 89.2392592,325.332765 88.9682617,325.110596 C88.724364,324.910644 88.2718413,324.678065 87.6106821,324.412854 L86.9165297,324.142939 C86.4101636,323.938705 86.0345064,323.755887 85.7895508,323.594482 C85.4746078,323.386962 85.2402351,323.151369 85.0864258,322.887695 C84.9326164,322.624022 84.8557129,322.309084 84.8557129,321.942871 C84.8557129,321.288571 85.1218235,320.772219 85.6540527,320.393799 C86.186282,320.015379 86.9162551,319.826172 87.8439941,319.826172 C88.7082563,319.826172 89.5529744,320.001951 90.3781738,320.353516 L89.9460449,321.342285 C89.1403768,321.010252 88.4104037,320.844238 87.7561035,320.844238 C87.1799288,320.844238 86.7453628,320.934569 86.4523926,321.115234 C86.1594224,321.295899 86.0129395,321.54492 86.0129395,321.862305 C86.0129395,322.07715 86.0678705,322.260253 86.1777344,322.411621 C86.2875982,322.562989 86.4645984,322.707031 86.7087402,322.84375 C86.9257552,322.965278 87.3202346,323.13503 87.8921884,323.353009 L88.1149902,323.437012 C89.0671434,323.783693 89.7104475,324.132811 90.0449219,324.484375 C90.3793962,324.835939 90.5466309,325.277829 90.5466309,325.810059 Z M97.7023926,325.810059 C97.7023926,326.557133 97.424075,327.133299 96.8674316,327.538574 C96.3107882,327.94385 95.529546,328.146484 94.5236816,328.146484 C93.4592232,328.146484 92.6291534,327.978029 92.0334473,327.641113 L92.0334473,326.513184 C92.4191914,326.708497 92.8330056,326.862304 93.2749023,326.974609 C93.7167991,327.086915 94.1428202,327.143066 94.5529785,327.143066 C95.1877473,327.143066 95.6760237,327.041749 96.0178223,326.839111 C96.3596208,326.636474 96.5305176,326.327639 96.5305176,325.912598 C96.5305176,325.600096 96.3950209,325.332765 96.1240234,325.110596 C95.8801257,324.910644 95.427603,324.678065 94.7664438,324.412854 L94.0722914,324.142939 C93.5659253,323.938705 93.1902682,323.755887 92.9453125,323.594482 C92.6303695,323.386962 92.3959969,323.151369 92.2421875,322.887695 C92.0883781,322.624022 92.0114746,322.309084 92.0114746,321.942871 C92.0114746,321.288571 92.2775852,320.772219 92.8098145,320.393799 C93.3420437,320.015379 94.0720168,319.826172 94.9997559,319.826172 C95.864018,319.826172 96.7087361,320.001951 97.5339355,320.353516 L97.1018066,321.342285 C96.2961385,321.010252 95.5661654,320.844238 94.9118652,320.844238 C94.3356905,320.844238 93.9011245,320.934569 93.6081543,321.115234 C93.3151841,321.295899 93.1687012,321.54492 93.1687012,321.862305 C93.1687012,322.07715 93.2236323,322.260253 93.3334961,322.411621 C93.4433599,322.562989 93.6203601,322.707031 93.864502,322.84375 C94.0543901,322.950087 94.3801494,323.093346 94.8417866,323.273527 L95.270752,323.437012 C96.2229052,323.783693 96.8662093,324.132811 97.2006836,324.484375 C97.5351579,324.835939 97.7023926,325.277829 97.7023926,325.810059 Z M40.6467285,345 L40.4050293,343.857422 L40.3464355,343.857422 C39.9460429,344.360354 39.546877,344.700927 39.1489258,344.87915 C38.7509746,345.057374 38.2541534,345.146484 37.6584473,345.146484 C36.8625448,345.146484 36.2387718,344.941408 35.7871094,344.53125 C35.335447,344.121092 35.1096191,343.537601 35.1096191,342.780762 C35.1096191,341.15966 36.4059929,340.310059 38.9987793,340.231934 L40.361084,340.187988 L40.361084,339.689941 C40.361084,339.060055 40.2255873,338.594972 39.9545898,338.294678 C39.6835924,337.994383 39.2502471,337.844238 38.654541,337.844238 C37.9855924,337.844238 37.228764,338.049314 36.3840332,338.459473 L36.010498,337.529297 C36.4060078,337.314452 36.8393531,337.145997 37.3105469,337.023926 C37.7817406,336.901855 38.254148,336.84082 38.7277832,336.84082 C39.6848192,336.84082 40.3940407,337.053221 40.8554688,337.478027 C41.3168968,337.902834 41.5476074,338.58398 41.5476074,339.521484 L41.5476074,345 L40.6467285,345 Z M37.9001465,344.143066 C38.6569862,344.143066 39.2514627,343.935549 39.6835938,343.520508 C40.1157248,343.105467 40.3317871,342.524418 40.3317871,341.777344 L40.3317871,341.052246 L39.1159668,341.103516 C38.1491651,341.137695 37.4521506,341.28784 37.0249023,341.553955 C36.5976541,341.82007 36.3840332,342.233884 36.3840332,342.79541 C36.3840332,343.234865 36.5170885,343.569335 36.7832031,343.798828 C37.0493177,344.028321 37.4216285,344.143066 37.9001465,344.143066 Z M49.5163574,343.92334 L49.4504395,343.92334 C48.8889132,344.738774 48.0490779,345.146484 46.9309082,345.146484 C45.8810983,345.146484 45.064456,344.787601 44.480957,344.069824 C43.897458,343.352047 43.6057129,342.33155 43.6057129,341.008301 C43.6057129,339.685052 43.8986787,338.65723 44.4846191,337.924805 C45.0705596,337.192379 45.8859811,336.826172 46.9309082,336.826172 C48.0197808,336.826172 48.8547334,337.221676 49.435791,338.012695 L49.5310059,338.012695 L49.4797363,337.434082 L49.4504395,336.870117 L49.4504395,333.603516 L50.6662598,333.603516 L50.6662598,345 L49.6774902,345 L49.5163574,343.92334 Z M47.0847168,344.128418 C47.9147991,344.128418 48.5165997,343.90259 48.8901367,343.450928 C49.2636737,342.999265 49.4504395,342.270513 49.4504395,341.264648 L49.4504395,341.008301 C49.4504395,339.8706 49.2612324,339.05884 48.8828125,338.572998 C48.5043926,338.087156 47.9001506,337.844238 47.0700684,337.844238 C46.3571742,337.844238 45.8115253,338.121335 45.4331055,338.675537 C45.0546856,339.229739 44.8654785,340.012202 44.8654785,341.022949 C44.8654785,342.048345 45.0534649,342.822263 45.4294434,343.344727 C45.8054218,343.86719 46.3571741,344.128418 47.0847168,344.128418 Z M58.7375488,345 L58.7375488,339.807129 C58.7375488,339.152829 58.5886245,338.664552 58.2907715,338.342285 C57.9929184,338.020018 57.5266145,337.858887 56.8918457,337.858887 C56.0471149,337.858887 55.430666,338.088377 55.0424805,338.547363 C54.6542949,339.00635 54.4602051,339.758296 54.4602051,340.803223 L54.4602051,345 L53.2443848,345 L53.2443848,333.603516 L54.4602051,333.603516 L54.4602051,337.053223 C54.4602051,337.468264 54.440674,337.812499 54.4016113,338.085938 L54.4748535,338.085938 C54.7141125,337.700193 55.0546853,337.396241 55.496582,337.174072 C55.9384788,336.951903 56.4426241,336.84082 57.0090332,336.84082 C57.9904834,336.84082 58.72656,337.073972 59.2172852,337.540283 C59.7080103,338.006594 59.9533691,338.747554 59.9533691,339.763184 L59.9533691,345 L58.7375488,345 Z M65.842041,345.146484 C64.6555116,345.146484 63.7192417,344.78516 63.0332031,344.0625 C62.3471645,343.33984 62.0041504,342.336432 62.0041504,341.052246 C62.0041504,339.758294 62.3227507,338.730473 62.9599609,337.96875 C63.5971712,337.207027 64.4528755,336.826172 65.5270996,336.826172 C66.532964,336.826172 67.3288545,337.156979 67.9147949,337.818604 C68.5007354,338.480228 68.7937012,339.353022 68.7937012,340.437012 L68.7937012,341.206055 L63.263916,341.206055 C63.2883302,342.148442 63.5263649,342.863767 63.9780273,343.352051 C64.4296898,343.840334 65.0656697,344.084473 65.8859863,344.084473 C66.7502485,344.084473 67.6047321,343.90381 68.4494629,343.54248 L68.4494629,344.626465 C68.0197732,344.812013 67.6132832,344.945068 67.2299805,345.025635 C66.8466778,345.106202 66.3840359,345.146484 65.842041,345.146484 Z M65.5124512,337.844238 C64.8679167,337.844238 64.3540058,338.054197 63.9707031,338.474121 C63.5874004,338.894045 63.3615726,339.475094 63.2932129,340.217285 L67.4899902,340.217285 C67.4899902,339.45068 67.3190935,338.863527 66.9772949,338.455811 C66.6354963,338.048094 66.14722,337.844238 65.5124512,337.844238 Z M74.5285645,336.826172 C74.8850115,336.826172 75.2048326,336.855468 75.4880371,336.914062 L75.3195801,338.041992 C74.9875472,337.96875 74.6945813,337.932129 74.4406738,337.932129 C73.7912565,337.932129 73.2358422,338.195798 72.7744141,338.723145 C72.312986,339.250491 72.0822754,339.907223 72.0822754,340.693359 L72.0822754,345 L70.8664551,345 L70.8664551,336.972656 L71.869873,336.972656 L72.0090332,338.459473 L72.067627,338.459473 C72.36548,337.937009 72.7243631,337.534181 73.1442871,337.250977 C73.5642111,336.967772 74.0256323,336.826172 74.5285645,336.826172 Z M80.0803223,345.146484 C78.8937929,345.146484 77.957523,344.78516 77.2714844,344.0625 C76.5854458,343.33984 76.2424316,342.336432 76.2424316,341.052246 C76.2424316,339.758294 76.561032,338.730473 77.1982422,337.96875 C77.8354524,337.207027 78.6911567,336.826172 79.7653809,336.826172 C80.7712453,336.826172 81.5671357,337.156979 82.1530762,337.818604 C82.7390166,338.480228 83.0319824,339.353022 83.0319824,340.437012 L83.0319824,341.206055 L77.5021973,341.206055 C77.5266115,342.148442 77.7646462,342.863767 78.2163086,343.352051 C78.667971,343.840334 79.303951,344.084473 80.1242676,344.084473 C80.9885297,344.084473 81.8430134,343.90381 82.6877441,343.54248 L82.6877441,344.626465 C82.2580545,344.812013 81.8515644,344.945068 81.4682617,345.025635 C81.084959,345.106202 80.6223172,345.146484 80.0803223,345.146484 Z M79.7507324,337.844238 C79.1061979,337.844238 78.5922871,338.054197 78.2089844,338.474121 C77.8256817,338.894045 77.5998539,339.475094 77.5314941,340.217285 L81.7282715,340.217285 C81.7282715,339.45068 81.5573748,338.863527 81.2155762,338.455811 C80.8737776,338.048094 80.3855012,337.844238 79.7507324,337.844238 Z M90.5979004,345 L90.5979004,339.807129 C90.5979004,339.152829 90.4489761,338.664552 90.151123,338.342285 C89.85327,338.020018 89.3869661,337.858887 88.7521973,337.858887 C87.9123493,337.858887 87.2971211,338.085935 86.9064941,338.540039 C86.5158672,338.994143 86.3205566,339.743647 86.3205566,340.788574 L86.3205566,345 L85.1047363,345 L85.1047363,336.972656 L86.0935059,336.972656 L86.2912598,338.071289 L86.3498535,338.071289 C86.5988782,337.675779 86.9479958,337.369386 87.3972168,337.1521 C87.8464378,336.934813 88.3469211,336.826172 88.8986816,336.826172 C89.8654833,336.826172 90.5930151,337.059324 91.0812988,337.525635 C91.5695825,337.991946 91.8137207,338.737788 91.8137207,339.763184 L91.8137207,345 L90.5979004,345 Z M97.5192871,345.146484 C96.3571719,345.146484 95.4575227,344.788822 94.8203125,344.073486 C94.1831023,343.358151 93.864502,342.346198 93.864502,341.037598 C93.864502,339.694818 94.187985,338.65723 94.8349609,337.924805 C95.4819368,337.192379 96.4035585,336.826172 97.5998535,336.826172 C97.9855976,336.826172 98.371336,336.867675 98.7570801,336.950684 C99.1428242,337.033692 99.4455555,337.131347 99.6652832,337.243652 L99.291748,338.276367 C99.023192,338.168945 98.7302262,338.079834 98.4128418,338.009033 C98.0954574,337.938232 97.8146985,337.902832 97.5705566,337.902832 C95.9396891,337.902832 95.1242676,338.942861 95.1242676,341.022949 C95.1242676,342.009282 95.3232402,342.766111 95.7211914,343.293457 C96.1191426,343.820803 96.7087363,344.084473 97.4899902,344.084473 C98.1589389,344.084473 98.8449672,343.940431 99.5480957,343.652344 L99.5480957,344.729004 C99.0109836,345.007326 98.3347209,345.146484 97.5192871,345.146484 Z M104.528564,336.826172 C105.534429,336.826172 106.330319,337.156979 106.91626,337.818604 C107.5022,338.480228 107.795166,339.353022 107.795166,340.437012 L107.795166,341.206055 L102.265381,341.206055 C102.289795,342.148442 102.52783,342.863767 102.979492,343.352051 C103.431155,343.840334 104.067135,344.084473 104.887451,344.084473 C105.751713,344.084473 106.606197,343.90381 107.450928,343.54248 L107.450928,344.626465 C107.021238,344.812013 106.614748,344.945068 106.231445,345.025635 C105.848143,345.106202 105.385501,345.146484 104.843506,345.146484 C103.656976,345.146484 102.720707,344.78516 102.034668,344.0625 C101.348629,343.33984 101.005615,342.336432 101.005615,341.052246 C101.005615,339.758294 101.324216,338.730473 101.961426,337.96875 C102.598636,337.207027 103.45434,336.826172 104.528564,336.826172 Z M104.513916,337.844238 C103.869382,337.844238 103.355471,338.054197 102.972168,338.474121 C102.588865,338.894045 102.363037,339.475094 102.294678,340.217285 L102.294678,340.217285 L106.491455,340.217285 C106.491455,339.45068 106.320558,338.863527 105.97876,338.455811 C105.636961,338.048094 105.148685,337.844238 104.513916,337.844238 Z" id="Processadherence" fill="#7F8990"></path>
            <path d="M75.42,130.61 C78.96,130.61 81.84,133.48 81.84,137.03 C81.84,140.57 78.96,143.45 75.42,143.45 C71.87,143.45 69,140.57 69,137.03 C69,133.48 71.87,130.61 75.42,130.61 Z" id="Path" stroke="#68EDEE" stroke-width="2" fill="#F2F3F4"></path>
            <path d="M36.42,114.61 C39.96,114.61 42.84,117.48 42.84,121.03 C42.84,124.57 39.96,127.45 36.42,127.45 C32.87,127.45 30,124.57 30,121.03 C30,117.48 32.87,114.61 36.42,114.61 Z" id="Path" stroke="#BFC5CA" fill="#F2F3F4"></path>
            <path d="M53.68,114.61 C57.22,114.61 60.1,117.48 60.1,121.03 C60.1,124.57 57.22,127.45 53.68,127.45 C50.13,127.45 47.26,124.57 47.26,121.03 C47.26,117.48 50.13,114.61 53.68,114.61 Z" id="Path" stroke="#BFC5CA" fill="#F2F3F4"></path>
            <path d="M57.08,130.61 C60.62,130.61 63.5,133.48 63.5,137.03 C63.5,140.57 60.62,143.45 57.08,143.45 C53.53,143.45 50.66,140.57 50.66,137.03 C50.66,133.48 53.53,130.61 57.08,130.61 Z" id="Path" stroke="#68EDEE" stroke-width="2" fill="#F2F3F4"></path>
            <polygon id="Path" fill="#BFC5CA" points="23.34 120.17 30.99 120.17 30.99 122.03 23.34 122.03"></polygon>
            <polygon id="Path" fill="#BFC5CA" points="58.34 120.17 65.99 120.17 65.99 122.03 58.34 122.03"></polygon>
            <polygon id="Path" fill="#BFC5CA" points="23.35 136.17 52.48 136.17 52.48 138.03 23.35 138.03"></polygon>
            <path d="M37.42,130.61 C40.96,130.61 43.84,133.48 43.84,137.03 C43.84,140.57 40.96,143.45 37.42,143.45 C33.87,143.45 31,140.57 31,137.03 C31,133.48 33.87,130.61 37.42,130.61 Z" id="Path" stroke="#68EDEE" stroke-width="2" fill="#F2F3F4"></path>
            <polygon id="Path" fill="#BFC5CA" points="41.16 120.17 49.26 120.17 49.26 122.03 41.16 122.03"></polygon>
            <polygon id="Path" fill="#BFC5CA" points="63.16 136.17 71.26 136.17 71.26 138.03 63.16 138.03"></polygon>
            <path d="M202.73,55.12 L202.73,30.71 L212.69,30.71 L214.54,29.64 C214.52,29.62 214.5,29.61 214.48,29.59 C214.43,29.52 214.37,29.46 214.3,29.42 C214.29,29.41 214.28,29.4 214.27,29.4 C214.16,29.34 214.05,29.3 213.93,29.3 L202.73,29.3 L202.73,27.45 C204.18,27.13 205.28,25.83 205.28,24.27 C205.28,22.47 203.82,21.01 202.02,21.01 C200.23,21.01 198.77,22.47 198.77,24.27 C198.77,25.83 199.86,27.13 201.32,27.45 L201.32,29.3 L190.12,29.3 C189.99,29.3 189.88,29.34 189.78,29.4 C189.77,29.4 189.76,29.41 189.75,29.42 C189.68,29.47 189.62,29.52 189.57,29.59 C189.55,29.61 189.52,29.62 189.51,29.64 L191.36,30.71 L201.32,30.71 L201.32,55.12 M201.32,50.34 L201.32,51.75 L196.66,51.75 C196.27,51.75 195.96,52.07 195.96,52.46 C195.96,52.85 196.27,53.16 196.66,53.16 L201.32,53.16 L201.32,54.58 L194.2,54.58 C193.81,54.58 193.5,54.89 193.5,55.28 C193.5,55.67 193.81,55.99 194.2,55.99 L209.85,55.99 C210.23,55.99 210.55,55.67 210.55,55.28 C210.55,54.89 210.24,54.58 209.85,54.58 L202.73,54.58 L202.73,53.16 L207.39,53.16 C207.77,53.16 208.09,52.85 208.09,52.46 C208.09,52.07 207.78,51.75 207.39,51.75 L202.73,51.75 L202.73,50.34 M202.03,22.42 C202.79,22.42 203.45,22.89 203.73,23.56 L200.32,23.56 C200.6,22.89 201.26,22.42 202.03,22.42 Z M200.32,24.97 L203.73,24.97 C203.45,25.65 202.79,26.12 202.02,26.12 C201.26,26.12 200.6,25.65 200.32,24.97 Z" id="Shape" fill="#BFC5CA"></path>
            <path d="M190.12,29.3 C189.99,29.3 189.88,29.34 189.78,29.4 C189.77,29.4 189.76,29.41 189.75,29.42 C189.68,29.47 189.62,29.52 189.57,29.59 C189.55,29.61 189.52,29.62 189.51,29.64 L181.42,43.05 C181.25,43.33 181.3,43.71 181.55,43.93 C181.7,44.08 185.42,47.47 190.11,47.47 C194.28,47.47 197.67,44.79 198.49,44.1 C198.82,44.04 199.08,43.76 199.08,43.41 C199.08,43.11 198.89,42.86 198.62,42.76 L191.36,30.71 M190.11,30.9 L197.52,43.17 L182.71,43.17 L190.11,30.9 Z M184.17,44.12 L196.07,44.12 C194.67,45.01 192.51,46.06 190.11,46.06 C187.72,46.06 185.57,45.01 184.17,44.12 Z" id="Shape" stroke="#3CECEC" fill="#3CECEC" opacity="0.8"></path>
            <path d="M215.12,29.3 C214.99,29.3 214.88,29.34 214.78,29.4 C214.77,29.4 214.76,29.41 214.75,29.42 C214.68,29.47 214.62,29.52 214.57,29.59 C214.55,29.61 214.52,29.62 214.51,29.64 L206.42,43.05 C206.25,43.33 206.3,43.71 206.55,43.93 C206.7,44.08 210.42,47.47 215.11,47.47 C219.28,47.47 222.67,44.79 223.49,44.1 C223.82,44.04 224.08,43.76 224.08,43.41 C224.08,43.11 223.89,42.86 223.62,42.76 L216.36,30.71 M215.11,30.76 L222.69,43.31 L207.54,43.31 L215.11,30.76 Z M209.17,44.12 L221.07,44.12 C219.67,45.01 217.51,46.06 215.11,46.06 C212.72,46.06 210.57,45.01 209.17,44.12 Z" id="Shape" stroke="#3CECEC" fill="#3CECEC" opacity="0.8"></path>
            <g id="Group" transform="translate(41.000000, 277.000000)">
                <path d="M6.42,14.61 C9.96,14.61 12.84,17.48 12.84,21.03 C12.84,24.57 9.96,27.45 6.42,27.45 C2.87,27.45 0,24.57 0,21.03 C0,17.48 2.87,14.61 6.42,14.61 Z" id="Path" stroke="#BFC5CA" fill="#F2F3F4"></path>
                <path d="M26.68,14.61 C30.22,14.61 33.1,17.48 33.1,21.03 C33.1,24.57 30.22,27.45 26.68,27.45 C23.13,27.45 20.26,24.57 20.26,21.03 C20.26,17.48 23.13,14.61 26.68,14.61 Z" id="Path" stroke="#BFC5CA" fill="#F2F3F4"></path>
                <path d="M47.08,14.61 C50.62,14.61 53.5,17.48 53.5,21.03 C53.5,24.57 50.62,27.45 47.08,27.45 C43.53,27.45 40.66,24.57 40.66,21.03 C40.66,17.48 43.53,14.61 47.08,14.61 Z" id="Path" stroke="#BFC5CA" fill="#F2F3F4"></path>
                <polygon id="Path" fill="#3CECEC" points="13.33 20.17 20.63 20.17 20.63 22.03 13.33 22.03"></polygon>
                <polygon id="Path" fill="#3CECEC" points="6.92 16.46 6.92 0.85 8.78 0.85 8.78 16.46"></polygon>
                <polyline id="Path" fill="#3CECEC" points="10.87 0.4 16.56 6.1 10.87 11.79"></polyline>
                <polygon id="Path" fill="#3CECEC" points="32.16 20.17 41.73 20.17 41.73 22.03 32.16 22.03"></polygon>
            </g>
            <polygon id="Path" fill="#506478" opacity="0.2" points="194.82 135.45 196.1 136.77 202.71 130.06 204.53 130.04 211.24 136.65 212.5 135.31 203.59 126.54"></polygon>
            <polygon id="Path" fill="#506478" opacity="0.2" points="125.06 186.26 126.8 185.66 123.53 176.83 124.28 175.18 133.11 171.9 132.43 170.19 120.71 174.54"></polygon>
            <polygon id="Path" fill="#506478" opacity="0.2" points="131.06 254.18 132.8 254.78 129.53 263.61 130.28 265.26 139.11 268.54 138.43 270.25 126.71 265.9"></polygon>
            <polygon id="Path" fill="#506478" opacity="0.2" points="277.65 186.26 275.91 185.66 279.19 176.83 278.44 175.18 269.61 171.9 270.29 170.19 282.01 174.54"></polygon>
            <polygon id="Path" fill="#506478" opacity="0.2" points="278.65 250.18 276.91 250.78 280.19 259.61 279.44 261.26 270.61 264.54 271.29 266.25 283.01 261.9"></polygon>
            <path d="M332,131 C332,131 339.9,136.28 347.84,136.28 C355.89,136.28 364,131 364,131 L364,151 L332,151 L332,131 Z" id="Path" stroke="#BFC5CA" stroke-width="2" fill="#F2F3F4"></path>
            <path d="M325.2,145.13 L325.2,129.82 L330.99,131.89 C330.99,131.89 339.55,137.02 347.93,137.02 C355.96,137.02 363.82,131.89 363.82,131.89 L374.77,127.98 C375.66,127.67 375.63,126.39 374.72,126.13 L374.72,126.13 L347.73,116.46 C347.64,116.43 347.55,116.41 347.45,116.4 L347.45,116.4 C347.33,116.4 347.2,116.42 347.08,116.46 L320.06,126.14 C319.17,126.43 319.17,127.68 320.05,127.97 L323.27,129.13 L323.27,145.13 M323.27,144.45 C323.25,145.76 325.22,145.76 325.2,144.45 M347.41,118.39 L371.63,127.05 L347.41,135.7 L323.19,127.05 L347.41,118.39 Z M347.41,126.1 C346.34,126.1 345.48,126.53 345.48,127.07 C345.48,127.6 346.34,128.03 347.41,128.03 C348.48,128.03 349.34,127.6 349.34,127.07 C349.34,126.53 348.48,126.1 347.41,126.1 Z M347.08,137.63 C347.29,137.71 347.52,137.71 347.73,137.63 L347.08,137.63 Z" id="Shape" fill="#3CECEC"></path>
            <path d="M177.927979,85 L177.927979,74.2919922 L179.173096,74.2919922 L179.173096,85 L177.927979,85 Z M187.420166,85 L187.420166,79.8071289 C187.420166,79.1528288 187.271242,78.6645524 186.973389,78.3422852 C186.675536,78.0200179 186.209232,77.8588867 185.574463,77.8588867 C184.734615,77.8588867 184.119387,78.0859352 183.72876,78.5400391 C183.338133,78.9941429 183.142822,79.7436471 183.142822,80.7885742 L183.142822,85 L181.927002,85 L181.927002,76.9726562 L182.915771,76.9726562 L183.113525,78.0712891 L183.172119,78.0712891 C183.421144,77.6757793 183.770261,77.3693859 184.219482,77.1520996 C184.668703,76.9348134 185.169187,76.8261719 185.720947,76.8261719 C186.687749,76.8261719 187.415281,77.0593238 187.903564,77.5256348 C188.391848,77.9919457 188.635986,78.7377878 188.635986,79.7631836 L188.635986,85 L187.420166,85 Z M193.726318,84.1430664 C193.941163,84.1430664 194.148681,84.1271974 194.348877,84.095459 C194.549073,84.0637205 194.707763,84.0307619 194.824951,83.996582 L194.824951,84.9267578 C194.693115,84.9902347 194.499025,85.0427244 194.242676,85.0842285 C193.986327,85.1257326 193.755616,85.1464844 193.550537,85.1464844 C191.997795,85.1464844 191.221436,84.3286215 191.221436,82.6928711 L191.221436,77.9174805 L190.071533,77.9174805 L190.071533,77.331543 L191.221436,76.8261719 L191.734131,75.1123047 L192.437256,75.1123047 L192.437256,76.9726562 L194.766357,76.9726562 L194.766357,77.9174805 L192.437256,77.9174805 L192.437256,82.6416016 C192.437256,83.1250024 192.552001,83.4960925 192.781494,83.7548828 C193.010987,84.0136732 193.325926,84.1430664 193.726318,84.1430664 Z M199.820068,85.1464844 C198.633539,85.1464844 197.697269,84.7851599 197.01123,84.0625 C196.325192,83.3398401 195.982178,82.3364322 195.982178,81.0522461 C195.982178,79.7582943 196.300778,78.7304726 196.937988,77.96875 C197.575198,77.2070274 198.430903,76.8261719 199.505127,76.8261719 C200.510991,76.8261719 201.306882,77.1569791 201.892822,77.8186035 C202.478763,78.4802279 202.771729,79.3530219 202.771729,80.4370117 L202.771729,81.2060547 L197.241943,81.2060547 C197.266358,82.1484422 197.504392,82.8637671 197.956055,83.3520508 C198.407717,83.8403345 199.043697,84.0844727 199.864014,84.0844727 C200.728276,84.0844727 201.582759,83.9038104 202.42749,83.5424805 L202.42749,84.6264648 C201.997801,84.8120126 201.591311,84.945068 201.208008,85.0256348 C200.824705,85.1062016 200.362063,85.1464844 199.820068,85.1464844 Z M199.490479,77.8442383 C198.845944,77.8442383 198.332033,78.0541971 197.94873,78.4741211 C197.565428,78.8940451 197.3396,79.4750939 197.27124,80.2172852 L201.468018,80.2172852 C201.468018,79.4506798 201.297121,78.8635274 200.955322,78.4558105 C200.613524,78.0480937 200.125247,77.8442383 199.490479,77.8442383 Z M211.414307,76.9726562 L211.414307,77.7416992 L209.92749,77.9174805 C210.06421,78.0883798 210.186279,78.3117662 210.293701,78.5876465 C210.401124,78.8635268 210.454834,79.174803 210.454834,79.5214844 C210.454834,80.3076211 210.186282,80.9350563 209.64917,81.4038086 C209.112058,81.8725609 208.374761,82.1069336 207.437256,82.1069336 C207.197997,82.1069336 206.97339,82.0874025 206.763428,82.0483398 C206.245847,82.3217787 205.987061,82.6660135 205.987061,83.0810547 C205.987061,83.3007823 206.077392,83.4631342 206.258057,83.5681152 C206.438722,83.6730962 206.748777,83.7255859 207.188232,83.7255859 L208.609131,83.7255859 C209.478276,83.7255859 210.145994,83.9086896 210.612305,84.2749023 C211.078616,84.6411151 211.311768,85.1733364 211.311768,85.871582 C211.311768,86.7602583 210.955326,87.4377418 210.242432,87.9040527 C209.529537,88.3703637 208.489509,88.6035156 207.122314,88.6035156 C206.072505,88.6035156 205.263186,88.4082051 204.694336,88.0175781 C204.125485,87.6269512 203.841064,87.0751989 203.841064,86.3623047 C203.841064,85.874021 203.997313,85.4516619 204.309814,85.0952148 C204.622316,84.7387677 205.061765,84.4970709 205.628174,84.3701172 C205.423095,84.2773433 205.250977,84.1333018 205.111816,83.9379883 C204.972656,83.7426748 204.903076,83.5156263 204.903076,83.2568359 C204.903076,82.9638657 204.9812,82.7075206 205.137451,82.487793 C205.293702,82.2680653 205.540282,82.0556651 205.877197,81.8505859 C205.462156,81.6796866 205.124025,81.3891622 204.862793,80.9790039 C204.601561,80.5688456 204.470947,80.1001003 204.470947,79.5727539 C204.470947,78.6938433 204.734617,78.0163598 205.261963,77.5402832 C205.789309,77.0642066 206.536372,76.8261719 207.503174,76.8261719 C207.923098,76.8261719 208.301512,76.8749995 208.638428,76.9726562 L211.414307,76.9726562 Z M205.012939,86.3476562 C205.012939,86.7822287 205.196043,87.1118153 205.562256,87.3364258 C205.928469,87.5610363 206.453366,87.6733398 207.136963,87.6733398 C208.157476,87.6733398 208.913083,87.5207535 209.403809,87.2155762 C209.894534,86.9103989 210.139893,86.4965846 210.139893,85.9741211 C210.139893,85.5395486 210.005617,85.238038 209.737061,85.0695801 C209.468505,84.9011222 208.963138,84.8168945 208.220947,84.8168945 L206.763428,84.8168945 C206.211667,84.8168945 205.781984,84.9487292 205.474365,85.2124023 C205.166747,85.4760755 205.012939,85.8544897 205.012939,86.3476562 Z M205.672119,79.543457 C205.672119,80.1049833 205.830809,80.5297837 206.148193,80.8178711 C206.465578,81.1059585 206.907468,81.25 207.473877,81.25 C208.660406,81.25 209.253662,80.6738339 209.253662,79.5214844 C209.253662,78.3154237 208.653082,77.7124023 207.451904,77.7124023 C206.880612,77.7124023 206.441164,77.8662094 206.133545,78.1738281 C205.825926,78.4814469 205.672119,78.9379853 205.672119,79.543457 Z M216.724365,76.8261719 C217.080812,76.8261719 217.400633,76.8554685 217.683838,76.9140625 L217.515381,78.0419922 C217.183348,77.9687496 216.890382,77.9321289 216.636475,77.9321289 C215.987057,77.9321289 215.431643,78.1957981 214.970215,78.7231445 C214.508787,79.2504909 214.278076,79.9072226 214.278076,80.6933594 L214.278076,85 L213.062256,85 L213.062256,76.9726562 L214.065674,76.9726562 L214.204834,78.4594727 L214.263428,78.4594727 C214.561281,77.9370091 214.920164,77.5341811 215.340088,77.2509766 C215.760012,76.967772 216.221433,76.8261719 216.724365,76.8261719 Z M220.401123,85 L219.185303,85 L219.185303,76.9726562 L220.401123,76.9726562 L220.401123,85 Z M219.082764,74.7973633 C219.082764,74.5190416 219.151122,74.3151862 219.287842,74.185791 C219.424561,74.0563958 219.595458,73.9916992 219.800537,73.9916992 C219.995851,73.9916992 220.164306,74.0576165 220.305908,74.1894531 C220.44751,74.3212897 220.518311,74.5239244 220.518311,74.7973633 C220.518311,75.0708021 220.44751,75.2746575 220.305908,75.4089355 C220.164306,75.5432136 219.995851,75.6103516 219.800537,75.6103516 C219.595458,75.6103516 219.424561,75.5432136 219.287842,75.4089355 C219.151122,75.2746575 219.082764,75.0708021 219.082764,74.7973633 Z M225.572021,84.1430664 C225.786866,84.1430664 225.994384,84.1271974 226.19458,84.095459 C226.394776,84.0637205 226.553466,84.0307619 226.670654,83.996582 L226.670654,84.9267578 C226.538818,84.9902347 226.344728,85.0427244 226.088379,85.0842285 C225.83203,85.1257326 225.601319,85.1464844 225.39624,85.1464844 C223.843498,85.1464844 223.067139,84.3286215 223.067139,82.6928711 L223.067139,77.9174805 L221.917236,77.9174805 L221.917236,77.331543 L223.067139,76.8261719 L223.579834,75.1123047 L224.282959,75.1123047 L224.282959,76.9726562 L226.612061,76.9726562 L226.612061,77.9174805 L224.282959,77.9174805 L224.282959,82.6416016 C224.282959,83.1250024 224.397704,83.4960925 224.627197,83.7548828 C224.856691,84.0136732 225.171629,84.1430664 225.572021,84.1430664 Z M227.000244,76.9726562 L228.303955,76.9726562 L230.061768,81.550293 L230.242432,82.0485449 C230.523195,82.8386125 230.702229,83.4269186 230.779541,83.8134766 L230.838135,83.8134766 L230.898788,83.593521 C230.935638,83.4669496 230.982273,83.3154877 231.038692,83.1391345 L231.321895,82.2880495 C231.592921,81.5048714 232.227561,79.7330867 233.22583,76.9726562 L234.529541,76.9726562 L231.079834,86.1132812 C230.738035,87.0166061 230.338869,87.6574688 229.882324,88.0358887 C229.425779,88.4143085 228.865482,88.6035156 228.201416,88.6035156 C227.83032,88.6035156 227.464113,88.5620121 227.102783,88.4790039 L227.102783,87.5048828 C227.371339,87.5634769 227.671629,87.5927734 228.003662,87.5927734 C228.838627,87.5927734 229.434324,87.1240281 229.790771,86.1865234 L230.237549,85.0439453 L227.000244,76.9726562 Z" id="Integrity" fill="#7F8990"></path>
            <path d="M23.7770996,170 L22.5319824,170 L22.5319824,160.397949 L19.1408691,160.397949 L19.1408691,159.291992 L27.1682129,159.291992 L27.1682129,160.397949 L23.7770996,160.397949 L23.7770996,170 Z M29.8122559,170 L28.5964355,170 L28.5964355,161.972656 L29.8122559,161.972656 L29.8122559,170 Z M28.4938965,159.797363 C28.4938965,159.519042 28.5622552,159.315186 28.6989746,159.185791 C28.835694,159.056396 29.0065908,158.991699 29.2116699,158.991699 C29.4069834,158.991699 29.5754387,159.057617 29.717041,159.189453 C29.8586433,159.32129 29.9294434,159.523924 29.9294434,159.797363 C29.9294434,160.070802 29.8586433,160.274658 29.717041,160.408936 C29.5754387,160.543214 29.4069834,160.610352 29.2116699,160.610352 C29.0065908,160.610352 28.835694,160.543214 28.6989746,160.408936 C28.5622552,160.274658 28.4938965,160.070802 28.4938965,159.797363 Z M42.6223145,170 L42.6223145,164.777832 C42.6223145,164.13818 42.4855971,163.658449 42.2121582,163.338623 C41.9387193,163.018797 41.5139189,162.858887 40.9377441,162.858887 C40.1809044,162.858887 39.621828,163.07617 39.260498,163.510742 C38.8991681,163.945315 38.7185059,164.614253 38.7185059,165.517578 L38.7185059,170 L37.5026855,170 L37.5026855,164.777832 C37.5026855,164.13818 37.3659682,163.658449 37.0925293,163.338623 C36.8190904,163.018797 36.3918486,162.858887 35.810791,162.858887 C35.0490685,162.858887 34.4912127,163.087156 34.137207,163.543701 C33.7832014,164.000246 33.6062012,164.74853 33.6062012,165.788574 L33.6062012,170 L32.3903809,170 L32.3903809,161.972656 L33.3791504,161.972656 L33.5769043,163.071289 L33.635498,163.071289 C33.8649914,162.680662 34.1884745,162.375489 34.605957,162.155762 C35.0234396,161.936034 35.4909642,161.826172 36.0085449,161.826172 C37.263434,161.826172 38.0837383,162.280269 38.4694824,163.188477 L38.5280762,163.188477 C38.7673352,162.768553 39.1140114,162.436525 39.5681152,162.192383 C40.0222191,161.948241 40.539792,161.826172 41.1208496,161.826172 C42.0290573,161.826172 42.7089821,162.059324 43.1606445,162.525635 C43.6123069,162.991946 43.8381348,163.737788 43.8381348,164.763184 L43.8381348,170 L42.6223145,170 Z M49.7341309,170.146484 C48.5476015,170.146484 47.6113316,169.78516 46.925293,169.0625 C46.2392544,168.33984 45.8962402,167.336432 45.8962402,166.052246 C45.8962402,164.758294 46.2148406,163.730473 46.8520508,162.96875 C47.489261,162.207027 48.3449653,161.826172 49.4191895,161.826172 C50.4250539,161.826172 51.2209443,162.156979 51.8068848,162.818604 C52.3928252,163.480228 52.685791,164.353022 52.685791,165.437012 L52.685791,166.206055 L47.1560059,166.206055 C47.18042,167.148442 47.4184548,167.863767 47.8701172,168.352051 C48.3217796,168.840334 48.9577596,169.084473 49.7780762,169.084473 C50.6423383,169.084473 51.4968219,168.90381 52.3415527,168.54248 L52.3415527,169.626465 C51.9118631,169.812013 51.505373,169.945068 51.1220703,170.025635 C50.7387676,170.106202 50.2761258,170.146484 49.7341309,170.146484 Z M49.404541,162.844238 C48.7600065,162.844238 48.2460957,163.054197 47.862793,163.474121 C47.4794903,163.894045 47.2536625,164.475094 47.1853027,165.217285 L51.3820801,165.217285 C51.3820801,164.45068 51.2111833,163.863527 50.8693848,163.455811 C50.5275862,163.048094 50.0393098,162.844238 49.404541,162.844238 Z M55.9743652,170 L54.7585449,170 L54.7585449,158.603516 L55.9743652,158.603516 L55.9743652,170 Z M59.7683105,170 L58.5524902,170 L58.5524902,161.972656 L59.7683105,161.972656 L59.7683105,170 Z M58.4499512,159.797363 C58.4499512,159.519042 58.5183099,159.315186 58.6550293,159.185791 C58.7917487,159.056396 58.9626455,158.991699 59.1677246,158.991699 C59.3630381,158.991699 59.5314934,159.057617 59.6730957,159.189453 C59.814698,159.32129 59.885498,159.523924 59.885498,159.797363 C59.885498,160.070802 59.814698,160.274658 59.6730957,160.408936 C59.5314934,160.543214 59.3630381,160.610352 59.1677246,160.610352 C58.9626455,160.610352 58.7917487,160.543214 58.6550293,160.408936 C58.5183099,160.274658 58.4499512,160.070802 58.4499512,159.797363 Z M67.8395996,170 L67.8395996,164.807129 C67.8395996,164.152829 67.6906753,163.664552 67.3928223,163.342285 C67.0949692,163.020018 66.6286653,162.858887 65.9938965,162.858887 C65.1540485,162.858887 64.5388203,163.085935 64.1481934,163.540039 C63.7575664,163.994143 63.5622559,164.743647 63.5622559,165.788574 L63.5622559,170 L62.3464355,170 L62.3464355,161.972656 L63.3352051,161.972656 L63.532959,163.071289 L63.5915527,163.071289 C63.8405774,162.675779 64.189695,162.369386 64.638916,162.1521 C65.088137,161.934813 65.5886203,161.826172 66.1403809,161.826172 C67.1071826,161.826172 67.8347144,162.059324 68.322998,162.525635 C68.8112817,162.991946 69.0554199,163.737788 69.0554199,164.763184 L69.0554199,170 L67.8395996,170 Z M74.9440918,170.146484 C73.7575624,170.146484 72.8212925,169.78516 72.1352539,169.0625 C71.4492153,168.33984 71.1062012,167.336432 71.1062012,166.052246 C71.1062012,164.758294 71.4248015,163.730473 72.0620117,162.96875 C72.6992219,162.207027 73.5549263,161.826172 74.6291504,161.826172 C75.6350148,161.826172 76.4309053,162.156979 77.0168457,162.818604 C77.6027861,163.480228 77.895752,164.353022 77.895752,165.437012 L77.895752,166.206055 L72.3659668,166.206055 C72.390381,167.148442 72.6284157,167.863767 73.0800781,168.352051 C73.5317405,168.840334 74.1677205,169.084473 74.9880371,169.084473 C75.8522992,169.084473 76.7067829,168.90381 77.5515137,168.54248 L77.5515137,169.626465 C77.121824,169.812013 76.7153339,169.945068 76.3320312,170.025635 C75.9487286,170.106202 75.4860867,170.146484 74.9440918,170.146484 Z M74.614502,162.844238 C73.9699675,162.844238 73.4560566,163.054197 73.0727539,163.474121 C72.6894512,163.894045 72.4636234,164.475094 72.3952637,165.217285 L76.592041,165.217285 C76.592041,164.45068 76.4211443,163.863527 76.0793457,163.455811 C75.7375471,163.048094 75.2492708,162.844238 74.614502,162.844238 Z M85.1467285,167.810059 C85.1467285,168.557133 84.868411,169.133299 84.3117676,169.538574 C83.7551242,169.94385 82.973882,170.146484 81.9680176,170.146484 C80.9035591,170.146484 80.0734893,169.978029 79.4777832,169.641113 L79.4777832,168.513184 C79.8635273,168.708497 80.2773415,168.862304 80.7192383,168.974609 C81.161135,169.086915 81.5871562,169.143066 81.9973145,169.143066 C82.6320833,169.143066 83.1203596,169.041749 83.4621582,168.839111 C83.8039568,168.636474 83.9748535,168.327639 83.9748535,167.912598 C83.9748535,167.600096 83.8393568,167.332765 83.5683594,167.110596 C83.3244617,166.910644 82.871939,166.678065 82.2107797,166.412854 L81.5166274,166.142939 C81.0102612,165.938705 80.6346041,165.755887 80.3896484,165.594482 C80.0747055,165.386962 79.8403328,165.151369 79.6865234,164.887695 C79.5327141,164.624022 79.4558105,164.309084 79.4558105,163.942871 C79.4558105,163.288571 79.7219212,162.772219 80.2541504,162.393799 C80.7863796,162.015379 81.5163528,161.826172 82.4440918,161.826172 C83.3083539,161.826172 84.153072,162.001951 84.9782715,162.353516 L84.5461426,163.342285 C83.7404745,163.010252 83.0105013,162.844238 82.3562012,162.844238 C81.7800264,162.844238 81.3454604,162.934569 81.0524902,163.115234 C80.75952,163.295899 80.6130371,163.54492 80.6130371,163.862305 C80.6130371,164.07715 80.6679682,164.260253 80.777832,164.411621 C80.8876959,164.562989 81.064696,164.707031 81.3088379,164.84375 C81.5258529,164.965278 81.9203323,165.13503 82.4922861,165.353009 L82.7150879,165.437012 C83.6672411,165.783693 84.3105452,166.132811 84.6450195,166.484375 C84.9794939,166.835939 85.1467285,167.277829 85.1467285,167.810059 Z M92.3024902,167.810059 C92.3024902,168.557133 92.0241727,169.133299 91.4675293,169.538574 C90.9108859,169.94385 90.1296437,170.146484 89.1237793,170.146484 C88.0593208,170.146484 87.229251,169.978029 86.6335449,169.641113 L86.6335449,168.513184 C87.019289,168.708497 87.4331033,168.862304 87.875,168.974609 C88.3168967,169.086915 88.7429179,169.143066 89.1530762,169.143066 C89.787845,169.143066 90.2761213,169.041749 90.6179199,168.839111 C90.9597185,168.636474 91.1306152,168.327639 91.1306152,167.912598 C91.1306152,167.600096 90.9951185,167.332765 90.7241211,167.110596 C90.4802234,166.910644 90.0277007,166.678065 89.3665414,166.412854 L88.6723891,166.142939 C88.166023,165.938705 87.7903658,165.755887 87.5454102,165.594482 C87.2304672,165.386962 86.9960945,165.151369 86.8422852,164.887695 C86.6884758,164.624022 86.6115723,164.309084 86.6115723,163.942871 C86.6115723,163.288571 86.8776829,162.772219 87.4099121,162.393799 C87.9421413,162.015379 88.6721145,161.826172 89.5998535,161.826172 C90.4641156,161.826172 91.3088338,162.001951 92.1340332,162.353516 L91.7019043,163.342285 C90.8962362,163.010252 90.166263,162.844238 89.5119629,162.844238 C88.9357881,162.844238 88.5012222,162.934569 88.208252,163.115234 C87.9152817,163.295899 87.7687988,163.54492 87.7687988,163.862305 C87.7687988,164.07715 87.8237299,164.260253 87.9335938,164.411621 C88.0434576,164.562989 88.2204578,164.707031 88.4645996,164.84375 C88.6544877,164.950087 88.980247,165.093346 89.4418842,165.273527 L89.8708496,165.437012 C90.8230028,165.783693 91.4663069,166.132811 91.8007812,166.484375 C92.1352556,166.835939 92.3024902,167.277829 92.3024902,167.810059 Z" id="Timeliness" fill="#7F8990"></path>
        </g>
        <path d="M187.04248,244 L185.216309,244 L185.216309,229.916992 L180.242676,229.916992 L180.242676,228.294922 L192.016113,228.294922 L192.016113,229.916992 L187.04248,229.916992 L187.04248,244 Z M198.38623,232.011719 C198.90902,232.011719 199.37809,232.054687 199.793457,232.140625 L199.546387,233.794922 C199.059405,233.687499 198.629722,233.633789 198.257324,233.633789 C197.304845,233.633789 196.490238,234.020504 195.813477,234.793945 C195.136715,235.567387 194.79834,236.530593 194.79834,237.683594 L194.79834,244 L193.015137,244 L193.015137,232.226562 L194.486816,232.226562 L194.690918,234.407227 L194.776855,234.407227 C195.213707,233.640947 195.740069,233.050132 196.355957,232.634766 C196.971846,232.219399 197.648597,232.011719 198.38623,232.011719 Z M203.671387,232.226562 L203.671387,239.864258 C203.671387,240.823898 203.889809,241.540037 204.32666,242.012695 C204.763511,242.485354 205.447424,242.72168 206.378418,242.72168 C207.610195,242.72168 208.510739,242.385095 209.080078,241.711914 C209.649417,241.038734 209.934082,239.939461 209.934082,238.414062 L209.934082,232.226562 L211.717285,232.226562 L211.717285,244 L210.245605,244 L209.987793,242.420898 L209.891113,242.420898 C209.525877,243.000979 209.019209,243.444985 208.371094,243.75293 C207.722979,244.060874 206.983565,244.214844 206.152832,244.214844 C204.720533,244.214844 203.648116,243.874678 202.935547,243.194336 C202.222978,242.513994 201.866699,241.425463 201.866699,239.928711 L201.866699,232.226562 L203.671387,232.226562 Z M220.472168,244.214844 C218.731925,244.214844 217.358729,243.684901 216.352539,242.625 C215.346349,241.565099 214.843262,240.093434 214.843262,238.209961 C214.843262,236.312165 215.310542,234.804693 216.245117,233.6875 C217.179692,232.570307 218.434725,232.011719 220.010254,232.011719 C221.485522,232.011719 222.652828,232.496903 223.512207,233.467285 C224.371586,234.437668 224.80127,235.717765 224.80127,237.307617 L224.80127,238.435547 L216.690918,238.435547 C216.726725,239.817715 217.075843,240.866858 217.738281,241.583008 C218.400719,242.299157 219.33349,242.657227 220.536621,242.657227 C221.804206,242.657227 223.057448,242.392255 224.296387,241.862305 L224.296387,243.452148 C223.666175,243.724285 223.06999,243.919433 222.507812,244.037598 C221.945635,244.155762 221.267094,244.214844 220.472168,244.214844 Z M219.98877,233.504883 C219.043452,233.504883 218.289716,233.812822 217.727539,234.428711 C217.165362,235.044599 216.834148,235.896804 216.733887,236.985352 L222.88916,236.985352 C222.88916,235.860997 222.638512,234.99984 222.137207,234.401855 C221.635902,233.803871 220.919764,233.504883 219.98877,233.504883 Z M176.590332,262.871094 C176.590332,264.460945 176.047857,265.683752 174.962891,266.539551 C173.877924,267.395349 172.325694,267.823242 170.306152,267.823242 L168.458496,267.823242 L168.458496,274 L166.632324,274 L166.632324,258.294922 L170.703613,258.294922 C174.628112,258.294922 176.590332,259.820297 176.590332,262.871094 Z M168.458496,266.254883 L170.102051,266.254883 C171.720548,266.254883 172.891435,265.993492 173.614746,265.470703 C174.338057,264.947914 174.699707,264.110032 174.699707,262.957031 C174.699707,261.918615 174.359541,261.145185 173.679199,260.636719 C172.998857,260.128253 171.938972,259.874023 170.499512,259.874023 L168.458496,259.874023 L168.458496,266.254883 Z M186.849121,274 L186.494629,272.324219 L186.408691,272.324219 C185.821449,273.061853 185.236006,273.561359 184.652344,273.822754 C184.068682,274.084148 183.340011,274.214844 182.466309,274.214844 C181.298985,274.214844 180.384118,273.914066 179.72168,273.3125 C179.059241,272.710934 178.728027,271.855149 178.728027,270.745117 C178.728027,268.367501 180.629376,267.12142 184.432129,267.006836 L186.430176,266.942383 L186.430176,266.211914 C186.430176,265.288081 186.231447,264.605959 185.833984,264.165527 C185.436521,263.725095 184.800948,263.504883 183.927246,263.504883 C182.946121,263.504883 181.836106,263.805661 180.597168,264.407227 L180.049316,263.042969 C180.629397,262.727863 181.264971,262.480795 181.956055,262.301758 C182.647139,262.12272 183.340003,262.033203 184.034668,262.033203 C185.438321,262.033203 186.478512,262.344723 187.155273,262.967773 C187.832035,263.590823 188.17041,264.589837 188.17041,265.964844 L188.17041,274 L186.849121,274 Z M182.820801,272.743164 C183.930832,272.743164 184.802731,272.438805 185.436523,271.830078 C186.070316,271.221351 186.387207,270.369146 186.387207,269.273438 L186.387207,268.209961 L184.604004,268.285156 C183.186028,268.335287 182.16374,268.555499 181.537109,268.945801 C180.910479,269.336102 180.597168,269.94303 180.597168,270.766602 C180.597168,271.411136 180.792316,271.901691 181.182617,272.238281 C181.572919,272.574871 182.118974,272.743164 182.820801,272.743164 Z M197.215332,262.011719 C197.738121,262.011719 198.207192,262.054687 198.622559,262.140625 L198.375488,263.794922 C197.888507,263.687499 197.458823,263.633789 197.086426,263.633789 C196.133947,263.633789 195.319339,264.020504 194.642578,264.793945 C193.965817,265.567387 193.627441,266.530593 193.627441,267.683594 L193.627441,274 L191.844238,274 L191.844238,262.226562 L193.315918,262.226562 L193.52002,264.407227 L193.605957,264.407227 C194.042808,263.640947 194.56917,263.050132 195.185059,262.634766 C195.800947,262.219399 196.477698,262.011719 197.215332,262.011719 Z M204.627441,272.743164 C204.942547,272.743164 205.246906,272.71989 205.540527,272.67334 C205.834149,272.62679 206.066894,272.578451 206.23877,272.52832 L206.23877,273.892578 C206.045409,273.985678 205.760744,274.062662 205.384766,274.123535 C205.008787,274.184408 204.670412,274.214844 204.369629,274.214844 C202.092274,274.214844 200.953613,273.015311 200.953613,270.616211 L200.953613,263.612305 L199.26709,263.612305 L199.26709,262.75293 L200.953613,262.011719 L201.705566,259.498047 L202.736816,259.498047 L202.736816,262.226562 L206.152832,262.226562 L206.152832,263.612305 L202.736816,263.612305 L202.736816,270.541016 C202.736816,271.250004 202.905109,271.794269 203.241699,272.173828 C203.578289,272.553387 204.040199,272.743164 204.627441,272.743164 Z M216.647949,274 L216.647949,266.383789 C216.647949,265.424149 216.429527,264.70801 215.992676,264.235352 C215.555825,263.762693 214.871912,263.526367 213.940918,263.526367 C212.709141,263.526367 211.806806,263.859372 211.233887,264.525391 C210.660967,265.19141 210.374512,266.290682 210.374512,267.823242 L210.374512,274 L208.591309,274 L208.591309,262.226562 L210.041504,262.226562 L210.331543,263.837891 L210.41748,263.837891 C210.782717,263.25781 211.294756,262.808433 211.953613,262.489746 C212.612471,262.17106 213.346513,262.011719 214.155762,262.011719 C215.573738,262.011719 216.640784,262.353675 217.356934,263.037598 C218.073083,263.72152 218.431152,264.815422 218.431152,266.319336 L218.431152,274 L216.647949,274 Z M227.067871,274.214844 C225.327628,274.214844 223.954432,273.684901 222.948242,272.625 C221.942052,271.565099 221.438965,270.093434 221.438965,268.209961 C221.438965,266.312165 221.906245,264.804693 222.84082,263.6875 C223.775395,262.570307 225.030428,262.011719 226.605957,262.011719 C228.081225,262.011719 229.248531,262.496903 230.10791,263.467285 C230.967289,264.437668 231.396973,265.717765 231.396973,267.307617 L231.396973,268.435547 L223.286621,268.435547 C223.322429,269.817715 223.671546,270.866858 224.333984,271.583008 C224.996423,272.299157 225.929193,272.657227 227.132324,272.657227 C228.399909,272.657227 229.653151,272.392255 230.89209,271.862305 L230.89209,273.452148 C230.261878,273.724285 229.665693,273.919433 229.103516,274.037598 C228.541338,274.155762 227.862797,274.214844 227.067871,274.214844 Z M226.584473,263.504883 C225.639155,263.504883 224.885419,263.812822 224.323242,264.428711 C223.761065,265.044599 223.429851,265.896804 223.32959,266.985352 L229.484863,266.985352 C229.484863,265.860997 229.234215,264.99984 228.73291,264.401855 C228.231606,263.803871 227.515467,263.504883 226.584473,263.504883 Z M239.808105,262.011719 C240.330895,262.011719 240.799965,262.054687 241.215332,262.140625 L240.968262,263.794922 C240.48128,263.687499 240.051597,263.633789 239.679199,263.633789 C238.72672,263.633789 237.912113,264.020504 237.235352,264.793945 C236.55859,265.567387 236.220215,266.530593 236.220215,267.683594 L236.220215,274 L234.437012,274 L234.437012,262.226562 L235.908691,262.226562 L236.112793,264.407227 L236.19873,264.407227 C236.635582,263.640947 237.161944,263.050132 237.777832,262.634766 C238.393721,262.219399 239.070472,262.011719 239.808105,262.011719 Z" id="TruePartner" fill="#000000" fill-rule="nonzero"></path>
    </g>
</svg>