<svg xmlns="http://www.w3.org/2000/svg" viewBox="0 0 65 65" width="65" height="65"><style>tspan { white-space:pre }.shp0 { fill: #cccccc } </style><path class="shp0" d="M57.47 5.89L7.44 5.89C5.55 5.89 4.02 7.44 4.02 9.34L4.02 54.46C4.02 56.36 5.55 57.9 7.44 57.9L57.47 57.9C59.35 57.9 60.88 56.36 60.88 54.46L60.88 9.34C60.88 7.44 59.35 5.89 57.47 5.89ZM31.53 11.67C31.53 10.97 32.09 10.4 32.79 10.4L34.05 10.4C34.75 10.4 35.31 10.97 35.31 11.67L35.31 13.11C35.31 13.81 34.75 14.38 34.05 14.38L32.79 14.38C32.09 14.38 31.53 13.81 31.53 13.11L31.53 11.67ZM25.66 11.67C25.66 10.97 26.22 10.4 26.92 10.4L28.18 10.4C28.88 10.4 29.44 10.97 29.44 11.67L29.44 13.11C29.44 13.81 28.88 14.38 28.18 14.38L26.92 14.38C26.22 14.38 25.66 13.81 25.66 13.11L25.66 11.67ZM56.78 53.77L8.12 53.77L8.12 18.2L56.78 18.2L56.78 53.77L56.78 53.77ZM41.18 13.11C41.18 13.81 40.61 14.38 39.92 14.38L38.66 14.38C37.96 14.38 37.39 13.81 37.39 13.11L37.39 11.67C37.39 10.97 37.96 10.4 38.66 10.4L39.92 10.4C40.61 10.4 41.18 10.97 41.18 11.67L41.18 13.11ZM13.97 27.98L42.4 27.98C43.97 27.98 45.25 29.23 45.25 30.78C45.25 32.33 43.97 33.59 42.4 33.59L13.97 33.59C12.4 33.59 11.13 32.33 11.13 30.78C11.13 29.23 12.4 27.98 13.97 27.98ZM15.23 38.75L31.03 38.75C32.6 38.75 33.87 40.01 33.87 41.56C33.87 43.11 32.6 44.36 31.03 44.36L15.23 44.36C13.66 44.36 12.39 43.11 12.39 41.56C12.39 40.01 13.66 38.75 15.23 38.75Z" /></svg>