<?xml version="1.0" encoding="UTF-8"?>
<svg width="45px" height="45px" viewBox="0 0 45 45" version="1.1" xmlns="http://www.w3.org/2000/svg" xmlns:xlink="http://www.w3.org/1999/xlink">
    <!-- Generator: Sketch 55.2 (78181) - https://sketchapp.com -->
    <title>ic-calender</title>
    <desc>Created with Sketch.</desc>
    <g id="ic-calender" stroke="none" stroke-width="1" fill="none" fill-rule="evenodd">
        <path d="M11.917,34.083 L33.139,34.083 L33.139,18.639 L11.917,18.639 L11.917,34.083 Z M17.722,15.75 L17.722,11.403 C17.722,11.2589993 17.6770005,11.1420005 17.587,11.052 C17.4969995,10.9619996 17.3800007,10.917 17.236,10.917 L16.264,10.917 C16.1199993,10.917 16.0030005,10.9619996 15.913,11.052 C15.8229995,11.1420005 15.778,11.2589993 15.778,11.403 L15.778,15.75 C15.778,15.8940007 15.8229995,16.0109996 15.913,16.101 C16.0030005,16.1910005 16.1199993,16.236 16.264,16.236 L17.236,16.236 C17.3800007,16.236 17.4969995,16.1910005 17.587,16.101 C17.6770005,16.0109996 17.722,15.8940007 17.722,15.75 Z M29.278,15.75 L29.278,11.403 C29.278,11.2589993 29.2330005,11.1420005 29.143,11.052 C29.0529996,10.9619996 28.9360007,10.917 28.792,10.917 L27.847,10.917 C27.7029993,10.917 27.5860005,10.9619996 27.496,11.052 C27.4059996,11.1420005 27.361,11.2589993 27.361,11.403 L27.361,15.75 C27.361,15.8940007 27.4059996,16.0109996 27.496,16.101 C27.5860005,16.1910005 27.7029993,16.236 27.847,16.236 L28.792,16.236 C28.9360007,16.236 29.0529996,16.1910005 29.143,16.101 C29.2330005,16.0109996 29.278,15.8940007 29.278,15.75 Z M35.083,14.778 L35.083,34.083 C35.083,34.6050026 34.885002,35.0549981 34.489,35.433 C34.092998,35.8110019 33.6430025,36 33.139,36 L11.917,36 C11.3949974,36 10.9450019,35.8110019 10.567,35.433 C10.1889981,35.0549981 10,34.6050026 10,34.083 L10,14.778 C10,14.2559974 10.1889981,13.8060019 10.567,13.428 C10.9450019,13.0499981 11.3949974,12.861 11.917,12.861 L13.861,12.861 L13.861,11.403 C13.861,10.7369967 14.0949977,10.1700023 14.563,9.702 C15.0310023,9.23399766 15.5979967,9 16.264,9 L17.236,9 C17.9020033,9 18.4689977,9.23399766 18.937,9.702 C19.4050023,10.1700023 19.639,10.7369967 19.639,11.403 L19.639,12.861 L25.417,12.861 L25.417,11.403 C25.417,10.7369967 25.6599976,10.1700023 26.146,9.702 C26.6320024,9.23399766 27.1989968,9 27.847,9 L28.792,9 C29.4580033,9 30.0339976,9.23399766 30.52,9.702 C31.0060024,10.1700023 31.2400001,10.7369967 31.222,11.403 L31.222,12.861 L33.139,12.861 C33.6610026,12.861 34.1109981,13.0499981 34.489,13.428 C34.8670019,13.8060019 35.0649999,14.2559974 35.083,14.778 Z" id="calendar-empty---fontawesome" stroke="#FFFFFF" stroke-width="0.9" fill="#666666"></path>
    </g>
</svg>