<?xml version="1.0" encoding="UTF-8"?>
<svg width="45px" height="45px" viewBox="0 0 45 45" version="1.1" xmlns="http://www.w3.org/2000/svg" xmlns:xlink="http://www.w3.org/1999/xlink">
    <!-- Generator: Sketch 55.2 (78181) - https://sketchapp.com -->
    <title>Rectangle 2</title>
    <desc>Created with Sketch.</desc>
    <g id="Rectangle-2" stroke="none" stroke-width="1" fill="none" fill-rule="evenodd">
        <g id="Group" transform="translate(9.000000, 5.000000)">
            <path d="M2.41665925,32.715 L22.8466592,32.715 L22.8466592,10.8 C22.8466592,5.15841128 18.273248,0.585 12.6316592,0.585 C6.99007053,0.585 2.41665925,5.15841128 2.41665925,10.8 L2.41665925,32.715 Z" id="Rectangle-2" stroke="#666666" stroke-width="1.17"></path>
            <path d="M0.45,34.2 L1.81188398e-13,34.2 L1.81188398e-13,33.3 L0.45,33.3 L25.65,33.3 L26.1,33.3 L26.1,34.2 L25.65,34.2 L0.45,34.2 Z M3.15,13.5 L2.7,13.5 L2.7,12.6 L3.15,12.6 L22.95,12.6 L23.4,12.6 L23.4,13.5 L22.95,13.5 L3.15,13.5 Z" id="Combined-Shape" fill="#666666"></path>
            <path d="M6.75,19.35 L18.45,19.35" id="Line-5" stroke="#979797" stroke-width="0.9" stroke-linecap="square"></path>
            <path d="M6.75,24.75 L18.45,24.75" id="Line-5" stroke="#979797" stroke-width="0.9" stroke-linecap="square"></path>
        </g>
    </g>
</svg>