<?xml version="1.0" encoding="UTF-8"?>
<svg width="45px" height="45px" viewBox="0 0 45 45" version="1.1" xmlns="http://www.w3.org/2000/svg" xmlns:xlink="http://www.w3.org/1999/xlink">
    <!-- Generator: Sketch 55.2 (78181) - https://sketchapp.com -->
    <title>ic-embed</title>
    <desc>Created with Sketch.</desc>
    <g id="ic-embed" stroke="none" stroke-width="1" fill="none" fill-rule="evenodd">
        <path d="M17.8734574,28.490374 L17.1823702,29.1807528 C17.1000975,29.2629411 17.0013718,29.3040347 16.88619,29.3040347 C16.7710082,29.3040347 16.6640553,29.2629411 16.5653281,29.1807528 L10.1480901,22.7454363 C10.0493629,22.6632479 10,22.5646233 10,22.4495596 C10,22.3344959 10.0493629,22.2276527 10.1480901,22.1290266 L16.5653281,15.7183665 C16.6476008,15.6197405 16.7545537,15.5704282 16.88619,15.5704282 C17.0178263,15.5704282 17.1165521,15.6197405 17.1823702,15.7183665 L17.8734574,16.4087453 C17.9721846,16.4909337 18.0215475,16.5977769 18.0215475,16.7292783 C18.0215475,16.8607797 17.9721846,16.9594042 17.8734574,17.0251549 L12.4681685,22.4495596 L17.8734574,27.849308 C17.9721846,27.947934 18.0215475,28.0547773 18.0215475,28.169841 C18.0215475,28.2849047 17.9721846,28.3917479 17.8734574,28.490374 Z M26.0184133,13.7951685 L20.8846229,31.5724221 C20.8517138,31.6874858 20.7776695,31.7778917 20.6624878,31.8436423 C20.547306,31.909393 20.4403531,31.9176117 20.3416259,31.8682987 L19.5024486,31.6463913 C19.3708123,31.5970782 19.2803137,31.5231098 19.23095,31.4244838 C19.1815864,31.3258578 19.1651321,31.2107958 19.1815867,31.0792944 L24.3400588,13.3266972 C24.3729678,13.1951958 24.438785,13.10479 24.5375122,13.0554769 C24.6362395,13.0061639 24.7431924,12.9897265 24.8583741,13.0061642 L25.7222331,13.252728 C25.8374149,13.2856034 25.9279135,13.3595718 25.9937316,13.4746355 C26.0595498,13.5896992 26.0677769,13.6965425 26.0184133,13.7951685 Z M35.0765916,22.7454363 L28.6593536,29.1807528 C28.5606263,29.2629411 28.4536734,29.3040347 28.3384917,29.3040347 C28.2233099,29.3040347 28.116357,29.2629411 28.0176298,29.1807528 L27.3265426,28.490374 C27.2442699,28.3917479 27.2031342,28.2849047 27.2031342,28.169841 C27.2031342,28.0547773 27.2442699,27.947934 27.3265426,27.849308 L32.7318315,22.4495596 L27.3265426,17.0251549 C27.2442699,16.9429666 27.2031342,16.844342 27.2031342,16.7292783 C27.2031342,16.6142146 27.2442699,16.5073713 27.3265426,16.4087453 L28.0176298,15.7183665 C28.116357,15.6197405 28.2233099,15.5704282 28.3384917,15.5704282 C28.4536734,15.5704282 28.5606263,15.6197405 28.6593536,15.7183665 L35.0765916,22.1290266 C35.1588643,22.211215 35.2,22.3180583 35.2,22.4495596 C35.2,22.581061 35.1588643,22.6796856 35.0765916,22.7454363 Z" id="code---fontawesome" fill="#666666"></path>
    </g>
</svg>