<?xml version="1.0" encoding="UTF-8"?>
<svg width="45px" height="45px" viewBox="0 0 45 45" version="1.1" xmlns="http://www.w3.org/2000/svg" xmlns:xlink="http://www.w3.org/1999/xlink">
    <!-- Generator: Sketch 55.2 (78181) - https://sketchapp.com -->
    <title>ic-eye</title>
    <desc>Created with Sketch.</desc>
    <g id="ic-eye" stroke="none" stroke-width="1" fill="none" fill-rule="evenodd">
        <g id="Group" transform="translate(5.000000, 11.000000)">
            <path d="M35,11.5181081 C35,11.9711861 34.871668,12.4242572 34.615,12.8773352 C32.7949909,15.9534961 30.3450154,18.4096187 27.265,20.2457767 C24.1849846,22.0819348 20.9300172,23 17.5,23 C14.0699828,23 10.8150154,22.0819348 7.735,20.2457767 C4.6549846,18.4096187 2.2050091,15.9534961 0.385,12.8773352 C0.12833205,12.4242572 0,11.9711861 0,11.5181081 C0,11.0650302 0.12833205,10.6000361 0.385,10.1231119 C2.2050091,7.07079726 4.6549846,4.62659758 7.735,2.79043954 C10.8150154,0.954281504 14.0699828,0.0242933312 17.5,0.00044712289 C20.9300172,-0.0233990854 24.1849846,0.906589087 27.265,2.79043954 C30.3450154,4.67428999 32.7949909,7.11848968 34.615,10.1231119 C34.871668,10.6000361 35,11.0650302 35,11.5181081 Z" id="eye---fontawesome" stroke="#666666" stroke-width="1.4"></path>
            <circle id="Oval-3" stroke="#666666" cx="17.5" cy="7.5" r="7.5"></circle>
            <path d="M19.445,2.82774441 C19.445,2.56543612 19.3516676,2.33890054 19.165,2.14813088 C18.9783324,1.95736121 18.7566679,1.87390073 18.5,1.89774694 C16.8666585,1.89774694 15.4666725,2.49389321 14.3,3.68620362 C13.1333275,4.87851403 12.55,6.29734214 12.55,7.94273051 C12.55,8.2050388 12.6433324,8.43157438 12.83,8.62234405 C13.0166676,8.81311372 13.238332,8.90849712 13.495,8.90849712 C13.7516679,8.90849712 13.9733324,8.81311372 14.16,8.62234405 C14.3466676,8.43157438 14.44,8.2050388 14.44,7.94273051 C14.44,6.79811252 14.8366627,5.82043264 15.63,5.00966156 C16.4233373,4.19889048 17.3799944,3.79351102 18.5,3.79351102 C18.7566679,3.79351102 18.9783324,3.69812762 19.165,3.50735795 C19.3516676,3.31658828 19.445,3.0900527 19.445,2.82774441 Z" id="Path" stroke="#FFFFFF" stroke-width="0.5" fill="#666666"></path>
        </g>
    </g>
</svg>