<?xml version="1.0" encoding="UTF-8"?>
<svg width="45px" height="45px" viewBox="0 0 45 45" version="1.1" xmlns="http://www.w3.org/2000/svg" xmlns:xlink="http://www.w3.org/1999/xlink">
    <!-- Generator: Sketch 55.2 (78181) - https://sketchapp.com -->
    <title>ic-fetch</title>
    <desc>Created with Sketch.</desc>
    <g id="ic-fetch" stroke="none" stroke-width="1" fill="none" fill-rule="evenodd">
        <path d="M21.9522,12 C23.3221453,12 24.6249169,12.2686127 25.8605538,12.8058462 C27.0693291,13.3162179 28.1303493,14.0414722 29.0436462,14.9816308 L30.3531462,13.7728615 C30.4740237,13.6922765 30.5948994,13.6889189 30.7157769,13.7627885 C30.8366545,13.8366581 30.9105229,13.9273148 30.9373846,14.0347615 L32.1058615,18.6079385 C32.1595849,18.8228318 32.1528696,19.0041454 32.0857154,19.1518846 C32.0185612,19.2996238 31.9178314,19.4037112 31.7835231,19.46415 C31.6492147,19.5245888 31.508193,19.5346617 31.3604538,19.4943692 L26.3843538,18.4870615 C26.2231838,18.446769 26.1358847,18.3628276 26.1224538,18.2352346 C26.109023,18.1076417 26.1627455,17.9834083 26.2836231,17.8625308 L27.4521,16.7142 C26.7536965,15.9620732 25.9277125,15.3778405 24.9741231,14.9614846 C24.0205337,14.5451287 23.0132361,14.3369538 21.9522,14.3369538 C20.6225472,14.3369538 19.3734982,14.6660044 18.2050154,15.3241154 C17.090256,15.9553647 16.1904034,16.8149253 15.5054308,17.9028231 C14.7935964,19.0175825 14.404108,20.233055 14.3369538,21.5492769 C14.3369538,21.791032 14.2093628,21.9119077 13.9541769,21.9119077 L12.2619,21.9119077 L12.1813154,21.8917615 C12.127592,21.8648999 12.0839425,21.8212503 12.0503654,21.7608115 C12.0167883,21.7003728 12,21.6164313 12,21.5089846 C12.0671542,19.7764067 12.5640877,18.1714458 13.4908154,16.6940538 C14.3906814,15.2569544 15.5725773,14.1220657 17.0365385,13.2893538 C18.554223,12.4297803 20.1927604,12 21.9522,12 Z M30.1919769,22.2342462 L31.8842538,22.2342462 L31.9648385,22.2543923 C32.0185618,22.281254 32.0622114,22.3215459 32.0957885,22.3752692 C32.1293656,22.4289926 32.1461538,22.5095764 32.1461538,22.6170231 C32.0789997,24.3630318 31.5820662,25.974708 30.6553385,27.4521 C29.7689033,28.8891995 28.5870074,30.0240881 27.1096154,30.8568 C25.5919309,31.7163735 23.9601087,32.1461538 22.2141,32.1461538 C20.8441547,32.1461538 19.5346678,31.8775411 18.2856,31.3403077 C17.0768247,30.8299359 16.0158046,30.1046816 15.1025077,29.1645231 L13.8131538,30.3732923 C13.6788455,30.4538773 13.5512545,30.457235 13.4303769,30.3833654 C13.3094994,30.3094958 13.2356309,30.218839 13.2087692,30.1113923 L12.0402923,25.5382154 C11.986569,25.323322 11.9932843,25.1420084 12.0604385,24.9942692 C12.1275926,24.84653 12.2283224,24.7424426 12.3626308,24.6820038 C12.4969391,24.6215651 12.6379608,24.6114921 12.7857,24.6517846 L17.7819462,25.6590923 C17.9296854,25.6993848 18.0102692,25.7833263 18.0237,25.9109192 C18.0371308,26.0385122 17.9901236,26.1627455 17.8826769,26.2836231 L16.6940538,27.4319538 C17.4058882,28.1840807 18.2251569,28.761598 19.1518846,29.1645231 C20.1189048,29.5943098 21.1396331,29.8092 22.2141,29.8092 C23.5437528,29.8092 24.7860865,29.4801494 25.9411385,28.8220385 C27.0558979,28.1907892 27.9557504,27.3312285 28.6407231,26.2433308 C29.3525574,25.1285713 29.7420458,23.9130989 29.8092,22.5968769 C29.8092,22.3551219 29.936791,22.2342462 30.1919769,22.2342462 Z" id="spin3---fontelico" stroke="#FFFFFF" stroke-width="0.5" fill="#757575"></path>
    </g>
</svg>