<?xml version="1.0" encoding="UTF-8"?>
<svg width="45px" height="45px" viewBox="0 0 45 45" version="1.1" xmlns="http://www.w3.org/2000/svg" xmlns:xlink="http://www.w3.org/1999/xlink">
    <!-- Generator: Sketch 55.2 (78181) - https://sketchapp.com -->
    <title>ic-mag</title>
    <desc>Created with Sketch.</desc>
    <g id="ic-mag" stroke="none" stroke-width="1" fill="none" fill-rule="evenodd">
        <g id="Group" transform="translate(5.000000, 5.000000)" stroke="#666666">
            <path d="M3.76758469,22.1767105 C-1.25588111,17.1035526 -1.25588111,8.87802632 3.76770195,3.80486842 C8.79116775,-1.26828947 16.9361971,-1.26828947 21.9597801,3.80486842 C26.9834805,8.87802632 26.9833632,17.1035526 21.9597801,22.1767105 C16.9360798,27.2498684 8.79116775,27.2498684 3.76758469,22.1767105 Z" id="Stroke-22" stroke-width="1.35"></path>
            <polygon id="Stroke-24" stroke-width="0.914921053" points="28.5168225 25.7482895 26.0457215 28.2434211 21.4695 23.6226316 23.9407182 21.1275"></polygon>
            <path d="M35.4614218,31.5592105 C36.1075456,32.2128947 36.1779039,33.2621053 35.5798583,33.8660526 L33.9932785,35.4682895 C33.3948811,36.0722368 32.3549853,36.0023684 31.7085098,35.3486842 L25.9354935,29.5188158 C25.2885489,28.8651316 25.2491482,27.8467105 25.8471938,27.2427632 L27.4338909,25.6405263 C28.0319365,25.0365789 29.0412264,25.0756579 29.687702,25.7293421 L35.4614218,31.5592105 Z" id="Stroke-25" stroke-width="1.30713158"></path>
        </g>
    </g>
</svg>