<?xml version="1.0" encoding="UTF-8"?>
<svg width="45px" height="45px" viewBox="0 0 45 45" version="1.1" xmlns="http://www.w3.org/2000/svg" xmlns:xlink="http://www.w3.org/1999/xlink">
    <!-- Generator: Sketch 55.2 (78181) - https://sketchapp.com -->
    <title>ic-note</title>
    <desc>Created with Sketch.</desc>
    <g id="ic-note" stroke="none" stroke-width="1" fill="none" fill-rule="evenodd">
        <g id="Group" transform="translate(7.000000, 8.000000)" fill="#666666" stroke="#FFFFFF">
            <path d="M21.5023337,5.5332 C21.7823818,5.81160139 22.0186688,6.17699774 22.2112019,6.6294 C22.4037349,7.08180226 22.5,7.51679791 22.5,7.9344 L22.5,24.6906 C22.5,25.090802 22.3687294,25.4213987 22.1061844,25.6824 C21.8436393,25.9434013 21.5110872,26.0825999 21.1085181,26.1 L1.41773629,26.1 C1.01516718,26.1 0.682615082,25.9608014 0.420070012,25.6824 C0.157524942,25.4039986 0.0175030047,25.0734019 0,24.6906 L0,1.4094 C0,1.009198 0.140021937,0.678601305 0.420070012,0.4176 C0.700118086,0.156598695 1.03267019,0.017400087 1.41773629,0 L14.5449242,0 C14.9299903,0 15.3588074,0.095699043 15.8313886,0.2871 C16.3039697,0.478500957 16.6715273,0.713398608 16.9340723,0.9918 L21.5023337,5.5332 Z M14.9912485,1.9836 L14.9912485,7.4646 L20.5046674,7.4646 C20.4171524,7.16879852 20.312136,6.96870052 20.1896149,6.8643 L15.5950992,2.2968 C15.4900812,2.17499939 15.2887996,2.07060043 14.9912485,1.9836 Z M20.6359393,24.2469 L20.6359393,9.3177 L14.5449242,9.3177 C14.142355,9.3177 13.8098029,9.17850139 13.5472579,8.9001 C13.2847128,8.62169861 13.1446909,8.29980183 13.1271879,7.9344 L13.1271879,1.8531 L1.86406068,1.8531 L1.86406068,24.2469 L20.6359393,24.2469 Z" id="file-pdf---fontawesome" stroke-width="0.5"></path>
            <polygon id="ok---iconic" stroke-width="3.75" points="17.8804031 29.3 10.4 21.9 13.9386338 18.3444444 17.8804031 22.2111111 26.8389698 13.3 30.4 16.8555556"></polygon>
        </g>
    </g>
</svg>