<?xml version="1.0" encoding="UTF-8"?>
<svg width="45px" height="45px" viewBox="0 0 45 45" version="1.1" xmlns="http://www.w3.org/2000/svg" xmlns:xlink="http://www.w3.org/1999/xlink">
    <!-- Generator: Sketch 55.2 (78181) - https://sketchapp.com -->
    <title>ic-note2</title>
    <desc>Created with Sketch.</desc>
    <g id="ic-note2" stroke="none" stroke-width="1" fill="none" fill-rule="evenodd">
        <g id="Group-6" transform="translate(11.000000, 9.000000)">
            <path d="M22.1023337,6.2332 C22.3823818,6.51160139 22.6186688,6.87699774 22.8112019,7.3294 C23.0037349,7.78180226 23.1,8.21679791 23.1,8.6344 L23.1,25.3906 C23.1,25.790802 22.9687294,26.1213987 22.7061844,26.3824 C22.4436393,26.6434013 22.1110872,26.7825999 21.7085181,26.8 L2.01773629,26.8 C1.61516718,26.8 1.28261508,26.6608014 1.02007001,26.3824 C0.757524942,26.1039986 0.617503005,25.7734019 0.6,25.3906 L0.6,2.1094 C0.6,1.709198 0.740021937,1.3786013 1.02007001,1.1176 C1.30011809,0.856598695 1.63267019,0.717400087 2.01773629,0.7 L15.1449242,0.7 C15.5299903,0.7 15.9588074,0.795699043 16.4313886,0.9871 C16.9039697,1.17850096 17.2715273,1.41339861 17.5340723,1.6918 L22.1023337,6.2332 Z M15.5912485,2.6836 L15.5912485,8.1646 L21.1046674,8.1646 C21.0171524,7.86879852 20.912136,7.66870052 20.7896149,7.5643 L16.1950992,2.9968 C16.0900812,2.87499939 15.8887996,2.77060043 15.5912485,2.6836 Z M21.2359393,24.9469 L21.2359393,10.0177 L15.1449242,10.0177 C14.742355,10.0177 14.4098029,9.87850139 14.1472579,9.6001 C13.8847128,9.32169861 13.7446909,8.99980183 13.7271879,8.6344 L13.7271879,2.5531 L2.46406068,2.5531 L2.46406068,24.9469 L21.2359393,24.9469 Z" id="file-pdf---fontawesome" stroke="#FFFFFF" stroke-width="0.5" fill="#666666"></path>
            <path d="M6.45,13.75 L14.55,13.75" id="Line-3" stroke="#666666" stroke-width="0.9" stroke-linecap="square"></path>
            <path d="M6.9,17.8 L16.8,17.8" id="Line-3" stroke="#666666" stroke-width="0.9" stroke-linecap="square"></path>
        </g>
    </g>
</svg>