<?xml version="1.0" encoding="UTF-8"?>
<svg width="45px" height="45px" viewBox="0 0 45 45" version="1.1" xmlns="http://www.w3.org/2000/svg" xmlns:xlink="http://www.w3.org/1999/xlink">
    <!-- Generator: Sketch 55.2 (78181) - https://sketchapp.com -->
    <title>ic-pen</title>
    <desc>Created with Sketch.</desc>
    <g id="ic-pen" stroke="none" stroke-width="1" fill="none" fill-rule="evenodd">
        <path d="M19.1276289,32.813061 L19.1276289,33.9867724 L32.7,33.9867724 L32.7,32.813061 L19.1276289,32.813061 Z M12.7682474,33.9867724 L17.3563918,33.9867724 L17.3563918,32.813061 L12.7682474,32.813061 L12.7682474,33.9867724 Z M20.173299,27.115226 L30.9501031,17.8962569 C31.9317526,17.0639889 32.0384536,15.5701744 31.2061856,14.588525 L29.6910309,12.8172878 C29.2642268,12.3264631 28.6880412,12.0490404 28.0905155,12.00636 C27.4929897,11.9636796 26.8741237,12.1344012 26.383299,12.5612054 L15.6278351,21.7801744 C15.1370103,22.2069786 13.6005155,23.8501744 13.5578351,24.4477002 L12,29.5053291 L17.2283505,28.7584219 C17.2283505,28.7370817 19.6824742,27.5420301 20.173299,27.115226 Z M27.1728866,13.457494 C27.4076289,13.244092 27.7063918,13.1587311 28.0264948,13.1800713 C28.3465979,13.2014116 28.6240206,13.350793 28.8160825,13.5855353 L30.3312371,15.3567724 C30.523299,15.5915146 30.63,15.8902775 30.6086598,16.2103806 C30.5873196,16.5304837 30.4379381,16.8079064 30.2031959,16.9999683 L28.4319588,18.5151229 L25.4016495,14.9513085 L27.1728866,13.457494 Z M16.3960825,22.6764631 L24.5053608,15.7408961 L27.5356701,19.3047105 L19.4263918,26.2402775 C19.2770103,26.3469786 18.8075258,26.6244012 18.21,26.9445043 L15.4357732,23.6794528 C15.7772165,23.2526487 16.1613402,22.868525 16.3960825,22.6764631 Z M16.865567,27.6060507 L13.6431959,28.0755353 L14.6675258,24.7891435 C14.688866,24.7464631 14.688866,24.7037827 14.7102062,24.6397621 C14.7102062,24.6397621 14.7102062,24.6184219 14.7315464,24.6184219 L17.1429897,27.4566693 C17.0576289,27.5206899 16.972268,27.5633703 16.865567,27.6060507 Z" id="Shape" fill="#666666"></path>
    </g>
</svg>