<?xml version="1.0" encoding="UTF-8"?>
<svg width="45px" height="45px" viewBox="0 0 45 45" version="1.1" xmlns="http://www.w3.org/2000/svg" xmlns:xlink="http://www.w3.org/1999/xlink">
    <!-- Generator: Sketch 55.2 (78181) - https://sketchapp.com -->
    <title>ic-usr</title>
    <desc>Created with Sketch.</desc>
    <g id="ic-usr" stroke="none" stroke-width="1" fill="none" fill-rule="evenodd">
        <g id="Group" transform="translate(6.000000, 5.000000)">
            <path d="M25.5,24.8252676 C25.5,26.3351092 25.054386,27.6573439 24.1655952,28.773098 C23.2572223,29.913435 22.135828,30.5 20.8333333,30.5 L4.16666667,30.5 C2.86417204,30.5 1.74277772,29.913435 0.834404752,28.773098 C-0.0543859576,27.6573439 -0.5,26.3351092 -0.5,24.8252676 C-0.5,23.6872032 -0.440548484,22.6185917 -0.321414261,21.6192818 C-0.201620966,20.6144435 0.00183182568,19.5986205 0.28875936,18.5719199 C0.583427612,17.517521 0.99186617,16.6152852 1.51634543,15.8670905 C2.04376762,15.1146975 2.69778729,14.4867232 3.47570645,13.9855508 C4.28810469,13.4621653 5.27314679,13.2162536 6.41865567,13.2416733 L6.61704054,13.2460756 L6.7584174,13.3853183 C8.36927455,14.9718584 10.2742019,15.7589877 12.5,15.7589877 C14.7267235,15.7589877 16.6444312,14.9711055 18.2790275,13.3829404 L18.4245512,13.2415503 L18.627451,13.2415503 C19.6931649,13.2415503 20.6545302,13.4847511 21.5027181,13.97241 C22.3445678,14.4564248 23.0126142,15.0978672 23.5003652,15.8925441 C23.9648786,16.649361 24.3656378,17.5346331 24.7039662,18.5481805 C25.0428031,19.5632513 25.2608463,20.5914411 25.3577885,21.6320941 C25.4526275,22.6501691 25.5,23.7145402 25.5,24.8252676 Z M20.4929905,7.52899818 C20.4903626,9.70707724 19.7149539,11.5892005 18.1782506,13.1484775 C16.6365279,14.7128476 14.7340227,15.500269 12.5,15.500269 C10.2648728,15.500269 8.37272395,14.7119476 6.85392249,13.1455713 C5.34222195,11.5865184 4.55668248,9.70638442 4.50713225,7.52926246 C4.45727311,5.33856776 5.24763031,3.43437533 6.8623356,1.84676371 C8.47305885,0.263067316 10.3629421,-0.524310092 12.5058053,-0.499428373 C14.640162,-0.474645427 16.5336148,0.309029286 18.1642087,1.83862953 C19.8083427,3.3809312 20.5897881,5.28991723 20.4929905,7.52899818 Z" id="user---fontawesome" stroke="#666666"></path>
            <polygon id="ok---iconic" stroke="#FFFFFF" stroke-width="3.75" fill="#666666" points="20.4804031 35 13 27.6 16.5386338 24.0444444 20.4804031 27.9111111 29.4389698 19 33 22.5555556"></polygon>
        </g>
    </g>
</svg>