<?xml version="1.0" encoding="UTF-8"?>
<svg viewBox="0 0 22 17" version="1.1" xmlns="http://www.w3.org/2000/svg" xmlns:xlink="http://www.w3.org/1999/xlink">
    <!-- Generator: Sketch 55.2 (78181) - https://sketchapp.com -->
    <title>Combined Shape</title>
    <desc>Created with Sketch.</desc>
    <g id="Page-1" stroke="none" stroke-width="1" fill="none" fill-rule="evenodd">
        <g id="Intuz_Homepage" transform="translate(-25.000000, -269.000000)" fill="#FFFFFF" stroke="#FFFFFF" stroke-width="0.555555556">
            <g id="SideNavigations" transform="translate(1.000000, 0.000000)">
                <g id="simple-line-icons:screen-smartphone" transform="translate(2.000000, 24.000000)">
                    <g id="Icon">
                        <g id="Group-19">
                            <g id="Group-12" transform="translate(23.000000, 246.000000)">
                                <path d="M5.33333333,8.66666667 C4.59695367,8.66666667 4,8.069713 4,7.33333333 C4,6.59695367 4.59695367,6 5.33333333,6 C6.069713,6 6.66666667,6.59695367 6.66666667,7.33333333 C6.66666667,8.069713 6.069713,8.66666667 5.33333333,8.66666667 Z M9.66666667,8.66666667 C8.930287,8.66666667 8.33333333,8.069713 8.33333333,7.33333333 C8.33333333,6.59695367 8.930287,6 9.66666667,6 C10.4030463,6 11,6.59695367 11,7.33333333 C11,8.069713 10.4030463,8.66666667 9.66666667,8.66666667 Z M14.6666667,8.66666667 C13.930287,8.66666667 13.3333333,8.069713 13.3333333,7.33333333 C13.3333333,6.59695367 13.930287,6 14.6666667,6 C15.4030463,6 16,6.59695367 16,7.33333333 C16,8.069713 15.4030463,8.66666667 14.6666667,8.66666667 Z M19.8535534,0.146446609 C19.9440356,0.236928813 20,0.361928813 20,0.5 L20,13.5 C20,13.7761424 19.7761424,14 19.5,14 C19.2238576,14 19,13.7761424 19,13.5 L19,1 L7.5,1 C7.22385763,1 7,0.776142375 7,0.5 C7,0.223857625 7.22385763,0 7.5,0 L19.5,0 C19.6380712,0 19.7630712,0.0559644063 19.8535534,0.146446609 Z M0.146446609,14.8535534 C0.0559644063,14.7630712 0,14.6380712 0,14.5 L0,1.5 C0,1.22385763 0.223857625,1 0.5,1 C0.776142375,1 1,1.22385763 1,1.5 L1,14 L12.5,14 C12.7761424,14 13,14.2238576 13,14.5 C13,14.7761424 12.7761424,15 12.5,15 L0.5,15 C0.361928813,15 0.236928813,14.9440356 0.146446609,14.8535534 Z" id="Combined-Shape"></path>
                            </g>
                        </g>
                    </g>
                </g>
            </g>
        </g>
    </g>
</svg>