<?xml version="1.0" encoding="UTF-8"?>
<svg viewBox="0 0 26 27" version="1.1" xmlns="http://www.w3.org/2000/svg" xmlns:xlink="http://www.w3.org/1999/xlink">
    <!-- Generator: Sketch 55.2 (78181) - https://sketchapp.com -->
    <title>Group 9</title>
    <desc>Created with Sketch.</desc>
    <g id="Page-1" stroke="none" stroke-width="1" fill="none" fill-rule="evenodd">
        <g id="Intuz_Homepage" transform="translate(-23.000000, -325.000000)" fill="#FFFFFF" fill-rule="nonzero" stroke="#FFFFFF" stroke-width="0.548533047">
            <g id="SideNavigations" transform="translate(1.000000, 0.000000)">
                <g id="simple-line-icons:screen-smartphone" transform="translate(2.000000, 24.000000)">
                    <g id="Icon">
                        <g id="Group-19">
                            <g id="Group-4" transform="translate(0.000000, 302.000000)">
                                <g id="Group-9" transform="translate(21.000000, 0.000000)">
                                    <path d="M5.14902366,11.3658615 L9.09615482,11.3658615 C9.21843615,10.4848565 9.78645957,9.74583734 10.5659199,9.38239629 L9.42737628,5.15908769 C9.36728399,5.16324325 9.30662742,5.16535563 9.24547596,5.16535563 C7.81474959,5.16535563 6.6549167,4.00905139 6.6549167,2.58267782 C6.6549167,1.15630425 7.81474959,-7.81597009e-14 9.24547596,-7.81597009e-14 C10.6762023,-7.81597009e-14 11.8360352,1.15630425 11.8360352,2.58267782 C11.8360352,3.62922273 11.2116615,4.53038102 10.3140264,4.93610871 L11.4497628,9.14900426 C11.519801,9.14333886 11.5906267,9.14045085 11.662129,9.14045085 C12.3711212,9.14045085 13.013591,9.4244009 13.4813633,9.88445511 L18.3151537,5.06537099 C18.3585084,5.02214818 18.4084089,4.98942872 18.461674,4.96721262 C17.9860969,4.49896488 17.6913747,3.84856989 17.6913747,3.12954829 C17.6913747,1.70317472 18.8512076,0.546870472 20.281934,0.546870472 C21.7126604,0.546870472 22.8724933,1.70317472 22.8724933,3.12954829 C22.8724933,4.55592186 21.7126604,5.71222611 20.281934,5.71222611 C19.8535478,5.71222611 19.4494476,5.60856164 19.0934956,5.42502223 C19.0849297,5.52875676 19.0408434,5.63012378 18.9612366,5.70948836 L14.1236387,10.5323685 C14.0877388,10.5681593 14.0473505,10.5967481 14.0042803,10.6181352 C14.163575,10.9531333 14.2526882,11.3277559 14.2526882,11.7231287 C14.2526882,12.4878045 13.9193512,13.1748621 13.3896405,13.6477549 L19.7687493,20.1729643 C19.8163293,20.221634 19.8507917,20.2781981 19.8721927,20.3383037 C20.3021936,20.0217612 20.8338988,19.8346444 21.4094407,19.8346444 C22.8401671,19.8346444 24,20.9909486 24,22.4173222 C24,23.8436958 22.8401671,25 21.4094407,25 C19.9787144,25 18.8188815,23.8436958 18.8188815,22.4173222 C18.8188815,21.8606144 18.9955599,21.3450465 19.2960656,20.9233088 C19.2292202,20.9010355 19.1665609,20.8629687 19.1139803,20.8091839 L12.5895868,14.1353623 C12.3016332,14.2454706 11.9889487,14.3058065 11.662129,14.3058065 C11.5371194,14.3058065 11.4141778,14.2969788 11.2938974,14.2799147 L8.16644329,20.5157931 C8.16196201,20.5247284 8.15722588,20.5334527 8.15224807,20.5419615 C8.45251563,20.9635974 8.62904053,21.4789592 8.62904053,22.0354251 C8.62904053,23.4617987 7.46920765,24.6181029 6.03848127,24.6181029 C4.6077549,24.6181029 3.44792201,23.4617987 3.44792201,22.0354251 C3.44792201,20.6090515 4.6077549,19.4527473 6.03848127,19.4527473 C6.56529281,19.4527473 7.05537646,19.6095197 7.46435418,19.8788214 L10.4181889,13.9891252 C9.7727553,13.6362122 9.29449768,13.0171918 9.13198061,12.2801766 L5.13129697,12.2801766 C4.89513003,13.4639727 3.84736236,14.3562369 2.59055926,14.3562369 C1.15983289,14.3562369 -2.13162821e-14,13.1999326 -2.13162821e-14,11.7735591 C-2.13162821e-14,10.3471855 1.15983289,9.19088124 2.59055926,9.19088124 C3.88213676,9.19088124 4.95295123,10.1332045 5.14902366,11.3658615 Z M12.5386365,13.1478799 C13.0184227,12.8538823 13.3383732,12.325756 13.3383732,11.7231287 C13.3383732,10.8001811 12.5878931,10.0519842 11.662129,10.0519842 C10.7363648,10.0519842 9.98588474,10.8001811 9.98588474,11.7231287 C9.98588474,12.6460763 10.7363648,13.3942731 11.662129,13.3942731 C11.9259304,13.3942731 12.1754988,13.3335199 12.3975252,13.225282 C12.4405813,13.190517 12.488447,13.1647269 12.5386365,13.1478799 Z M2.59055926,13.4447035 C3.51632339,13.4447035 4.26680349,12.6965067 4.26680349,11.7735591 C4.26680349,10.8506115 3.51632339,10.1024146 2.59055926,10.1024146 C1.66479514,10.1024146 0.914315033,10.8506115 0.914315033,11.7735591 C0.914315033,12.6965067 1.66479514,13.4447035 2.59055926,13.4447035 Z M6.03848127,23.7065696 C6.9642454,23.7065696 7.7147255,22.9583727 7.7147255,22.0354251 C7.7147255,21.1124775 6.9642454,20.3642806 6.03848127,20.3642806 C5.11271715,20.3642806 4.36223704,21.1124775 4.36223704,22.0354251 C4.36223704,22.9583727 5.11271715,23.7065696 6.03848127,23.7065696 Z M21.4094407,24.0884667 C22.3352049,24.0884667 23.085685,23.3402698 23.085685,22.4173222 C23.085685,21.4943746 22.3352049,20.7461777 21.4094407,20.7461777 C20.4836766,20.7461777 19.7331965,21.4943746 19.7331965,22.4173222 C19.7331965,23.3402698 20.4836766,24.0884667 21.4094407,24.0884667 Z M9.24547596,4.25382229 C10.1712401,4.25382229 10.9217202,3.50562542 10.9217202,2.58267782 C10.9217202,1.65973021 10.1712401,0.911533347 9.24547596,0.911533347 C8.31971184,0.911533347 7.56923173,1.65973021 7.56923173,2.58267782 C7.56923173,3.50562542 8.31971184,4.25382229 9.24547596,4.25382229 Z M20.281934,4.80069276 C21.2076981,4.80069276 21.9581782,4.05249589 21.9581782,3.12954829 C21.9581782,2.20660068 21.2076981,1.45840382 20.281934,1.45840382 C19.3561699,1.45840382 18.6056898,2.20660068 18.6056898,3.12954829 C18.6056898,4.05249589 19.3561699,4.80069276 20.281934,4.80069276 Z" id="Combined-Shape"></path>
                                </g>
                            </g>
                        </g>
                    </g>
                </g>
            </g>
        </g>
    </g>
</svg>