<?xml version="1.0" encoding="UTF-8"?>
<svg height="35px" viewBox="0 0 19 30" version="1.1" xmlns="http://www.w3.org/2000/svg" xmlns:xlink="http://www.w3.org/1999/xlink">
    <!-- Generator: Sketch 55.2 (78181) - https://sketchapp.com -->
    <title>ic_mobile</title>
    <desc>Created with Sketch.</desc>
    <g id="Page-1" stroke="none" stroke-width="1" fill="none" fill-rule="evenodd">
        <g id="Intuz_Homepage" transform="translate(-27.000000, -81.000000)" fill="#FFFFFF" fill-rule="nonzero" stroke="#FFFFFF" stroke-width="0.5">
            <g id="SideNavigations" transform="translate(1.000000, 0.000000)">
                <g id="simple-line-icons:screen-smartphone" transform="translate(2.000000, 24.000000)">
                    <g id="Icon">
                        <g id="Group-19">
                            <g id="Group-18" transform="translate(2.000000, 57.000000)">
                                <g id="ic_mobile" transform="translate(16.000000, 0.000000)">
                                    <path d="M12.6337822,2 L9.5,2 C9.09531247,2 8.73415415,2.15248907 8.44332161,2.44332161 C8.15248907,2.73415415 8,3.09531247 8,3.5 L8,26.5 C8,26.9046875 8.15248907,27.2658458 8.44332161,27.5566784 C8.73415415,27.8475109 9.09531247,28 9.5,28 L21.5,28 C21.9046875,28 22.2658458,27.8475109 22.5566784,27.5566784 C22.8475109,27.2658458 23,26.9046875 23,26.5 L23,3.5 C23,3.09531247 22.8475109,2.73415415 22.5566784,2.44332161 C22.2658458,2.15248907 21.9046875,2 21.5,2 L18.3662178,2 C18.4513029,2.14708668 18.5,2.31785643 18.5,2.5 C18.5,3.05228475 18.0522847,3.5 17.5,3.5 L13.5,3.5 C12.9477153,3.5 12.5,3.05228475 12.5,2.5 C12.5,2.31785643 12.5486971,2.14708668 12.6337822,2 Z M21.5,1 C21.9525886,1 22.364695,1.11161216 22.7456353,1.33671326 C23.1313561,1.56463916 23.4353608,1.86864391 23.6632867,2.25436466 C23.8883878,2.63530499 24,3.04741142 24,3.5 L24,26.5 L23.9928115,26.7067566 C23.9496484,27.3163918 23.7118146,27.8310786 23.2714466,28.2714466 C22.7821489,28.7607443 22.2010994,29 21.5,29 L9.5,29 L9.29324337,28.9928115 C8.6836082,28.9496484 8.16892136,28.7118146 7.72855339,28.2714466 C7.23925565,27.7821489 7,27.2010994 7,26.5 L7,3.5 L7.00683887,3.3084848 C7.03420529,2.93030277 7.14376946,2.58088494 7.33671326,2.25436466 C7.56463916,1.86864391 7.86864391,1.56463916 8.25436466,1.33671326 C8.63530499,1.11161216 9.04741142,1 9.5,1 L21.5,1 Z M15.515625,23 C15.9327615,23 16.2723262,23.1433718 16.5636394,23.4425583 C16.8586543,23.7455466 17,24.0893605 17,24.5 C17,24.767441 16.9340055,25.0158909 16.7993639,25.2534937 C16.666898,25.4872571 16.4872571,25.666898 16.2534937,25.7993639 C16.0158909,25.9340055 15.767441,26 15.5,26 C15.232559,26 14.9841091,25.9340055 14.7465063,25.7993639 C14.5127429,25.666898 14.333102,25.4872571 14.2006361,25.2534937 C14.0659945,25.0158909 14,24.767441 14,24.5 C14,24.0921875 14.1443859,23.7502208 14.4473034,23.4473034 C14.7497312,23.1448756 15.09667,23 15.515625,23 Z" id="Combined-Shape"></path>
                                </g>
                            </g>
                        </g>
                    </g>
                </g>
            </g>
        </g>
    </g>
</svg>