<?xml version="1.0" encoding="utf-8"?>
<!-- Generator: Adobe Illustrator 16.0.0, SVG Export Plug-In . SVG Version: 6.00 Build 0)  -->
<!DOCTYPE svg PUBLIC "-//W3C//DTD SVG 1.1//EN" "http://www.w3.org/Graphics/SVG/1.1/DTD/svg11.dtd">
<svg version="1.1" id="Layer_1" xmlns="http://www.w3.org/2000/svg" xmlns:xlink="http://www.w3.org/1999/xlink" x="0px" y="0px"
	 width="35px" viewBox="0 0 200 274" enable-background="new 0 0 200 274">
<g display="none">
	
		<rect x="32.249" y="69.5" display="inline" fill="none" stroke="#7E8890" stroke-width="8" stroke-linecap="round" stroke-linejoin="round" stroke-miterlimit="10" width="77.051" height="135"/>
	
		<rect x="110.439" y="107.342" display="inline" fill="none" stroke="#7E8890" stroke-width="8.0138" stroke-linecap="round" stroke-linejoin="round" stroke-miterlimit="10" width="57.312" height="97.158"/>
	<g display="inline">
		<rect x="55.133" y="98.155" fill="#7E8890" width="9.552" height="9.394"/>
		<rect x="76.862" y="98.155" fill="#7E8890" width="9.552" height="9.394"/>
		<rect x="55.133" y="117.273" fill="#7E8890" width="9.552" height="9.394"/>
		<rect x="76.862" y="117.273" fill="#7E8890" width="9.552" height="9.394"/>
		<rect x="55.133" y="136.393" fill="#7E8890" width="9.552" height="9.393"/>
		<rect x="76.862" y="136.393" fill="#7E8890" width="9.552" height="9.393"/>
		<rect x="55.133" y="155.511" fill="#7E8890" width="9.552" height="9.395"/>
		<rect x="76.862" y="155.511" fill="#7E8890" width="9.552" height="9.395"/>
	</g>
	<g display="inline">
		<rect x="124.73" y="126.835" fill="#7E8890" width="9.552" height="9.394"/>
		<rect x="143.909" y="126.835" fill="#7E8890" width="9.552" height="9.394"/>
		<rect x="124.73" y="145.953" fill="#7E8890" width="9.552" height="9.395"/>
		<rect x="143.909" y="145.953" fill="#7E8890" width="9.552" height="9.395"/>
		<rect x="124.73" y="165.072" fill="#7E8890" width="9.552" height="9.393"/>
		<rect x="143.909" y="165.072" fill="#7E8890" width="9.552" height="9.393"/>
	</g>
</g>
<g>
	<line fill="none" stroke="#FFFFFF" stroke-width="9" stroke-miterlimit="10" x1="32.5" y1="83.121" x2="167.5" y2="83.121"/>
	<line fill="none" stroke="#FFFFFF" stroke-width="9" stroke-miterlimit="10" x1="32.5" y1="132.496" x2="141.25" y2="132.496"/>
	<line fill="none" stroke="#FFFFFF" stroke-width="9" stroke-miterlimit="10" x1="32.5" y1="190.879" x2="132.5" y2="190.879"/>
</g>
</svg>
