<?xml version="1.0" encoding="UTF-8"?>
<svg width="190px" height="55px" viewBox="0 0 190 55" version="1.1" xmlns="http://www.w3.org/2000/svg" xmlns:xlink="http://www.w3.org/1999/xlink">
    <!-- Generator: Sketch 48.2 (47327) - http://www.bohemiancoding.com/sketch -->
    <title>social_icon</title>
    <desc>Created with Sketch.</desc>
    <defs></defs>
    <g id="Page-1" stroke="none" stroke-width="1" fill="none" fill-rule="evenodd">
        <g id="social_icon" fill-rule="nonzero">
            <g id="Group" transform="translate(27.000000, 0.000000)">
                <circle id="Oval" fill="#55ACEE" cx="13.327" cy="13.012" r="13"></circle>
                <path d="M21.29,9.354 C20.731,9.601 20.133,9.769 19.505,9.843 C20.147,9.458 20.639,8.85 20.871,8.124 C20.269,8.48 19.604,8.738 18.897,8.878 C18.331,8.274 17.522,7.897 16.628,7.897 C14.912,7.897 13.521,9.289 13.521,11.004 C13.521,11.248 13.548,11.484 13.601,11.712 C11.019,11.583 8.729,10.346 7.198,8.465 C6.929,8.924 6.776,9.458 6.776,10.028 C6.776,11.106 7.326,12.057 8.159,12.615 C7.649,12.598 7.171,12.459 6.752,12.225 C6.752,12.239 6.752,12.251 6.752,12.265 C6.752,13.77 7.823,15.026 9.245,15.312 C8.983,15.383 8.709,15.42 8.426,15.42 C8.226,15.42 8.03,15.401 7.842,15.364 C8.237,16.598 9.384,17.497 10.744,17.522 C9.681,18.356 8.341,18.852 6.885,18.852 C6.635,18.852 6.387,18.837 6.144,18.809 C7.519,19.691 9.153,20.205 10.908,20.205 C16.624,20.205 19.75,15.47 19.75,11.363 C19.75,11.228 19.747,11.093 19.741,10.961 C20.346,10.525 20.873,9.979 21.29,9.354 Z" id="Shape" fill="#F1F2F2"></path>
            </g>
            <g id="Group" transform="translate(136.000000, 0.000000)">
                <circle id="Oval" fill="#00E56B" cx="13.31" cy="13" r="13"></circle>
                <path d="M10.671,19.16 C10.671,19.433 10.539,19.689 10.238,19.689 C10.133,19.689 10.036,19.664 9.946,19.619 L5.842,17.562 C5.595,17.439 5.401,17.121 5.401,16.857 L5.401,6.795 C5.401,6.574 5.507,6.371 5.746,6.371 C5.887,6.371 6.011,6.442 6.134,6.503 L10.644,8.763 C10.653,8.772 10.67,8.798 10.67,8.807 L10.671,19.16 Z M15.949,17.342 L11.235,14.994 L11.235,9.699 L15.949,17.342 Z M16.275,16.805 L12.834,11.209 L15.692,6.558 C15.79,6.399 15.966,6.311 16.151,6.311 C16.231,6.311 16.31,6.329 16.38,6.364 L21.154,8.747 C21.173,8.756 21.19,8.774 21.19,8.8 C21.192,8.834 16.628,16.239 16.275,16.805 Z M21.218,19.16 C21.218,19.451 21.05,19.654 20.759,19.654 C20.609,19.654 20.467,19.611 20.344,19.54 L16.452,17.598 L21.218,9.858 L21.218,19.16 Z" id="Shape" fill="#FFFFFF"></path>
            </g>
            <g id="Group">
                <circle id="Oval" fill="#3B5998" cx="13" cy="13" r="13"></circle>
                <path d="M16.268,13.509 L13.95,13.509 L13.95,22.008 L10.434,22.008 L10.434,13.509 L8.763,13.509 L8.763,10.523 L10.434,10.523 L10.434,8.59 C10.434,7.208 11.09,5.044 13.98,5.044 L16.584,5.055 L16.584,7.954 L14.694,7.954 C14.384,7.954 13.948,8.109 13.948,8.768 L13.948,10.525 L16.575,10.525 L16.268,13.509 Z" id="Shape" fill="#FFFFFF"></path>
            </g>
            <circle id="Oval" fill="#F58220" cx="67.654" cy="13" r="13"></circle>
            <g id="Group" transform="translate(81.000000, 0.000000)">
                <circle id="Oval" fill="#007AB9" cx="13.982" cy="13" r="13"></circle>
                <path d="M21.75,14.046 L21.75,19.406 L18.642,19.406 L18.642,14.404 C18.642,13.149 18.193,12.292 17.069,12.292 C16.212,12.292 15.701,12.869 15.475,13.428 C15.393,13.628 15.373,13.906 15.373,14.185 L15.373,19.404 L12.265,19.404 C12.265,19.404 12.307,10.936 12.265,10.06 L15.373,10.06 L15.373,11.384 C15.366,11.395 15.357,11.405 15.352,11.415 L15.373,11.415 L15.373,11.384 C15.786,10.749 16.521,9.841 18.173,9.841 C20.217,9.84 21.75,11.176 21.75,14.046 Z M9.014,5.555 C7.952,5.555 7.255,6.253 7.255,7.169 C7.255,8.067 7.93,8.784 8.973,8.784 L8.994,8.784 C10.077,8.784 10.753,8.067 10.753,7.169 C10.73,6.252 10.076,5.555 9.014,5.555 Z M7.439,19.406 L10.546,19.406 L10.546,10.06 L7.439,10.06 L7.439,19.406 Z" id="Shape" fill="#F1F2F2"></path>
            </g>
            <g id="Group" transform="translate(27.000000, 28.000000)">
                <circle id="Oval" fill="#696969" cx="13.327" cy="13.033" r="13"></circle>
                <path d="M21.29,9.376 C20.731,9.623 20.133,9.791 19.505,9.864 C20.147,9.479 20.639,8.872 20.871,8.145 C20.269,8.501 19.604,8.76 18.897,8.899 C18.331,8.295 17.522,7.919 16.628,7.919 C14.912,7.919 13.521,9.312 13.521,11.026 C13.521,11.27 13.548,11.505 13.601,11.733 C11.019,11.604 8.729,10.368 7.198,8.487 C6.929,8.946 6.776,9.479 6.776,10.049 C6.776,11.127 7.326,12.078 8.159,12.637 C7.649,12.619 7.171,12.481 6.752,12.246 C6.752,12.26 6.752,12.271 6.752,12.286 C6.752,13.791 7.823,15.047 9.245,15.333 C8.983,15.404 8.709,15.441 8.426,15.441 C8.226,15.441 8.03,15.421 7.842,15.384 C8.237,16.618 9.384,17.517 10.744,17.542 C9.681,18.376 8.341,18.872 6.885,18.872 C6.635,18.872 6.387,18.856 6.144,18.829 C7.519,19.711 9.153,20.225 10.908,20.225 C16.624,20.225 19.75,15.49 19.75,11.383 C19.75,11.247 19.747,11.112 19.741,10.981 C20.346,10.547 20.873,10 21.29,9.376 Z" id="Shape" fill="#F1F2F2"></path>
            </g>
            <g id="Group" transform="translate(136.000000, 28.000000)">
                <circle id="Oval" fill="#696969" cx="13.31" cy="13.021" r="13"></circle>
                <path d="M10.671,19.183 C10.671,19.455 10.539,19.711 10.238,19.711 C10.133,19.711 10.036,19.687 9.946,19.642 L5.842,17.584 C5.595,17.461 5.401,17.144 5.401,16.879 L5.401,6.817 C5.401,6.596 5.507,6.393 5.746,6.393 C5.887,6.393 6.011,6.462 6.134,6.524 L10.644,8.785 C10.653,8.794 10.67,8.819 10.67,8.829 L10.671,19.183 Z M15.949,17.362 L11.235,15.014 L11.235,9.72 L15.949,17.362 Z M16.275,16.826 L12.834,11.229 L15.692,6.579 C15.79,6.42 15.966,6.332 16.151,6.332 C16.231,6.332 16.31,6.351 16.38,6.386 L21.154,8.769 C21.173,8.777 21.19,8.794 21.19,8.822 C21.192,8.854 16.628,16.261 16.275,16.826 Z M21.218,19.183 C21.218,19.474 21.05,19.677 20.759,19.677 C20.609,19.677 20.467,19.633 20.344,19.562 L16.452,17.621 L21.218,9.882 L21.218,19.183 Z" id="Shape" fill="#FFFFFF"></path>
            </g>
            <g id="Group-3" transform="translate(109.000000, 28.000000)">
                <circle id="Oval" fill="#696969" cx="13" cy="13" r="13"></circle>
                <path d="M13.266,5 C8.709,5 5,8.703 5,13.254 C5,17.808 8.709,21.51 13.266,21.51 C17.827,21.51 21.534,17.808 21.534,13.254 C21.533,8.702 17.824,5 13.266,5 Z M18.705,8.895 C19.648,10.063 20.221,11.541 20.248,13.148 C19.934,13.084 18.605,12.836 17.018,12.836 C16.506,12.836 15.967,12.86 15.426,12.928 C15.379,12.817 15.334,12.707 15.287,12.594 C15.146,12.265 14.994,11.938 14.838,11.615 C17.283,10.609 18.461,9.213 18.705,8.895 Z M13.266,6.291 C15.03,6.291 16.637,6.945 17.87,8.023 C17.675,8.289 16.618,9.608 14.263,10.5 C13.171,8.506 11.978,6.854 11.695,6.471 C12.197,6.353 12.725,6.291 13.266,6.291 Z M10.266,6.967 C10.508,7.299 11.705,8.967 12.823,10.946 C9.821,11.736 7.155,11.787 6.511,11.787 L6.445,11.787 C6.904,9.656 8.342,7.885 10.266,6.967 Z M6.281,13.267 C6.281,13.209 6.283,13.152 6.285,13.094 C6.326,13.094 6.389,13.094 6.469,13.094 C7.334,13.094 10.344,13.024 13.444,12.104 C13.632,12.471 13.813,12.846 13.977,13.219 C13.901,13.24 13.823,13.264 13.747,13.289 C10.257,14.416 8.339,17.4 8.044,17.889 C6.947,16.654 6.281,15.036 6.281,13.267 Z M13.266,20.239 C11.664,20.239 10.188,19.697 9.006,18.787 C9.205,18.396 10.654,15.789 14.481,14.459 C14.483,14.457 14.485,14.457 14.489,14.455 C15.448,16.951 15.854,19.049 15.966,19.697 C15.135,20.047 14.223,20.239 13.266,20.239 Z M17.221,19.01 C17.129,18.474 16.752,16.51 15.883,14.114 C16.371,14.038 16.844,14.009 17.289,14.009 C18.748,14.009 19.891,14.328 20.156,14.41 C19.84,16.311 18.75,17.957 17.221,19.01 Z" id="Shape-Copy" fill="#F1F2F2"></path>
            </g>
            <g id="Group-2" transform="translate(109.000000, 0.000000)">
                <g id="Group" fill="#C32361">
                    <circle id="Oval" cx="13.31" cy="13" r="13"></circle>
                </g>
                <path d="M13.266,5 C8.709,5 5,8.703 5,13.254 C5,17.808 8.709,21.51 13.266,21.51 C17.827,21.51 21.534,17.808 21.534,13.254 C21.533,8.702 17.824,5 13.266,5 Z M18.705,8.895 C19.648,10.063 20.221,11.541 20.248,13.148 C19.934,13.084 18.605,12.836 17.018,12.836 C16.506,12.836 15.967,12.86 15.426,12.928 C15.379,12.817 15.334,12.707 15.287,12.594 C15.146,12.265 14.994,11.938 14.838,11.615 C17.283,10.609 18.461,9.213 18.705,8.895 Z M13.266,6.291 C15.03,6.291 16.637,6.945 17.87,8.023 C17.675,8.289 16.618,9.608 14.263,10.5 C13.171,8.506 11.978,6.854 11.695,6.471 C12.197,6.353 12.725,6.291 13.266,6.291 Z M10.266,6.967 C10.508,7.299 11.705,8.967 12.823,10.946 C9.821,11.736 7.155,11.787 6.511,11.787 L6.445,11.787 C6.904,9.656 8.342,7.885 10.266,6.967 Z M6.281,13.267 C6.281,13.209 6.283,13.152 6.285,13.094 C6.326,13.094 6.389,13.094 6.469,13.094 C7.334,13.094 10.344,13.024 13.444,12.104 C13.632,12.471 13.813,12.846 13.977,13.219 C13.901,13.24 13.823,13.264 13.747,13.289 C10.257,14.416 8.339,17.4 8.044,17.889 C6.947,16.654 6.281,15.036 6.281,13.267 Z M13.266,20.239 C11.664,20.239 10.188,19.697 9.006,18.787 C9.205,18.396 10.654,15.789 14.481,14.459 C14.483,14.457 14.485,14.457 14.489,14.455 C15.448,16.951 15.854,19.049 15.966,19.697 C15.135,20.047 14.223,20.239 13.266,20.239 Z M17.221,19.01 C17.129,18.474 16.752,16.51 15.883,14.114 C16.371,14.038 16.844,14.009 17.289,14.009 C18.748,14.009 19.891,14.328 20.156,14.41 C19.84,16.311 18.75,17.957 17.221,19.01 Z" id="Shape" fill="#F1F2F2"></path>
            </g>
            <g id="Group" transform="translate(0.000000, 28.000000)">
                <circle id="Oval" fill="#696969" cx="13" cy="13.021" r="13"></circle>
                <path d="M16.268,13.53 L13.95,13.53 L13.95,22.028 L10.434,22.028 L10.434,13.53 L8.763,13.53 L8.763,10.544 L10.434,10.544 L10.434,8.61 C10.434,7.229 11.09,5.065 13.98,5.065 L16.584,5.076 L16.584,7.973 L14.694,7.973 C14.384,7.973 13.948,8.128 13.948,8.787 L13.948,10.545 L16.575,10.545 L16.268,13.53 Z" id="Shape" fill="#FFFFFF"></path>
            </g>
            <circle id="Oval" fill="#696969" cx="67.654" cy="41.021" r="13"></circle>
            <g id="Group" transform="translate(81.000000, 28.000000)">
                <circle id="Oval" fill="#696969" cx="13.982" cy="13.021" r="13"></circle>
                <path d="M21.75,14.067 L21.75,19.426 L18.642,19.426 L18.642,14.424 C18.642,13.169 18.193,12.313 17.069,12.313 C16.212,12.313 15.701,12.889 15.475,13.448 C15.393,13.649 15.373,13.927 15.373,14.207 L15.373,19.427 L12.265,19.427 C12.265,19.427 12.307,10.958 12.265,10.082 L15.373,10.082 L15.373,11.405 C15.366,11.416 15.357,11.426 15.352,11.436 L15.373,11.436 L15.373,11.405 C15.786,10.77 16.521,9.862 18.173,9.862 C20.217,9.862 21.75,11.198 21.75,14.067 Z M9.014,5.576 C7.952,5.576 7.255,6.274 7.255,7.19 C7.255,8.087 7.93,8.805 8.973,8.805 L8.994,8.805 C10.077,8.805 10.753,8.087 10.753,7.19 C10.73,6.274 10.076,5.576 9.014,5.576 Z M7.439,19.429 L10.546,19.429 L10.546,10.082 L7.439,10.082 L7.439,19.429 Z" id="Shape" fill="#F1F2F2"></path>
            </g>
            <path d="M70.222,44.446 L65.085,44.446 C64.603,44.446 64.175,44.071 64.175,43.589 C64.175,43.109 64.603,42.734 65.085,42.734 L70.222,42.734 C70.704,42.734 71.079,43.109 71.079,43.589 C71.079,44.071 70.704,44.446 70.222,44.446 Z M65.085,37.542 L67.6,37.542 C68.081,37.542 68.456,37.917 68.456,38.397 C68.456,38.879 68.081,39.254 67.6,39.254 L65.084,39.254 C64.602,39.254 64.174,38.879 64.174,38.397 C64.175,37.917 64.603,37.542 65.085,37.542 Z M74.773,39.79 L74.666,39.522 L74.451,39.361 C74.183,39.2 72.846,39.415 72.471,39.093 C72.258,38.825 72.203,38.397 72.096,37.862 C71.991,36.739 71.883,36.684 71.723,36.31 C71.08,34.971 69.368,33.956 68.19,33.848 L65.032,33.848 C62.516,33.848 60.483,35.881 60.483,38.344 L60.483,40.592 L60.483,43.643 C60.483,46.159 62.517,48.192 65.032,48.192 L70.223,48.192 C72.739,48.192 74.774,46.159 74.774,43.643 L74.827,40.645 L74.827,40.002 L74.773,39.79 Z" id="Shape" fill="#FEFEFE"></path>
            <path d="M70.222,16.426 L65.085,16.426 C64.603,16.426 64.175,16.051 64.175,15.569 C64.175,15.089 64.603,14.714 65.085,14.714 L70.222,14.714 C70.704,14.714 71.079,15.089 71.079,15.569 C71.079,16.051 70.704,16.426 70.222,16.426 Z M65.085,9.521 L67.601,9.521 C68.081,9.521 68.456,9.896 68.456,10.376 C68.456,10.858 68.081,11.233 67.601,11.233 L65.085,11.233 C64.603,11.233 64.175,10.858 64.175,10.376 C64.175,9.896 64.603,9.521 65.085,9.521 Z M74.773,11.77 L74.666,11.502 L74.451,11.341 C74.183,11.18 72.846,11.395 72.471,11.073 C72.258,10.805 72.203,10.377 72.096,9.842 C71.991,8.719 71.883,8.664 71.723,8.29 C71.08,6.951 69.368,5.936 68.19,5.828 L65.032,5.828 C62.516,5.828 60.483,7.861 60.483,10.324 L60.483,12.572 L60.483,15.623 C60.483,18.139 62.516,20.172 65.032,20.172 L70.223,20.172 C72.739,20.172 74.774,18.139 74.774,15.623 L74.827,12.625 L74.827,11.982 L74.773,11.77 Z" id="Shape" fill="#FEFEFE"></path>
            <g id="Google-+" transform="translate(164.000000, 0.000000)">
                <path d="M0,13 C0,5.8202979 5.73315613,0 12.8053634,0 C19.8775707,0 25.6107268,5.8202979 25.6107268,13 C25.6107268,20.1797021 19.8775707,26 12.8053634,26 C5.73315613,26 0,20.1797021 0,13 Z" id="back" fill="#DC4E41"></path>
                <path d="M9.10204082,12.7142857 L9.10204082,14.6 L11.9956269,14.6 C11.8790088,15.4092858 11.1209913,16.9728572 9.10204082,16.9728572 C7.36005832,16.9728572 5.93877552,15.4171428 5.93877552,13.5000001 C5.93877552,11.5828572 7.36005832,10.0271428 9.10204082,10.0271428 C10.0932945,10.0271428 10.7565598,10.4828572 11.1355686,10.8757143 L12.5204083,9.43785717 C11.6311954,8.54214285 10.4795919,8 9.10204082,8 C6.28134112,8 4,10.4592857 4,13.5000001 C4,16.5407143 6.28134112,19 9.10204082,19 C12.0466472,19 14,16.7685715 14,13.6257143 C14,13.2642857 13.9635569,12.9892858 13.9198251,12.7142857 L9.10204082,12.7142857 Z" id="Shape" fill="#FFFFFF"></path>
                <polyline id="Shape-Copy" fill="#FFFFFF" points="22 12.6666666 20.3333334 12.6666666 20.3333334 11 18.6666666 11 18.6666666 12.6666666 17 12.6666666 17 14.3333333 18.6666666 14.3333333 18.6666666 16 20.3333334 16 20.3333334 14.3333333 22 14.3333333"></polyline>
            </g>
            <g id="Google-+-Copy" transform="translate(164.000000, 28.000000)">
                <path d="M0,13 C0,5.8202979 5.73315613,0 12.8053634,0 C19.8775707,0 25.6107268,5.8202979 25.6107268,13 C25.6107268,20.1797021 19.8775707,26 12.8053634,26 C5.73315613,26 0,20.1797021 0,13 Z" id="back" fill="#696969"></path>
                <path d="M9.10204082,14.6 L11.9956269,14.6 C11.8790088,15.4092858 11.1209913,16.9728572 9.10204082,16.9728572 C7.36005832,16.9728572 5.93877552,15.4171428 5.93877552,13.5000001 C5.93877552,11.5828572 7.36005832,10.0271428 9.10204082,10.0271428 C10.0932945,10.0271428 10.7565598,10.4828572 11.1355686,10.8757143 L12.5204083,9.43785717 C11.6311954,8.54214285 10.4795919,8 9.10204082,8 C6.28134112,8 4,10.4592857 4,13.5000001 C4,16.5407143 6.28134112,19 9.10204082,19 C12.0466472,19 14,16.7685715 14,13.6257143 C14,13.2642857 13.9635569,12.9892858 13.9198251,12.7142857 L9.10204082,12.7142857 L9.10204082,14.6 Z" id="Shape" fill="#FFFFFF"></path>
                <polyline id="Shape-Copy" fill="#FFFFFF" points="22 12.6666666 20.3333334 12.6666666 20.3333334 11 18.6666666 11 18.6666666 12.6666666 17 12.6666666 17 14.3333333 18.6666666 14.3333333 18.6666666 16 20.3333334 16 20.3333334 14.3333333 22 14.3333333"></polyline>
            </g>
        </g>
    </g>
</svg>