<?xml version="1.0" encoding="UTF-8"?>
<svg viewBox="0 0 26 26" version="1.1" xmlns="http://www.w3.org/2000/svg" xmlns:xlink="http://www.w3.org/1999/xlink">
    <!-- Generator: Sketch 55.2 (78181) - https://sketchapp.com -->
    <title>Combined Shape</title>
    <desc>Created with Sketch.</desc>
    <g id="Page-1" stroke="none" stroke-width="1" fill="none" fill-rule="evenodd">
        <g id="Intuz_Homepage" transform="translate(-23.000000, -209.000000)" stroke="#FFFFFF" stroke-width="0.545454545">
            <g id="SideNavigations" transform="translate(1.000000, 0.000000)">
                <g id="simple-line-icons:screen-smartphone" transform="translate(2.000000, 24.000000)">
                    <g id="Icon">
                        <g id="Group-19">
                            <g id="Group-13" transform="translate(21.000000, 186.000000)">
                                <path d="M23.2387073,12.3803847 L18.4899919,12.3803847 C18.4571604,14.3775325 18.164431,16.2516099 17.6709097,17.8845262 C18.7684878,18.1500516 19.8428178,18.4890155 20.8841759,18.8989893 C22.2931767,17.0864361 23.1579447,14.8304493 23.2387073,12.3803847 Z M23.2387083,11.6261176 C23.1579031,9.17414976 22.2921329,6.9127054 20.8816102,5.09817186 C19.8395747,5.50863695 18.7673031,5.85071621 17.6672333,6.11466818 C18.1613311,7.75001411 18.4568266,9.62760175 18.4899612,11.6261174 L23.2387083,11.6261176 Z M17.7478025,12.3803847 L6.25870408,12.3803847 C6.29188664,14.3219078 6.5802681,16.140015 7.06125165,17.7143267 C7.15054246,17.6957926 7.23997239,17.6777673 7.32953621,17.6602547 C8.83970708,17.3611487 10.4019528,17.2115958 11.990236,17.2115958 C13.5785191,17.2115958 15.1407648,17.367651 16.6509357,17.6602547 C16.7483431,17.6795508 16.8455947,17.6994172 16.9426841,17.7198523 C17.42521,16.1436432 17.7145606,14.3250516 17.7477988,12.380385 Z M17.7477993,11.6261173 C17.7145142,9.67824469 17.4243522,7.85459644 16.9405324,6.27673719 C16.8463649,6.29614987 16.752002,6.31498712 16.6574451,6.33324302 C15.1472742,6.63234896 13.5850285,6.78190192 11.9967453,6.78190192 C10.4084622,6.78190192 8.84621644,6.62584665 7.33604557,6.33324302 C7.2459649,6.31562932 7.15601967,6.297497 7.0662152,6.27885005 C6.58225489,7.85685836 6.29200363,9.67824213 6.25871052,11.6261173 L17.747803,11.6261176 Z M5.50363493,12.3803847 L0.754759364,12.3803847 C0.835340221,14.8340529 1.6994417,17.0860585 3.10752434,18.8971218 C4.14946167,18.4860522 5.22512762,18.1443434 6.32449817,17.8795056 C5.83199363,16.2473013 5.53726523,14.3740982 5.50363822,12.3803849 Z M5.50342304,11.6261176 C5.5360149,9.62615015 5.83142465,7.74934493 6.32575203,6.11272546 C5.22851393,5.84813859 4.15490773,5.50698022 3.11490127,5.09671812 C1.70599476,6.91033056 0.835857535,9.16904322 0.754789226,11.6261176 L5.50341764,11.6261176 Z M23.9932843,11.9321642 C23.9976924,11.9551899 24,11.9789545 24,12.0032512 C24,12.0275478 23.9976924,12.0513124 23.9932843,12.0743381 C23.9768498,14.9052688 22.9793553,17.5045297 21.3198354,19.5493464 C21.3068616,19.5726546 21.290733,19.5928115 21.2725793,19.6109455 C20.4949879,20.5547856 19.5761035,21.3794409 18.5486364,22.0500584 C16.6647312,23.2825392 14.4157472,24 11.9967453,24 C8.68348251,24 5.68266884,22.6540233 3.51505289,20.4822541 C3.38770515,20.3550444 3.26321607,20.2250014 3.14168768,20.0922284 C2.99038209,19.9273035 2.84354846,19.7581407 2.70138324,19.5849363 C2.69628761,19.5785737 2.69143131,19.5721015 2.68681279,19.5655302 C1.00549871,17.501173 2.84217094e-14,14.8692306 2.84217094e-14,12.0032512 C2.84217094e-14,9.14288114 1.00156652,6.51563295 2.67694826,4.45310005 C2.6861025,4.43777815 2.69641579,4.42289183 2.7078926,4.40856137 C3.82750203,3.03657545 5.2465419,1.91817936 6.86737185,1.15090761 C8.42310822,0.409645083 10.1676159,-7.10542736e-15 12.0032547,-7.10542736e-15 C13.8323841,0.0065023029 15.5768918,0.416147386 17.1326282,1.15740992 C18.7404394,1.91817936 20.1529699,3.03007315 21.2725793,4.38905446 C21.2988018,4.41524851 21.3207989,4.4456634 21.3385705,4.48029913 C22.9868601,6.52156822 23.9769117,9.11190283 23.9932843,11.9321642 Z M14.7137224,1.08389085 C15.4476261,1.70060625 16.1052974,2.56083451 16.6574451,3.60877811 C16.9463276,4.1577235 17.2072622,4.75996623 17.4357127,5.40687537 C18.442363,5.1678977 19.4250436,4.86448582 20.3807974,4.49959361 C19.836385,3.89534648 19.2297304,3.34744523 18.5693395,2.86969707 C17.4260012,2.04620953 16.1221037,1.43252155 14.7137224,1.08389085 Z M9.27341398,1.0882695 C8.54676271,1.26937425 7.84842718,1.52067528 7.18633035,1.83364942 C5.82587469,2.4773774 4.61513426,3.38769981 3.62571196,4.49959361 C4.57253515,4.86297881 5.55369317,5.16539045 6.55750369,5.40391112 C6.78601958,4.75641751 7.04704741,4.15309998 7.33604557,3.60227581 C7.88659919,2.56041287 8.54206814,1.70374735 9.27341398,1.0882695 C10.1470231,0.870538147 11.0615592,0.754267136 12.0032547,0.754267136 L9.27341398,1.0882695 Z M6.55750369,5.40391112 L7.30302994,5.56845484 C7.05326382,5.51751042 6.80469691,5.46264799 6.55750369,5.40391112 Z M16.7043868,5.56826166 L17.4357127,5.40687537 C17.1933135,5.46442067 16.9495244,5.51822985 16.7043868,5.56826166 Z M14.7158155,22.9143495 C16.3524849,22.5076543 17.847995,21.7427972 19.1143238,20.7100811 C19.5653878,20.3403742 19.9868094,19.9358475 20.374288,19.5004064 C19.4261029,19.1364985 18.4434841,18.8337397 17.4381645,18.59506 C17.2094976,19.2410044 16.9478557,19.8425263 16.6574451,20.3912219 C16.1058224,21.4381692 15.4488765,22.2977578 14.7158155,22.9143495 Z M12.2309637,23.2433366 C13.6846616,23.129569 15.0099665,21.9318059 16,20.0465998 C16.2600311,19.5521373 16.4963137,19.0121119 16.7052192,18.4332292 C16.6416361,18.4202369 16.5779751,18.4074986 16.5142392,18.3950149 C15.0496338,18.1089136 13.539463,17.9593606 11.9967453,17.9593606 C10.4475183,17.9593606 8.93734744,18.1089136 7.47925142,18.3950149 C7.41921936,18.4067158 7.35927951,18.4186404 7.29943247,18.4307881 C7.50879454,19.0112899 7.74570715,19.5522404 8.00650936,20.0465998 C8.99782403,21.9280565 10.3311756,23.1320715 11.7820424,23.2437297 C11.8534498,23.2450632 11.9250194,23.2457329 11.9967453,23.2457329 C12.0750068,23.2457329 12.1530822,23.2449315 12.2309637,23.2433366 Z M9.27976827,22.9161092 C8.54586457,22.2993937 7.8881932,21.4391655 7.33604557,20.3912219 C7.04726184,19.8424643 6.78640695,19.2404458 6.5580124,18.5937885 C5.54965848,18.8326641 4.56907226,19.135852 3.6192026,19.5004064 C4.61513426,20.6057979 5.81936534,21.5226226 7.17982099,22.1663506 C7.26715876,22.2080248 7.3551271,22.2485791 7.44370782,22.2879983 C8.03106386,22.5478701 8.644797,22.7589284 9.27976827,22.9161092 Z" id="Combined-Shape"></path>
                            </g>
                        </g>
                    </g>
                </g>
            </g>
        </g>
    </g>
</svg>