<svg xmlns="http://www.w3.org/2000/svg" viewBox="0 0 26 30" width="26" height="30">
	<style>
		tspan { white-space:pre }
		.shp0 { fill: #3a3a3a } 
	</style>
	<path id="android - FontAwesome" fill-rule="evenodd" class="shp0" d="M9.22 6.5C9.61 6.5 9.91 6.18 9.91 5.8C9.91 5.42 9.61 5.1 9.22 5.1C8.84 5.1 8.53 5.42 8.53 5.8C8.53 6.18 8.84 6.5 9.22 6.5ZM16.78 6.5C17.16 6.5 17.47 6.18 17.47 5.8C17.47 5.42 17.16 5.1 16.78 5.1C16.39 5.1 16.09 5.42 16.09 5.8C16.09 6.18 16.39 6.5 16.78 6.5ZM2.22 9.8C3.22 9.8 4.05 10.63 4.05 11.63L4.05 19.34C4.05 20.37 3.24 21.19 2.22 21.19C1.2 21.19 0.37 20.37 0.37 19.34L0.37 11.63C0.37 10.63 1.2 9.8 2.22 9.8ZM21.23 10.14L21.23 22.09C21.23 23.18 20.35 24.06 19.28 24.06L17.93 24.06L17.93 28.13C17.93 29.16 17.11 29.98 16.09 29.98C15.06 29.98 14.24 29.16 14.24 28.13L14.24 24.06L11.76 24.06L11.76 28.13C11.76 29.16 10.94 29.98 9.91 29.98C8.91 29.98 8.08 29.16 8.08 28.13L8.07 24.06L6.74 24.06C5.65 24.06 4.77 23.18 4.77 22.09L4.77 10.14L21.23 10.14ZM17.07 2.88C19.58 4.17 21.29 6.64 21.29 9.49L4.69 9.49C4.69 6.64 6.4 4.17 8.93 2.88L7.65 0.53C7.58 0.4 7.62 0.24 7.74 0.17C7.87 0.11 8.03 0.15 8.1 0.27L9.39 2.64C10.49 2.16 11.71 1.89 13 1.89C14.29 1.89 15.51 2.16 16.61 2.64L17.9 0.27C17.97 0.15 18.13 0.11 18.26 0.17C18.38 0.24 18.42 0.4 18.35 0.53L17.07 2.88ZM25.63 11.63L25.63 19.34C25.63 20.37 24.8 21.19 23.78 21.19C22.78 21.19 21.95 20.37 21.95 19.34L21.95 11.63C21.95 10.61 22.78 9.8 23.78 9.8C24.8 9.8 25.63 10.61 25.63 11.63Z" />
</svg>