<?xml version="1.0" encoding="utf-8"?>
<!-- Generator: Adobe Illustrator 15.1.0, SVG Export Plug-In . SVG Version: 6.00 Build 0)  -->
<!DOCTYPE svg PUBLIC "-//W3C//DTD SVG 1.1//EN" "http://www.w3.org/Graphics/SVG/1.1/DTD/svg11.dtd">
<svg version="1.1" id="Layer_1" xmlns="http://www.w3.org/2000/svg" xmlns:xlink="http://www.w3.org/1999/xlink" x="0px" y="0px"
	width="32px" height="32px" viewBox="0 0 32 32" enable-background="new 0 0 32 32" xml:space="preserve">
	<g>
		<g>
			<g>
				<path fill="#AFAFAF" d="M10.485,21.08c-0.485-0.262-0.666-0.865-0.404-1.35c0.262-0.482,0.867-0.662,1.353-0.402
					c1.145,0.617,2.417,0.99,3.719,1.104c0.063-1.254,0.262-2.34,0.451-3.127h-2.578v-0.994c0-3.006,2.056-8.201,2.939-10.297h-9.95
					c-1.099,0-1.997,0.893-1.997,1.988v15.994c0,1.094,0.898,1.99,1.997,1.99h9.933c-0.445-1.211-0.682-2.418-0.771-3.555
					C13.534,22.314,11.928,21.855,10.485,21.08z M10.102,11.406c0-0.473,0.385-0.855,0.858-0.855s0.858,0.383,0.858,0.855v1.242
					c0,0.473-0.384,0.855-0.858,0.855c-0.474,0-0.858-0.383-0.858-0.855V11.406z M25.986,6.014h-7.848
					c-0.336,0.762-2.603,5.998-3.042,9.303h3.276l-0.504,1.342c-0.01,0.027-0.574,1.592-0.705,3.742
					c1.262-0.152,2.484-0.549,3.588-1.174c0.479-0.271,1.09-0.105,1.361,0.373c0.273,0.477,0.105,1.084-0.375,1.355
					c-1.398,0.793-2.955,1.279-4.557,1.443c0.088,1.016,0.303,2.088,0.723,3.146c0.059,0.145,0.074,0.295,0.064,0.441h8.016
					c1.098,0,1.998-0.895,1.998-1.988V8.002C27.982,6.906,27.084,6.014,25.986,6.014z M22.105,12.664
					c0,0.473-0.385,0.855-0.859,0.855s-0.857-0.383-0.857-0.855V11.42c0-0.471,0.383-0.854,0.857-0.854s0.859,0.383,0.859,0.854
					V12.664z"/>
				</g>
			</g>
		</g>
	</svg>
