<svg viewBox="0 0 31 49" version="1.1" xmlns="http://www.w3.org/2000/svg" xmlns:xlink="http://www.w3.org/1999/xlink" id="el_oPGhxmT5p"><style>@-webkit-keyframes kf_el_bgVozoaZZk_an_fYGzHwhQQ{0%{opacity: 1;}11.11%{opacity: 0.8;}22.22%{opacity: 0.6;}33.33%{opacity: 0.4;}44.44%{opacity: 0.2;}55.56%{opacity: 0.4;}66.67%{opacity: 0.6;}77.78%{opacity: 0.8;}88.89%{opacity: 1;}100%{opacity: 1;}}@keyframes kf_el_bgVozoaZZk_an_fYGzHwhQQ{0%{opacity: 1;}11.11%{opacity: 0.8;}22.22%{opacity: 0.6;}33.33%{opacity: 0.4;}44.44%{opacity: 0.2;}55.56%{opacity: 0.4;}66.67%{opacity: 0.6;}77.78%{opacity: 0.8;}88.89%{opacity: 1;}100%{opacity: 1;}}@-webkit-keyframes kf_el_o6diYtKvSz_an_ruAH8L5JC{0%{opacity: 1;}11.11%{opacity: 0.8;}22.22%{opacity: 0.6;}33.33%{opacity: 0.4;}44.44%{opacity: 0.2;}55.56%{opacity: 0.4;}66.67%{opacity: 0.6;}77.78%{opacity: 0.8;}88.89%{opacity: 1;}100%{opacity: 1;}}@keyframes kf_el_o6diYtKvSz_an_ruAH8L5JC{0%{opacity: 1;}11.11%{opacity: 0.8;}22.22%{opacity: 0.6;}33.33%{opacity: 0.4;}44.44%{opacity: 0.2;}55.56%{opacity: 0.4;}66.67%{opacity: 0.6;}77.78%{opacity: 0.8;}88.89%{opacity: 1;}100%{opacity: 1;}}@-webkit-keyframes kf_el_UgnBhPjqHS_an_2aicb01Ac{0%{opacity: 1;}11.11%{opacity: 0.8;}22.22%{opacity: 0.6;}33.33%{opacity: 0.4;}44.44%{opacity: 0.2;}55.56%{opacity: 0.4;}66.67%{opacity: 0.6;}77.78%{opacity: 0.8;}88.89%{opacity: 1;}100%{opacity: 1;}}@keyframes kf_el_UgnBhPjqHS_an_2aicb01Ac{0%{opacity: 1;}11.11%{opacity: 0.8;}22.22%{opacity: 0.6;}33.33%{opacity: 0.4;}44.44%{opacity: 0.2;}55.56%{opacity: 0.4;}66.67%{opacity: 0.6;}77.78%{opacity: 0.8;}88.89%{opacity: 1;}100%{opacity: 1;}}#el_oPGhxmT5p *{-webkit-animation-duration: 1.5s;animation-duration: 1.5s;-webkit-animation-iteration-count: infinite;animation-iteration-count: infinite;-webkit-animation-timing-function: cubic-bezier(0, 0, 1, 1);animation-timing-function: cubic-bezier(0, 0, 1, 1);}#el_Jqd_WoVpQV{stroke: none;stroke-width: 1;fill: none;}#el_Yw-Dmkyl_R{-webkit-transform: translate(-196px, -81px);transform: translate(-196px, -81px);}#el_V-Ojsswl1o{-webkit-transform: translate(196px, 81px);transform: translate(196px, 81px);}#el_bgVozoaZZk{fill: url(#linearGradient-1);-webkit-animation-fill-mode: backwards;animation-fill-mode: backwards;opacity: 1;-webkit-animation-name: kf_el_bgVozoaZZk_an_fYGzHwhQQ;animation-name: kf_el_bgVozoaZZk_an_fYGzHwhQQ;-webkit-animation-timing-function: cubic-bezier(0, 0, 1, 1);animation-timing-function: cubic-bezier(0, 0, 1, 1);}#el_o6diYtKvSz{fill: url(#linearGradient-2);-webkit-animation-fill-mode: backwards;animation-fill-mode: backwards;opacity: 1;-webkit-animation-name: kf_el_o6diYtKvSz_an_ruAH8L5JC;animation-name: kf_el_o6diYtKvSz_an_ruAH8L5JC;-webkit-animation-timing-function: cubic-bezier(0, 0, 1, 1);animation-timing-function: cubic-bezier(0, 0, 1, 1);}#el_UgnBhPjqHS{fill: url(#linearGradient-3);-webkit-animation-fill-mode: backwards;animation-fill-mode: backwards;opacity: 1;-webkit-animation-name: kf_el_UgnBhPjqHS_an_2aicb01Ac;animation-name: kf_el_UgnBhPjqHS_an_2aicb01Ac;-webkit-animation-timing-function: cubic-bezier(0, 0, 1, 1);animation-timing-function: cubic-bezier(0, 0, 1, 1);}</style>
    <!-- Generator: Sketch 56.3 (81716) - https://sketch.com -->
    <title>Group Copy 2</title>
    <desc>Created with Sketch.</desc>
    <defs>
        <linearGradient x1="49.9494453%" y1="-291.34956%" x2="49.9494453%" y2="176.174186%" id="linearGradient-1">
            <stop stop-color="#3CECEC" offset="60.98%"/>
            <stop stop-color="#38E7E7" offset="66.77%"/>
            <stop stop-color="#31DEDE" offset="71.21%"/>
            <stop stop-color="#24B6B6" offset="86.23%"/>
        </linearGradient>
        <linearGradient x1="74.2522223%" y1="12.7165104%" x2="21.1985603%" y2="89.6202138%" id="linearGradient-2">
            <stop stop-color="#684574" offset="0%"/>
            <stop stop-color="#9F41C0" offset="52.73%"/>
            <stop stop-color="#684574" offset="100%"/>
        </linearGradient>
        <linearGradient x1="50.6936628%" y1="69.8651014%" x2="49.6110985%" y2="31.0734886%" id="linearGradient-3">
            <stop stop-color="#3CECEC" offset="60.98%"/>
            <stop stop-color="#38E7E7" offset="66.77%"/>
            <stop stop-color="#31DEDE" offset="71.21%"/>
            <stop stop-color="#24B6B6" offset="86.23%"/>
        </linearGradient>
    </defs>
    <g id="el_Jqd_WoVpQV" fill-rule="evenodd">
        <g id="el_Yw-Dmkyl_R" fill-rule="nonzero">
            <g id="el_V-Ojsswl1o">
                <path d="M29.9157141,43.7076248 C29.7086572,41.7066731 28.362787,41.1301276 28.362787,41.1301276 C27.9141635,40.8248977 26.6373123,40.4179245 24.9118377,40.4857533 C23.2208725,40.5535822 21.5989264,40.8248977 21.5989264,40.8248977 L17.3197493,41.3675287 L12.7299867,41.8084164 L6.86337297,41.8762452 C6.62180652,41.8762452 6.41474956,41.8762452 6.2076926,41.8762452 C4.96535087,41.9440741 3.41242369,41.7405875 1.9285155,40.7231544 C1.4798921,41.6727586 0.927740213,42.6223629 0.306569343,43.5041382 C0.617154778,44.419828 1.10028768,44.962459 1.34185413,45.3016033 C3.75751862,48.6591326 8.38179065,48.5573893 9.10649,48.6591326 C10.3143222,48.8287047 15.8703506,48.9982769 16.8711259,48.9982769 C22.1855878,49.0321914 26.0506509,48.5573893 26.9133883,48.2860738 C29.4325812,47.5060417 30.0882616,45.5729188 29.9157141,43.7076248 Z" id="el_bgVozoaZZk"/>
                <path d="M29.8836198,12.7053206 C29.9543936,12.1839167 29.9897806,11.5234719 29.8128459,10.8282667 C29.5651373,9.8549795 28.8927856,8.84693204 27.3711473,8.18648715 C26.7695694,7.94316534 26.0618307,7.7346038 25.2833181,7.59556277 C25.0709965,7.56080251 24.5755794,7.491282 24.3632578,7.45652174 C24.3278708,7.45652174 10.3146443,24.5933286 3.59112654,31.8234622 C3.59112654,31.8582225 3.59112654,31.8929827 3.59112654,31.8929827 C3.59112654,34.5695225 3.4495788,37.2113021 2.42335766,39.4359586 C5.00660397,40.6873278 7.23598092,40.4787663 7.4129156,40.444006 L18.9136697,26.5399031 C18.9136697,26.5399031 29.7066851,13.4005258 29.742072,13.3310052 C29.7066851,13.435286 29.8128459,13.1919642 29.8836198,12.7053206 Z" id="el_o6diYtKvSz"/>
                <path d="M4.36343383,8.53971848 C5.70359047,8.64588063 6.93794528,8.43355632 6.93794528,8.43355632 C6.93794528,8.43355632 11.4168899,7.97352033 12.2280373,7.90274556 C14.9083506,7.65503387 20.4453136,7.44270957 22.2086776,7.54887172 C23.1256269,7.61964649 24.2541798,7.72580864 25.3121982,7.93813295 C27.3577005,8.32739417 28.1335806,8.89359232 28.6978571,9.38901569 C29.3326682,9.91982645 29.6500737,10.5567994 29.7911428,11.2291597 C29.9674792,11.9369073 29.9674792,12.644655 29.8616774,13.1400784 C29.7911428,13.4585649 29.7558755,13.7062766 29.7206082,13.8478261 C31.1312995,11.6184209 31.7661105,6.34570066 29.5442718,3.90397116 C27.3929678,1.49762904 25.0653273,1.03759305 24.3599817,0.860656131 C23.6546361,0.648331827 18.3292768,0.223683218 18.3292768,0.223683218 C18.3292768,0.223683218 12.0869682,-0.0594158547 9.68879313,0.0113589134 C5.87992687,0.15290845 4.29289927,0.400620138 3.48175182,0.612944443 C3.65808823,1.00220567 3.76389007,1.35607951 3.83442463,1.67456596 C4.43396839,4.18707023 4.36343383,5.77950252 4.36343383,8.53971848 Z" id="el_UgnBhPjqHS"/>
            </g>
        </g>
    </g>
</svg>